<svg xmlns="http://www.w3.org/2000/svg" xmlns:xlink="http://www.w3.org/1999/xlink" width="408" height="295" viewBox="0.3 0.9 408 295">
  <path fill="#E5E2C6" d="M407.9 135.9l-4-29.4V84.3h2.2V71.8h-37.4l-22-69.9-.1-.2-.2-.1v-.1l-.2-.1v-.1h-.2l-.1-.1-.1-.1h-.2l-.3-.2h-70l-23.5 70.9h-36.4v4H67l-.8-.2-.3.1H15.7L.5 124.9l4.2.1s-.7 170.8.1 170.8h402.8l.3-159.9z"/>
  <path fill="#CECBB3" d="M4.6 277.6h209.8v18.1H4.6v-18.1z"/>
  <path fill="#CECBB3" d="M4.6 124.5h66.9v171.2H4.6V124.5z"/>
  <path fill="#EFEFEF" d="M4.6 228.3h66.9v2.8H4.6v-2.8zm0 15.3h66.9v2.8H4.6v-2.8zm0 15.3h66.9v3.4H4.6v-3.4zm0 15.3h66.9v3.4H4.6v-3.4z"/>
  <g opacity=".1">
    <defs>
      <path id="a" d="M256.8 69.1h108.6v5.2H256.8z"/>
    </defs>
    <clipPath id="b">
      <use xlink:href="#a" overflow="visible"/>
    </clipPath>
    <path clip-path="url(#b)" fill="#AC8C6B" d="M256.8 69.1h108.6v5.2H256.8v-5.2z"/>
  </g>
  <g opacity=".1">
    <defs>
      <path id="c" d="M75.1 111.4h141.2l1.3-5.2H75.1z"/>
    </defs>
    <clipPath id="d">
      <use xlink:href="#c" overflow="visible"/>
    </clipPath>
    <path clip-path="url(#d)" fill="#AC8C6B" d="M75.1 106.2h108.6v5.2H75.1v-5.2z"/>
  </g>
  <path fill="#ABC4BC" d="M101.3 270.7h-17v-29.1s-1.8-10.6 7.8-11.5c9.5-1 9.1 11.5 9.1 11.5v29l.1.1z"/>
  <path opacity=".4" fill="#7E9596" d="M84.4 251.1v4.7l12.8-14.5h-4.1l-8.7 9.8zm0 8l15.8-17.7v-.1h-1.5l-14.3 16v1.8zm0 8.1h.6l15.2-17v-2.7l-15.9 17.7.1 2z"/>
  <path fill="#FFF" d="M102.4 272H83.3v-32.5h19.2v32.4l-.1.1zm-16.3-2.7h13.4v-26.7H86.1v26.7z"/>
  <path fill="#FFF" d="M91.3 241.8h3v29h-3v-29z"/>
  <path fill="#FFF" d="M84.7 255.1h15.6v3H84.7v-3zm-1.4-13.5v-2.4c0-6.5 2.6-10.3 9.7-10.3 7.2 0 9.4 4.2 9.4 10.3v2.4H83.3zm2.8-1.5h13.5v-.9c0-5.3-1.3-7.4-6.6-7.4-5.9 0-6.9 2.3-6.9 7.4v.9z"/>
  <path fill="#ABC4BC" d="M152.5 270.7h-17v-29.1s-1.7-10.6 7.8-11.5c9.5-1 9.2 11.5 9.2 11.5v29.1z"/>
  <path opacity=".4" fill="#7E9596" d="M135.7 251.1v4.7l12.8-14.5h-4.1l-8.7 9.8zm0 8l15.8-17.7v-.1H150l-14.3 16v1.8zm0 8.1h.6l15.1-17v-2.7l-15.7 17.7v2z"/>
  <path fill="#FFF" d="M153.7 272h-19.2v-32.5h19.2V272zm-16.4-2.7h13.5v-26.7h-13.5v26.7z"/>
  <path fill="#FFF" d="M142.6 241.8h3v29h-3v-29z"/>
  <path fill="#FFF" d="M136 255.1h15.6v3H136v-3zm-1.5-13.5v-2.4c0-6.5 2.7-10.3 9.7-10.3 7.3 0 9.5 4.2 9.5 10.3v2.4h-19.2zm2.9-1.5h13.5v-.9c0-5.3-1.4-7.4-6.7-7.4-5.8 0-6.8 2.3-6.8 7.4v.9z"/>
  <path fill="#ABC4BC" d="M201.4 270.7h-16.9v-29.1s-1.7-10.6 7.8-11.5c9.5-1 9.1 11.5 9.1 11.5v29.1z"/>
  <path opacity=".4" fill="#7E9596" d="M184.6 251.1v4.7l12.9-14.5h-4.2l-8.7 9.8zm0 8l15.8-17.7v-.1h-1.5l-14.3 16v1.8zm0 8.1h.6l15.2-17v-2.7l-15.8 17.7v2z"/>
  <path fill="#FFF" d="M202.6 272h-19.2v-32.5h19.2V272zm-16.3-2.7h13.4v-26.7h-13.4v26.7z"/>
  <path fill="#FFF" d="M191.6 241.8h3v29h-3v-29z"/>
  <path fill="#FFF" d="M184.9 255.1h15.6v3h-15.6v-3zm-1.5-13.5v-2.4c0-6.5 2.7-10.3 9.8-10.3 7.3 0 9.4 4.2 9.4 10.3v2.4h-19.2zm3-1.5h13.4v-.9c.1-5.3-1.3-7.4-6.6-7.4-5.8 0-6.9 2.3-6.9 7.4v.9h.1z"/>
  <path fill="#ABC4BC" d="M268.6 259.5h16.9v34.4h-16.9v-34.4z"/>
  <path fill="#FFF" d="M286.8 295.2h-19.2v-37.9h19.2v38-.1zm-16.4-2.7h13.4v-32h-13.4v32z"/>
  <path fill="#ABC4BC" d="M335 259.5h16.9v34.4H335v-34.4z"/>
  <path fill="#FFF" d="M353.1 295.2h-19.2v-37.9h19.2v38-.1zm-16.3-2.7h13.4v-32h-13.4v32z"/>
  <path fill="#ABC4BC" d="M320 294.4h-19.1v-38.2s-.7-10.6 8.8-11.5c9.5-1 10.3 11.5 10.3 11.5v38.2z"/>
  <path fill="#617383" d="M321.2 295.7h-21.4v-41.6h21.5v41.6h-.1zm-18.5-2.7h15.5v-35.8h-15.5V293z"/>
  <path fill="#617383" d="M309 256.4h3v38.1h-3v-38.1zm-9.2-.2v-2.4c0-6.5 3.8-10.3 10.8-10.3 7.3 0 10.6 4.2 10.6 10.3v2.4h-21.4zm3-1.5h15.5v-.9c.1-5.3-2.4-7.4-7.7-7.4-5.8 0-7.9 2.3-7.9 7.4v.9h.1z"/>
  <path fill="#ABC4BC" d="M46 212.2H29v-64.6s-1.7-10.6 7.8-11.5c9.5-.9 9.2 11.5 9.2 11.5v64.6z"/>
  <path opacity=".4" fill="#7E9596" d="M30.3 157.7v4.7l12.8-14.5H39l-8.7 9.8zm0 8L46.1 148v-.1h-1.5l-14.3 16v1.8zm0 10.4h.6l15.1-17v-2.7l-15.7 17.7v2zm0 23.3l15.8-17.7v-.1h-1.5l-14.3 16v1.8zm0 3.5h.6l15.1-17v-2.7l-15.7 17.7v2z"/>
  <path fill="#FFF" d="M47.2 213.6H28v-68.1h19.3v68l-.1.1zm-16.4-2.8h13.5v-62.2H30.8v62.2z"/>
  <path fill="#FFF" d="M36.1 147.9h3V212h-3v-64.1z"/>
  <path fill="#FFF" d="M29.5 161.1h15.6v3H29.5v-3zm0 16.5h15.6v3H29.5v-3zm0 16.4h15.6v3H29.5v-3zM28 147.6v-2.4c0-6.5 2.7-10.3 9.8-10.3 7.2 0 9.4 4.2 9.4 10.3v2.4H28zm2.9-1.5h13.5v-.9c0-5.3-1.4-7.4-6.6-7.3-5.9 0-6.9 2.2-6.9 7.3v1-.1z"/>
  <path fill="#7E9596" d="M255.6 72.6l-4-.7 23.7-71h71.2s22.3 70.6 22.1 70.6l-3.6 1.4s1.6-4.8-4.1-5.2c0 0-5.2.1-6.2 5.2h-8.6s-.6-4.3-5.3-4.8c0 0-4.5 0-5.4 5l-9-.3s1.5-4.6-4.8-5c0 0-6.2-.1-6 5.6l-9.3-.1s-1.5-5.3-4.3-5.6c0 0-6.4 0-6 5.6l-10.4-.2s.8-4.6-3.5-5.6c0 0-6.4-.2-6.6 5 .3.6-.8 1-.8 1l-8.2-.5s-.4-4.2-4.2-5.3c0 0-5.1-1-6.7 4.9z"/>
  <path fill="#617383" d="M261.5 66.6c-.94-.02-1.88.08-2.8.3a1.44 1.44 0 0 0 .7 2.8c.9-.3 3.3-.6 4.6.4.7.5 1 1.5 1 2.8 0 .8.7 1.5 1.5 1.5h7.4a1.45 1.45 0 1 0 0-2.9h-6.1c-.3-1.6-1-2.8-2.1-3.7a6.99 6.99 0 0 0-4.2-1.2z"/>
  <path fill="#617383" d="M280.6 66.6a7 7 0 0 0-4.2 1.2 5.5 5.5 0 0 0-2.1 3.7h-6a1.45 1.45 0 1 0 0 2.9h7.3c.8 0 1.4-.7 1.4-1.5 0-1.3.4-2.3 1.1-2.8 1.3-1 3.8-.7 4.5-.4a1.46 1.46 0 0 0 .8-2.8c-.2 0-1.4-.3-2.8-.3zm-19.3 0a7 7 0 0 0-4.2 1.2c-1.1.9-2 2.1-2.3 3.7H253a1.45 1.45 0 1 0 0 2.9h3.3c.8 0 1.4-.7 1.4-1.5 0-1.3.4-2.3 1.1-2.8 1.3-1 3.8-.7 4.5-.4a1.46 1.46 0 0 0 .8-2.8c-.2 0-1.4-.3-2.8-.3z"/>
  <path fill="#617383" d="M280.9 66.6c-.94-.02-1.88.08-2.8.3a1.44 1.44 0 0 0 .7 2.8c.9-.3 3.3-.6 4.6.4.7.5 1 1.5 1 2.8 0 .8.7 1.5 1.5 1.5h7.4a1.45 1.45 0 1 0 0-2.9h-6.1c-.3-1.6-1-2.8-2.1-3.7a7 7 0 0 0-4.2-1.2z"/>
  <path fill="#617383" d="M301 66.6a7 7 0 0 0-4.2 1.2 5.5 5.5 0 0 0-2.1 3.7h-6.1a1.4 1.4 0 0 0 0 2.8h7.3c.8 0 1.5-.6 1.5-1.4 0-1.3.3-2.3 1-2.8 1.4-1 3.8-.6 4.6-.4a1.4 1.4 0 0 0 .8-2.7c-.3-.1-1.4-.4-2.8-.4z"/>
  <path fill="#617383" d="M301.2 66.6c-1.4 0-2.6.3-2.8.3a1.46 1.46 0 0 0 .8 2.8c.8-.3 3.2-.6 4.5.4.7.5 1 1.5 1 2.8 0 .8.7 1.5 1.5 1.5h7.4a1.45 1.45 0 1 0 0-2.9h-6.1c-.2-1.6-1-2.8-2-3.7a7 7 0 0 0-4.3-1.2z"/>
  <path fill="#617383" d="M321.3 66.6a7 7 0 0 0-4.2 1.2 5.5 5.5 0 0 0-2 3.7h-6.2a1.45 1.45 0 1 0 0 2.9h7.4c.8 0 1.4-.7 1.4-1.5 0-1.3.4-2.3 1.1-2.8 1.3-1 3.8-.7 4.6-.4a1.44 1.44 0 0 0 .7-2.8 11 11 0 0 0-2.8-.3z"/>
  <path fill="#617383" d="M321.5 66.6c-.9-.01-1.82.09-2.7.3a1.44 1.44 0 0 0 .7 2.8c.8-.3 3.3-.6 4.6.4.7.5 1 1.5 1 2.8 0 .8.7 1.5 1.5 1.5h7.3a1.45 1.45 0 1 0 0-2.9h-6c-.3-1.6-1-2.8-2.1-3.7a7 7 0 0 0-4.3-1.2z"/>
  <path fill="#617383" d="M340.7 66.6a6.99 6.99 0 0 0-4.2 1.2 5.5 5.5 0 0 0-2.1 3.7h-6.1a1.45 1.45 0 1 0 0 2.9h7.4c.8 0 1.4-.7 1.4-1.5 0-1.3.4-2.3 1-2.8 1.4-1 3.8-.7 4.6-.4a1.46 1.46 0 0 0 .8-2.8c-.3 0-1.4-.3-2.8-.3z"/>
  <path fill="#617383" d="M340.9 66.6c-.94-.02-1.88.08-2.8.3a1.46 1.46 0 0 0 .8 2.8c.8-.3 3.2-.6 4.5.4.7.5 1 1.5 1 2.8 0 .8.7 1.5 1.5 1.5h7.4a1.45 1.45 0 1 0 0-2.9h-6c-.3-1.6-1-2.8-2.2-3.7a7 7 0 0 0-4.2-1.2z"/>
  <path fill="#617383" d="M360 66.6a7 7 0 0 0-4.2 1.2 5.5 5.5 0 0 0-2 3.7h-6.2a1.45 1.45 0 1 0 0 2.9h7.4c.8 0 1.4-.7 1.4-1.5 0-1.3.4-2.3 1.1-2.8 1.3-1 3.8-.7 4.5-.4a1.46 1.46 0 0 0 .8-2.8c-.2 0-1.4-.3-2.8-.3z"/>
  <path fill="#617383" d="M360.3 66.6c-.94-.02-1.88.08-2.8.3a1.46 1.46 0 1 0 .8 2.8c.8-.3 3.2-.6 4.5.4.8.5 1.1 1.5 1.1 2.8 0 .8.7 1.5 1.4 1.5h3.3v-2.9h-2c-.2-1.6-1-2.8-2-3.7a7 7 0 0 0-4.3-1.2zm-151 57.5h-1c-.5 0-1-.6-1-1.3v-12c0-.7.5-1.3 1-1.3h1c.6 0 1 .6 1 1.3v12c0 .7-.4 1.3-1 1.3zm-19.7 0h-1c-.6 0-1-.6-1-1.3v-12c0-.7.4-1.3 1-1.3h1c.6 0 1 .6 1 1.3v12c0 .7-.4 1.3-1 1.3zm-19.6 0h-1c-.6 0-1-.6-1-1.3v-12c0-.7.4-1.3 1-1.3h1c.5 0 1 .6 1 1.3v12c0 .7-.5 1.3-1 1.3zm-19.1 0h-1c-.6 0-1-.6-1-1.3v-12c0-.7.4-1.3 1-1.3h1c.6 0 1 .6 1 1.3v12c0 .7-.4 1.3-1 1.3zm-20.1 0h-1c-.6 0-1-.6-1-1.3v-12c0-.7.4-1.3 1-1.3h1c.6 0 1 .6 1 1.3v12c0 .7-.4 1.3-1 1.3zm-20.2 0h-1c-.6 0-1-.6-1-1.3v-12c0-.7.4-1.3 1-1.3h1c.6 0 1 .6 1 1.3v12c0 .7-.4 1.3-1 1.3zm-20 0h-1c-.6 0-1-.6-1-1.3v-12c0-.7.4-1.3 1-1.3h1c.6 0 1 .6 1 1.3v12c0 .7-.4 1.3-1 1.3z"/>
  <circle fill="#ABC4BC" cx="292.4" cy="37.2" r="9.9"/>
  <circle fill="#ABC4BC" cx="332.5" cy="37.3" r="9.9"/>
  <path fill="#7E9596" d="M73.9 108.7v-4l-6.3-11-1.8-18h149.8v8.6h1.9v20.8s-4.2-.7-4.3 4.7l-9.8-.3s-4.1-11-10.2.3h-9.1s1.6-4.8-4.2-5.3c0 0-5.2.7-6.2 5.3h-8.6s-.6-4.3-5.2-4.7c0 0-4.6-.1-5.5 4.8l-9-.1s1.6-4.7-4.8-5.1c0 0-6.2 0-6 5.7l-9.3-.2s-1.4-5.2-4.3-5.5c0 0-6.4 0-6 5.5l-10.4-.1s.8-4.7-3.5-5.6c0 0-6.4-.3-6.6 5 .3.5-.7.8-.7.8h-9s.3-4.6-3.5-5.8c0 0-5.8-1.6-7.4 4.2z"/>
  <g fill="#617383">
    <path d="M80.5 103.5c-.95.01-1.89.15-2.8.4a1.4 1.4 0 1 0 .8 2.7c.8-.2 3.2-.6 4.5.4.7.6 1 1.5 1 2.9 0 .8.7 1.4 1.5 1.4h7.4a1.4 1.4 0 0 0 0-2.8h-6c-.3-1.6-1-2.9-2.2-3.7a7 7 0 0 0-4.2-1.3z"/>
    <path d="M99.6 103.5a7 7 0 0 0-4.2 1.3 5.5 5.5 0 0 0-2 3.7h-6.2a1.4 1.4 0 0 0 0 2.8h7.4c.8 0 1.4-.6 1.4-1.4 0-1.4.4-2.3 1.1-2.9 1.3-1 3.8-.6 4.5-.4a1.4 1.4 0 0 0 .8-2.7c-.91-.25-1.85-.39-2.8-.4zm-19.3 0a7 7 0 0 0-4.2 1.3 5.5 5.5 0 0 0-2 3.7h-.4a1.4 1.4 0 0 0 0 2.8h1.7c.7 0 1.4-.6 1.4-1.4 0-1.4.3-2.3 1-2.9 1.4-1 3.8-.6 4.6-.4a1.4 1.4 0 0 0 .7-2.7c-.88-.25-1.79-.38-2.7-.4h-.1z"/>
    <path d="M99.9 103.5c-1.4 0-2.6.3-2.8.4a1.4 1.4 0 1 0 .8 2.7c.8-.2 3.2-.6 4.5.4.7.6 1 1.5 1 2.9 0 .8.7 1.4 1.5 1.4h7.4a1.4 1.4 0 0 0 0-2.8h-6c-.3-1.6-1-2.9-2.2-3.7a7 7 0 0 0-4.2-1.3z"/>
    <path d="M120 103.5a7 7 0 0 0-4.2 1.3 5.5 5.5 0 0 0-2.1 3.7h-6.1a1.4 1.4 0 0 0 0 2.8h7.4c.8 0 1.4-.6 1.4-1.4 0-1.4.4-2.3 1-2.9 1.4-1 3.9-.6 4.6-.4a1.4 1.4 0 0 0 .8-2.7c-.91-.25-1.85-.39-2.8-.4z"/>
    <path d="M120.3 103.5c-.98 0-1.96.14-2.9.4a1.4 1.4 0 0 0 .8 2.7c.8-.2 3.2-.6 4.5.4.7.6 1.1 1.5 1.1 2.9 0 .8.6 1.4 1.4 1.4h7.4a1.4 1.4 0 0 0 0-2.8h-6c-.3-1.6-1-2.9-2.2-3.7a7 7 0 0 0-4.2-1.3h.1z"/>
    <path d="M140.3 103.5a7 7 0 0 0-4.2 1.3 5.5 5.5 0 0 0-2 3.7H128a1.4 1.4 0 0 0 0 2.8h7.4c.7 0 1.4-.6 1.4-1.4 0-1.4.3-2.3 1-2.9 1.4-1 3.8-.6 4.6-.4a1.4 1.4 0 1 0 .7-2.7c-.88-.25-1.79-.38-2.7-.4h-.1z"/>
    <path d="M140.6 103.5c-1.4 0-2.6.3-2.8.4a1.4 1.4 0 1 0 .7 2.7c.9-.2 3.3-.6 4.6.4.7.6 1 1.5 1 2.9 0 .8.7 1.4 1.5 1.4h7.4a1.4 1.4 0 0 0 0-2.8h-6.1c-.3-1.6-1-2.9-2.1-3.7a7 7 0 0 0-4.2-1.3z"/>
    <path d="M159.7 103.5a7 7 0 0 0-4.2 1.3 5.5 5.5 0 0 0-2.1 3.7h-6a1.4 1.4 0 0 0 0 2.8h7.3c.8 0 1.4-.6 1.4-1.4 0-1.4.4-2.3 1.1-2.9 1.3-1 3.7-.6 4.5-.4.8.2 1.6-.2 1.8-1 .2-.7-.3-1.5-1-1.7-.91-.25-1.85-.39-2.8-.4z"/>
    <path d="M159.9 103.5c-1.4 0-2.5.3-2.8.4a1.4 1.4 0 1 0 .8 2.7c.8-.2 3.2-.6 4.5.4.8.6 1.1 1.5 1.1 2.9 0 .8.6 1.4 1.4 1.4h7.4a1.4 1.4 0 0 0 0-2.8h-6c-.3-1.6-1-2.9-2.2-3.7a7 7 0 0 0-4.2-1.3z"/>
    <path d="M179.1 103.5a7 7 0 0 0-4.3 1.3 5.5 5.5 0 0 0-2 3.7h-6.1a1.4 1.4 0 0 0 0 2.8h7.4c.7 0 1.4-.6 1.4-1.4 0-1.4.3-2.3 1-2.9 1.4-1 3.8-.6 4.6-.4a1.4 1.4 0 0 0 .7-2.7 11 11 0 0 0-2.7-.4z"/>
    <path d="M179.3 103.5c-.91.02-1.82.15-2.7.4a1.4 1.4 0 0 0 .7 2.7c.8-.2 3.3-.6 4.6.4.7.6 1 1.5 1 2.9 0 .8.7 1.4 1.5 1.4h7.4a1.4 1.4 0 0 0 0-2.8h-6.1c-.3-1.6-1-2.9-2.1-3.7a7 7 0 0 0-4.2-1.3h-.1zm19.4 0c-1.4 0-2.6.3-2.8.4a1.4 1.4 0 0 0 .8 2.7c.8-.2 3.2-.6 4.5.4.7.6 1.1 1.5 1.1 2.9 0 .8.6 1.4 1.4 1.4h7.4a1.4 1.4 0 0 0 0-2.8h-6c-.3-1.6-1-2.9-2.2-3.7a7 7 0 0 0-4.2-1.3z"/>
    <path d="M198.5 103.5a7 7 0 0 0-4.2 1.3 5.5 5.5 0 0 0-2.1 3.7h-6.1a1.4 1.4 0 0 0 0 2.8h7.4c.8 0 1.4-.6 1.4-1.4 0-1.4.4-2.3 1-2.9 1.4-1 3.8-.6 4.6-.4a1.4 1.4 0 0 0 .8-2.7c-.2 0-1.4-.4-2.8-.4zm19.1 0s-2.5.3-3.8 1.3a5.5 5.5 0 0 0-2 3.7h-6.2a1.4 1.4 0 0 0 0 2.8h7.4c.8 0 1.5-.6 1.5-1.4 0-1.4.3-2.3 1-2.9 1.3-1 2-.6 2-.6v-2.9h.1z"/>
  </g>
  <path fill="#FFF" d="M292.6 48.7a11.5 11.5 0 1 1 0-23 11.5 11.5 0 0 1 0 23zm0-20.2a8.7 8.7 0 1 0 0 17.4 8.7 8.7 0 0 0 0-17.4z"/>
  <path fill="#FFF" d="M292.6 48.7c-.8 0-1.4-.6-1.4-1.4V27.1a1.4 1.4 0 0 1 2.8 0v20.2c0 .8-.7 1.4-1.4 1.4z"/>
  <path fill="#FFF" d="M302.7 38.6h-20.2a1.4 1.4 0 0 1 0-2.8h20.2a1.4 1.4 0 0 1 0 2.8zm29.4 10.1a11.5 11.5 0 1 1 0-23 11.5 11.5 0 0 1 0 23zm0-20.2a8.7 8.7 0 1 0 0 17.4 8.7 8.7 0 0 0 0-17.4z"/>
  <path fill="#FFF" d="M332.1 48.7c-.8 0-1.4-.6-1.4-1.4V27.1a1.4 1.4 0 0 1 2.8 0v20.2c0 .8-.6 1.4-1.4 1.4z"/>
  <path fill="#FFF" d="M342.2 38.6H322a1.4 1.4 0 0 1 0-2.8h20.3a1.4 1.4 0 0 1 0 2.8h-.1z"/>
  <g opacity=".1">
    <defs>
      <path id="e" d="M4.6 124.5h211.6v3.1H4.6z"/>
    </defs>
    <clipPath id="f">
      <use xlink:href="#e" overflow="visible"/>
    </clipPath>
    <path clip-path="url(#f)" fill="#AC8C6B" d="M4.6 124.5h211.6v3.1H4.6v-3.1z"/>
  </g>
  <path fill="#617383" d="M73.8 121.7h142.3v2.8H73.8v-2.8zm199.6-27.2h31.2v3.4h-31.2v-3.4z"/>
  <g opacity=".1">
    <defs>
      <path id="g" d="M71.2 212.7h142.6v3.1H71.2z"/>
    </defs>
    <clipPath id="h">
      <use xlink:href="#g" overflow="visible"/>
    </clipPath>
    <path clip-path="url(#h)" fill="#AC8C6B" d="M71.2 212.7h142.6v3.1H71.2v-3.1z"/>
  </g>
  <path fill="#617383" d="M71.6 209.6h142.3v3.4H71.6v-3.4z"/>
  <path fill="#EFEFEF" d="M4.6 213.5h66.9v2.8H4.6v-2.8z"/>
  <path fill="#ABC4BC" d="M276.6 98.9h24.7v35.9h-24.7V98.9z"/>
  <path opacity=".4" fill="#7E9596" d="M276.4 109.2v4.7l20.7-14.5h-6.7l-14 9.8zm0 8.1l25.5-17.8h-2.6l-23 16 .1 1.8zm0 10.3h1l24.4-17v-2.7l-25.4 17.7v2z"/>
  <path fill="#FFF" d="M302.3 135.9h-26.7v-38h26.7v38zm-24.7-2h22.7v-34h-22.7v34z"/>
  <path fill="#FFF" d="M287.7 99.1h1.9v36.2h-1.9V99.1z"/>
  <path fill="#617383" d="M319.3 94.5h31.8v3.4h-31.8v-3.4z"/>
  <path fill="#ABC4BC" d="M322.7 98.9h24.7v35.9h-24.7V98.9z"/>
  <path opacity=".4" fill="#7E9596" d="M322.5 109.4v4.7l20.7-14.6h-6.7l-14 9.9zm0 8l25.4-17.7v-.2h-2.4l-23 16v1.9zm0 10.4h1l24.4-17v-2.7l-25.4 17.7v2z"/>
  <path fill="#FFF" d="M348.3 135.9h-26.6v-38h26.6v38zm-24.6-2h22.6v-34h-22.7v34h.1z"/>
  <path fill="#FFF" d="M333.8 99.1h1.9v36.2h-1.9V99.1z"/>
  <path fill="#ABC4BC" d="M85.1 143.6H102v64.6H85.1v-64.6z"/>
  <path opacity=".4" fill="#7E9596" d="M85.5 154.1v4.7l12.8-14.5h-4l-8.8 9.8zm0 8l15.8-17.7v-.1h-1.5l-14.3 16v1.8zm0 10.4h.6l15.1-17v-2.7l-15.7 17.7v2zm0 23.4l15.8-17.8v-.1h-1.5l-14.3 16v1.9zm0 3.4h.6l15.1-17v-2.7l-15.7 17.7v2z"/>
  <path fill="#FFF" d="M103.2 209.5H84v-68h19.3v68h-.1zm-16.4-2.6h13.5v-62.3H86.8v62.3z"/>
  <path fill="#FFF" d="M92.1 143.8h3v64.1h-3v-64.1z"/>
  <path fill="#FFF" d="M85.5 157.1h15.6v3H85.5v-3zm0 16.5h15.6v3H85.5v-3zm0 16.3h15.6v3H85.5v-3z"/>
  <path fill="#ABC4BC" d="M117.7 143.6h16.9v64.6h-16.9v-64.6z"/>
  <path opacity=".4" fill="#7E9596" d="M118.1 154.1v4.7l12.9-14.5h-4.2l-8.7 9.8zm0 8l15.8-17.7v-.1h-1.5l-14.3 16v1.8zm0 10.4h.6l15.2-17v-2.7l-15.8 17.7v2zm0 23.4l15.8-17.8v-.1h-1.5l-14.3 16v1.9zm0 3.4h.6l15.2-17v-2.7l-15.8 17.7v2z"/>
  <path fill="#FFF" d="M135.8 209.5h-19.2v-68h19.2v68zm-16.3-2.7h13.4v-62.3h-13.4v62.4-.1z"/>
  <path fill="#FFF" d="M124.8 143.8h3v64.1h-3v-64.1z"/>
  <path fill="#FFF" d="M118.1 157.1h15.6v3h-15.6v-3zm0 16.5h15.6v3h-15.6v-3zm0 16.3h15.6v3h-15.6v-3z"/>
  <g>
    <path fill="#ABC4BC" d="M150.3 143.6h16.9v64.6h-16.9v-64.6z"/>
    <path fill="#7E9596" d="M150.7 154.1v4.7l12.9-14.5h-4.3l-8.6 9.8zm0 8l15.8-17.7v-.1H165l-14.3 16v1.8zm0 10.4h.7l15.1-17v-2.7l-15.8 17.7v2zm0 23.4l15.8-17.8v-.1H165l-14.3 16v1.9zm0 3.4h.7l15.1-17v-2.7l-15.8 17.7v2z" opacity=".4"/>
    <path fill="#FFF" d="M168.5 209.5h-19.2v-68h19.2v68zm-16.4-2.7h13.4v-62.3h-13.4v62.4-.1z"/>
    <path fill="#FFF" d="M157.4 143.8h3v64.1h-3v-64.1z"/>
    <path fill="#FFF" d="M150.8 157.1h15.6v3h-15.6v-3zm0 16.5h15.6v3h-15.6v-3zm0 16.3h15.6v3h-15.6v-3z"/>
  </g>
  <g>
    <path fill="#ABC4BC" d="M183 143.6h16.9v64.6H183v-64.6z"/>
    <path opacity=".4" fill="#7E9596" d="M183.3 154.1v4.7l13-14.5h-4.2l-8.8 9.8zm0 8l15.9-17.7v-.1h-1.5l-14.3 16-.1 1.8zm0 10.4h.7l15.1-17v-2.7l-15.7 17.7-.1 2zm0 23.4l15.9-17.8v-.1h-1.5l-14.4 15.9v2zm0 3.4h.7l15.1-17v-2.7l-15.7 17.7-.1 2z"/>
    <path fill="#FFF" d="M201.1 209.5h-19.2v-68h19.2v68zm-16.4-2.7h13.6v-62.3h-13.5v62.4l-.1-.1z"/>
    <path fill="#FFF" d="M190 143.8h3v64.1h-3v-64.1z"/>
    <path fill="#FFF" d="M183.4 157.1H199v3h-15.6v-3zm0 16.5H199v3h-15.6v-3zm0 16.3H199v3h-15.6v-3z"/>
  </g>
  <g>
    <path fill="#ABC4BC" d="M270 161.2h16.9v64.6H270v-64.6z"/>
    <path opacity=".4" fill="#7E9596" d="M270.4 171.8v4.7l12.9-14.6h-4.2l-8.7 9.9zm0 8.1l15.8-17.8v-.1h-1.5l-14.3 16v1.9zm0 10.3h.6l15.2-17v-2.7l-15.8 17.7v2zm0 23.3l15.9-17.6v-.1h-1.5l-14.3 16-.1 1.7zm0 3.4h.6l15.2-17v-2.6l-15.8 17.6v2z"/>
    <path fill="#FFF" d="M288.1 227.2H269v-68h19.1v68zm-16.3-2.7h13.4v-62.3h-13.4v62.3z"/>
    <path fill="#FFF" d="M277.1 161.5h3v64.1h-3v-64.1z"/>
    <path fill="#FFF" d="M270.4 174.8H286v3h-15.6v-3zm0 16.5H286v3h-15.6v-3zm0 16.3H286v3h-15.6v-3z"/>
  </g>
  <g>
    <path fill="#ABC4BC" d="M302.6 161.2h16.9v64.6h-16.9v-64.6z"/>
    <path opacity=".4" fill="#7E9596" d="M303.1 171.8v4.7l12.8-14.5h-4.2l-8.6 9.8zm0 8.1l15.7-17.8v-.1h-1.4l-14.3 16v1.9zm0 10.3h.6l15.1-17v-2.7l-15.7 17.7v2zm0 23.3l15.7-17.7v-.1h-1.4l-14.3 16v1.8zm0 3.4h.6l15.1-17v-2.6l-15.7 17.6v2z"/>
    <path fill="#FFF" d="M320.8 227.2h-19.2v-68h19.2v68zm-16.4-2.7h13.5v-62.3h-13.6v62.3h.1z"/>
    <path fill="#FFF" d="M309.7 161.5h3v64.1h-3v-64.1z"/>
    <path fill="#FFF" d="M303.1 174.8h15.6v3h-15.6v-3zm0 16.5h15.6v3h-15.6v-3zm0 16.3h15.6v3h-15.6v-3z"/>
  </g>
  <g>
    <path fill="#ABC4BC" d="M335.3 161.2h16.9v64.6h-16.9v-64.6z"/>
    <path opacity=".4" fill="#7E9596" d="M335.7 171.8v4.7l12.8-14.5h-4.1l-8.7 9.8zm0 8.1l15.8-17.8v-.1H350l-14.3 16v1.9zm0 10.3h.6l15.2-17v-2.7l-15.8 17.7v2zm0 23.3l15.8-17.7v-.1H350l-14.3 16v1.8zm0 3.4h.6l15.2-17v-2.6l-15.8 17.6v2z"/>
    <path fill="#FFF" d="M353.4 227.2h-19.2v-68h19.2v68zm-16.4-2.7h13.5v-62.3H337v62.3z"/>
    <path fill="#FFF" d="M342.3 161.5h3v64.1h-3v-64.1z"/>
    <path fill="#FFF" d="M335.7 174.8h15.6v3h-15.6v-3zm0 16.5h15.6v3h-15.6v-3zm0 16.3h15.6v3h-15.6v-3z"/>
  </g>
  <path fill="#CECBB3" d="M250.2 106.4V84.3h2.8V71.8h-37.4v12.5h2.2v22.2l-4 29.2v160h40.9V136l-4.5-29.5v-.1zm153.6-.8V84.3h2.3V71.8h-37.4v12.5h2.2v21.3l-4 30.3-2.7 159.8h43.6v-32l.1-127.5-4-30.6h-.1z"/>
  <path fill="#7E9596" d="M15.7 76.1L.3 124.9h73.3l.4-20.3-6.3-10.7-1.8-17.8H15.7z"/>
  <path fill="#CECBB3" d="M115.8 213h6.8v65.8h-6.8V213zm50.4 0h6.8v65.8h-6.8V213zm47.7 51.6h40.8v31.2h-40.8v-31.2z"/>
  <g opacity=".1">
    <defs>
      <path id="i" d="M213.8 230.4h194v3.1h-194z"/>
    </defs>
    <clipPath id="j">
      <use xlink:href="#i" overflow="visible"/>
    </clipPath>
    <path clip-path="url(#j)" fill="#AC8C6B" d="M254.7 230.4h110.6v3.1H254.7v-3.1z"/>
  </g>
  <path fill="#617383" d="M254.7 227.1h110.6v3.4H254.7v-3.4z"/>
  <g opacity=".1">
    <defs>
      <path id="k" d="M254.7 139.3H367v3.1H254.7z"/>
    </defs>
    <clipPath id="l">
      <use xlink:href="#k" overflow="visible"/>
    </clipPath>
    <path clip-path="url(#l)" fill="#AC8C6B" d="M254.7 139.3H367v3.1H254.7v-3.1z"/>
  </g>
  <path fill="#617383" d="M254.7 135.8H367v3.4H254.7v-3.4z"/>
  <g opacity=".1">
    <defs>
      <path id="m" d="M217.8 84.3h32.3v3.1h-32.3z"/>
    </defs>
    <clipPath id="n">
      <use xlink:href="#m" overflow="visible"/>
    </clipPath>
    <path clip-path="url(#n)" fill="#AC8C6B" d="M217.8 84.3h32.3v3.1h-32.3v-3.1z"/>
  </g>
  <g opacity=".1">
    <defs>
      <path id="o" d="M371 84.3h32.8v3.1H371z"/>
    </defs>
    <clipPath id="p">
      <use xlink:href="#o" overflow="visible"/>
    </clipPath>
    <path clip-path="url(#p)" fill="#AC8C6B" d="M371 84.3h32.8v3.1H371v-3.1z"/>
  </g>
</svg>
