<svg xmlns="http://www.w3.org/2000/svg" width="162" height="331" viewBox="0.33 0.06 162 331">
  <circle fill="#590E39" cx="3.19" cy="52.09" r="1.52"/>
  <circle fill="#590E39" cx="4.72" cy="49.95" r="1.52"/>
  <circle fill="#590E39" cx="7.03" cy="48.12" r="1.52"/>
  <circle fill="#590E39" cx="9.24" cy="46.12" r="1.52"/>
  <circle fill="#590E39" cx="11.8" cy="44.59" r="1.52"/>
  <circle fill="#590E39" cx="14.16" cy="43.08" r="1.52"/>
  <circle fill="#590E39" cx="16.91" cy="41.8" r="1.52"/>
  <circle fill="#590E39" cx="19.45" cy="40.66" r="1.52"/>
  <circle fill="#590E39" cx="22" cy="39.58" r="1.52"/>
  <circle fill="#AA1A1A" cx="47.33" cy="30.59" r="1.52"/>
  <circle fill="#AA1A1A" cx="49.51" cy="29.07" r="1.52"/>
  <circle fill="#AA1A1A" cx="51.3" cy="27.27" r="1.52"/>
  <circle fill="#8E0D42" cx="52.83" cy="25.25" r="1.52"/>
  <circle fill="#8E0D42" cx="54.13" cy="22.81" r="1.52"/>
  <circle fill="#8E0D42" cx="55.66" cy="20.3" r="1.52"/>
  <circle fill="#8E0D42" cx="56.35" cy="17.26" r="1.52"/>
  <circle fill="#8E0D42" cx="56.88" cy="14.04" r="1.52"/>
  <circle fill="#8E0D42" cx="58.12" cy="11.12" r="1.52"/>
  <circle fill="#664C9E" cx="59.63" cy="8.46" r="1.52"/>
  <circle fill="#664C9E" cx="61.8" cy="6.5" r="1.52"/>
  <circle fill="#664C9E" cx="63.88" cy="5.24" r="1.52"/>
  <circle fill="#664C9E" cx="66.53" cy="4.2" r="1.52"/>
  <circle fill="#664C9E" cx="69.31" cy="3.71" r="1.52"/>
  <circle fill="#664C9E" cx="72.02" cy="3.47" r="1.52"/>
  <circle fill="#664C9E" cx="74.47" cy="3.17" r="1.52"/>
  <circle fill="#664C9E" cx="76.81" cy="2.9" r="1.52"/>
  <circle fill="#1472B2" cx="79.84" cy="2.9" r="1.52"/>
  <circle fill="#1472B2" cx="82.47" cy="2.67" r="1.52"/>
  <circle fill="#1472B2" cx="85.51" cy="3.17" r="1.52"/>
  <circle fill="#1472B2" cx="88.55" cy="3.47" r="1.52"/>
  <circle fill="#1472B2" cx="91.59" cy="3.47" r="1.52"/>
  <circle fill="#1472B2" cx="94.61" cy="4.42" r="1.52"/>
  <circle fill="#1472B2" cx="97.66" cy="5.24" r="1.52"/>
  <circle fill="#1472B2" cx="99.78" cy="6.95" r="1.52"/>
  <circle fill="#1472B2" cx="101.3" cy="8.79" r="1.52"/>
  <circle fill="#1472B2" cx="102.81" cy="11.51" r="1.52"/>
  <circle fill="#1472B2" cx="104.34" cy="14.54" r="1.52"/>
  <circle fill="#1472B2" cx="105.33" cy="16.77" r="1.52"/>
  <circle fill="#1472B2" cx="105.86" cy="19.61" r="1.52"/>
  <circle fill="#1472B2" cx="106.84" cy="22.22" r="1.52"/>
  <circle fill="#1472B2" cx="107.78" cy="24.72" r="1.52"/>
  <circle fill="#1472B2" cx="108.89" cy="27.27" r="1.52"/>
  <circle fill="#1472B2" cx="109.89" cy="29.93" r="1.52"/>
  <circle fill="#1472B2" cx="110.81" cy="32.12" r="1.52"/>
  <circle fill="#02685C" cx="113.44" cy="33.47" r="1.52"/>
  <circle fill="#02685C" cx="116.25" cy="32.45" r="1.52"/>
  <circle fill="#02685C" cx="118.43" cy="30.29" r="1.52"/>
  <circle fill="#02685C" cx="120.27" cy="28" r="1.52"/>
  <circle fill="#02685C" cx="122.61" cy="26.34" r="1.52"/>
  <circle fill="#02685C" cx="125.09" cy="24.5" r="1.52"/>
  <circle fill="#02685C" cx="128.13" cy="24.5" r="1.52"/>
  <circle fill="#02685C" cx="131.16" cy="25.59" r="1.52"/>
  <circle fill="#436019" cx="134.19" cy="26.5" r="1.52"/>
  <circle fill="#436019" cx="136.68" cy="28" r="1.52"/>
  <circle fill="#436019" cx="139.09" cy="29.52" r="1.52"/>
  <circle fill="#436019" cx="141.6" cy="31.45" r="1.52"/>
  <circle fill="#436019" cx="144.34" cy="32.95" r="1.52"/>
  <circle fill="#436019" cx="146.38" cy="35.48" r="1.52"/>
  <circle fill="#436019" cx="148.31" cy="37.51" r="1.52"/>
  <circle fill="#436019" cx="150.38" cy="39.03" r="1.52"/>
  <circle fill="#436019" cx="152.22" cy="41.26" r="1.52"/>
  <circle fill="#436019" cx="154.07" cy="43.28" r="1.52"/>
  <circle fill="#436019" cx="155.97" cy="45.7" r="1.52"/>
  <circle fill="#436019" cx="157.72" cy="48.3" r="1.52"/>
  <circle fill="#436019" cx="158.51" cy="50.74" r="1.52"/>
  <circle fill="#436019" cx="159.71" cy="53.3" r="1.52"/>
  <circle fill="#436019" cx="160.31" cy="56.51" r="1.52"/>
  <circle fill="#436019" cx="160.31" cy="60.26" r="1.52"/>
  <circle fill="#436019" cx="160.31" cy="63.3" r="1.52"/>
  <circle fill="#436019" cx="160.46" cy="66.33" r="1.52"/>
  <circle fill="#436019" cx="160.31" cy="69.38" r="1.52"/>
  <circle fill="#436019" cx="160.46" cy="71.93" r="1.52"/>
  <circle fill="#436019" cx="160.46" cy="74.67" r="1.52"/>
  <circle fill="#436019" cx="160.31" cy="77.53" r="1.52"/>
  <circle fill="#436019" cx="160.31" cy="80.8" r="1.52"/>
  <circle fill="#436019" cx="159.25" cy="83.83" r="1.52"/>
  <circle fill="#436019" cx="159.91" cy="86.03" r="1.52"/>
  <circle fill="#436019" cx="159.71" cy="88.68" r="1.52"/>
  <circle fill="#436019" cx="159.71" cy="91.03" r="1.52"/>
  <circle fill="#436019" cx="159.71" cy="94.05" r="1.52"/>
  <path fill="#9B695E" d="M1.45 76.52V56.05S1.17 44.8 35.22 37.17c22.48-5.02 22.48-23.4 22.48-23.4s-.17-5.18 6.43-7.7c6.6-2.51 21.6-2.82 30.64-.86 9.04 1.97 8.8 9.43 8.8 9.43l5.5 16.5s2.12 6.68 7.86 1.4c5.72-5.25 5.35-8.8 15.5-5.74 10.12 3.07 26.84 22.8 26.84 26.73v36.92L1.45 92.94V76.52z"/>
  <path opacity=".46" fill="#1D7FAA" d="M1.45 76.52V56.05S1.17 44.8 35.22 37.17c22.48-5.02 22.48-23.4 22.48-23.4s-.17-5.18 6.43-7.7c6.6-2.51 21.6-2.82 30.64-.86 9.04 1.97 8.8 9.43 8.8 9.43l5.5 16.5s2.12 6.68 7.86 1.4c5.72-5.25 4.1-7.96 13.7-6.42 11.9 3.14 28.63 23.49 28.63 27.4v36.94L1.45 92.94V76.52z"/>
  <path opacity=".4" fill="#79995E" d="M107.8 27.36s2.47 12.57 9.13 5.2c5.22-5.79 5.35-8.82 15.5-5.76 10.12 3.07 26.84 22.43 26.84 26.73v36.92s-26.78-10.12-37.25-18.52c-7.83-6.3-14.21-44.6-14.21-44.6v.03z"/>
  <path opacity=".15" fill="#3D5B20" d="M107.8 27.36s1.98 8.86 7.15 6.64c3.43 34.6 7.23 37.06 7.23 37.06s-.34.18-1.25-.22c-5.28-5.57-13.12-43.5-13.12-43.5v.02z"/>
  <path opacity=".2" fill="#CE6382" d="M57.6 17.52s-3 11.86-11.55 15.21C38.81 35.59 8.5 42.17 2.5 54.27c-.65 21.8-.52 40.58-.52 40.58s36.65-10.45 39.95-23.47C51.48 33.6 57.6 17.53 57.6 17.53z"/>
  <path opacity=".4" fill="#6D213E" d="M56.38 21.12S53 30.15 46.05 32.73c-3.44 34.6-7.38 38.33-7.38 38.33s.34.18 1.25-.22c3.52-5.5 16.45-49.72 16.45-49.72z"/>
  <path fill="#44413A" d="M158.82 94.82v233.5H1.55V94.81a23.68 23.68 0 0 1 23.68-23.67H36.8c3.89 0 7.47-2.1 9.35-5.5 5.17-9.19 18.3-15.7 33.7-15.8h.3c15.56 0 28.8 6.56 34.02 15.8 1.9 3.39 5.48 5.5 9.38 5.5h11.58a23.68 23.68 0 0 1 23.67 23.67h.01z"/>
  <path fill="#F4F4E4" d="M158.97 97.56v233.47H1.69V97.54a23.67 23.67 0 0 1 23.66-23.68h11.6c3.9 0 7.48-2.1 9.37-5.5 5.17-9.18 18.28-15.7 33.7-15.8h.3c15.54 0 28.8 6.57 34 15.8 1.9 3.4 5.5 5.5 9.38 5.5h11.58a23.68 23.68 0 0 1 23.69 23.68v.02z"/>
  <path opacity=".4" fill="#545145" d="M57.38 18.28S54.17 28.24 45.3 34v53.67l12.08-69.38z"/>
  <path fill="#5D7C6F" d="M15.73 135.01h14.01v25.05h-14v-25.05z"/>
  <path fill="#004C3D" d="M17.05 136.3h11.39v23.59h-11.4v-23.6z"/>
  <path opacity=".4" fill="#576D7F" d="M17.13 143.25v3l9.2-9.25h-2.98l-6.23 6.25zm0 5.12l11.3-11.29V137h-1.05l-10.25 10.22v1.15zm0 6.25v.5l11.3-11.34v-1.69l-11.3 11.27v1.26z"/>
  <path fill="#323E39" d="M17.05 136.3h11.39v.68h-11.4v-.69z"/>
  <path fill="#5D7C6F" d="M21.91 135.01h1.32v27.02h-1.32v-27.02z"/>
  <path fill="#7FB19E" d="M36.59 162.03l-6.85-1.44v-25.58h6.85v27.02z"/>
  <path fill="#5D7C6F" d="M30.84 136.3h4.63v24.46h-4.62V136.3z"/>
  <path fill="#7FB19E" d="M30.84 136.99h4.63v.37h-4.62v-.38zm0 1.41h4.63v.37h-4.62v-.37zm0 1.42h4.63v.37h-4.62v-.37zm0 1.42h4.63v.37h-4.62v-.37zm0 1.42h4.63v.37h-4.62v-.37zm0 1.42h4.63v.37h-4.62v-.37zm0 1.42h4.63v.37h-4.62v-.37zm0 1.43h4.63v.36h-4.62v-.36zm0 1.41h4.63v.37h-4.62v-.37zm0 1.42h4.63v.37h-4.62v-.37zm0 1.43h4.63v.37h-4.62v-.38zm0 1.41h4.63v.37h-4.62v-.37zm0 1.43h4.63v.37h-4.62v-.38zm0 1.41h4.63v.37h-4.62v-.37zm0 1.43h4.63v.37h-4.62v-.38zm0 1.41h4.63v.37h-4.62v-.37zm0 1.42h4.63v.37h-4.62v-.37zM15.73 160.24l-6.84 1.8v-27.02h6.84v25.22z"/>
  <path fill="#5D7C6F" d="M10 136.3h4.64v24.46H10V136.3z"/>
  <path fill="#7FB19E" d="M10 136.99h4.64v.37H10v-.38zm0 1.41h4.64v.37H10v-.37zm0 1.42h4.64v.37H10v-.37zm0 1.42h4.64v.37H10v-.37zm0 1.42h4.64v.37H10v-.37zm0 1.42h4.64v.37H10v-.37zm0 1.42h4.64v.37H10v-.37zm0 1.43h4.64v.36H10v-.36zm0 1.41h4.64v.37H10v-.37zm0 1.42h4.64v.37H10v-.37zm0 1.43h4.64v.37H10v-.38zm0 1.41h4.64v.37H10v-.37zm0 1.43h4.64v.37H10v-.38zm0 1.41h4.64v.37H10v-.37zm0 1.43h4.64v.37H10v-.38zm0 1.41h4.64v.37H10v-.37zm0 1.42h4.64v.37H10v-.37z"/>
  <path fill="#5D7C6F" d="M129.78 135.01h14.02v25.05h-14.02v-25.05z"/>
  <path fill="#004C3D" d="M131.09 136.3h11.39v23.59h-11.4v-23.6z"/>
  <path opacity=".4" fill="#576D7F" d="M131.13 143.25v2.97l9.2-9.24h-2.98l-6.22 6.28zm0 5.1l11.3-11.29v-.08h-1.05l-10.24 10.22-.01 1.16zm0 6.27v.48l11.3-11.33v-1.69l-11.3 11.26v1.28z"/>
  <path fill="#323E39" d="M131.09 136.3h11.39v.68h-11.4v-.69z"/>
  <path fill="#5D7C6F" d="M135.96 135.01h1.32v27.02h-1.32v-27.02z"/>
  <path fill="#7FB19E" d="M150.63 162.03l-6.84-1.44v-25.58h6.84v27.02z"/>
  <path fill="#5D7C6F" d="M144.9 136.3h4.63v24.46h-4.63V136.3z"/>
  <path fill="#7FB19E" d="M144.9 136.99h4.63v.37h-4.63v-.38zm0 1.41h4.63v.37h-4.63v-.37zm0 1.42h4.63v.37h-4.63v-.37zm0 1.42h4.63v.37h-4.63v-.37zm0 1.42h4.63v.37h-4.63v-.37zm0 1.42h4.63v.37h-4.63v-.37zm0 1.42h4.63v.37h-4.63v-.37zm0 1.43h4.63v.36h-4.63v-.36zm0 1.41h4.63v.37h-4.63v-.37zm0 1.42h4.63v.37h-4.63v-.37zm0 1.43h4.63v.37h-4.63v-.38zm0 1.41h4.63v.37h-4.63v-.37zm0 1.43h4.63v.37h-4.63v-.38zm0 1.41h4.63v.37h-4.63v-.37zm0 1.43h4.63v.37h-4.63v-.38zm0 1.41h4.63v.37h-4.63v-.37zm0 1.42h4.63v.37h-4.63v-.37zM129.78 160.24l-6.84 1.8v-27.02h6.84v25.22z"/>
  <path fill="#5D7C6F" d="M124.05 136.3h4.63v24.46h-4.63V136.3z"/>
  <path fill="#7FB19E" d="M124.05 136.99h4.63v.37h-4.63v-.38zm0 1.41h4.63v.37h-4.63v-.37zm0 1.42h4.63v.37h-4.63v-.37zm0 1.42h4.63v.37h-4.63v-.37zm0 1.42h4.63v.37h-4.63v-.37zm0 1.42h4.63v.37h-4.63v-.37zm0 1.42h4.63v.37h-4.63v-.37zm0 1.43h4.63v.36h-4.63v-.36zm0 1.41h4.63v.37h-4.63v-.37zm0 1.42h4.63v.37h-4.63v-.37zm0 1.43h4.63v.37h-4.63v-.38zm0 1.41h4.63v.37h-4.63v-.37zm0 1.43h4.63v.37h-4.63v-.38zm0 1.41h4.63v.37h-4.63v-.37zm0 1.43h4.63v.37h-4.63v-.38zm0 1.41h4.63v.37h-4.63v-.37zm0 1.42h4.63v.37h-4.63v-.37z"/>
  <path fill="#CED0BB" d="M28.14 43.94H45.3v79.3H28.16v-79.3z"/>
  <path opacity=".2" fill="#545145" d="M45.3 47.3L28.15 52v-9.23H45.3v4.52z"/>
  <path fill="#A2A395" d="M48.8 34.85c-1.76-2.48-3.6-4.9-5.5-7.27C41.45 25.08 37.9.05 36.5.05c-1.38 0-5.3 25.6-7.17 28.08a127.7 127.7 0 0 0-5.06 6.72c-1.5 2.3-7.17 10.23 8.33 10.23h7.88c15.5 0 9.82-7.92 8.32-10.23z"/>
  <g>
    <path fill="#5D7C6F" d="M51.7 135.01h14.02v25.05H51.7v-25.05z"/>
    <path fill="#004C3D" d="M53 136.3h11.4v23.59H53v-23.6z"/>
    <path opacity=".4" fill="#576D7F" d="M53.19 143.25v2.97l9.2-9.24H59.4l-6.22 6.28zm0 5.1l11.3-11.29v-.08h-1.05L53.19 147.2v1.16zm0 6.27v.48l11.3-11.33v-1.69l-11.3 11.26v1.28z"/>
    <path fill="#323E39" d="M53 136.3h11.4v.68H53v-.69z"/>
    <path fill="#5D7C6F" d="M57.88 135.01h1.31v27.02h-1.31v-27.02z"/>
    <path fill="#7FB19E" d="M72.55 162.03l-6.84-1.44v-25.58h6.84v27.02z"/>
    <path fill="#5D7C6F" d="M66.8 136.3h4.64v24.46H66.8V136.3z"/>
    <path fill="#7FB19E" d="M66.8 136.99h4.64v.37H66.8v-.38zm0 1.41h4.64v.37H66.8v-.37zm0 1.42h4.64v.37H66.8v-.37zm0 1.42h4.64v.37H66.8v-.37zm0 1.42h4.64v.37H66.8v-.37zm0 1.42h4.64v.37H66.8v-.37zm0 1.42h4.64v.37H66.8v-.37zm0 1.43h4.64v.36H66.8v-.36zm0 1.41h4.64v.37H66.8v-.37zm0 1.42h4.64v.37H66.8v-.37zm0 1.43h4.64v.37H66.8v-.38zm0 1.41h4.64v.37H66.8v-.37zm0 1.43h4.64v.37H66.8v-.38zm0 1.41h4.64v.37H66.8v-.37zm0 1.43h4.64v.37H66.8v-.38zm0 1.41h4.64v.37H66.8v-.37zm0 1.42h4.64v.37H66.8v-.37zM51.7 160.24l-6.85 1.8v-27.02h6.84l.02 25.22z"/>
    <path fill="#5D7C6F" d="M45.97 136.3h4.63v24.46h-4.63V136.3z"/>
    <path fill="#7FB19E" d="M45.97 136.99h4.63v.37h-4.63v-.38zm0 1.41h4.63v.37h-4.63v-.37zm0 1.42h4.63v.37h-4.63v-.37zm0 1.42h4.63v.37h-4.63v-.37zm0 1.42h4.63v.37h-4.63v-.37zm0 1.42h4.63v.37h-4.63v-.37zm0 1.42h4.63v.37h-4.63v-.37zm0 1.43h4.63v.36h-4.63v-.36zm0 1.41h4.63v.37h-4.63v-.37zm0 1.42h4.63v.37h-4.63v-.37zm0 1.43h4.63v.37h-4.63v-.38zm0 1.41h4.63v.37h-4.63v-.37zm0 1.43h4.63v.37h-4.63v-.38zm0 1.41h4.63v.37h-4.63v-.37zm0 1.43h4.63v.37h-4.63v-.38zm0 1.41h4.63v.37h-4.63v-.37zm0 1.42h4.63v.37h-4.63v-.37z"/>
    <path fill="#5D7C6F" d="M108.69 159.7l-14.01.56v-25.24h14v24.68z"/>
    <path fill="#004C3D" d="M95.98 136.3h11.4v24h-11.4v-24z"/>
    <path opacity=".4" fill="#576D7F" d="M96.08 143.25v2.97l9.2-9.24h-3l-6.2 6.28zm0 5.1l11.3-11.29v-.08h-1.05L96.09 147.2l-.02 1.16zm0 6.27v.48l11.29-11.33v-1.69l-11.3 11.26v1.28z"/>
    <path fill="#323E39" d="M95.98 136.3h11.4v.68h-11.4v-.69z"/>
    <path fill="#5D7C6F" d="M100.86 135.01h1.32v27.02h-1.33v-27.02z"/>
    <path fill="#7FB19E" d="M115.53 162.03l-6.84-1.96v-25.06h6.83v27.02z"/>
    <path fill="#5D7C6F" d="M109.78 136.3h4.63v24.46h-4.63V136.3z"/>
    <path fill="#7FB19E" d="M109.78 136.99h4.63v.37h-4.63v-.38zm0 1.41h4.63v.37h-4.63v-.37zm0 1.42h4.63v.37h-4.63v-.37zm0 1.42h4.63v.37h-4.63v-.37zm0 1.42h4.63v.37h-4.63v-.37zm0 1.42h4.63v.37h-4.63v-.37zm0 1.42h4.63v.37h-4.63v-.37zm0 1.43h4.63v.36h-4.63v-.36zm0 1.41h4.63v.37h-4.63v-.37zm0 1.42h4.63v.37h-4.63v-.37zm0 1.43h4.63v.37h-4.63v-.38zm0 1.41h4.63v.37h-4.63v-.37zm0 1.43h4.63v.37h-4.63v-.38zm0 1.41h4.63v.37h-4.63v-.37zm0 1.43h4.63v.37h-4.63v-.38zm0 1.41h4.63v.37h-4.63v-.37zm0 1.42h4.63v.37h-4.63v-.37zM94.68 160.65l-6.85 1.4V135h6.85v25.64z"/>
    <path fill="#5D7C6F" d="M88.94 136.3h4.63v24.46h-4.63V136.3z"/>
    <path fill="#7FB19E" d="M88.94 136.99h4.63v.37h-4.63v-.38zm0 1.41h4.63v.37h-4.63v-.37zm0 1.42h4.63v.37h-4.63v-.37zm0 1.42h4.63v.37h-4.63v-.37zm0 1.42h4.63v.37h-4.63v-.37zm0 1.42h4.63v.37h-4.63v-.37zm0 1.42h4.63v.37h-4.63v-.37zm0 1.43h4.63v.36h-4.63v-.36zm0 1.41h4.63v.37h-4.63v-.37zm0 1.42h4.63v.37h-4.63v-.37zm0 1.43h4.63v.37h-4.63v-.38zm0 1.41h4.63v.37h-4.63v-.37zm0 1.43h4.63v.37h-4.63v-.38zm0 1.41h4.63v.37h-4.63v-.37zm0 1.43h4.63v.37h-4.63v-.38zm0 1.41h4.63v.37h-4.63v-.37zm0 1.42h4.63v.37h-4.63v-.37z"/>
  </g>
  <g>
    <path fill="#5D7C6F" d="M51.7 90.2h14.02v24.7H51.7V90.2z"/>
    <path fill="#004C3D" d="M53 91.48h11.4v23.3H53v-23.3z"/>
    <path opacity=".4" fill="#576D7F" d="M53 98.5v2.97l9.2-9.24h-2.97L53 98.5zm0 5.1l11.33-11.3v-.07h-1.07L53 102.45v1.16zm0 6.26v.49l11.3-11.33v-1.7L53 108.6v1.26z"/>
    <path fill="#323E39" d="M53 91.48h11.4v.7H53v-.7z"/>
    <path fill="#5D7C6F" d="M57.88 90.2h1.31v27.02h-1.31V90.2z"/>
    <path fill="#7FB19E" d="M72.55 117.22l-6.84-2.33V90.2h6.84v27.02z"/>
    <path fill="#5D7C6F" d="M71.44 115.95l-4.64-.55V91.48h4.64v24.47z"/>
    <path fill="#7FB19E" d="M66.8 92.17h4.64v.37H66.8v-.37zm0 1.42h4.64v.37H66.8v-.36zm0 1.42h4.64v.37H66.8v-.36zm0 1.42h4.64v.37H66.8v-.36zm0 1.42h4.64v.38H66.8v-.38zm0 1.43h4.64v.37H66.8v-.38zm0 1.41h4.64v.37H66.8v-.37zm0 1.42h4.64v.37H66.8v-.37zm0 1.42h4.64v.37H66.8v-.37zm0 1.42h4.64v.37H66.8v-.37zm0 1.42h4.64v.37H66.8v-.37zm0 1.42h4.64v.37H66.8v-.37zm0 1.42h4.64v.37H66.8v-.36zm0 1.43h4.64v.37H66.8v-.38zm0 1.42h4.64v.37H66.8v-.38zm0 1.41h4.64v.37H66.8v-.37zm0 1.42h4.64v.37H66.8v-.37zM51.7 114.9l-6.85 2.32V90.2h6.84l.02 24.7z"/>
    <path fill="#5D7C6F" d="M50.6 115.53l-4.64.43V91.49h4.63v24.04z"/>
    <path fill="#7FB19E" d="M45.97 92.17h4.63v.37h-4.63v-.37zm0 1.42h4.63v.37h-4.63v-.36zm0 1.42h4.63v.37h-4.63v-.36zm0 1.42h4.63v.37h-4.63v-.36zm0 1.42h4.63v.38h-4.63v-.38zm0 1.43h4.63v.37h-4.63v-.38zm0 1.41h4.63v.37h-4.63v-.37zm0 1.42h4.63v.37h-4.63v-.37zm0 1.42h4.63v.37h-4.63v-.37zm0 1.42h4.63v.37h-4.63v-.37zm0 1.42h4.63v.37h-4.63v-.37zm0 1.42h4.63v.37h-4.63v-.37zm0 1.42h4.63v.37h-4.63v-.36zm0 1.43h4.63v.37h-4.63v-.38zm0 1.42h4.63v.37h-4.63v-.38zm0 1.41h4.63v.37h-4.63v-.37zm0 1.42h4.63v.37h-4.63v-.37z"/>
    <path fill="#5D7C6F" d="M11.74 95.66h11.11v19.57h-11.1V95.66z"/>
    <path fill="#004C3D" d="M12.79 96.67h9.03v18.47h-9.04V96.67z"/>
    <path opacity=".4" fill="#576D7F" d="M12.79 102.22v2.4l7.38-7.43h-2.4l-4.98 5.03zm0 4.1l9.07-9.06v-.07H21l-8.23 8.2v.93zm0 5.01v.4l9.06-9.1v-1.35l-9.07 9.04v1.01z"/>
    <path fill="#323E39" d="M12.79 96.67h9.03v.55h-9.04v-.55z"/>
    <path fill="#5D7C6F" d="M16.64 95.66h1.05v21.42h-1.05V95.66z"/>
    <path fill="#7FB19E" d="M28.27 117.08l-5.42-1.85V95.65h5.42v21.43z"/>
    <path fill="#5D7C6F" d="M23.73 96.67h3.67v19.4h-3.67v-19.4z"/>
    <path fill="#7FB19E" d="M23.73 97.22h3.67v.3h-3.67v-.3zm0 1.13h3.67v.29h-3.67v-.3zm0 1.13h3.67v.28h-3.67v-.29zm0 1.11h3.67v.3h-3.67v-.3zm0 1.13h3.67v.3h-3.67v-.3zm0 1.14h3.67v.29h-3.67v-.3zm0 1.11h3.67v.3h-3.67v-.3zm0 1.14h3.67v.29h-3.67v-.3zm0 1.11h3.67v.3h-3.67v-.3zm0 1.14h3.67v.29h-3.67v-.3zm0 1.11h3.67v.3h-3.67v-.3zm0 1.14h3.67v.29h-3.67v-.3zm0 1.11h3.67v.3h-3.67v-.3zm0 1.14h3.67v.29h-3.67v-.3zm0 1.13h3.67v.29h-3.67v-.3zm0 1.12h3.67v.29h-3.67v-.3zm0 1.13h3.67v.29h-3.67v-.3zM11.74 115.23l-5.42 1.85V95.66h5.42v19.58z"/>
    <path fill="#5D7C6F" d="M7.2 96.67h3.67v19.4H7.21v-19.4z"/>
    <path fill="#7FB19E" d="M7.2 97.22h3.67v.3H7.21v-.3zm0 1.13h3.67v.29H7.21v-.3zm0 1.13h3.67v.28H7.21v-.29zm0 1.11h3.67v.3H7.21v-.3zm0 1.13h3.67v.3H7.21v-.3zm0 1.14h3.67v.29H7.21v-.3zm0 1.11h3.67v.3H7.21v-.3zm0 1.14h3.67v.29H7.21v-.3zm0 1.11h3.67v.3H7.21v-.3zm0 1.14h3.67v.29H7.21v-.3zm0 1.11h3.67v.3H7.21v-.3zm0 1.14h3.67v.29H7.21v-.3zm0 1.11h3.67v.3H7.21v-.3zm0 1.14h3.67v.29H7.21v-.3zm0 1.13h3.67v.29H7.21v-.3zm0 1.12h3.67v.29H7.21v-.3zm0 1.13h3.67v.29H7.21v-.3z"/>
    <g>
      <path fill="#5D7C6F" d="M94.68 90.2h14v24.57h-14V90.2z"/>
      <path fill="#004C3D" d="M95.98 91.48h11.4v22.36h-11.4V91.48z"/>
      <path opacity=".4" fill="#576D7F" d="M96.06 98.45v3l9.2-9.25h-2.98l-6.22 6.25zm0 5.12l11.3-11.3v-.08h-1.06l-10.24 10.22v1.16zm0 6.25v.5l11.3-11.34V97.3l-11.3 11.27v1.26z"/>
      <path fill="#323E39" d="M95.98 91.48h11.4v.7h-11.4v-.7z"/>
      <path fill="#5D7C6F" d="M100.86 90.2h1.32v27.02h-1.33V90.2z"/>
      <path fill="#7FB19E" d="M115.53 117.22l-6.84-2.45V90.2h6.83v27.02z"/>
      <path fill="#5D7C6F" d="M114.43 115.95l-4.65-.72V91.5h4.63l.02 24.46z"/>
      <path fill="#7FB19E" d="M109.78 92.17h4.63v.37h-4.63v-.37zm0 1.42h4.63v.37h-4.63v-.36zm0 1.42h4.63v.37h-4.63v-.36zm0 1.42h4.63v.37h-4.63v-.36zm0 1.42h4.63v.38h-4.63v-.38zm0 1.43h4.63v.37h-4.63v-.38zm0 1.41h4.63v.37h-4.63v-.37zm0 1.42h4.63v.37h-4.63v-.37zm0 1.42h4.63v.37h-4.63v-.37zm0 1.42h4.63v.37h-4.63v-.37zm0 1.42h4.63v.37h-4.63v-.37zm0 1.42h4.63v.37h-4.63v-.37zm0 1.42h4.63v.37h-4.63v-.36zm0 1.43h4.63v.37h-4.63v-.38zm0 1.42h4.63v.37h-4.63v-.38zm0 1.41h4.63v.37h-4.63v-.37zm0 1.42h4.63v.37h-4.63v-.37zM94.68 114.47l-6.85 2.75V90.2h6.85v24.27z"/>
      <path fill="#5D7C6F" d="M88.94 91.48h4.63v24.07h-4.63V91.5z"/>
      <path fill="#7FB19E" d="M88.94 92.17h4.63v.37h-4.63v-.37zm0 1.42h4.63v.37h-4.63v-.36zm0 1.42h4.63v.37h-4.63v-.36zm0 1.42h4.63v.37h-4.63v-.36zm0 1.42h4.63v.38h-4.63v-.38zm0 1.43h4.63v.37h-4.63v-.38zm0 1.41h4.63v.37h-4.63v-.37zm0 1.42h4.63v.37h-4.63v-.37zm0 1.42h4.63v.37h-4.63v-.37zm0 1.42h4.63v.37h-4.63v-.37zm0 1.42h4.63v.37h-4.63v-.37zm0 1.42h4.63v.37h-4.63v-.37zm0 1.42h4.63v.37h-4.63v-.36zm0 1.43h4.63v.37h-4.63v-.38zm0 1.42h4.63v.37h-4.63v-.38zm0 1.41h4.63v.37h-4.63v-.37zm0 1.42h4.63v.37h-4.63v-.37z"/>
    </g>
    <g>
      <path fill="#5D7C6F" d="M129.78 90.2h14.02v23.9h-14.02V90.2z"/>
      <path fill="#004C3D" d="M131.09 91.48h11.39v21.63h-11.4V91.48z"/>
      <path opacity=".4" fill="#576D7F" d="M131.13 98.45v3l9.2-9.25h-2.98l-6.22 6.25zm0 5.12l11.3-11.3v-.08h-1.05l-10.24 10.22-.01 1.16zm0 6.25v.5l11.3-11.34V97.3l-11.3 11.27v1.26z"/>
      <path fill="#323E39" d="M131.09 91.48h11.39v.7h-11.4v-.7z"/>
      <path fill="#5D7C6F" d="M135.96 90.2h1.32v25.48h-1.32V90.2z"/>
      <path fill="#7FB19E" d="M150.63 117.22l-6.84-2.33V90.2h6.84v27.02z"/>
      <path fill="#5D7C6F" d="M149.53 115.95l-4.63-.67v-23.8h4.63v24.47z"/>
      <path fill="#7FB19E" d="M144.9 92.17h4.63v.37h-4.63v-.37zm0 1.42h4.63v.37h-4.63v-.36zm0 1.42h4.63v.37h-4.63v-.36zm0 1.42h4.63v.37h-4.63v-.36zm0 1.42h4.63v.38h-4.63v-.38zm0 1.43h4.63v.37h-4.63v-.38zm0 1.41h4.63v.37h-4.63v-.37zm0 1.42h4.63v.37h-4.63v-.37zm0 1.42h4.63v.37h-4.63v-.37zm0 1.42h4.63v.37h-4.63v-.37zm0 1.42h4.63v.37h-4.63v-.37zm0 1.42h4.63v.37h-4.63v-.37zm0 1.42h4.63v.37h-4.63v-.36zm0 1.43h4.63v.37h-4.63v-.38zm0 1.42h4.63v.37h-4.63v-.38zm0 1.41h4.63v.37h-4.63v-.37zm0 1.42h4.63v.37h-4.63v-.37zM129.78 115.32l-6.84 1.9V90.2h6.84v25.12z"/>
      <path fill="#5D7C6F" d="M128.68 115.52l-4.63.43V91.48h4.63v24.03z"/>
      <path fill="#7FB19E" d="M124.05 92.17h4.63v.37h-4.63v-.37zm0 1.42h4.63v.37h-4.63v-.36zm0 1.42h4.63v.37h-4.63v-.36zm0 1.42h4.63v.37h-4.63v-.36zm0 1.42h4.63v.38h-4.63v-.38zm0 1.43h4.63v.37h-4.63v-.38zm0 1.41h4.63v.37h-4.63v-.37zm0 1.42h4.63v.37h-4.63v-.37zm0 1.42h4.63v.37h-4.63v-.37zm0 1.42h4.63v.37h-4.63v-.37zm0 1.42h4.63v.37h-4.63v-.37zm0 1.42h4.63v.37h-4.63v-.37zm0 1.42h4.63v.37h-4.63v-.36zm0 1.43h4.63v.37h-4.63v-.38zm0 1.42h4.63v.37h-4.63v-.38zm0 1.41h4.63v.37h-4.63v-.37zm0 1.42h4.63v.37h-4.63v-.37z"/>
    </g>
  </g>
  <g>
    <path fill="#5D7C6F" d="M15.73 178.08h14.01v25.06h-14v-25.06z"/>
    <path fill="#004C3D" d="M17.05 179.37h11.39v23.59h-11.4v-23.6z"/>
    <path fill="#323E39" d="M17.05 179.37h11.39v.69h-11.4v-.7z"/>
    <path fill="#5D7C6F" d="M21.91 178.08h1.32v27.02h-1.32v-27.02z"/>
    <path fill="#7FB19E" d="M36.59 205.1l-6.85-1.44v-25.58h6.85v27.02z"/>
    <path fill="#5D7C6F" d="M30.84 179.37h4.63v24.47h-4.62v-24.47z"/>
    <path fill="#7FB19E" d="M30.84 180.06h4.63v.37h-4.62v-.38zm0 1.41h4.63v.37h-4.62v-.37zm0 1.43h4.63v.37h-4.62v-.38zm0 1.41h4.63v.37h-4.62v-.37zm0 1.43h4.63v.37h-4.62v-.38zm0 1.41h4.63v.37h-4.62v-.37zm0 1.42h4.63v.37h-4.62v-.37zm0 1.42h4.63v.37h-4.62V190zm0 1.42h4.63v.37h-4.62v-.37zm0 1.42h4.63v.37h-4.62v-.37zm0 1.41h4.63v.37h-4.62v-.37zm0 1.44h4.63v.36h-4.62v-.36zm0 1.41h4.63v.37h-4.62v-.37zm0 1.42h4.63v.37h-4.62v-.37zm0 1.43h4.63v.37h-4.62v-.38zm0 1.41h4.63v.37h-4.62v-.37zm0 1.43h4.63v.37h-4.62v-.38zM15.73 203.3l-6.84 1.8v-27.02h6.84v25.22z"/>
    <path fill="#5D7C6F" d="M10 179.37h4.64v24.47H10v-24.47z"/>
    <path fill="#7FB19E" d="M10 180.06h4.64v.37H10v-.38zm0 1.41h4.64v.37H10v-.37zm0 1.43h4.64v.37H10v-.38zm0 1.41h4.64v.37H10v-.37zm0 1.43h4.64v.37H10v-.38zm0 1.41h4.64v.37H10v-.37zm0 1.42h4.64v.37H10v-.37zm0 1.42h4.64v.37H10V190zm0 1.42h4.64v.37H10v-.37zm0 1.42h4.64v.37H10v-.37zm0 1.41h4.64v.37H10v-.37zm0 1.44h4.64v.36H10v-.36zm0 1.41h4.64v.37H10v-.37zm0 1.42h4.64v.37H10v-.37zm0 1.43h4.64v.37H10v-.38zm0 1.41h4.64v.37H10v-.37zm0 1.43h4.64v.37H10v-.38z"/>
  </g>
  <g>
    <path fill="#5D7C6F" d="M129.78 178.08h14.02v25.06h-14.02v-25.06z"/>
    <path fill="#004C3D" d="M131.09 179.37h11.39v23.59h-11.4v-23.6z"/>
    <path fill="#323E39" d="M131.09 179.37h11.39v.69h-11.4v-.7z"/>
    <path fill="#5D7C6F" d="M135.96 178.08h1.32v27.02h-1.32v-27.02z"/>
    <path fill="#7FB19E" d="M150.63 205.1l-6.84-1.44v-25.58h6.84v27.02z"/>
    <path fill="#5D7C6F" d="M144.9 179.37h4.63v24.47h-4.63v-24.47z"/>
    <path fill="#7FB19E" d="M144.9 180.06h4.63v.37h-4.63v-.38zm0 1.41h4.63v.37h-4.63v-.37zm0 1.43h4.63v.37h-4.63v-.38zm0 1.41h4.63v.37h-4.63v-.37zm0 1.43h4.63v.37h-4.63v-.38zm0 1.41h4.63v.37h-4.63v-.37zm0 1.42h4.63v.37h-4.63v-.37zm0 1.42h4.63v.37h-4.63V190zm0 1.42h4.63v.37h-4.63v-.37zm0 1.42h4.63v.37h-4.63v-.37zm0 1.41h4.63v.37h-4.63v-.37zm0 1.44h4.63v.36h-4.63v-.36zm0 1.41h4.63v.37h-4.63v-.37zm0 1.42h4.63v.37h-4.63v-.37zm0 1.43h4.63v.37h-4.63v-.38zm0 1.41h4.63v.37h-4.63v-.37zm0 1.43h4.63v.37h-4.63v-.38zM129.78 203.3l-6.84 1.8v-27.02h6.84v25.22z"/>
    <path fill="#5D7C6F" d="M124.05 179.37h4.63v24.47h-4.63v-24.47z"/>
    <path fill="#7FB19E" d="M124.05 180.06h4.63v.37h-4.63v-.38zm0 1.41h4.63v.37h-4.63v-.37zm0 1.43h4.63v.37h-4.63v-.38zm0 1.41h4.63v.37h-4.63v-.37zm0 1.43h4.63v.37h-4.63v-.38zm0 1.41h4.63v.37h-4.63v-.37zm0 1.42h4.63v.37h-4.63v-.37zm0 1.42h4.63v.37h-4.63V190zm0 1.42h4.63v.37h-4.63v-.37zm0 1.42h4.63v.37h-4.63v-.37zm0 1.41h4.63v.37h-4.63v-.37zm0 1.44h4.63v.36h-4.63v-.36zm0 1.41h4.63v.37h-4.63v-.37zm0 1.42h4.63v.37h-4.63v-.37zm0 1.43h4.63v.37h-4.63v-.38zm0 1.41h4.63v.37h-4.63v-.37zm0 1.43h4.63v.37h-4.63v-.38z"/>
  </g>
  <g>
    <path fill="#5D7C6F" d="M51.7 178.08h14.02v25.06H51.7v-25.06z"/>
    <path fill="#004C3D" d="M53 179.37h11.4v23.59H53v-23.6z"/>
    <path fill="#323E39" d="M53 179.37h11.4v.69H53v-.7z"/>
    <path fill="#5D7C6F" d="M57.88 178.08h1.31v27.02h-1.31v-27.02z"/>
    <path fill="#7FB19E" d="M72.55 205.1l-6.84-1.44v-25.58h6.84v27.02z"/>
    <path fill="#5D7C6F" d="M66.8 179.37h4.64v24.47H66.8v-24.47z"/>
    <path fill="#7FB19E" d="M66.8 180.06h4.64v.37H66.8v-.38zm0 1.41h4.64v.37H66.8v-.37zm0 1.43h4.64v.37H66.8v-.38zm0 1.41h4.64v.37H66.8v-.37zm0 1.43h4.64v.37H66.8v-.38zm0 1.41h4.64v.37H66.8v-.37zm0 1.42h4.64v.37H66.8v-.37zm0 1.42h4.64v.37H66.8V190zm0 1.42h4.64v.37H66.8v-.37zm0 1.42h4.64v.37H66.8v-.37zm0 1.41h4.64v.37H66.8v-.37zm0 1.44h4.64v.36H66.8v-.36zm0 1.41h4.64v.37H66.8v-.37zm0 1.42h4.64v.37H66.8v-.37zm0 1.43h4.64v.37H66.8v-.38zm0 1.41h4.64v.37H66.8v-.37zm0 1.43h4.64v.37H66.8v-.38zM51.7 203.3l-6.85 1.8v-27.02h6.84l.02 25.22z"/>
    <path fill="#5D7C6F" d="M45.97 179.37h4.63v24.47h-4.63v-24.47z"/>
    <path fill="#7FB19E" d="M45.97 180.06h4.63v.37h-4.63v-.38zm0 1.41h4.63v.37h-4.63v-.37zm0 1.43h4.63v.37h-4.63v-.38zm0 1.41h4.63v.37h-4.63v-.37zm0 1.43h4.63v.37h-4.63v-.38zm0 1.41h4.63v.37h-4.63v-.37zm0 1.42h4.63v.37h-4.63v-.37zm0 1.42h4.63v.37h-4.63V190zm0 1.42h4.63v.37h-4.63v-.37zm0 1.42h4.63v.37h-4.63v-.37zm0 1.41h4.63v.37h-4.63v-.37zm0 1.44h4.63v.36h-4.63v-.36zm0 1.41h4.63v.37h-4.63v-.37zm0 1.42h4.63v.37h-4.63v-.37zm0 1.43h4.63v.37h-4.63v-.38zm0 1.41h4.63v.37h-4.63v-.37zm0 1.43h4.63v.37h-4.63v-.38z"/>
    <path fill="#5D7C6F" d="M108.69 202.78l-14.01.54v-25.23h14v24.69z"/>
    <path fill="#004C3D" d="M95.98 179.37h11.4v24h-11.4v-24z"/>
    <path opacity=".4" fill="#576D7F" d="M17.13 186.32v2.98l9.2-9.24h-2.98l-6.23 6.26zm0 5.12l11.3-11.3v-.07h-1.05l-10.25 10.22v1.15zm0 6.25v.5l11.3-11.34v-1.69l-11.3 11.26v1.27zm114-11.63v2.97l9.2-9.24h-2.98l-6.22 6.27zm0 5.1l11.3-11.28v-.08h-1.05l-10.24 10.22-.01 1.13zm0 6.25v.5l11.3-11.34v-1.69l-11.3 11.27v1.26zm-77.94-11.1v2.97l9.2-9.24H59.4l-6.22 6.27zm0 5.1l11.3-11.29v-.07h-1.05l-10.25 10.2v1.16zm0 6.27v.47l11.3-11.33v-1.68l-11.3 11.26v1.28zm42.89-11.63v2.98l9.2-9.24h-3l-6.2 6.27zm0 5.1l11.3-11.28v-.08h-1.05l-10.24 10.23-.02 1.13zm0 6.26v.5l11.29-11.34v-1.69l-11.3 11.27v1.26z"/>
    <path fill="#323E39" d="M95.98 179.37h11.4v.69h-11.4v-.7z"/>
    <path fill="#5D7C6F" d="M100.86 178.08h1.32v27.02h-1.33v-27.02z"/>
    <path fill="#7FB19E" d="M115.53 205.1l-6.84-1.97v-25.05h6.83v27.02z"/>
    <path fill="#5D7C6F" d="M109.78 179.37h4.63v24.47h-4.63v-24.47z"/>
    <path fill="#7FB19E" d="M109.78 180.06h4.63v.37h-4.63v-.38zm0 1.41h4.63v.37h-4.63v-.37zm0 1.43h4.63v.37h-4.63v-.38zm0 1.41h4.63v.37h-4.63v-.37zm0 1.43h4.63v.37h-4.63v-.38zm0 1.41h4.63v.37h-4.63v-.37zm0 1.42h4.63v.37h-4.63v-.37zm0 1.42h4.63v.37h-4.63V190zm0 1.42h4.63v.37h-4.63v-.37zm0 1.42h4.63v.37h-4.63v-.37zm0 1.41h4.63v.37h-4.63v-.37zm0 1.44h4.63v.36h-4.63v-.36zm0 1.41h4.63v.37h-4.63v-.37zm0 1.42h4.63v.37h-4.63v-.37zm0 1.43h4.63v.37h-4.63v-.38zm0 1.41h4.63v.37h-4.63v-.37zm0 1.43h4.63v.37h-4.63v-.38zM94.68 203.72l-6.85 1.4v-27.04h6.85v25.63z"/>
    <path fill="#5D7C6F" d="M88.94 179.37h4.63v24.47h-4.63v-24.47z"/>
    <path fill="#7FB19E" d="M88.94 180.06h4.63v.37h-4.63v-.38zm0 1.41h4.63v.37h-4.63v-.37zm0 1.43h4.63v.37h-4.63v-.38zm0 1.41h4.63v.37h-4.63v-.37zm0 1.43h4.63v.37h-4.63v-.38zm0 1.41h4.63v.37h-4.63v-.37zm0 1.42h4.63v.37h-4.63v-.37zm0 1.42h4.63v.37h-4.63V190zm0 1.42h4.63v.37h-4.63v-.37zm0 1.42h4.63v.37h-4.63v-.37zm0 1.41h4.63v.37h-4.63v-.37zm0 1.44h4.63v.36h-4.63v-.36zm0 1.41h4.63v.37h-4.63v-.37zm0 1.42h4.63v.37h-4.63v-.37zm0 1.43h4.63v.37h-4.63v-.38zm0 1.41h4.63v.37h-4.63v-.37zm0 1.43h4.63v.37h-4.63v-.38z"/>
  </g>
  <path fill="#A2A395" d="M71.44 123.22l-5.33.35-7.4-1.76-13.59.6c-1.44.35-2.64-7.36-2.64-4.05 0 3.95-.27 5.34 1.2 6.46.71.55 3.94.95 7.7.95 2.5 0 7.33 1.84 7.33 1.84s4.83-1.84 7.32-1.84c3.77 0 7-.4 7.72-.95 1.45-1.12 1.2-2.5 1.2-6.46 0-3.3-.67-3.9-2.1-4.26l-1.4 9.13zm-44.47.45l-3.73.42-5.94-1.27-10.85 1.61c-1.14.3-1.7-5.75-1.7-3.17 0 3.1-.58 4.2.56 5.06.56.44 3.09.75 6.03.75 1.94 0 5.72 1.44 5.72 1.44s3.77-1.44 5.72-1.44c2.94 0 5.46-.31 6.03-.75 1.13-.87.93-1.96.93-5.04 0-2.59-.52-3.05-1.65-3.33l-1.12 5.72zm87.28-.45l-5.32.35-7.41-1.76-13.58.6c-1.46.35-2.65-7.36-2.65-4.05 0 3.95-.27 5.34 1.19 6.46.72.55 3.95.95 7.7.95 2.5 0 7.34 1.84 7.34 1.84s4.83-1.84 7.32-1.84c3.77 0 7-.4 7.72-.95 1.45-1.12 1.18-2.5 1.18-6.46 0-3.3-.65-3.9-2.1-4.26l-1.4 9.13zm35.76 0l-5.32.35-7.4-1.76-13.6.6c-1.45.35-2.64-7.36-2.64-4.05 0 3.95-.27 5.34 1.2 6.46.71.55 3.94.95 7.7.95 2.5 0 7.32 1.84 7.32 1.84s4.84-1.84 7.33-1.84c3.77 0 7-.4 7.71-.95 1.46-1.12 1.2-2.5 1.2-6.46 0-3.3-.66-3.9-2.1-4.26l-1.4 9.13zm-78.56 45.61l-5.34.34-7.4-1.76-13.59.6c-1.44.35-2.64-7.36-2.64-4.04 0 3.94-.27 5.34 1.2 6.46.71.55 3.94.94 7.7.94 2.5 0 7.33 1.85 7.33 1.85s4.83-1.85 7.32-1.85c3.77 0 7-.4 7.72-.94 1.45-1.12 1.2-2.5 1.2-6.46 0-3.32-.67-3.9-2.1-4.27l-1.4 9.13zm-36.15 0l-5.31.34-7.4-1.76-13.6.6c-1.44.35-2.64-7.36-2.64-4.04 0 3.94-.28 5.34 1.2 6.46.7.55 3.93.94 7.7.94 2.5 0 7.32 1.85 7.32 1.85s4.84-1.85 7.32-1.85c3.77 0 7-.4 7.72-.94 1.46-1.12 1.2-2.5 1.2-6.46 0-3.32-.66-3.9-2.1-4.27l-1.4 9.13zm78.94 0l-5.31.34-7.41-1.76-13.58.6c-1.46.35-2.65-7.36-2.65-4.04 0 3.94-.27 5.34 1.19 6.46.72.55 3.95.94 7.7.94 2.5 0 7.34 1.85 7.34 1.85s4.83-1.85 7.32-1.85c3.77 0 7-.4 7.72-.94 1.45-1.12 1.18-2.5 1.18-6.46 0-3.32-.65-3.9-2.1-4.27l-1.4 9.13zm35.77 0l-5.32.34-7.4-1.76-13.6.6c-1.45.35-2.64-7.36-2.64-4.04 0 3.94-.27 5.34 1.2 6.46.71.55 3.94.94 7.7.94 2.5 0 7.32 1.85 7.32 1.85s4.84-1.85 7.33-1.85c3.77 0 7-.4 7.71-.94 1.46-1.12 1.2-2.5 1.2-6.46 0-3.32-.66-3.9-2.1-4.27l-1.4 9.13zm-78.56 45.4l-5.34.36-7.4-1.76-13.59.58c-1.44.37-2.64-7.35-2.64-4.04 0 3.96-.27 5.34 1.2 6.46.71.55 3.94.95 7.7.95 2.5 0 7.33 1.84 7.33 1.84s4.83-1.84 7.32-1.84c3.77 0 7-.4 7.72-.95 1.45-1.12 1.2-2.5 1.2-6.46 0-3.3-.67-3.9-2.1-4.26l-1.4 9.13zm-36.15 0l-5.31.36-7.4-1.76-13.6.58c-1.44.37-2.64-7.35-2.64-4.04 0 3.96-.28 5.34 1.2 6.46.7.55 3.93.95 7.7.95 2.5 0 7.32 1.84 7.32 1.84s4.84-1.84 7.32-1.84c3.77 0 7-.4 7.72-.95 1.46-1.12 1.2-2.5 1.2-6.46 0-3.3-.66-3.9-2.1-4.26l-1.4 9.13zm78.94 0l-5.31.36-7.41-1.76-13.58.58c-1.46.37-2.65-7.35-2.65-4.04 0 3.96-.27 5.34 1.19 6.46.72.55 3.95.95 7.7.95 2.5 0 7.34 1.84 7.34 1.84s4.83-1.84 7.32-1.84c3.77 0 7-.4 7.72-.95 1.45-1.12 1.18-2.5 1.18-6.46 0-3.3-.65-3.9-2.1-4.26l-1.4 9.13zm35.77 0l-5.32.36-7.4-1.76-13.6.58c-1.45.37-2.64-7.35-2.64-4.04 0 3.96-.27 5.34 1.2 6.46.71.55 3.94.95 7.7.95 2.5 0 7.32 1.84 7.32 1.84s4.84-1.84 7.33-1.84c3.77 0 7-.4 7.71-.95 1.46-1.12 1.2-2.5 1.2-6.46 0-3.3-.66-3.9-2.1-4.26l-1.4 9.13z"/>
  <path fill="#CED0BB" d="M74.94 117.78c0-3.3-.66-3.9-2.1-4.26-.86-.21-9.99-3.6-14.07-3.65H58.66c-4.08.06-13.2 3.43-14.06 3.64-1.45.36-2.1.95-2.1 4.26 0 3.97-.28 4.77 1.18 5.88.72.55 3.95.95 7.71.95 2.5 0 5.4-.34 7.33-1.66 1.93 1.32 4.83 1.66 7.32 1.66 3.77 0 7-.4 7.72-.95 1.45-1.12 1.2-1.93 1.2-5.88zm-21.09 2.94c-2.28.97-4.95 1.06-5.88.23-1.83-1.6-.25-3.69 1.94-4.84 2.63-1.37 6.43-1.99 7.46.47.6 1.4-1.31 3.2-3.52 4.14zm15.6.23c-.93.83-3.6.74-5.89-.23-2.2-.94-4.1-2.75-3.52-4.14 1.03-2.46 4.84-1.84 7.47-.47 2.2 1.15 3.76 3.23 1.93 4.84h.02zm48.36-3.17c0-3.3-.66-3.9-2.1-4.26-.85-.21-9.98-3.6-14.06-3.65h-.12c-4.1.06-13.22 3.43-14.07 3.64-1.45.36-2.1.95-2.1 4.26 0 3.97-.27 4.77 1.19 5.88.72.55 3.93.95 7.7.95 2.5 0 5.4-.34 7.34-1.66 1.93 1.32 4.82 1.66 7.31 1.66 3.76 0 7-.4 7.71-.95 1.47-1.12 1.2-1.93 1.2-5.88zm-21.09 2.94c-2.27.97-4.95 1.06-5.88.23-1.83-1.6-.25-3.69 1.94-4.84 2.63-1.37 6.43-1.99 7.46.47.59 1.4-1.3 3.2-3.52 4.14zm15.6.23c-.93.83-3.6.74-5.88-.23-2.2-.94-4.1-2.75-3.51-4.14 1.01-2.46 4.82-1.84 7.45-.47 2.18 1.15 3.76 3.23 1.93 4.84h.02zm-73.52 42.4c0-3.3-.66-3.9-2.1-4.26-.86-.2-9.98-3.59-14.07-3.65h-.1c-4.1.07-13.22 3.44-14.07 3.66-1.46.36-2.1.95-2.1 4.26 0 3.95-.28 4.75 1.18 5.87.72.55 3.95.95 7.72.95 2.5 0 5.38-.35 7.32-1.66 1.94 1.31 4.83 1.66 7.32 1.66 3.77 0 7-.4 7.72-.95 1.46-1.12 1.2-1.92 1.2-5.88h-.02zm-21.07 2.96c-2.28.97-4.96 1.06-5.9.23-1.82-1.61-.25-3.7 1.94-4.84 2.63-1.38 6.43-2 7.46.46.6 1.4-1.3 3.2-3.5 4.15zm15.57.23c-.91.82-3.6.73-5.86-.23-2.2-.94-4.1-2.74-3.53-4.15 1.03-2.44 4.83-1.84 7.46-.46 2.2 1.15 3.78 3.23 1.93 4.84zm-3.55-46.88c0-2.56-.5-3.01-1.63-3.3-.65-.16-7.7-2.78-10.85-2.82H17.16c-3.14.05-10.2 2.66-10.85 2.82-1.12.29-1.63.74-1.63 3.3 0 3.05-.2 3.66.92 4.53.56.42 3.05.72 5.96.72 1.92 0 4.15-.27 5.65-1.27 1.5 1 3.73 1.27 5.65 1.27 2.9 0 5.4-.3 5.96-.72 1.13-.88.93-1.49.93-4.53zm-16.28 2.27c-1.75.74-3.82.81-4.54.17-1.4-1.24-.2-2.84 1.5-3.72 2.02-1.07 4.97-1.54 5.76.35.45 1.08-1.03 2.47-2.72 3.2zm12.04.17c-.73.65-2.78.58-4.54-.17-1.7-.74-3.17-2.13-2.72-3.2.8-1.9 3.73-1.43 5.76-.36 1.7.88 2.9 2.48 1.5 3.73zm128-4.46c0-3.32-.66-3.9-2.1-4.27-.86-.22-9.99-3.6-14.07-3.65h-.12c-4.09.06-13.22 3.43-14.07 3.65-1.45.36-2.1.95-2.1 4.27 0 3.94-.27 4.75 1.2 5.87.71.55 3.94.94 7.7.94 2.5 0 5.4-.35 7.32-1.66 1.94 1.32 4.84 1.66 7.33 1.66 3.77 0 7-.4 7.71-.94 1.47-1.13 1.2-1.93 1.2-5.88zm-21.08 2.94c-2.28.98-4.95 1.07-5.88.23-1.83-1.62-.25-3.7 1.93-4.84 2.63-1.38 6.43-2 7.46.47.59 1.4-1.31 3.2-3.51 4.14zm15.6.23c-.94.83-3.61.74-5.9-.23-2.2-.93-4.1-2.75-3.52-4.14 1.03-2.46 4.84-1.84 7.48-.47 2.18 1.15 3.76 3.22 1.93 4.84zm-73.09 87.56c0-3.3-.66-3.9-2.1-4.26-.86-.2-9.99-3.59-14.07-3.65H58.66c-4.08.06-13.2 3.44-14.06 3.65-1.45.36-2.1.95-2.1 4.26 0 3.96-.28 4.76 1.18 5.87.72.56 3.95.96 7.71.96 2.5 0 5.4-.35 7.33-1.67 1.93 1.32 4.83 1.66 7.32 1.67 3.77 0 7-.4 7.72-.96 1.45-1.12 1.2-1.9 1.2-5.87zm-21.09 2.95c-2.28.97-4.95 1.07-5.88.24-1.83-1.62-.25-3.7 1.94-4.84 2.63-1.38 6.43-2 7.46.46.6 1.4-1.31 3.2-3.52 4.14zm15.6.25c-.93.82-3.6.72-5.89-.24-2.2-.94-4.1-2.76-3.52-4.15 1.03-2.45 4.84-1.84 7.47-.46 2.2 1.14 3.76 3.22 1.93 4.84h.02zm48.36-3.2c0-3.3-.66-3.9-2.1-4.26-.85-.2-9.98-3.59-14.06-3.65h-.12c-4.1.06-13.22 3.44-14.07 3.65-1.45.36-2.1.95-2.1 4.26 0 3.96-.27 4.76 1.19 5.87.72.56 3.93.96 7.7.96 2.5 0 5.4-.35 7.34-1.67 1.93 1.32 4.82 1.66 7.31 1.67 3.76 0 7-.4 7.71-.96 1.47-1.12 1.2-1.9 1.2-5.87zm-21.09 2.95c-2.27.97-4.95 1.07-5.88.24-1.83-1.62-.25-3.7 1.94-4.84 2.63-1.38 6.43-2 7.46.46.59 1.4-1.3 3.2-3.52 4.14zm15.6.25c-.93.82-3.6.72-5.88-.24-2.2-.94-4.1-2.76-3.51-4.15 1.01-2.45 4.82-1.84 7.45-.46 2.18 1.14 3.76 3.22 1.93 4.84h.02zm-73.52-3.2c0-3.3-.66-3.9-2.1-4.26-.86-.2-9.98-3.59-14.07-3.65h-.1c-4.1.06-13.22 3.44-14.07 3.65-1.46.36-2.1.95-2.1 4.26 0 3.96-.28 4.76 1.18 5.87.72.56 3.95.96 7.72.96 2.5 0 5.38-.35 7.32-1.67 1.94 1.32 4.83 1.66 7.32 1.67 3.77 0 7-.4 7.72-.96 1.46-1.12 1.2-1.9 1.2-5.87h-.02zm-21.07 2.95c-2.28.97-4.96 1.07-5.9.24-1.82-1.62-.25-3.7 1.94-4.84 2.63-1.38 6.43-2 7.46.46.6 1.4-1.3 3.2-3.5 4.14zm15.57.25c-.91.82-3.6.72-5.86-.24-2.2-.94-4.1-2.76-3.53-4.15 1.03-2.45 4.83-1.84 7.46-.46 2.2 1.15 3.78 3.22 1.93 4.84zm120.21-3.2c0-3.3-.66-3.9-2.1-4.26-.86-.2-9.99-3.59-14.07-3.65h-.12c-4.09.06-13.22 3.44-14.07 3.65-1.45.36-2.1.95-2.1 4.26 0 3.96-.27 4.76 1.2 5.87.71.56 3.94.96 7.7.96 2.5 0 5.4-.35 7.32-1.67 1.94 1.32 4.84 1.66 7.33 1.67 3.77 0 7-.4 7.71-.96 1.47-1.12 1.2-1.9 1.2-5.87zm-21.08 2.95c-2.28.97-4.95 1.07-5.88.24-1.83-1.62-.25-3.7 1.93-4.84 2.63-1.38 6.43-2 7.46.46.59 1.4-1.31 3.2-3.51 4.14zm15.6.25c-.94.82-3.61.72-5.9-.24-2.2-.94-4.1-2.76-3.52-4.15 1.03-2.45 4.84-1.84 7.48-.46 2.18 1.14 3.76 3.22 1.93 4.84zm-73.09-48.22c0-3.3-.66-3.9-2.1-4.26-.86-.2-9.99-3.59-14.07-3.65H58.66c-4.08.07-13.2 3.44-14.06 3.66-1.45.36-2.1.95-2.1 4.26 0 3.95-.28 4.75 1.18 5.87.72.55 3.95.95 7.71.95 2.5 0 5.4-.35 7.33-1.66 1.93 1.31 4.83 1.66 7.32 1.66 3.77 0 7-.4 7.72-.95 1.45-1.11 1.2-1.91 1.2-5.88zm-21.09 2.96c-2.28.97-4.95 1.06-5.88.23-1.83-1.61-.25-3.7 1.94-4.84 2.63-1.38 6.43-2 7.46.46.6 1.4-1.31 3.2-3.52 4.15zm15.6.23c-.93.82-3.6.73-5.89-.23-2.2-.94-4.1-2.74-3.52-4.15 1.03-2.44 4.84-1.84 7.47-.46 2.2 1.15 3.76 3.23 1.93 4.84h.02zm48.36-3.19c0-3.3-.66-3.9-2.1-4.26-.85-.2-9.98-3.59-14.06-3.65h-.12c-4.1.07-13.22 3.44-14.07 3.66-1.45.36-2.1.95-2.1 4.26 0 3.95-.27 4.75 1.19 5.87.72.55 3.93.95 7.7.95 2.5 0 5.4-.35 7.34-1.66 1.93 1.31 4.82 1.66 7.31 1.66 3.76 0 7-.4 7.71-.95 1.47-1.11 1.2-1.91 1.2-5.88zm-21.09 2.96c-2.27.97-4.95 1.06-5.88.23-1.83-1.61-.25-3.7 1.94-4.84 2.63-1.38 6.43-2 7.46.46.59 1.4-1.3 3.2-3.52 4.15zm15.6.23c-.93.82-3.6.73-5.88-.23-2.2-.94-4.1-2.74-3.51-4.15 1.01-2.44 4.82-1.84 7.45-.46 2.18 1.15 3.76 3.23 1.93 4.84h.02zm41.2-3.19c0-3.3-.67-3.9-2.1-4.26-.87-.2-10-3.59-14.08-3.65h-.12c-4.09.07-13.22 3.44-14.07 3.66-1.45.36-2.1.95-2.1 4.26 0 3.95-.27 4.75 1.2 5.87.71.55 3.94.95 7.7.95 2.5 0 5.4-.35 7.32-1.66 1.94 1.31 4.84 1.66 7.33 1.66 3.77 0 7-.4 7.71-.95 1.47-1.11 1.2-1.91 1.2-5.88zm-21.1 2.96c-2.26.97-4.94 1.06-5.87.23-1.83-1.61-.25-3.7 1.93-4.84 2.63-1.38 6.43-2 7.46.46.59 1.4-1.31 3.2-3.51 4.15zm15.6.23c-.93.82-3.6.73-5.89-.23-2.2-.94-4.1-2.74-3.52-4.15 1.03-2.44 4.84-1.84 7.48-.46 2.18 1.15 3.76 3.23 1.93 4.84z"/>
  <path opacity=".8" fill="#CED0BB" d="M140.4 226.2c-6.76 0-13.3 4.5-17.71 11.1-3.07-6.28-11.65-10.78-21.78-10.78-4.4 0-8.5.85-12 2.31a13.99 13.99 0 0 0-8.5-2.64c-3.22 0-6.12.93-8.2 2.42a31.2 31.2 0 0 0-11.42-2.1c-3.65 0-7.1.58-10.15 1.62-2.1.4-4.06 1.35-5.68 2.74-2.9 1.9-5.07 4.3-6.22 7.02l-.11.17c-4.4-7-11.2-11.87-18.23-11.87-7.36 0-14.48 5.34-18.84 12.9v92.07h157.26v-92.79c-4.4-7.18-11.3-12.18-18.42-12.18z"/>
  <path opacity=".6" fill="#A2A395" d="M16.3 227.87c1.4-.4 2.78-.6 4.1-.6 1.28 0 2.58.2 3.87.55 5.6 1.39 10.77 5.67 14.35 11.39l.1-.17c1.17-2.72 3.34-5.13 6.23-7.03.24-.18.48-.38.73-.55a11.9 11.9 0 0 1 3.83-1.9c.45-.16.91-.28 1.38-.37l.16-.04.8-.25c2.8-.87 5.8-1.31 8.92-1.31 3.03 0 6.02.44 8.77 1.26l.87.27h.01c.61.2 1.21.4 1.8.63 1.08-.78 2.41-1.4 3.9-1.82 2.84-.9 5.9-.89 8.73.04 1.56.46 2.95 1.14 4.06 2 .93-.38 1.9-.73 2.92-1.03 2.94-.9 6-1.36 9.07-1.35 3.36 0 6.58.52 9.45 1.47l.33.1c.03 0 .06.02.08.03 5.6 1.83 9.93 5.17 11.92 9.25 3.37-5.05 8-8.86 13.02-10.38 1.56-.52 3.14-.8 4.7-.8 1.3 0 2.62.2 3.93.58 5.32 1.34 10.25 5.3 13.8 10.62l1.9-1.16c-4.86-7.94-12.38-12.87-19.64-12.87-6.34 0-12.79 3.68-17.6 9.93-4.04-5.82-12.5-9.6-21.9-9.6-4.13 0-8.2.73-11.79 2.13a15.88 15.88 0 0 0-8.69-2.46c-3.11 0-6.06.8-8.39 2.26a32.98 32.98 0 0 0-11.25-1.94c-3.68 0-7.2.57-10.5 1.67a13.57 13.57 0 0 0-6.13 2.94l-.02.02a18.81 18.81 0 0 0-5.65 5.6c-4.85-6.64-11.47-10.55-18.08-10.55-7.54 0-15.23 5.22-20.07 13.62l1.3 2.07c3.56-6.1 8.89-10.72 14.68-12.25z"/>
  <g>
    <path fill="#004C3D" d="M20.4 272.87c-7.76 0-12.4-6.7-12.4-17.9 0-9.93 7.5-17.98 12.4-17.98s12.4 8.05 12.4 17.97c0 11.22-4.63 17.9-12.4 17.9z"/>
    <path fill="#6B9182" d="M20.4 237.57c4.15 0 11.82 7.17 11.82 17.38 0 10.86-4.42 17.33-11.82 17.33s-11.82-6.47-11.82-17.33c0-10.2 7.67-17.38 11.81-17.38m0-1.17c-5.12 0-12.98 8.12-12.98 18.56s4.21 18.5 12.98 18.5c8.78 0 13-8.06 13-18.5 0-10.45-7.87-18.56-13-18.56z"/>
    <path opacity=".4" fill="#576D7F" d="M9.74 248.25c-1.22 2.7-1.16 7.32-1.16 7.32l16.23-15.93s-1.9-2.05-4.5-2.04c-1.54 1.56-9.08 9.1-10.56 10.66zm-.83 11.49l18.2-18.16s-.2-.2-.43-.5c-.24-.31-.78-.7-.78-.7L8.68 257.58c.03.69.23 2.17.23 2.17zm3.56 8.94l.76.75s10.73-10.79 18.55-18.6c-.33-2.2-.9-2.62-.9-2.62l-19.32 19.27.91 1.2z"/>
    <path fill="#004C3D" d="M140.4 272.87c-7.76 0-12.4-6.7-12.4-17.9 0-9.93 7.5-17.98 12.4-17.98s12.4 8.05 12.4 17.97c0 11.22-4.64 17.9-12.4 17.9z"/>
    <path fill="#6B9182" d="M140.4 237.57c4.15 0 11.82 7.17 11.82 17.38 0 10.86-4.42 17.33-11.82 17.33s-11.81-6.47-11.81-17.33c0-10.2 7.66-17.38 11.8-17.38m0-1.17c-5.11 0-12.98 8.12-12.98 18.56s4.22 18.5 13 18.5c8.77 0 12.98-8.06 12.98-18.5 0-10.45-7.86-18.56-13-18.56z"/>
    <path opacity=".4" fill="#576D7F" d="M129.96 248.25c-1.23 2.7-1.16 7.32-1.16 7.32l16.23-15.93s-1.9-2.05-4.5-2.04c-1.54 1.56-9.08 9.1-10.56 10.65h-.01zm-.84 11.49l18.2-18.16-.43-.5c-.25-.31-.78-.7-.78-.7l-17.22 17.19c.03.69.24 2.17.24 2.17zm3.56 8.94l.77.75s10.73-10.79 18.55-18.6c-.33-2.2-.9-2.62-.9-2.62l-19.33 19.27.91 1.2z"/>
    <path fill="#004C3D" d="M51.76 271.24c-.36 0-.71-.1-1-.28-3.97-2.58-6.17-8.25-6.17-15.96 0-7.3 3.74-13.28 7.47-15.97.27-.2.54-.31.8-.31 1 0 1.38 1.56 1.38 2.61v25.95c0 1.36-.27 2.4-.81 3.08-.45.57-1.02.88-1.67.88z"/>
    <path fill="#6B9182" d="M52.84 239.3c.42 0 .8.97.8 2.03v25.95c0 1.23-.23 2.13-.69 2.73-.22.3-.62.64-1.2.64-.24 0-.5-.07-.66-.18-3.82-2.48-5.91-7.97-5.91-15.48 0-7.1 3.63-12.9 7.24-15.5a.8.8 0 0 1 .43-.2m0-1.17c-.39 0-.78.15-1.15.43-3.83 2.77-7.7 8.93-7.7 16.44 0 7.92 2.28 13.76 6.44 16.46.37.23.84.36 1.3.36.84 0 1.6-.38 2.14-1.09.62-.8.93-1.96.93-3.44v-25.95c0-1.55-.6-3.2-1.97-3.2z"/>
    <path fill="#004C3D" d="M109.4 271.24a2.1 2.1 0 0 1-1.68-.87c-.6-.91-.89-1.99-.82-3.07v-25.96c0-1.05.37-2.62 1.4-2.62.25 0 .52.1.79.3 3.73 2.7 7.47 8.67 7.47 15.98 0 7.72-2.2 13.38-6.18 15.96-.27.18-.62.28-.98.28z"/>
    <path fill="#6B9182" d="M108.3 239.3c.12 0 .28.07.45.2 3.6 2.6 7.23 8.4 7.23 15.5 0 7.5-2.1 13-5.91 15.46-.18.11-.43.18-.67.18a1.5 1.5 0 0 1-1.2-.64 4.5 4.5 0 0 1-.7-2.72v-25.95c0-1.06.38-2.03.8-2.03m0-1.18c-1.35 0-1.97 1.66-1.97 3.2v25.96c0 1.48.3 2.65.93 3.44.55.7 1.3 1.1 2.14 1.1.47 0 .93-.14 1.3-.37 4.16-2.7 6.45-8.54 6.45-16.46 0-7.5-3.87-13.67-7.7-16.44a1.92 1.92 0 0 0-1.15-.43z"/>
    <path fill="#004C3D" d="M66.27 273.5a5.3 5.3 0 0 1-5.3-5.29v-26.75c0-2.45.73-2.93 1.96-2.93.77 0 1.8.23 3.14.7l3.78 1.3c5.06 1.72 5.27 2.15 5.27 4.95v22.73a5.3 5.3 0 0 1-5.3 5.3h-3.56z"/>
    <path fill="#6B9182" d="M62.93 239.12c.7 0 1.7.23 2.96.67l3.77 1.3c4.86 1.65 4.86 1.9 4.86 4.4v22.72c0 2.6-2.1 4.7-4.7 4.7h-3.56a4.7 4.7 0 0 1-4.7-4.7v-26.75c0-2.34.66-2.34 1.37-2.34m0-1.17c-1.93 0-2.53 1.25-2.53 3.52v26.75a5.88 5.88 0 0 0 5.87 5.88h3.56a5.87 5.87 0 0 0 5.88-5.86v-22.75c0-3.25-.6-3.78-5.67-5.5l-3.77-1.3c-1.4-.5-2.5-.74-3.34-.74z"/>
    <path opacity=".4" fill="#576D7F" d="M61.63 250.66v3.37l10.4-10.45h-3.37l-7.02 7.08zm0 5.78l12.78-12.76v-.1h-1.2l-11.59 11.56.02 1.3zm0 7.07v.55l12.77-12.8v-1.9l-12.78 12.72.02 1.44z"/>
    <path fill="#004C3D" d="M91.47 273.5a5.3 5.3 0 0 1-5.3-5.29v-22.73c0-2.8.2-3.22 5.27-4.95l3.78-1.3c1.34-.47 2.36-.7 3.14-.7 1.24 0 1.95.48 1.95 2.94v26.75a5.3 5.3 0 0 1-5.29 5.3h-3.55v-.01z"/>
    <path fill="#6B9182" d="M98.36 239.12c.7 0 1.37 0 1.37 2.34v26.75a4.7 4.7 0 0 1-4.7 4.7h-3.56a4.7 4.7 0 0 1-4.7-4.7V245.5c0-2.48 0-2.74 4.87-4.4l3.77-1.3c.95-.38 1.94-.6 2.95-.67m0-1.17c-.84 0-1.93.23-3.33.73l-3.77 1.3c-5.07 1.72-5.67 2.27-5.67 5.5v22.74a5.88 5.88 0 0 0 5.88 5.88h3.56a5.87 5.87 0 0 0 5.87-5.87v-26.76c0-2.27-.6-3.52-2.54-3.52z"/>
    <path opacity=".4" fill="#576D7F" d="M86.8 251.12v3.4l10.5-10.55h-3.4l-7.1 7.15zm0 5.83l12.9-12.9v-.09H98.5l-11.7 11.67v1.32zm0 7.15v.55l12.9-12.94v-1.92l-12.9 12.86v1.45z"/>
    <path fill="#6B9182" d="M41.45 331.06H6.63v-34.5c0-8.11 6.57-14.69 14.68-14.69h5.5c8.1 0 14.65 6.57 14.65 14.68v34.52-.01z"/>
    <path fill="#004C3D" d="M40.8 298.31v32.74H7.66V298.3a13.94 13.94 0 0 1 13.52-13.96h6.13c2.68.08 5.3.94 7.5 2.48a13.84 13.84 0 0 1 6 11.49z"/>
    <path fill="#6B9182" d="M9.8 290.86v40.2H8.66v-38c.31-.78.7-1.5 1.14-2.2zm2.5-2.96v43.15h-1.14v-42.02c.36-.4.73-.79 1.14-1.14v.01zm2.5-1.78v44.95h-1.14v-44.24c.37-.25.74-.5 1.14-.7v-.01zm2.5-1.1v46.04h-1.14v-45.6c.38-.17.75-.3 1.14-.44zm2.5-.56v46.6h-1.14v-46.4c.38-.09.75-.15 1.14-.2zm2.5-.1v46.7h-1.14v-46.7h1.15-.01zm1.36-.01h1.14v46.72h-1.15v-46.72zm3.64 0v46.7h-1.15v-46.7h1.15zm2.5.3v46.4h-1.15v-46.59c.39.05.77.11 1.15.2zm2.48.8v45.6h-1.13v-46.03c.4.13.76.27 1.15.43h-.02zm2.52 1.37v44.24h-1.14v-44.95c.4.22.77.46 1.14.71zm2.5 2.22v42.01h-1.14v-43.17c.4.36.77.75 1.14 1.15v.01zm2.48 4.01v38h-1.13v-40.2c.45.7.83 1.43 1.13 2.2zM154.13 331.06H119.3v-34.5c0-8.11 6.57-14.69 14.68-14.69h5.5c8.1 0 14.67 6.57 14.67 14.68v34.52-.01z"/>
    <path fill="#004C3D" d="M153.49 298.31v32.74h-33.16V298.3a13.92 13.92 0 0 1 13.52-13.96h6.12c2.68.08 5.3.94 7.5 2.48a13.98 13.98 0 0 1 6.02 11.49z"/>
    <path fill="#6B9182" d="M122.47 290.86v40.2h-1.13v-38c.31-.78.7-1.5 1.13-2.2zm2.5-2.96v43.15h-1.14v-42.02c.37-.4.74-.79 1.14-1.14v.01zm2.5-1.78v44.95h-1.13v-44.24c.36-.25.74-.5 1.13-.7v-.01zm2.5-1.1v46.04h-1.14v-45.6c.39-.17.75-.3 1.14-.44zm2.5-.56v46.6h-1.15v-46.4c.38-.09.76-.14 1.15-.2zm2.5-.1v46.7h-1.14v-46.7h1.14zm1.37-.01h1.14v46.72h-1.14v-46.72zm3.63 0v46.7h-1.14v-46.7h1.14zm2.5.3v46.4h-1.15v-46.59c.38.05.76.11 1.15.2zm2.5.8v45.6h-1.13v-46.03c.38.13.75.27 1.13.43zm2.5 1.37v44.24h-1.13v-44.95c.38.22.76.46 1.13.71zm2.5 2.22v42.01h-1.13v-43.17c.4.36.77.75 1.13 1.15v.01zm2.5 4.01v38h-1.13v-40.2c.44.7.81 1.43 1.13 2.2z"/>
    <g>
      <path fill="#6B9182" d="M67.53 331.06H48.9v-39.08a9.32 9.32 0 1 1 18.63 0v39.07z"/>
      <path fill="#004C3D" d="M65.3 331.06H51.13v-39a7.09 7.09 0 0 1 14.17 0v39z"/>
      <path fill="#6B9182" d="M111.86 331.06H93.22v-39.08a9.31 9.31 0 1 1 18.63 0v39.08h.02z"/>
      <path fill="#004C3D" d="M109.64 331.06H95.47v-39a7.08 7.08 0 1 1 14.16 0v39z"/>
    </g>
    <g>
      <path fill="#6B9182" d="M89.7 331.06H71.05v-39.08a9.32 9.32 0 0 1 18.63 0v39.07z"/>
      <path fill="#004C3D" d="M87.47 331.06H73.3v-39a7.09 7.09 0 0 1 14.17 0v39z"/>
    </g>
    <path fill="none" stroke="#6B9182" stroke-width="1.76" stroke-miterlimit="10" d="M16.16 238.74v33.08m33.72-30.91v29.36M24.5 238.73v33.08m43.73-31.38v32.76M9.33 248h22.01m12.97 7.28h9.93m6.95 0h13.75m18.5-14.83v32.76m-7.07-17.92h13.74"/>
    <path opacity=".4" fill="#576D7F" d="M107.52 250.5l-.01 3 6.74-6.8-1-2-5.73 5.8zm1.24 3.87l6.13-6.1-.12-.18-.28-.6-6.93 6.93 1.2-.05zm-1.23 7.99l8.4-8.45-.1-1.58-8.32 8.29.02 1.74z"/>
    <path fill="none" stroke="#6B9182" stroke-width="1.76" stroke-miterlimit="10" d="M111.02 240.9v29.36m-4.5-14.98h9.93M9.8 264.88h21.08m105.18-26.14v33.08m8.34-33.08v33.08m-14.7-6.94h21.1"/>
    <g>
      <path fill="#6B9182" d="M80.8 279.5a2.14 2.14 0 0 1-2.14-2.14v-44.64a2.14 2.14 0 0 1 4.28 0v44.64c0 1.2-.97 2.14-2.14 2.14z"/>
      <path fill="#004C3D" d="M80.8 278.23a1.3 1.3 0 0 1-1.3-1.3v-43.69a1.3 1.3 0 0 1 2.6 0v43.69c0 .71-.58 1.3-1.3 1.3z"/>
    </g>
    <path fill="none" stroke="#6B9182" stroke-width="1.76" stroke-miterlimit="10" d="M129.26 247.99h22"/>
  </g>
</svg>
