<svg xmlns="http://www.w3.org/2000/svg" xmlns:xlink="http://www.w3.org/1999/xlink" width="188" height="286" viewBox="0.15 0.1 188 286">
  <defs>
    <path id="a" d="M.15.1h188v286H.15z"/>
  </defs>
  <clipPath id="b">
    <use xlink:href="#a" overflow="visible"/>
  </clipPath>
  <g clip-path="url(#b)">
    <path fill="#D8DBE2" d="M271.46 308.96H16.71V282.1l10.24-2.91-3.11-4.71.8-7.12-7.93-10.53V132.77l30.62-8.32 3.5-7.02 8.04-5.22 15.05-4.1.3-4.72 5.02-4.81-2.6-8.23 4.21-2.8-.2-3.72 4.62-5.71 7.33 1.4 30.1-26.07 4.32-25.07 17.07-16.25h127.37v296.83z"/>
    <path fill="#BCC2CA" d="M274.37 6.82H130.44L141.68.1h125.06l1.4 2.4 2.52-.5 1.6 1.61 2 1 .11 2.2z"/>
    <path fill="#86909F" d="M266.64 12.13H144.1l-.3-5.31h122.85v5.31z"/>
    <path fill="#535B65" d="M222.58 81.33h23.79v24.27h-23.8V81.33z"/>
    <path fill="#8D94A0" d="M219.97 78.72v29.48h29V78.72h-29.1.1zm26.3 26.88h-23.7V81.33h23.7v24.27z"/>
    <path fill="#535B65" d="M125.52 81.33h42.66v45.83h-42.66V81.33z"/>
    <path fill="#8D94A0" d="M122.8 78.72v51.14h47.99V78.72H122.8zm45.38 48.44h-42.66V81.33h42.66v45.83z"/>
    <path fill="#BCBCBC" d="M177.1 106h-21.07L144 115.93l-4.02-7.33-2.2 4.42-1.21-7.02h-20.08v23.76h60.63V106z"/>
    <path fill="#535B65" d="M222.58 194.84h23.79v24.27h-23.8v-24.27z"/>
    <path fill="#8D94A0" d="M219.97 192.14v29.58h29v-29.58h-29.1.1zm26.3 26.87h-23.7v-24.17h23.7v24.17z"/>
    <path fill="#535B65" d="M47.43 193.54h23.79v24.27h-23.8v-24.27z"/>
    <path fill="#8D94A0" d="M44.72 190.83v29.59h29.1v-29.59h-29.1zm26.4 26.98h-23.7v-24.27h23.7v24.27z"/>
    <path fill="#535B65" d="M125.52 193.54h42.66v45.83h-42.66v-45.83z"/>
    <path fill="#8D94A0" d="M122.8 190.83v51.15h47.99v-51.15H122.8zm45.38 48.54h-42.66v-45.83h42.66v45.83z"/>
    <path fill="#BCBCBC" d="M116.48 218.21h60.63v23.87h-60.63V218.2z"/>
    <path fill="#535B65" d="M222.58 250.9h23.79v24.27h-23.8V250.9z"/>
    <path fill="#8D94A0" d="M219.97 248.3v29.48h29V248.3h-29.1.1zm26.3 26.87h-23.7V250.8h23.7v24.37z"/>
    <path fill="#535B65" d="M47.43 249.6h23.79v24.27h-23.8V249.6z"/>
    <path fill="#8D94A0" d="M44.72 247v29.57h29.1V247h-29.1zm26.4 26.87h-23.7V249.6h23.7v24.27z"/>
    <path fill="#535B65" d="M125.52 249.6h42.66v45.83h-42.66V249.6z"/>
    <path fill="#8D94A0" d="M122.8 247v51.14h47.99v-51.15H122.8zm45.38 48.43h-42.66V249.6h42.66v45.83z"/>
    <path fill="#BCBCBC" d="M116.48 274.27h60.63v23.86h-60.63v-23.86z"/>
    <path fill="#535B65" d="M222.58 25.27h23.79v24.27h-23.8V25.27z"/>
    <path fill="#8D94A0" d="M219.97 22.56v29.69h29V22.56h-29.1.1zm26.3 26.88h-23.7V25.27h23.7v24.17z"/>
    <path fill="#535B65" d="M125.52 71h42.66V25.27h-38.05l-3 3.11-1.61 9.23V71z"/>
    <path fill="#8D94A0" d="M131.04 24.47l-3.92 3.9-3.61 21.07-.7 4v20.27h47.98V22.56h-37.84l-1.91 2v-.1zM168.18 71h-42.66l-2.61-17.55 2.6-15.74 1.61-9.33 3.32-3.2h37.73V71z"/>
    <path fill="#BCBCBC" d="M177.1 49.84h-53.69l-.6 3.5-6.33 5.52v14.85h60.63V49.84zm51.1 108.4l-5.72-5.01-2.31 2 .7 3.61-2.91-.3-2 1.6h-6.63l5.22 3.32-.8 5.61-3.62 3.11.7 1.6-3.3 3.01 4.1-.4 2.52 4.52-.6-7.02 2.4-1.6.6 2-1.2 2.1 2.51 2.51-1.9 6.42 5.72-6.62-3.12-2 3.32-4.22-2.01-4.51 5.82-4.31"/>
    <path fill="#535B65" d="M225.8 156.14l-1.01.6-2.61 1.4.1-.2 1.2 4.71v.2l-.2.1-5.12 1.71.2-.2-1 5.62-.1.1-4.92 2.7.1-.2.5 2.71.4 2.7-.6-2.6-.6-2.7v-.1c1.7-1 3.21-2.01 4.82-2.82l-.1.1 1-5.61v-.1h.1l5.22-1.7-.2.2-1-4.72v-.1c1-.5 1.8-1 2.7-1.3l1.11-.5z"/>
    <path fill="#535B65" d="M212.54 161.55l1 .3c.4 0 .7.2 1 .3l2.12.6h-.2l3-1.9h.3l1.71 1 1.71.8.3.2-.3.1-1.3.4-1.31.3 1.2-.5 1.31-.5v.3l-1.8-.8-1.81-.8h.3l-3.01 1.8-.1.1h-.1l-2.01-.8-1-.5-1.01-.4zm5.12 5.22c-.14 1.1-.3 2.2-.5 3.3v-.1l1 1.81.9 1.8v.2l-1.8 3.32v-.3l2 2.2h.2v.2l-1.5 2.4-.7 1.21-.3.6-.2.3-.2.2.1-.2.2-.3.3-.7.6-1.2 1.2-2.5v.3l-2-2.21h-.2v-.2l1.8-3.31v.2l-.8-1.8-.8-1.91c0-.6.2-1.1.3-1.71l.4-1.6zM153.92 216l-3.51 1.8 1.2 5.02-5.62 1.6 4.12 6.33-8.44 2.5.3 2-.5 2.72-.6-2.71-.6-2.6 4.72-2.82-2.91-6.21 3.31-2.31-.2-3.2s7.83-1.72 8.73-2.12z"/>
    <path fill="#BCBCBC" d="M16.81 199.66l3.42 3.7-2.01 4.62 3.31 4.21-3.21 2.01 5.72 6.52-1.9-6.42 2.6-2.5-1.3-2.01.6-2 2.5 1.4-.6 7.11 2.42-4.4 4.21.3-3.31-3.02.6-1.5-3.61-3.2-.8-5.62 5.31-3.31h-6.72l-2-1.5-2.92.2.8-3.52-3.1-2-.11 5.71"/>
    <path fill="#535B65" d="M17.82 193.64v-.2c-.5 1.5-.7 2.7-1 4.31v.6h-.1l5.11 1.81-.1-.2 1 5.51v.1h.1l4.82 2.71v-.1c-.37 1.8-.7 3.6-1 5.42l.7-2.71.5-2.7v-.1l-4.72-2.82v.2l-1-5.61v-.2l-5.32-1.7.2.3 1-4.82-1.3-.8s-.3 1 1.1 1z"/>
    <path fill="#535B65" d="M27.55 196.95l-1 .3-1.1.3-2.11.7h.2l-3.02-2h-.3l-1.7 1c-.6.2-1.2.6-1.7.9v.2l1.3.4 1.3.3-1.3-.5-1.2-.4v.3l1.8-.9c.57-.26 1.14-.52 1.7-.8h-.2l3.02 1.9h.1l2-.8 1-.4 1.01-.5h.2zm-5.22 5.22c.14 1.1.31 2.2.5 3.3l-1 1.71-.8 1.8v.2l1.7 3.31v-.3l-2 2.21-.2.1.1.2 1.4 2.4.7 1.11.4.6.2.3c0 .1 0 .2.2.3l-.2-.3-.2-.3-.3-.6-.6-1.3-1.2-2.4v.2l2.1-2.11.1-.2v-.1l-1.8-3.32v.2l.8-1.8.9-1.8v-.1l-.4-1.71c0-.5-.2-1-.4-1.6z"/>
    <path fill="#BCBCBC" d="M271.46 231.55v-4.21l-2.31 1.6.6 2.5-2.1-.2-1.51 1.11h-4.82l3.82 2.5-.6 4.02-2.62 2.3.5 1.11-2.4 2.2 3-.3 1.82 3.31-.5-5.21 1.8-1 .4 1.4-.9 1.5 1.9 1.81-1.4 4.61 4.11-4.71-2.2-1.4 2.3-3.11-1.4-3.31 2.51-2.6"/>
    <path fill="#535B65" d="M270.66 230.95v-.1c.4 1.1.5 2 .8 3.1v.5l-3.71 1.2.1-.1-.7 4.02v.1h-.1l-3.52 2v-.1l.4 2.01.3 1.9c-.29-1.33-.55-2.66-.8-4l3.41-2.01.7-4.01v-.1l3.82-1.2v.2c-.4-1.2-.6-2.31-.8-3.52l.9-.6s.3.7-.8.7z"/>
    <path fill="#535B65" d="M263.63 233.45l.8.2.7.2 1.51.5h-.1l2.1-1.4h.21l1.3.6 1.21.7v.2l-1 .3-.9.2 1-.4.8-.3v.2l-1.3-.6-1.21-.6h.1l-2.1 1.4h-.1l-1.51-.6-.8-.3-.71-.3zm3.72 3.72l-.1 1.2-.2 1.2.7 1.3.6 1.3v.1l-1.2 2.52v-.2l1.4 1.6h.1v.2l-1 1.7-.5.9-.3.4-.1.2-.2.2.1-.2.1-.2.3-.5.4-.9.9-1.8v.2l-1.5-1.5-.1-.1v-.2l1.3-2.31v.1l-.6-1.3-.6-1.31v-.1l.2-1.2.3-1.2v-.1zM47.43 137.48H71.2v24.26H47.43V137.5z"/>
    <path fill="#8D94A0" d="M44.72 134.78v29.58h29.1v-29.58h-29.1zm26.4 26.87h-23.7v-24.17h23.7v24.17z"/>
    <path fill="#535B65" d="M222.58 137.49h23.79v24.26h-23.8V137.5z"/>
    <path fill="#8D94A0" d="M219.97 134.78v29.58h29v-29.58h-29.1.1zm26.3 26.87h-23.7v-24.17h23.7v24.17z"/>
    <defs>
      <path id="c" d="M222.58 137.38h23.79v24.27h-23.79z"/>
    </defs>
    <defs>
      <path id="e" d="M47.43 249.6h24.29v24.17H47.43z"/>
    </defs>
    <clipPath id="d">
      <use xlink:href="#c" overflow="visible"/>
    </clipPath>
    <clipPath id="f" clip-path="url(#d)">
      <use xlink:href="#e" overflow="visible"/>
    </clipPath>
    <g clip-path="url(#f)" fill="#99ADB7">
      <path d="M235.43 151.52l-2.01 5.82-6.23-1.7-1.2 4.6-3.71-1.8.5 29.89 24.69-.3-1-41.42h-5.83l-.6 5.82-4.61-.9z"/>
      <path d="M240.44 156.34c-2.3 2.7-4.71 5.41-6.92 8.22l-6.02 7.82a188.16 188.16 0 0 1-4.82 6.32v.5l.3 6.72 16.06-19.56 7.83-8.82-.2-8.12-6.22 7.02v-.1zm.7 14.84c-2.3 2.7-4.71 5.41-6.92 8.22l-6.02 7.82-4.82 6.32v.5l.3 6.72c5.3-6.56 10.66-13.08 16.06-19.55l7.83-8.83-.2-8.12-6.22 7.02v-.1zm-8.12-13.94l-5.82-1.6-1.2 4.6-3.72-1.8.2 12.84 10.64-14.04h-.1zm4.21-5.31l-1.8-.3-1.81 5 3.61-4.7z"/>
    </g>
    <g clip-path="url(#f)" fill="#99ADB7">
      <path d="M55.05 262.83l-5.82-2.1 1.71-6.22-4.72-1.3 2.11-3.51h-2.71l-.1 24.27h14.55v-5.82l-5.92-.6.9-4.72z"/>
      <path d="M48.33 261.63l-3.51 4.31.7 7.52 9.43-10.63-5.72-2.1-.8.9h-.1zm6.42 6.02l-7.42 8.92h7.02l5.72-6.41v-2.01l-5.32-.5zM49.33 254l-3-.8 1.3-2.3-2.31 1.8-.6.2v7.02l4.71-5.92h-.1z"/>
    </g>
    <g clip-path="url(#f)">
      <path fill="#BCBCBC" d="M195.98 59.87h4.62l.2 2.6h-4.82v-2.6z"/>
    </g>
    <g clip-path="url(#f)">
      <path fill="#BCBCBC" d="M196.08 69.3v3.3l5.32-.2.2-3.3-5.52.2z"/>
    </g>
    <g clip-path="url(#f)">
      <path fill="#BCBCBC" d="M207.32 63.68v3.3l5.32-.2.3-3.4-5.62.3z"/>
    </g>
    <g clip-path="url(#f)">
      <path fill="#BCBCBC" d="M40.3 243.78h-4.62l-.2-2.5h4.82v2.5z"/>
    </g>
    <g clip-path="url(#f)">
      <path fill="#BCBCBC" d="M40.3 234.36v-3.21l-5.42.2-.2 3.3 5.62-.3z"/>
    </g>
    <g clip-path="url(#f)">
      <path fill="#BCBCBC" d="M99.92 182.2h-4.61l-.2-2.7h4.81v2.7z"/>
    </g>
    <g clip-path="url(#f)">
      <path fill="#BCBCBC" d="M99.92 172.58v-3.2l-5.32.2-.3 3.4 5.62-.4z"/>
    </g>
    <g clip-path="url(#f)">
      <path fill="#BCBCBC" d="M92 189.63h-4.62l-.2-2.5h4.81v2.5z"/>
    </g>
    <g clip-path="url(#f)">
      <path fill="#BCBCBC" d="M83.56 185.62h-4.62l-.2-2.7h4.72l.1 2.7z"/>
    </g>
    <g clip-path="url(#f)">
      <path fill="#BCBCBC" d="M91.9 180.2V177l-5.33.2-.3 3.3 5.62-.3z"/>
    </g>
    <g clip-path="url(#f)">
      <path fill="#BCBCBC" d="M105.44 200.66h-4.72l-.1-2.6h4.82v2.6z"/>
    </g>
    <g clip-path="url(#f)">
      <path fill="#BCBCBC" d="M105.34 191.13v-3.2l-5.32.2-.3 3.3 5.62-.3z"/>
    </g>
    <g clip-path="url(#f)">
      <path fill="#BCBCBC" d="M96.5 197.05v-3.4l-5.31.2-.3 3.4 5.62-.2z"/>
    </g>
    <g clip-path="url(#f)">
      <path fill="#BCBCBC" d="M249.08 291.32h-4.62l-.2-2.61h4.82v2.6z"/>
    </g>
    <g clip-path="url(#f)">
      <path fill="#BCBCBC" d="M249.08 281.79v-3.21l-5.42.1-.2 3.41 5.62-.3z"/>
    </g>
    <g clip-path="url(#f)">
      <path fill="#BCBCBC" d="M237.74 287.5v-3.3l-5.32.2-.3 3.4 5.62-.3z"/>
    </g>
    <g clip-path="url(#f)">
      <defs>
        <path id="g" d="M47.43 137.49h23.79v24.27H47.43z"/>
      </defs>
      <clipPath id="h">
        <use xlink:href="#g" overflow="visible"/>
      </clipPath>
      <g clip-path="url(#h)" fill="#99ADB7">
        <path d="M58.27 159.04l2.1-5.81 6.23 1.7 1.3-4.71 3.72 1.9-.5-30.48-25.1.3 1 42.12h6.03l.5-5.92 4.72.9z"/>
        <path d="M53.15 154.13c2.4-2.7 4.81-5.41 7.02-8.32l6.03-7.92 5.01-6.42v-.5l-.3-6.82A783.75 783.75 0 0 1 54.55 144l-7.93 9.03.2 8.22 6.33-7.02v-.1zm-.7-15.04c2.4-2.7 4.81-5.52 7.02-8.33l6.02-7.92 5.02-6.42v-.5l-.3-6.82-16.36 19.86-7.93 9.03.2 8.22 6.33-7.02v-.1zm8.22 14.24l6.03 1.6 1.2-4.71 3.72 1.9-.2-13.03-10.75 14.24zm-4.21 5.41l1.8.3 1.91-5-3.71 4.7z"/>
      </g>
      <path fill="#BCBCBC" d="M124.11 141l-.1-3.71-5.42 3.4-2 1h-7.03l5.42 2.11-.8 3.51-3.72 2 .7 1.01-3.4 1.9 4.2-.2 2.01-1.7 3.12-4.01v3.1l.1 2.52 1.2 1.6.7-1.3.5-4.72v-2.8l2.31-2.41"/>
      <path fill="#535B65" d="M125.52 137.49h42.66v45.82h-42.66V137.5z"/>
      <path fill="#8D94A0" d="M122.8 134.78v51.14h47.99v-51.14H122.8zm45.38 48.43h-42.66v-45.73h42.66v45.73z"/>
      <path fill="#8D94A0" d="M137.06 137.49h4.32l-5.83 25.97h-3l4.51-25.97z"/>
      <path fill="#BCBCBC" d="M116.48 162.05h60.63v23.87h-60.63v-23.87z"/>
      <path fill="#C7CAD1" d="M10.49 308.96h267.3v16.45H10.48v-16.45z"/>
      <g>
        <path fill="#BCBCBC" d="M28.96 240.07v-3.3l-5.32.2-.3 3.4 5.62-.3z"/>
      </g>
    </g>
  </g>
</svg>
