<svg xmlns="http://www.w3.org/2000/svg" xmlns:xlink="http://www.w3.org/1999/xlink" width="1101.2" height="225.1">
  <g opacity=".4">
    <path fill="#97BAC9" d="M1097.1 214H934.6V197l6.5-1.8-2-3 .6-4.6-5-6.8v-79.2l19.5-5.3 2.2-4.5 5.1-3.3 9.6-2.6.2-3 3.2-3-1.6-5.3 2.6-1.9v-2.3l2.8-3.6 4.7.9 19.3-16.7 2.7-16 11-10.4h81.1zM1099 21h-91.8l7.1-4.2h79.8l1 1.6 1.5-.3 1 1 1.4.6zM1094 24.4H1016l-.2-3.3h78.4z"/>
    <path fill="#97BAC9" d="M1065.9 68.7h15.1v15.5h-15.1z"/>
    <path fill="#97BAC9" d="M1064.2 67v18.9h18.6v-19h-18.6zm16.9 17.2h-15.2V68.7h15.2v15.5zM1004 68.7h27.2V98H1004z"/>
    <path fill="#97BAC9" d="M1002.3 67v32.6h30.6V67h-30.6zm29 31H1004V68.6h27.2v29.2z"/>
    <path fill="#97BAC9" d="M1037 84.4h-13.5l-7.6 6.4-2.6-4.7-1.4 2.8-.9-4.5h-12.7v15.2h38.7zM1065.9 141.2h15.1v15.5h-15.1z"/>
    <path fill="#97BAC9" d="M1064.2 139.5v18.8h18.6v-18.8h-18.6zm16.9 17.1h-15.2v-15.4h15.2v15.4zM954.2 140.4h15.2v15.5h-15.2z"/>
    <path fill="#97BAC9" d="M952.5 138.7v18.8H971v-18.8h-18.5zm16.8 17.1h-15.1v-15.4h15.1v15.4zM1004 140.4h27.2v29.3H1004z"/>
    <path fill="#97BAC9" d="M1002.3 138.7v32.6h30.6v-32.6h-30.6zm29 31H1004v-29.3h27.2v29.2z"/>
    <path fill="#97BAC9" d="M998.3 156.1h38.7v15.2h-38.7zM1065.9 177h15.1v15.5h-15.1z"/>
    <path fill="#97BAC9" d="M1064.2 175.3v18.9h18.6v-19h-18.6zm16.9 17.2h-15.2V177h15.2v15.5zM954.2 176.2h15.2v15.5h-15.2z"/>
    <path fill="#97BAC9" d="M952.5 174.5v18.9H971v-19h-18.5zm16.8 17.2h-15.1v-15.5h15.1v15.5zM1004 176.2h27.2v29.3H1004z"/>
    <path fill="#97BAC9" d="M1002.3 174.5V207h30.6v-32.6h-30.6zm29 31H1004v-29.3h27.2v29.2z"/>
    <path fill="#97BAC9" d="M998.3 191.9h38.7v15.2h-38.7zM1065.9 32.9h15.1v15.5h-15.1z"/>
    <path fill="#97BAC9" d="M1064.2 31.2V50h18.6V31.2h-18.6zm16.9 17.1h-15.2V33h15.2v15.4zM1004 62.1h27.2V33H1007l-2 2-1 5.8z"/>
    <path fill="#97BAC9" d="M1007.6 32.4l-2.5 2.4-2.3 13.6-.5 2.5v13h30.6V31.1h-24.1l-1.2 1.2zm23.6 29.7H1004l-1.7-11.2 1.7-10 1-6 2.2-2h24V62z"/>
    <path fill="#97BAC9" d="M1037 48.6h-34.3l-.4 2.2-4 3.5v9.5h38.7zM1069.6 117.8l-3.7-3.2-1.5 1.3.5 2.3-1.9-.2-1.2 1h-4.3l3.3 2.1-.4 3.6-2.4 2 .5 1-2.2 2 2.7-.3 1.6 2.9-.4-4.6 1.6-1 .3 1.4-.8 1.3 1.7 1.6-1.2 4 3.6-4.1-2-1.3 2-2.7-1.2-2.9 3.7-2.8"/>
    <path fill="#97BAC9" d="M1068 116.5l-.7.4-1.6.8.8 3v.1l-3.4 1.1.1-.1-.6 3.6-3.1 1.8v-.1l.3 1.7c0 .6.2 1.1.3 1.7l-.4-1.7-.4-1.7v-.1l3-1.8v.1l.6-3.6h.1l3.3-1.1v.1l-.7-3v-.1l1.7-.8.7-.3z"/>
    <path fill="#97BAC9" d="M1059.5 120l.7.1.7.2 1.3.4h-.1a79 79 0 0 1 1.9-1.2h.1l1.1.6c.4.1.8.4 1.1.6h.3l-.3.1-.8.3-.8.2.8-.3.8-.4v.2l-1.2-.5-1.1-.5h.2l-2 1.2-1.4-.5-.6-.3-.7-.3zM1062.8 123.2a47.8 47.8 0 0 1-.3 2.2v-.1l.6 1.1.6 1.2v.1l-1.1 2.1v-.1l1.3 1.4v.1l-.8 1.6-.5.7-.2.4-.2.2-.1.1.1-.1.1-.2.2-.4.4-.8.8-1.6v.1l-1.4-1.3v-.2l1.1-2.1v.1l-.5-1.1-.5-1.2a31.3 31.3 0 0 1 .4-2.2zM1022.1 154.7l-2.2 1.2.8 3.1-3.6 1 2.6 4.1-5.3 1.6.2 1.3-.4 1.7-.4-1.7a84 84 0 0 1-.4-1.7l3-1.8-1.8-4 2-1.4v-2l5.5-1.4zM934.6 144.3l2.3 2.3-1.3 3 2 2.7-2 1.2 3.7 4.2-1.2-4 1.6-1.7-.8-1.3.4-1.3 1.6 1-.4 4.5 1.5-2.9 2.7.3-2.1-2 .4-1-2.3-2-.5-3.5 3.4-2.2h-4.3l-1.3-1-1.9.2.5-2.2-2-1.4v3.7"/>
    <path fill="#97BAC9" d="M935.3 140.4v-.1l-.7 2.7v.4l3.3 1.2-.1-.2.7 3.6v.1l3 1.7v-.1a94 94 0 0 0-.2 1.7l-.3 1.7a122 122 0 0 0 .7-3.4l-3-1.8-.6-3.5v-.1l-3.4-1.1v.2l.8-3v-.2l-.9-.4s-.2.6.7.6z"/>
    <path fill="#97BAC9" d="M941.5 142.5l-.7.2-.6.2-1.4.4h.2a77 77 0 0 0-2-1.2l-1.2.6-1 .6-.1.1.8.3.9.2-.8-.3-.8-.3v.2l1.1-.6 1.2-.5h-.2l2 1.2 1.3-.5.7-.3.6-.3zM938.2 145.9l.2 1 .1 1-.6 1.2-.6 1.1v.2l1.2 2v-.1l-1.4 1.4v.1l.9 1.6.5.7.2.4.1.2.2.2-.2-.2v-.2l-.3-.4-.4-.8-.7-1.6v.2l1.3-1.4h.1v-.2l-1.2-2 .6-1.1.5-1.2a27.4 27.4 0 0 0-.5-2.1zM1097.2 164.6V162l-1.5 1 .3 1.6-1.3-.2-1 .8h-3l2.4 1.5-.3 2.6-1.7 1.5.3.7-1.6 1.4 2-.2 1.1 2-.3-3.2 1.2-.7.2 1-.5 1 1.2 1-1 3 2.7-3-1.4-1 1.5-1.9-1-2.1 1.6-1.7"/>
    <path fill="#97BAC9" d="M1096.7 164.2l.5 2v.2l-2.4.9v-.1l-.4 2.6-2.3 1.3v-.1l.2 1.3.2 1.2a67 67 0 0 1-.5-2.5l2.2-1.3.4-2.6h.1l2.4-.8v.1l-.5-2.2.5-.4s.2.5-.4.4z"/>
    <path fill="#97BAC9" d="M1092.2 165.8l.5.2.4.1 1 .3 1.3-.9h.1l.8.4.8.5-.6.3-.6.1.6-.2.5-.2-.8-.3-.8-.4h.1l-1.4.9-1-.4-.5-.2-.4-.2zM1094.5 168.2v.8l-.2.8.5.8.4.8-.8 1.6v-.1l1 1v.1l-.7 1.1-.3.6-.2.3-.2.2.1-.1v-.2l.2-.3.3-.5.6-1.2v.1l-1-1 .8-1.6-.4-.8-.4-.8.2-.8.1-.8zM954.2 104.5h15.2V120h-15.2z"/>
    <path fill="#97BAC9" d="M952.5 102.8v19H971v-19h-18.5zm16.8 17.2h-15.1v-15.5h15.1V120zM1065.9 104.5h15.1V120h-15.1z"/>
    <path fill="#97BAC9" d="M1064.2 102.8v19h18.6v-19h-18.6zm16.9 17.2h-15.2v-15.5h15.2V120z"/>
    <defs>
      <path id="a" d="M1065.9 104.5h15.2V120h-15.2z"/>
    </defs>
    <use xlink:href="#a" overflow="visible" fill="#97BAC9"/>
    <clipPath id="b">
      <use xlink:href="#a" overflow="visible"/>
    </clipPath>
    <g clip-path="url(#b)" fill="#97BAC9">
      <path d="M1074.2 113.6l-1.4 3.6-3.9-1-.8 2.9-2.3-1.2.3 19.1 15.8-.1-.7-26.5h-3.7l-.4 3.7z"/>
      <path d="M1077.4 116.6l-4.4 5.3-3.8 5-3.2 4v.3l.2 4.3 10.3-12.5 5-5.6-.2-5.2-4 4.4zM1077.8 126.1l-4.4 5.2-3.8 5c-1 1.4-2 2.7-3.2 4v.3l.3 4.3 10.2-12.4 5-5.7-.1-5.2-4 4.5zM1072.7 117.2l-3.8-1-.8 2.9-2.3-1.2.1 8.2 6.8-9zM1075.3 113.8l-1.1-.2-1.2 3.1 2.3-3z"/>
    </g>
    <defs>
      <path id="c" d="M954.2 176.2h15.5v15.5h-15.5z"/>
    </defs>
    <use xlink:href="#c" overflow="visible" fill="#97BAC9"/>
    <clipPath id="d">
      <use xlink:href="#c" overflow="visible"/>
    </clipPath>
    <g clip-path="url(#d)" fill="#97BAC9">
      <path d="M959 184.6l-3.6-1.3 1-4-3-.8 1.4-2.3H953v15.5h9.3V188l-3.8-.4z"/>
      <path d="M954.8 183.8l-2.3 2.8.5 4.8 6-6.8-3.6-1.4-.6.6zM958.9 187.7l-4.8 5.7h4.6l3.6-4.1V188l-3.4-.3zM955.5 179l-2-.6.8-1.4-1.4 1.1-.4.2v4.4l3-3.7z"/>
    </g>
    <g>
      <path fill="#97BAC9" d="M1049 55h3v1.7h-3z"/>
    </g>
    <g>
      <path fill="#97BAC9" d="M1049 61v2.1h3.4l.2-2.3z"/>
    </g>
    <g>
      <path fill="#97BAC9" d="M1056.3 57.4v2.1l3.3-.1.2-2.2z"/>
    </g>
    <g>
      <path fill="#97BAC9" d="M949.7 172.5h-3l-.1-1.7h3z"/>
    </g>
    <g>
      <path fill="#97BAC9" d="M949.6 166.4v-2h-3.4l-.1 2.2z"/>
    </g>
    <g>
      <path fill="#97BAC9" d="M988 133.4h-3v-1.7h3z"/>
    </g>
    <g>
      <path fill="#97BAC9" d="M988 127.3v-2h-3.4l-.2 2.2z"/>
    </g>
    <g>
      <path fill="#97BAC9" d="M983 138.2h-3l-.1-1.6h3z"/>
    </g>
    <g>
      <path fill="#97BAC9" d="M977.6 135.6h-3l-.1-1.7h3z"/>
    </g>
    <g>
      <path fill="#97BAC9" d="M983 132.2V130l-3.5.1-.2 2.2z"/>
    </g>
    <g>
      <path fill="#97BAC9" d="M991.5 145.2h-3v-1.7h3z"/>
    </g>
    <g>
      <path fill="#97BAC9" d="M991.5 139.1v-2H988l-.2 2.2z"/>
    </g>
    <g>
      <path fill="#97BAC9" d="M985.9 142.9v-2h-3.4l-.2 2.2z"/>
    </g>
    <g>
      <path fill="#97BAC9" d="M1082.9 202.8h-3l-.1-1.7h3z"/>
    </g>
    <g>
      <path fill="#97BAC9" d="M1082.8 196.7v-2h-3.4l-.1 2.2z"/>
    </g>
    <g>
      <path fill="#97BAC9" d="M1075.6 200.3v-2h-3.4l-.2 2.2z"/>
    </g>
    <g>
      <defs>
        <path id="e" d="M954.2 104.5h15.2V120h-15.2z"/>
      </defs>
      <use xlink:href="#e" overflow="visible" fill="#97BAC9"/>
      <clipPath id="f">
        <use xlink:href="#e" overflow="visible"/>
      </clipPath>
      <g clip-path="url(#f)" fill="#97BAC9">
        <path d="M961.1 118.3l1.4-3.7 4 1.1.8-3 2.3 1.2-.3-19.4-16 .1.6 27h3.9l.3-3.8z"/>
        <path d="M957.9 115.2l4.5-5.3 3.8-5c1-1.5 2.1-2.8 3.2-4.2v-.3l-.2-4.3-10.4 12.6-5.1 5.8.1 5.3 4-4.6zM957.4 105.6l4.5-5.3 3.9-5.1c1-1.4 2-2.8 3.2-4v-.4l-.2-4.4-10.5 12.7c-1.6 2-3.3 3.8-5 5.7l.1 5.3 4-4.5zM962.6 114.7l3.8 1 .9-3 2.3 1.2v-8.3l-7 9zM960 118.1l1.1.2 1.2-3.2-2.3 3z"/>
      </g>
    </g>
    <g>
      <path fill="#97BAC9" d="M1003.1 106.8v-2.3l-3.5 2.1-1.3.6H994l3.5 1.4-.5 2.2-2.4 1.3.4.7-2.1 1.2 2.7-.2 1.2-1 2-2.6v2l.1 1.6.8 1 .4-.8.3-3v-1.8l1.5-1.6"/>
    </g>
    <g>
      <path fill="#97BAC9" d="M1004 104.5h27.2v29.3H1004z"/>
      <path fill="#97BAC9" d="M1002.3 102.8v32.7h30.6v-32.7h-30.6zm29 31H1004v-29.3h27.2v29.3z"/>
      <path fill="#97BAC9" d="M1011.4 104.6h2.8l-3.8 16h-1.8z"/>
      <path fill="#97BAC9" d="M998.3 120.3h38.7v15.2h-38.7z"/>
    </g>
    <path fill="#97BAC9" d="M930.6 214.1h170.6v10.5H930.6z"/>
  </g>
  <path fill="#8BBFCD" d="M731.2 213.8h152.9v-16.2l-6.2-1.7 2-2.8-.6-4.3 4.8-6.4V108l-18.4-5-2.1-4.2-4.8-3-9-2.6-.2-2.8-3-2.9 1.5-5-2.5-1.6.1-2.3-2.7-3.4-4.5.9-18-15.7-2.6-15-10.3-9.8h-76.4z"/>
  <path fill="#84B3C3" d="M729.5 32.3h86.3l-6.7-4h-75l-1 1.5-1.4-.4-1 1-1.2.6zM734 35.4h73.6l.2-3.1h-73.7z"/>
  <path fill="#8BBFCD" d="M746.3 77h14.3v14.6h-14.3z"/>
  <path fill="#84B3C3" d="M744.7 75.4v17.8h17.5V75.4h-17.5zm1.6 1.6h14.3v14.6h-14.3V77z"/>
  <path fill="#8BBFCD" d="M793.2 77h25.6v27.5h-25.6z"/>
  <path fill="#84B3C3" d="M791.6 75.4v30.8h28.8V75.4h-28.8zm1.6 1.6h25.6v27.6h-25.6V77z"/>
  <path fill="#84B3C3" d="M787.8 91.8h12.7l7.2 6 2.4-4.4 1.3 2.7.8-4.3h12v14.4h-36.4z"/>
  <path fill="#8BBFCD" d="M746.3 145.2h14.3v14.6h-14.3z"/>
  <path fill="#84B3C3" d="M744.7 143.6v17.8h17.5v-17.8h-17.5zm1.6 1.6h14.3v14.6h-14.3v-14.6z"/>
  <path fill="#8BBFCD" d="M851.4 144.5h14.3v14.6h-14.3z"/>
  <path fill="#84B3C3" d="M849.8 142.9v17.7h17.5V143h-17.5zm1.6 1.6h14.3V159h-14.3v-14.5z"/>
  <path fill="#8BBFCD" d="M793.2 144.5h25.6V172h-25.6z"/>
  <path fill="#84B3C3" d="M791.6 142.9v30.7h28.8v-30.7h-28.8zm1.6 1.6h25.6V172h-25.6v-27.5z"/>
  <path fill="#84B3C3" d="M787.8 159.3h36.4v14.3h-36.4z"/>
  <path fill="#8BBFCD" d="M746.3 178.9h14.3v14.6h-14.3z"/>
  <path fill="#84B3C3" d="M744.7 177.3v17.8h17.5v-17.8h-17.5zm1.6 1.6h14.3v14.6h-14.3v-14.6z"/>
  <path fill="#8BBFCD" d="M851.4 178.2h14.3v14.6h-14.3z"/>
  <path fill="#84B3C3" d="M849.8 176.6v17.7h17.5v-17.7h-17.5zm1.6 1.6h14.3v14.5h-14.3v-14.5z"/>
  <path fill="#8BBFCD" d="M793.2 178.2h25.6v27.5h-25.6z"/>
  <path fill="#84B3C3" d="M791.6 176.6v30.7h28.8v-30.7h-28.8zm1.6 1.6h25.6v27.5h-25.6v-27.5z"/>
  <path fill="#84B3C3" d="M787.8 193h36.4v14.3h-36.4z"/>
  <path fill="#8BBFCD" d="M746.3 43.3h14.3v14.6h-14.3z"/>
  <path fill="#84B3C3" d="M744.7 41.7v17.8h17.5V41.7h-17.5zm1.6 1.6h14.3V58h-14.3V43.3z"/>
  <path fill="#8BBFCD" d="M818.8 70.9h-25.6V43.3H816v.1l1.8 1.8 1 5.6z"/>
  <path fill="#84B3C3" d="M814.3 41.7h-22.7v30.8h28.8V60.3L820 58l-2.2-12.7-2.3-2.3-1.2-1.2zm-21.1 1.6h22.6l2 2 1 5.5 1.6 9.5-1.6 10.6h-25.6V43.3z"/>
  <path fill="#84B3C3" d="M787.8 58.1h32.3l.3 2.2 3.8 3.2v9h-36.4zM758.7 126.5l3.5 2.6-1.2 2.7 2 2.6-2 1.2 3.5 3.9-1.2-3.8 1.6-1.5-.8-1.3.4-1.2 1.5.9-.4 4.3 1.5-2.7 2.5.2-2-1.8.4-1-2.2-1.9-.4-3.3 3.1-2h-4l-1.2-1-1.8.2.5-2.1-1.4-1.3-3.5 3"/>
  <path fill="#8BBFCD" d="M758.6 122l.6.4 1.6.8v-.1l-.8 2.8v.1l3.2 1.1h-.1l.6 3.3 3 1.6a101.6 101.6 0 0 0-.6 3.2l.3-1.6.4-1.6v-.1l-2.9-1.7v.1l-.5-3.3v-.1h-.1l-3.1-1 .7-2.8-1.6-.8-.7-.3z"/>
  <path fill="#8BBFCD" d="M766.6 125.2l-.7.2-.6.2-1.2.4-1.7-1.2h-.1l-1 .6-1.1.5-.2.1.2.1.8.2.8.2-.8-.3-.7-.3v.2l1-.5 1-.5 1.7 1.1h.1l1.3-.4.6-.3.6-.3zM763.5 128.4l.1 1 .2 1v-.1l-.6 1-.5 1.2 1 2v-.1l-1.2 1.3v.2l.8 1.4.4.7.2.4.1.1.2.2-.1-.2-.1-.2-.2-.3-.4-.8-.7-1.5v.2l1.3-1.3v-.2l-1-2v.2l.4-1.1.5-1.1-.2-1-.2-1zM801.8 158l2 1-.7 3 3.4 1-2.5 3.8 5 1.5-.1 1.2.3 1.7.4-1.7.3-1.6-2.8-1.6 1.7-3.8-2-1.3.2-2s-4.7-1-5.2-1.3z"/>
  <path fill="#84B3C3" d="M884 145v-3.5l-1.8 1.3.4 2H881l-1.2.9h-4l3.1 2-.4 3.3-2.2 2 .4.9-2 1.8 2.5-.2 1.5 2.6-.4-4.2 1.5-1 .3 1.3-.7 1.3 1.5 1.5-1.1 3.8 3.4-4-1.9-1.1 2-2.6-1.2-2.7 2-2.2"/>
  <path fill="#8BBFCD" d="M883.4 144.5v-.1l.7 2.6v.3l-3.1 1.1v-.1l-.5 3.3v.1h-.1l-2.9 1.6c.2.5.3 1 .3 1.6l.3 1.6a100 100 0 0 1-.7-3.2v-.1l2.9-1.7-.1.1.6-3.4h.1l3.1-1-.7-2.8.8-.5s.2.6-.7.6z"/>
  <path fill="#8BBFCD" d="M877.6 146.5l.6.2.7.2 1.2.4h-.1l1.8-1.2h.1l1 .6 1.1.5v.1l-.8.3-.8.2.8-.3.7-.3v.2l-1-.5-1.1-.5h.1l-1.8 1.1-1.3-.5-.6-.2-.6-.3zM880.7 149.7l-.1 1-.2 1v-.1l.6 1 .5 1.1v.1l-1 2v-.1l1.2 1.3v.1l-.8 1.5-.4.7-.2.4-.2.1v0l.1-.2.2-.3.4-.8.7-1.5v.2l-1.3-1.3v-.2l1-2v.2l-.5-1.1-.4-1.1v-.1c0-.3 0-.7.2-1l.2-1z"/>
  <path fill="#84B3C3" d="M731.2 169.6l1.5 1.6-.9 2 1.5 1.9-1.4.8 2.5 2.9-.9-2.8 1.2-1.1-.6-1 .3-.8 1 .7-.2 3 1-2 1.9.3-1.5-1.3.3-.7-1.6-1.4-.3-2.4 2.3-1.5h-3l-.8-.7-1.3.1.4-1.5-1.4-1v2.6"/>
  <path fill="#84B3C3" d="M731.7 167v-.1l-.5 1.8v.3l2.2.8v-.1l.4 2.4v.1l2.1 1.2v-.1l-.2 1.2-.2 1.1.3-1.1.2-1.2-2-1.3v.1l-.4-2.4v-.1h-.1l-2.3-.8.1.2.5-2.1-.6-.4s-.2.4.5.4z"/>
  <path fill="#84B3C3" d="M735.9 168.4l-.5.1-.4.2-1 .3h.2l-1.3-.9h-.1l-.8.4-.7.4v.1l.5.2.6.1-.6-.2-.5-.2v.1c.3 0 .5-.2.8-.3l.7-.4 1.2.8h.1l1-.3.4-.2.4-.2zM733.6 170.7l.1.7.1.7-.4.8-.3.7v.1l.7 1.5v-.1l-.9 1 .6 1 .3.6.2.2v.2h.1l-.1-.2-.1-.2-.3-.6-.5-1 .9-.9v-.1l-.8-1.5v.1l.4-.8.4-.8-.2-.7-.1-.7z"/>
  <path fill="#8BBFCD" d="M851.4 110.8h14.3v14.6h-14.3z"/>
  <path fill="#84B3C3" d="M849.8 109.2v17.7h17.5v-17.7h-17.5zm1.6 1.6h14.3v14.5h-14.3v-14.5z"/>
  <path fill="#8BBFCD" d="M746.3 110.8h14.3v14.6h-14.3z"/>
  <path fill="#84B3C3" d="M744.7 109.2v17.7h17.5v-17.7h-17.5zm1.6 1.6h14.3v14.5h-14.3v-14.5z"/>
  <defs>
    <path id="g" d="M746.3 110.7h14.3v14.6h-14.3z"/>
  </defs>
  <clipPath id="h">
    <use xlink:href="#g" overflow="visible"/>
  </clipPath>
  <g clip-path="url(#h)">
    <path fill="#84B3C3" d="M752.8 119.3l1.3 3.4 3.6-1 .8 2.7 2.2-1-.3 18-14.8-.2.6-25h3.5l.3 3.6z"/>
    <path fill="#84B3C3" d="M749.8 122.1l4.2 5 3.5 4.6 3 3.8v.3l-.2 4a938 938 0 0 0-9.7-11.6c-1.5-1.8-3-3.6-4.7-5.4l.2-4.9 3.7 4.2z"/>
    <path fill="#99ADB7" d="M749.4 131a131 131 0 0 1 4.1 5 111.7 111.7 0 0 0 6.5 8.5v.2l-.1 4-9.7-11.6-4.7-5.4.2-4.9 3.7 4.2z"/>
    <path fill="#84B3C3" d="M754.2 122.6l3.5-1 .8 2.8 2.2-1-.1 7.7-6.4-8.5zM751.8 119.5l1-.2 1.1 3-2.1-2.8z"/>
  </g>
  <defs>
    <path id="i" d="M851.1 178.2h14.6v14.5h-14.6z"/>
  </defs>
  <clipPath id="j">
    <use xlink:href="#i" overflow="visible"/>
  </clipPath>
  <g clip-path="url(#j)" fill="#84B3C3">
    <path d="M861.1 186.1l3.5-1.3-1-3.7 2.8-.8-1.3-2.1h1.7v14.6h-8.7v-3.5l3.5-.4z"/>
    <path d="M865 185.3l2.3 2.7-.5 4.5-5.6-6.4 3.4-1.3.5.5zM861.3 189l4.4 5.3h-4.2l-3.4-3.8v-1.2l3.2-.3zM864.5 180.8l1.9-.5-.9-1.4 1.4 1 .4.2v4.2l-2.8-3.5z"/>
  </g>
  <g>
    <path fill="#84B3C3" d="M776.5 64.2h-2.8l-.1 1.5h2.9z"/>
  </g>
  <g>
    <path fill="#84B3C3" d="M776.5 69.9v2l-3.2-.2-.2-2z"/>
  </g>
  <g>
    <path fill="#84B3C3" d="M769.7 66.4v2l-3.2-.1-.2-2z"/>
  </g>
  <g>
    <path fill="#84B3C3" d="M870 174.7h2.7l.1-1.6H870z"/>
  </g>
  <g>
    <path fill="#84B3C3" d="M870 169v-2l3.2.1.1 2z"/>
  </g>
  <g>
    <path fill="#84B3C3" d="M833.8 138h2.8l.1-1.7h-2.9z"/>
  </g>
  <g>
    <path fill="#84B3C3" d="M833.9 132.2v-2l3.2.2.1 2z"/>
  </g>
  <g>
    <path fill="#84B3C3" d="M838.6 142.5h2.8l.1-1.6h-2.9z"/>
  </g>
  <g>
    <path fill="#84B3C3" d="M843.7 140h2.8v-1.6h-2.8z"/>
  </g>
  <g>
    <path fill="#84B3C3" d="M838.7 136.8v-2l3.2.1.1 2z"/>
  </g>
  <g>
    <path fill="#84B3C3" d="M830.6 149h2.7l.2-1.6h-3z"/>
  </g>
  <g>
    <path fill="#84B3C3" d="M830.6 143.3v-2l3.2.2.2 2z"/>
  </g>
  <g>
    <path fill="#84B3C3" d="M835.9 146.8v-2l3.2.2.1 2z"/>
  </g>
  <g>
    <path fill="#84B3C3" d="M744.6 203.2h2.8l.1-1.6h-2.9z"/>
  </g>
  <g>
    <path fill="#84B3C3" d="M744.7 197.5v-2l3.2.1.1 2z"/>
  </g>
  <g>
    <path fill="#84B3C3" d="M751.5 200.9v-2l3.2.1.1 2z"/>
  </g>
  <g>
    <defs>
      <path id="k" d="M851.4 110.8h14.3v14.6h-14.3z"/>
    </defs>
    <clipPath id="l">
      <use xlink:href="#k" overflow="visible"/>
    </clipPath>
    <g clip-path="url(#l)">
      <path fill="#84B3C3" d="M859.1 123.7l-1.2-3.4-3.8 1-.7-2.8-2.3 1 .3-18.2 15 .2-.5 25.3h-3.6l-.3-3.6z"/>
      <path fill="#84B3C3" d="M862.2 120.8l-4.2-5-3.6-4.8-3-3.8v-.3l.1-4.1 9.9 11.9 4.7 5.4-.1 5a479 479 0 0 1-3.8-4.3zM862.6 111.7l-4.2-5-3.6-4.7-3-3.9v-.3l.2-4a925 925 0 0 0 9.8 11.8l4.8 5.4-.2 5-3.8-4.3zM857.7 120.3l-3.6 1-.7-2.8-2.3 1 .2-7.8a457 457 0 0 0 6.4 8.6z"/>
      <path fill="#8BBFCD" d="M860.2 123.5l-1 .2-1.2-3 2.2 2.8z"/>
    </g>
  </g>
  <g>
    <path fill="#84B3C3" d="M820.9 113.7l1.4 1.4v1.7l.3 2.8.4.8.7-1V116l2 2.5 1.1 1 2.6.1-2-1.1.4-.6-2.3-1.2-.4-2.1 3.2-1.3h-4.1l-1.3-.6-3.2-2v2.2"/>
  </g>
  <g>
    <path fill="#8BBFCD" d="M793.2 110.8h25.6v27.5h-25.6z"/>
    <path fill="#84B3C3" d="M791.6 109.2v30.7h28.8v-30.7h-28.8zm1.6 1.6h25.6v27.5h-25.6v-27.5z"/>
    <path fill="#84B3C3" d="M811.9 110.8h-2.7l3.6 15.1h1.7z"/>
    <path fill="#84B3C3" d="M787.8 125.6h36.4v14.3h-36.4z"/>
  </g>
  <path fill="#84B3C3" d="M727.4 213.8h160.4v9.9H727.4z"/>
  <g opacity=".4" fill="#97BAC9">
    <path d="M80.3 74.4v-5.8h-3.5a9.2 9.2 0 0 0-9.6-8.8H15.8c-5 0-9.2 3.4-9.6 8.8H0v5.8h5v31.2H0v5.9h5v32.4H0v5.9h5v32H0v5.8h5v37.5h72v-37.5h3.3v-5.8H77v-32h3.3v-5.9H77v-32.4h3.3v-5.9H77V74.4h3.3z"/>
    <path d="M42.2 199.8c0-4 2.8-7.3 6.1-7.3s6.2 3.2 6.2 7.3v24.8H42.2v-24.8zM9 160.5a6 6 0 0 1 12 0V181H9v-20.4zM25.9 160.5a6 6 0 0 1 12 0V181h-12v-20.4zM42.2 160.5a6.1 6.1 0 1 1 12.3 0V181H42.2v-20.4zM14.8 192.5c-3.3 0-6 2-6 4.3V212.2h12v-15.3c0-2.5-2.7-4.4-6-4.4zM32.3 192.5c-3.3 0-6 2-6 4.3V212.2h12v-15.3c0-2.5-2.7-4.4-6-4.4zM71.6 211.3v-14.5c0-2.4-2.5-4.3-5.8-4.3s-5.9 2-5.9 4.3V212.2h11.7v-1zM60 160.5c0-3.3 2.3-6 5.6-6s5.7 2.7 5.7 6V181H60v-20.4zM9 122.8a6 6 0 0 1 12 0V143H9v-20.3zM25.9 122.8a6 6 0 0 1 12 0V143h-12v-20.3zM42.2 122.8a6.1 6.1 0 1 1 12.3 0V143H42.2v-20.3zM60 122.8c0-3.3 2.3-6 5.6-6s5.7 2.7 5.7 6V143H60v-20.3zM9 84.9a6 6 0 0 1 12 0v20H9v-20zM25.9 84.9a6 6 0 0 1 12 0v20h-12v-20zM42.2 84.9a6.1 6.1 0 1 1 12.3 0v20H42.2v-20zM60 84.9c0-3.3 2.3-6 5.6-6s5.7 2.7 5.7 6v20H60v-20z"/>
  </g>
  <g>
    <path fill="#8BBFCD" d="M283.2 19.8V12h-4.9c-.5-7.4-6.1-11.9-13-11.9h-70c-7 0-12.6 4.5-13 12h-8.5v7.8h6.8v42.6h-6.8v8h6.8v44.1h-6.8v8h6.8V166h-6.8v8h6.8v51h98v-51h4.6v-8h-4.5v-43.6h4.5v-8h-4.5V70.3h4.5v-8h-4.5V19.9h4.5z"/>
    <path fill="#84B3C3" d="M231.2 190.6c0-5.5 3.9-10 8.4-10s8.4 4.5 8.4 10v33.8h-16.8v-33.8zM186 137.1a8.2 8.2 0 0 1 16.4 0v27.7H186v-27.7zM209 137.1a8.2 8.2 0 0 1 16.4 0v27.7H209v-27.7zM231.2 137.1c0-4.4 3.9-8 8.4-8s8.4 3.6 8.4 8v27.7h-16.8v-27.7z"/>
    <g fill="#84B3C3">
      <path d="M193.9 180.6c-4.5 0-8.2 2.7-8.2 6V207.5H202V186.6c0-3.3-3.7-6-8.2-6zM217.7 180.6c-4.5 0-8.2 2.7-8.2 6V207.5h16.4V186.6c0-3.3-3.7-6-8.2-6zM271.3 206.3v-19.7c0-3.3-3.5-6-8-6-4.4 0-7.9 2.7-7.9 6V207.5h15.9v-1.2z"/>
    </g>
    <path fill="#84B3C3" d="M255.4 137.1c0-4.4 3.3-8 7.7-8s7.8 3.6 7.8 8v27.7h-15.5v-27.7zM186 85.7a8.2 8.2 0 0 1 16.4 0v27.7H186V85.7zM209 85.7a8.2 8.2 0 0 1 16.4 0v27.7H209V85.7zM231.2 85.7c0-4.5 3.9-8.1 8.4-8.1s8.4 3.6 8.4 8.1v27.7h-16.8V85.7zM255.4 85.7c0-4.5 3.3-8.1 7.7-8.1s7.8 3.6 7.8 8.1v27.7h-15.5V85.7zM186 34.1a8.2 8.2 0 0 1 16.4 0v27.2H186V34zM209 34.1a8.2 8.2 0 0 1 16.4 0v27.2H209V34zM231.2 34.1c0-4.5 3.9-8.1 8.4-8.1s8.4 3.6 8.4 8.1v27.2h-16.8V34zM255.4 34.1c0-4.5 3.3-8.1 7.7-8.1s7.8 3.6 7.8 8.1v27.2h-15.5V34z"/>
  </g>
</svg>
