<svg xmlns="http://www.w3.org/2000/svg" width="1920" height="139">
  <ellipse fill="#643C08" cx="1145.63" cy="38.88" rx="12.82" ry="10.89"/>
  <path fill="#9A7540" d="M1183.05 35.38c0 9.46-9.03 17.13-20.17 17.13-11.13 0-20.16-7.67-20.16-17.13 0-9.46 9.03-17.12 20.16-17.12 11.14 0 20.17 7.67 20.17 17.12z"/>
  <ellipse fill="#9A7540" cx="1144.34" cy="38.67" rx="8.89" ry="7.55"/>
  <path fill="#9A7540" d="M1161.55 40.03c0 4.17-3.98 7.55-8.9 7.55-4.9 0-8.88-3.38-8.88-7.55s3.98-7.55 8.89-7.55c4.9 0 8.89 3.38 8.89 7.55z"/>
  <path fill="#643C08" d="M1226.84 49.42c-1.2 0-2.36.18-3.45.47-2.12-5.06-7.8-8.67-14.48-8.67-8.49 0-15.37 5.81-15.37 13.02 0 .73.07 1.5.2 2.09h44.17c-1.46-3.87-5.86-6.9-11.07-6.9z"/>
  <ellipse fill="#643C08" cx="1435.91" cy="36.76" rx="14.81" ry="12.58"/>
  <ellipse fill="#9A7540" cx="1455.84" cy="32.72" rx="23.29" ry="19.79"/>
  <ellipse fill="#9A7540" cx="1434.42" cy="36.52" rx="10.27" ry="8.72"/>
  <ellipse fill="#9A7540" cx="1444.03" cy="38.09" rx="10.27" ry="8.72"/>
  <ellipse fill="#4A8215" cx="399.36" cy="25.91" rx="22.05" ry="18.73"/>
  <ellipse fill="#39630D" cx="469.1" cy="34.42" rx="22.05" ry="18.73"/>
  <ellipse fill="#39630D" cx="440.61" cy="24.87" rx="29.28" ry="24.88"/>
  <path fill="#A58E7A" d="M0 39.82h1920v56.7H0z"/>
  <ellipse fill="#4A8215" cx="659.02" cy="34.84" rx="10.54" ry="8.95"/>
  <ellipse fill="#4A8215" cx="673.76" cy="24.64" rx="10.54" ry="8.95"/>
  <ellipse fill="#4A8215" cx="678.3" cy="32.57" rx="10.54" ry="8.95"/>
  <path fill="#4A8215" d="M547.08 31.34c0 3.49-3.32 6.3-7.42 6.3s-7.42-2.81-7.42-6.3c0-3.47 3.33-6.3 7.42-6.3s7.42 2.83 7.42 6.3z"/>
  <ellipse fill="#4A8215" cx="801.34" cy="34.84" rx="10.54" ry="8.95"/>
  <ellipse fill="#4A8215" cx="808.71" cy="25.77" rx="10.54" ry="8.95"/>
  <g>
    <ellipse fill="#4A8215" cx="938.17" cy="25.91" rx="22.05" ry="18.73"/>
    <ellipse fill="#39630D" cx="1007.91" cy="34.42" rx="22.05" ry="18.73"/>
    <ellipse fill="#39630D" cx="979.42" cy="24.87" rx="29.29" ry="24.88"/>
  </g>
  <path fill="#58A514" d="M0 35h1920v20.98H0z"/>
  <path fill="#FFF" d="M0 96.37h1920v43H0z"/>
</svg>
