<svg xmlns="http://www.w3.org/2000/svg" width="221" height="98" viewBox="0.86 0.27 221 98">
  <path fill="#7C3929" d="M65.96 47.47c1.24-1.19 2.6.09 2.76-.23.13-.22-.75-.93-1.4-.97-.64-.03-1.6 1.43-1.36 1.2z"/>
  <path fill="#CC926A" d="M61.87 47.47l2.02.5s1.71-1.89 2.08-1.94c.37-.06 3.43 0 3.12.41-.31.43-2.12-.1-2.4.2-.3.3-1.46 1.6-1.25 1.78s2.15-.3 1.88.24c-.28.53-1.33.3-1.68.55s-1.43.64-1.85.4c-.42-.24-1.99-.46-1.99-.46l.07-1.7v.02z"/>
  <path fill="#F4AA78" d="M57.38 25.62s.45-.32.31-.56c-.14-.23-.16-.6-.16-.6s.64.1.84-.29c.1-.18-.45-.83-.46-2.25 0-.26.04-.55.08-.85 0 0 0-.92-.7-1.36-.7-.29-1.46-.43-2.23-.4l-1.95 2.52s-.2.93-.44.91c-.03 0-.27-.77-.3-.76 0 0-1.09-.9-1.18.44-.06.94.32 1.15.55 1.2-.18.16-.33.35-.46.57-.19.32-.28 1.2-.32 1.56l.11.15c1.3 1.65-.57 3.7-.57 3.7l3.47 2.63 2.25-.06s-1.52-1.8-1.67-2.04c-.34-.52-.25-3.47.26-3.14.6.38 1.6.55 2 .38.56-.26.47-1.14.47-1.14.33-.1.1-.6.1-.6z"/>
  <path fill="#AB0300" d="M59.28 51.3l-1.55-2.43-8.41.8"/>
  <path fill="#1F7F71" d="M50.56 29.36s-4.48 1.9-2.7 11.64c0 0 1.65 5.18.28 11.13 0 0 8.03.4 8.66.28 0 0 2.04.41 2.41-.7 0 0-.08-.05.36-.1 0 0-.52-1.66-.26-5.7l.98-5.47s.52-1.9-4.71-9.14c0 0-2.88.34-5.01-1.95h-.01z"/>
  <ellipse fill="#0E3A32" cx="59.94" cy="40.23" rx=".23" ry=".36"/>
  <ellipse fill="#0E3A32" cx="59.34" cy="43.09" rx=".27" ry=".36"/>
  <ellipse fill="#0E3A32" cx="58.97" cy="46.26" rx=".22" ry=".36"/>
  <ellipse fill="#0E3A32" cx="58.67" cy="49.45" rx=".23" ry=".36"/>
  <path fill="#14564B" d="M48.26 32.72s-.53 9.14 1.02 12.14c0 0 .77 2.1 1.8 2.54 1.85.8 11.82 2.52 12.07 2.7l-.06-2.75-7.93-1.86L54.12 44s.3-10.72-1.31-12.4c0 0-3.05-2.34-4.55 1.1z"/>
  <path fill="#68310C" d="M57.49 20.2s.92.15.61-1.55c0 0-.97-2.98-3.63-2.7 0 0-3.85.48-4.4 3.37 0 0-4.07 6.34 1.85 7.93 0 0 .9-2.98.6-3.34-.2-.24-.23-1.3.64-1.32 0 0 .4-1.2.9-2 0 0 1.12.56.92-.4 0 0 .16-.67.6-.7 0 0 1.43.59 1.9.7h.01z"/>
  <path opacity=".2" d="M51.92 19.66c1.3 1.19 3.75 2.3 6.01 2.92-.06-.97.04-1.52.04-1.52s-5.55-2.87-5.7-2.29c-.15.6-.35.9-.35.9z"/>
  <path fill="#281C15" d="M56.26 21.82c.25-.22.88-.22 1.08.07.04.05-.02.13-.08.13-.17 0-.34-.1-.52-.13-.15-.03-.3-.03-.46-.02-.03 0-.04-.04-.02-.05z"/>
  <path fill="#1F7F71" d="M65.04 23.86c.53-1.24-5.7-6.08-9.05-7.52-3.35-1.44-11.35-.37-11.89.86-.53 1.24 6.08 1.86 10.47 3.36 4.4 1.5 9.94 4.54 10.47 3.3zM53.37 14.2s2.75-.91 6.44 2.35c0 0-2.74 1.2-6.44-2.35z"/>
  <path fill="#14564B" d="M53.36 14.19l-.9 1.55s1.2 2.7 6.68 2.89l.67-2.08s-3.73-.17-6.46-2.36h.01z"/>
  <path fill="#FFF" d="M52.68 15.32s-.5.8-.64 1.06c0 0 3.06 2.8 7 2.7l.35-1.29s-3.97.06-6.7-2.47h-.01z"/>
  <path opacity=".2" fill="#472107" d="M57.34 26.12s-.35-.03-.5-.18c0 0 .07.35.5.32v-.14z"/>
  <path fill="#E01B22" d="M57.51 25.32l-.16-.05c-.14-.04-.9.02-.9.02s.28.87.91.82c.1-.03.21-.07.1-.4 0 0 .03-.1.13-.2l.08-.12c.03-.09 0-.1 0-.1l-.16.03z"/>
  <path fill="#3F0300" d="M56.55 25.36s.81.33 1.05.14c-.09.1-.17.23-.12.3-.58 0-.93-.45-.93-.45z"/>
  <path opacity=".3" fill="#472107" d="M57.53 24.46s-.2-.03-.43-.1c0 0 .12.27.44.3v-.2h-.01z"/>
  <path opacity=".1" fill="#472107" d="M53.36 25.96c.08 1.77 1.08 3.74 1 3.16-.1-.58.04-2.24.4-2.15-.4-.22-.84-.6-1.4-1z"/>
  <path fill="#281C15" d="M56.97 22.71c-.04.23-.18.4-.3.4-.13-.03-.2-.24-.16-.48.04-.24.18-.42.31-.4.13.02.2.24.15.47v.02z"/>
  <circle fill="#917912" cx="51.02" cy="29.8" r=".45"/>
  <circle fill="#917912" cx="50.71" cy="29.5" r=".45"/>
  <circle fill="#917912" cx="51.62" cy="30.11" r=".45"/>
  <circle fill="#917912" cx="52.22" cy="30.41" r=".45"/>
  <circle fill="#917912" cx="52.82" cy="30.7" r=".45"/>
  <circle fill="#917912" cx="53.42" cy="31" r=".45"/>
  <circle fill="#917912" cx="54.03" cy="31.32" r=".45"/>
  <circle fill="#917912" cx="54.63" cy="31.32" r=".45"/>
  <circle fill="#917912" cx="55.23" cy="31.32" r=".45"/>
  <g>
    <path fill="#771B0E" d="M104 56.97c.14 3.52-.12 3.68-.6 3.27-.43-.35-.82-1.1-2.29-1.1H90.26c-1.22 0-2.21-1.1-2.21-2.3 0-1.23.99-2.34 2.2-2.34h11.54c1.22 0 2.2 1.24 2.2 2.46h.01z"/>
    <path fill="#230108" d="M88.14 30.07s-1.77 1.66-1.91 3.7c-.15 2.02 3.4 3.7 3.4 3.7l.56 6.25 6.4 6.18s1.34-1.86 1.54-1.67 2.75 0 2.75 0l-1.32-2.97-.15-6.85s-1.12-2.7-1.6-3.26c-.5-.55-1.5.04-1.5.04l-1.74-.46-3.7-2.46-2.72-2.23-.01.03z"/>
    <path fill="#F4AA78" d="M93.8 31.16c-.06-.44.36-.85.3-1.3-.05-.39-.17-.54-.17-.85 0-.56.02-.42.28-.37 1.52.34 1.9-.67 1.92-1 .03-.32-.08-.73-.08-.73.28-.22-.05-.44-.05-.44s.36-.24.23-.44c-.14-.2-.14-.56-.14-.56s.7.24.85-.1c.07-.17-.35-1.03-.62-2.08-.16-.65.06-1.55-.3-2.3-.3 0-.74-.08-1.08-.07-.91.02-2.06.37-2.13 1.22-.14 1.51-.97 1.71-1.35 2.03 0 0-.4-.65-.9-.4-.6.3.18 1.91.18 1.91l-.77 1.53c.22.97.1 2.4 0 3.17 1.27.28 2.55.54 3.83.78z"/>
    <path fill="#3F0300" d="M95.1 26.36s.86-.1 1.13-.33a.94.94 0 0 1-.23.44c-.73.05-.9-.1-.9-.1z"/>
    <path fill="#51471C" d="M90.74 25.7s-.78-1.62-.18-1.91c.5-.26.9.39.9.39.38-.32 1.21-.52 1.35-2.03.07-.85 1.22-1.2 2.13-1.22.34 0 .77.06 1.09.07.53.03.72-.12-.48-1.13-.47-.4-3.6-2.01-6.29.23-1.25 1.04-1.03 3.3-.67 4.52.32.93.8 1.8 1.38 2.6l.77-1.52z"/>
    <path fill="#51471C" d="M88.42 21.54h.04c.27-.09.28.16.27.28-.02.28.4.58 0 .82-.27.17-.1.92-.12 1.12-.02.7.32 1.28.58 1.9.66-.1 1.08-.43 1.07-1.16 0-.15.03-.3.04-.47.05-.5.4-.9.8-.88.37.02.57.36.54.93a4.2 4.2 0 0 0 .36 2c.12.27.27.32.54.21a.75.75 0 0 0 .3-1.16c-.16-.2-.36-.36-.54-.54-.25-.26-.27-.75.01-.84.45-.15.37-.56.57-.83v-.15l-.07-.05c-.22.16-.33.41-.48.62-.1.16-.2.17-.35.07-.16-.1-.16-.2-.05-.35l.2-.3c.05-.07.12-.16.04-.25-.07-.08-.17-.02-.25 0-.2.08-.42.18-.64.23-.27.07-.5-.1-.5-.36-.09-.14-.46.03-.35-.32l-.2.03c-.26.01-.5.38-.72.16-.16-.18-.14-.52-.2-.79-.06-.18 0-.26.18-.3.5-.14 1-.3 1.51-.43.34-.08.65-.37 1.03-.17l.16-.03c.35-.13.72-.2 1.1-.18l.4-.02c.2-.16.48-.02.7-.13-.25-1.14-.47-2.3-.65-3.46-.03-.2 0-.43-.24-.52.1.4-.1.48-.47.5-1.46.08-1.83.21-3.24.65-.26.08-.53.25-.9.15.48-.3.97-.44 1.43-.63-.04-.23-.24.04-.3-.1l-.16.04c-.03.1-.1.1-.19.09l-.96.4c-.16.16-.33.33-.2.6.18.37.31.77.36 1.19.12.19-.44.37-.43.59.16.6-.18 1.25-.02 1.84zM96.22 25.41s-.45-.18-.78.32-.5.91-.73.72c-.22-.2-.2-.56-.03-.58 0 0-.6.12-.52.69.08.56.74.52.99.34.25-.2.3-.6.91-.48.47.1.6-.77.16-1z"/>
    <g fill="#040505">
      <path d="M97.64 21.55s-4.73-.36-6.08-.18c-1.35.18-3.94 1.22-5.03 1.13-1.1-.09-2.02-.4.43-.96 2.44-.56 5.99-1.6 9.78-1.29 2.16.18 2.03 1.43.9 1.3z"/>
      <path d="M95.78 20.84l.18-7.38s.33-.77-1.24-.87c-1.57-.1-5.6.1-7.2.74 0 0-.57.24-.2 1.14.36.89.73 6.56.7 7-.02.46 7.77-.62 7.77-.62h-.01z"/>
    </g>
    <path opacity=".7" fill="#8F949A" d="M91.88 12.88l-1.49.22c-.6.15-1.98.3-2.6.59.41.18.77.02 1.1-.03 1.8-.28 4.34-.24 6.13-.07.43.05.7-.01.66-.52l-1.13-.12c-.89-.13-1.78-.1-2.67-.06zm3.82 6.33s-1.4-.3-6.33.55c0 0-.5.07-.48.4l.06.6s.02.34.6.25c.58-.1 4.66-.97 6.2-.8l-.05-1z"/>
    <path fill="#BDBEBC" d="M92.98 19.27s.12 1.02.12 1.13l.7-.1-.17-1.1-.65.07z"/>
    <path fill="#FFF" d="M94.21 19.16s.13.98.13 1.08l.7-.05s-.05-.58-.13-1.03h-.7zM93.03 29.89s-1.14-.7-1.95-.75c-.81-.06-1.27-.75-1.27-.75s-.38-.08-.88.52 3.13 3.63 3.13 3.63L94 33.57l1-.78-1.97-2.9z"/>
    <path fill="#3D3D3D" d="M88.92 28.91s2.45 2.53 3.37 3c.93.48 5.15 3.78 5.04 5.32 0 0-1.9-1.3-3.55-1.96-1-.4-1.94-.9-2.82-1.52l-.1-1.48-.96.7-2.52-2.18 1.55-1.88z"/>
    <path fill="#3D3D3D" d="M96.14 32.06s1.32.32 1.42 1.01c.11.7.23 3.55.23 3.55l-1.06-.79-1.14-1.26.2-1.5.35-1.02v.02z"/>
    <path fill="#4D667F" d="M93.03 30.23s.5-.67.97-.57c.46.09.7-.58 1.31-.12.61.47.35 1.54.35 1.54s.76 1.24.7 2-.34 1.67-.57 1.67l-2.1-1.85s0-1.7-.66-2.67z"/>
    <path fill="#9B5612" d="M108.07 46.06s1.36-.76 2.21-.24c.86.53 2.08.7 2 1.37-.07.67-.56 1.67-1.33 1.74-.77.07-.96.52-1.37 0-.4-.52-.74-.7-.74-.7s-1.33-.57-1.9-.58c-.58-.02.6-1.36 1.13-1.6v.02z"/>
    <path fill="#230108" d="M97.8 35.56s2.56 2.16 2.89 3.16c.34 1 1.23 2.6 1.78 2.77.56.19.74.1.67.69-.07.57 2.04 1.94 2.66 2.17.63.22 3.04 1.38 3.04 1.38s-1.52 0-2.4 3.4c0 0-3.82-1.9-4.41-2.57-.6-.66-2.48-1.3-2.48-1.3s-.7-1.65-.52-2.72c.19-1.08 0-4.96-.33-5.74-.34-.78-.9-1.22-.9-1.22v-.02zm2.42 21.05s-2.9.5-4.23 0-4.13-1-4.13-1l-2.23.43s-.92-.7-1.08-2.03c-.16-1.33-.6-3.05-.34-5.22 0 0 .18-2.5.46-2.52.27-.04 4.74 1.6 4.74 1.6l2.75.92 2.6 3.2.65.27.8 4.36h.01z"/>
    <path fill="#230108" d="M97.8 47.16c1.39-.56-5.6-3.97-5.6-3.97s-.03-.37-.05-1.02c-.07-2.14-1.12-6.85-2.33-8-.76-.58-3.27-1.75-3.7-.93 0 .56-.84 2.12-.38 4.92.7 4.13 2.17 6.34 2.56 8.1.1.43 1.12 1.15 1.55 1.11l6.5 4.17s.03-3.8 1.44-4.37zm4.64 5.12l2.38 2.6s2.95 3.5 3 3.9c.06.38.22.44-.28.77-.5.35-2 1.78-2 2.6 0 .85-1.46-3.37-2.17-4.37s-2.99-3.83-2.93-5.5c.05-1.67 1.38-1.22 1.38-1.22l.62 1.22z"/>
    <path fill="#9B5612" d="M97.8 47.87s.92.26 1.28.2c.36-.05 2.22.2 2.64.58.41.4 1.83 1.25 1.63 1.64-.2.39-.8.17-.8.17s.91.4.14 1.1c-.78.68-.9.26-1.47.76-.59.5-1.53.57-2.09 0l-2.44-2.47s.14-1.3 1.1-1.97v-.02z"/>
    <path fill="#110B0A" d="M95.8 23.86c-.03.23-.13.42-.24.41-.1 0-.2-.2-.18-.44.02-.23.12-.42.23-.4.11 0 .2.2.18.43z"/>
    <path fill="#51471C" d="M94.75 22.96c.24-.3.97-.42 1.25-.12.06.06 0 .15-.06.16-.2.03-.41-.06-.62-.05-.19 0-.37 0-.54.06-.03 0-.05-.03-.03-.05z"/>
    <path opacity=".5" fill="#472107" d="M95.9 26.93s-.3.1-.6-.14c0 0 .1.44.62.3 0 0 0-.1-.02-.16z"/>
    <path opacity=".15" d="M90.84 27.5s3.23 2.12 3.11 1.77c-.07-.23-.05-.64.02-.72-.7-.14-1.4-.5-3.13-1.06z"/>
    <ellipse opacity=".15" cx="110.07" cy="92.64" rx="109.21" ry="5.15"/>
    <path fill="#444" d="M194.25 30.45s1.01.2 1.53-1.12c.53-1.33.93-4.78.93-4.78s.38-4.26-3.24-4.39c-3.77-.13-3.87 2.8-3.87 4.42 0 2.35.83 5.49.83 5.49h.95c.94 0 2.87.38 2.87.38z"/>
    <path fill="#5B5959" d="M193.49 30.32s.85.17 1.29-.94c.44-1.11.78-4.03.78-4.03s.32-3.57-2.73-3.69c-3.17-.1-3.25 2.36-3.25 3.73 0 1.97.7 4.6.7 4.6h.79c.79 0 2.42.33 2.42.33z"/>
    <path fill="#7C5116" d="M204.97 64.37h5.67v7.94h-5.67v-7.94zm-193.92 0h6.24v7.94h-6.24v-7.94z"/>
    <path fill="#FBAF41" d="M115.38 36.6v-6.8h81.31c1.36 0 2.04.7 2.04 1.85v26.53c0 1.16-5.13-1.26-6.49-1.26l-28.54 8.74-39.63-1.2c-1.36 0-2.5 6.72-2.5 6.72H66.52L48.71 55.66l-15.9 1.12-3.76 14.4H13.89v-34.6h101.5v.02z"/>
    <path opacity=".17" fill="#7C5116" d="M145.16 29.78h51.53c1.36 0 2.04.72 2.04 1.87v26.53c0 1.16-5.13-1.26-6.49-1.26l-28.54 8.74-39.63-1.2c-1.36 0-2.5 6.72-2.5 6.72H66.52L48.71 55.66l-15.9 1.12-3.76 14.4H13.89l47.23-5.3 84.05-36.1h-.01z"/>
    <path fill="#7C5116" d="M66.62 64.37h106.6v7.94H66.62v-7.94z"/>
    <path fill="#272322" d="M112.46 9.72h6.5v26.83h-6.5V9.73zm-36.28 0h6.5v26.83h-6.5V9.73z"/>
    <path fill="#272322" d="M13.74 9.72h109.93s1.47.2 1.54-1.26c.07-1.47 0-5.03 0-5.03s.14-1.75-2.03-1.6c-2.16.14-13.34 1.67-16.7 1.67C103.13 3.5 80.16.57 75.7.36c-4.47-.2-52.23 0-52.23 0s-9.72 1.13-9.72 9.38v-.02zm4.14 24.6h94.58v2.22H17.88v-2.23z"/>
    <path fill="#272322" d="M13.84 8.71h23.74v27.84H13.84V8.73zm196.24 65.1c0 .7.57 1.25 1.26 1.25h8.98c.7 0 1.26-.56 1.26-1.25v-9.75c0-.7-.56-1.26-1.26-1.26h-8.98c-.69 0-1.25.57-1.25 1.27v9.75zM2.68 73.8c0 .7.56 1.26 1.25 1.26h8.98c.7 0 1.26-.57 1.26-1.26v-9.75c0-.7-.56-1.26-1.26-1.26H3.93c-.7 0-1.26.57-1.26 1.26v9.75z"/>
    <path fill="#444" d="M194.76 37.34a5.04 5.04 0 1 0 10.1 0 5.04 5.04 0 0 0-10.11 0h.01z"/>
    <path fill="#5B5959" d="M196.46 40.72a4.42 4.42 0 1 0 4.45-7.66l-1.9-1.13a4.42 4.42 0 1 0-4.45 7.65l1.9 1.12v.02z"/>
    <g fill="none" stroke="#5B5959" stroke-miterlimit="10">
      <path stroke-width=".58" d="M189.22 72.2V58.81"/>
      <path stroke-width=".65" d="M189.3 72.17l-3.37-12.59m3.37 12.6l-6.5-11.29m6.5 11.28l-9.2-9.2m9.2 9.2l-11.28-6.5m11.28 6.5l-12.59-3.37m12.6 3.38h-13.04m13.03 0l-12.59 3.37m12.6-3.38l-11.29 6.52m11.28-6.52l-9.2 9.22m9.2-9.22l-6.5 11.3m6.5-11.3l-3.37 12.6m3.37-12.6l.01 13.04m0-13.03l3.37 12.58m-3.38-12.59l6.52 11.3m-6.52-11.3l9.22 9.22m-9.22-9.22l11.3 6.52m-11.3-6.52l12.6 3.37m-12.92-3.04l13.68-.64m-13.59.71l13.05-4.17m-12.93 4.22l11.52-7.4m-11.4 7.42l9.21-10.14m-9.1 10.12l6.28-12.18m-6.16 12.13l2.91-13.38"/>
    </g>
    <path fill="#272322" d="M189.52 53.95a18.34 18.34 0 1 0 0 36.67 18.34 18.34 0 0 0 0-36.68zm0 31.6a13.27 13.27 0 1 1 0-26.53 13.27 13.27 0 0 1 0 26.54z"/>
    <circle fill="#272322" cx="189.52" cy="72.28" r="4.69"/>
    <path fill="none" stroke="#5B5959" stroke-width=".65" stroke-miterlimit="10" d="M202.65 72.28a13.11 13.11 0 1 1-26.23 0 13.11 13.11 0 0 1 26.23 0z"/>
    <g fill="none" stroke="#5B5959" stroke-miterlimit="10">
      <path stroke-width=".58" d="M44.02 72.2V58.81"/>
      <path stroke-width=".65" d="M44.1 72.17l-3.37-12.59m3.37 12.6l-6.52-11.29m6.52 11.28l-9.22-9.2m9.22 9.2l-11.29-6.5m11.29 6.5L31.51 68.8m12.59 3.38H31.07m13.03 0l-12.59 3.37m12.59-3.38L32.81 78.7m11.29-6.52l-9.22 9.22m9.22-9.22l-6.51 11.3m6.51-11.3l-3.37 12.6m3.37-12.6v13.04m0-13.03l3.38 12.58M44.1 72.17l6.52 11.3m-6.52-11.3l9.22 9.22m-9.22-9.22l11.29 6.52M44.1 72.17l12.59 3.37M43.77 72.5l13.69-.64m-13.59.71l13.05-4.17m-12.94 4.22l11.53-7.4M44.1 72.63l9.21-10.14m-9.09 10.12l6.28-12.18m-6.17 12.13l2.91-13.38"/>
    </g>
    <path fill="#272322" d="M44.32 53.95a18.34 18.34 0 1 0 0 36.67 18.34 18.34 0 0 0 0-36.68zm0 31.6a13.27 13.27 0 1 1 0-26.54 13.27 13.27 0 0 1 0 26.55z"/>
    <circle fill="#272322" cx="44.31" cy="72.28" r="4.69"/>
    <path fill="none" stroke="#5B5959" stroke-width=".65" stroke-miterlimit="10" d="M57.44 72.28a13.11 13.11 0 1 1-26.22 0 13.11 13.11 0 0 1 26.22 0z"/>
    <path fill="#353535" d="M75.47 36.55h.98v27.93h-.98V36.54z"/>
    <path opacity=".3" d="M111.48 36.55h.98v27.93h-.98V36.54z"/>
    <path fill="#C67C01" d="M25.76 74.7l-12.46.04s-2.65-.88-2.15-4.13c.37-2.42 7.28-30.22 37.82-26.12 20.92 2.8 23.5 26.58 23.5 26.58l79.97.1c5.87 0 7.24.74 11.22-7.83 5.76-12.43 25.32-29.75 51.25-7.05l-2.3 4.15s-1.53 3.26-3.88 2.06c-2.36-1.2-22.1-20.53-36.65 3-5.54 8.96-7.16 9.14-15.97 9.14-5.8 0-87.7.22-87.7.22s-3.37.18-5.46-2c-1.76-1.84.38-14.62-14.75-18.3-9.15-2.25-22.17 3.2-22.44 20.14z"/>
    <path fill="#272322" d="M107.89 35.87a1.23 1.23 0 1 1-2.03-1.4l2.73-3.76a1.23 1.23 0 1 1 2.03 1.4l-2.73 3.73v.02zm-3.87 5.41a2.2 2.2 0 0 1-2.2 2.2h-5.66a2.2 2.2 0 0 1 0-4.4h5.64a2.2 2.2 0 0 1 2.21 2.2h.01zm-34.07 0a2.2 2.2 0 0 1-2.2 2.2H62.1a2.2 2.2 0 0 1 0-4.4h5.65c1.22 0 2.2.98 2.2 2.2h.01z"/>
  </g>
</svg>
