<svg xmlns="http://www.w3.org/2000/svg" xmlns:xlink="http://www.w3.org/1999/xlink" width="215.1" height="84.4">
  <ellipse opacity=".1" cx="52.1" cy="81.2" rx="52.1" ry="3.3"/>
  <ellipse opacity=".1" cx="161.8" cy="81.2" rx="41.7" ry="3.3"/>
  <path fill="#D87227" d="M16.9 25.8L14 28s-2.3 1-1.3 2.8l-.1.9-.1 1s1.3 2 3.4 1.6l.2-.6s.7.2 1.2 0c.2 0 .2-.4.3-.8l.2-.7.1-.6s.6.2.6-.3c0-.3-.5-1-.5-1.8 0 0 .2-.6.1-1 0-.2.5-.9.2-1.2l-1.5-1.5z"/>
  <path fill="#60040F" d="M12.6 31.7s-.5.3-1 0-.6-1-.6-1.1c0-.2-.7-.5-.7-1 0-.7-.4-1-.4-1.4a5 5 0 0 1 3.4-4.3s.7-1.5 1.3-1.5c.5 0 .7-.2 1 .4.1.5 1 .9 1 1.1 0 .3.1-1.1.8-1.1.7 0 2 1.6 1.4 2-.5.4-.7.3-1.2.2-.5 0 .9 1 .9 1.7v.8L17 25.9s-4 2.5-4 3.3c0 .8.1 2.4-.4 2.5z"/>
  <path fill="#1E6762" d="M12.6 32.7l-.6 1s2 1.8 3.5 2.1l2 .5s-.4-1.5-1.2-2.2c0 0-2 .3-3.7-1.4zm5.5 2.1s1.5-1.1 2.1-.8c1.2.6 1.3 2 1.8 2.3.5.4.3.8.6.9l1.1 1.4.4.7 1.5 1.2 2.2 2.3v2l-5-5.1-2.5-1.9-1.5-1.5-.7-1.5z"/>
  <path fill="#1E6762" d="M16.5 34.8s2-.6 2.7.4c.6 1 .5 3.3.5 3.3L17.4 37s0-1.6-1-2.3z"/>
  <path fill="#60040F" d="M11.3 33.2l-1 1.4a5 5 0 0 0 4 2.3c3 .2.8-.7.8-.7s-3.4-2.2-3.8-3z"/>
  <path fill="#60040F" d="M10.8 34.6s-1.5-.5-1.6 0c0 .4-1.8 2.2-1.8 3.4a103.6 103.6 0 0 0 14.3 2l-3.4-2-6.3-2.2-1.2-1.2z"/>
  <path fill="#1E6762" d="M18.1 35.5c-2.8-1.3-6.8-2-6.8-2v2.2L22 42l7.7 11.5 4.6 7.6 5.6 2 6-.6-4-8-6.3-5.7-5.3-4.2L26 40l-2.7-.5s-2.4-2.8-5.2-4z"/>
  <path fill="#1E6762" d="M45.3 58.1s-1.4.8-1.7 1.5c-.4.6-4-.8-4-.8l-3-6.2-6.2-6-.9-1.5 2.4-.6 7.4 6.6 4.3 3.8 1.7 3.2z"/>
  <path fill="#1A756C" d="M44.4 60.5s1.2-3.1 6-1.7c2.9.7-2.7-4.2-2.7-4.2s-2.4-2.7-3.5-3.2c-3.6-1.5-8.5-6.8-14-7.4-1 0-4.2-4-4.2-4s.9 3.1 3.5 4.6c.6.3 2.9 2.4 3.4 2.7a77 77 0 0 1 8.6 8.7l3 4.5z"/>
  <path fill="#393A35" d="M14.4 20.8c.3 0 .6.1.8.3.4.2.5.6.6 1l.6 2.4c-1.7-.4-3.6-.5-5.4-.2.2-.6.1-1.1.1-1.7 0-.6.2-1.2.6-1.5a2 2 0 0 1 1-.3h1.7z"/>
  <path fill="#A7695E" d="M11.1 23.3v1c1.7-.3 3.6-.2 5.3.2l-.3-1.2a8.5 8.5 0 0 0-5 0z"/>
  <path fill="#393A35" d="M23.7 27c-.1-.4-.6-.9-1-1a15.7 15.7 0 0 0-7.4-1.7c-2.6 0-5.2.7-7.7 1.5.9 1.5 2.8 2.2 4.3 2.6 2.2.8 4.6 1 7 .8 1 0 5.4-.5 4.8-2.3z"/>
  <path fill="#40413C" d="M11.1 23.7c-1 1-2.2 1.4-3.5 2 1.7.8 3.6.8 5.5.5 1.8-.2 3.6-.6 5.4-.7 1.9 0 4.6 0 5.2 1.6-.2-1-1.7-1.8-2.9-2.3l-3.4-1c-.5-.2-.9-.4-1.3-.4l-1 .2c-1.3.4-4 .1-4 .1z"/>
  <path fill="#A7695E" d="M22 25.4c-1-.4-2-.5-3-.5-1.8.1-3.5.6-5.4.8-1.9.2-3.8.5-5.5-.1l-.5.2c1.7.7 3.6.7 5.5.4 1.8-.2 3.6-.6 5.4-.7 1.9 0 4.6 0 5.2 1.6-.1-.7-.8-1.3-1.7-1.7z"/>
  <path fill="#393A35" d="M13.3 24.4l.4.2a33.7 33.7 0 0 0 6 .3c0-.1 0-.2-.2-.3-1.3-.7-2.7-1-4.2-1-.6 0-1.2 0-1.7.4-.2 0-.4.2-.3.4z"/>
  <path fill="#2A2A2D" d="M15.4 24.6v-.2l.1-.7v-1a11.8 11.8 0 0 0 0-1.9l-.1-.5v-.1l-.1-.2-.1-.2-.1-.2v-.1H15c-.3-.6-.6-.8-.5-.9h.3a2.5 2.5 0 0 1 .3.2l.1.1.2.2h.1v.2h.2v.2l.2.3v.1l.1.1a3.7 3.7 0 0 1 .3 1.4l-.1 1.3c0 .4-.2.8-.3 1l-.3.7-.2.2z"/>
  <path fill="#2A2A2D" d="M14.5 18.6v.1l.1.2h.1v.2a4.5 4.5 0 0 1 .9 3v.5l-.1 1v.7A25.2 25.2 0 0 0 16 22a5.5 5.5 0 0 0-.1-1.2 4.2 4.2 0 0 0-.7-1.5l-.5-.5v-.1h-.1v-.1z"/>
  <path fill="#2A2A2D" d="M16.3 21.1v-.4l-.2.1h-.2.2v-.2c0-.3 0-.5-.2-.7l-.1.1-.1.1V19.8l.1-.1-.2-.3a2.6 2.6 0 0 0-.6-.6l-.3-.1h-.2v.1l.1.1.1.2.5.8h.2v.1h-.1l.1.6a2.8 2.8 0 0 1 .4.3h-.3v.4a3.7 3.7 0 0 1 .5.2l.3-.3z"/>
  <path fill="#2A2A2D" d="M15.5 24.6V24.3l.2-.6a13 13 0 0 0 .2-2.2V20.7l-.1-.2-.1-.2V20l-.1-.1-.1-.1v-.1l-.1-.1v-.1l-.1-.1-.5-.5-.1-.2.1.2a3 3 0 0 1 .6.6v.2h.1v.1l.1.2.1.1v.2l.1.2v.3l.2.7a6.5 6.5 0 0 1-.3 2.2l-.2.6v.2z"/>
  <path fill="#A7695E" d="M16.1 24.2V24l-.1-.1v-.2l-.2-.4V22.4c0-.4 0-.8.2-1.2a5 5 0 0 1 .8-1.3l.2-.2.1-.1.2-.2.3-.2a2.2 2.2 0 0 1 .3 0h.3v.2l-.1.1-.1.1-.2.3-.1.2-.1.1v.1h-.1v.1l-.1.2a9.9 9.9 0 0 0-.9 2v.4h-.1v.2l-.1.2v.3l-.1.1v.4z"/>
  <path fill="#A7695E" d="M18.2 19.1h-.5v.1l-.4.2-.2.2-.1.1-.4.4-.6 1a4 4 0 0 0-.3 1.3v.7l.1.2v.2l.1.2c.1 0 0 0 0 .1l.1.2.1.2v-1.8l.1-.3v-.2l.1-.2v-.1l.2-.2.5-1v-.2h.2V20l.2-.1v-.1h.1l.1-.2.2-.1v-.1h.1v-.1l.3-.2z"/>
  <path fill="#A7695E" d="M17 21.4l.1-.4h-.3a6.3 6.3 0 0 0 .3 0l.2-.3.2-.3H17l.3-.1h.2l.6-.8c0-.2.1-.3 0-.4h-.3l-.2.1-.1.1h-.1l-.2.2-.1.1-.2.1a8.5 8.5 0 0 0 .1.4l-.2-.2-.2.2v.1l-.1.2v.2l.2.2-.2-.1-.2-.2v.2l-.1.1v.1a5 5 0 0 0 .3.5h.5z"/>
  <path fill="#A7695E" d="M16.1 24.1v-1.9l.1-.2v-.1l.1-.1.1-.3v-.1l.1-.2.1-.2.1-.1v-.1l.2-.3.1-.2h.1V20l.2-.2.1-.2h.2v-.2c.2 0 .2-.1.3-.2h.1v-.1l-.1.2-.2.1-.1.1-.1.2-.1.1-.2.2-.1.2c-.1 0 0 0 0 0l-.1.2-.2.2v.1l-.1.1v.1l-.1.2-.1.2-.1.3v.1l-.1.1v.2l-.1.2v.1l-.1.5V24z"/>
  <path fill="#A7695E" d="M16 24.4V24h.1v-.2c.2 0 .3-.2.4-.3a2.2 2.2 0 0 1 1-.4h1.3l1.2.4.9.4.7.6h-1l-.9-.2-1-.2H18.1l-.3-.1h-1.1a1.9 1.9 0 0 0-.5.1v.1H16l-.1.1z"/>
  <path fill="#A7695E" d="M21.6 24.5c0-.1-.2-.4-.7-.6a6.4 6.4 0 0 0-2.1-.8h-1.3l-1 .4-.3.3v.1H16v.2l-.1.2v-.1h.1l.1-.2a1.5 1.5 0 0 1 .1 0l.2-.2h.2c.2-.2.6-.2 1-.3l1 .1a8.1 8.1 0 0 1 2 .6l.6.2.3.1z"/>
  <path fill="#A7695E" d="M18.8 24.1a2.2 2.2 0 0 0 .2 0l.2.1v-.4a8.7 8.7 0 0 0 .2.4l.6.2V24v.2a6 6 0 0 0 .1.2l1 .2h.5c0-.2 0-.3-.3-.4l-.8-.5h-.2l-.2.2.1-.2.1-.1-.3-.1-.2-.1a7.8 7.8 0 0 1-.3.2v-.1l.1-.2h-.2l-.2-.1-.3.3-.1.1v.2l.1.3z"/>
  <path fill="#A7695E" d="M16 24.3v-.1l.1-.1.5-.4 1-.2h1a8.7 8.7 0 0 1 2 .6l.6.3-.6-.2-.8-.3a8.3 8.3 0 0 0-2.3-.3c-.3 0-.6 0-.9.2a1.6 1.6 0 0 0-.5.3v.1H16z"/>
  <g fill="#A7695E">
    <path d="M15.9 24.6V23.4l.5-1.4 1-1.3 1.4-1a3.4 3.4 0 0 1 .8-.4h.2a3.1 3.1 0 0 0 .2 0h.7l.2.2c.2.1.3.3.3.4l.1.3H21a1.2 1.2 0 0 0-.5-.2H20v.1h-.1l-.6.3a8.5 8.5 0 0 0-2.1 2l-.7 1.1v.1l-.1.1-.1.2-.1.2v.1H16l-.1.4z"/>
    <path d="M21.2 20.3v-.4a1 1 0 0 0-.4-.4l-.6-.2h-.7l-.7.4c-.5.2-1 .6-1.4 1a5.3 5.3 0 0 0-1.5 2.6v.7h.1v-.2l.1-.2.1-.3a6.2 6.2 0 0 1 1.6-2.3 6.8 6.8 0 0 1 1.7-1.2l.6-.1h.5l.4.3a.8.8 0 0 1 .1.2z"/>
    <path d="M18.3 21.2l.4-.4h-.2l-.1-.2a3 3 0 0 1 .4.1l.4-.2.1-.1h.1c.1 0 0-.1 0-.1V20H19h.4l.2.1h.5l.1-.1a1 1 0 0 1 .8.2h.2v-.4l-.1-.1v-.1a1.3 1.3 0 0 0-1-.4h-.2a2.4 2.4 0 0 0-.1 0H19.5v.1l-.2.2v-.1l-.5.1-.2.2h-.2a9.7 9.7 0 0 0 0 .6l-.1-.2-.1-.2-.3.2v.1l-.2.1v.7h.2l.1.1c.1.1 0 0 .1 0h.2z"/>
    <path d="M15.9 24.5V24.2a5.4 5.4 0 0 1 .8-2 6.6 6.6 0 0 1 2.8-2.4l.5-.2h.5l.4.2.1.2-.2-.1-.3-.2H20a2 2 0 0 0-.5.1l-.6.3a7.2 7.2 0 0 0-2.1 2.2l-.6 1-.3.9v.2z"/>
  </g>
  <g fill="#2A2A2D">
    <path d="M15.5 24.6l.1-.2.1-.1.1-.2.1-.1.2-.2.2-.2.2-.3h.1l.2-.2.1-.1.2-.1.1-.1.2-.1.2-.2h.2l.1-.2h.2a5.5 5.5 0 0 1 1.8-.5h1.3l.2.1h.3l.2.1.3.1.3.1.2.1.2.1.2.1a1.6 1.6 0 0 1 .2.2v.1H23a3 3 0 0 1-.5 0H20a8.6 8.6 0 0 0-1.5.3h-.2l-.2.2h-.2a4.4 4.4 0 0 0-.4.2h-.1l-.2.2H17l-.2.1-.2.1-.3.2-.2.1-.1.1-.2.1-.3.2z"/>
    <path d="M23.3 22.8v-.1l-.2-.2-.2-.1-.2-.1-.5-.2H22V22h-.4l-.3-.1h-1.4a6.8 6.8 0 0 0-1.7.3 5.8 5.8 0 0 0-1 .5l-.1.2-.3.2h-.2v.2l-.2.1-.1.1a5 5 0 0 0-.5.6v.2l-.2.2.1-.1.1-.1.7-.6.3-.2.1-.1.2-.1.3-.2h.1l.2-.1.2-.1.1-.1h.2l.2-.1a7.8 7.8 0 0 1 1.5-.4 7.4 7.4 0 0 1 3 .4 4.3 4.3 0 0 1 .4.1z"/>
    <path d="M19.5 22.9h.3l.3-.1v-.2l-.1-.2a10.5 10.5 0 0 0 .2.3h1l-.2-.2v-.2a4.4 4.4 0 0 0 .1.2l.2.2c1.2 0 2 .3 2 .1v-.2H23l-.2-.2c-.3-.2-.8-.4-1.4-.5l-.2.2h-.1V22h-.8a20.5 20.5 0 0 0-.2.1v.1l-.2.2V22l.1-.2h-.5l-.2.1v.2l-.2.2v.3c.2 0 .3.2.3.3z"/>
    <path d="M15.6 24.5l.2-.2.3-.3.2-.2.2-.1a7 7 0 0 1 3.4-1.4H22l.8.3h.2l.1.1h-.3l-.9-.3h-1.1l-.1-.1h-.8a7.3 7.3 0 0 0-2.3.7 7 7 0 0 0-1.1.7l-.2.2-.2.1-.3.3-.1.2h-.1z"/>
  </g>
  <g fill="#2A2A2D">
    <path d="M15.7 24.4l.1-.4.2-.6.1-.3a22.8 22.8 0 0 1 1-2.2l.3-.6.2-.2.2-.3.8-1 .2-.3.2-.2.3-.2.1-.1v-.1h.1a5 5 0 0 1 1.7-.9 1.6 1.6 0 0 1 .7 0 1.1 1.1 0 0 1 .5.4l.3.5v.8a2.3 2.3 0 0 1-.6 1c-.1 0-.1 0 0-.1v-.4l.1-.5v-.6l-.2-.3h-.1l-.2-.1h-.3a2 2 0 0 0-.5.2c-.6.2-1.2.7-1.8 1.4a19.4 19.4 0 0 0-2.5 3.6l-.2.3-.2.3-.3.5-.2.4z"/>
    <path d="M22 19.7h.2v-.2l.2-.2a2.5 2.5 0 0 0 .3-.6V18.4a1.5 1.5 0 0 0-.1-.8l-.2-.2-.5-.4h-.7a3 3 0 0 0-.6.2 5 5 0 0 0-1 .6l-.1.1h-.1l-.1.2-.3.2-.2.2-.2.3-.8 1-.2.3-.2.2-.2.5-.3.5-.2.5-.2.4-.2.4-.1.2v.2l-.2.4-.2.5-.1.5v-.2l.2-.3.6-1.3A26.8 26.8 0 0 1 19 19l.8-.8c.3-.2.6-.5 1-.6l.2-.1.2-.1h.8l.2.1.2.2v.2c.2.2.2.5.2.7l-.2.6-.2.4z"/>
    <path d="M19.5 19l.2-.4.3-.2-.1-.2h.2a1.8 1.8 0 0 1 .3 0l.2-.1.2-.1.1-.1.3-.1.2-.1-.1-.1-.3-.2a2 2 0 0 0 .4.1l.2.1h.3l.2.2.2.3v.9l-.2.6v.2l.2-.1.1-.2.1-.1.1-.2.1-.2v-.2l.1-.1v-.1c0-.1 0 0 0 0a1.6 1.6 0 0 0 0-.7l-.2-.3-.3-.3-.4-.2a1.2 1.2 0 0 0-.5.3h-.1v-.1l.2-.1a2.3 2.3 0 0 0-.8.1l-.2.1h-.1l-.1.1-.2.2c0 .2-.1.2-.2.3v-.1a6 6 0 0 0-.8.5v.3l-.1.2a1.5 1.5 0 0 0 0 .2h.5z"/>
    <path d="M15.7 24.3v-.1l.2-.4.2-.5.4-.6a24.8 24.8 0 0 1 2.3-3.6l.8-.9 1-.6.2-.1a2 2 0 0 1 .8-.2l.4.1h.1l.1.2.1.1c.2.3.2.5.2.7l-.1.6v.2l-.2.1v-.1l.1-.1V19l.2-.6c0-.2 0-.4-.2-.7l-.1-.1H22v-.1a.9.9 0 0 0-.5-.2l-.5.1-.3.1-.2.1a5 5 0 0 0-1 .6l-.8.9-1.4 2-.9 1.6-.3.6-.3.6-.1.3z"/>
  </g>
  <g fill="#2A2A2D">
    <path d="M16.2 24.6v-.2a4.5 4.5 0 0 1 1.2-2.4l1-.6c.3-.2.7-.3 1.2-.3h.7l.6.2h.2a6.2 6.2 0 0 0 .3.2h.2l.5.3 1 .3h.9l.7-.4.2-.6V20.8l-.1-.4v-.1c.2 0 .3.2.4.3v.1l.1.2v1h-.1v.2l-.5.4a2 2 0 0 1-.5.2l-.5.2H23.4a2 2 0 0 1-.3 0 14 14 0 0 1-2-.6L21 22h-.2l-.1-.1-.6-.2h-.2a6 6 0 0 0-.3 0 3 3 0 0 0-1 .2 3.4 3.4 0 0 0-1.5 1 5.4 5.4 0 0 0-1 1.6z"/>
    <path d="M24.8 20.2v.1l.1.4v.7l-.1.2h-.1c-.2.2-.4.4-.7.4l-.4.1h-.5c-.3 0-.6-.2-1-.4l-.5-.2h-.2l-.1-.1H21l-.2-.1-.6-.2H19.6a3.3 3.3 0 0 0-1.8.6 4 4 0 0 0-.7.7l-.2.2-.1.2a4.4 4.4 0 0 0-.5 1.2v.2l-.1.2v-.2l.1-.1V24a5.2 5.2 0 0 1 1-1.6 3.7 3.7 0 0 1 1.3-.8 3 3 0 0 1 1.1-.2h.6l.1.1h.2l.2.1 1.1.5a10.1 10.1 0 0 0 1 .3H24l.8-.5a1.2 1.2 0 0 0 .3-1.3 1 1 0 0 0-.3-.4z"/>
    <path d="M21.1 22.2c.3 0 .5.2.8.3v-.4l.1.3.1.1.3.1h.1l.2.1h.8l-.2-.2a1.5 1.5 0 0 0 .3.1h.3l.1.1.4-.1.2-.1h.1v-.1l.1-.1.2-.1.2-.3a1.4 1.4 0 0 0 .1-1V20.6l-.1-.1-.1-.1-.1-.1h-.1l-.1-.1v.4l.2.3v.3l-.2.4h-.1v.1l-.2.2-.5.2h-.1v.1l-.3.1.1-.2a2 2 0 0 1-.3 0H22.8V22H22h.1l.2-.2c-.3 0-.5-.2-.8-.3H21l-.2.1a7.5 7.5 0 0 0 .3.6z"/>
    <path d="M16.2 24.4v-.1l.2-.3a4.7 4.7 0 0 1 1.2-1.8 3.6 3.6 0 0 1 .8-.6l1.1-.2h.9l.2.1h.1l1.2.5.2.1h.2v.1h.2l.2.1h.4v.1h.8c.3 0 .6-.2.8-.4a1.2 1.2 0 0 0 .4-.7v-.7H25v-.1.1l.1.1v.8c0 .2-.2.5-.4.6l-.8.4h-.6a2.6 2.6 0 0 1-.2 0h-.5v-.1h-.4v-.1l-.4-.1-1-.5h-.4l-.3-.1H19.5a3.1 3.1 0 0 0-1.5.4 4 4 0 0 0-1 1 4.9 4.9 0 0 0-.8 1.4v.1z"/>
  </g>
  <g fill="#A7695E">
    <path d="M16.6 23.6v-.2h-.1l-.1.1c-.2.4-.3.7-.1 1 0 .1 0 .2.2.2V24.4l.1-.8zm-1 .2l-.2.7c0 .3 0 .6.2.8a2 2 0 0 1 .4-1.9l-.2.1-.2.3z"/>
    <path d="M15.9 25.2c-.2-.6 0-1.4.3-2-.3.3-.4.6-.5 1v1h.2z"/>
    <path d="M16 24.9l.1.1h.2c-.2-.2-.2-.5-.2-.8 0-.2 0-.5.2-.7l.1-.2c-.2.1-.4.4-.4.7v.9z"/>
  </g>
  <g>
    <path d="M84.5 29.6a22.9 22.9 0 0 1 2.7-.8A375 375 0 0 1 98.1 26l.7-.3a34 34 0 0 1 3.1-.8 35.5 35.5 0 0 0 4-1 243.8 243.8 0 0 1 7.2-2h.3v-.1a66 66 0 0 1 4.2-1l1.5-.5a89.2 89.2 0 0 1 8.3-1.7 26.2 26.2 0 0 1 9.9 0c.4 0 .7.5.6.6-.1.2-.2.2-.3 0l-1.2-.6-.4-.1a9 9 0 0 0-3.2-.2 122 122 0 0 1-4.6.4l-.9.1c-1 0-1.3.1-2 .3l-1.5.3a62.8 62.8 0 0 1-21 5.6 44.4 44.4 0 0 1-3.7 1 136 136 0 0 1-9.4 2.6l-.9.3-.5.1a30.3 30.3 0 0 0-2.5.7 11.3 11.3 0 0 1-1.1.3h-.3v-.4z"/>
    <path fill="#771B0E" d="M25 41.6c-.4-.3-1.8-.8-2.7-1L5.9 35.7c-2.4-.4-3.3-2-3-3 .2-1.1 1-2 3.5-1l16 5.1c7.5 2 3.1 5.2 2.7 4.8zM79.7 38c.1 3 0 3.1-.5 2.8-.4-.3-.7-1-2-1H68c-1 0-2-1-2-2s1-2 2-2h9.8c1 0 2 1.1 2 2.1zM16.1 51.9a13.4 13.4 0 1 1 0 26.8 13.4 13.4 0 0 1 0-26.8m0-.3a13.7 13.7 0 1 0 0 27.4 13.7 13.7 0 0 0 0-27.4zM75.8 55a12 12 0 1 1 0 24 12 12 0 0 1 0-24m0-.3a12.3 12.3 0 1 0 0 24.6 12.3 12.3 0 0 0 0-24.6z"/>
    <path fill="#230108" d="M66.2 15s-1.6 1.4-1.7 3.1c-.1 1.8 3 3.2 3 3.2l.4 5.3 5.5 5.3s1.1-1.6 1.3-1.4H77L76 28l-.2-5.9s-1-2.3-1.4-2.8c-.4-.5-1.3 0-1.3 0l-1.5-.3-3.1-2.2-2.3-1.9z"/>
    <path fill="#9B5612" d="M71 15.9c0-.4.3-.7.3-1.1 0-.4-.2-.5-.2-.7 0-.5 0-.4.2-.4 1.3.3 1.7-.5 1.7-.8v-.6c.2-.2-.1-.4-.1-.4s.3-.2.2-.4L73 11s.6.2.7 0l-.5-1.8c-.2-.6 0-1.4-.3-2h-1c-.7 0-1.7.3-1.8 1 0 1.3-.8 1.4-1.1 1.7 0 0-.3-.5-.8-.3s.2 1.6.2 1.6l-.7 1.3c.2.8.1 2 0 2.7l3.3.7z"/>
    <path fill="#3F0300" d="M72.1 11.8s.7-.1 1-.3l-.2.4-.8-.1z"/>
    <path fill="#2B2827" d="M68.4 11.2s-.7-1.4-.2-1.6c.5-.2.8.3.8.3.3-.3 1-.4 1.1-1.7.1-.7 1-1 1.9-1h.9c.5 0 .6-.1-.4-1-.4-.3-3-1.7-5.4.2-1 1-.9 2.8-.6 3.9.3 1 1.2 2.2 1.2 2.2l.7-1.3z"/>
    <path fill-rule="evenodd" clip-rule="evenodd" fill="#2B2827" d="M66.4 7.7c.3-.1.3.1.3.2 0 .2.3.5 0 .7-.3.2-.1.8-.1 1 0 .6.2 1 .5 1.6.5-.1.9-.4.9-1v-.4c0-.4.4-.8.7-.8.3 0 .5.4.4.8 0 .6.1 1.2.4 1.7 0 .3.2.3.4.2.4-.1.6-.6.3-1l-.5-.4c-.2-.2-.2-.7 0-.7.4-.2.3-.5.5-.8v-.1l-.5.5c0 .1-.1.2-.3 0-.1 0-.1-.1 0-.2l.2-.3v-.2h-.2l-.6.2c-.2 0-.4 0-.4-.3 0-.1-.4 0-.3-.3H68c-.2 0-.4.4-.6.2l-.1-.7.1-.3 1.3-.3c.3-.1.6-.3.9-.2h.1c.3-.1.6-.2 1-.1h.3c.2-.2.4 0 .6-.2l-.6-3c0-.1 0-.3-.2-.4.1.4 0 .4-.4.4-1.2.1-1.5.2-2.7.6-.3 0-.5.2-.8.1l1.2-.5c0-.2-.2 0-.2-.1h-.2l-.1.1-.9.4c0 .1-.2.2-.1.5l.3 1c0 .2-.4.3-.4.5.1.5-.1 1 0 1.6z"/>
    <path fill="#2B2827" d="M73 11s-.3-.2-.6.2c-.3.5-.4.8-.6.7-.2-.2-.2-.5 0-.5 0 0-.6 0-.5.6 0 .4.6.4.8.2.3-.1.3-.5.8-.4.4.1.5-.6.2-.8z"/>
    <g fill-rule="evenodd" clip-rule="evenodd" fill="#040505">
      <path d="M74.3 7.7s-4-.3-5.2-.2c-1.2.2-3.4 1-4.3 1-1 0-1.7-.4.3-.8 2.1-.5 5.2-1.4 8.4-1.1 1.9.1 1.7 1.2.8 1z"/>
      <path d="M72.7 7l.1-6.2s.3-.7-1-.8c-1.4 0-4.8 0-6.2.7 0 0-.5.2-.2 1 .4.7.7 5.5.7 6 0 .3 6.6-.6 6.6-.6z"/>
    </g>
    <path fill-rule="evenodd" clip-rule="evenodd" fill="#8F949A" d="M69.4.3c-.5 0-.9 0-1.3.2l-2.3.4c.4.2.7 0 1 0C68.3.7 70.5.7 72 1c.4 0 .6 0 .6-.5h-1C71 .1 70.1.1 69.4.2zm3.2 5.4s-1.2-.3-5.4.4c0 0-.4.1-.4.4V7s0 .3.6.2c.5 0 4-.8 5.3-.7v-.8z" opacity=".7"/>
    <path fill-rule="evenodd" clip-rule="evenodd" fill="#BDBEBC" d="M70.3 5.7v1h.7l-.1-1h-.6z"/>
    <path fill-rule="evenodd" clip-rule="evenodd" fill="#FFF" d="M71.3 5.6l.2 1h.6s0-.6-.2-1h-.6z"/>
    <path fill="#FFF" d="M70.3 14.8s-1-.6-1.6-.6c-.7 0-1.1-.7-1.1-.7s-.3 0-.8.5c-.4.5 2.7 3 2.7 3l1.7 1 .8-.7-1.7-2.5z"/>
    <path fill="#771B0E" d="M66.8 14s2.1 2.1 3 2.5c.7.4 4.3 3.3 4.2 4.6 0 0-1.6-1.1-3-1.7-1.4-.6-2.4-1.3-2.4-1.3l-.1-1.3-.8.6-2.2-1.8 1.3-1.6z"/>
    <path fill="#60040F" d="M73 16.7s1.1.2 1.2.8l.2 3-.9-.6-1-1 .2-1.4.3-.8z"/>
    <path fill="#AA2E16" d="M70.3 15s.5-.5.9-.4c.4 0 .6-.5 1-.1.6.4.4 1.3.4 1.3s.6 1 .6 1.7-.3 1.5-.5 1.5l-1.8-1.6s0-1.5-.6-2.3z"/>
    <path fill="#9B5612" d="M83.2 28.6s1.2-.6 1.9-.2c.7.5 1.8.6 1.7 1.2 0 .6-.5 1.4-1.1 1.5-.7 0-.9.4-1.2 0l-.6-.6s-1.2-.5-1.7-.5.5-1.2 1-1.4z"/>
    <path fill="#230108" d="M74.4 19.7s2.2 1.8 2.5 2.6c.3.9 1 2.3 1.5 2.4.5.2.6.1.6.6s1.7 1.7 2.3 1.9c.5.1 2.6 1.1 2.6 1.1s-1.3 0-2.1 3c0 0-3.3-1.7-3.8-2.2-.5-.6-2-1.2-2-1.2s-.7-1.4-.5-2.3c.1-1 0-4.2-.3-4.9-.3-.7-.8-1-.8-1zm2.1 17.9s-2.5.5-3.6 0c-1.2-.4-3.6-.8-3.6-.8l-1.9.3s-.8-.5-.9-1.7c-.1-1.1-.5-2.6-.3-4.4 0 0 .2-2.2.4-2.2l4 1.4 2.4.8 2.2 2.7.6.2.7 3.7z"/>
    <path fill="#230108" d="M74.4 29.6c1.2-.5-4.8-3.4-4.8-3.4v-.9c0-1.8-1-5.8-2-6.8-.7-.5-2.8-1.5-3.2-.8 0 .4-.7 1.8-.3 4.2.6 3.5 1.9 5.4 2.2 7 0 .3 1 .9 1.3.9l5.6 3.5s0-3.2 1.2-3.7zm14.3 23l2.4-2.2 1.3-1-.6-.8-4.6-7.8-1.6-2.5s-.6-2-2.1-2.7l-4.2-1.9-1.9-.8-1.3-.3-.7 1.3 6.1 7.4s2 4.6 3.1 5.8c1.2 1.3 4 5.5 4 5.5z"/>
    <path fill="#230108" d="M77 32.9l3.8 6.8.6 1.9-.8 1.3s-.5 1.8-.7 1.4c-.2-.2-1.6-3.6-3.4-5.4-1.1-1.1-2.5-1-3.6-1.2-.8-.2 2.6-3.2 2.7-3.7.3-2.6 1.5-1.1 1.5-1.1z"/>
    <path fill="#230108" d="M78.4 34l2 2.2s2.5 3 2.6 3.3c0 .3.2.4-.3.7-.4.2-1.7 1.5-1.7 2.2 0 .7-1.2-2.9-1.8-3.8-.6-.8-2.6-3.2-2.5-4.7 0-1.4 1.2-1 1.2-1l.5 1z"/>
    <path fill="#9B5612" d="M74.4 30.2s.8.2 1.1.1c.3 0 2 .2 2.3.5.3.4 1.5 1.1 1.4 1.4-.2.4-.7.2-.7.2s.8.3 0 1c-.6.5-.7.1-1.2.6-.5.4-1.3.5-1.7 0l-2.1-2.1s0-1.2.9-1.7z"/>
    <path fill="#230108" d="M91.5 53.3l-1.2 1s-1.3-1-1.3-2l2.4-2.7s.6.5 1.5.3c.8-.2 2.1-1 2.8-.8.9.4 0 1.2 0 1.2l-3.2 2.2-1 1z"/>
    <path fill="#230108" d="M5.4 35.4s18 4.8 18.3 5.1c6.7 1.6 3.8 21.6 18.8 21.6h9.3s3.7-.6 6.9-3C65.6 54 68 40 68 40h11.2s1.6 12 7.8 13.7l1.3.1h3l5-3.2.2-9.3h1.9L98 51.7l-5.8 4H85s-2.9-6.7-12.7-4.4c0 0-9.5 13.1-18.2 13.1l-22-.2C17 64.2 13 55 9.6 45c-1-3-2-6.8-4.2-9.6z"/>
    <circle fill="#230108" cx="75.8" cy="66.9" r="2.4"/>
    <path fill="#754C29" stroke="#771B0E" stroke-width=".6" stroke-linejoin="round" stroke-miterlimit="10" d="M75.8 55.7v8.7m5.6-7.2L77 64.7m8.5-3.4l-7.6 4.3m9.1 1.3h-8.7m7.2 5.6l-7.6-4.4m3.5 8.5L77 69m-1.2 9.1v-8.8m-5.6 7.3l4.4-7.6m-8.5 3.5l7.6-4.4m-9.1-1.2h8.7m-7.2-5.6l7.6 4.3m-3.5-8.4l4.4 7.5"/>
    <path fill="#414042" d="M0 65.3a16.1 16.1 0 1 0 32.2 0 16.1 16.1 0 0 0-32.2 0zm2.7 0a13.4 13.4 0 1 1 26.8 0 13.4 13.4 0 0 1-26.8 0z"/>
    <circle fill="#230108" cx="16.1" cy="65.3" r="2.7"/>
    <path fill="#AA2E16" stroke="#771B0E" stroke-width=".6" stroke-linejoin="round" stroke-miterlimit="10" d="M16.1 52.9v9.7m6.2-8l-4.8 8.3m9.4-3.8l-8.4 4.8m10 1.4h-9.6m8 6.2l-8.4-4.8m3.8 9.3l-4.8-8.3m-1.4 10V68m-6.2 8l4.9-8.3m-9.4 3.8l8.4-4.8M3.7 65.3h9.7m-8-6.2l8.4 4.8m-3.9-9.3l4.9 8.3"/>
    <path fill="#414042" d="M61.3 66.9a14.5 14.5 0 1 0 29 0 14.5 14.5 0 0 0-29 0zm2.3 0a12.2 12.2 0 1 1 24.4 0 12.2 12.2 0 0 1-24.4 0z"/>
    <path fill="#230108" d="M63.7 66.9a12.1 12.1 0 1 0 24.2 0 12.1 12.1 0 0 0-24.2 0zm1 0a11.2 11.2 0 1 1 22.3 0 11.2 11.2 0 0 1-22.4 0zm-62-1.6a13.4 13.4 0 1 0 26.8 0 13.4 13.4 0 0 0-26.8 0zm1 0a12.4 12.4 0 1 1 24.8 0 12.4 12.4 0 0 1-24.8 0z"/>
    <path fill="#771B0E" d="M86 56.4s-7.7-6.7-16.7-2.6A22.2 22.2 0 0 0 58 65.9c-.4 1-1.6 4.3-5 4.3H42.7c-3.2 0-5-3.5-7.1-7.5-2.1-4-8-13.7-20.1-13.3-2 .1-5.7 1-5.7 1s11.9-9.3 25.2 8.5l3 5.7s1.3 3 5.1 3.5h9c1.7 0 3.5-.9 4-2.2a25.9 25.9 0 0 1 15.6-16.5s9-2.8 14.8 7"/>
    <path fill="#111" d="M43.5 68.1h7.7v2.1h-7.7z"/>
    <g>
      <path fill="#302D2D" d="M182.6 23.5c2.8-.8 5.4-2 7.9-3.5 3-1.7 7.5-5 10.6-6.4 2.4-1.2 5.2-1.9 7.8-1.4l1.1.2c.3.1.7.4 1 .4 0-.7-.4-1.4-.9-2l-.4-.6-1.6-1.8-.3.2v-.4l-.7.5-.1-.4c-.2 0-.3.2-.5.3l-.3-.4-.4.4-.7-.2-.3 1.2c-.8.2 0 .6-1 .3-.7 0-1.9-.9-2.6-.8l.1.4h-1v.4h-.4l-2.2.9-1.3 1.1a4 4 0 0 1-1.9.6l.1.5c-.8.4-3.6 1.8-4.5 2l.6.4-.7.1-1.7 1.5c-.6.2-1.2.5-1.7 1l-.5.1.3.3h-.4l-.2.6h-1.2l.2.3c-.1 0-.2.2 0 .3-.3 0-.5.2-.4.4h-.4c0 .2.2.3.3.5l-.9.9h.1l.1.2-.3.1.3.3-.3.2a4 4 0 0 1-.7 1.3z"/>
      <path opacity=".4" fill="#47392F" d="M182.6 23.5c2.8-.8 5.4-2 7.9-3.5 3-1.7 7.5-5 10.6-6.4 2.4-1.2 5.2-1.9 7.8-1.4l1.1.2c.3.1.7.4 1 .4 0-.7-.4-1.4-.9-2l-1.6-.7.3.4-1.7-.9-.7.2-5 .7.2.2-.4-.1c-.1 0-.2.2 0 .3l-.5-.1-.2.5-.6-.2-.2.8-.4-.5c0 .3-.3.6-.7.5l-1.4.7-.6 1v-.5c-.2.5-.5 1-1 1.2-.2.2-.5.3-.8.3l-1 .5h-.6l.1.5-.6-.1-.2.4-1.9 1.6a2 2 0 0 0-1.5 1.1l-5.6 2.9h.1l-.3.2.3.3-.3.2a4 4 0 0 1-.7 1.3z"/>
      <path fill="#302D2D" d="M118.4 44.7a6.2 6.2 0 0 1 2.7-4.6l-.8 1.8c.4-.8 1-1.4 1.8-1.9l-.8 1.9 1.3-1.4-1 2.3c.5-.8 1.2-1.3 2-1.5 1-.2 2 .2 2.7 1l-1.4.2 2.6.9-1.1.2c1.4.7 3.1.7 4.6 0a5.9 5.9 0 0 0 3.2-3.2c.8-2.2.3-4.6 0-6.9 0-1.2 0-2.7 1-3.5.9-.7 2-.7 3-.3.6.2 1.1.8 1.7 1.2l.6.4c.4 0 1.8-1.2 1.8-1.2l-2.5-2c-1.9-1.6-4-3.2-6.5-2.9a5.2 5.2 0 0 0-3.4 2.4 8.4 8.4 0 0 0-1.3 4c0 1.1 0 2.3-.8 3.1-.7.8-2 .8-3 .4a8 8 0 0 1-2.4-2 2 2 0 0 0 .3 1.8c-.7-.4-1.7-.5-2.4-.2l1.1.7a4 4 0 0 0-3.5 2.8c.4-.5 1-1 1.5-1.2l-1 2 1.3-1.4-.8 1.5a8 8 0 0 0-.5 5.6z"/>
      <path opacity=".4" fill="#47392F" d="M118.4 44.7a6.2 6.2 0 0 1 2.7-4.6l-.8 1.8c.4-.8 1-1.4 1.8-1.9l-.8 1.9 1.3-1.4-1 2.3c.5-.8 1.2-1.3 2-1.5 1-.2 2 .2 2.7 1l-1.4.2 2.6.9-1.1.2c1.4.7 3.1.7 4.6 0a5.9 5.9 0 0 0 3.2-3.2c.8-2.2.3-4.6 0-6.9 0-1.2 0-2.7 1-3.5.9-.7 2-.7 3-.3.6.2 1.1.8 1.7 1.2a84 84 0 0 0-.3-.5c-.7-.9-1.4-1.9-2.5-2.1-1.2-.3-2.5.4-3.1 1.5-.7 1-.8 2.3-.8 3.6L133 37c-.2 1.3-.8 2.5-1.9 3.1.5-.5.8-1.3.7-2-.4 1.1-1.6 1.9-2.7 1.8a4 4 0 0 0 1.5-3.6c-.1 1.2-1.1 2.1-2.2 2.5a9 9 0 0 1-3.5.2 4 4 0 0 1 2.3-.8 18 18 0 0 0-4 .1c.7-.4 1.4-.7 2.2-.8a5.2 5.2 0 0 0-5.7 1.2 8 8 0 0 1 1.2-1.8c-.9.5-1.6 1.3-2.1 2.2a8 8 0 0 0-.5 5.6z"/>
      <path fill="#421C0D" d="M180.4 47h-.2l-.2.2-.6 12.5-.2 1.1-.2 1v1.8l-.7 5.5-.4 2.3-.6 3.5.6 1 .2.9c0 .3-.5 1.2-.5 1.2l-.3.7.9 2.1-.7-1.6a42 42 0 0 0 3.9-.6l-.2-.2-.7-1-.2-1.3.2-.8v-2.2c0-.9.1-2.7.3-3.6l1.3-5.4.8-1.5.2-1.5v-1.7l1.7-6.5-1.2-6.6s-2.4.6-3.2.6zM155 43.4l-2.6 4.5c-1 1.4-3.4 3.8-4.6 5 0 .2-.1.2-.2.3l-.8 3.1-.6 1.2v1.8c0 .6.3 1.9.5 2.5l.9 6 .9 5-.1 2.6.7 1 .3.8-.4 1.2-.2.8 1 1.8-.8-1.4c.6 0 2-.2 2.4-.4 1-.3 1.3-.6 1.3-.7l-.9-.9-.4-1.3v-.8l.2-1.1-.4-2.1-.6-3-.5-6v-4.5l.8-2.4c.6-1 2-2.7 2.6-3.5l3.2-4 2-4.3-1.8-.4-1.9-.8z"/>
      <path fill="#6D3719" d="M214.8 26.9c-1-3.4-1.5-7-1.7-10.5 0-.7 0-1.4-.4-2-.2-.7-.8-1.2-1.5-1.3-2.6-2-3-2.5-6.2-2-1.1 0-3.4 1.5-6.1 3.5-1.2.5-4 1.7-6.1 2.9l-5 3-1.2 1-1.8.6c-.5 0-1.4.5-1.8.8l-1.8 1.4a14 14 0 0 1-3 1.4c-1.7.5-6.8 1-8.6 1-1.7 0-5.1-.7-6.8-1.1-1.8-.5-5.4-2-7.3-2.2-.8 0-2.6.1-3.4.4-1.9.6-5.7 2-7.4 3-1.1.6-3.3 2-4 3.2a15 15 0 0 0-1 6.3c0 1.6.6 4.6.9 6.2.3 1.6 1.5 4.4 1.6 6v3.1l-2.6 4.3-1.2 2c-.5 1.5-.4 4.5-.5 6l-.5 6.4-.3 2.6-.6 2.4.6 1 .2.9c0 .3-.4.9-.5 1.2l-.3.7.1.4c.5 0 2.1 0 2.7-.2l1.2-.5.5.7c.2.3.6.8.7 1.2 0-.4-.5-1-.7-1.2l-.6-.9-.7-.7c-.2-.3-.2-1-.2-1.4l.2-1v-1.9l.1-3.2v-.6a110 110 0 0 1 1.4-7.1l1.5-4.1 4.9-5.4.2-.2c1.2-1.3 3.6-3.7 4.6-5.1.7-1 2.6-4.5 2.6-4.5a29.2 29.2 0 0 0 3.6 1.2 145 145 0 0 0 14.8 2.3c1.7.2 5 .3 6.8.2h.2l3.3-.7.8 6.6.7 6-.1 1.2.1 1.4.3.8.6 4.2.1 4.5v.3c0 1-.5 4-.5 4l.7 1 .2.9-.4 1.2-.3.8.2.4a23.8 23.8 0 0 0 3.8-.9l.5.6s.8 1 .8 1.3l-.2.2c-.5.3-1.6.3-2 .3h-.1c.5 0 1.6 0 2-.3l.3-.2c0-.4-.8-1.3-.8-1.3l-.6-.7-.8-.8-.2-1.4.2-.8-.1-1-.1-1.2-.2-2.4-.2-3.2.3-4.6.2-.8.3-1.6v-.7l-.3-1.4 1-6.4 1-6 1.4-2 2.1-3.8s.6-1.9.7-3l.1-.3c0-1 1-4.3 1-4.3l.6-1.1c1-1.7 1.2-1.8 3.4-4.4 2-2.4 3.3-3.7 3.7-4v-.7c.4 1 1 2 2 2.6.3.3.8.6 1 1 .3.6 0 1.3.2 1.9.2.9 1 1.6 1.8 1.8-.6-1.2-.3-2.9.8-3.6 0 .8 0 1.7.4 2.5.3.8 1 1.5 1.7 1.7 1 .2 1.8-.2 2.5-.8.4-.4.7-.8.8-1.4 0-.5-.1-1.1-.3-1.6z"/>
      <path d="M186.1 79.7l.8 1.6s1.4.2 2 .1l-2-.1-.8-1.6z"/>
      <path d="M191 81l.2-.3c0-.3-.8-1.3-.8-1.3l-.5-.6-1 .4c-1.1.3-2.2.4-2.8.5l.8 1.6 2 .1c.5 0 1.6 0 2-.4zm-8.5-.4l-.3.3a5 5 0 0 1-2 .2l-2-.2 2 .3c.5 0 1.6 0 2-.3l.3-.3c0-.4-.7-1.4-.7-1.4l-.4-.5.4.5s.7 1 .7 1.4z"/>
      <path d="M177.5 79.3l.7 1.6 2 .2a5 5 0 0 0 2-.2l.3-.3c0-.4-.7-1.4-.7-1.4l-.4-.5a29.3 29.3 0 0 1-3.9.6zm-35.8 1.5l-.3.3c-.4.3-1.5.4-2 .3-.5 0-1.6 0-2-.4-.3-.2-.6-1-.8-1.5.2.5.5 1.3.8 1.6.4.3 1.5.3 2 .3s1.6 0 2-.3l.3-.2z"/>
      <path d="M140.5 78.8a6 6 0 0 1-1.2.5c-.6.2-2.2.2-2.7.2.2.5.5 1.3.8 1.5.4.4 1.5.4 2 .4s1.6 0 2-.3l.3-.3v-.1c0-.4-.5-1-.7-1.2l-.5-.7zm13.6 1.6l-.2.5c-.4.3-1.5.3-2 .3h-.1c.6 0 1.7 0 2.1-.3l.2-.5c0-.4-.8-1.3-.8-1.3l-.6-.6.6.6s.8 1 .8 1.3z"/>
      <path d="M149 79.6l.9 1.4 1.9.2c.6 0 1.7 0 2.1-.3l.2-.5c0-.4-.8-1.3-.8-1.3l-.6-.6s-.3.4-1.3.7c-.5.2-1.8.3-2.4.4z"/>
      <path fill="#5E2C19" d="M183.6 46.6l-1-2.7s-4.7.9-6.3.9a97.4 97.4 0 0 1-20.9-2.5l-.4 1.3 5.3 1.5a105.7 105.7 0 0 0 17.8 2.2c.8 0 2.4-.1 3.2-.3.6 0 2.3-.4 2.3-.4zm20.3-23.1l-.3-1.7-3.6 4c-.9 1.2-3.1 3.8-3.8 5.1-.5.9-.9 2.2-1 3.1v2.7l.6-2.1c.1-.4.3-1.3.5-1.6l1-1.9 1.2-1.6 1.3-1.5 1.4-1.6 2.7-2.9z"/>
      <path fill="#090201" d="M195.3 35.6c-1.2-2.3 0-1.6-5-2.7-5.1-1.1-11.8-1-11.8-1v-1s4.3 0 7.2.3c7.2.7 9.4 2 9.4 2l1.8-1.5-.7 1.8-.8 2.3"/>
      <path fill="#1B2739" d="M157.5 34.6c.2.6.8 1 1.3 1.2 3.5 1.6 7.2 3.2 11 3.6 2.3.2 4.6 0 6.8-.7a3 3 0 0 0 1.5-.7c.4-.5.5-1.3.6-2l.2-2.8.3-2.4v-.5l.1-1c.1-1.3.2-2.7-.6-3.7-.6-.8-1.6-1-2.6-1-1-.1-1.8.3-2.8.4-1 .2-2 0-3 0l-5.4-.2h-1.3c-.6 0-1.3 0-1.8.3-.6.3-.9 1-1.1 1.6l-3 6.8-.2 1.1z"/>
      <path opacity=".4" fill="#267B7F" d="M157.5 34.6c.2.6.8 1 1.3 1.2 3.5 1.6 7.2 3.2 11 3.6 2.3.2 4.6 0 6.8-.7a3 3 0 0 0 1.5-.7c.4-.5.5-1.3.6-2l.2-2.8a6.6 6.6 0 0 1-2.3 3.3 8.6 8.6 0 0 1-5.2 1.6 19.2 19.2 0 0 1-11-4.6c-.4-.5-.6-1.3-.3-2s1.1-1 1.5-1.6c.5-.7.5-1.6 1-2.4.4-.7 1.2-1.2 1.8-1.8l.5-.9h-1.3c-.6 0-1.3 0-1.8.3-.6.3-.9 1-1.1 1.6l-3 6.8-.2 1.1z"/>
      <path fill="#1B2739" d="M165.7 28.6c.8 1.8 1 3.8.7 5.7-.2.8-.4 1.6 0 2.3.4.5 1.1.7 1.8.7a11.4 11.4 0 0 0 6-1 4 4 0 0 0 1.7-1.4c.4-.6.4-1.4.5-2.1l.7-7.6-.1-1-.1-.2c-.4-.5-1.2-.4-1.8-.4-.9.1-1.5.1-2.2-.3-1.5-.9-3-.6-4.7-.4-.8.2-1.5.3-2.1.7-.7.3-1.3.9-1.4 1.6-.3 1.2.4 2.3 1 3.4z"/>
      <path opacity=".3" fill="#BD957D" d="M146.5 33.9c-.3 1.5.3 3.4 1.7 4 .4.3.9.4 1.3.6.3.2.6.7.4 1.1-.1.4-.7.5-1 .4-.5-.1-.8-.5-1-.8l-4.6-4.9-.8-1.1c-.2-.4-.2-1 0-1.4.7-1 2.2-.4 3.2-1 .7-.4 1.6-4.4 3-3 .9.8-2 4.9-2.2 6z"/>
      <g>
        <path fill="#090201" d="M207.7 27.2c-2-.1-9.4-.4-16.5-2.4l-11.6-3.2-1.2-.4-.7.5s4.8 1.6 10.7 3c7.9 2 15.5 2.6 19.2 3.3v-.8z"/>
        <path fill="#3A0900" d="M209.4 30l-.6-.3c-.3-.3-.4-.7-.4-1l.2-1.2.8-1.6c.2-.2.4-.5.7-.4.3 0 .4.4.4.7v1.3c0 .3.4.9.2 1.2-.1.3-.6.1-.8.4-.2.3.2.9-.5 1z"/>
        <defs>
          <path id="a" d="M205 11c3.2-.4 3.6.1 6.2 2.1.7 0 1.3.6 1.5 1.3.3.6.3 1.3.4 2 .2 3.6.8 7 1.7 10.5.2.5.4 1 .3 1.6-.1.5-.4 1-.8 1.4-.7.6-1.6 1-2.5.8-.8-.2-1.4-1-1.7-1.7-.3-.8-.4-1.7-.4-2.5a2.8 2.8 0 0 0-.8 3.6c-.8-.2-1.6-1-1.8-1.8-.1-.6 0-1.3-.2-1.9-.2-.5-.7-.7-1-1a6 6 0 0 1-2.4-4.4L187 23l1.6-4s8.4-3.4 11.2-5.5c2.7-2.2 5.2-2.5 5.2-2.5z"/>
        </defs>
        <clipPath id="b">
          <use xlink:href="#a" overflow="visible"/>
        </clipPath>
        <path clip-path="url(#b)" fill="#8B4939" d="M166.6 64.5c1.5 1 2 2.7 1.7 3.9-.3 1.1.4 1.8-.7 2-1 0-2.6-.8-2.6-1.8a4 4 0 0 0-2.2-3.1"/>
        <path opacity=".3" clip-path="url(#b)" fill="#BD957D" d="M159.3 61l5.3 5.5c.8.9 1.6 2.1 1 3.1-.3.6-1 .8-1.6.8-.6 0-1.2-.2-1.7-.5-2.3-1.2-4.2-3-6-4.8m58.2-33.7c-1.6.3-3.3-.8-3.6-2.4-.3-1 0-2.2-.5-3.1-.7-1-2.1-1.1-3-2-.8-.8-1-2.1-.8-3.3.1-1.2.4-2.4.1-3.5 0-.2-.1-.5-.3-.6-.4-.2-1 .1-1 .5-.3.4-.2 1-.4 1.3-.1.5-.5.9-1 .7-.3 0-.5-.4-.8-.4-.4 0-.6.6-.6 1.1 0 2.4-1.2 4.8-3.2 6.2l-2 1.3c-.7.5-1.2 1.2-1.2 2 0 1.2.8 2.1 1.4 3.1.7 1.1 1 2.5.7 3.8 0 .5-.2 1.1 0 1.7 0 .7.7 1.2 1.4 1.5 2 .8 4.3-.3 6-1.7 1.8-1.4 3.4-3 5.5-3.6 1.6-.3 3.5 0 4.8-1"/>
        <path fill="#8B4939" d="M206.9 13c0 .2.2.3.4.3h.3l1.2.1c.4 0 .6-.5.7-1.1v-.7c0-1-.2-2-.7-3l-.3-.2c-.2 0-.3.3-.3.6 0 1.3-.4 2.7-1.2 3.7l-.1.4z"/>
        <path opacity=".3" fill="#BD957D" d="M208.2 13l.8.1c.3 0 .4-.4.5-.8 0-.7-.2-1.4-.6-2a6 6 0 0 1-.2 1.9l-.5.8z"/>
        <path fill="#171818" d="M206.8 26.5c.2-1-.4-.5-.5-.9 0 0 1-2 3.8-2.1l2 .1c.3.1.5.1.6.5.2.3.3.3 0 .5h-2c-2.8 0-3.1 1.7-3.9 1.9z"/>
        <path fill="#330404" d="M210.8 19.8c0 1.1.8 2.2 1 3.3 0 .6 0 1.2.3 1.6.3.3.7.5 1.1.5l1-.1.3-.1-1.4-9.3c0-.3-.2-1.3-.5-1.9-.2-.4-.4-.6-.7-.5-.2.1-2.2 2.4-2.3 2.2.6 1 1.1 2 1.2 3v1.3z"/>
        <path fill="#171818" d="M207 17.9c0-.3-.1-1-.4-1.2 2.7-1.5 4-3 5-4.2.7.4.8.8.4 1.5l-1.4 1.6c-1 1-2.2 1.8-3.6 2.3z"/>
        <path fill="#090201" d="M209.4 24.2l-4.4-14-1 .3a17736.1 17736.1 0 0 0 4.3 13.8l1-.1z"/>
        <path fill="#171818" d="M213.2 27.6v.5c0 .1 0 .2-.2.3 0 .1-.2.2-.4.1v-.6l.3-.2h.2c.1 0 .2.1.1.2m-4.1-.4l.2 1c0 .2-.2.5-.4.6-.5.3-1.2.2-1.3-.3.3 0 .8 0 1-.4v-.8c-.2-.4-.2-.8-.1-1.1l.1-1c0-.6-.1-.8-.4-1.2.3 0 .9.2 1 .5.5.8-.2 2 0 2.7z"/>
        <path fill="#9AAFC1" d="M208 29.4c-.4.3-.5-.3-.5-.4 0-.2-.4-.6-.3-.7.3-.4 1.2.6.8 1z"/>
        <path fill="#090201" d="M207.9 27c-2 .3-9.2 1.1-16.3.2a27 27 0 0 1-12.6-5.6l-.6.6s5 4.2 10.4 5.4c7.8 1.7 15.4 0 19.2.3l-.1-.9zm-4.3-4.6l.7.8c1-2 2-4.1 2-6.4 0-.4 0-2-.5-1.9-.5.2-.3 1.9-.4 2.3-.2 1.8-.8 3.6-1.8 5.2z"/>
        <path fill="#171818" d="M208 28h-.6c-.2 0-.2-.3-.2-.6v-.6c.2-.2.4-.2.6-.2h.5l.4.3v.3c0 .2.2.4.1.7l-.9.1z"/>
        <path opacity=".3" fill="#BD957D" d="M191.7 22.6c2-1.2 3.9-2.6 5.6-4.2 1-1 2-2 3.2-2l-5.6 7.9c-.3.4-.6 1-.4 1.4 0 .3.3.6.3 1 0 .3-.6.5-1 .4-.4 0-.7-.3-1.1-.5-.4 0-.9 0-1 .4-.2.3 0 .8.5 1 .3 0 .7 0 1.1.2.4 0 .8.3 1 .7l-5.9-.5c-1.4-.1-2.8-.3-4.1 0l-2 .8c-.4.3-.6.5-.6-.2 0-.9 2-1.9 2.7-2.3a40 40 0 0 1 3.4-2l3.9-2z"/>
        <path fill="#8B4939" d="M182.7 32.3z"/>
        <path opacity=".3" fill="#BD957D" d="M210.8 19.8c0 1.1.8 2.2 1 3.3 0 .6 0 1.2.3 1.6.3.3.7.5 1.1.5l1-.1-1-1.3c-.5-1-.7-2-.9-3-.3-1.8-.6-3.6-.2-5.4l.5-1.6c-.2-.4-.4-.6-.7-.5-.2.1-2.2 2.4-2.3 2.2.6 1 1.1 2 1.2 3v1.3z"/>
      </g>
      <path fill="#090201" d="M178.4 21.6c1 .6.2 0 .2 0s12.3 7.2-.9.1c-24.8-9-51.5 15.6-70.6 11.2-17.5-4.1-28.9-.5-28.9-.5v-.5s13.2-4.4 28.2 0c11.1 3.3 28.6-6 44.8-10.7 10.3-3 20.2-3.6 27.2.4z"/>
    </g>
    <ellipse transform="rotate(3.7 72.5 9.7)" fill="#110B0A" cx="72.5" cy="9.6" rx=".2" ry=".4"/>
    <g>
      <path fill="#2B2827" d="M71.8 8.9c.2-.3.8-.4 1-.1.1 0 0 .1 0 .1h-1z"/>
    </g>
    <path opacity=".5" fill="#472107" d="M72.8 12.3l-.5-.1s0 .3.5.2v-.1z"/>
    <path opacity=".3" fill="#472107" d="M72.9 11.1h-.3s0 .2.3.2V11z"/>
  </g>
  <path opacity=".1" d="M68.5 12.8s2.7 1.8 2.6 1.5v-.6l-2.6-1zM15 29.1s3.4 2 3.5 1.7c-.3-.5-.4-.8-.3-1.5-1 0-1.7.1-3.2-.2z"/>
  <path fill="#281C15" d="M18.5 29.7c0 .3-.2.4-.3.4l-.2-.4c0-.3.2-.4.3-.4l.2.4z"/>
  <path opacity=".2" fill="#472107" d="M17.7 33l-.5-.2s0 .3.5.3v-.2z"/>
  <path fill="#E01B22" d="M17.9 32.2h-.2c-.1-.1-.8 0-.8 0s.2.8.8.7c.1 0 .2 0 .1-.3l.1-.2.1-.2z"/>
  <path fill="#3F0300" d="M17 32.2s.7.3 1 .2l-.2.2c-.5 0-.9-.4-.9-.4z"/>
  <path opacity=".3" fill="#472107" d="M18 31.6l-.6-.1.6.2v-.1z"/>
  <ellipse transform="rotate(10.2 17.2 29.7)" fill="#281C15" cx="17.2" cy="29.7" rx=".2" ry=".4"/>
</svg>
