<svg xmlns="http://www.w3.org/2000/svg" width="53.4" height="160.2">
  <ellipse opacity=".2" cx="29.1" cy="154.3" rx="19.1" ry="5.8"/>
  <path fill="#FFF" d="M39 150.6l-1.4.7.5 1.5 1 1 1 .6 1.4.2V152zM19.8 149.2l-2.3 5.9 1.7-.4 2.3-1.6z"/>
  <path d="M26.3 140.9c-.2 2 .1 3.8 0 5.7l-.2 2.6c0 .6-.4 1-.7 1.5 0 .2-.3.4-.4.6-.2.2-.4.3-.7.3l-.8-.2c-.3 0-.5.2-.6.5l-.3.5c-.3 1-.8 1.6-1.6 2.1l-1.7 1-2.8 1.5h-1v-.1c-.7-.4-.8-.6-.7-1.4l.3-1.7c0-.7.4-1.2.9-1.7l.7-.7c.5-.5.6-1 .3-1.7l-.3-1c-.5-1.6 0-3.4-.5-5l-.3-1.5c-.1-.4 1.5-7.4 1.2-7.1m3.1 17c-.2 0-.3.2-.4.4l-.5.8-.9 1c0 .1-.2.3-.1.4l.6-.1.8-.6c.7-.4.6-1.2.6-1.9M41.4 135c-.3-.2 1.3 6.8 1.2 7.2l-.3 1.4c-.5 1.7 0 3.5-.5 5.2l-.3.9c-.3.6-.2 1.2.2 1.7l.8.7c.5.5.8 1 .9 1.7 0 .6.1 1.1.3 1.7.1.8 0 1-.7 1.4h-1l-2.9-1.4-1.6-1a3.9 3.9 0 0 1-1.7-2l-.2-.6c-.1-.3-.3-.5-.7-.5l-.8.2c-.3 0-.5 0-.6-.3l-.5-.6c-.3-.5-1.8-.3-1.8-.8V147c0-1.8-.3-2.9-.5-4.8l-.2-5.3m7.7 15.1v.1c0 .7-.1 1.5.6 2 .3 0 .5.3.8.5.2.2.3.2.6.1 0-.1 0-.3-.2-.4l-.8-1a7 7 0 0 1-.6-.8c0-.2-.1-.4-.4-.5M26.1 10.6s-1-1-2.5-.7c-1.6.3-3.1.3-4 .7-.8.3-3 3.1-3 4.6.2 1.5.4 2.5.8 2.5.4.1.6 1.9 1.7 1.7 1-.2 2.6-5.8 4.5-5.8 1.8-.1 2-2.5 3-1.5 1.1 1 2.7 2.4 3 2.3.3-.1.5-.7 0-1.4-1.4-2-3.5-2.4-3.5-2.4z"/>
  <path fill="#FFC0AD" d="M23.4 13.1s-2.5-.6-3 0-1.4 1.6-2.1 1.6c-.7 0 0 1.7 0 1.7l1 1v1.4l-.3.2-.3-.2c-.5-.4-1-1.1-1.3-1-.6.3-.4.9-.2 1.7.3.8.8 1.9 2.3 2l.4 4.3.7 2 2.2 1.6 1.4 1.5 1.7-1.1 1.5-2 .8-1.5 1-3.5.5-1.8s1.7-.7.8-3c0 0-.7-1-.5-1.8.2-.8-.8-2.3-1.6-2.5-.8-.2-1.3-.6-1.3-1 0-.5-.6-.7-.7-.8 0-.2-1-1.5-1.4-.7-.5.7-.8 2-1.6 1.9z"/>
  <path opacity=".5" fill="#FEDBAE" d="M23.4 13.1s-2.5-.6-3 0-1.4 1.6-2.1 1.6c-.7 0 0 1.7 0 1.7l1 1v1.4l-.3.2-.3-.2c-.5-.4-1-1.1-1.3-1-.6.3-.4.9-.2 1.7.3.8.8 1.9 2.3 2l.4 4.3.7 2 2.2 1.6 1.4 1.5 1.7-1.1 1.5-2 .8-1.5 1-3.5.5-1.8s1.7-.7.8-3c0 0-.7-1-.5-1.8.2-.8-.8-2.3-1.6-2.5-.8-.2-1.3-.6-1.3-1 0-.5-.6-.7-.7-.8 0-.2-1-1.5-1.4-.7-.5.7-.8 2-1.6 1.9z"/>
  <path fill="#FFF" d="M30.8 29.3l-2.3-.3-.8-1.5s-1.6 2.1-2.4 2.5c-.7.3-1.2 1.7-1.2 1.7l.1-1s-3.9-2.9-4.4-4c-.5-.6-1 2.6-1 2.6l1.6 2.6 5 .3 5.4-2.9z"/>
  <ellipse fill="#FFF" cx="25.2" cy="43.7" rx="6.9" ry="12"/>
  <path opacity=".5" fill="#2D1D12" d="M25.4 22.3h-.1c.2.3.3.6.6.8.5.2.4-.3.6-.8l-.6.2-.5-.2z"/>
  <path opacity=".4" fill="#9E4C0B" d="M23.8 23.9v.1l.2.2.1.3.1.2.1.2.2.3.4.3c.2.2.5.3.9.3 1.2 0 1.7-1.1 2-2h-.2c-1.5.2-3.5.1-3.8 0z"/>
  <path fill="#8C0C00" d="M27 25.2c-.4.5-1.1.6-1.8.4-.2 0-.4-.2-.5-.3a4.1 4.1 0 0 1-.4-.8l-.3-.4a10 10 0 0 0 3.7-.2c-.2.4-.3 1-.7 1.3z"/>
  <path fill="#FFF" d="M27.5 24s-1.7.2-3.3 0c0 .2.2.3.4.4.4.2 1 .2 1.2.2.6 0 1.1-.2 1.6-.4l.1-.2z"/>
  <path fill="#BC9682" d="M24.7 26c.5.4 1.2.5 1.8.2-.6.1-1.3 0-1.8-.2z"/>
  <path d="M23.4 25c.7 0 2-.4 2.5-1.5.6 1.1 1.9 1.5 2.6 1.5 2.4 0 2.8-1.7 2.8-1.7-.2.2-.6.4-1.1.4-1 0-1.1-1.7-2.4-1.7-1.3 0-1.9 1-1.9 1s-.5-1-1.8-1-1.5 1.7-2.4 1.7c-.5 0-.9-.2-1-.4 0 0 .3 1.7 2.7 1.7"/>
  <path fill="none" d="M27 10.9h-.3.3zM19.7 11.9c.2.3.5.2.8.2-.4-.4-.4-.4-.8-.2zM28.5 13.2v.1c.4.3.6.6 1.2.6l-.2-.5-.3-.5c-.3-.7-.8-1-1.4-1.4l-.3-.1.6.9c.2.2.4.5.4.9zM23 10.7v-.5c-.2.1-.3.3-.2.4h.3zM21.9 10.8s.2 0 .3-.2l.3-.3c-.6-.1-1 0-1.5.3.4.4.4.4.9.2zM24.9 10.4l-.3-.4-.5.5.4.3.4-.4zM24.3 30.7l-.9-.4c-.1-.1-1.2-.7-2-1.4-1-1-1.6-2.3-1.9-1.7l-.1 1.5v1c0 .5.2.7.8.8l3 .5c.8 0 1-.1 1-.3zM27.8 28l-.5.4-2 1.8c-.2.2-.7.5-.6.7l3.5-.4c.4-.2.1-.8.1-.8 0-.4-.3-2-.5-1.8zM27.7 34.3l-1.8-1-1.2-.4c-.7-.1-1.4 0-2 .4l-2 1.3c-.3.2-.4.4-.3.8l.3.9 1.6 5.4 3 8.2s2.2-9.8 2.4-11.7l.4-3.1c0-.4 0-.7-.4-.8z"/>
  <path fill="none" d="M23.7 49l1.5 6.1 1.2-5.7-1.2 2.4z"/>
  <path d="M50.8 59c-.4-.5-7-25.9-7.3-26.4-.6-.6-1.3-1-2.2-1.1l-2.7-.6-5-1.3c-1.6-.4-3.6-.6-5-1.3 0 0-.3-1.2-.5-1.4-.2-.3-.4.1-.4.1a3 3 0 0 1-.8 1 2 2 0 0 1-1.5.4l-1.3-.1c-1.1-.3-2-1-2.8-1.6l-.4-.4c0-.3-.2-.4-.4-.5-.2.1-.2.3 0 .4.4.6.9 1.2 1.6 1.5l.4.4c.3.4.7.5 1.1.6l2 .1h.3c.2.2.1.3 0 .4l-1.2 1.1c-.2.2-.3.2-.5 0L22 28.9c-.5-.4-.9-.8-1.2-1.3-1-1.2-.2-1.3-.5-2.7l-.5-1.5v.5l.1 1.6c0 .3-.5.8-.7 1-.6.5-.3 1.5-.7 2l-1 .5-1.9 1-2.2 1c-1.4.8-3 1.4-4.6 2-.6.1-1.7.5-2.2.8-.5.1-1.7 2.3-2 2.7-.5 1.4-3.4 20.8-3.6 21.1C.5 58.7-.4 79.8.8 81.4c.3.3 7.1-1 7.1-1-1.5-3.7.3-18.2.4-18.6l2.7-15c.2-.3 1.3 17.9 1.3 18.2a8879.3 8879.3 0 0 0-1.5 14.4v.2c-.5 1.1 0 .4 0 1.6v4.3c0 .4 0 .8.4 1.1l.2.5.4 5.2.5 3 .3 2.9.4 2.4c.4 1.7.6 3.4.7 5.2l2.7 40.2 10-2.7v-54l2.6-.4 1.8 54.6 11.8 2s-1.2-54.7-1.1-56.1l.3-2.7c.2-.7.2-1.5.2-2.3-.1-3.6 1.3-1 1.2-4.5 0-.9-.1-1.6-.3-2.4l-2.1-12.3c-.2-3-1.3-20.4-.8-19.2-.5-1.2 3.6 14.9 3.7 15 .4.8 3.2 14.4 1.7 17.2l6.8 1.9c1-4.5-.3-18.2-1.4-21zM19.4 29.6v-.9l.1-1.5c.3-.6.9.8 2 1.7.7.7 1.8 1.3 2 1.4l.8.4c-.1.2-.3.4-1 .3-1 0-2.1-.3-3.1-.5-.6 0-.8-.3-.8-.9zm5.8 25.5l-1.5-6 1.5 2.7 1.2-2.4-1.2 5.7zm3-20l-.5 3.1c-.2 1.9-2.4 11.7-2.5 11.7l-2.9-8.2-1.6-5.4-.3-.9c0-.4 0-.6.3-.8l2-1.3c.6-.4 1.3-.5 2-.4.4 0 .8.2 1.2.4l1.8 1c.3.1.5.4.4.8zm0-4.7c-.6.2-3.4.6-3.5.5-.1-.2.4-.5.6-.7l2-1.8.5-.5c.2-.2.5 1.4.5 1.8 0 0 .3.6-.1.8zM16.5 19.5zM17.3 17l-.2-1c-.3-.8-.2-1.6.2-2.3l.4-.5 1-1.5c.3-.5.6-.9 1.1-1.1.4-.1.4 0 .5.2l.3.6H20c-.6 0-1 .4-1 1 0 .4 0 .6-.3.8l-1.3 1 .5-.2 1.2-.7c.3-.1.4-.4.3-.7v-.2c.4-.2.6 0 1 .4l-.8.6.1.5h-1c-.8.2-1.2 1-.9 1.7.1.2.2.4.1.6-.2.5 0 1 .2 1.4.2.2.3.2.5 0 .1 0 .2 0 .3-.2 0 .2.1.3 0 .4-.2.2-.2.4-.2.6L19 22l.1.2h.5c.4-.7.4-4 .1-4.6-.2-.5-.5-1-.3-1.6-.6.1-.7.1-.9-.4.5-.2.3-.8.8-1.1h.7c.4.1.5 0 .5-.3 0-.6.2-1 1-.8l.7.2a6.3 6.3 0 0 0 2.9.4c.3-.1.4-.3.3-.7l-.2-.6v-.4c-.1-.5 0-.7.6-.5v.4c.1.4.2.5.6.4h.3l-.4.6c-.2.2-.1.5 0 .7 0 .2.1.2.3.2h1.1c.3 0 .6 0 .8.2.7.2 1.1.9 1.2 1.6 0 1.5 0 2.7-.2 4.1v1.1l.7-.2.6-.7c0-.1 0-.3-.2-.3l-.2.6c-.1.2-.3.2-.5.1l.2-2.2.4.4c0-.4.1-.7-.1-1a1 1 0 0 1-.2-.8v-1l-.1-1.7-.4-1.1a6.1 6.1 0 0 0-2.8-2.8l-2-.8h-.2c-.5.2-1 .2-1.4.1-.9 0-1.8 0-2.6.2-1 .3-1.8.8-2.4 1.6L17 13c-.7 1-.9 2-.5 3.3l.7.6zm2.4-5.1c.4-.2.4-.2.8.2-.3 0-.6 0-.8-.2zm7.8-.5h.3c.6.4 1.1.8 1.4 1.5 0 .2.2.3.3.5l.2.5c-.6 0-.8-.3-1.2-.6v-.1c0-.4-.2-.7-.4-1l-.7-.7v-.1zm-.8-.5h.3-.3zm-2.1-.9c0 .2.2.3.3.4l-.4.4-.4-.3.5-.5zm-1.6.2v.5h-.2c0-.2 0-.4.2-.5zm-.5.1l-.3.3-.3.2c-.5.2-.5.2-.9-.2.6-.4 1-.4 1.5-.3z"/>
  <path fill="#BC9682" d="M29.8 21.1s.6.2 1.2-1c.6-1 .9-2.8.2-3s-1 .4-1 .5H30l-.2 3.5z"/>
  <ellipse fill="#302927" cx="23.2" cy="19" rx=".5" ry=".8"/>
  <ellipse fill="#302927" cx="27.5" cy="19" rx=".5" ry=".8"/>
  <g>
    <ellipse fill="#4D667F" cx="24.5" cy="3.8" rx="6" ry="1.9"/>
    <path d="M33 12.4s-1.3-1.9-4.7-2.3c-3.4-.4-7.8 4.2-7.8 4.2l3 2.5 7.9-1 1.7-3.4z"/>
    <path d="M33.7 14.1c0-1.2-1-2.4-2.7-3.2l.2 2.8v.2c0 .1-1.1 2.3-6.7 2.3a.3.3 0 0 1-.4-.4c0-.2.2-.3.4-.3h.7c4-.2 5.1-1.5 5.3-1.8l-.2-3.1c-.1-4.1.4-6 .7-7 .3-1 .3-1.2-.3-1.8C29.4.5 26.7 0 25.2 0h-1c-1.6 0-4.8.1-6.1 1.5-1.7 1.7.5 1.3.2 9.3-1.8.8-3 2-3 3.3 0 2.6 4.1 4.6 9.2 4.6s9.2-2 9.2-4.6M18.5 3.4c.1-.2 3.3 1 6 1 2.8 0 5.6-1.2 5.7-1 0 .4-3 1.7-5.6 1.7-2.8 0-6.2-1.2-6-1.7"/>
  </g>
  <path fill="#FFC7A3" d="M19.6 22.3s-1 .2-2-1.2c-.9-1.4-1.2-3.6-.3-3.8.9-.2 1.4.4 1.5.5l.4.3.4 4.2z"/>
  <path fill="#BC9682" d="M24.9 30.2c-.3 0-.1.4-.6.2-1-.5-2.6-1.8-2.6-1.8a8.9 8.9 0 0 1-1.8-2.2l-.3-4a9 9 0 0 0 3.7 4.6 7 7 0 0 0 1.6.6v2.6zM27.6 27l.1.8-2.8 2.3v-2.5s1.5.2 2.7-.7z"/>
  <path fill="#FFC0AD" d="M27.7 27.3v.5L24.9 30v-2s1.4 0 2.8-.8z"/>
  <path opacity=".5" fill="#FEDBAE" d="M27.7 27.3v.5L24.9 30v-2s1.4 0 2.8-.8z"/>
  <path d="M30.1 17.7l-.3 3.4s-.4.3-.5-1.2v-2l.8-.2z"/>
  <circle cx="24.4" cy="35.4" r=".5"/>
  <circle cx="24.6" cy="39.4" r=".5"/>
  <circle cx="24.9" cy="43.6" r=".5"/>
  <path d="M24 30.5s-4.9-1.5-5.3-1c-.5.6-.3 4.5 1.7 5.3 0 0 1.4 0 3.6-2.7 2-2.6 0-1.6 0-1.6z"/>
  <path fill="#4D667F" d="M23.7 30.9s-4.1-1.2-4.5-.8c-.4.5-.3 3.8 1.5 4.4 0 0 1.2 0 3-2.2 1.7-2.3 0-1.4 0-1.4z"/>
  <path d="M25.1 30.4s4.6-1.4 5-.8c.6.5.4 4.2-1.6 5 0 0-1.3-.1-3.3-2.6-2-2.5-.1-1.6-.1-1.6z"/>
  <path fill="#4D667F" d="M25.6 30.8s4.2-1.2 4.6-.8c.4.5.3 3.9-1.5 4.5 0 0-1.2 0-3-2.3s-.1-1.4-.1-1.4z"/>
  <path d="M24.7 33c-.7 0-1.2-.6-1.2-1.2v-.6c0-.6.5-1 1.1-1h.1c.6 0 1.1.4 1.1 1v.6c0 .6-.5 1.1-1 1.1z"/>
  <path fill="#4D667F" d="M24.9 32.8h-.1a1 1 0 0 1-1-.9v-.4c0-.5.5-1 1-1 .6 0 1 .5 1 1v.4c0 .5-.4 1-1 1z"/>
  <g>
    <path fill="#FFF" d="M51.8 80.3a3.4 3.4 0 0 1-1.7-.6c-.3-.3-.6-.5-1-.6a2 2 0 0 0-1 0l-1 .2a3 3 0 0 1-.6-.1c-.5-.1-1.1-.2-1-.7.5-1 1.4-1.2 2.2-1.3h.7l1.3.1c.6.2 1 .4 1.2.7.3.2.5.4 1 .5.6.2.7.8.6 1.2 0 .4-.3.6-.7.6z"/>
    <path d="M48.4 77.4c.5 0 .9 0 1.2.2 1 .3 1.2 1 2.2 1.2.4.2.5.5.4.8 0 .3-.1.4-.4.4h-.3c-1-.3-1.3-1-2.4-1.2a2.3 2.3 0 0 0-1 0l-1 .2h-.5c-.3-.2-.9-.3-.8-.5.4-.9 1.4-1 2.1-1l.5-.1m0-.6H48l-.3.1c-.8.1-1.8.3-2.3 1.4v.1c-.2.8.7 1 1.1 1l.7.2 1-.2a2 2 0 0 1 .9 0l1 .5c.3.2.7.5 1.4.6h.4a1 1 0 0 0 1-.7c.2-.7-.2-1.3-.9-1.5l-.8-.5c-.3-.3-.7-.6-1.3-.8a5 5 0 0 0-1.4-.2z"/>
    <path fill="#FFF" d="M53.3 79.6v-.1z"/>
  </g>
  <path fill="#FFC0AD" d="M51 82.5l.1-1.8c0-.2 0-.4-.2-.5-.6-.6-1.3-1-2.1-1h-1.4c-.2-.1-.4 0-.6.1l-2.6 2c-.3.1-.5.4-.5.7l-.3 2.2v1.4c0 .2.2.3.4.3s.3 0 .4-.2l.1-.2c.2-.9.5-2.4.7-2.5.2.1.5.5.5.7l-1 4.4.4.7c1.5 0 3-.8 4-1 2.2-2.2 2-5.2 2-5.3z"/>
  <path opacity=".5" fill="#FEDBAE" d="M51 82.5l.1-1.8c0-.2 0-.4-.2-.5-.6-.6-1.3-1-2.1-1h-1.4c-.2-.1-.4 0-.6.1l-2.6 2c-.3.1-.5.4-.5.7l-.3 2.2v1.4c0 .2.2.3.4.3s.3 0 .4-.2l.1-.2c.2-.9.5-2.4.7-2.5.2.1.5.5.5.7l-1 4.4.4.7c1.5 0 3-.8 4-1 2.2-2.2 2-5.2 2-5.3z"/>
  <g>
    <path fill="#FFF" d="M1.5 82.1c-.3 0-.6-.2-.7-.5a1 1 0 0 1 .7-1.2c.4-.1.7-.4 1-.6.2-.2.6-.5 1.1-.6a4.7 4.7 0 0 1 1.8-.2h.3c.7.1 1.7.3 2.1 1.2.2.6-.5.7-1 .8a3 3 0 0 1-.6.1l-1-.1a2.4 2.4 0 0 0-.9 0 3 3 0 0 0-1 .5 3.4 3.4 0 0 1-1.8.6z"/>
    <path d="M5 79.2h.4c.8.2 1.7.3 2.2 1.2 0 .2-.5.3-.8.4h-.6l-1-.1a2.7 2.7 0 0 0-1 0c-1 .2-1.3.9-2.4 1l-.3.1c-.2 0-.3 0-.4-.3 0-.3 0-.7.5-.8 1-.3 1.1-1 2.1-1.3l1.2-.2m0-.5a5 5 0 0 0-1.4.2c-.6.1-1 .4-1.2.7-.3.2-.5.4-.9.5-.7.2-1 .9-.8 1.5.1.7.6.8 1 .8H2l1.4-.7 1-.4h.8l1 .1H7c.5-.2 1.4-.4 1.2-1.1v-.1c-.5-1.2-1.6-1.3-2.4-1.5H5z"/>
    <path fill="#FFF" d="M0 81.4v-.1.1z"/>
  </g>
  <path fill="#FFC0AD" d="M2.4 84.4l-.2-1.9c0-.2 0-.3.2-.5.7-.5 1.4-.9 2.2-1h1.3c.3 0 .5 0 .7.2L9.2 83c.2.2.4.4.5.8L10 86v1.4c0 .2-.2.4-.4.4s-.4 0-.5-.3v-.2c-.3-.8-.5-2.4-.7-2.5-.2.2-.6.6-.5.8l.9 4.3-.4.8c-1.5-.1-3-.8-4-1-2.1-2.2-2-5.3-2-5.3z"/>
  <path opacity=".5" fill="#FEDBAE" d="M2.4 84.4l-.2-1.9c0-.2 0-.3.2-.5.7-.5 1.4-.9 2.2-1h1.3c.3 0 .5 0 .7.2L9.2 83c.2.2.4.4.5.8L10 86v1.4c0 .2-.2.4-.4.4s-.4 0-.5-.3v-.2c-.3-.8-.5-2.4-.7-2.5-.2.2-.6.6-.5.8l.9 4.3-.4.8c-1.5-.1-3-.8-4-1-2.1-2.2-2-5.3-2-5.3z"/>
  <path fill="#4D667F" d="M18.5 9.8v3.3s.8 2.4 6.7 2.2c4.4-.1 5.2-1.6 5.2-1.6V9.9s-4.5 3-11.9 0z"/>
  <path opacity=".3" fill="#FFF" d="M18.8 3.5c0-.2 3.1 1 5.8 1 2.6 0 5.4-1.2 5.4-1 .1.4-2.8 1.6-5.4 1.6-2.6 0-6-1.1-5.8-1.6"/>
  <path fill="#BC9682" d="M26.2 19l.4 3.3.3-.3z"/>
</svg>
