<svg xmlns="http://www.w3.org/2000/svg" width="1018" height="76">
  <circle fill="#BDD951" cx="681.67" cy="21.08" r="16.43"/>
  <path fill="#ABCF25" d="M681.79 4.65h-.12a16.43 16.43 0 1 0 0 32.87h.12V4.64z"/>
  <path fill="none" stroke="#744E3B" stroke-width="2.27" stroke-miterlimit="10" d="M681.79 14.05v41.97"/>
  <path fill="none" stroke="#744E3B" stroke-width="1.7" stroke-miterlimit="10" d="M675.27 15.76l6.52 6.23M688.31 15.76l-6.52 6.23M675.27 24.83l6.52 6.23M688.31 24.83l-6.52 6.23"/>
  <g>
    <path fill="#9A7540" d="M1017.8 21.08a16.43 16.43 0 1 1-32.85 0 16.43 16.43 0 0 1 32.86 0z"/>
    <path fill="#643C08" d="M1001.49 4.65h-.12a16.43 16.43 0 1 0 0 32.87h.12V4.64z"/>
    <path fill="none" stroke="#2D1E18" stroke-width="2.27" stroke-miterlimit="10" d="M1001.49 14.05v41.97"/>
    <path fill="none" stroke="#2D1E18" stroke-width="1.7" stroke-miterlimit="10" d="M994.97 15.76l6.52 6.23M1008.01 15.76l-6.52 6.23M994.97 24.83l6.52 6.23M1008.01 24.83l-6.52 6.23"/>
  </g>
  <g>
    <circle fill="#BDD951" cx="16.43" cy="28.05" r="16.43"/>
    <path fill="#ABCF25" d="M16.55 11.63h-.12a16.43 16.43 0 1 0 .12 32.85V11.63z"/>
    <path fill="none" stroke="#744E3B" stroke-width="2.27" stroke-miterlimit="10" d="M16.55 21.02v41.96"/>
    <path fill="none" stroke="#744E3B" stroke-width="1.7" stroke-miterlimit="10" d="M10.03 22.73l6.52 6.23M23.07 22.73l-6.52 6.23M10.03 31.8l6.52 6.23M23.07 31.8l-6.52 6.23"/>
  </g>
  <path fill="#4A8215" d="M472.71 62.3c-2.29 0-4.5.34-6.57.89-4.04-9.63-14.86-16.52-27.59-16.52-16.17 0-29.28 11.08-29.28 24.82 0 1.37.14 2.84.4 3.97h84.13c-2.77-7.37-11.16-13.15-21.09-13.15z"/>
  <g>
    <path fill="#414042" d="M318.19 54.5h6.29v1.65h-6.29zM323.07 16.33h-3.47a.83.83 0 0 0 0 1.65h3.47a.83.83 0 0 0 0-1.65z"/>
    <path fill="#FFEC84" d="M317.8 6.15l1.7 6.56h1.45V6.15zM323.18 12.71l1.7-6.56h-3.16v6.56z"/>
    <path fill="#2D2C2E" d="M321.72 5.63h-4.6l1.97 7.6h4.5l1.96-7.6h-3.83zm-2.23 7.08l-1.69-6.56h3.15v6.56h-1.45zm3.69 0h-1.46V6.15h3.15l-1.7 6.56z"/>
    <path fill="#414042" d="M326.21 5.07c0 .3-.25.55-.55.55h-8.64a.56.56 0 1 1 0-1.12h8.63c.31 0 .56.26.56.57zM321.9.79V0h-1.13v.79a4.01 4.01 0 0 1 1.13 0z"/>
    <path fill="#323133" d="M321.9.79a4.05 4.05 0 0 0-1.13 0 3.87 3.87 0 0 0-3.3 3.72h7.74a3.87 3.87 0 0 0-3.3-3.72z"/>
    <path fill="#373638" d="M320.39 17.98h1.32V54.5h-1.32z"/>
    <path fill="#2D2C2E" d="M321.71 17.98h.58V54.5h-.58z"/>
    <path fill="#373638" d="M319.52 13.24c.3 1.35.35 2.45.35 3.09H322c.01-.56.08-1.7.36-3.1h-2.84z"/>
    <path fill="#2D2C2E" d="M323.15 13.24h-.8c-.27 1.39-.34 2.53-.35 3.09h.8c0-.64.06-1.74.35-3.1z"/>
  </g>
</svg>
