<svg xmlns="http://www.w3.org/2000/svg" width="67" height="148.2">
  <path opacity=".2" d="M67 131.4c.4 6-9.9 14.8-28.3 16s-36.7-2.9-37.1-9c-.4-6.1 14.1-12 32.5-13.3 18.4-1.2 32.5.2 32.9 6.3z"/>
  <ellipse fill="#825019" cx="33.2" cy="16.5" rx="7.2" ry="7.2"/>
  <path fill-rule="evenodd" clip-rule="evenodd" fill="#E9B300" d="M25.1 48.6l16 .1-.3 4.3s4.2 3.6 4.5 10c0 0 10.6 54.8 12.8 56.5 0 0 5.4 9.4 8.4 10 0 0 .5.6-1.4 2.8 0 0-18.1 23-62.5 6 0 0-4.2-2.3-2-4 0 0 3.5.8 5.4-5.4 0 0 5.3-41 7.4-44 0 0 9.2-29.7 12.4-32.4l-.7-3.9z"/>
  <path fill-rule="evenodd" clip-rule="evenodd" fill="#EAEAEA" d="M29.6 17s1.8 1.3 7.5.7l.3 10.7s2.3 4.3 1.5 6.3c-1.6 4-7 7.1-7.4 8 0 0-3.7.1-4.7-3.1a95.5 95.5 0 0 1-3.5-13.8c0-2.3 5.7-2.5 5.8-2.5l.5-6.3z"/>
  <path fill-rule="evenodd" clip-rule="evenodd" fill="#CE9700" d="M28.5 23.9s3.2 6.2 4.8 11l5-10.4 7.9 12.8-8.7 17.5s.3.5-4.4-4.9l-4.7 4.6-2-3.1.4-3.2-4.3-20.4 6-4z"/>
  <circle fill-rule="evenodd" clip-rule="evenodd" fill="#9F6F00" cx="33.3" cy="37.8" r="1"/>
  <circle fill-rule="evenodd" clip-rule="evenodd" fill="#9F6F00" cx="33.3" cy="41.9" r="1"/>
  <circle fill-rule="evenodd" clip-rule="evenodd" fill="#9F6F00" cx="33.2" cy="46.1" r="1"/>
  <path fill-rule="evenodd" clip-rule="evenodd" fill="#FAD111" d="M35.8 60.1s4.5 2.2 9.5-1.4l-3.8-5s-1.2-2.4.4-5.2l3.8-9.4L47 26.2s-.5-1-6-1.6h-4s-1.2 19.7-2 23.7c0 0-.7 8 .7 11.8z"/>
  <path fill-rule="evenodd" clip-rule="evenodd" fill="#E9B300" d="M37 27s-1.3 18.8-1.9 21.4l6.7-15.5-3-4.2v-2L37 27z"/>
  <path fill-rule="evenodd" clip-rule="evenodd" fill="#FBE9A5" d="M37.3 23l-.4 4.1v1.6l1.7-.1 3.3 1.3v-6.6z"/>
  <g fill-rule="evenodd" clip-rule="evenodd">
    <path fill="#F9D02A" d="M16.4 36l.1-8.5s0-4 3.3-2.2c0 0 2 1.9 2.2 3.6L21.2 41l-1.6 9.4.9 9.3s-3 1-3.3 2.3l-.6-.7L15 54s-1-3-.3-7.8L16.4 36z"/>
    <path fill="#26241D" d="M20.8 58.7s-3.6.2-4.6 1.8l2 4.6s2.8 5.6 3.4 6c.5.3 3 .6 3 .6l2.3-.5s.8 0 1.2-.4c.4-.3.4-1 .3-1.1 0-.2-.7-.4-.7-.4s-2-1-2.6-2.5c-.3-.7-3.3-2.3-3.3-2.3l-.7-1.4-.3-4.4z"/>
  </g>
  <path fill="#23140D" d="M37.3 4.5s1 2.6 2 4l-.2 3.4 1.2 1.6s2.5-7.7-1.4-11c-3.8-3.2-1.6 2-1.6 2z"/>
  <path fill="#825019" d="M30.6 4.2s-1.3 2.5-2.4 3.7l-.2 3.4-1.4 2.2S25 5 29.3 2.1c4.2-2.8 1.3 2 1.3 2z"/>
  <path fill="#FFC7A3" d="M28.7 13.5c0 1-.5 1.8-1 1.8-.6 0-1-.8-1-1.8s.4-1.8 1-1.8c.5 0 1 .8 1 1.8zM40.3 13.5c0 1-.5 1.8-1 1.8-.6 0-1-.8-1-1.8s.4-1.8 1-1.8c.5 0 1 .8 1 1.8z"/>
  <path fill="#FFC7A3" d="M33.4 5.8V12l-.7 3.2s0 .6.7.6v4.6s4.1-.3 5.3-4.5.6-7.7.6-7.7l-1.7-3.6s-1.3 1.4-4.2 1z"/>
  <path fill="#FFC7A3" d="M33.4 5.8V12l.6 3.2s0 .6-.6.6v4.6s-4.2-.3-5.5-4.5c-1.2-4-.5-7.7-.5-7.7L29 4.7s1.3 1.4 4.3 1z"/>
  <ellipse fill="#302927" cx="31.3" cy="11.4" rx=".7" ry="1.1"/>
  <ellipse fill="#302927" cx="35.7" cy="11.4" rx=".7" ry="1.1"/>
  <path opacity=".2" fill="#753D17" d="M33 15.1h-.2c.3.2.4.6.7.7.6.3.8-.4 1-.8a5 5 0 0 1-1 .2H33z"/>
  <path opacity=".2" d="M34 15.3c.2 0 .4-.1.5-.3a5 5 0 0 1-1 .2H33 33c.4.2.8.3 1.1.1z"/>
  <ellipse fill="#281C15" cx="35.6" cy="11.3" rx=".6" ry="1"/>
  <path fill="#281C15" d="M37.4 9.6c-.4-.6-1.6-1-2.1-.5v.3h1.1l1 .3v-.1zM30.2 9.6c.3-.6 1.5-1 2-.5.2.1.1.3 0 .3h-1l-1 .3v-.1z"/>
  <path fill="#121317" d="M32.5 9.3s.3.1.3.3c0 .1-.4.3-.8.1s-2.5-.1-3.3.4c0 0 0-.3.8-.6s2-.4 3-.2zM34.6 9.3s-.3.1-.3.3c0 .1.4.3.8.1.4-.2 2.5-.1 3.3.4 0 0 0-.3-.8-.6-.7-.3-2-.4-3-.2z"/>
  <path fill="#CE0D17" d="M33.8 17.2l-.6-.3-1.4.3s.6.8 2 .8c1.3 0 1.8-.7 1.8-.7l-1-.4c-.3-.1-.8.3-.8.3z"/>
  <ellipse fill="#23140D" cx="33.5" cy="3.5" rx="4.6" ry="2.8"/>
  <path opacity=".2" fill-rule="evenodd" clip-rule="evenodd" d="M27.3 9.2c2.7 2.5 7.5 4.6 12.8 5.4.4-1 .2-1.5.2-1.5S28 6.5 27.6 7.6c-.5 1.2-.3 1.6-.3 1.6z"/>
  <path fill-rule="evenodd" clip-rule="evenodd" fill="#FF9A2C" d="M41.4 6.2s-9.5 1.2-15.7-3c0 0 0-3.6 4.6-3.2l7 .9s4.6 1 4.1 5.3z"/>
  <path fill-rule="evenodd" clip-rule="evenodd" fill="#FF9A2C" d="M41.3 6.2s4.7 3 4.8 5.3c0 0 .5 4.6-16.8-1 0 0-9.2-3.5-8-7.7 0 0 1.4-1.2 4.7-.6l-.3 2.5S30.5 9.4 41 9l.2-2.8z"/>
  <path fill-rule="evenodd" clip-rule="evenodd" fill="#825F31" d="M41.4 6.1s-10.3.4-15.7-3l-.2 1.6s5.8 5.5 15.6 4.4l.3-3z"/>
  <g fill-rule="evenodd" clip-rule="evenodd">
    <path fill="#FAD111" d="M30.5 60S26 62.4 21 58.8l3.8-5s1.2-2.5-.3-5.2L20.7 39l-1.4-12.9s-.2-1.3 5.3-1.9l4.6.4s1.2 19.6 2 23.6c0 0 .8 8-.7 11.8z"/>
    <path fill="#E9B300" d="M29.3 27s1.3 18.7 2 21.3l-6.8-15.5 3-4.2v-2l1.8.5z"/>
    <path fill="#FBE9A5" d="M29 23l.4 4 .2 1.7-1.8-.1-3.3 1.3v-6.6z"/>
  </g>
  <g fill-rule="evenodd" clip-rule="evenodd">
    <path fill="#F9D02A" d="M50.8 36l-.2-8.5s0-4-3.3-2.2c0 0-2 1.9-2.2 3.6l.8 13.3 1.6 8.2-.8 9.3s3 1 3.3 2.3l.5-.7 1.7-7.2s.9-3 .2-7.8L50.8 36z"/>
    <path fill="#26241D" d="M46.3 58.7s3.6.2 4.7 1.8l-2.1 4.6s-2.8 5.6-3.3 6c-.6.3-3.1.6-3.1.6l-2.3-.5s-.8 0-1.2-.4c-.4-.3-.3-1-.3-1.1.1-.2.7-.4.7-.4s2-1 2.6-2.5c.3-.7 3.3-2.3 3.3-2.3l.7-1.4.3-4.4z"/>
    <path fill="#24211F" d="M49.6 148.2s-6.8-83.8-7.3-82.8c0 0-1.4-1.5-2.4.4l9 82.4h.7z"/>
  </g>
  <path fill="#BC9682" d="M32.7 18.4c.5.5 1.2.5 1.8.1-.6.2-1.3.2-1.8 0z"/>
</svg>
