<?xml version="1.0" encoding="utf-8"?>
<!-- Generator: Adobe Illustrator 16.0.0, SVG Export Plug-In . SVG Version: 6.00 Build 0)  -->
<!DOCTYPE svg PUBLIC "-//W3C//DTD SVG 1.1//EN" "http://www.w3.org/Graphics/SVG/1.1/DTD/svg11.dtd">
<svg version="1.1" id="Layer_1" xmlns="http://www.w3.org/2000/svg" xmlns:xlink="http://www.w3.org/1999/xlink" x="0px" y="0px"
	 width="80.8px" height="275px" viewBox="0 0 80.8 275" enable-background="new 0 0 80.8 275" xml:space="preserve">
<path fill="#B7CDD1" d="M40.4,38.1h40.4v260.6H40.4V38.1z"/>
<path fill="#9BB0B3" d="M48.201,60.5h9.5v7.9h-9.5V60.5z M63.4,60.5h9.5v7.9h-9.5V60.5z M48.201,79.6h9.5v7.9h-9.5V79.6z M63.4,79.6
	h9.5v7.9h-9.5V79.6z M48.201,98.7h9.5v7.9h-9.5V98.7z M63.4,98.7h9.5v7.9h-9.5V98.7z"/>
<path fill="#9DC2CF" d="M48.201,117.8h9.5v7.9h-9.5V117.8z"/>
<path fill="#9BB0B3" d="M63.4,117.8h9.5v7.9h-9.5V117.8z"/>
<path fill="#9DC2CF" d="M48.201,136.799h9.5v7.9h-9.5V136.799z"/>
<path fill="#9BB0B3" d="M63.4,136.799h9.5v7.9h-9.5V136.799z"/>
<path fill="#9DC2CF" d="M48.201,155.9h9.5v7.899h-9.5V155.9z"/>
<path fill="#9BB0B3" d="M63.4,155.9h9.5v7.899h-9.5V155.9z"/>
<path fill="#9DC2CF" d="M48.201,175h9.5v7.899h-9.5V175z"/>
<path fill="#9BB0B3" d="M63.4,175h9.5v7.899h-9.5V175z"/>
<path fill="#9DC2CF" d="M48.201,194.1h9.5v7.9h-9.5V194.1z"/>
<path fill="#9BB0B3" d="M63.4,194.1h9.5v7.9h-9.5V194.1z"/>
<path fill="#9DC2CF" d="M48.201,213.1h9.5v7.9h-9.5V213.1z"/>
<path fill="#9BB0B3" d="M63.4,213.1h9.5v7.9h-9.5V213.1z M48.201,232.2h9.5v7.9h-9.5V232.2z M63.4,232.2h9.5v7.9h-9.5V232.2z"/>
<g>
	<path fill="#B7CDD1" d="M0,0h40.4v298.7H0V0z"/>
	<path fill="#9BB0B3" d="M7.9,22.4h9.5v7.9H7.9V22.4z M23,22.4h9.5v7.9H23V22.4z M7.9,41.5h9.5v7.9H7.9V41.5z M23,41.5h9.5v7.9H23
		V41.5z M7.9,60.6h9.5v7.9H7.9V60.6z M23,60.6h9.5v7.9H23V60.6z"/>
	<path fill="#9DC2CF" d="M7.9,79.7h9.5v7.9H7.9V79.7z"/>
	<path fill="#9BB0B3" d="M23,79.7h9.5v7.9H23V79.7z"/>
	<path fill="#9DC2CF" d="M7.9,98.7h9.5v7.9H7.9V98.7z"/>
	<path fill="#9BB0B3" d="M23,98.7h9.5v7.9H23V98.7z"/>
	<path fill="#9DC2CF" d="M7.9,117.8h9.5v7.9H7.9V117.8z"/>
	<path fill="#9BB0B3" d="M23,117.8h9.5v7.9H23V117.8z"/>
	<path fill="#9DC2CF" d="M7.9,136.9h9.5v7.899H7.9V136.9z"/>
	<path fill="#9BB0B3" d="M23,136.9h9.5v7.899H23V136.9z"/>
	<path fill="#9DC2CF" d="M7.9,156h9.5v7.899H7.9V156z"/>
	<path fill="#9BB0B3" d="M23,156h9.5v7.899H23V156z"/>
	<path fill="#9DC2CF" d="M7.9,175h9.5v7.899H7.9V175z"/>
	<path fill="#9BB0B3" d="M23,175h9.5v7.899H23V175z M7.9,194.1h9.5v7.9H7.9V194.1z M23,194.1h9.5v7.9H23V194.1z"/>
</g>
</svg>
