<svg xmlns="http://www.w3.org/2000/svg" xmlns:xlink="http://www.w3.org/1999/xlink" width="179.3" height="302">
  <defs>
    <path id="a" d="M0 0h201v317H0z"/>
  </defs>
  <clipPath id="b">
    <use xlink:href="#a" overflow="visible"/>
  </clipPath>
  <g clip-path="url(#b)">
    <path fill="#D8DBE2" d="M-48.7 287.6H174V264l-9-2.5 2.8-4.1-.7-6.3 7-9.2V133.2l-6.6 7-5.9-4-.8-3.4-13.6-5.7-5.3-10-8.5 2.3-5.3-13.7 2.8-5.2-9.3-4.4-3.7-2.5.2-3.2-4-5-6.7 6-26.2-27.6-3.7-22-15-14.2H-48.6z"/>
    <path fill="#BCC2CA" d="M-51.3 23h126L64.7 17H-44.6l-1.3 2.2-2.2-.5-1.4 1.5-1.8.8z"/>
    <path fill="#86909F" d="M-44.5 27.6H62.7L63 23H-44.5z"/>
    <path fill="#535B65" d="M-26.7 88.2h20.8v21.2h-20.8z"/>
    <path fill="#8D94A0" d="M-29 85.9v25.9h25.4V85.9h-25.5zm2.3 2.3H-6v21.3h-20.7V88.2z"/>
    <path fill="#535B65" d="M41.6 88.2h37.3v40.1H41.6z"/>
    <path fill="#8D94A0" d="M39.3 85.9v44.8h42V85.9h-42zm2.3 2.3H79v40.1H41.6v-40z"/>
    <path fill="#BCBCBC" d="M33.8 109.8h18.5l10.4 8.7 3.5-6.4 2 3.8 1.1-6h17.5v20.8h-53z"/>
    <path fill="#535B65" d="M-26.7 187.6h20.8v21.2h-20.8z"/>
    <path fill="#8D94A0" d="M-29 185.3v25.9h25.4v-26h-25.5zm2.3 2.3H-6v21.2h-20.7v-21.2z"/>
    <path fill="#535B65" d="M126.5 186.5h20.8v21.2h-20.8z"/>
    <path fill="#8D94A0" d="M124.2 184.2V210h25.4v-26h-25.4zm2.3 2.3h20.8v21.2h-20.8v-21.2z"/>
    <path fill="#535B65" d="M41.6 186.5h37.3v40.1H41.6z"/>
    <path fill="#8D94A0" d="M39.3 184.2V229h42v-44.8h-42zm2.3 2.3H79v40.1H41.6v-40.1z"/>
    <path fill="#BCBCBC" d="M33.8 208.1h53V229h-53z"/>
    <path fill="#535B65" d="M-26.7 236.7h20.8v21.2h-20.8z"/>
    <path fill="#8D94A0" d="M-29 234.4v26h25.4v-26h-25.5zm2.3 2.3H-6V258h-20.7v-21.3z"/>
    <path fill="#535B65" d="M126.5 235.6h20.8v21.2h-20.8z"/>
    <path fill="#8D94A0" d="M124.2 233.3v26h25.4v-26h-25.4zm2.3 2.3h20.8V257h-20.8v-21.3z"/>
    <path fill="#535B65" d="M41.6 235.6h37.3v40.1H41.6z"/>
    <path fill="#8D94A0" d="M39.3 233.3v44.8h42v-44.8h-42zm2.3 2.3H79v40.2H41.6v-40.2z"/>
    <path fill="#BCBCBC" d="M33.8 257.2h53v20.9h-53z"/>
    <path fill="#535B65" d="M-26.7 39.1h20.8v21.2h-20.8z"/>
    <path fill="#8D94A0" d="M-29 36.8v25.9h25.4v-26h-25.5zm2.3 2.3H-6v21.2h-20.7V39.1z"/>
    <path fill="#535B65" d="M79 79.2H41.5V39.1H75v.1l2.6 2.7 1.4 8z"/>
    <path fill="#8D94A0" d="M72.5 36.8H39.3v44.7h42V63.8l-.6-3.4-3.2-18.6-3.4-3.3-1.6-1.7zM41.6 39h33l3 2.7 1.3 8.2 2.4 13.8-2.4 15.4H41.6V39.1z"/>
    <path fill="#BCBCBC" d="M33.8 60.7h47l.5 3 5.5 4.8v13h-53zM-8.7 160.3l5.1 3.8-1.7 4 2.9 3.7-2.8 1.7 5 5.8-1.7-5.6 2.3-2.2-1.1-1.8.5-1.8 2.1 1.3-.5 6.2 2.2-3.9 3.6.3-2.9-2.6.6-1.4-3.2-2.8-.7-4.8 4.6-3H-.2L-2 156l-2.5.2.6-3-2-2-5 4.5"/>
    <path fill="#535B65" d="M-8.8 153.7l1 .6 2.1 1.2v-.2l-1 4.2-.1.2h.2l4.5 1.5-.2-.1 1 4.9 4.2 2.4v-.1l-.4 2.3L2 173a146.2 146.2 0 0 0 1-4.7v-.1l-4.2-2.5.1.2-.8-5H-2l-4.5-1.6.1.3 1-4.2v-.1h-.1l-2.3-1.1-1-.5z"/>
    <path fill="#535B65" d="M2.8 158.5l-.9.2-1 .3-1.7.6h.1l-2.6-1.7h-.2l-1.5.8-1.5.8-.3.2h.3l1.2.4 1 .2-1-.4-1-.4v.2l1.5-.7 1.5-.7h-.2l2.6 1.6h.1l1.9-.7.9-.3.8-.4zM-1.7 163l.2 1.5.2 1.4-.8 1.5-.8 1.6v.2l1.6 2.9v-.3l-1.9 2v.2l1.2 2 .6 1.1.4.5.1.3.2.2-.1-.2-.2-.3-.3-.5-.5-1.1-1-2.2-.1.2 1.9-1.9h.1v-.2l-1.6-3v.3l.7-1.6.8-1.6v-.1l-.3-1.4-.4-1.5zM54.1 206.1l3 1.7-1 4.3 5 1.4-3.7 5.6 7.4 2.2-.3 1.8.5 2.3.5-2.3.5-2.4-4-2.4 2.4-5.5-2.8-2 .2-2.8s-7-1.5-7.7-1.9z"/>
    <path fill="#BCBCBC" d="M174.1 187.2v-5l-2.7 1.8.6 3.1-2.5-.2-1.8 1.3H162l4.6 3-.7 4.9-3.2 2.7.6 1.4-2.9 2.6 3.6-.3 2.2 4-.5-6.3 2.1-1.3.5 1.8-1 1.8 2.2 2.2-1.7 5.6 5-5.7-2.7-1.8 2.8-3.7-1.7-4 3-3.2"/>
    <path fill="#535B65" d="M173.2 186.5v-.1l1 3.8v.5l-4.6 1.6.2-.2-1 4.9v.1l-4.2 2.3v-.1l.4 2.4.4 2.3-.5-2.3-.5-2.4c1.4-1 2.8-1.7 4.2-2.5l-.1.1.8-4.9v-.1h.2l4.5-1.5-.1.2-1-4.2 1.2-.7s.3.8-1 .8z"/>
    <path fill="#535B65" d="M164.7 189.5l.9.3 1 .2 1.7.6h-.1l2.6-1.7h.2l1.5.8 1.5.8v.2l-1.1.4-1.2.3 1.1-.5 1.1-.4v.3l-1.6-.7-1.5-.8h.2l-2.6 1.6-.1.1-1.9-.7-.8-.4-1-.4zM169.2 194l-.2 1.5-.2 1.5v-.1l.8 1.6.8 1.5v.2l-1.5 3v-.3l1.8 1.9v.2l-1.2 2.1-.6 1-.3.6-.2.2-.2.2.2-.2v-.3l.4-.5.5-1.1 1-2.2.1.2-1.9-1.8-.1-.1v-.2l1.6-2.9v.2l-.7-1.6-.8-1.6.3-1.5.4-1.4z"/>
    <path fill="#BCBCBC" d="M-48.7 223.2l2.2 2.3-1.3 2.9 2 2.7-2 1.3 3.7 4.1-1.2-4 1.6-1.6-.8-1.3.4-1.4 1.5 1-.3 4.5 1.5-2.8 2.7.2-2.1-1.9.4-1-2.3-2-.5-3.6 3.3-2H-44l-1.3-1h-1.8l.4-2.1-2-1.4v3.7"/>
    <path fill="#535B65" d="M-48 219.3l-.1-.1-.7 2.7v.4l3.3 1.1-.1-.1.7 3.5v.1l3 1.7-.3 1.6-.2 1.8.3-1.7.4-1.7v-.1l-3-1.8v.1l-.6-3.6h-.1l-3.3-1.1.1.1.7-3-.9-.5s-.2.6.7.6z"/>
    <path fill="#535B65" d="M-42 221.4l-.6.2-.6.2-1.4.4h.2l-2-1.2-1.2.6-1 .6v.1l.8.3.8.2-.8-.3-.8-.4v.2l1.1-.5 1.1-.5h-.1l1.9 1.2h.1l1.3-.5.7-.3.6-.3zM-45.2 224.7a44.4 44.4 0 0 0 .3 2.1l-.6 1.1-.6 1.2 1.2 2.2v-.2l-1.4 1.4v.2l.9 1.5.4.7.3.4.1.2.1.2v-.2l-.2-.2-.2-.4-.4-.8-.7-1.6v.2l1.3-1.4v-.2l-1-2 .5-1 .5-1.2v-.1a36.7 36.7 0 0 0-.5-2zM126.5 137.4h20.8v21.2h-20.8z"/>
    <path fill="#8D94A0" d="M124.2 135v26h25.4v-26h-25.4zm2.3 2.4h20.8v21.2h-20.8v-21.2z"/>
    <path fill="#535B65" d="M-26.7 137.4h20.8v21.2h-20.8z"/>
    <path fill="#8D94A0" d="M-29 135v26h25.4v-26h-25.5zm2.3 2.4H-6v21.2h-20.7v-21.2z"/>
    <defs>
      <path id="c" d="M-26.7 137.4h20.8v21.2h-20.8z"/>
    </defs>
    <clipPath id="d">
      <use xlink:href="#c" overflow="visible"/>
    </clipPath>
    <g clip-path="url(#d)" fill="#99ADB7">
      <path d="M-17.2 149.8l1.8 5 5.3-1.5 1.1 4 3.2-1.6-.4 26.3-21.6-.3.9-36.3h5.1l.5 5.1z"/>
      <path d="M-21.6 154l6 7.1 5.2 6.9a168 168 0 0 0 4.3 5.5v.4l-.2 5.9-14.1-17-6.9-7.8.2-7.2 5.5 6.2zM-22.2 167l6 7.1 5.2 6.9 4.3 5.5v.4l-.2 5.9-14.1-17-6.9-7.8.2-7.2 5.5 6.1zM-15.2 154.7l5.1-1.4 1.1 4 3.2-1.6-.1 11.3c-3-4.2-6.2-8.2-9.3-12.3zM-18.8 150l1.6-.2 1.6 4.3-3.2-4z"/>
    </g>
    <defs>
      <path id="e" d="M126.1 235.6h21.2v21.2h-21.2z"/>
    </defs>
    <clipPath id="f">
      <use xlink:href="#e" overflow="visible"/>
    </clipPath>
    <g clip-path="url(#f)" fill="#99ADB7">
      <path d="M140.6 247.2l5-1.9-1.4-5.4 4.1-1.2-1.8-3 2.4-.1V257h-12.7v-5.2l5.2-.5z"/>
      <path d="M146.4 246.1l3.2 3.8-.7 6.6-8.2-9.3 5-1.9.7.8zM140.9 251.4l6.5 7.8H141l-5-5.6v-1.8l4.8-.4zM145.5 239.5l2.8-.8-1.2-2 2 1.6.5.2v6l-4-5z"/>
    </g>
    <g>
      <path fill="#BCBCBC" d="M17.3 69.4h-4l-.3 2.3h4.3z"/>
    </g>
    <g>
      <path fill="#BCBCBC" d="M17.2 77.8v2.8l-4.6-.2-.3-3z"/>
    </g>
    <g>
      <path fill="#BCBCBC" d="M7.3 72.8v2.8l-4.6-.1-.3-3z"/>
    </g>
    <g>
      <path fill="#BCBCBC" d="M153.5 230.6h4l.2-2.3h-4.2z"/>
    </g>
    <g>
      <path fill="#BCBCBC" d="M153.6 222.3v-2.9l4.6.2.2 3z"/>
    </g>
    <g>
      <path fill="#BCBCBC" d="M101.3 176.5h4l.2-2.3h-4.2z"/>
    </g>
    <g>
      <path fill="#BCBCBC" d="M101.4 168.2v-2.8l4.6.1.3 3z"/>
    </g>
    <g>
      <path fill="#BCBCBC" d="M108.3 183.2h4l.2-2.3h-4.2z"/>
    </g>
    <g>
      <path fill="#BCBCBC" d="M115.6 179.5h4.1l.2-2.3h-4.3z"/>
    </g>
    <g>
      <path fill="#BCBCBC" d="M108.3 174.8V172l4.7.2.2 3z"/>
    </g>
    <g>
      <path fill="#BCBCBC" d="M96.5 192.7h4l.3-2.3h-4.3z"/>
    </g>
    <g>
      <path fill="#BCBCBC" d="M96.6 184.4v-2.9l4.6.2.3 3z"/>
    </g>
    <g>
      <path fill="#BCBCBC" d="M104.3 189.5v-2.8l4.7.2.2 3z"/>
    </g>
    <g>
      <path fill="#BCBCBC" d="M-29.2 272.1h4l.3-2.3h-4.3z"/>
    </g>
    <g>
      <path fill="#BCBCBC" d="M-29.1 263.8v-2.9l4.6.2.3 3z"/>
    </g>
    <g>
      <path fill="#BCBCBC" d="M-19.2 268.8v-2.9l4.6.2.3 3z"/>
    </g>
    <g>
      <defs>
        <path id="g" d="M126.5 137.4h20.8v21.2h-20.8z"/>
      </defs>
      <clipPath id="h">
        <use xlink:href="#g" overflow="visible"/>
      </clipPath>
      <g clip-path="url(#h)" fill="#99ADB7">
        <path d="M137.8 156.3l-1.9-5-5.4 1.4-1.1-4.1-3.3 1.6.4-26.6 22 .2-.9 37-5.2-.1-.5-5.2z"/>
        <path d="M142.2 152l-6.1-7.3-5.3-7-4.4-5.5v-.5l.3-6 14.3 17.4 7 7.9-.2 7.3-5.6-6.3zM142.9 138.8l-6.2-7.3-5.3-7-4.4-5.5v-.5l.3-6 14.3 17.4 7 7.9-.2 7.2c-1.9-2-3.7-4-5.5-6.2zM135.7 151.3l-5.2 1.4-1.1-4.1-3.3 1.6.2-11.4c3 4.2 6.2 8.3 9.4 12.5zM139.3 156l-1.5.3-1.7-4.4 3.2 4z"/>
      </g>
    </g>
    <g>
      <path fill="#BCBCBC" d="M82 141.6l2 2.1v2.5l.5 4.1.6 1.2 1-1.4.1-2.2V145l2.8 3.6 1.7 1.4 3.7.2-3-1.6.6-1-3.2-1.7-.7-3 4.7-2h-6l-1.8-.8-4.7-3v3.3"/>
    </g>
    <g>
      <path fill="#535B65" d="M41.6 137.4h37.3v40.1H41.6z"/>
      <path fill="#8D94A0" d="M39.3 135v44.8h42V135h-42zm2.3 2.4H79v40H41.6v-40z"/>
      <path fill="#8D94A0" d="M68.9 137.4H65l5.2 22.7h2.5z"/>
      <path fill="#BCBCBC" d="M33.8 158.9h53v20.9h-53z"/>
    </g>
    <path fill="#C7CAD1" d="M-54.3 287.6h233.9V302H-54.3z"/>
  </g>
</svg>
