<svg xmlns="http://www.w3.org/2000/svg" width="466.49" height="227.14">
  <path fill="#565351" d="M459.21 227.14H88.5l.2-36.11H459.4z"/>
  <path fill="#AFAFAF" d="M420.48 18.42h38.93v9.6h7.08v164.89h-7.08v34.23h-30.9V195.4h-7.62z"/>
  <path fill="#CDCEC8" d="M0 7.51h15.86V0l4.18 2.09v5.84H421.7v182.84H.43z"/>
  <path opacity=".55" fill="#64605E" d="M3.78 28.11h15.67v12.8H3.78z"/>
  <path fill="#D8C348" d="M17.51 40.88H3.78V28.12l13.79 10.89z"/>
  <path opacity=".55" fill="#64605E" d="M24.98 28.11h15.67v12.8H24.98z"/>
  <path fill="#EFEFEF" d="M36.88 40.88H25V28.12l11.94 10.89z"/>
  <path opacity=".55" fill="#64605E" d="M44.64 28.11h15.67v12.8H44.64z"/>
  <path fill="#BCBCBC" d="M56.2 40.88H44.64V28.12L56.26 39z"/>
  <path opacity=".55" fill="#64605E" d="M64.44 28.11h15.67v12.8H64.44z"/>
  <path fill="#9B0013" d="M75.03 40.88h-10.6V28.14l10.6 10.83z"/>
  <path opacity=".55" fill="#64605E" d="M84.24 28.11h15.67v12.8H84.24z"/>
  <path fill="#D80909" d="M94.45 40.88H84.24V28.12l10.27 10.89z"/>
  <path opacity=".55" fill="#64605E" d="M102.99 28.11h16.03v12.8h-16.03z"/>
  <path fill="#3D53B2" d="M112.77 40.88h-9.75V28.15l9.73 10.8z"/>
  <path opacity=".55" fill="#64605E" d="M4.01 104.77h15.24v4.01H4.01zM25.2 104.77h15.24v4.01H25.2zM45.13 104.77h15.24v4.01H45.13zM64.05 104.77H79.6v4.01H64.05zM83.82 104.77h15.94v4.01H83.82zM103.55 104.77h15.94v4.01h-15.94zM103.57 115.32h15.94v4.83h-15.94zM121.73 115.32H139v4.83h-17.27zM141.77 115.32h17.27v4.83h-17.27zM161.02 115.32h17.27v4.83h-17.27zM83.69 115.32h15.94v4.83H83.69zM63.19 115.32H80.3v4.83H63.19zM42.99 115.32h17.12v4.83H42.99zM23.58 115.32h17.11v4.83H23.58zM3.75 115.32h15.79v4.83H3.75zM103.57 153.67h15.94v4.83h-15.94zM83.69 153.67h15.94v4.83H83.69zM63.19 153.67H80.3v4.83H63.19zM42.99 153.67h17.12v4.83H42.99zM23.58 153.67h17.11v4.83H23.58zM3.75 153.67h15.79v4.83H3.75zM83.8 143.31h15.94v3.32H83.8zM103.16 143.31h15.94v3.32h-15.94zM63.81 143.31h16.25v3.32H63.81zM44.8 143.31h15.86v3.32H44.8zM25.38 143.31h15.31v3.32H25.38zM4.09 143.31h15.79v3.32H4.09zM4.04 79.81h15.22v3.63H4.04zM25.12 79.81h15.22v3.63H25.12zM44.95 79.81h15.22v3.63H44.95zM64.78 79.81H80v3.63H64.78zM83.88 79.81h16.36v3.63H83.88zM103.49 79.81h16.36v3.63h-16.36zM4.01 53.69h15.81v4.75H4.01zM22.85 53.69H40.3v4.75H22.85zM42.5 53.69h17.45v4.75H42.5zM62.14 53.69h17.45v4.75H62.14zM81.79 53.69h17.45v4.75H81.79zM101.44 53.69h17.45v4.75h-17.45zM121.47 53.69h17.85v4.75h-17.85zM121.47 42.32h17.85v4.75h-17.85zM141.61 42.32h17.85v4.75h-17.85zM161.75 42.32h17.85v4.75h-17.85zM141.28 53.69h17.84v4.75h-17.84zM161.07 53.69h17.85v4.75h-17.85zM3.78 43.15h15.68v3.92H3.78zM24.83 43.15h15.68v3.92H24.83zM44.64 43.15h15.68v3.92H44.64zM64.44 43.15h15.68v3.92H64.44zM84.24 43.15h15.68v3.92H84.24zM103.16 43.15h15.89v3.92h-15.89zM3.15 17.14h17.26V21H3.15zM23.29 17.14h17.26V21H23.29zM43.17 17.14h17.26V21H43.17zM62.94 17.14h17.25V21H62.94zM82.51 17.14h17.25V21H82.51zM101.82 17.14h17.25V21h-17.25zM121.9 17.14h17.26V21H121.9zM141.84 17.14h17.26V21h-17.26zM161.77 17.14h17.25V21h-17.25zM121.9 28.2h17.26v3.86H121.9zM141.84 28.2h17.26v3.86h-17.26zM161.77 28.2h17.25v3.86h-17.25zM121.54 64.1h17.26V69h-17.26zM141.84 64.1h17.26V69h-17.26zM161.77 64.1h17.25V69h-17.25zM121.54 78.92h17.26v4.91h-17.26zM141.84 78.92h17.26v4.91h-17.26zM161.77 78.92h17.25v4.91h-17.25zM121.9 90.19h17.26v4.91H121.9zM141.84 90.19h17.26v4.91h-17.26zM161.77 90.19h17.25v4.91h-17.25zM121.9 103.86h17.26v4.9H121.9zM141.84 103.86h17.26v4.9h-17.26zM161.77 103.86h17.25v4.9h-17.25zM121.9 128.91h17.26v4.9H121.9zM141.84 128.91h17.26v4.9h-17.26zM161.77 128.91h17.25v4.9h-17.25zM121.9 141.23h17.26v4.9H121.9zM141.84 141.23h17.26v4.9h-17.26zM161.77 141.23h17.25v4.9h-17.25zM121.9 153.64h17.26v4.9H121.9zM141.84 153.64h17.26v4.9h-17.26zM161.77 153.64h17.25v4.9h-17.25zM121.9 165.44h17.26v4.9H121.9zM141.84 165.44h17.26v4.9h-17.26zM161.77 165.44h17.25v4.9h-17.25zM121.9 178.59h17.26v4.9H121.9zM141.84 178.59h17.26v4.9h-17.26zM161.77 178.59h17.25v4.9h-17.25zM4.48 129.07h15.19v11.92H4.48z"/>
  <path fill="#EFEFEF" d="M19.67 141H4.5v-11.93l15.21 6.76z"/>
  <path opacity=".55" fill="#64605E" d="M25.46 129.07h15.19v11.92H25.46z"/>
  <path fill="#EFEFEF" d="M40.65 141H25.49v-11.93l15.2 6.76z"/>
  <path opacity=".55" fill="#64605E" d="M4.01 90.09H19.2v12.46H4.01z"/>
  <path fill="#D8C348" d="M19.2 102.54H4.04V90.11l15.21 7.05z"/>
  <path opacity=".55" fill="#64605E" d="M25.15 90.09h15.19v12.46H25.15z"/>
  <path fill="#EFEFEF" d="M37.98 102.54h-12.8V90.11l12.86 7.05z"/>
  <path opacity=".55" fill="#64605E" d="M45.03 90.09h15.19v12.46H45.03z"/>
  <path fill="#BCBCBC" d="M56.01 102.54H45.06V90.11l11 7.05z"/>
  <path opacity=".55" fill="#64605E" d="M63.97 90.09h15.81v12.46H63.97z"/>
  <path fill="#D8C348" d="M75 102.54H64V90.11l11.03 7.05z"/>
  <path opacity=".55" fill="#64605E" d="M83.82 90.09h15.99v12.46H83.82zM4.17 64.42h15.19v12.79H4.17z"/>
  <path fill="#3D53B2" d="M18.52 77.2H4.2V64.42l14.37 8.61z"/>
  <path opacity=".55" fill="#64605E" d="M25.15 64.42h15.19v12.79H25.15z"/>
  <path fill="#9B0013" d="M38.14 77.2H25.17V64.42l13.02 8.61z"/>
  <path opacity=".55" fill="#64605E" d="M44.95 64.42h15.19v12.79H44.95z"/>
  <path fill="#BCBCBC" d="M56.48 77.2H44.95V64.42l11.45 8.16z"/>
  <path opacity=".55" fill="#64605E" d="M64.52 64.42h15.19v12.79H64.52z"/>
  <path fill="#9B0013" d="M75.52 77.2H64.54V64.42l11.03 8.24z"/>
  <path opacity=".55" fill="#64605E" d="M83.93 64.42h16.25v12.79H83.93z"/>
  <path fill="#D80909" d="M94.54 77.2H83.95V64.42L94.6 72.6z"/>
  <path opacity=".55" fill="#64605E" d="M103.49 64.42h16.25v12.79h-16.25z"/>
  <path fill="#D8C348" d="M112.63 77.2h-9.14V64.42l9.08 8.5z"/>
  <path fill="#494949" d="M112.56 72.89h7.2v4.3h-7.2zM37.95 97.16h2.33v5.35h-2.33zM37.92 72.89h2.4v4.32h-2.4zM18.5 72.99h.85v4.2h-.85zM56.42 72.58h3.74v4.63h-3.74zM75.47 72.61h4.23v4.59h-4.23zM94.58 72.56h5.61v4.67h-5.61zM56.03 97.12h4.22v5.39h-4.22z"/>
  <path opacity=".55" fill="#64605E" d="M44.8 129.07h15.86v12.07H44.8z"/>
  <path fill="#BCBCBC" d="M56.48 141.05H44.8v-11.98l11.72 5.45z"/>
  <path fill="#494949" d="M56.51 134.47h4.15v6.65h-4.15z"/>
  <path opacity=".55" fill="#64605E" d="M63.89 129.07h16.06v12.15H63.89z"/>
  <path fill="#D8C348" d="M76.28 141.13H63.92v-12.06l12.4 5.34z"/>
  <path fill="#494949" d="M76.3 134.4h3.69v6.78H76.3z"/>
  <path opacity=".55" fill="#64605E" d="M84.01 129.07h16.06v12.15H84.01z"/>
  <path fill="#9B0013" d="M94.04 141.13h-10v-12.06l10.04 5.74z"/>
  <path fill="#494949" d="M94.01 134.81h6.09v6.36h-6.09z"/>
  <path opacity=".55" fill="#64605E" d="M103.11 129.07h16.06v12.15h-16.06z"/>
  <path fill="#EFEFEF" d="M112.3 141.13h-9.17v-12.06l9.21 5.03z"/>
  <path fill="#494949" d="M112.34 134.15h6.86v7.02h-6.86z"/>
  <path opacity=".55" fill="#64605E" d="M83.8 179.19h15.94v4.2H83.8zM103.21 179.19h15.94v4.2h-15.94zM63.81 179.19h16.25v4.2H63.81zM44.8 179.19h15.86v4.2H44.8zM25.38 179.19h15.31v4.2H25.38zM4.09 179.19h15.79v4.2H4.09zM4.48 165.24h15.19v11.71H4.48z"/>
  <path fill="#EFEFEF" d="M17.87 176.97H4.51v-11.73l13.41 2.83z"/>
  <path opacity=".55" fill="#64605E" d="M25.46 165.24h15.19v11.71H25.46z"/>
  <path fill="#D80909" d="M37.32 176.92H25.49v-11.68l11.88 3.22z"/>
  <path opacity=".55" fill="#64605E" d="M45.03 165.24h15.19v12.07H45.03z"/>
  <path fill="#BCBCBC" d="M55.88 177.26H45.06v-12.02l10.86 2.75z"/>
  <path fill="#494949" d="M55.98 167.89h4.27v9.37h-4.27zM37.16 168.4h3.48v8.51h-3.48zM17.94 168.07h1.69v8.82h-1.69z"/>
  <path opacity=".55" fill="#64605E" d="M63.89 165.24h16.06v12.15H63.89z"/>
  <path fill="#9B0013" d="M74.87 177.34H63.92v-12.1l11 2.83z"/>
  <path fill="#494949" d="M74.89 168h5.1v9.33h-5.1z"/>
  <path opacity=".55" fill="#64605E" d="M84.01 165.24h16.06v12.15H84.01z"/>
  <path fill="#EFEFEF" d="M94.04 177.36h-10v-12.12l10.04 3.24z"/>
  <path fill="#494949" d="M93.49 168.26h6.61v9.08h-6.61z"/>
  <path opacity=".55" fill="#64605E" d="M103.11 165.24h16.06v12.15h-16.06z"/>
  <path fill="#3D53B2" d="M113.38 177.34h-10.25v-12.1l10.28 2.82z"/>
  <path fill="#494949" d="M113.4 168.05h5.78v9.28h-5.78zM75.05 97.14h4.75v5.37h-4.75z"/>
  <path fill="#3D53B2" d="M93.99 102.54H83.82V90.11l10.2 7.05z"/>
  <path fill="#494949" d="M93.98 97.16h5.83v5.4h-5.83z"/>
  <path opacity=".55" fill="#64605E" d="M103.55 90.09h15.99v12.46h-15.99z"/>
  <path fill="#3D53B2" d="M112.46 102.54h-8.91V90.11l8.95 7.05z"/>
  <path fill="#494949" d="M112.42 97.16h7.11v5.35h-7.11z"/>
  <path fill="#CDCEC8" d="M142.29 195.7h58.55v31.44h-58.55z"/>
  <path fill="#CDCEC8" d="M236.04 212.38h-35.3v-3.06h35.5zM260.4 212.38h-22.1l.17-3.06h21.93zM33.76 195.44h2.92l-7.48 31.7h-2.3zM70.61 195.44h2.18l-6.44 31.7h-2.3z"/>
  <path fill="#CDCEC8" d="M237.11 195.7h2.18l-1.68 31.44h-2.3z"/>
  <path opacity=".6" fill="#8E8985" d="M260.74 195.44h2.24l-.78 31.7h-2.32zM273.89 195.44h2.24l-.78 31.7h-2.32z"/>
  <path fill="#CDCEC8" d="M294.55 195.44h2.25l-.79 31.7h-2.32z"/>
  <path opacity=".6" fill="#8E8985" d="M311.25 195.44h2.6l-.1 31.7h-2.32z"/>
  <path fill="#CDCEC8" d="M345.8 195.44h2.62l-.1 31.7h-2.33zM379.64 195.44h2.6l1.55 31.7h-2.33zM408.02 195.44h2.61l2.17 31.7h-2.33z"/>
  <path opacity=".6" fill="#8E8985" d="M329.9 195.44h2.59l-.95 4.02-.1 27.68h-2.32l-.16-27.84z"/>
  <path fill="#CDCEC8" d="M87.5 195.44h19.52l-.73 31.7H87.1z"/>
  <path fill="#8E8985" d="M36.67 195.44H70.6l-6.68 31.7H29.27zM72.71 195.44h14.8l-.32 31.7H66.3z"/>
  <path fill="#CDCEC8" d="M106.52 209.32h35.77v3.76h-35.77z"/>
  <path opacity=".55" fill="#64605E" d="M181.69 68.3h17.06v3.13h-17.06zM201.41 68.3h17.06v3.13h-17.06zM221.14 68.3h17.06v3.13h-17.06zM240.86 68.3h17.06v3.13h-17.06zM260.59 68.3h17.06v3.13h-17.06zM280.1 68.3h17.09v3.13H280.1zM299.96 68.3h18.26v3.13h-18.26zM320.98 68.3h18.05v3.13h-18.05zM341.65 68.3h17.53v3.13h-17.53zM361.12 68.3h18.11v3.13h-18.11zM381.2 68.3h17.53v3.13H381.2zM401.17 68.3h17.32v3.13h-17.32zM181.59 42.63h17.06v3.13h-17.06zM201.41 42.63h17.06v3.13h-17.06zM221.14 42.63h17.06v3.13h-17.06zM240.86 42.63h17.06v3.13h-17.06zM260.59 42.63h17.06v3.13h-17.06zM280.31 42.63h17.74v3.13h-17.74zM299.96 42.63h18.26v3.13h-18.26zM320.98 42.63h18.05v3.13h-18.05zM341.65 42.63h17.53v3.13h-17.53zM361.12 42.63h18.11v3.13h-18.11zM381.2 43.2h17.53v3.13H381.2zM400.56 43.26h18.13v3.76h-18.13zM181.59 178.72h17.06v4.47h-17.06zM201.41 178.72h17.06v4.47h-17.06zM221.14 178.72h17.06v4.47h-17.06zM240.86 178.72h17.06v4.47h-17.06zM260.59 178.72h17.06v4.47h-17.06zM280.31 178.72h17.74v4.47h-17.74zM299.96 178.72h18.26v4.47h-18.26zM320.98 178.72h18.05v4.47h-18.05zM341.65 178.72h17.53v4.47h-17.53zM361.12 178.72h18.11v4.47h-18.11zM381.2 178.72h17.53v4.47H381.2zM400.82 178.72h18.11v4.47h-18.11zM181.59 167.24h17.06v3.78h-17.06zM201.41 167.24h17.06v3.78h-17.06zM221.14 167.24h17.06v3.78h-17.06zM240.86 167.24h17.06v3.78h-17.06zM260.69 167.24h17.06v3.78h-17.06zM280.31 167.24h17.74v3.78h-17.74zM299.96 167.24h18.26v3.78h-18.26zM320.98 167.24h18.05v3.78h-18.05zM341.65 167.24h17.53v3.78h-17.53zM361.12 167.24h18.11v3.78h-18.11zM381.2 167.24h17.53v3.78H381.2zM400.62 167.24h18.11v3.78h-18.11zM181.59 141.56h17.06v3.78h-17.06zM201.41 141.56h17.06v3.78h-17.06zM221.14 141.56h17.06v3.78h-17.06zM240.86 141.56h17.06v3.78h-17.06zM260.59 141.56h17.06v3.78h-17.06zM280.31 141.56h17.74v3.78h-17.74zM299.96 141.56h18.26v3.78h-18.26zM320.98 141.56h18.05v3.78h-18.05zM341.65 141.56h17.53v3.78h-17.53zM361.12 141.56h18.11v3.78h-18.11zM381.2 141.56h17.53v3.77H381.2zM401.5 141.56h18.11v3.78H401.5zM181.59 105.45h17.06v2.91h-17.06zM201.41 105.45h17.06v2.91h-17.06zM221.14 105.45h17.06v2.91h-17.06zM240.86 105.45h17.06v2.91h-17.06zM260.59 105.45h17.06v2.91h-17.06zM280.31 105.45h17.74v2.91h-17.74zM299.96 105.45h18.26v2.91h-18.26zM320.98 105.45h18.05v2.91h-18.05zM341.65 105.45h17.53v2.91h-17.53zM361.12 105.45h18.11v2.91h-18.11zM381.2 105.45h17.53v2.91H381.2zM400.56 105.45h18.13v3.49h-18.13zM181.59 129.67h17.06v3.6h-17.06zM201.41 129.67h17.06v3.6h-17.06zM221.14 129.67h17.06v3.6h-17.06zM240.86 129.67h17.06v3.6h-17.06zM260.59 129.67h17.06v3.6h-17.06zM280.31 129.67h17.74v3.6h-17.74zM299.96 129.67h18.26v3.6h-18.26zM320.98 129.67h18.05v3.6h-18.05zM341.65 129.67h17.53v3.6h-17.53zM361.12 129.67h18.11v3.6h-18.11zM381.07 129.67h17.53v3.6h-17.53zM401.15 129.67h17.53v3.6h-17.53zM181.59 79.16h17.06v3.6h-17.06zM201.41 79.16h17.06v3.6h-17.06zM221.14 79.16h17.06v3.6h-17.06zM240.86 79.16h17.06v3.6h-17.06zM260.59 79.16h17.06v3.6h-17.06zM280.31 79.16h17.74v3.6h-17.74zM181.56 31.41h17.06v2.82h-17.06zM201.41 31.41h17.06v2.82h-17.06zM221.14 31.41h17.06v2.82h-17.06zM240.86 31.41h17.06v2.82h-17.06zM260.59 31.41h17.06v2.82h-17.06zM280.31 31.41h17.74v2.82h-17.74zM300.66 31.41h17.06v2.82h-17.06zM322.25 31.41h17.06v2.82h-17.06zM341.63 31.41h17.58v2.82h-17.58zM381.26 31.41h17.85v2.82h-17.85zM400.95 31.41h17.85v2.82h-17.85zM361.51 31.41h17.74v2.82h-17.74zM299.96 79.16h18.26v3.6h-18.26zM320.98 79.16h18.05v3.6h-18.05zM341.65 79.16h17.53v3.6h-17.53zM361.12 79.16h18.11v3.6h-18.11zM381.2 79.16h17.53v3.6H381.2zM401.19 79.16h18.11v3.6h-18.11zM181.56 15.97h17.11v13.36h-17.11z"/>
  <path fill="#D8C348" d="M187.04 29.32h-5.48V16z"/>
  <path opacity=".55" fill="#64605E" d="M260.59 15.97h17.12v13.36h-17.12zM280.31 15.97h17.77v13.36h-17.77zM300.66 15.97h17.11v13.36h-17.11zM201.41 15.97h17.12v13.36h-17.12zM221.14 15.97h17.11v13.36h-17.11zM240.86 15.97h17.11v13.36h-17.11zM322.25 15.97h17.12v13.36h-17.12zM341.63 15.97h17.48v13.36h-17.48zM361.51 15.97h17.61v13.36h-17.61zM381.26 15.97h17.85v13.36h-17.85zM401.17 15.97h17.58v13.36h-17.58z"/>
  <path fill="#9B0013" d="M206.03 29.3h-4.62V16.02z"/>
  <path fill="#D8C348" d="M224.76 29.3h-3.62V15.97zM243.34 29.3h-2.48V16.02z"/>
  <path fill="#BCBCBC" d="M262.39 29.33h-1.8V15.96zM336.86 29.34h2.5V16z"/>
  <path opacity=".55" fill="#64605E" d="M181.59 53.54h17.11V66.9h-17.11zM260.59 53.54h17.12V66.9h-17.12zM280.1 53.54h17.11V66.9H280.1zM299.96 53.54h18.18V66.9h-18.18zM201.83 53.54h17.11V66.9h-17.11zM221.24 53.54h17.11V66.9h-17.11zM240.86 53.54h17.11V66.9h-17.11zM320.98 53.54h18.05V66.9h-18.05zM341.65 53.54h17.53V66.9h-17.53zM361.12 53.54h18.11V66.9h-18.11zM381.2 53.54h17.52V66.9H381.2zM401.17 53.54h17.32V66.9h-17.32z"/>
  <path fill="#EFEFEF" d="M411.34 29.32h7.41V15.97l-7.45 11.39zM392.92 29.32h6.18V15.95l-6.2 11.4z"/>
  <path fill="#9B0013" d="M373.37 29.29h5.74V15.98l-5.77 11.35z"/>
  <path fill="#BCBCBC" d="M355.23 66.87h3.98V53.5l-4 9.29z"/>
  <path fill="#3D53B2" d="M375.23 66.88h3.98V53.54l-4 9.23z"/>
  <path fill="#BCBCBC" d="M354.42 29.32h4.67V16l-4.63 10.92z"/>
  <path fill="#494949" d="M341.65 62.77h13.54v4.12h-13.54zM361.13 62.78h14.08v4.11h-14.08z"/>
  <path fill="#EFEFEF" d="M392.46 66.88h6.27V53.54l-6.3 9.24z"/>
  <path fill="#494949" d="M381.2 62.76h11.27v4.15H381.2z"/>
  <path fill="#EFEFEF" d="M410.61 66.87h7.88V53.54l-7.92 9.37z"/>
  <path fill="#494949" d="M401.17 62.92h9.43v3.96h-9.43zM186.03 26.9h12.67v2.41h-12.67zM186.15 61.88h12.52v5.01h-12.52zM205.22 26.9h13.3v2.41h-13.3zM224.1 26.9h14.15v2.41H224.1zM242.87 26.9h15.11v2.41h-15.11zM262.06 26.92h15.62v2.41h-15.62zM280.31 26.92h17.77v2.41h-17.77zM300.66 26.87h17.11v2.42h-17.11zM322.25 26.92h15.06v2.41h-15.06zM341.63 26.91h12.84v2.41h-12.84zM361.51 27.21h11.88v2.1h-11.88zM381.26 27.37h11.66v1.96h-11.66zM401.15 27.28h10.22v2.05h-10.22z"/>
  <path fill="#EFEFEF" d="M186.2 66.93h-4.63V53.47l4.6 8.4z"/>
  <path fill="#494949" d="M206.01 61.88h12.96v5h-12.96z"/>
  <path fill="#EFEFEF" d="M206.04 66.93h-4.2V53.48l4.18 8.4z"/>
  <path fill="#494949" d="M224.79 61.87h13.57v5.02h-13.57z"/>
  <path fill="#EFEFEF" d="M224.8 66.9h-3.53V53.51l3.51 8.36z"/>
  <path fill="#494949" d="M243.42 61.87h14.54v5.01h-14.54z"/>
  <path fill="#EFEFEF" d="M243.43 66.9h-2.57V53.5l2.55 8.36z"/>
  <path fill="#494949" d="M262.27 61.87h15.42v5.03h-15.42zM280.1 61.96h17.11v4.93H280.1zM299.96 62.17h18.19v4.71h-18.19zM320.98 62.51h15.66v4.39h-15.66z"/>
  <path fill="#BCBCBC" d="M262.3 66.9h-1.7V53.55l1.68 8.33z"/>
  <path fill="#3D53B2" d="M336.62 66.9h2.4V53.54l-2.38 8.97z"/>
  <path opacity=".55" fill="#64605E" d="M181.59 90.9h17.11v13.36h-17.11zM260.59 90.9h17.12v13.36h-17.12zM280.31 90.9h17.66v13.36h-17.66zM299.96 90.9h18.19v13.36h-18.19zM201.41 90.9h17.12v13.36h-17.12zM221.14 90.9h17.11v13.36h-17.11zM240.86 90.9h17.11v13.36h-17.11zM320.98 90.9h18.05v13.36h-18.05zM341.65 90.9h17.53v13.36h-17.53zM361.12 90.9h18.03v13.36h-18.03zM381.2 90.9h17.56v13.36H381.2zM400.56 90.9h18.11v13.36h-18.11z"/>
  <path fill="#BCBCBC" d="M355.23 104.25h3.98V90.9l-4 7.62z"/>
  <path fill="#3D53B2" d="M374.62 104.26h4.52V90.9l-4.55 8.14z"/>
  <path fill="#494949" d="M341.65 98.57h13.54v5.66h-13.54zM361.12 99.04h13.52v5.24h-13.52z"/>
  <path fill="#EFEFEF" d="M392.5 104.24h6.26V90.92l-6.3 8.01z"/>
  <path fill="#494949" d="M381.2 98.89h11.32v5.36H381.2z"/>
  <path fill="#D8C348" d="M410.82 104.24h7.88V90.9l-7.92 7.88z"/>
  <path fill="#494949" d="M400.56 98.78h10.25v5.49h-10.25zM187.12 97.81h11.58v6.46h-11.58z"/>
  <path fill="#EFEFEF" d="M187.13 104.3h-5.56V90.9l5.53 6.92z"/>
  <path fill="#494949" d="M206.35 97.92h12.21v6.32h-12.21z"/>
  <path fill="#D8C348" d="M206.36 104.23h-4.95V90.9l4.92 6.97zM224.67 104.23h-3.53V90.9l3.51 6.97z"/>
  <path fill="#494949" d="M224.66 97.89h13.54v6.38h-13.54zM243.76 98.17h14.22v6.04h-14.22z"/>
  <path fill="#3D53B2" d="M243.79 104.21h-2.93V90.9l2.91 7.2z"/>
  <path fill="#494949" d="M262.49 98.65h15.21v5.59h-15.21zM280.31 99.87h17.67v4.39h-17.67zM299.96 99h18.2v5.26h-18.2zM320.98 98.98h15.7v5.25h-15.7z"/>
  <path fill="#BCBCBC" d="M262.52 104.28h-1.93V90.9l1.92 7.82z"/>
  <path fill="#EFEFEF" d="M336.63 104.27h2.4V90.92l-2.39 8.1z"/>
  <path opacity=".55" fill="#64605E" d="M181.59 115.28h17.11v12.97h-17.11z"/>
  <path fill="#9B0013" d="M260.59 115.28h17.06v12.97h-17.06zM280.31 115.28h17.74v12.97h-17.74z"/>
  <path fill="#6D6D6D" d="M299.96 115.28h18.16v12.97h-18.16z"/>
  <path opacity=".55" fill="#64605E" d="M201.41 115.28h17.12v12.97h-17.12zM221.14 115.28h17.11v12.97h-17.11zM240.86 115.28h17.11v12.97h-17.11zM320.98 115.28h18v12.97h-18zM341.65 115.28h17.53v12.97h-17.53zM361.12 115.28h18.13v12.97h-18.13zM381.07 115.28h17.54v12.97h-17.54zM401.15 115.28h17.54v12.97h-17.54z"/>
  <path fill="#BCBCBC" d="M355.23 128.22h3.98v-12.94l-4 7.39z"/>
  <path fill="#D80909" d="M374.71 128.27h4.53v-12.99l-4.55 7.69z"/>
  <path fill="#494949" d="M341.65 122.73h13.54v5.52h-13.54zM361.12 122.99h13.58v5.28h-13.58z"/>
  <path fill="#EFEFEF" d="M392.37 128.26h6.26v-12.98l-6.3 7.73z"/>
  <path fill="#494949" d="M381.07 123h11.29v5.26h-11.29z"/>
  <path fill="#EFEFEF" d="M411.1 128.24h7.6V115.3l-7.64 7.61z"/>
  <path fill="#494949" d="M401.15 122.92h9.91v5.33h-9.91zM186.74 121.96h11.9v6.33h-11.9z"/>
  <path fill="#EFEFEF" d="M186.82 128.33h-5.25v-13.05l5.22 6.74z"/>
  <path fill="#494949" d="M206.36 122.19h12.19v6.07h-12.19z"/>
  <path fill="#BCBCBC" d="M206.36 128.25h-4.95v-12.97l4.92 6.94zM224.67 128.25h-3.53v-12.97l3.51 7.14z"/>
  <path fill="#494949" d="M224.62 122.4h13.63v5.88h-13.63zM243.76 122.58h14.22v5.65h-14.22z"/>
  <path fill="#BCBCBC" d="M243.79 128.23h-2.93v-12.95l2.91 7.3z"/>
  <path fill="#494949" d="M262.29 122.91h15.36v5.36h-15.36zM280.31 123.25h17.72v4.97h-17.72zM299.96 123.11h18.14v5.1h-18.14zM320.98 122.94h15.62v5.31h-15.62z"/>
  <path fill="#BCBCBC" d="M262.28 128.23h-1.7v-12.95l1.7 7.63z"/>
  <path fill="#EFEFEF" d="M336.55 128.23h2.4v-12.95l-2.39 7.68z"/>
  <path opacity=".55" fill="#64605E" d="M181.59 152.4h17.11v12.97h-17.11zM260.69 152.4h17.11v12.97h-17.11zM280.31 152.4h17.68v12.97h-17.68zM299.96 152.4h18.13v12.97h-18.13zM201.41 152.4h17.12v12.97h-17.12zM221.14 152.4h17.11v12.97h-17.11zM240.86 152.4h17.11v12.97h-17.11zM320.98 152.4H339v12.97h-18.02zM341.65 152.4h17.53v12.97h-17.53zM361.12 152.4h18.04v12.97h-18.04zM381.2 152.4h17.48v12.97H381.2zM400.62 152.4h18.08v12.97h-18.08z"/>
  <path fill="#BCBCBC" d="M355.23 165.38h3.98V152.4l-4 4.5z"/>
  <path fill="#D8C348" d="M374.63 165.38h4.53v-12.96l-4.55 4.5z"/>
  <path fill="#494949" d="M341.65 156.89h13.54v8.48h-13.54zM361.12 156.92h13.53v8.46h-13.53z"/>
  <path fill="#9B0013" d="M392.42 165.38h6.27v-12.95l-6.3 4.3z"/>
  <path fill="#494949" d="M381.2 156.71h11.22v8.67H381.2z"/>
  <path fill="#EFEFEF" d="M410.85 165.38h7.87V152.4l-7.92 4.09z"/>
  <path fill="#494949" d="M400.62 156.49h10.22v8.88h-10.22zM186.82 156.44h11.82v8.94h-11.82z"/>
  <path fill="#EFEFEF" d="M186.82 165.38h-5.2v-13.01l5.17 4.06z"/>
  <path fill="#494949" d="M205.73 156.58h12.8v8.8h-12.8z"/>
  <path fill="#9B0013" d="M205.77 165.38h-4.36v-12.95l4.34 4.13z"/>
  <path fill="#D8C348" d="M224.67 165.38h-3.53v-12.95l3.51 3.92z"/>
  <path fill="#494949" d="M224.66 156.35h13.62v9.03h-13.62zM243.72 156.28H258v9.09h-14.28z"/>
  <path fill="#D8C348" d="M244.2 165.38h-3.34v-13l3.33 3.9z"/>
  <path fill="#494949" d="M262.35 156.47h15.46v8.91h-15.46zM280.31 156.8h17.71v8.57h-17.71zM299.96 156.88h18.14v8.5h-18.14zM320.98 156.88h15.63v8.5h-15.63z"/>
  <path fill="#BCBCBC" d="M262.39 165.38h-1.7V152.4l1.69 4.01z"/>
  <path fill="#3D53B2" d="M336.59 165.38h2.4V152.4l-2.39 4.47z"/>
  <path fill="#8E8985" d="M13.36 190.72h409.18v4.96H13.36z"/>
  <g fill="#6B6B6B">
    <path opacity=".5" d="M1.93 61.5h177.2v.87H1.93zM2.34 161.43H179.5v.87H2.34zM2.3 12.31h417.84v.87H2.3zM121.58 37.73h298.56v.87H121.58zM121.54 74.3h298.61v.87H121.54zM2.31 86.31h417.81v.87H2.31zM121.59 136.65h298.53v.87H121.59zM121.6 173.96h298.53v.87H121.6zM2.3 186.48h417.83v.88H2.3zM2.42 149.18h417.84v.87H2.42zM1.99 123.5h177.14v.87H1.99zM1.93 111.55h417.85v.88H1.93zM121.85 98.5h57.65v.87h-57.65zM2.31 50.27H420.1v.87H2.31zM2.31 24.49H179.5v.88H2.31z"/>
  </g>
  <g fill="none" stroke="#434435" stroke-width=".94" stroke-miterlimit="10">
    <path d="M1.93 61.26h177.2M2.3 161.13h177.2M2.3 12.11h417.84M121.58 37.46h298.56M121.58 74.09h298.56M2.3 85.99h417.84M121.58 136.4h298.56M121.58 173.65h298.56M2.3 186.18h417.84M2.38 148.92h417.83M1.93 123.25h177.2M1.93 111.35h417.84M121.89 98.2h57.61M2.3 49.99h417.84M2.3 24.32h177.2"/>
  </g>
  <path fill="#494949" d="M17.53 38.98h1.96v1.95h-1.96zM36.86 38.95h3.78v1.95h-3.78zM56.17 38.95h4.13v1.95h-4.13zM75.04 38.95h5.07v1.95h-5.07zM94.44 38.95h5.47v1.95h-5.47zM112.76 38.95h6.25v1.95h-6.25z"/>
</svg>
