<?xml version="1.0" encoding="utf-8"?>
<!-- Generator: Adobe Illustrator 16.0.0, SVG Export Plug-In . SVG Version: 6.00 Build 0)  -->
<!DOCTYPE svg PUBLIC "-//W3C//DTD SVG 1.1//EN" "http://www.w3.org/Graphics/SVG/1.1/DTD/svg11.dtd">
<svg version="1.1" id="Layer_1" xmlns="http://www.w3.org/2000/svg" xmlns:xlink="http://www.w3.org/1999/xlink" x="0px" y="0px"
	 width="1920px" height="200px" viewBox="0 0 1920 200" enable-background="new 0 0 1920 200" xml:space="preserve">
<g>
	<ellipse fill="#643C08" cx="379.78" cy="96.738" rx="13.536" ry="11.499"/>
	<ellipse fill="#9A7540" cx="397.995" cy="93.044" rx="21.292" ry="18.087"/>
	<ellipse fill="#9A7540" cx="378.413" cy="96.515" rx="9.386" ry="7.975"/>
	<ellipse fill="#9A7540" cx="387.199" cy="97.951" rx="9.387" ry="7.974"/>
</g>
<rect y="100.161" fill="#C1AA95" width="1920" height="56"/>
<polyline opacity="0.4" fill="#58595B" points="1920,122 0,122 0,150 1920,150 "/>
<ellipse fill="#4A8215" cx="699.398" cy="95.372" rx="10.426" ry="8.856"/>
<ellipse fill="#4A8215" cx="729.128" cy="95.372" rx="10.427" ry="8.856"/>
<ellipse fill="#4A8215" cx="743.712" cy="85.275" rx="10.427" ry="8.856"/>
<ellipse fill="#4A8215" cx="748.2" cy="93.127" rx="10.427" ry="8.858"/>
<ellipse fill="#4A8215" cx="1005.286" cy="86.537" rx="21.817" ry="18.533"/>
<ellipse fill="#4A8215" cx="1177.497" cy="86.537" rx="21.817" ry="18.533"/>
<g id="XMLID_1651_">
	<g id="XMLID_1664_">
		<path id="XMLID_1665_" fill="#ABCF25" d="M1160.994,0c-10.471,0-18.961,8.49-18.961,18.962c0,3.049,0.725,5.927,2.002,8.48
			c-4.016,4.208-6.486,9.908-6.486,16.186c0,12.948,10.494,23.447,23.445,23.447c0.032,0,0.063-0.002,0.098-0.002V0.003
			C1161.057,0.003,1161.026,0,1160.994,0z"/>
	</g>
	<path fill="#BDD951" d="M1146.584,18.118c0.213-3.558,1.828-6.719,3.922-9.536c0.503-0.674-0.628-1.322-1.123-0.657
		c-2.239,3.014-3.871,6.402-4.1,10.193C1145.232,18.957,1146.535,18.951,1146.584,18.118L1146.584,18.118z"/>
	<path fill="#BDD951" d="M1152.137,6.979c0.512-0.505,1.063-0.959,1.659-1.362c0.69-0.465,0.04-1.592-0.659-1.122
		c-0.684,0.463-1.33,0.982-1.918,1.565C1150.623,6.65,1151.541,7.57,1152.137,6.979L1152.137,6.979z"/>
	<path fill="#BDD951" d="M1142.73,43.931c-0.691-3.496,0.07-6.962,1.387-10.217c0.314-0.78-0.942-1.12-1.253-0.352
		c-1.407,3.481-2.13,7.172-1.394,10.897C1141.635,45.084,1142.893,44.75,1142.73,43.931L1142.73,43.931z"/>
	<path fill="#BDD951" d="M1145.293,31.751c0.366-0.619,0.783-1.197,1.258-1.737c0.549-0.625-0.363-1.553-0.918-0.92
		c-0.547,0.622-1.043,1.287-1.465,2C1143.74,31.816,1144.863,32.473,1145.293,31.751L1145.293,31.751z"/>
	<g id="XMLID_1662_">
		<path id="XMLID_1663_" fill="#BDD951" d="M1184.44,43.628c0-6.278-2.474-11.977-6.491-16.186c1.279-2.553,2.004-5.431,2.004-8.48
			c0-10.439-8.437-18.905-18.861-18.959v67.069C1173.994,67.019,1184.44,56.544,1184.44,43.628z"/>
	</g>
	<g id="XMLID_1652_">
		<g id="XMLID_1659_">
			<g id="XMLID_1660_">
				<rect id="XMLID_1661_" x="1159.765" y="41.775" fill="#744E3B" width="2.284" height="54.6"/>
			</g>
		</g>
		<g id="XMLID_1656_">
			<g id="XMLID_1657_">
				<polygon id="XMLID_1658_" fill="#744E3B" points="1166.847,45.714 1161.133,59.488 1161.133,65.446 1168.956,46.59 				"/>
			</g>
		</g>
		<g id="XMLID_1653_">
			<g id="XMLID_1654_">
				<polygon id="XMLID_1655_" fill="#744E3B" points="1159.765,56.152 1155.822,46.59 1153.713,47.465 1159.765,62.109 				"/>
			</g>
		</g>
	</g>
</g>
<g id="XMLID_38_">
	<g id="XMLID_51_">
		<path id="XMLID_52_" fill="#ABCF25" d="M334.871,44.562c-5.63,0-10.191,4.564-10.191,10.194c0,1.64,0.389,3.187,1.074,4.559
			c-2.156,2.263-3.486,5.327-3.486,8.703c0,6.96,5.642,12.605,12.604,12.605c0.02,0,0.037-0.001,0.055-0.001V44.563
			C334.908,44.563,334.891,44.562,334.871,44.562z"/>
	</g>
	<path fill="#BDD951" d="M327.125,54.302c0.113-1.913,0.982-3.612,2.111-5.127c0.268-0.362-0.34-0.71-0.605-0.352
		c-1.205,1.62-2.082,3.441-2.205,5.479C326.4,54.753,327.098,54.751,327.125,54.302L327.125,54.302z"/>
	<path fill="#BDD951" d="M330.109,48.314c0.277-0.272,0.572-0.516,0.893-0.732c0.372-0.25,0.021-0.857-0.354-0.604
		c-0.369,0.249-0.715,0.528-1.03,0.841C329.297,48.136,329.79,48.631,330.109,48.314L330.109,48.314z"/>
	<path fill="#BDD951" d="M325.053,68.18c-0.371-1.88,0.039-3.743,0.745-5.493c0.171-0.419-0.507-0.603-0.671-0.189
		c-0.76,1.871-1.146,3.855-0.752,5.858C324.465,68.8,325.141,68.621,325.053,68.18L325.053,68.18z"/>
	<path fill="#BDD951" d="M326.431,61.632c0.197-0.333,0.423-0.643,0.677-0.934c0.295-0.335-0.195-0.834-0.494-0.495
		c-0.293,0.334-0.56,0.692-0.786,1.076C325.597,61.667,326.199,62.02,326.431,61.632L326.431,61.632z"/>
	<g id="XMLID_49_">
		<path id="XMLID_50_" fill="#BDD951" d="M347.479,68.018c0-3.375-1.33-6.439-3.49-8.703c0.688-1.373,1.078-2.919,1.078-4.559
			c0-5.612-4.537-10.164-10.141-10.193v36.059C341.861,80.592,347.479,74.962,347.479,68.018z"/>
	</g>
	<g id="XMLID_39_">
		<g id="XMLID_46_">
			<g id="XMLID_47_">
				<rect id="XMLID_48_" x="334.212" y="67.021" fill="#744E3B" width="1.229" height="29.354"/>
			</g>
		</g>
		<g id="XMLID_43_">
			<g id="XMLID_44_">
				<polygon id="XMLID_45_" fill="#744E3B" points="338.02,69.138 334.947,76.544 334.947,79.748 339.152,69.609 				"/>
			</g>
		</g>
		<g id="XMLID_40_">
			<g id="XMLID_41_">
				<polygon id="XMLID_42_" fill="#744E3B" points="334.212,74.75 332.092,69.609 330.957,70.08 334.212,77.953 				"/>
			</g>
		</g>
	</g>
</g>
<ellipse fill="#4A8215" cx="1460.829" cy="96.474" rx="17.989" ry="15.281"/>
<ellipse fill="#4A8215" cx="1674.332" cy="96.474" rx="17.99" ry="15.281"/>
<g id="XMLID_647_">
	<g id="XMLID_1603_">
		<path id="XMLID_1605_" fill="#ABCF25" d="M1490.277,0c-10.471,0-18.961,8.49-18.961,18.962c0,3.049,0.725,5.927,2.002,8.48
			c-4.016,4.208-6.488,9.908-6.488,16.186c0,12.948,10.498,23.447,23.447,23.447c0.032,0,0.063-0.002,0.098-0.002V0.003
			C1490.341,0.003,1490.31,0,1490.277,0z"/>
	</g>
	<path fill="#BDD951" d="M1475.867,18.118c0.21-3.558,1.828-6.719,3.92-9.536c0.504-0.674-0.627-1.322-1.119-0.657
		c-2.242,3.014-3.873,6.402-4.102,10.193C1474.516,18.957,1475.817,18.951,1475.867,18.118L1475.867,18.118z"/>
	<path fill="#BDD951" d="M1481.422,6.979c0.51-0.505,1.061-0.959,1.656-1.362c0.693-0.465,0.041-1.592-0.656-1.122
		c-0.686,0.463-1.33,0.982-1.92,1.565C1479.906,6.65,1480.827,7.57,1481.422,6.979L1481.422,6.979z"/>
	<path fill="#BDD951" d="M1472.013,43.931c-0.69-3.496,0.073-6.962,1.388-10.217c0.314-0.78-0.943-1.12-1.254-0.352
		c-1.406,3.481-2.129,7.172-1.393,10.897C1470.918,45.084,1472.174,44.75,1472.013,43.931L1472.013,43.931z"/>
	<path fill="#BDD951" d="M1474.575,31.751c0.366-0.619,0.784-1.197,1.259-1.737c0.551-0.625-0.363-1.553-0.92-0.92
		c-0.545,0.622-1.039,1.287-1.463,2C1473.025,31.816,1474.146,32.473,1474.575,31.751L1474.575,31.751z"/>
	<g id="XMLID_1600_">
		<path id="XMLID_1602_" fill="#BDD951" d="M1513.725,43.628c0-6.278-2.473-11.977-6.491-16.186c1.279-2.553,2.003-5.431,2.003-8.48
			c0-10.439-8.436-18.905-18.861-18.959v67.069C1503.276,67.019,1513.725,56.544,1513.725,43.628z"/>
	</g>
	<g id="XMLID_1585_">
		<g id="XMLID_1594_">
			<g id="XMLID_1597_">
				<rect id="XMLID_1599_" x="1489.049" y="41.775" fill="#744E3B" width="2.283" height="54.6"/>
			</g>
		</g>
		<g id="XMLID_1589_">
			<g id="XMLID_1590_">
				<polygon id="XMLID_1591_" fill="#744E3B" points="1496.131,45.714 1490.416,59.488 1490.416,65.446 1498.24,46.59 				"/>
			</g>
		</g>
		<g id="XMLID_1586_">
			<g id="XMLID_1587_">
				<polygon id="XMLID_1588_" fill="#744E3B" points="1489.049,56.152 1485.105,46.59 1482.996,47.465 1489.049,62.109 				"/>
			</g>
		</g>
	</g>
</g>
<ellipse fill="#4A8215" cx="1263.321" cy="86.537" rx="21.817" ry="18.533"/>
<ellipse fill="#39630D" cx="1074.282" cy="94.951" rx="21.817" ry="18.532"/>
<ellipse fill="#39630D" cx="1046.095" cy="85.509" rx="28.97" ry="24.609"/>
<ellipse fill="#4A8215" cx="1136.937" cy="95.372" rx="10.426" ry="8.856"/>
<rect y="95" fill="#58A514" width="1920" height="21"/>
<rect y="156" fill="#FFFFFF" width="1920" height="44"/>
</svg>
