<svg xmlns="http://www.w3.org/2000/svg" width="184.8" height="137.3">
  <ellipse opacity=".1" cx="90.7" cy="132.9" rx="86.9" ry="4.4"/>
  <path fill="#B6D388" d="M173 20.2s-2.6 1.7-5 2.2a4 4 0 0 0-1.3.5c-.7.5-2.1 1.2-4 1.2-2.7 0-13.6 7.4-16.9 7.3-3.2 0-3.7.2-3.7.2V34c.2 2.6-1 7.2-1.5 10-.9 4-2.7 9-2.4 10.4-.6-.3-1-.1-2.4-.1l-10-.2c-2.3 1.3-6.4-.6-6.4-.6s-.5-.6-.9-2.3c-.2-.6 0-1.7 0-2.4 0-1.6-.5-2.1-.5-2.3l-.7-4s-9 .2-11.7 0a14.8 14.8 0 0 1-8-4.8c-1-.8-2.1-.3-2.1-1.7v-.2-.1c-.2-1.5-1.5-2.7-.9-4l1-1.7s-1-1.8-.3-2.5c.8-.8 1.7-1.3 1.7-1.3s-.7-1-.3-1.4l.6-.6c.8-1 2.3-2.3 3.5-1.9 1.5.6 3 2 3 2l-.4 2.7s1.4 1.5 1 3.4l.7 2 5.2-1.5c2.4-.7 5.2-1.5 6.9-1.7h.3c9.7-1 13.3-4.1 14.8-5.2 1-.8 1-1.3.7-1.8l-.3-.4c-.3-.7 0-.8 0-.8.2 0 2.1-1.1 3-1l2.7.1c3.6.1 9.7.1 12-.3 3.3-.6 4.8-2.2 7.2-1.8 0 0 3.3-1.4 5.8-2 1.2-.2 2.3-.2 2.8.2l1.3 1 3.7-1.3.9.7c.8.7 1.6 2 1 3.7z"/>
  <path fill="#0C0C0C" d="M130.3 19s1.4.1 1.7.5c.3.5.2 1.6-.6 2-.7.5-1.8 1-1.8.8l-.2-1.1.9-2.1z"/>
  <path fill-rule="evenodd" clip-rule="evenodd" fill="#404041" d="M117.2 12.1c-.3 0-.6.4-.6 1s.1 1.1.4 1.2c.3 0 .6-.4.7-1 0-.6-.2-1.1-.5-1.2z"/>
  <path fill="#E5A57A" d="M126 20.5c-.6 2-6 3-6 3h-3.8c-.5-.3-.8-.8-1-1.3v-1l.4-2.4.2-1.2-.7-.2c-.4 0-.5-.6-.5-1s.1-.6.4-.8c.8-.4 1.9-1.5 2-2.1.2-.5.2-1.7.1-2.4 0-.3.1-.7.4-1l1.9-2 .2.7h1.8c.9 0 1.9.3 2.7.8a7 7 0 0 0 2 1s2.9 1.5 3 2.8l-3.3 2.5s.2 2.8 0 3.5c0-.1 1.8-3.1 3.6-2.3 1.8.9 1.1 3.5-3.4 3.4z"/>
  <path fill="#1E1D1C" d="M134 15c-.6 1-1.4 1.9-2.2 2.6-1.3 1-1.6 2.8-1.7 4-1.8 0-4-1-4-1 4.4 0 5-2.6 3.3-3.5-1.8-.8-3.6 2.2-3.7 2.3.3-.8.1-3.5.1-3.5l2.6-2 .6-.5c0-1.3-3-2.9-3-2.9 2.2.7 5.3 1 7.4 0 .6.7.9 1.3 1 1.9.3 1 0 1.8-.4 2.7z"/>
  <path fill="#2D2B29" d="M126 10.5l1.8.4 1 .1.9.1h1.5a5.5 5.5 0 0 0 .9-.2h.5l.3-.2h.1l.4-.1 2-1s-2.8-2.2-4.4-4.1c-1.6-2-5.5-4.7-9.7-3-4.2 1.6-2 5.5-2 5.5l.3.8s2.8-.4 4.5.8a7 7 0 0 0 2 1z"/>
  <path fill="#A56E49" d="M130 22.5l-7.1 2.4-2.9-1.5s5.4-.8 6-2.9c0 0 2.3 1 4 1v1z"/>
  <path fill="#545352" d="M119.6 8.8s-.6-5.7 5.6-5.3c0 0-3.5.2-4.6 2.7 0 0 3-3 7.8-.4 0 0-6.8-1.7-8.8 3z"/>
  <path fill="#9FB770" d="M132.3 24c-1.5 1-5.1 4-14.8 5 0 0 .6-.8.3-1.2-.4-.4-2.5-1.8-2.5-3 0 0 22.3-3.2 15.4-5.7 0 0 3.2-.3 2 1.8v.2.6l.3.4c.3.5.4 1-.7 1.9z"/>
  <path fill="#EFEEEA" d="M138.6 55.8c-.2.8-.4 1.4-.9 1.4 0 0-6.7-.3-9.9-1-3.1-.7-5.5-1.8-5.5-1.9 1.1.2 2.5.3 3.4-.3l10.1.2c1.5 0 1.8-.2 2.4 0 0 0 .5.8.4 1.6z"/>
  <path fill="#9E5A2D" d="M135.8 117.1s-2.7 1.5-3 2c-.3.3-2 1.1-4 2a29 29 0 0 0-4.3 2.5c-1.8 1.5-3.2 2.3-3.8 1.4-.7-.8-1.7-3.5-2-3.7l.4-.5 5.5-3 8-4.2h.1c.2-.1.5-.2.7 0 .5.4 2 3.3 2.4 3.5z"/>
  <path fill="#2E748E" d="M132.6 113.6h0z"/>
  <path fill="#9E5A2D" d="M109.6 107.2c-.7.7-3.5 4.1-4.9 5.5a40.2 40.2 0 0 0-4.4 5.6c.4 2-3.4 0-3.4 0a15.2 15.2 0 0 1-4.8-3.9c-2-2.4-2.6-4.7-2.6-4.7l4.7-5.6c1.1-1.2 5.2-8.5 10.2-17.8.8-1.5 3.5-4.8 3.6-4.8-1.1 2.2-1.4 5.8-2.2 6.6a10 10 0 0 0-2.5 5.2c-.3 1.4 1.7 3.5 2.8 6.1.6 1.5 2 2.4 2.2 2.8.5.8.2 3.2 1.3 5z"/>
  <path fill="#B56E3A" d="M137.7 65a36 36 0 0 1-4 9.7c-.8 1-2.2 5.4-4.7 7.7-2.5 2.2-3.8 5.9-6.6 9.3l-1.4 1.7c-1.7 2.3-2.2 3.3-2.2 3.3s1.6 2.7 3.4 4.2c1.8 1.4 5.6 7.2 6.3 7.8.7.7 5 3.5 4 5a514.6 514.6 0 0 0-13.4 7s-2.5-1.6-4-3.6c-3.5-4.4-7.7-12.5-8.6-13.8-.8-1.4-4.8-8.2-4.3-10.4.5-2.2 1.5-4.3 2.5-5.8 4.7-7 9-20.5 9.3-21.1.4-.6 2.1-3.4 2.1-4.7 0-1.2 0-4.2 1.2-4.8l2.4-1s-.6-1.4-.3-2c0 0 1.3.5 2.9.8a23.3 23.3 0 0 0 5.6 1.9c3.1.7 9.8 1 9.8 1s.2 5.4 0 7.7z"/>
  <path fill="#B56E3A" d="M138.2 57l-.5.2s.2 5.4 0 7.7a36 36 0 0 1-4 9.8c-.8 1-2.2 5.4-4.7 7.7l-.9.8L132 80c3.6-3 5-6 6.3-10.8 1.3-4.7 0-12.2 0-12.2zM100.7 120.2a8 8 0 0 1-1 2.1c-.6 1-2.5.4-6.8-1.5a9 9 0 0 1-3.4-2.8 19 19 0 0 1-2.8-5.4c.6-.4 1.7-1.5 2.8-2.9a15 15 0 0 0 7.4 8.7s3.8 2 3.4 0l.2.4c.3.4.4 1 .2 1.4z"/>
  <path fill="#E5A57A" d="M184.7 12.6l-.5.2c.8-.7 0-1.3 0-1.3-.9.7-3.7 1.5-3.7 1.5a18.3 18.3 0 0 1-5.4 2.2l-3 1.4c.6.5 1.2 1.4 1.2 2.5.9 0 1.7 0 2.3-.2 1.6-.6 6.1-4.3 6.1-4.3 3.4-.7 3-2 3-2z"/>
  <path fill="#E5A57A" d="M184.2 12.8l-3.3.8-3 1.7 3-2 3.3-.5zM178.2 18.6l-1.1-.5-1.5.8-.5.2s2.3 0 3.1.4c.2.1.4 0 .4-.2s0-.6-.4-.7zM105.6 25c-.7.2-2.2 1.4-2.2 1.4l.3-2.2s-1.4-1.4-3-2c-.3-.1-.8 0-1.2.1.5-1.7 3-4.3 3.5-4.5.3-.2.6.2.7.5l.2.4.8-.3.6.1.1.4.8-.2.3.5c.2.1.2.3.2.3s.7-.4 1.3.2c.5.5-.2 2.3-.2 2.3 1.3 1.8-1.5 3-2.2 3z"/>
  <path fill="#3A0505" d="M139.6 122.2c-1 1.6-3.5.7-4 .7s-2.5 1-2.5 1l-2.2-2.3-.9-1c1.4-.7 2.6-1.2 2.7-1.5l2.3-1.5.7.8 1 1c1.2.7 3 2.8 3 2.8z"/>
  <path fill="#6B342D" d="M142.8 124c-.2-.2-4.6-4.6-6.2-4.6 1.3.7 3 2.8 3 2.8-1 1.6-3.5.7-4 .7s-2.5 1-2.5 1-.8.4-.5 1.5c-.7 1.3-.7 5-1.5 5.8-3.9 4.1-2.2 5-2.2 5s3 1.1 11-3.9c1-.6 1.2-2.1 1.2-2.1l1.4.6 3-3.7s-1.6-2.2-2.7-3zM85.4 129.2c-.3.3-1 .9-1.9 1.1-1.2.4-3.5-2-3.5-2l-.8-1.6c-2.8-2.2-3.8-3.5-4.3-4.7.4.7 1.3 1.5 3.2 2l1.7.7c3 1.3 5 3.2 5.6 4.5z"/>
  <path fill="#6B342D" d="M85.4 129.2c-.3.3-1 .9-1.9 1.1h-.3c-1.2 0-3.2-2-3.2-2l-.8-1.6.6-2c3 1.3 5 3.2 5.6 4.5z"/>
  <path fill="#6B342D" d="M83.2 130.4c-1.2 0-3.2-2-3.2-2l-.8-1.7s.7-.2 1.7.8c1.1 1 3 2.8 2.3 2.9z"/>
  <path fill="#3A0505" d="M91 119.6l-.5 1.1-1.6 3.4-.7.8c-.3-1.6-2.4-2.4-3.5-2.5-1.1 0-2-1.8-2.2-2.3 0-.5 1-.9 1-.9a14.2 14.2 0 0 0 4.2-4 16.9 16.9 0 0 0 3.3 4.4z"/>
  <path fill="#6B342D" d="M88.3 124.9c-.4-1.6-2.5-2.4-3.6-2.5-1.1 0-2-1.8-2.2-2.3 0-.5 1-.9 1-.9s-.5-.4-1.7.2c-1.3.5-4 1-4 1l-2.5-1.5c-.5-.3-1 .6-.8 1.7a3.8 3.8 0 0 0 .2 1.1l.2.3c.4.7 1.3 1.5 3.2 2 3.9 1.2 6.7 3.7 7.3 5.2l.1-.1s4-3.7 3.4-5l-.7.8z"/>
  <path fill="none" stroke="#000" stroke-width=".1" stroke-miterlimit="10" d="M85 58.1z"/>
  <path opacity=".5" fill="#878787" d="M135.7 118.4a13.6 13.6 0 0 1-4.8 3.2l-.9-1c1.4-.7 2.6-1.2 2.7-1.5l2.3-1.5.7.8zM91 119.6l-.5 1.1a9.5 9.5 0 0 1-3.7-4.4l1-1.2a16.9 16.9 0 0 0 3.2 4.5z"/>
  <path fill="#6B342D" d="M77.7 120.4l-2.2.1c-.2 0-.7 1.1-.8 1.2a7.1 7.1 0 0 1-.2-1c-.2-1.2.3-2.1.8-1.8.7.3 2.4 1.5 2.4 1.5z"/>
  <g>
    <path fill="#E5A57A" d="M29.5 28.5l-1.7.4s-4.3-1-7.4-1.5c-3-.5-9.2-1.9-9.8-2.5 0 0-2.6-2.5-3.5-4a.7.7 0 0 0-.6-.4c-1 0-3-.2-3.5 0-.6.2-2.4 1.5-2.9 1.6-.4 0 .2 1.4 2 .4s.6-.6.7-.6l1.3.1s2 1.1 1.9 1.3c-.1.2-3-.8-3.3-1-.2-.2-.5.7 0 1.2l2.5 1.7 1 .7A6 6 0 0 0 9 28l7.6 4.3c1.9 1 7.8 4 9.9 3.5l6-1.6.8-.3c-2.5-1.7-4-5.3-4-5.3z"/>
    <path fill="#0071BC" d="M98.1 72.7c0 3.3-3 7.1-4.3 8.7C92.6 82.9 92 88 92 88s-2.2-10.7-6-13.4l-.9-.5c-4.3-1.4-12.5 11.2-12.5 11.2s-1.3 1.9-3 4.6c-1.5 2.7-.5 5-1.4 5.8-.9.7-8.5-4.9-17.4-7.8-8.8-3-19.7-2.6-19.7-2.6s-5-.8-9.1 1.2c-4 2-4.5 9.2-4.5 9.2l-.2-.1a13.2 13.2 0 0 1 3.3-11.2c1-1 6-6.5 7-8l4.9-7.3c3.7-6.3 9-11.2 10-12 1-.8 4.3-4.6 4.3-4.6l-.1-.7-.2-2.8s-.8-2.3-1.3-5.1a100.7 100.7 0 0 0-2.7-11.1c0 .1-2.5 3.8-3.8 3.4-1.3-.3-3.2-3-3.2-3l-2.1.6c-2.5-1.7-4-5.3-4-5.3a12 12 0 0 0 6.6-4.7c1-1.3 6.4-4 9.7-4-7 3 4.7 10.5 4.7 10.5l4-6.5 2.9 6.4c1.6 0 3-.4 4.3-1 1.5-.8 2.7-1.9 3.6-2.9 1.3-1.4 2-2.8 2-2.8 1.3-1.1 2.4-.7 2.9-.5.3 2.2.5 5 .3 5.8 0 0-2.1 2-1.8 4.6l.3 1.1h-.2s-1.7.8-2 1.2l-.3 2-1.2 8.2a25.5 25.5 0 0 1 3.7 6.3c.6 1.3 1.4 1.8 1.4 1.8 2-.6 8.6.5 12.2 1.6 2.8.8 6.6 3.6 9.6 5.6l2.6 1.8c1.6.9 2.4 2.5 2.9 4.4.4 1.8.5 3.7.5 5.3z"/>
    <g fill="#332E2B">
      <path d="M60.4 19.4l-.5-.2.2 1.3c.4-.6.3-1 .3-1z"/>
      <path d="M64.8 15.8c-.4 1-1.3 2.4-1.9 3.2-.3.5-.6 1-1.3.8-.6 0-1.1-.3-1.2-.4 1.2 1 6.7 4.1 6.7 4.1l1.2-.7c1-3.6-2.1-4.6-3-4.9-1-.3-.5-2.1-.5-2.1z"/>
    </g>
    <path fill="#332E2B" d="M44.9 19.8h.8c3.2-.1 6.3-.5 6.3-.5 2.2-.4 3.1-3.6 3.1-3.6-.4-.7-.7-3-.7-3s-3.4-2-1.7-3.3l.4-.2c.5-.2 1 0 1.2.3.6.6.9 1.7.9 1.7 1.6.6 1.4-4.2 5.2-3.8 3.9.4 4.5-1.8 4.5-1.8s0 1 .4 2.4c.3 1 .6 2.3.5 2.5.3-1 1-2 1.3-3.2.6-1.6 0-4-1.8-5.1C62.9.8 62.3.4 60.7.6c0 0-4-1.7-6.8.6-2.8 2.4-4.2 4.8-4 8.7.3 4-7.4 4.6-5.2 9.8h.2z"/>
    <path fill="#EF4A48" d="M65.9 7s0-.7-.4-1.4c-.3-.7-2.1-.8-2.1-.8-7.5 0-9 4.7-9 4.7-.4-.3-.8-.5-1.3-.3l.3-.7A9.3 9.3 0 0 1 64.9 3c1 .4 1 4 1 4z"/>
    <path fill="#CE9167" d="M55.6 23H55c-2.6.1-4.6-1.7-5.9-3.4l3-.3c2-.4 3-3.7 3-3.7 1.5 2.4 3 3.1 5.3 3.8 0 0 .3 2.7-4.8 3.5z"/>
    <path opacity=".5" fill="#878787" d="M55 23c-2.6.1-4.6-1.7-5.9-3.4l3-.3c2-.4 3-3.7 3-3.7.1.1 1.1 2.5 4.4 3.5 0 0-2.5 2.5-6.4 1.6a3.9 3.9 0 0 0 2 2.3z"/>
    <path opacity=".5" fill="#878787" d="M55.6 23H55c3.1-.4 5.3-1.6 5.4-3.6 0 0 .3 2.7-4.8 3.5z"/>
    <path fill="#0071BC" d="M74.8 38c-2.5 1-4 .3-5.7-3-1.7-3.3 1.2-6.1 1.3-6.2 0 0-2 4.3.5 6.3s4.6 1 5.4-1.9c.3.7.9 4-1.5 4.9z"/>
    <path fill="#E5A57A" d="M75.6 26c1 3 .7 7.2.7 7.2-.8 3-3 3.9-5.4 1.9-2.5-2-.6-6.2-.6-6.3.4-1 0-5.3-.5-7.4-.4-2-1.3-3.5-2-6-.6-2.6.7-4.9.7-4.9-1.3-1 .6-1 1.6-1.4.5-.2.8-.1 1 0l.2.2c.7-.5 1.2 0 1.5.5l.2.3c.6-.6 1.2-.1 1.4.2l.2.2c.3-.1.6 0 .8 0 .4.4 1 1 1.2 1.6.2 1-2.6 6-2.6 6a40 40 0 0 0 1.6 7.8z"/>
    <path fill="#E5A57A" d="M74.4 21.3l-.8-1.7-.9.5 1.3-2c0 .8.1 1.9.4 3.2z"/>
    <path fill="#F2EFE8" d="M67.1 23.5s-3 6.7-9.8 6.7l-2.9-6.4-4 6.5s-11.7-7.5-4.7-10.6l3.4-.1c1.4 1.8 3.7 3.8 6.5 3.3 5-.8 4.8-3.5 4.8-3.5 1.2 1 6.7 4.1 6.7 4.1z"/>
    <path fill="#005D91" d="M23.6 81.2a67.2 67.2 0 0 1-3 3.2c-1 1-4.2 5-3.3 11.2-.6-2.9-5.4-9-6.4-13-1-3.8.8-5.1 1.7-6.8 1-1.6 5-2.2 7.5-2.8l2.2-.6s-9 5-10 7.5c-1 2.6 13.2-5.3 13.2-5.3s-3.7 6.3-4 7.4c-.3 1 2-.7 2-.8z"/>
    <path fill="#005D91" d="M22.3 72.4s-9 5-10 7.5c-1 2.6 13.2-5.3 13.2-5.3s-3.7 6.3-4 7.4c-.3 1 2-.7 2-.8l4.1-4.8 4.9-7.3-10.2 3.3zM31 85.3a51 51 0 0 0-13.5 10.4s.4-7.3 4.5-9.2c4-2 9-1.2 9-1.2zM89.8 96.9c-1.4.7-5.4-3.5-8.3-6-2.8-2.4-8.9-5.6-8.9-5.6s8.2-12.6 12.5-11.2c4.3 1.5 7 13.9 7 13.9.8 4.2-1 8-2.3 8.9z"/>
    <path opacity=".5" fill="#878787" d="M33.4 33.8l-.9.3c-2.2-2-3.3-4.5-3.3-4.5l-1.4-.7 1.7-.4s1.4 3.6 3.9 5.3z"/>
    <path fill="#EF4A48" d="M67.2 134c-.7.1-2.5.6-3.4-1.8-.4-1-.5-3.1-.6-5.3 0 0 .7 2.6 1.8 3.1 1 .5 2.4.8 3-.4.8-1.1 1-3.4 1-3.4.3 1.2.5 2.4.6 3.8.3 4.1-1.7 4-2.4 4z"/>
    <path fill="#E5A57A" d="M69.7 97v-.1-7.1.1c-1.6 2.7-.6 5-1.5 5.8-.5.4-2.8-1-6.3-2.9a143.5 143.5 0 0 0 1 6c.4 1.5-.7 9.3.7 17 0 0 .4 1.8 0 3.8-.2 1.2-.4 4.4-.4 7.3 0 0 .7 2.6 1.8 3.1 1 .5 2.4.8 3-.4.8-1.1 1-3.4 1-3.4-.6-2.6-1.3-5.1-.8-8.1.8-4.4 1.5-7.6 1.8-10.6.3-3.1-.3-10.5-.3-10.5z"/>
    <path fill="#A27251" d="M63 102.2v.5a8 8 0 0 1-3-1c-1.1-1-2-1.5-2-1.5-2.8-.4-3.6-2.6-3.6-2.6l-1.1-2.2c-1-2.7-1.6-5.8-1.8-7.3 4 1.4 7.6 3.2 10.4 4.7a143.5 143.5 0 0 0 1 6v3.4z"/>
    <path fill="#C43333" d="M80 112.7c-.5-1.3-2.5-2.8-3.6-3.6 0 0 2.2.9 2.6-.4.5-1.3-4.6-4.6-5.5-5.5-1-1-3.5-2.4-3.5-2.4v-.5c.6-1.2 1.3-2.4 2.8-1.6 1.5 1 3.1.9 3.5.9s.9 1.5.9 1.5h-1.8c0 2.4 4.3 4.2 5 4.9.9.7 1.8 3.1 2 5.2.2 2-2.4 1.5-2.4 1.5z"/>
    <path fill="#B27A54" d="M70 100.5v.3-.5.2z"/>
    <path fill="#A27251" d="M79 108.7c.5-1.3-4.6-4.6-5.5-5.5-1-1-3.5-2.4-3.5-2.4a85 85 0 0 1 .1 5.2l.4.2 1.3.9c1.2 1 3.2 1 4.2 1.7l.4.3s2.2.9 2.6-.4z"/>
    <path opacity=".2" fill="#878787" d="M69.7 96.9a6 6 0 0 1-1.3.8c-1.2.5-4-1.2-6.1-2.6l-.4-2.3c3.5 1.9 5.8 3.3 6.3 2.9 1-.7-.1-3 1.5-5.8v-.1 7z"/>
  </g>
  <path fill-rule="evenodd" clip-rule="evenodd" fill="#404041" d="M119.8 13.5c-.3 0-.6.4-.6 1s.2 1.1.5 1.2c.3 0 .6-.4.6-1s-.2-1.1-.5-1.2z"/>
  <path fill-rule="evenodd" clip-rule="evenodd" fill="#AF7852" d="M115.8 17.8c.4.4 1.3 0 1-.2 0 0-1.4-.2-1 .2z"/>
  <path fill-rule="evenodd" clip-rule="evenodd" fill="#614134" d="M119 13.2c.5 0 1.3.1 2 .4.3.1.4-.2.2-.3-.2-.2-1.5-.6-2-.6-.6 0-.5.4-.2.5zM116.8 11.4l.7.5c.2.2.5-.1.3-.3a2 2 0 0 0-1-.6s-.2.3 0 .4z"/>
  <path fill-rule="evenodd" clip-rule="evenodd" fill="#761F23" d="M115.7 18.6c.9.5 2.3 1.3 3.2.8 0 0 .1.7-.7 1-1 .5-2.8-.3-2.5-1.8z"/>
  <path opacity=".5" fill-rule="evenodd" clip-rule="evenodd" fill="#EC1C24" d="M118.5 20.3l-.3.2c-.6.3-1.6 0-2.2-.7.2-.1.7-.2 1.2-.1.6 0 1 .3 1.3.6z"/>
  <path fill-rule="evenodd" clip-rule="evenodd" fill="#FFF" d="M116 18.7c.8.5 2 1 2.7.8 0 .2 0 .5-.5.5-.4 0-2.2-.5-2.3-.8v-.5z"/>
  <path fill-rule="evenodd" clip-rule="evenodd" fill="#F4C3AF" d="M117.7 20.8h-1l-.6-.6s.2.6.7.7c.4.2.9 0 .9 0z"/>
  <path fill="#E5A57A" d="M65.5 12.3c.3 2.8-2 7.4-3.7 7.7-1.9.3-5.4-1.5-6.8-4.5-.3-.7-.6-2.8-.6-2.8s-3.4-2-1.7-3.3c1.8-1.3 2.5 1.8 2.5 1.8 1.5.5 1.4-3.6 4.5-3.8h.7C64.3 8 65 5.6 65 5.6l.7 2.3c.6 1.7 0 4.4 0 4.4z"/>
  <g>
    <path opacity=".4" fill="#9B0D24" d="M60.6 16.5s.3 1.6 1.7 1.7c1 0 1.4-1.2 1.6-1.8l-.2-.1-.9-.3-.2.3-.5-.2c-.3-.1-.9.4-1.5.4z"/>
    <path fill="#8C0C00" d="M62.6 17.7c-.5 0-1.2-.2-1.8-1 1.4.1 3-.2 3-.3-.1.4-.5 1.3-1.2 1.3z"/>
    <path fill="#FFF" d="M63.7 16.5l-2.8.1 1.5.2c.5 0 1.3-.3 1.3-.3z"/>
    <path fill="#9E4C0B" d="M61.7 18.2c.3.2.6.2 1 0-.3.2-.7.2-1 0z"/>
  </g>
  <g>
    <path opacity=".6" fill="#753D17" d="M63.1 14.4h.1c0 .2-.1.5-.3.6-.3.3-.6 0-.8-.3h.7l.3-.3z"/>
    <path fill="#EDB89A" d="M62.5 14.8l-.4-.1h.7l.3-.2h.1c-.2.2-.4.3-.7.3z"/>
  </g>
  <ellipse fill="#281C15" cx="60.1" cy="12" rx=".5" ry="1"/>
  <ellipse fill="#281C15" cx="64.3" cy="12" rx=".5" ry="1"/>
  <g>
    <path fill="#281C15" d="M65 9.9c-.2-.5-1.3-.8-1.7-.4-.1 0 0 .2 0 .2h1l.7.3v-.1zM59 9.9c.3-.5 1.3-.8 1.8-.4v.2h-1a3 3 0 0 0-.8.3v-.1z"/>
  </g>
</svg>
