<svg xmlns="http://www.w3.org/2000/svg" width="134.2" height="151.6">
  <path fill="#EDA958" d="M56.2 68.7l-.8.3a53.7 53.7 0 0 1-1 6.2L56 83c1.2-.6 1.6-5 1.1-9.5l-.7-9.1v4.3z"/>
  <path fill="#EFEFEF" d="M56.2 68.7l-.8.3c0 1-.1 2-.3 2.9 0 .5.6-1.5 1.1 1.3 1.3-.6.4-4.6 0-8.8v4.3z"/>
  <path fill="#D4D5D9" d="M52.6 71.7l.7 2.1 4.6-.2V70z"/>
  <path opacity=".1" fill-rule="evenodd" clip-rule="evenodd" d="M50.8 142c11 0 20-2.1 20-4.8 0-2.7-9-4.9-20-4.9S31 134.5 31 137.2s9 4.8 20 4.8z"/>
  <path fill="#333" d="M52.4 134s-.3 1.7 0 1.9l5.4.3.3-.7s2.5.4 3.1.7c0 0 2.3.7 4.2.4 0 0 4-.4 5.3-1.6 0 0 0-1-.3-1 0 0 .2.8-1.4 1.1 0 0-3.8 1-5.8.7 0 0-2-.2-3-.6 0 0-2.3-.7-4.2-.6 0 0-3.3 0-3.6-.7z"/>
  <path fill="#563C31" d="M52.4 134s-.4-2.8.4-3.8c0 0 .4-1.3.3-1.4 0 0 0-.5.5-.4 0 0 3.2.5 6 .2 0 0 .7-.5 1.8.8 0 0 1.5 2.1 3.4 3 0 0 .7.6 3.2.4 0 0 2 .2 2.4 1.3 0 0 .1 1-3.4 1.4 0 0-4.3.8-7-.3 0 0-2.2-.7-4-.6 0 0-2.1 0-3.6-.6z"/>
  <path fill="#563C31" d="M67.7 132.8s-2.4 2.2-2.6 3c0 0 5-.2 5.3-1.7 0 0-.4-1.2-2.7-1.3z"/>
  <path fill="#7B511E" d="M59.4 130.7l2 1.2s1.2.3 1.7-.7a11 11 0 0 1-1.7-1.8c-.5-.6-.9-.8-1.2-.8-.8 1-2.6.7-3.5.6-2.3-.2-3.1-.5-3.4-.8-.2.1-.2.4-.2.4s0 .6-.2 1c0 0 2.8 1.1 6.5 1z"/>
  <path fill="#563C31" d="M59.4 130.7l2 1.2s1.2.3 1.7-.7a11 11 0 0 1-1.7-1.8c-.5-.6-.9-.8-1.2-.8-.8 1-2.6.7-3.5.6-2.3-.2-3.1-.5-3.4-.8-.2.1-.2.4-.2.4s0 .6-.2 1c0 0 2.8 1.1 6.5 1z"/>
  <path fill="#7B511E" d="M59.6 128.6c-2.8.3-6-.2-6-.2h-.3c.3.3 1.1.6 3.4.8.9.1 2.7.4 3.5-.6h-.6z"/>
  <path fill="#7B511E" d="M59.6 128.6c-2.8.3-6-.2-6-.2h-.3c.3.3 1.1.6 3.4.8.9.1 2.7.4 3.5-.6h-.6z"/>
  <path fill="#756455" d="M59.6 128.6c-2.8.3-6-.2-6-.2h-.3c.3.3 1.1.6 3.4.8.9.1 2.7.4 3.5-.6h-.6z"/>
  <path fill="#333" d="M61.4 131.3l-.2-.1.4-.3c.2-.2.4-.4.4-.7h.2c0 .3-.3.6-.5.8-.2 0-.3.2-.3.3zM61 130.4l-.2-.2h.2c.2-.2.6-.4.6-.6l-.1-.2v-.1c.2 0 .3.2.3.3 0 .3-.5.5-.8.7z"/>
  <path fill="#333" d="M63 129.7l-.6-.2-.6-.1v-.2l-.1.1h-.2v-.1c.4-.3 1-.8 1.4-.6.3 0 .5.3.6.5v.4l-.4.2zm-1.2-.5c.2 0 .4 0 .6.2.4 0 .8.2 1 0v-.2l-.5-.5c-.4 0-.8.2-1.1.5z"/>
  <path fill="#333" d="M61.7 129.4c-.3-.1-.7-.4-.7-.7 0-.2.1-.3.4-.4h.4c.3.3 0 1 0 1.1v-1h-.4l-.2.3c0 .2.3.5.5.6v.1z"/>
  <path fill="#333" d="M63 130.2l-.6-.3-.2-.2c-.1-.1-.2-.3-.4-.2v-.2l.6.3.1.2c.2.2.4.3.7.2v.2H63zM60.5 129.7v-.1c.2-.1.6-.4.5-.6h.2c.1.4-.6.7-.7.7zM33.1 135.4s-.6 1.8-.3 2l5.2 1.2.4-.6 3 1.2s2.2 1.1 4 1.1c0 0 4 .4 5.5-.6 0 0 .2-1-.1-1 0 0 0 .8-1.6.8 0 0-3.9.3-5.8-.3 0 0-2-.5-2.9-1.1 0 0-2-1-4-1.4 0 0-3.2-.6-3.4-1.3z"/>
  <path fill="#563C31" d="M33 135.6s.2-2.9 1.1-3.7c0 0 .7-1.2.6-1.4 0 0 0-.4.5-.3 0 0 3 1 6 1.3 0 0 .7-.4 1.6 1 0 0 1 2.4 2.7 3.6 0 0 .6.7 3.1 1 0 0 2 .5 2.2 1.7 0 0 0 1-3.6.8 0 0-4.3 0-6.8-1.6 0 0-2.1-1-3.8-1.3 0 0-2.2-.3-3.5-1.1z"/>
  <path fill="#563C31" d="M48.3 137s-2.7 1.8-3 2.5c0 0 5 .7 5.5-.7 0 0-.2-1.3-2.5-1.8z"/>
  <path fill="#7B511E" d="M40.5 133.5s1.2.9 1.8 1.6c0 0 1.1.5 1.8-.4-.9-1-1.3-2.1-1.3-2.1-.4-.6-.8-1-1-1-1 .8-2.8.3-3.7 0-2.1-.6-3-1-3.2-1.4-.2 0-.2.3-.2.3l-.4 1s2.6 1.6 6.2 2z"/>
  <path fill="#563C31" d="M40.5 133.5s1.2.9 1.8 1.6c0 0 1.1.5 1.8-.4-.9-1-1.3-2.1-1.3-2.1-.4-.6-.8-1-1-1-1 .8-2.8.3-3.7 0-2.1-.6-3-1-3.2-1.4-.2 0-.2.3-.2.3l-.4 1s2.6 1.6 6.2 2z"/>
  <path fill="#7B511E" d="M41.1 131.5c-2.8-.2-5.9-1.3-5.9-1.3H35c.3.3 1 .8 3.3 1.4.8.3 2.6.8 3.6 0-.4-.2-.7-.1-.7-.1z"/>
  <path fill="#7B511E" d="M41.1 131.5c-2.8-.2-5.9-1.3-5.9-1.3H35c.3.3 1 .8 3.3 1.4.8.3 2.6.8 3.6 0-.4-.2-.7-.1-.7-.1z"/>
  <path fill="#756455" d="M41.1 131.5c-2.8-.2-5.9-1.3-5.9-1.3H35c.3.3 1 .8 3.3 1.4.8.3 2.6.8 3.6 0-.4-.2-.7-.1-.7-.1z"/>
  <path fill="#333" d="M42.4 134.4l-.1-.1.3-.3c.3-.1.6-.3.6-.5h.2c0 .3-.4.5-.7.7l-.3.2zM42 133.5v-.2h.2c.2-.1.7-.3.7-.5V132.5c.2.1.2.2.2.3-.1.3-.6.5-.9.6h-.1zM44.3 133.1l-.6-.3-.6-.2v-.1H43v-.1c.3-.3 1-.6 1.4-.3.2 0 .4.3.5.6l-.1.3c-.1.1-.3.2-.5.1zm-1.1-.6l.5.2c.4.2.8.4 1 .2v-.2c0-.2-.2-.4-.4-.5-.4-.2-.8 0-1.2.3h.1z"/>
  <path fill="#333" d="M43 132.6c-.2-.1-.6-.5-.5-.8 0-.2.2-.3.4-.3l.4.1c.3.3 0 1-.1 1h-.1c0-.3.2-.7.1-.9H43l-.4.1c0 .2.3.6.5.7l-.1.1zM44.2 133.6c-.3 0-.4-.1-.6-.4v-.1c-.2-.2-.3-.4-.5-.4v-.1c.3 0 .4.2.5.4l.2.1c.1.3.3.4.7.4v.2h-.3z"/>
  <path fill="#333" d="M41.8 132.8v-.2c.2 0 .7-.2.7-.4h.1c0 .3-.7.5-.8.6z"/>
  <path fill="#2C2D2C" d="M61.7 129s-2-25.4-3.3-32.1l-2.5-14-1.4-7.7L49.7 98l3.2 31.8h5l3.8-.7z"/>
  <path fill="#434241" d="M54.5 75.2a80 80 0 0 0 1-6.2 29.1 29.1 0 0 1-17.6-1.1c.3 1.8.9 4 2.2 6.5.8 1.4.2 22.4.2 22.4l-5 31.9-.8 2.3 4 .9 4.1.4c5.4-20.3 5.4-25.6 7-33.7l.1-.7 4.8-22.7z"/>
  <path fill="#212121" d="M45.5 76.8L44.2 95l-5.7 37 5.4-37zM52 87l2.7 13.7 2.6 28.8-3-28.8z"/>
  <path fill="#2C2D2C" d="M43.2 69s1.6 4.3 2.2 8c0 0 4-5.2 4-7.1l-6.2-.9z"/>
  <path fill="#DF9F6C" d="M51.2 29.4c0-1-1.2-5.4-1.3-6.4 0-.8-.3-1.1-.3-1.8 0-1.2.3-2 .8-1.8 3.2.9 4.8.4 5-.3l-.2-1.6c.7-.5 0-1 0-1s.8-.4.5-.9c-.3-.4-.2-1.2-.2-1.2s1.5.6 1.8-.1c.2-.3-.7-2.2-1.1-4.5-.3-1.4.3-3.3-.4-5l-2.3-.2c-2 0-5 0-5.2 1.7-.4 3.3-1.7 4.3-2.6 4.9 0 0-.7-1.4-1.9-1-1.3.6.2 4.2.2 4.2l-1.7 3.1c.3 2.1 0 5.1-.4 6.8l7.4 3.3s1.4 3 2 1.8z"/>
  <path fill="#D4D5D9" d="M50.6 24.9l.7.2.7 3-1.7-1.1z"/>
  <path fill="#FFC719" d="M41.7 23zM51.2 26z"/>
  <path fill="#835A3D" d="M44 14.4s-1.5-3.6-.2-4.1c1.2-.5 2 .9 2 .9.7.1.8 0 1.2-.2.3-.1.2-1.3.5-1.6.5-.6 1-1.5 1.2-3 .2-1.8 2.8-1.8 4.8-1.8l2.3.3c1.1 0 1.7-2 .3-3.3C54-.3 51-.2 48.3.2c-2.8.4-5.5 1-6.8 2-2.8 2.2-2.2 7-1.6 9.7a24 24 0 0 0 2.4 5.6l1.7-3.1z"/>
  <path fill="#FFC0AD" d="M27.4 90.5h-.1zM29.5 90.2h-.2.2zM26.5 89.8zM29.8 90h-.2.2zM27 90.3zM27.8 90.5zM27.6 90.5h-.1zM29.2 90.3H29zM29 90.4zM28.6 90.5zM26.7 90zM26.6 90v-.1zM27.2 90.4zM28.3 90.5zM26.8 90.2zM28 90.5zM30.7 89.3zM26.4 89.2zM26.4 89.4zM26.4 89.6zM31.6 88.3zM31 89zM31.3 88.7l-.1.1.1-.1zM32.2 87.5l-.1.2v-.2zM30 89.8v.1zM30.4 89.6h-.1.1zM31.9 88l-.1.1V88z"/>
  <path fill="#EDA958" d="M42.7 43.5l-8.6-3.3c-.4 2.3-2 10-2.4 11.3-.4 1.7-2.1 30.3-2.1 30.3v-.1a7 7 0 0 0 1.5-.6l1 .3.3.8.1 1.5V87h-.1c.4-.6.7-1.4 1-2.3 1.4-4.3 3-13.6 4-20.6a489 489 0 0 0 1.1-8.2l4.2-12.5z"/>
  <path fill="#EDA958" d="M32.5 85.5v-1.8l-.1-1.5-.2-.8c-.4 0-.8-.2-1.1-.3a7 7 0 0 1-1.5.6v.1s-2.5 4.9-3.1 7.2v.4a1 1 0 0 0 0 .3v.2l.1.1.2.2h.1l.1.1h.1v.1h.2l.2.1h1.3l.1-.1h.2v-.1h.2l.2-.1.1-.1h.2l.1-.2h.1l.3-.2.1-.1.2-.2.1-.1.2-.2.1-.1.2-.2.1-.1.2-.2.1-.2.2-.2V88l.2-.2.2-.2a9 9 0 0 0 .2-.4v-1.6z"/>
  <path fill="#EFEFEF" d="M35.5 77.2l4.7-25.3s13-27.6.7-27.8l-1.2.3C37 26 33 45.3 31.3 52l-1.6 24 5.8 1.2z"/>
  <path fill="#D4D5D9" d="M29.3 73.7V76l6.4 1.3.4-2.4z"/>
  <path fill="#E9C866" d="M55.4 69l.8-.3v-4.3c0-4.6-.3-12-1-18.2-.6-6.5-.5-10.7-2.7-16.7l-.5-1.3c-1.1-1.2-1.7-2-3-2.5-2-.8-2.5-1.3-4.5-2l-1.8-.5c0-.2-.8-.2-.8-.4l-.2.1c-.7.2-2 1.1-2.6 2 .4-.2 3 .8 3.4.9 6.3.8 2.3 13 2.3 13l-2.2 7-2.6 6.6s-1.4 7.1-2.1 11.8V67s-.4.7 0 .9c2.3.8 10.2 3.3 17.5 1z"/>
  <path fill="#EFEFEF" d="M42 21.8l-1.6 1.7s7.4 3.1 9.2 6.3l.7-2.8.5-2-8.7-3.2z"/>
  <path fill="#3F0300" d="M53.4 16.2s1.6.5 2.2 0c-.3.4-.3.4-.2.6-1.6.1-2-.6-2-.6z"/>
  <ellipse transform="rotate(3.6 54.5 10.5)" fill="#110B0A" cx="54.5" cy="10.5" rx=".5" ry="1"/>
  <g>
    <path fill="#835A3D" d="M52.6 8.5c.6-.7 2.2-1 2.9-.3 0 .2 0 .4-.2.4L54 8.5l-1.2.1s-.1 0 0 0z"/>
  </g>
  <path opacity=".5" fill="#472107" d="M55.2 17.5s-.6.2-1.3-.3c0 0 .2 1 1.4.6v-.3z"/>
  <path opacity=".3" fill="#472107" d="M55.5 14.4s-.5 0-.9-.2c0 0 .3.6.9.7v-.5z"/>
  <path opacity=".2" fill="#472107" d="M46 17.2c.1 3.2 4.1 7.3 4 6.2l-.4-1.8s-.1-1.9.5-2.2c-1.5-.4-3-1-4.1-2.2z"/>
  <g>
    <path opacity=".1" fill-rule="evenodd" clip-rule="evenodd" d="M22.4 151.4c12.4 0 22.4-2.2 22.4-5s-10-5.1-22.4-5.1-22.4 2.3-22.4 5c0 2.9 10 5.1 22.4 5.1z"/>
    <path fill="#7C3929" d="M50.8 63.5c2.4-2.2 4.9.2 5.2-.4.2-.4-1.4-1.7-2.6-1.8-1.2 0-3 2.7-2.6 2.2z"/>
    <path fill="#CC926A" d="M43.2 63.5l3.8 1s3.2-3.5 3.9-3.7c.6 0 6.4 0 5.8.8-.6.8-4-.2-4.5.4-.6.6-2.7 3-2.3 3.3.4.3 4-.5 3.5.4-.5 1-2.5.6-3.1 1-.7.5-2.7 1.3-3.5.8-.8-.4-3.7-.8-3.7-.8l.1-3.2z"/>
    <path fill="#F4AA78" d="M34.9 22.8s.8-.6.5-1l-.3-1.1s1.2.2 1.6-.6c.2-.3-.8-1.5-.9-4.2l.2-1.6s0-1.7-1.3-2.5c-1.2-.7-3.6-.7-4.2-.8L27 15.8s-.4 1.7-.8 1.7c0 0-.5-1.5-.6-1.4 0 0-2-1.8-2.2.8-.1 1.7.6 2.1 1 2.2a5 5 0 0 0-.8 1c-.4.7-.5 2.3-.6 3l.2.2c2.4 3.1-1 7-1 7l6.4 4.8h4.2l-3.1-3.9c-.7-1-.5-6.4.5-5.8 1 .7 3 1 3.7.7 1-.5.9-2.1.9-2.1.6-.2.2-1.2.2-1.2z"/>
    <path fill="#191919" d="M14 146.4l.7.1s.1-.4-.1-.8-1.9-2.4-2.2-2.7l-.5-.7s-1-.4-1.4-.8c-.6-.5-1.3-.4-1.5-2.5-.1-2 .2-3.4.1-4.9 0-1.4-.7-2-1-2.2l.3-.6s-2.8.4-3.8 2.6l-1 2c-.7 1.7-2.2 4.3-2.2 4.3l1.2.6s2-2.9 2.5-2.6c1.4 1 1 3.5 1.1 4.1-.1.6 0 .8.7 1.3a19.5 19.5 0 0 0 7.6 3h.2l-.7-.2zm-3.1-1h-.3.3z"/>
    <path fill="#6D6455" d="M8 131.9s.2 0 .2.7c0 .8.5 1.9.2 4.4-.3 2.5.1 3.2.8 4 .6.9 1.7 1.3 2 1.4.5.2.9.2.7-.1l-.4-.3-1-.5c-.3-.2-.7-.5-.8-.9-.2-.3-.8-.8-.6-2.7l.1-1.8v-1.5c0-2.4-1.2-2.7-1.2-2.7z"/>
    <path fill="#F4AA78" d="M17 109.5s-4.2 7.8-6 13.6c-2.8 8.6-4.7 9.3-5.2 10 0 0-1 1.5.6 3 2.1 1.7 2 5.2 3.5 5.9 2.8 1.3 1.8.1 1.8.1s-1.6-5.6-1.2-8.5c.4-2.5 9-15.1 13-20.7 1.2-1.8-6.4-3.4-6.4-3.4z"/>
    <path fill="#191919" d="M10.5 136s-2.2.8-3.7 1l.5 1 3.5-.4-.3-1.5zM43.1 147.1l.7-.2s0-.4-.5-.7c-.4-.3-2.7-1.1-3.1-1.3-.5 0-.7-.3-.8-.3h-1.7c-.7-.2-1.3.2-2.5-1.6-1-1.6-1.4-3-2.2-4.3-.8-1.2-1.6-1.4-2-1.5v-.7s-2.2 1.8-2.1 4.2v2.2c.3 1.8.2 4.8.2 4.8h1.3s.4-3.5 1-3.5c1.7.2 2.6 2.5 3 3.1.1.6.3.6 1.2.8a19.5 19.5 0 0 0 8-1l.2-.2-.7.2zm-3.2.7h-.2.2z"/>
    <path fill="#6D6455" d="M31 137.2l.5.6c.3.7 1.3 1.4 2.2 3.8 1 2.3 1.7 2.7 2.6 3.2 1 .4 2.2.2 2.4.2.6-.1 1-.3.6-.5h-1.6c-.3 0-.8-.1-1.1-.4-.3-.2-1-.3-1.9-2.1l-.7-1.6-.7-1.4c-1.2-2-2.3-1.8-2.3-1.8z"/>
    <path fill="#F4AA78" d="M28.2 113.3s0 8.9 1.1 14.9c1.7 8.8.4 10.3.3 11.1 0 0-.1 1.8 2 2.5 2.6.4 4.1 3.5 5.8 3.4 3.1-.2 1.7-.8 1.7-.8s-4.1-4-5.2-6.9a149 149 0 0 1 1.5-24.3c.2-2.2-7.2.1-7.2.1z"/>
    <path fill="#191919" d="M35.2 139.8s-1.7 1.6-3 2.3l1.1.7 2.8-1.8-.9-1.2z"/>
    <g>
      <path fill="#AB0300" d="M19.8 67.6s-4.3 6.1-2.6 18.2c0 0 2.1 10.3-2.4 27.4 0 0-7.2 6.6 17.4 3.8 0 0 2.8.2 3.7-1 0 0 1.3-6.9 1.4-13 .2-11.1 3-26.2 1.1-32.3L35.5 66l-15.7 1.5z"/>
      <path fill="#E01B22" d="M22.2 29.8s-8.4 3.5-5 21.7c0 0 3 9.6.4 20.7 0 0 15 .8 16.2.6 0 0 3.8.7 4.5-1.4l.6-.2s-1-3-.4-10.6l1.8-10.1s1-3.6-8.8-17c0 0-5.4.6-9.3-3.7z"/>
      <ellipse fill="#AB0300" cx="39.6" cy="50.1" rx=".4" ry=".7"/>
      <ellipse fill="#AB0300" cx="38.5" cy="55.4" rx=".5" ry=".7"/>
      <ellipse fill="#AB0300" cx="37.8" cy="61.3" rx=".4" ry=".7"/>
      <ellipse fill="#AB0300" cx="37.3" cy="67.2" rx=".4" ry=".7"/>
      <path fill="#AB0300" d="M17.9 36s-1 17 1.9 22.7c0 0 1.4 3.9 3.3 4.7 3.5 1.5 22 4.7 22.5 5v-5.1l-14.9-3.5-2-2.7s.7-20-2.4-23.1c0 0-5.6-4.4-8.4 2zM22.1 29.7s5.7 3.7 9.5 3.6l1.6 5.6L21.7 30l.4-.3z"/>
    </g>
    <path fill="#281C15" d="M35 12.7s1.8.3 1.2-2.9c0 0-1.8-5.5-6.8-5 0 0-7.1.9-8.2 6.3 0 0 .2 2.5-1.8 2.8 0 0-2.5-.8-3 3.8 0 0 0 4 2 5.6 0 0 3.2 2.7 5.7 2.3 0 0 2-.5 2.3-2.5 0 0 0-2.8-.6-3.5-.4-.4.5-1.2.9-1.5 0 0 2.3-.4 3.3-2 0 0 .8-1.6.4-3.4 0 0 .3-1.3 1.1-1.3l3.6 1.3z"/>
    <g>
      <path opacity=".2" fill-rule="evenodd" clip-rule="evenodd" d="M24.7 11.7c2.4 2.2 7 4.3 11.2 5.5v-2.9S25.7 9 25.4 10.1c-.2 1-.6 1.6-.6 1.6z"/>
      <path fill="#281C15" d="M32.8 15.7c.4-.4 1.6-.4 2 .2 0 0 0 .2-.2.2l-1-.2c-.2 0-.5-.1-.8 0v-.2z"/>
      <ellipse transform="rotate(23.3 30.3 10.5)" fill="#7A756C" cx="30.3" cy="10.5" rx="10.1" ry="3.7"/>
      <path fill="#7A756C" d="M27.7 3.8s4.2-1.4 9.9 3.6c0 0-4.2 1.8-9.9-3.6z"/>
      <path fill="#666057" d="M27.7 3.8l-1.4 2.4s1.9 4.1 10.3 4.4l1-3.2s-5.7-.3-9.9-3.6z"/>
      <path fill="#FFF" d="M26.7 5.5l-1 1.7s4.7 4.3 10.7 4.1l.6-2s-6.1.1-10.3-3.8z"/>
    </g>
    <path opacity=".2" fill="#472107" d="M34.8 23.8s-.7-.1-1-.4c0 0 .2.7 1 .6v-.2z"/>
    <path fill="#E01B22" d="M35.1 22.3l-.3-.1h-1.7s.6 1.6 1.7 1.5c.2 0 .4 0 .2-.7 0 0 0-.2.3-.4l.1-.2v-.2h-.3z"/>
    <path fill="#3F0300" d="M33.3 22.3s1.5.6 2 .3c-.2.2-.4.4-.3.6-1 0-1.7-.9-1.7-.9z"/>
    <path opacity=".3" fill="#472107" d="M35.1 20.7l-.8-.2s.3.5.9.5v-.3z"/>
    <path opacity=".1" fill="#472107" d="M27.4 23.5c.1 3.3 2 7 1.8 5.8-.1-1 .1-4.1.8-4l-2.6-1.8z"/>
    <ellipse transform="rotate(10.2 33.7 17.3)" fill="#281C15" cx="33.7" cy="17.3" rx=".4" ry=".8"/>
  </g>
  <g>
    <path opacity=".2" d="M134.2 145.4c0 3.5-16.6 6.3-37 6.2-20.5-.2-37-3.1-37-6.7 0-3.5 16.6-6.3 37-6.2 20.5.2 37 3.1 37 6.7z"/>
    <path fill="#3B2918" d="M65.6 110.4h.6l9.5-3-.3-.8-9.4 3c-.4 0-.8 0-1.1-.2-.3-.2-.6-.5-.6-1L59.1 64s-.4-3-2.6-4.7a6 6 0 0 0-4.7-1c-3.4.6-4.4 2.5-4.6 4a5 5 0 0 0 2 4.7c1 .7 1.9 1 2.6.7.7-.3 1.3-1.2 1.5-2.6l-.7-.2c-.3 1.1-.6 1.8-1.1 2-.6.3-1.3-.1-1.8-.5-1.3-1-2-2.5-1.7-4 .3-1.8 1.6-2.9 3.9-3.3 1.6-.2 3 0 4.1.9a7 7 0 0 1 2.3 4.1l5.2 44.5a2.1 2.1 0 0 0 2.1 1.8zM119 134.3c1.7 0 3.4-.8 4.8-2.1 2.1-2 3.5-5 3.6-8 0-4.2-1-7.5-3-9.8-2.3-2.4-5.7-3.6-10.3-3.6-2.7 0-5.4.7-8 2.2a27.6 27.6 0 0 0-9 8.5 51 51 0 0 1-6.7 7.8 9.7 9.7 0 0 1-13.1-.5 11.5 11.5 0 0 1-3.5-8.5c0-6 2.4-8.4 4.3-9.3 1.7-1 4.5-1 6.2.3 1.1 1 1.7 2 1.6 3 0 1.1-1 2-1.6 2.5-.8.5-1.4.3-1.7.1-.5-.2-.7-.6-.7-.8 0-.3-.2-.5-.5-.5-.2 0-.4.3-.4.6 0 .6.5 1.3 1.1 1.6.8.5 1.8.4 2.7-.1.9-.6 2-1.8 2-3.4.1-1-.2-2.4-1.9-3.8a7 7 0 0 0-7.2-.5 7.8 7.8 0 0 0-3.4 3.5 15 15 0 0 0-1.4 6.8c0 4.6 2 7.6 3.7 9.3a10.7 10.7 0 0 0 14.4.5 52 52 0 0 0 7-8c5.9-8.5 12-10.3 16.1-10.3 4.3 0 7.5 1.1 9.5 3.3 2 2.1 3 5.2 2.8 9 0 2.8-1.3 5.6-3.2 7.3-1 1-2.8 2-5 1.8-2.5-.3-4.6-2-6-5.1a.5.5 0 0 0-.7-.2c-.3.1-.4.4-.2.7 1.6 3.4 4 5.3 6.8 5.6h1z"/>
    <path fill="#553E2B" d="M76.1 129.8l-14.4-3.5.2-.5 14.4 3.5z"/>
    <ellipse transform="scale(-1) rotate(13.4 1099.4 -645.7)" fill="#553E2B" cx="76" cy="129.5" rx=".5" ry=".7"/>
    <path fill="#553E2B" d="M62 126.1c0 .4.1.8.4.8.2.1.5-.2.6-.6 0-.4 0-.7-.3-.8-.2 0-.5.2-.6.6zM76.7 128.7L69 116.1l.4-.3 7.7 12.6z"/>
    <path fill="#553E2B" d="M76.6 128c-.4.2-.5.5-.4.8.1.2.5.2.9 0 .3-.2.5-.6.4-.8-.2-.2-.6-.2-1 0zM69.3 116.1c-.3.2-.5.6-.4.8.2.2.6.2 1 0 .3-.2.4-.5.3-.8-.1-.2-.5-.2-.9 0zM78 128.2l3.4-14.4.5.1-3.5 14.4z"/>
    <path fill="#553E2B" d="M78.3 127.7c-.4-.1-.8 0-.9.3 0 .2.3.5.7.6.4.1.7 0 .8-.3 0-.2-.2-.5-.6-.6z"/>
    <ellipse transform="rotate(-76.5 81.4 114.7)" fill="#553E2B" cx="81.4" cy="114.7" rx=".5" ry=".7"/>
    <path fill="#553E2B" d="M79 128.8l12.6-7.7.2.4-12.6 7.8z"/>
    <ellipse transform="rotate(-31.5 79.3 129)" fill="#553E2B" cx="79.3" cy="128.9" rx=".5" ry=".7"/>
    <ellipse transform="rotate(-31.7 91 121.7)" fill="#553E2B" cx="91.1" cy="121.7" rx=".5" ry=".7"/>
    <g>
      <path fill="#553E2B" d="M79.4 130l14.4 3.4-.1.5-14.4-3.4z"/>
      <ellipse transform="rotate(13.5 79.5 130.3)" fill="#553E2B" cx="79.5" cy="130.3" rx=".5" ry=".7"/>
      <ellipse transform="rotate(13.5 93 133.5)" fill="#553E2B" cx="93" cy="133.5" rx=".5" ry=".7"/>
    </g>
    <g>
      <path fill="#553E2B" d="M78.8 131.1l7.8 12.7-.5.2-7.7-12.6z"/>
      <path fill="#553E2B" d="M79 131.8c.3-.2.5-.6.3-.8-.1-.2-.5-.2-.9 0-.3.2-.5.5-.4.8.2.2.6.2 1 0z"/>
      <ellipse transform="rotate(58.3 86 143.2)" fill="#553E2B" cx="85.9" cy="143.2" rx=".5" ry=".7"/>
    </g>
    <g>
      <path fill="#553E2B" d="M77.6 131.5L74 146l-.4-.1 3.4-14.4z"/>
      <ellipse transform="rotate(103.5 77.3 131.6)" fill="#553E2B" cx="77.3" cy="131.6" rx=".5" ry=".7"/>
      <ellipse transform="rotate(103.5 74.1 145.1)" fill="#553E2B" cx="74.1" cy="145.1" rx=".5" ry=".7"/>
    </g>
    <g>
      <path fill="#553E2B" d="M76.5 131L64 138.7l-.3-.4 12.7-7.8z"/>
      <ellipse transform="scale(-1) rotate(-31.4 -465.6 271.5)" fill="#553E2B" cx="76.3" cy="130.8" rx=".5" ry=".7"/>
      <path fill="#553E2B" d="M64 138.3c.2.4.6.5.8.4.2-.1.2-.5 0-.9-.2-.3-.6-.5-.8-.4-.2.2-.2.5 0 .9z"/>
    </g>
    <g>
      <path fill="#553E2B" d="M62 139.5a18.3 18.3 0 0 1 6.1-25.3 18.3 18.3 0 0 1 25.3 6 18.3 18.3 0 0 1-6 25.4 18.3 18.3 0 0 1-25.3-6.1zm.1-13.4a16.1 16.1 0 1 0 31.3 7.5 16.1 16.1 0 0 0-31.3-7.5z"/>
    </g>
    <g>
      <path fill="#DA986E" d="M63.4 138.7a16.8 16.8 0 0 1 5.5-23.2 16.8 16.8 0 0 1 23.2 5.6 16.8 16.8 0 0 1-5.5 23.2 16.8 16.8 0 0 1-23.2-5.6zm0-12.3a14.8 14.8 0 1 0 28.7 6.9 14.8 14.8 0 0 0-28.7-6.9z"/>
    </g>
    <g>
      <path fill="#553E2B" d="M75.8 129.4a2 2 0 1 0 3.9 1 2 2 0 0 0-3.9-1z"/>
    </g>
    <g>
      <path fill="#3B2918" d="M76.7 129.6a1 1 0 1 0 0 0z"/>
    </g>
    <g>
      <path fill="#553E2B" d="M117.9 133.2l-10-6.3.1-.4 10 6.4z"/>
      <ellipse transform="rotate(-147.7 117.9 133)" fill="#553E2B" cx="117.8" cy="133" rx=".4" ry=".6"/>
      <ellipse transform="rotate(-147.8 108.4 127)" fill="#553E2B" cx="108.4" cy="127" rx=".4" ry=".6"/>
      <path fill="#553E2B" d="M118.6 132.5L116 121h.3l2.7 11.6z"/>
      <ellipse transform="rotate(-102.6 118.7 132.4)" fill="#553E2B" cx="118.7" cy="132.4" rx=".4" ry=".6"/>
      <path fill="#553E2B" d="M116.2 121.1c-.3 0-.5.3-.5.5s.3.3.7.3c.3-.1.5-.3.5-.5s-.4-.4-.7-.3zM119.6 132.5l6.3-10 .3.1-6.3 10.1z"/>
      <path fill="#553E2B" d="M120 132.2c-.3-.2-.6-.2-.7 0s0 .5.3.7h.7c.1-.2 0-.5-.3-.7z"/>
      <ellipse transform="rotate(-57.7 125.8 123.1)" fill="#553E2B" cx="125.8" cy="123.1" rx=".4" ry=".6"/>
      <path fill="#553E2B" d="M120.3 133.2l11.6-2.6v.4l-11.5 2.6z"/>
      <ellipse transform="rotate(-12.5 120.5 133.5)" fill="#553E2B" cx="120.4" cy="133.4" rx=".4" ry=".6"/>
      <path fill="#553E2B" d="M131.7 130.9c-.1-.3-.3-.6-.5-.5-.2 0-.3.3-.3.7.1.3.3.5.5.5s.3-.4.3-.7z"/>
      <g>
        <path fill="#553E2B" d="M120.2 134.2l10 6.4-.1.3-10.1-6.3z"/>
        <path fill="#553E2B" d="M120.6 134.7v-.7c-.2-.1-.5 0-.7.3-.2.3-.2.6 0 .7.2.1.5 0 .7-.3zM130 140.6c.2-.2.2-.5 0-.7-.2 0-.5 0-.7.3v.7c.2.2.5 0 .7-.3z"/>
      </g>
      <g>
        <path fill="#553E2B" d="M119.5 135l2.6 11.6h-.4l-2.6-11.5z"/>
        <path fill="#553E2B" d="M119.4 135.5c.4 0 .6-.3.5-.5 0-.2-.3-.3-.6-.2-.3 0-.6.2-.5.5 0 .2.3.3.6.2zM121.9 146.4c.3-.1.5-.3.5-.5s-.3-.4-.7-.3c-.3 0-.5.3-.5.5s.4.3.7.3z"/>
      </g>
      <g>
        <path fill="#553E2B" d="M118.6 135l-6.4 10-.3-.2 6.4-10.1z"/>
        <path fill="#553E2B" d="M118 135.3c.4.1.7.1.8 0 .1-.2 0-.5-.3-.7-.3-.2-.6-.2-.7 0-.1.2 0 .5.3.7z"/>
        <ellipse transform="scale(-1) rotate(-57.6 -262.4 204.2)" fill="#553E2B" cx="112.3" cy="144.4" rx=".4" ry=".6"/>
      </g>
      <g>
        <path fill="#553E2B" d="M106.3 136.8l11.5-2.6v-.4l-11.6 2.6z"/>
        <path fill="#553E2B" d="M117.3 134.1c0 .4.3.6.5.5.2 0 .3-.3.2-.6 0-.4-.3-.6-.5-.5-.2 0-.3.3-.2.6z"/>
        <ellipse transform="rotate(167.2 106.8 136.5)" fill="#553E2B" cx="106.8" cy="136.5" rx=".4" ry=".6"/>
      </g>
      <g>
        <path fill="#553E2B" d="M104.6 137a14.7 14.7 0 0 1 11.2-17.7 14.7 14.7 0 0 1 17.6 11.2 14.7 14.7 0 0 1-11.1 17.6 14.7 14.7 0 0 1-17.7-11.1zm3.5-10.2a13 13 0 1 0 21.9 13.8 13 13 0 0 0-21.9-13.8z"/>
      </g>
      <g>
        <path fill="#DA986E" d="M105.9 136.7a13.4 13.4 0 0 1 10.2-16.1 13.4 13.4 0 0 1 16 10.2 13.4 13.4 0 0 1-10 16 13.4 13.4 0 0 1-16.2-10zm3.2-9.3a11.8 11.8 0 1 0 20 12.6 11.8 11.8 0 0 0-20-12.6z"/>
      </g>
      <g>
        <path fill="#553E2B" d="M117.7 132.9a1.6 1.6 0 1 0 2.7 1.7 1.6 1.6 0 0 0-2.7-1.7z"/>
      </g>
      <g>
        <path fill="#3B2918" d="M118.3 133.3a.8.8 0 1 0 1.5.9.8.8 0 0 0-1.5-1z"/>
      </g>
    </g>
    <path fill="#2E2B2C" d="M110.7 106.3h6.8c.7 0 1.2.6 1.2 1.2v.9c0 .6-.5 1.2-1.2 1.2h-2.2v1.1c0 .2-.2.4-.4.4a.4.4 0 0 1-.3-.4v-1.1h-.2v1.1c0 .2-.1.4-.3.4a.4.4 0 0 1-.4-.4v-1.1h-3c-.7 0-1.2-.6-1.2-1.2v-.9c0-.6.5-1.2 1.2-1.2zM72.5 104.4h6.8c.7 0 1.2.5 1.2 1.2v.8c0 .7-.5 1.2-1.2 1.2h-2.2v1.7c0 .2-.2.3-.4.3a.4.4 0 0 1-.3-.3v-1.7h-.2v1.7c0 .2-.1.3-.3.3a.4.4 0 0 1-.4-.3v-1.7h-3c-.6 0-1.2-.5-1.2-1.2v-.8c0-.7.6-1.2 1.2-1.2z"/>
    <path fill="#DA986E" d="M63.3 80c0-.7.6-1.1 1.2-1.1l29.2-.2H99l29.2.2c.6 0 1.2.4 1.3 1 .6 3.9 2 17.2-7.9 27.5a59 59 0 0 1-17.7 4.8s-2.8 1.6-8.5 1.7c-6.1 0-8.6-2-8.6-2-2.4.2-15.3-4.3-15.6-4.5a32.2 32.2 0 0 1-7.8-27.5z"/>
    <path fill="none" stroke="#553E2B" stroke-width=".6" stroke-miterlimit="10" d="M65 81.5c0-.5.6-1 1.2-1l27.6-.1h5l27.7.1c.6 0 1 .5 1.2 1a28 28 0 0 1-7.5 24.7 58 58 0 0 1-16.8 4.4s-2.7 1.4-8.1 1.5c-5.8 0-8.1-1.7-8.1-1.7a92 92 0 0 1-14.8-4.2A28 28 0 0 1 65 81.5z"/>
    <g>
      <path fill="#553E2B" d="M96.7 76.8a1.4 1.4 0 1 1-2.7 0 1.4 1.4 0 0 1 2.7 0z"/>
      <circle fill="#DA986E" cx="95.4" cy="76.8" r=".8"/>
      <path fill="none" d="M100 76l-.3 1.2v.6h-.4l-2.5-1 3.2-1.2zM97.7 69.3l.4 1.1.8.5-.3 1 .1.4-2.7 3.3 1.5-6.7.2.4z"/>
      <path fill="#DA986E" d="M96 75.6l-.6-.2c-.3 0-.6 0-.8.2l1.8-8 1 1.3-1.4 6.7zM96.7 76.8l2.6 1h.4V79H99L96 78c.4-.2.7-.6.7-1z"/>
      <path fill="#553E2B" d="M96 75.6l2.7-3.3.4.6-2.6 3.2c0-.2-.2-.4-.5-.5zM96.7 76.8l-.1-.7 3.4-1.3v.8l-3.2 1.2z"/>
      <path fill="#5F575A" d="M96.8 76.8z"/>
      <path fill="#221E1F" d="M114.6 73.4c-.6-.5.3-4.3 5.3-4.6 5-.4 11-4.5 11-4.5-.8 1.7-2.2 3.9-3 6-1.1 3.6.3 4.6.6 5.7l.4 1.1-.1-.3c-1-3.5-13.5-3-14.2-3.4zM115.9 59.6c4-2.4 7.5-7.5 7.1-8.5.7 2 1.4 4 2.1 5.3 1 2 3 3 4.5 3.8-6.1-2.3-17.7 1.8-13.7-.6zM106.4 43.3c.5-1.8-.7-4-.7-4 2.1 1.6 3.2 4.3 6.2 5.3 2 .8 3.8.8 5.3.7-5.2.2-8 5.8-10.7 5.8-2.7 0-.6-5.9 0-7.8z"/>
      <path fill="#2E2B2C" d="M102.2 38l1 .2c1 .2 1.8.6 2.5 1.1 0 0 1.2 2.2.7 4-.5 2-2.6 7.7.1 7.8 2.7 0 5.5-5.6 10.7-5.8 1.3 0 2.4 0 3.2.6 1 .7 1.8 2.9 2.6 5.2.4 1-3.2 6.1-7.1 8.5-4 2.4 7.6-1.7 13.7.6 1 .6 1.7 1 2 1.5.2.5-.2 1.4-.7 2.6 0 0-6 4.1-11 4.5-5 .3-5.9 4.1-5.3 4.6.7.4 13.3-.1 14.2 3.4l.1.3.2.7-.3 1.7-29.2-.4.1-1.3v-.6l.3-1.2V74.2l-.8-1v-.3l-.5-.6-.1-.4.3-1-.8-.5-.4-1.1-.2-.4-1.1-1.3-.3-.3 6-29.3z"/>
      <path fill="#DA986E" d="M130.2 62.7l.8-.3v-.2h-.1l-.7.2-.1.2h.1zM102.8 74v-.2l1.4-.5a.1.1 0 0 1 .1.2l-1.3.6-.2-.1zm2.7-1.1l.1-.2 1.4-.6h.1v.3l-1.4.5h-.2zm2.8-1.2v-.2l1.4-.5h.2l-.1.2-1.4.6h-.1zm2.7-1.1v-.2l1.4-.6.2.1v.2l-1.4.5h-.1-.1zm2.7-1.2v-.1l1.4-.6h.2v.2l-1.4.6h-.2zm2.7-1.1l.1-.2 1.4-.5h.1v.2l-1.4.6-.2-.1zm2.8-1.1V67l1.4-.6h.2l-.1.3-1.4.5h-.1zm2.7-1.2v-.2l1.4-.5h.2v.2l-1.4.6h-.2zm2.7-1.1v-.2l1.5-.6.1.1v.2l-1.4.5h-.2zm2.8-1.2v-.1l1.4-.6h.1v.2l-1.4.6h-.1zM100.9 75l.7-.4s.1 0 0-.1v-.1l-.8.3a.1.1 0 0 0 0 .2zM97 67l.3-1.5.1-.1.1.1-.3 1.5-.1.1zm.7-2.8l-.1-.2.3-1.5h.2l-.3 1.6h-.1zm.6-3s-.1-.1 0-.2l.2-1.5h.2l-.2 1.6h-.2zm.6-3V58l.3-1.4c0-.1 0-.2.1-.1l.1.1-.3 1.5a.1.1 0 0 1-.2.1zm.7-3l-.1-.1.3-1.5.1-.1.1.1-.3 1.5-.1.1zm.6-3l-.1-.1.3-1.5.2-.1v.1l-.3 1.5a.1.1 0 0 1-.1.1zm.6-3l.2-1.6s.1-.1.2 0c0 0 .1 0 0 0l-.2 1.6h-.1zm.7-3h-.1l.3-1.6h.2l-.3 1.6h-.1zm.6-3h-.1l.3-1.5c0-.1 0-.2.2-.1v.1l-.3 1.5v.1h-.1zm.6-2.9v-.1l.2-1.5.2-.1s.1 0 0 .1l-.2 1.5-.2.1z"/>
      <g>
        <path fill="#DA986E" d="M100.5 78.4l.1-.1h.6v.2h-.6zm2 0l.2-.1h1.5l.1.1-.1.1h-1.7zm3 0l.2-.1h1.5l.2.1-.2.1h-1.5-.1zm3.1 0l.2-.1h1.5l.1.1-.1.1h-1.7zm3 0l.2-.1h1.5l.2.1-.2.1h-1.5-.1zm3.1 0l.2-.1h1.5l.1.1-.1.1h-1.7zm3 0l.2-.1h1.5l.2.1-.2.1H118h-.1zm3.1 0l.2-.1h1.5l.1.1-.1.1h-1.7zm3 0l.2-.1h1.5l.1.1v.1H124h-.1zm3.1 0l.1-.1h1.6v.2H127z"/>
      </g>
      <g>
        <path fill="#DA986E" d="M99.7 71.5v-.1l1-1.2h.2v.1l-1 1.2h-.2zm2-2.3s-.1-.2 0-.2l1-1.2.1.2-1 1.2h-.1zm1.9-2.4v-.2l1-1.1c0-.1 0-.1.1 0v.1l-1 1.2h-.1zm2-2.4c-.1 0-.2 0-.1-.1l1-1.2a.1.1 0 1 1 .1.1l-1 1.2zm1.8-2.3v-.2l1-1.2h.2v.2l-1 1.2h-.2zm2-2.4c-.1 0-.1-.1 0-.2l.9-1.1c0-.1.1-.1.2 0v.1l-1 1.2h-.1zm1.9-2.3v-.2l1-1.2c.1 0 .2.1.1.2l-1 1.1h-.1zm1.9-2.4v-.2l1-1.2h.1v.2l-1 1.2h-.1zm2-2.4l-.1-.1 1-1.2h.1s.1 0 0 .1l-1 1.2zm1.8-2.3V50l1-1.2h.2v.2l-1 1.1h-.2zm2-2.4c-.1 0-.1-.1 0-.2l.9-1.2h.2v.2l-1 1.2h-.1z"/>
      </g>
    </g>
    <g>
      <circle fill="#553E2B" cx="52.9" cy="64.7" r="2"/>
    </g>
  </g>
</svg>
