<svg xmlns="http://www.w3.org/2000/svg" width="321.1" height="58.3">
  <path fill="#FFF" d="M237.8 19.9l-7 .7 1.8 2.3 5.9 3.3 5.2-6.3z"/>
  <path fill="#DDD" d="M284 35.1l-2.1.3.3 2.4 2.2-.4c.6 0 2.2-.8 2-1.5s-1.7-.9-2.4-.8z"/>
  <path opacity=".3" fill="#FFF" d="M282 36l4-.6c-.5-.2-1-.3-1.6-.3l-2.5.4v.5z"/>
  <path fill="#626686" d="M284.2 35.1l-.7-2.7.8-.1.1 2.8zM284.7 37.3l.7 2.8h-.8l-.1-2.7z"/>
  <path fill="#DDD" d="M289 26.4l-2.1.3.3 2.4 2.1-.4c.7 0 2.2-.8 2.1-1.4 0-.7-1.8-1-2.4-.9z"/>
  <path opacity=".3" fill="#FFF" d="M287 27.4l4-.6c-.5-.2-1.1-.4-1.6-.4l-2.5.4v.6z"/>
  <path fill="#626686" d="M289.2 26.5l-.8-2.8h.8l.2 2.7zM289.7 28.7l.7 2.7-.8.1-.1-2.8zM285.1 31.3l-3.1.5-1-6.5 3.2-.4z"/>
  <g fill="#DDD">
    <path d="M285.5 24.7c.8-.2 1.7.4 1.8 1.3l.5 3.3c.1.8-.5 1.6-1.4 1.8l-1.2.2-1-6.5 1.3-.1zM271.8 26.7l9.2-1.4 1 6.4-9.2 1.4c-2.1.3-5-1.6-5.1-2.5-.1-1 2-3.6 4.1-4z"/>
  </g>
  <path fill="#626686" d="M280.8 40.2l-3.2.5-1-6.4 3.2-.5z"/>
  <g fill="#DDD">
    <path d="M281.2 33.7c.8-.2 1.6.4 1.8 1.3l.5 3.3c0 .8-.5 1.6-1.4 1.8l-1.3.2-1-6.4 1.4-.2zM267.5 35.7l9.2-1.4 1 6.4-9.2 1.4c-2.1.3-5-1.6-5.1-2.5-.1-1 2-3.6 4.1-4z"/>
  </g>
  <path opacity=".3" fill="#FFF" d="M263.5 37.6l19.4-2.8.2 1-19.4 3zM267.8 28.4l19.4-2.8.2 1-19.4 3z"/>
  <path fill="#AFAFAF" d="M279 7.7l-1.7.3.2 1.9 1.8-.3c.5-.1 1.8-.7 1.7-1.2 0-.5-1.4-.7-2-.7z"/>
  <path opacity=".3" fill="#FFF" d="M277.3 8.4l3.4-.5c-.3 0-.8 0-1.3-.4l-2.2.3.1.6z"/>
  <path fill="#626686" d="M279.2 7.5l-.5-2.2h.6l.1 2.2zM279.7 9.7l.6 2.2h-.6l-.2-2.2z"/>
  <path fill="#AFAFAF" d="M271 2.3l-1.3.2.2 1.5 1.3-.2c.4 0 1.5-.6 1.4-1 0-.4-1.2-.6-1.6-.5z"/>
  <path opacity=".3" fill="#FFF" d="M269.7 2.7l2.5-.4c-.2 0-.6.1-1-.4l-1.6.2v.6z"/>
  <path fill="#626686" d="M271 2l-.4-1.7h.5v1.6zM271.5 4.1l.4 1.7h-.5V4.2z"/>
  <g>
    <path fill="#626686" d="M268.4 5.4l-2 .3-.6-4.1 2-.3z"/>
    <g fill="#AFAFAF">
      <path d="M268.7 1.1c.5 0 1 .3 1.2 1l.3 2c0 .6-.3 1.1-.9 1.2l-.8.1-.6-4.1.8-.2zM259.8 2.5l6-1 .6 4.2-6 1c-1.4.1-3.2-1.1-3.3-1.7 0-.6 1.3-2.3 2.7-2.5z"/>
    </g>
  </g>
  <g>
    <path fill="#626686" d="M276.6 11.8l-2.6.4-.7-5 2.6-.4z"/>
    <g fill="#AFAFAF">
      <path d="M276.9 6.6c.7-.1 1.3.4 1.4 1l.4 2.6c0 .7-.4 1.4-1 1.5l-1 .1-.8-5 1-.2zM266 8.2l7.3-1.1.8 5-7.3 1.2c-1.7.2-4-1.3-4-2-.1-.8 1.6-2.9 3.3-3.1z"/>
    </g>
  </g>
  <path opacity=".3" fill="#FFF" d="M262.8 10l15.6-2.4v.6L263 10.5z"/>
  <g>
    <path fill="#D3D3D3" d="M284.3 14.3L258.7 0l-7.4 1.1 14.1 16z"/>
    <path fill="#FFF" d="M238 20.2l67.4-10c1.8-.3 3.2-.3 4.4.3l1.6 1.8s4.5-.1 6.5.5 3.1 2 3.2 2.5v.6l-79.2 11.8c-5-1.7-7.4-4.4-7.5-5.1-.2-1.4 3.5-2.4 3.5-2.4z"/>
    <path fill="#DBDBDB" d="M321 16c-.5 1.6-3.8 3.7-7.5 4.2L257 28.5c-6.6 1-11.5.3-15.2-.8L321 15.9z"/>
    <path fill="#F7F7F7" d="M321 15c.8 2-3.8 4.6-7.5 5.2L257 28.5c-6.6 1-11.5.3-15.2-.8l77.5-11.8c1-.2 1.6-.8 1.6-.8z"/>
    <path opacity=".5" fill="#DBDBDB" d="M321 15c.7 2-3.8 4.6-7.5 5.2L257 28.5c-6.6 1-11.5.3-15.2-.8l77.5-11.8c1-.2 1.6-.8 1.6-.8z"/>
    <path fill="#626686" d="M320.4 17c-1.4 1.7-6.1 4-17.3 5.3-16.6 2.9-39.9 5.3-46 6.2-6.6 1-11.5.3-15.2-.8l72-10.8c4.7-.6 4.2 1.3 6.5 0z"/>
    <path fill="#FFF" d="M241.3 19.7l-3.3.4-4.6-9.4-.7-2.4z"/>
    <path fill="#FFF" d="M233.9 8.2l8.8 11.2-1.4.3-8.6-11.4z"/>
    <path fill="#EDEDED" d="M288.3 20.4l-26 26.3-9.8 1.5 14.3-24.6z"/>
    <path fill="#F9F9F9" d="M255.3 17.7c-7.9 1.2-10.9-7.9-13.4-12.5-1-2-1.4-2.6-3-2.3-.7 0-.6.2-4.3.7-3.2.5-2.9 1.1-2 7.3L234 20l-4 .5 1.8 3.5 6.6 1.7-5.1 6 6-.9 10.2-8s2-2.4 5.8-5.2z"/>
    <path fill="#B7B7B7" d="M286.2 21l-3.3 8-3.4.4z"/>
    <path fill="#B7B7B7" d="M262.4 46.7L285.9 21l.6-.1-7 8.6L263 46.6z"/>
    <g opacity=".5" fill="#EEF5FF">
      <path d="M230.5 24.2l-6.4 1-.2-1.2 6.5-1zM222.5 25.4l-6.4 1-.2-1.3 6.5-1zM214.5 26.5l-6.4 1-.2-1.2 6.5-1zM206.5 27.7l-6.4 1-.2-1.2 6.5-1zM198.5 29l-6.4 1-.2-1.3 6.5-1zM190.5 30.1l-6.4 1-.2-1.2 6.5-1zM182.5 31.3l-6.4 1-.2-1.2 6.5-1zM174.5 32.5l-6.4 1-.2-1.2 6.5-1zM166.5 33.7l-6.3.9-.2-1.2 6.4-1zM158.5 34.8l-6.4 1-.2-1.2 6.5-1zM150.5 36l-6.4 1-.2-1.1 6.5-1zM142.5 37.3l-6.4 1-.2-1.3 6.5-1zM134.5 38.4l-6.3 1-.2-1.2 6.4-1zM126.5 39.6l-6.4 1-.2-1.2 6.5-1zM118.5 40.8l-6.4 1-.2-1.3 6.5-1zM110.5 42l-6.4.9-.2-1.2 6.5-1zM102.6 43.2l-6.5 1L96 43l6.5-1zM94.5 44.4l-6.4 1L88 44l6.5-.9zM86.5 45.5l-6.4 1-.2-1.2 6.5-1zM78.5 46.7l-6.3 1-.2-1.2 6.4-1zM70.5 47.9l-6.4 1-.2-1.3 6.5-.9z"/>
    </g>
    <g opacity=".5" fill="#EEF5FF">
      <path d="M62.5 49l-6.3 1-.2-1.2 6.3-1zM54.6 50.2l-6.4 1L48 50l6.4-1zM46.5 51.5l-6.4 1-.2-1.2 6.4-1zM38.6 52.7l-6.4.9-.2-1.2 6.4-1zM30.5 53.8l-6.4 1-.2-1.2 6.4-1zM22.5 55l-6.4 1-.2-1.2 6.4-1zM14.5 56.2l-6.4 1-.2-1.3 6.4-1zM6.6 57.3l-6.4 1L0 57l6.4-1z"/>
    </g>
  </g>
  <path fill="#7D9BC3" d="M318.7 13.1s-1.5.1-2.3 1.4L247 24.8l4-3.6s50.5-7.4 60.3-9c4.9-.4 7.3 1 7.3 1z"/>
  <g fill="#626686">
    <path d="M308 12.5l-.2-1.5 1.8-.3 1.2 1.3-2.8.5zM306.8 12.6l.9-.1-.2-1.5-1 .1z"/>
  </g>
  <path opacity=".3" d="M247.4 28.8c.9-2 2.3-6.3 2.3-6.3L243 28s2.7.7 4.4.8z"/>
  <path fill="#626686" d="M305.4 14.4c.1.6-.3 1.2-.9 1.3-.6 0-1.2-.3-1.3-1l-.2-1.6c-.1-.6.3-1.2 1-1.3.5 0 1.1.3 1.2 1l.2 1.6zM302.2 15.2c0 .5-.3.9-.7 1a.8.8 0 0 1-1-.7v-.1c0-.4.2-.9.7-1 .5 0 .9.3 1 .7v.1zM299.4 15.6c0 .5-.3.9-.7 1a.8.8 0 0 1-1-.7c0-.5.2-1 .7-1 .5 0 1 .2 1 .7zM296.6 16c0 .5-.2.9-.7 1a.8.8 0 0 1-1-.7c0-.5.3-1 .7-1 .5 0 1 .2 1 .7zM293.8 16.4c.1.5-.2.9-.6 1h-.1a.8.8 0 0 1-1-.7c0-.5.3-1 .7-1h.1c.4 0 .9.2 1 .7zM291 16.9c.1.4-.2.8-.6.9a.8.8 0 1 1-.2-1.7c.4 0 .8.2.9.7zM288.3 17.3c0 .4-.3.8-.7.9a.8.8 0 0 1-.2-1.7c.4 0 .8.3.9.7zM285.5 17.7c0 .4-.2.8-.7.9a.8.8 0 1 1-.2-1.7c.4 0 .8.3.9.7zM282.7 18c.1.5-.2 1-.6 1h-.1a.8.8 0 0 1-1-.7c0-.5.3-.9.7-1h.1c.5 0 .9.3 1 .7zM280 18.5c0 .4-.3.9-.7 1a.8.8 0 1 1-.2-1.7c.4-.1.8.2.9.6v.1zM277.2 19c0 .4-.3.8-.7.8a.8.8 0 0 1-1-.6V19c0-.4.3-.9.7-1 .5 0 1 .3 1 .7v.1zM274.4 19.3c0 .5-.2.9-.7 1a.8.8 0 0 1-1-.7v-.1c0-.4.3-.8.7-1 .5 0 1 .3 1 .8zM271.6 19.7c.1.5-.2.9-.6 1h-.1a.8.8 0 1 1-.2-1.7c.5 0 .9.2 1 .7zM268.9 20.1c0 .5-.3.9-.7 1a.8.8 0 1 1-.2-1.7c.4 0 .8.2.9.7zM266 20.6c.2.4-.2.8-.6.9a.8.8 0 0 1-.2-1.7c.4 0 .8.2.9.7zM263.3 21c0 .4-.2.8-.7.9a.8.8 0 0 1-1-.7c0-.5.3-.9.7-1 .5 0 1 .3 1 .7zM260.5 21.4c.1.4-.2.8-.6.9h-.1a.8.8 0 0 1-1-.7c0-.5.3-.9.7-1h.1c.5 0 .9.3 1 .7zM257.8 21.8c0 .4-.3.8-.7 1a.8.8 0 0 1-.2-1.7c.4-.1.8.2.9.6zM255 22.2c0 .4-.2.9-.7 1a.8.8 0 0 1-.2-1.7c.4-.1.8.2.9.6v.1z"/>
  <path opacity=".2" fill="#FFF" d="M281.9 23.6l-23 13.6 7.7-13.2 19.3-3.1z"/>
  <path opacity=".1" fill="#FFF" d="M276.1 9.7l-22-5.5 10.6 11.9 18-2.6z"/>
</svg>
