<?xml version="1.0" encoding="utf-8"?>
<!-- Generator: Adobe Illustrator 16.0.0, SVG Export Plug-In . SVG Version: 6.00 Build 0)  -->
<!DOCTYPE svg PUBLIC "-//W3C//DTD SVG 1.1//EN" "http://www.w3.org/Graphics/SVG/1.1/DTD/svg11.dtd">
<svg version="1.1" id="Layer_1" xmlns="http://www.w3.org/2000/svg" xmlns:xlink="http://www.w3.org/1999/xlink" x="0px" y="0px"
	 width="1358.171px" height="69.136px" viewBox="0 0 1358.171 69.136" enable-background="new 0 0 1358.171 69.136"
	 xml:space="preserve">
<g>
	<g>
		<circle fill="#BDD951" cx="799.228" cy="19.686" r="16.256"/>
		<path fill="#ABCF25" d="M799.343,3.433c0,0-0.076-0.002-0.116-0.002c-8.978,0-16.255,7.278-16.255,16.255
			c0,8.978,7.277,16.255,16.255,16.255c0.04,0,0.116-0.002,0.116-0.002V3.433z"/>
		
			<line fill="none" stroke="#744E3B" stroke-width="2.2438" stroke-miterlimit="10" x1="799.343" y1="12.732" x2="799.343" y2="54.241"/>
		
			<line fill="none" stroke="#744E3B" stroke-width="1.6828" stroke-miterlimit="10" x1="792.894" y1="14.415" x2="799.345" y2="20.585"/>
		
			<line fill="none" stroke="#744E3B" stroke-width="1.6828" stroke-miterlimit="10" x1="805.796" y1="14.415" x2="799.345" y2="20.585"/>
		
			<line fill="none" stroke="#744E3B" stroke-width="1.6828" stroke-miterlimit="10" x1="792.894" y1="23.39" x2="799.345" y2="29.56"/>
		
			<line fill="none" stroke="#744E3B" stroke-width="1.6828" stroke-miterlimit="10" x1="805.796" y1="23.39" x2="799.345" y2="29.56"/>
	</g>
	<g>
		<circle fill="#BDD951" cx="527.577" cy="19.686" r="16.256"/>
		<path fill="#ABCF25" d="M527.692,3.433c0,0-0.076-0.002-0.115-0.002c-8.979,0-16.256,7.278-16.256,16.255
			c0,8.978,7.277,16.255,16.256,16.255c0.039,0,0.115-0.002,0.115-0.002V3.433z"/>
		
			<line fill="none" stroke="#744E3B" stroke-width="2.2438" stroke-miterlimit="10" x1="527.692" y1="12.732" x2="527.692" y2="54.241"/>
		
			<line fill="none" stroke="#744E3B" stroke-width="1.6828" stroke-miterlimit="10" x1="521.245" y1="14.415" x2="527.694" y2="20.585"/>
		
			<line fill="none" stroke="#744E3B" stroke-width="1.6828" stroke-miterlimit="10" x1="534.147" y1="14.415" x2="527.694" y2="20.585"/>
		
			<line fill="none" stroke="#744E3B" stroke-width="1.6828" stroke-miterlimit="10" x1="521.245" y1="23.39" x2="527.694" y2="29.56"/>
		
			<line fill="none" stroke="#744E3B" stroke-width="1.6828" stroke-miterlimit="10" x1="534.147" y1="23.39" x2="527.694" y2="29.56"/>
	</g>
	<path fill="#4A8215" d="M1341.372,56.103c-1.823,0-3.582,0.264-5.236,0.703c-3.217-7.675-11.846-13.157-21.982-13.157
		c-12.886,0-23.33,8.823-23.33,19.769c0,1.095,0.108,2.262,0.311,3.166h33.443h12.596h20.998
		C1355.965,60.71,1349.276,56.103,1341.372,56.103z"/>
	<path fill="#4A8215" d="M764.755,53.569c-2.266,0-4.449,0.328-6.502,0.873c-3.996-9.529-14.705-16.336-27.297-16.336
		c-15.997,0-28.967,10.955-28.967,24.545c0,1.359,0.135,2.809,0.385,3.932h41.525h15.641h26.072
		C782.872,59.29,774.573,53.569,764.755,53.569z"/>
	<path fill="#643C08" d="M277.395,60.272c-1.099,0-2.157,0.158-3.155,0.422c-1.936-4.621-7.129-7.922-13.236-7.922
		c-7.758,0-14.049,5.313-14.049,11.904c0,0.66,0.064,1.361,0.186,1.906h20.139h7.589h12.642
		C286.181,63.046,282.155,60.272,277.395,60.272z"/>
	<path fill="#643C08" d="M30.441,60.272c-1.099,0-2.157,0.158-3.154,0.422c-1.937-4.621-7.132-7.922-13.237-7.922
		C6.292,52.772,0,58.085,0,64.677c0,0.66,0.065,1.361,0.187,1.906h20.139h7.589h12.642C39.229,63.046,35.2,60.272,30.441,60.272z"/>
	<g>
		
			<line fill="none" stroke="#744E3B" stroke-width="2.2438" stroke-miterlimit="10" x1="434.933" y1="27.065" x2="434.933" y2="69.136"/>
		<path fill="#BDD951" d="M446.903,32.674c0,14.329-8.415,19.213-11.875,19.213c-3.459,0-11.501-4.885-11.501-19.213
			C423.527,18.348,435.028,0,435.028,0S446.903,18.348,446.903,32.674z"/>
		<path fill="#ABCF25" d="M434.933,0.152c-1.121,1.72-11.407,18.925-11.407,32.522c0,14.204,8.04,19.124,11.407,19.208V0.152z"/>
	</g>
</g>
</svg>
