<svg xmlns="http://www.w3.org/2000/svg" width="136.3" height="339.5">
  <path fill="#757982" d="M35.6 340.5L25.1 216.3c-2-21.1-12.2 49-20.4 125l30.9-.8z"/>
  <path fill="#464B6B" d="M34.6 334.4H5.4l1-5h27.9zM32.5 315.1H8l.9-5H32zM33.3 325.2H6.7l1-5h24.9zM32 306H9l.8-5.1h21.5zM30.9 295.9H10.4l.6-4.2h19.7zM31 286.6H11.6l.7-5h17.6zM29.6 276.6H13l.4-5h15.6zM29 266.5H14.2v-5H29zM28.6 256.4H14.8l1-5h12.4zM28.2 248h-12l1-5h10.2zM27.5 238.8h-9.7l1.3-5h8.2zM26.7 228.8h-7.2l.8-4.2h6.4z"/>
  <path fill="none" stroke="#000" stroke-width="2.5" stroke-linecap="round" stroke-miterlimit="10" d="M-2996.6-1454.7s-12.3 43.2-24.1 161.8" transform="matrix(1.002 0 0 .8208 3028 1401.7)"/>
  <path fill="none" stroke="#262626" stroke-width="1.2" stroke-miterlimit="10" d="M-2991.8-1352.7s-14 35-23.5 51.7" transform="matrix(1.002 0 0 .8208 3028 1401.7)"/>
  <path fill="none" stroke="#000" stroke-width="2.5" stroke-linecap="round" stroke-miterlimit="10" d="M-2997-1455s-9.3 45.5-19.5 161.9" transform="matrix(1.002 0 0 .8208 3028 1401.7)"/>
  <path fill="#848484" d="M94.8 56.9h6l1.6 27.6-1-2.7s-6.4-21.6-6.6-25z"/>
  <path opacity=".3" d="M25 212.7l8.4 128-13.2.1c4.6-38.6 4.8-128 4.8-128z"/>
  <path fill="#A3A0A4" d="M33.6 341.7c-11.7-152-14.7-285-14.7-285l1.4.1s44.6 162.5 73 284l-59.7 1z"/>
  <path fill="#CCC" d="M80 287.5h53.3l3 52h-44z"/>
  <g fill="#020003">
    <path d="M81.2 233h3.7l.7 5.8H82zM73.7 233h3.7l.7 5.8h-3.6zM93.6 233h3.7l.7 5.8h-3.6zM99.8 233h3.7l.7 5.8h-3.6zM106 233h3.7l.7 5.8h-3.6zM112.2 233h3.8l.6 5.8H113zM87.4 233H91l.7 5.8h-3.6zM117.2 233h3.7l.9 5.8h-3.4z"/>
    <g>
      <path d="M83.5 243H87l.7 5.9h-3.5zM76.2 243h3.6l.7 5.9H77zM95.6 243h3.7l.7 5.9h-3.6zM101.7 243h3.6l.7 5.9h-3.5zM107.8 243h3.6l.7 5.9h-3.6zM113.8 243h3.7l.7 5.9h-3.6zM89.6 243h3.6l.7 5.9h-3.6zM118.7 243h3.6l.9 5.9h-3.3z"/>
    </g>
    <g>
      <path d="M85.5 251.4H89l.7 6.7h-3.5zM78.3 251.4h3.6l.7 6.7H79zM97.4 251.4h3.6l.7 6.7h-3.5zM103.4 251.4h3.6l.6 6.7h-3.5zM109.3 251.4h3.6l.7 6.7h-3.5zM115.3 251.4h3.6l.7 6.7H116zM91.4 251.4H95l.7 6.7h-3.5zM120 251.4h3.7l.8 6.7h-3.2z"/>
    </g>
    <g>
      <path d="M88.8 261.5h3.4l.6 5.8h-3.3zM82 261.5h3.4l.7 5.8h-3.4zM100.1 261.5h3.4l.6 5.8h-3.3zM105.8 261.5h3.3l.7 5.8h-3.3zM111.4 261.5h3.4l.6 5.8h-3.3zM117 261.5h3.4l.7 5.8h-3.3zM94.5 261.5h3.3l.7 5.8h-3.3zM121.6 261.5h3.4l.7 5.8h-3z"/>
    </g>
    <g>
      <path d="M90 271.5h3.4l.7 5.9h-3.3zM83.3 271.5h3.4l.6 5.9H84zM101.3 271.5h3.4l.7 5.9H102zM107 271.5h3.4l.6 5.9h-3.3zM112.6 271.5h3.4l.7 5.9h-3.4zM118.3 271.5h3.4l.6 5.9H119zM95.7 271.5h3.4l.6 5.9h-3.3zM122.8 271.5h3.4l.8 5.9h-3z"/>
    </g>
  </g>
  <path fill="#CCC" d="M65.7 230.4H127s5.8 47 5.8 51.2H77.7l-12-51.2z"/>
  <path fill="none" stroke="#000" stroke-width="5.9" stroke-miterlimit="10" d="M-3000.3-1640.8h74.4M-3002-1571.5h74.5M-3000.3-1502.1h67.7M-2997-1430.5h67M-2992.8-1361.1h67.8" transform="matrix(1.002 0 0 .8208 3028 1401.7)"/>
  <path fill="#CCC" d="M36.2 114.7h71.4l11.8 51.2H48.9zM20.3 56.9h75.8s5.4 21 10.5 52H32.7l-12.4-52z"/>
  <g fill="#353D77">
    <path d="M58.2 214.5H56l1.2 5.9h2.3zM51.8 214.5l1.2 5.9h2.3l-1.2-5.9zM47.6 214.5l1.3 5.9h2.3l-1.2-5.9zM43.5 214.5l1.2 5.9h2.4l-1.2-5.9zM39.4 214.5l1.2 5.9H43l-1.2-5.9zM35.3 214.5l1.2 5.9H39l-1.2-5.9zM31.2 214.5l1.2 5.9h2.4l-1.2-5.9zM27.1 214.5l1.2 5.9h2.4l-1.2-5.9zM56.7 205.3h-2.3l1.2 6.7h2.3zM52.7 205.3h-2.3l1.2 6.7h2.3zM48.6 205.3h-2.3l1.2 6.7h2.3zM44.6 205.3h-2.3l1.2 6.7h2.3zM41.7 212l-1.2-6.7h-2.3l1.2 6.7zM37.7 212l-1.2-6.7h-2.3l1.2 6.7zM33.6 212l-1.2-6.7h-2.3l1.2 6.7zM27.3 212h2.3l-1.2-6.7h-2l.2 3zM53 202h2.3l-1.2-6h-2.3zM51.3 202l-1.2-6h-2.3l1.2 6zM47.3 202l-1.2-6h-2.3l1.2 6zM42.1 196H40l1.1 6h2.3zM38.2 196h-2.3l1.2 6h2.2zM34.2 196h-2.3l1.2 6h2.3zM28 196l1.1 6h2.3l-1.2-6zM27.4 202l-1.2-6h-.7l.5 6zM50.7 193.5H53l-1.1-6.7h-2.3zM47.9 186.8h-2.2l1.1 6.7h2.3zM44 186.8h-2.2l1.2 6.7h2.2zM41.3 193.5l-1.1-6.7h-2.3l1.2 6.7zM37.5 193.5l-1.2-6.7h-2.2l1.1 6.7zM33.6 193.5l-1.2-6.7h-2.2l1.2 6.7zM27.5 193.5h2.2l-1.1-6.7h-2.2zM50.4 184.3l-1.2-7.5H47l1.3 7.5zM46.7 184.3l-1.3-7.5h-2.1l1.2 7.5zM43 184.3l-1.3-7.5h-2.1l1.2 7.5zM39.2 184.3l-1.2-7.5h-2.2l1.3 7.5zM35.5 184.3l-1.2-7.5H32l1.3 7.5zM31.8 184.3l-1.3-7.5h-2.1l1.2 7.5zM28 184.3l-1.2-7.5h-2.1l1.2 7.5z"/>
  </g>
  <path fill="#848484" d="M83.7 0h13.6l3.3 53.7h-5.8S83.8 3.6 83.7 0z"/>
  <path fill="#CCC" d="M9.1 0h74.6l11.8 53.7H20.3zM50.1 171.7h68.3s8.1 43.7 8.4 52.9H62.5l-12.4-52.9z"/>
  <g fill="#353D77">
    <path d="M26.6 33.5h-3.8l1.6 7.6H28zM20.4 3.4h-3.7l1.5 7.5H22zM28.6 43.6h-3.7l1.5 7.6h3.7zM24.5 23.5h-3.7l1.5 7.5H26zM22.5 13.4h-3.7l1.5 7.6H24zM30.7 23.5H27l1.5 7.5h3.8zM32.8 33.5H29l1.6 7.6h3.7zM28.7 13.4H25l1.5 7.6h3.7zM31 43.6l1.6 7.6h3.7l-1.5-7.6zM28.2 10.9l-1.5-7.5h-3.8l1.6 7.5zM34.4 10.9l-1.5-7.5H29l1.6 7.5zM37.3 43.6l1.5 7.6h3.8L41 43.6zM35.3 33.5l1.5 7.6h3.7L39 33.5zM37 23.5h-3.8l1.5 7.5h3.8zM36.4 21L35 13.4h-3.7l1.5 7.6zM42.6 21l-1.5-7.6h-3.7l1.5 7.6zM43.5 43.6l1.5 7.6h3.8l-1.6-7.6zM39.4 23.5L41 31h3.7l-1.5-7.5zM41.5 33.5l1.5 7.6h3.7l-1.5-7.6zM40.6 10.9l-1.5-7.5h-3.8l1.6 7.5zM45.6 23.5l1.6 7.5h3.7l-1.5-7.5zM47.7 33.5l1.5 7.6h3.7l-1.5-7.6zM46.8 10.9l-1.5-7.5h-3.7l1.5 7.5zM49.7 43.6l1.5 7.6H55l-1.6-7.6zM48.9 21l-1.6-7.6h-3.7l1.5 7.6zM53.9 33.5l1.5 7.6h3.7l-1.5-7.6zM51.8 23.5l1.6 7.5H57l-1.5-7.5zM56 43.6l1.5 7.6h3.7l-1.5-7.6zM53 10.9l-1.5-7.5h-3.7l1.5 7.5zM55 21l-1.5-7.6h-3.7l1.5 7.6zM60.1 33.5l1.5 7.6h3.7l-1.5-7.6zM59.2 10.9l-1.5-7.5H54l1.5 7.5zM61.3 21l-1.6-7.6H56l1.5 7.6zM62.1 43.6l1.6 7.6h3.7l-1.5-7.6zM58 23.5l1.6 7.5h3.7l-1.5-7.5zM67.5 21l-1.6-7.6h-3.7l1.6 7.6zM66.3 33.5l1.5 7.6h3.8L70 33.5zM64.3 23.5l1.5 7.5h3.7L68 23.5zM68.3 43.6l1.6 7.6h3.7l-1.5-7.6zM65.4 10.9L64 3.4h-3.7l1.5 7.5zM73.7 21l-1.5-7.6h-3.8L70 21zM70.5 23.5L72 31h3.7l-1.5-7.5zM71.6 10.9l-1.5-7.5h-3.7l1.5 7.5zM72.5 33.5l1.5 7.6h3.8l-1.6-7.6zM74.6 43.6l1.5 7.6h3.7l-1.5-7.6zM78.7 33.5l1.6 7.6H84l-1.6-7.6zM77.9 10.9l-1.6-7.5h-3.7l1.5 7.5zM79.9 21l-1.5-7.6h-3.8l1.6 7.6zM80.8 43.6l1.5 7.6H86l-1.5-7.6zM76.7 23.5l1.5 7.5H82l-1.5-7.5zM84 10.9l-1.5-7.5h-3.7l1.5 7.5zM86.1 21l-1.5-7.6h-3.7l1.5 7.6zM87 43.6l1.5 7.6h3.7l-1.5-7.6zM85 33.5l1.5 7.6h3.7l-1.5-7.6zM82.9 23.5l1.5 7.5h3.7l-1.5-7.5z"/>
  </g>
  <g fill="#353D77">
    <path d="M37.8 88.7H34l1.6 7.6h3.7zM31.5 59.4h-3.7l1.6 6.7H33zM39.8 98.8h-3.7l1.6 7.5h3.7zM35.7 78.7H32l1.5 7.5h3.7zM33.6 68.6H30l1.5 7.6h3.8zM41.9 78.7h-3.7l1.5 7.5h3.8zM44 88.7h-3.8l1.6 7.6h3.7zM39.8 68.6h-3.7l1.5 7.6h3.8zM42.3 98.8l1.6 7.5h3.7l-1.5-7.5zM39.3 66l-1.6-6.6H34l1.6 6.7zM45.5 66L44 59.5h-3.7l1.6 6.7zM48.5 98.8l1.6 7.5h3.7l-1.5-7.5zM46.5 88.7l1.5 7.6h3.7l-1.5-7.6zM48.1 78.7h-3.7l1.5 7.5h3.8zM47.6 76.2L46 68.6h-3.7l1.6 7.6zM53.8 76.2l-1.6-7.6h-3.7l1.6 7.6zM54.7 98.8l1.6 7.5H60l-1.5-7.5zM50.6 78.7l1.5 7.5H56l-1.6-7.5zM52.7 88.7l1.5 7.6H58l-1.5-7.6zM51.7 66l-1.5-6.6h-3.8L48 66zM56.8 78.7l1.6 7.5H62l-1.6-7.5zM58.9 88.7l1.5 7.6h3.8l-1.6-7.6zM58 66l-1.6-6.6h-3.8l1.6 6.7zM61 98.8l1.5 7.5h3.7l-1.5-7.5zM60 76.2l-1.6-7.6h-3.7l1.6 7.6zM65 88.7l1.6 7.6h3.8l-1.6-7.6zM63 78.7l1.6 7.5h3.7l-1.6-7.5zM67.2 98.8l1.5 7.5h3.7L71 98.8zM64.1 66l-1.5-6.6h-3.7l1.5 6.7zM66.2 76.2l-1.5-7.6h-3.8l1.6 7.6zM71.3 88.7l1.6 7.6h3.7L75 88.7zM70.3 66l-1.5-6.6H65l1.5 6.7zM72.4 76.2L71 68.6H67l1.6 7.6zM73.4 98.8l1.5 7.5h3.8L77 98.8zM69.2 78.7l1.6 7.5h3.7l-1.6-7.5zM78.6 76.2l-1.5-7.6h-3.8l1.6 7.6zM77.5 88.7l1.6 7.6h3.7l-1.6-7.6zM75.4 78.7l1.6 7.5h3.7l-1.5-7.5zM79.6 98.8l1.5 7.5H85l-1.6-7.5zM76.6 66L75 59.5h-3.7l1.5 6.7zM84.8 76.2l-1.5-7.6h-3.7l1.5 7.6zM81.6 78.7l1.6 7.5h3.7l-1.5-7.5zM82.8 66l-1.6-6.6h-3.7L79 66zM83.7 88.7l1.6 7.6H89l-1.6-7.6zM85.8 98.8l1.6 7.5H91l-1.6-7.5zM90 88.7l1.5 7.6h3.7l-1.5-7.6zM89 66l-1.6-6.6h-3.7l1.6 6.7zM91 76.2l-1.5-7.6h-3.7l1.5 7.6zM92 98.8l1.6 7.5h3.7l-1.6-7.5zM87.8 78.7l1.6 7.5h3.7l-1.5-7.5zM95.2 66l-1.6-6.6H90l1.6 6.7zM97.3 76.2l-1.6-7.6H92l1.5 7.6zM98.2 98.8l1.6 7.5h3.7l-1.6-7.5zM96.1 88.7l1.6 7.6h3.7l-1.5-7.6zM94 78.7l1.6 7.5h3.7l-1.5-7.5z"/>
  </g>
  <g fill="#353D77">
    <path d="M51.4 147.4H49l1.5 7.6H53zM49.3 137.4H47l1.5 7.5H51zM53.6 157.5H51l1.6 6.7H55zM47.2 127.3h-2.5l1.6 7.6h2.5zM45.1 117.2h-2.5l1.6 7.6h2.5zM52.2 127.3h-2.5l1.6 7.6h2.5zM51.7 124.8l-1.6-7.6h-2.5l1.6 7.6zM54.3 137.4h-2.5l1.6 7.5h2.5zM56 157.5l1.6 6.7h2.5l-1.6-6.7zM56.4 147.4H54l1.6 7.6H58zM61 157.5l1.6 6.7H65l-1.6-6.7zM58.7 134.9l-1.5-7.6h-2.5l1.6 7.6zM56.6 124.8l-1.6-7.6h-2.4l1.5 7.6zM58.9 147.4l1.6 7.6H63l-1.6-7.6zM59.3 137.4h-2.5l1.6 7.5h2.5zM61.6 124.8l-1.6-7.6h-2.5l1.6 7.6zM63.7 134.9l-1.6-7.6h-2.5l1.6 7.6zM61.8 137.4l1.5 7.5h2.5l-1.6-7.5zM63.9 147.4l1.5 7.6H68l-1.6-7.6zM66 157.5l1.6 6.7H70l-1.5-6.7zM71 157.5l1.5 6.7H75l-1.6-6.7zM68.8 147.4l1.6 7.6H73l-1.6-7.6zM66.6 124.8l-1.6-7.6h-2.5l1.6 7.6zM66.7 137.4l1.6 7.5h2.5l-1.6-7.5zM68.7 134.9l-1.6-7.6h-2.5l1.6 7.6zM76 157.5l1.5 6.7H80l-1.6-6.7zM71.5 124.8l-1.5-7.6h-2.5l1.5 7.6zM71.7 137.4l1.6 7.5h2.5l-1.6-7.5zM73.8 147.4l1.6 7.6h2.5l-1.6-7.6zM73.6 134.9l-1.5-7.6h-2.5l1.6 7.6zM76.5 124.8l-1.6-7.6h-2.5l1.6 7.6zM76.7 137.4l1.5 7.5h2.5l-1.6-7.5zM78.8 147.4l1.5 7.6h2.5l-1.5-7.6zM80.9 157.5l1.6 6.7h2.4l-1.5-6.7zM78.6 134.9l-1.6-7.6h-2.5l1.6 7.6zM81.5 124.8l-1.6-7.6h-2.5l1.6 7.6zM85.8 157.5l1.6 6.7H90l-1.6-6.7zM81.6 137.4l1.6 7.5h2.5l-1.6-7.5zM83.7 147.4l1.6 7.6h2.5l-1.6-7.6zM83.6 134.9l-1.6-7.6h-2.5l1.6 7.6zM88.7 147.4l1.6 7.6h2.5l-1.6-7.6zM86.4 124.8l-1.5-7.6h-2.5l1.6 7.6zM86.6 137.4l1.6 7.5h2.5l-1.6-7.5zM88.5 134.9l-1.5-7.6h-2.5l1.6 7.6zM90.8 157.5l1.6 6.7h2.5l-1.6-6.7zM93.7 147.4l1.6 7.6h2.4l-1.5-7.6zM93.5 134.9l-1.6-7.6h-2.5l1.6 7.6zM91.4 124.8l-1.6-7.6h-2.5l1.6 7.6zM95.8 157.5l1.6 6.7h2.4l-1.5-6.7zM91.6 137.4l1.5 7.5h2.5l-1.6-7.5zM96.4 124.8l-1.6-7.6h-2.5l1.6 7.6zM100.8 157.5l1.5 6.7h2.5l-1.6-6.7zM96.5 137.4l1.6 7.5h2.5l-1.6-7.5zM98.6 147.4l1.6 7.6h2.5l-1.6-7.6zM98.5 134.9l-1.6-7.6h-2.5l1.6 7.6zM103.5 134.9l-1.6-7.6h-2.5l1.6 7.6zM101.3 124.8l-1.5-7.6h-2.5l1.6 7.6zM105.7 157.5l1.6 6.7h2.5l-1.6-6.7zM101.5 137.4l1.6 7.5h2.5l-1.6-7.5zM103.6 147.4l1.6 7.6h2.5l-1.6-7.6zM110.7 157.5l1.6 6.7h2.5l-1.6-6.7zM108.4 134.9l-1.6-7.6h-2.4l1.5 7.6zM106.3 124.8l-1.6-7.6h-2.5l1.6 7.6zM106.5 137.4l1.5 7.5h2.5l-1.6-7.5zM108.6 147.4l1.6 7.6h2.4l-1.5-7.6z"/>
  </g>
  <g fill="#353D77">
    <path d="M80 262.3h-2.5l1.6 7.6h2.5zM77.9 253h-2.5l1.6 7.6h2.5zM82.2 272.4h-2.5l1.6 7.5h2.5zM75.8 243h-2.5l1.6 7.6h2.5zM73.6 233h-2.5l1.6 7.5h2.5zM80.7 243h-2.5l1.6 7.6h2.5zM80.2 240.5l-1.6-7.5H76l1.6 7.5zM82.9 253h-2.5l1.6 7.6h2.5zM84.6 272.4l1.6 7.5h2.5l-1.6-7.5zM85 262.3h-2.5l1.6 7.6h2.5zM89.6 272.4l1.6 7.5h2.5l-1.6-7.5zM87.3 250.6l-1.6-7.6h-2.5l1.6 7.6zM85.2 240.5l-1.6-7.5H81l1.6 7.5zM87.5 262.3L89 270h2.5l-1.6-7.6zM87.8 253h-2.5l1.6 7.6h2.5zM90.1 240.5l-1.6-7.5H86l1.6 7.5zM92.3 250.6l-1.6-7.6h-2.5l1.6 7.6zM90.3 253l1.6 7.6h2.5l-1.6-7.5zM92.4 262.3L94 270h2.5l-1.6-7.6zM94.6 272.4l1.6 7.5h2.5l-1.6-7.5zM99.5 272.4l1.7 7.5h2.4l-1.6-7.5zM97.4 262.3L99 270h2.5l-1.6-7.6zM95 240.5l-1.5-7.5H91l1.6 7.5zM95.3 253l1.6 7.6h2.5l-1.6-7.5zM97.2 250.6l-1.6-7.6h-2.5l1.6 7.6zM104.5 272.4l1.6 7.5h2.5l-1.6-7.5zM100 240.5l-1.5-7.5H96l1.6 7.5zM100.2 253l1.6 7.6h2.5l-1.6-7.5zM102.4 262.3l1.6 7.6h2.5l-1.6-7.6zM102.2 250.6l-1.6-7.6H98l1.6 7.6zM105 240.5l-1.6-7.5H101l1.6 7.5zM105.2 253l1.6 7.6h2.5l-1.6-7.5zM107.3 262.3l1.7 7.6h2.4l-1.6-7.6zM109.5 272.4l1.6 7.5h2.5l-1.6-7.5zM107.2 250.6l-1.6-7.6H103l1.6 7.6zM110 240.5l-1.6-7.5h-2.5l1.6 7.5zM114.5 272.4l1.6 7.5h2.4l-1.6-7.5zM110.2 253l1.6 7.6h2.5l-1.6-7.5zM112.3 262.3l1.6 7.6h2.5l-1.6-7.6zM112.1 250.6l-1.6-7.6H108l1.6 7.6zM117.3 262.3l1.6 7.6h2.5l-1.6-7.6zM115 240.5l-1.6-7.5h-2.5l1.6 7.5zM115.2 253l1.6 7.6h2.4l-1.6-7.5zM117.1 250.6l-1.6-7.6H113l1.6 7.6zM119.4 272.4l1.6 7.5h2.5l-1.6-7.5zM122.3 262.3l1.6 7.6h2.4l-1.6-7.6zM122 250.6l-1.5-7.6H118l1.6 7.6zM120 240.5l-1.7-7.5h-2.5l1.6 7.5zM124.4 272.4l1.6 7.5h2.5l-1.6-7.5zM120.1 253l1.6 7.6h2.5l-1.6-7.5zM124.9 240.5l-1.6-7.5h-2.5l1.6 7.5zM125 253l1.7 7.6h2.5l-1.6-7.5zM127.2 262.3l1.6 7.6h1.9l-1-7.6zM127 250.6l-1.6-7.6H123l1.7 7.6z"/>
  </g>
  <g fill="#353D77">
    <path d="M65.2 204.4h-2.5l1.7 7.6h2.5zM63 194.4h-2.5l1.6 7.5h2.5zM67.5 214.5H65l1.7 7.6H69zM60.7 184.3h-2.5l1.7 7.6h2.5zM58.4 174.3H56l1.7 7.5h2.5zM65.7 184.3h-2.5l1.7 7.6h2.4zM65 181.8l-1.6-7.5h-2.5l1.7 7.5zM68 194.4h-2.6l1.7 7.5h2.5zM70 214.5l1.6 7.6h2.5l-1.7-7.6zM70.2 204.4h-2.5l1.7 7.6h2.5zM75 214.5l1.6 7.6h2.5l-1.7-7.6zM72.3 191.9l-1.7-7.6h-2.5l1.7 7.6zM70 181.8l-1.6-7.5h-2.5l1.7 7.5zM72.6 204.4l1.7 7.6h2.5l-1.7-7.6zM72.9 194.4h-2.5l1.7 7.5h2.5zM75 181.8l-1.7-7.5h-2.5l1.7 7.5zM77.3 191.9l-1.7-7.6H73l1.7 7.6zM75.4 194.4l1.7 7.5h2.4l-1.7-7.5zM77.6 204.4l1.7 7.6h2.5l-1.7-7.6zM79.9 214.5l1.7 7.6H84l-1.7-7.6zM84.8 214.5l1.7 7.6H89l-1.7-7.6zM82.6 204.4l1.7 7.6h2.5l-1.7-7.6zM80 181.8l-1.7-7.5h-2.5l1.7 7.5zM80.3 194.4l1.7 7.5h2.5l-1.7-7.5zM82.3 191.9l-1.7-7.6H78l1.7 7.6zM89.8 214.5l1.7 7.6H94l-1.7-7.6zM85 181.8l-1.7-7.5h-2.5l1.7 7.5zM85.3 194.4l1.7 7.5h2.5l-1.7-7.5zM87.6 204.4l1.6 7.6h2.5l-1.7-7.6zM87.2 191.9l-1.7-7.6H83l1.7 7.6zM90 181.8l-1.8-7.5h-2.4l1.6 7.5zM90.3 194.4l1.7 7.5h2.4l-1.6-7.5zM92.5 204.4l1.7 7.6h2.5l-1.7-7.6zM94.8 214.5l1.7 7.6H99l-1.7-7.6zM92.2 191.9l-1.7-7.6H88l1.7 7.6zM94.9 181.8l-1.7-7.5h-2.5l1.7 7.5zM99.7 214.5l1.7 7.6h2.5l-1.7-7.6zM95.2 194.4l1.7 7.5h2.5l-1.7-7.5zM97.5 204.4l1.7 7.6h2.5l-1.7-7.6zM97.2 191.9l-1.7-7.6H93l1.7 7.6zM102.5 204.4l1.6 7.6h2.5l-1.7-7.6zM99.9 181.8l-1.7-7.5h-2.5l1.7 7.5zM100.2 194.4l1.7 7.5h2.5l-1.7-7.5zM102.1 191.9l-1.7-7.6H98l1.7 7.6zM104.7 214.5l1.7 7.6h2.5l-1.7-7.6zM107.4 204.4l1.7 7.6h2.5l-1.7-7.6zM107 191.9l-1.6-7.6h-2.5l1.7 7.6zM104.8 181.8l-1.7-7.5h-2.4l1.6 7.5zM109.7 214.5l1.7 7.6h2.5l-1.7-7.6zM105.2 194.4l1.7 7.5h2.4l-1.6-7.5zM109.8 181.8l-1.7-7.5h-2.5l1.7 7.5zM114.6 214.5l1.7 7.6h2.5l-1.7-7.6zM110.1 194.4l1.7 7.5h2.5l-1.7-7.5zM112.4 204.4l1.7 7.6h2.5l-1.7-7.6zM112 191.9l-1.6-7.6h-2.5l1.7 7.6zM117 191.9l-1.7-7.6h-2.5l1.7 7.6zM114.8 181.8l-1.7-7.5h-2.5l1.7 7.5zM119.6 214.5l1.7 7.6h2.5l-1.7-7.6zM115.1 194.4l1.7 7.5h2.5l-1.7-7.5zM117.4 204.4l1.7 7.6h2.4l-1.7-7.6z"/>
  </g>
  <g fill="#353D77">
    <path d="M38.5 337l-1.8-7.6h-1l.6 7.5zM39.1 329.4l1.8 7.5h2.5l-1.8-7.5zM41 327.7l-1.8-7.5h-2.5l1.8 7.5zM34.3 310.1l1.8 7.6h2.5l-1.8-7.6zM36.2 307.6l-1.8-7.6H33l.7 7.6zM38.7 307.6h2.5l-1.8-7.6h-2.5zM38.8 297.5l-1.9-7.5h-2.4l1.8 7.5zM41.7 320.2l1.8 7.5H46l-1.8-7.5zM39.3 310.1l1.8 7.6h2.5l-1.8-7.6zM46.6 329.4H44l1.8 7.5h2.5zM49 329.4l1.9 7.5h2.5l-1.8-7.5zM43.7 307.6H46l-1.8-7.6h-2.5zM43.7 297.5L42 290h-2.5l1.8 7.5zM46.7 320.2l1.8 7.5H51l-1.9-7.5zM44.3 310.1l1.8 7.6h2.4l-1.8-7.6zM48.6 307.6h2.5l-1.8-7.6h-2.5zM48.7 297.5l-1.8-7.5h-2.5l1.8 7.5zM49.2 310.1l1.8 7.6h2.5l-1.8-7.6zM51.6 320.2l1.8 7.5H56l-1.8-7.5zM54 329.4l1.9 7.5h2.4l-1.8-7.5zM53.6 307.6H56l-1.8-7.6h-2.5zM59 329.4l1.8 7.5h2.5l-1.8-7.5zM54.2 310.1l1.8 7.6h2.5l-1.8-7.6zM56.6 320.2l1.8 7.5H61l-1.8-7.5zM53.7 297.5l-1.8-7.5h-2.5l1.8 7.5zM58.6 307.6H61l-1.8-7.6h-2.5zM66.5 329.4H64l1.8 7.5h2.5zM58.6 297.5l-1.8-7.5h-2.5l1.8 7.5zM59.2 310.1l1.8 7.6h2.4l-1.8-7.6zM61.6 320.2l1.8 7.5h2.5l-1.8-7.5zM66.5 320.2l1.8 7.5h2.5l-1.8-7.5zM63.6 297.5l-1.8-7.5h-2.5l1.8 7.5zM71.4 329.4H69l1.8 7.5h2.4zM64.1 310.1l1.8 7.6h2.5l-1.8-7.6zM63.5 307.6H66l-1.8-7.6h-2.5zM68.6 297.5l-1.8-7.5h-2.5l1.8 7.5zM71.5 320.2l1.8 7.5h2.5l-1.8-7.5zM74 329.4l1.7 7.5h2.5l-1.8-7.5zM69 310.1l1.9 7.6h2.5l-1.8-7.6zM68.5 307.6H71l-1.8-7.6h-2.5zM74 310.1l1.9 7.6h2.5l-1.9-7.6zM73.5 297.5l-1.8-7.5h-2.5l1.8 7.5zM73.5 307.6h2.4l-1.8-7.6h-2.5zM78.9 329.4l1.8 7.5h2.5l-1.8-7.5zM76.5 320.2l1.8 7.5h2.5l-1.8-7.5zM78.4 307.6H81l-1.8-7.6h-2.5zM78.5 297.5l-1.8-7.5h-2.5l1.8 7.5zM80.8 317.7h2.5l-1.8-7.6H79zM83.3 327.7h2.4l-1.8-7.5h-2.5zM85.7 337H88l-1.8-7.6H84z"/>
  </g>
  <g fill="#353D77">
    <path d="M31.3 272.4l.6 7 .1.5h2.5l-1.7-7.5zM30 262.3l.6 7 .2.6H32l-1.7-7.6zM35.4 262.3H33l1.8 7.6H37zM30 250.6h2.5l-1.7-7.6H29l.6 4.3zM30.2 240.5l-1.7-7.5h-.8l1 7.5zM35.2 272.4l1.8 7.5h2.4l-1.7-7.5zM30.6 253l1.8 7.6h2.4l-1.7-7.5zM35.2 240.5l-1.7-7.5H31l1.7 7.5zM40.2 272.4l1.7 7.5h2.5l-1.7-7.5zM35.6 253l1.7 7.6h2.5l-1.7-7.5zM40.4 262.3h-2.5l1.7 7.6h2.5zM35 250.6h2.5l-1.7-7.6h-2.5zM40 250.6h2.5l-1.8-7.6h-2.4zM40.2 240.5l-1.8-7.5H36l1.7 7.5zM45.2 272.4l1.7 7.5h2.5l-1.7-7.5zM40.6 253l1.7 7.6h2.5l-1.7-7.5zM45.4 262.3h-2.5l1.7 7.6h2.5zM50.1 272.4l1.8 7.5h2.5l-1.8-7.5zM45 250.6h2.4l-1.7-7.6h-2.5zM45.1 240.5l-1.7-7.5H41l1.8 7.5zM45.5 253l1.8 7.6h2.4l-1.7-7.5zM50.3 262.3h-2.5l1.8 7.6H52zM55.3 262.3h-2.5l1.7 7.6H57zM50 250.6h2.4l-1.7-7.6h-2.5zM50.5 253l1.7 7.6h2.5l-1.7-7.5zM50.1 240.5l-1.7-7.5h-2.5l1.7 7.5zM55.1 272.4l1.7 7.5h2.5l-1.7-7.5zM55 240.5l-1.7-7.5H51l1.7 7.5zM54.9 250.6h2.5l-1.7-7.6h-2.5zM55.5 253l1.7 7.6h2.5l-1.7-7.5zM60 272.4l1.8 7.5h2.5l-1.7-7.5zM60.3 262.3h-2.5l1.7 7.6H62zM65 272.4l1.8 7.5h2.5l-1.8-7.5zM59.9 250.6h2.4l-1.7-7.6h-2.5zM60 240.5l-1.7-7.5h-2.5l1.8 7.5zM65.2 262.3h-2.5l1.8 7.6H67zM60.4 253l1.8 7.6h2.4l-1.7-7.5zM70.2 262.3h-2.5l1.7 7.6H72zM64.8 250.6h2.5l-1.7-7.6H63zM67.1 260.6h2.5l-1.7-7.5h-2.5zM65 240.5l-1.7-7.5h-2.5l1.7 7.5zM72.5 272.4H70l1.7 7.5h2.5z"/>
  </g>
  <g fill="#353D77">
    <path d="M23 127.3zM28 162.5h2.5l-1.3-6.7h-2.6zM30.4 155.8l1.3 6.7h2.6l-1.4-6.7zM34 155.8l1.4 6.7H38l-1.4-6.7zM44 155.8h-2.5l1.3 6.7h2.7zM41.7 145.8h-2.3l1.3 6.7h2.5zM34.5 145.8H32l1.3 6.7h2.5zM30.7 145.8h-2.4l1.3 6.7H32zM38.2 145.8h-2.5l1.3 6.7h2.5zM26.8 162.5l-1.4-6.7h-1.1l.3 6.7zM24.6 152.5l-.6-3.1.1 3zM25.8 152.5h2.6l-1.4-6.7h-2.5zM37.8 155.8l1.3 6.7h2.6l-1.3-6.7zM32.3 135.7h-2.4l1.3 6.7h2.4zM39.5 135.7h-2.2l1.3 6.7H41zM36 135.7h-2.4l1.3 6.7h2.5zM28.6 135.7h-2.4l1.3 6.7h2.4zM23.6 141.5l.1.9h2.5l-1.4-6.7h-1.5zM34.1 127.3h-2.3l1.3 5.9h2.4zM37.5 127.3h-2l1.3 5.9h2zM26.7 127.3h-2.4l1.3 5.9H28zM23.2 133.2h1.1l-1.4-5.9zM30.4 127.3H28l1.4 5.9h2.3zM35.2 117.2h-1.8l1.3 6.8h1.9zM28.2 117.2H26l1.4 6.8h2.3zM32 117.2h-2.3L31 124h2.3zM24.5 117.2h-2v1.7l1 5H26z"/>
  </g>
  <g fill="#353D77">
    <path d="M22 106.3h1l-1.3-6.7zM28 106.3h2.6L29 99.6h-2.5zM25.8 96.3h2.5l-1.5-5.9h-2.3zM21.2 92.4l1 3.9h2.4l-1.3-5.9H21zM24.2 106.3h2.6l-1.4-6.7H23zM23.7 86.2H26l-1.4-5.9h-2.2zM21 86.2h1.5L21 80.3h-.4zM20.6 77.7v-.1zM21.9 77.8h2l-1.3-6.7h-2zM21.7 67.8l-1.4-5.9h-.5l.3 5.9z"/>
  </g>
  <path fill="none" d="M96.3 20.1H94l.8 3.4h1.5zM92.9 20.1h-2.3l.8 3.4h2.3zM95 30.2h-2.1l.5 2.5h2.1zM90.8 10h-2.5l.8 3.4h2.5zM95.7 10l.1.5V10zM97.2 40.4l-.4-1.8h-2l1 3.3h1.5zM94.5 10H92l.8 3.4h2.5zM96.7 30.2h-.4l.5 2.5z"/>
  <path fill="#353D77" d="M95.5 3.4h-1.2l1.4 6.7zM89.5 3.4h-2.6l1.4 6.7h2.5zM91.6 13.4H89l1.5 6.7h2.3zM96.2 17.8l-1-4.4h-2.4l1.3 6.7h2.2zM93.2 3.4h-2.6L92 10h2.5zM93.7 23.5h-2.3l1.5 6.7h2zM96.4 23.5H95l1.4 6.7h.4z"/>
  <path fill="#191918" d="M96.8 32.3z"/>
  <path fill="#353D77" d="M95.5 32.7h-2l1.4 5.9h2zM95.7 42l1.4 6.6h.5l-.3-6.7z"/>
  <g>
    <path fill="#353D77" d="M98.2 59.4L100 66h.7l-.4-6.7z"/>
  </g>
  <g fill="#353D77">
    <path d="M96.3 320.2h-3.8l1.8 7.5H98zM89.4 290h-3.8l1.8 7.5H91zM94.8 329.4l1.8 7.5h3.7l-1.7-7.5zM94 310.1h-3.8l1.8 7.6h3.7zM91.7 300h-3.8l1.8 7.6h3.7zM96.5 310.1l1.7 7.6h3.7l-1.7-7.6zM102.5 320.2h-3.7l1.7 7.5h3.7zM95.9 307.6h3.7L98 300h-3.7zM101 329.4l1.8 7.5h3.7l-1.7-7.5zM97.3 297.5l-1.7-7.5h-3.7l1.7 7.5zM103.5 297.5l-1.7-7.5H98l1.7 7.5zM107.3 329.4l1.7 7.5h3.7l-1.7-7.5zM108.7 320.2H105l1.7 7.5h3.7zM102.7 310.1l1.7 7.6h3.7l-1.7-7.6zM102 307.6h3.8l-1.7-7.6h-3.7zM108.3 307.6h3.7l-1.7-7.6h-3.7zM113.5 329.4l1.7 7.5h3.7l-1.7-7.5zM108.9 310.1l1.7 7.6h3.7l-1.7-7.6zM115 320.2h-3.8l1.7 7.5h3.7zM109.7 297.5L108 290h-3.7l1.7 7.5zM115 310.1l1.8 7.6h3.7l-1.7-7.6zM121.1 320.2h-3.7l1.7 7.5h3.7zM116 297.5l-1.8-7.5h-3.7l1.7 7.5zM119.7 329.4l1.7 7.5h3.7l-1.7-7.5zM114.5 307.6h3.7l-1.7-7.6h-3.7zM127.3 320.2h-3.7l1.7 7.5h3.7zM121.3 310.1l1.7 7.6h3.7L125 310zM125.9 329.4l1.7 7.5h3.7l-1.7-7.5zM122.1 297.5l-1.7-7.5h-3.7l1.7 7.5zM120.7 307.6h3.7l-1.7-7.6H119zM129.8 320.2l1.7 7.5h2.3l-1.2-7.5zM128.4 297.5l-1.8-7.5H123l1.7 7.5zM130.7 307.6l-1.8-7.6h-3.7l1.7 7.6zM131.2 310.1h-3.7l1.7 7.6h3.3v-2.4zM129.1 290l1.7 7.5h1.9l-1.5-7.5z"/>
  </g>
</svg>
