<?xml version="1.0" encoding="utf-8"?>
<!-- Generator: Adobe Illustrator 16.0.0, SVG Export Plug-In . SVG Version: 6.00 Build 0)  -->
<!DOCTYPE svg PUBLIC "-//W3C//DTD SVG 1.1//EN" "http://www.w3.org/Graphics/SVG/1.1/DTD/svg11.dtd">
<svg version="1.1" id="Layer_1" xmlns="http://www.w3.org/2000/svg" xmlns:xlink="http://www.w3.org/1999/xlink" x="0px" y="0px"
	 width="1945px" height="331px" viewBox="0 0 1945 331" enable-background="new 0 0 1945 331" xml:space="preserve">
<polygon fill="#B9D9E8" enable-background="new    " points="1936,233 1936,40 1920,40 1920,7 1869.5,7 1869.5,141 1813,141 
	1813,278 1791,278 1791,79.3 1754,69.3 1754,117 1672,117 1672,226 1634,226 1634,33 1619,33 1619,0 1568.301,0 1568.301,154 
	1544,154 1544,32 1511,32 1511,154 1495,154 1495,281 1479,281 1479,153 1424,153 1424,95.4 1327,69.3 1327,117 1246,117 1246,226 
	1208,226 1208,33 1192,33 1192,0 1119,0 1119,331 1945,331 1945,233 "/>
<polygon fill="#B9D9E8" enable-background="new    " points="1064,141 1064,17 1031,17 1031,141 1015,141 1015,268 1000,268 
	1000,139 943,139 943,81.4 740,54.9 740,142 736,142 736,213 718,213 718,69 702,69 702,37 631.6,37 631.6,69 613,69 613,272 
	589,272 589,134 495,134 495,208 481,208 481,99 395,99 395,173 376,173 376,141 326,141 326,17 293,17 293,141 277,141 277,268 
	262,268 262,139 204,139 204,81.4 154,74.8 154,272 132,272 132,134 73,134 73,272 49,272 49,74.8 0,81.2 0,331 1119,331 1119,141 
	"/>
</svg>
