<svg xmlns="http://www.w3.org/2000/svg" width="158.4" height="299.7">
  <path fill="#78888E" d="M151.2 32.2l-3.7-5.7-8.3-3.6H130l-1 1.2h-2.2l-3 4-2.9.6v8l-1.4 6s12.8 2.3 13 2.2c.4-.2 16 .7 16 .7l2.7-13.4z"/>
  <path fill="#78888E" d="M153 43h-5.5V18.9l5.5 1z"/>
  <path fill="#899CA4" d="M147.5 29.2h-3V20l3 1.2z"/>
  <path fill="#78888E" d="M144.4 29.2h-4.8V13.7l4.8.7zm-4.8-3.6h-2.8V15l2.8 1.2z"/>
  <path fill="#78888E" d="M136.8 25H131v-6.2l5.7 1.1zm-5.8-1h-2v-3.7l2 1.2z"/>
  <path fill="#83D2EA" d="M15.4 68.4v10h14.8v-10H15.4zm22.1 0v10H51v-10H37.5zm20.8 0v10H72v-10H58.3zm21 0v10h12.3v-10H79.3zm20.7 0v10h14.1v-10h-14zM15.4 83.3v8.5h14.8v-8.5H15.4zm22.1 0v8.5H51v-8.5H37.5zm20.8 0v8.5H72v-8.5H58.3zm21 0v8.5h12.3v-8.5H79.3zm20.7 0v8.5h14.1v-8.5h-14zM15.4 96.8v8.5h14.8v-8.5H15.4zm22.1 0v8.5H51v-8.5H37.5zm20.8 0v8.5H72v-8.5H58.3zm21 0v8.5h12.3v-8.5H79.3zm20.7 0v8.5h14.1v-8.5h-14zm-84.6 13.5v8.4h14.8v-8.4H15.4zm22.1 0v8.4H51v-8.4H37.5zm20.8 0v8.4H72v-8.4H58.3zm21 0v8.4h12.3v-8.4H79.3zm20.7 0v8.4h14.1v-8.4h-14zm-84.6 13.5v8.4h14.8v-8.4H15.4zm22.1 0v8.4H51v-8.4H37.5zm20.8 0v8.4H72v-8.4H58.3zm21 0v8.4h12.3v-8.4H79.3zm20.7 0v8.4h14.1v-8.4h-14zm-84.6 13.4v8.5h14.8v-8.5H15.4zm22.1 0v8.5H51v-8.5H37.5zm20.8 0v8.5H72v-8.5H58.3zm21 0v8.5h12.3v-8.5H79.3zm20.7 0v8.5h14.1v-8.5h-14zm-84.6 13.5v8.5h14.8v-8.5H15.4zm22.1 0v8.5H51v-8.5H37.5zm20.8 0v8.5H72v-8.5H58.3zm21 0v8.5h12.3v-8.5H79.3zm20.7 0v8.5h14.1v-8.5h-14zm-84.6 13.5v8.4h14.8v-8.4H15.4zm22.1 0v8.4H51v-8.4H37.5zm20.8 0v8.4H72v-8.4H58.3zm21 0v8.4h12.3v-8.4H79.3zm20.7 0v8.4h14.1v-8.4h-14zm-84.6 12v9.9h14.8v-9.9H15.4zm22.1 0v9.9H51v-9.9H37.5zm20.8 0v9.9H72v-9.9H58.3zm21 0v9.9h12.3v-9.9H79.3zm20.7 0v9.9h14.1v-9.9h-14zm-84.6 13.6v9.8h14.8v-9.8H15.4zm22.1 0v9.8H51v-9.8H37.5zm20.8 0v9.8H72v-9.8H58.3zm21 0v9.8h12.3v-9.8H79.3zm20.7 0v9.8h14.1v-9.8h-14zm-84.6 13.5v9.7h14.8v-9.7H15.4zm22.1 0v9.7H51v-9.7H37.5zm20.8 0v9.7H72v-9.7H58.3zm21 0v9.7h12.3v-9.7H79.3zm20.7 0v9.7h14.1v-9.7h-14zm-84.6 13.5v9.7h14.8v-9.7H15.4zm22.1 0v9.7H51v-9.7H37.5zm20.8 0v9.7H72v-9.7H58.3zm21 0v9.7h12.3v-9.7H79.3zm20.7 0v9.7h14.1v-9.7h-14zm-84.6 12.3V240h14.8v-11H15.4zm22.1 0V240H51v-11H37.5zm20.8 0V240H72v-11H58.3zm21 0V240h12.3v-11H79.3zm20.7 0V240h14.1v-11h-14zm-86 14.3v10h16.8v-10H14zm21.7 0v10h16v-10h-16zm22.6 0v10H72v-10H58.3zm21 0v10h12.3v-10H79.3zm20.7 0v10h14.1v-10h-14zm-85 12.9v10.6h15.2v-10.6H15.1zm22.5 0v10.6H51v-10.6H37.5zm20.8 0v10.6H72v-10.6H58.3zm21 0v10.6h12.3v-10.6H79.3zm20.7 0v10.6h14.1v-10.6h-14zm-84.6 15.1v27.2h14.8v-27.2H15.4zm22.1 0v27.2H51v-27.2H37.5zm20.8 0v27.2H72v-27.2H58.3zm21 0v27.2h12.3v-27.2H79.3zm20.7 0v27.2h14.1v-27.2h-14zm21.5-228.8v8.6H152v-8.6h-30.5zM57 55.8v8.6h95v-8.6H57zm64.5 13.5v9H152v-9h-30.5zm0 14v8.5H152v-8.5h-30.5zm0 175v8.1H152v-8.1h-30.5zm0-13.5v8.5H152v-8.5h-30.5zm0-13.4v8.4H152v-8.4h-30.5zm0-13.4v8.4H152v-8.5h-30.5zm0-14.8v9.7H152v-9.7h-30.5zm0-13.5v9.7H152v-9.7h-30.5zm0-13.6v9.9H152v-10h-30.5zm0-12.1v8.6H152V164h-30.5zm0-13.4v8.5H152v-8.5h-30.5zm0-13.4v8.4H152v-8.4h-30.5zm0-13.5v8.5H152v-8.5h-30.5zm0-13.4v8.4H152v-8.4h-30.5zm0-13.5v8.5H152v-8.5h-30.5zm0 174.6v27.2H152v-27.2h-30.5zM32.6 59v4.8h3.1v-4.9h-3zm0-7.6v4.8h3.1v-4.8h-3zM52.7 59v4.8h3.1v-4.9h-3.1zm0-7.6v4.8h3.1v-4.8h-3.1z"/>
  <path opacity=".7" fill="#FFF" d="M147.3 257.7H145l-11 8.7h2.8zm0-13H145l-11 8.7h2.8zM48.8 244.7h-2.2l-9.7 7.3v1.4h.5zm3.6 0h-2.2l-11.4 8.7h2.8zM68.6 244.7h-1.9l-9.6 7.3v1.4h.1zm4 0h-2.3L59 253.4h2.8zM90 243.7h-2.4l-10.7 8.1v1.6h.5zm4.1 0h-2.5l-12.7 9.7h3.2zM111.1 244.7H109l-9.5 7.3v1.4h.5zm3.6 0h-2.2l-11.3 8.7h2.8zM132.7 244.7h-2.2L121 252v1.4h.5zm3.7 0H134l-11.3 8.7h2.8zM26.6 244.8h-2.2L15 252v1.4h.5zm3.6 0H28l-11.2 8.6h2.8zM48.8 231.2h-2.2l-9.7 7.4v1.4h.5zm3.6 0h-2.2L38.8 240h2.8zM68.6 231.2h-1.9l-9.6 7.4v1.4h.1zm4 0h-2.3L59 240h2.8zM90 230.2h-2.4l-10.7 8.2v1.6h.5zm4.1 0h-2.5L78.9 240h3.2zM111.1 231.3H109l-9.5 7.3v1.4h.5zm3.6 0h-2.2l-11.3 8.7h2.8zM26.6 231.4h-2.2l-9.4 7.2v1.4h.5zm3.6 0H28L16.8 240h2.8zM147.3 231.3H145l-11 8.7h2.8zM132.7 231.2h-2.2l-9.6 7.4v1.4h.5zm3.7 0H134l-11.3 8.8h2.8z"/>
  <g fill="#FFF">
    <path opacity=".7" d="M48.8 217.8h-2.2l-9.7 7.4v1.4h.5zm3.6 0h-2.2l-11.4 8.8h2.8zm16.2 0h-1.9l-9.6 7.4v1.4h.1zm4 0h-2.3L59 226.6h2.8zm17.4-1h-2.4L76.9 225v1.6h.5zm4.1 0h-2.5l-12.7 9.8h3.2zm17 1.2H109l-9.5 7.2v1.4h.5zm3.6 0h-2.2l-11.3 8.6h2.8zM26.6 218h-2.2l-9.4 7.2v1.4h.5zm3.6 0H28l-11.2 8.6h2.8zM147.3 217.9H145l-11 8.7h2.8zM132.7 217.8h-2.2l-9.6 7.4v1.4h.5zm3.7 0H134l-11.3 8.8h2.8z"/>
  </g>
  <g fill="#FFF">
    <path opacity=".7" d="M48.8 204.3h-2.2l-9.7 7.3v1.4h.5zm3.6 0h-2.2L38.8 213h2.8zm16.2 0h-1.9l-9.6 7.3v1.4h.1zm4 0h-2.3L59 213h2.8zm17.4-1h-2.4l-10.7 8.2v1.5h.5zm4.1 0h-2.5L78.9 213h3.2zm17 1.1H109l-9.5 7.2v1.4h.5zm3.6 0h-2.2l-11.3 8.6h2.8zM26.6 204.5h-2.2l-9.4 7.2v1.3h.5zm3.6 0H28L16.8 213h2.8zM147.3 204.4H145l-11 8.6h2.8zM132.7 204.3h-2.2l-9.6 7.3v1.4h.5zm3.7 0H134l-11.3 8.7h2.8z"/>
  </g>
  <g fill="#FFF">
    <path opacity=".7" d="M48.8 190.8h-2.2l-9.7 7.4v1.4h.5zm3.6 0h-2.2l-11.4 8.8h2.8zm16.2 0h-1.9l-9.6 7.4v1.4h.1zm4 0h-2.3L59 199.6h2.8zm17.4-1h-2.4L76.9 198v1.6h.5zm4.1 0h-2.5l-12.7 9.8h3.2zm17 1.1H109l-9.5 7.3v1.4h.5zm3.6 0h-2.2l-11.3 8.7h2.8zM26.6 191h-2.2l-9.4 7.2v1.4h.5zm3.6 0H28l-11.2 8.6h2.8zM147.3 190.9H145l-11 8.7h2.8zM132.7 190.8h-2.2l-9.6 7.4v1.4h.5zm3.7 0H134l-11.3 8.8h2.8z"/>
  </g>
  <g fill="#FFF">
    <path opacity=".7" d="M48.8 177.3h-2.2l-9.7 7.4v1.4h.5zm3.6 0h-2.2l-11.4 8.8h2.8zm16.2.1h-1.9l-9.6 7.3v1.4h.1zm4 0h-2.3L59 186h2.8zm17.4-1h-2.4l-10.7 8.1v1.6h.5zm4.1 0h-2.5L78.9 186h3.2zm17 1H109l-9.5 7.3v1.4h.5zm3.6 0h-2.2l-11.3 8.7h2.8zM26.6 177.5h-2.2l-9.4 7.2v1.4h.5zm3.6 0H28l-11.2 8.6h2.8zM147.3 177.4H145l-11 8.7h2.8zM132.7 177.4h-2.2l-9.6 7.3v1.4h.5zm3.7 0H134l-11.3 8.7h2.8z"/>
  </g>
  <g fill="#FFF">
    <path opacity=".7" d="M48.8 163.9h-2.2l-9.7 7.3v1.4h.5zm3.6 0h-2.2l-11.4 8.7h2.8zm16.2 0h-1.9l-9.6 7.3v1.4h.1zm4 0h-2.3L59 172.6h2.8zm17.4-1h-2.4l-10.7 8.2v1.5h.5zm4.1 0h-2.5l-12.7 9.7h3.2zm17 1.1H109l-9.5 7.2v1.4h.5zm3.6 0h-2.2l-11.3 8.6h2.8zM26.6 164h-2.2l-9.4 7.3v1.3h.5zm3.6 0H28l-11.2 8.6h2.8zM147.3 164H145l-11 8.6h2.8zM132.7 163.9h-2.2l-9.6 7.3v1.4h.5zm3.7 0H134l-11.3 8.7h2.8z"/>
  </g>
  <g fill="#FFF">
    <path opacity=".7" d="M48.8 150.4h-2.2l-9.7 7.4v1.4h.5zm3.6 0h-2.2l-11.4 8.8h2.8zm16.2 0h-1.9l-9.6 7.4v1.4h.1zm4 0h-2.3L59 159.2h2.8zm17.4-1h-2.4l-10.7 8.2v1.6h.5zm4.1 0h-2.5l-12.7 9.8h3.2zm17 1.1H109l-9.5 7.3v1.4h.5zm3.6 0h-2.2l-11.3 8.7h2.8zM26.6 150.6h-2.2l-9.4 7.2v1.4h.5zm3.6 0H28l-11.2 8.6h2.8zM147.3 150.5H145l-11 8.7h2.8zM132.7 150.4h-2.2l-9.6 7.4v1.4h.5zm3.7 0H134l-11.3 8.8h2.8z"/>
  </g>
  <g fill="#FFF">
    <path opacity=".7" d="M48.8 137h-2.2l-9.7 7.3v1.4h.5zm3.6 0h-2.2l-11.4 8.7h2.8zm16.2 0h-1.9l-9.6 7.3v1.4h.1zm4 0h-2.3L59 145.6h2.8zm17.4-1h-2.4l-10.7 8v1.6h.5zm4.1 0h-2.5l-12.7 9.7h3.2zm17 1H109l-9.5 7.3v1.4h.5zm3.6 0h-2.2l-11.3 8.7h2.8zM26.6 137.1h-2.2l-9.4 7.2v1.4h.5zm3.6 0H28l-11.2 8.6h2.8zM147.3 137H145l-11 8.7h2.8zM132.7 137h-2.2l-9.6 7.3v1.4h.5zm3.7 0H134l-11.3 8.7h2.8z"/>
  </g>
  <g fill="#FFF">
    <path opacity=".7" d="M48.8 123.5h-2.2l-9.7 7.3v1.4h.5zm3.6 0h-2.2l-11.4 8.7h2.8zm16.2 0h-1.9l-9.6 7.3v1.4h.1zm4 0h-2.3L59 132.2h2.8zm17.4-1h-2.4l-10.7 8.2v1.5h.5zm4.1 0h-2.5l-12.7 9.7h3.2zm17 1.1H109l-9.5 7.2v1.4h.5zm3.6 0h-2.2l-11.3 8.6h2.8zM26.6 123.7h-2.2l-9.4 7.1v1.4h.5zm3.6 0H28l-11.2 8.5h2.8zM147.3 123.5H145l-11 8.7h2.8zM132.7 123.5h-2.2l-9.6 7.3v1.4h.5zm3.7 0H134l-11.3 8.7h2.8z"/>
  </g>
  <g fill="#FFF">
    <path opacity=".7" d="M48.8 110h-2.2l-9.7 7.3v1.4h.5zm3.6 0h-2.2l-11.4 8.7h2.8zm16.2 0h-1.9l-9.6 7.3v1.4h.1zm4 0h-2.3L59 118.7h2.8zm17.4-1h-2.4l-10.7 8.2v1.5h.5zm4.1 0h-2.5l-12.7 9.7h3.2zm17 1H109l-9.5 7.4v1.3h.5zm3.6 0h-2.2l-11.3 8.7h2.8zM26.6 110.2h-2.2l-9.4 7.2v1.3h.5zm3.6 0H28l-11.2 8.5h2.8zM147.3 110H145l-11 8.7h2.8zM132.7 110h-2.2l-9.6 7.3v1.4h.5zm3.7 0H134l-11.3 8.7h2.8z"/>
  </g>
  <g fill="#FFF">
    <path opacity=".7" d="M48.8 96.5h-2.2l-9.7 7.4v1.4h.5zm3.6 0h-2.2l-11.4 8.8h2.8zm16.2 0h-1.9l-9.6 7.4v1.4h.1zm4 0h-2.3L59 105.3h2.8zm17.4-.9h-2.4l-10.7 8.1v1.6h.5zm4.1 0h-2.5l-12.7 9.7h3.2zm17 1H109l-9.5 7.3v1.4h.5zm3.6 0h-2.2l-11.3 8.7h2.8zM26.6 96.7h-2.2L15 104v1.4h.5zm3.6 0H28l-11.2 8.6h2.8zM147.3 96.6H145l-11 8.7h2.8zM132.7 96.5h-2.2L121 104v1.4h.5zm3.7 0H134l-11.3 8.8h2.8z"/>
  </g>
  <g fill="#FFF">
    <path opacity=".7" d="M48.8 83h-2.2l-9.7 7.4v1.4h.5zm3.6 0h-2.2l-11.4 8.8h2.8zm16.2 0h-1.9l-9.6 7.4v1.4h.1zm4 0h-2.3L59 91.9h2.8zM90 82h-2.4l-10.7 8.2v1.6h.5zm4.1 0h-2.5l-12.7 9.8h3.2zm17 1.1H109l-9.5 7.3v1.4h.5zm3.6 0h-2.2l-11.3 8.7h2.8zM26.6 83.3h-2.2l-9.4 7v1.4h.5zm3.6 0H28l-11.2 8.5h2.8zM147.3 83.1H145l-11 8.7h2.8zM132.7 83h-2.2l-9.6 7.4v1.4h.5zm3.7 0H134l-11.3 8.8h2.8z"/>
  </g>
  <g fill="#FFF">
    <path opacity=".7" d="M49.7 67.6H47l-11.8 9v1.7h.6zm4.5 0h-2.8l-14 10.7H41zm14.7 1.3h-2l-10.5 8v1.4h.2zm4.3 0h-2.4l-12.3 9.4h3zm16.8-.3h-2.4l-10.7 8.2v1.5h.5zm4.1 0h-2.5l-12.7 9.7h3.2zm17 1.1H109l-9.5 7.2v1.4h.5zm3.6 0h-2.2l-11.3 8.6h2.8zM27.3 68.3h-2.6l-11 8.4v1.6h.6zm4.2 0h-2.6l-13 10H19zM147.3 69.7H145l-11 8.6h2.8zM132.7 69.6h-2.2l-9.6 7.3v1.4h.5zm3.7 0H134l-11.3 8.7h2.8z"/>
  </g>
  <g fill="#FFF">
    <path opacity=".7" d="M48.8 56.1h-2.2l-9.7 7.4v1.4h.5zm3.6 0h-2.2L38.8 65h2.8zm16.2 0h-1.9l-9.6 7.4v1.4h.1zm4 0h-2.3L59 65h2.8zm17.4-1h-2.4l-10.7 8.2V65h.5zm4.1 0h-2.5L78.9 65h3.2zm17 1.1H109l-9.5 7.3v1.4h.5zm3.6 0h-2.2L101.2 65h2.8zm-88.1.1h-2.2L15 63.5v1.4h.5zm3.6 0H28L16.8 65h2.8zm117.1-.1H145l-11 8.7h2.8zM132.7 56.1h-2.2l-9.6 7.4v1.4h.5zm3.7 0H134L122.8 65h2.8zM147.3 42.6H145l-11 8.7h2.8zM132.7 42.6h-2.2l-9.6 7.3v1.4h.5zm3.7 0H134l-11.3 8.7h2.8z"/>
  </g>
  <path fill="#687B80" d="M109 21.5v-11h-1.7V7.6l-1.5-2-3.2.5-1.2.2-1.4-.8-5.5-1.7.6 9.2-.6 24.3L99.2 53l16.6-.4 3.7-16.8-8.6-2.2z"/>
  <path fill="#78888E" d="M109 21.5v-11h-1.7V7.6l-1.5-2-3.2.5-1.2.2-1.4-.8-5.5-1.7.6 9.2-.6 24.3L99.2 53l16.6-.4 3.7-16.8-8.6-2.2z"/>
  <path opacity=".7" d="M48.5 258.3h-2l-9 6.8v1.3h.4zm3.4 0h-2l-10.7 8.1h2.6zM68.3 258.3h-1.7l-9 6.8v1.3h.1zm3.7 0h-2l-10.6 8.1H62zM89.3 258.3h-2l-9 6.8v1.3h.4zm3.4 0h-2.1L80 266.4h2.6zM110.9 258.3h-2l-9 6.8v1.3h.4zm3.4 0h-2.1l-10.6 8.1h2.6zM132.5 258.3h-2l-9 6.8v1.3h.4zm3.4 0h-2.1l-10.6 8.1h2.6z" fill="#FFF"/>
  <path fill="#657378" d="M158.3 43l-6.3 5.2V43z"/>
  <path fill="#78888E" d="M75.7 35.3V4.7l20.1-.4v47l-20.1 2.5z"/>
  <path fill="#899CA4" d="M58.3 51.2h99.9v5H58.3zm-1.8 13.2h101.8v5H56.5zM9.8 253.3h148.4v5H9.8zm0-13.5h148.4v5H9.8zm0-13.4h148.4v5H9.8zm0-13.5h148.4v5H9.8zm0-13.4h148.4v5H9.8zm0-13.5h148.4v5H9.8zm0-13.4h148.4v5H9.8zm0-13.5h148.4v5H9.8zm0-13.5h148.4v5H9.8zm0-13.4h148.4v5H9.8zm0-13.5h148.4v5H9.8zm0-13.4h148.4v5H9.8zm0-26.9h148.4v5H9.8zm-1.7 188h150.2v5H8.1z"/>
  <path fill="#78888E" d="M62.1 18.8l-28 2.2-.3-1.5h-1.2l-.5 1.5h-2.5v-2.7L26.2 20v9.7h-2v7l-.5 1.9h1.9v1.5h-1.9l.2 6.2-1.5.9v1.3h-4.6v-11l-2.4-1.6v15h15.9l1.3-16.3 3.1 11 13.6 2L57 41z"/>
  <path fill="#899CA4" d="M30.2 32.2h7.3v266.3h-7.3z"/>
  <path fill="#798B92" d="M0 79.8l9.8 3.8v-5.2L0 74.6zM0 93l9.8 3.8v-5.2L0 87.8zm0 13.3l9.8 3.7v-5.2L0 101zm0 13.2l9.8 3.8V118L0 114.3zm0 13.2l9.8 3.8v-5.2L0 127.5zM0 146l9.8 3.7v-5.2L0 140.7zm0 13.2l9.8 3.8v-5.2L0 154zm0 13.2l9.8 3.8V171L0 167.2zm0 13.3l9.8 3.7v-5.2L0 180.4zm0 13.2l9.8 3.8v-5.2L0 193.7zm0 13.2l9.8 3.8v-5.2L0 206.9zm0 13.3l9.8 3.7V224L0 220.1zm0 13.2l9.8 3.8v-5.2L0 233.4zm0 13.2l9.8 3.8v-5.2L0 246.6zM0 265l9.8 3.8v-5.2L0 259.8z"/>
  <path fill="#899CA4" d="M8.1 35.9h7.3v262.6H8.1z"/>
  <path fill="#899CA4" d="M9.8 91.8h148.4v5H9.8z"/>
  <path opacity=".7" d="M91.6 274.6v-1.8l-12.3 9.4v1.8zm0 3.2v-2l-12.3 9.5v2.5zM91.6 286.7V285l-12.3 9.4v1.8zM114 274.8v-2l-14 10.7v2zm0 3.7v-2.4l-14 11v2.8zM114 288.7v-2l-14 10.7v2zM128.6 279.7v-1.8l-7 5.6v2zm23.4 6.5v-2L138 295v2zm-7.8-14.8h-3L121.5 287v3zM149 278.1v-2l-27.5 21.3v2zM72 273.4v-2L58.4 282v2zm0 3.6v-2.3l-13.7 10.7v2.7zM72 287v-2l-13.7 10.5v2zM51.1 273.4v-2L37.4 282v2zm0 3.6v-2.3l-13.7 10.7v2.7zM51.1 287v-2l-13.7 10.5v2zM30.2 273.6v-2.1l-14.8 11.3v2.2zm0 3.9V275l-14.8 11.5v3zM30.2 288.3v-2.1l-14.8 11.3v2.2z" fill="#FFF"/>
  <path fill="#899CA4" d="M15.4 50.9h14.8v17.5H15.4z"/>
  <path fill="#78888E" d="M15.4 50.9h14.8v8H15.4z"/>
  <path fill="#899CA4" d="M36.9 43.1h14.8v25.4H36.9z"/>
  <path fill="#657378" d="M158.3 271.4l-6.3 5.3v-5.3zm0-13.1l-6.3 5.3v-5.3zm0-13.5l-6.3 5.3v-5.3zm0-13.4l-6.3 5.2v-5.2zm0-13.4l-6.3 5.2v-5.3zm0-13.5l-6.3 5.2v-5.2zm0-13.5l-6.3 5.3V191zm0-13.5l-6.3 5.3v-5.3zm0-13.5l-6.3 5.4V164zm0-13.4L152 156v-5.3zm0-13.4l-6.3 5.2v-5.2zm0-13.5L152 129v-5.3zm0-13.4l-6.3 5.2v-5.2zm0-13.5l-6.3 5.3v-5.3zm0-13.5l-6.3 5.3v-5.3zm0-14l-6.3 5.3v-5.3zm0-13.1l-6.3 5.3v-5.3z"/>
  <path fill="#78888E" d="M61.5 9h14.2v44.3l-17.4.5-3.6-1.4V36.8l6.4-17v-7.5s-1.4-1.3-1.6-2.4c-.3-1 2-1 2-1z"/>
  <path fill="#46585C" d="M61.7 6.3l1 1.3V9h13V6.3z"/>
  <path fill="#78888E" d="M61 4.7h14.7v1.6H61zm34.8-3.1L75.7 2.8V1.2L95.8 0z"/>
  <path fill="#46585C" d="M95.8 4.3l-20.1.4v-2l20.1-1.3z"/>
  <path fill="#899CA4" d="M51.1 32.2h7.3v266.3h-7.3z"/>
  <path fill="#78888E" d="M100 41.6h1.4V19.2l-5.6-3.4-.4 17.7z"/>
  <path opacity=".7" fill="#899CA4" d="M91.6 14.4l-16 .6v1l16-1zM75.7 18l-14.7.6v1l14.7-1zm15.9 4l-16 .7v1l16-1z"/>
  <path fill="#78888E" d="M102 1.9h-3L95.8 0v1.4l2.6 1.7 4.2.5z"/>
  <path fill="#46585C" d="M99.5 5.9l-3.7-1.6V1.4l2.6 1.7 4.2.5-1.2 2.5zm5.8 2.1l-3.9.7V6.9l4.3-.6.7 1.3 2.6.4-.3.8-2.8-.1z"/>
  <path fill="#78888E" d="M109 7.2l-2-.2-1-2.3-4.6.8v1.6l4.3-.8.7 1.3 2.6.4z"/>
  <path fill="#899CA4" d="M114.1 42.3l7.4-5.5v261.8h-7.4zM91.6 32.2h8.4v266.3h-8.4zm-19.6 0h7.3v266.3H72z"/>
  <g opacity=".1" fill="#899CA4">
    <path d="M151.2 32.2l-3.7-5.7-8.3-3.6H130l-1 1.2h-2.2l-3 4-2.9.6v8l-.5 2.2 1.9-.8c.2-.2 28 0 28 0l1-5.9z"/>
    <path d="M153 43h-5.5V18.9l5.5 1zm-8.6-13.8h-4.8V13.7l4.8.7zm-4.8-3.6h-2.8V15l2.8 1.2z"/>
    <path d="M136.8 25H131v-6.2l5.7 1.1zm-5.8-1h-2v-3.7l2 1.2zm-22-2.5v-11h-1.7V7.6l-1.5-2-3.2.5-1.2.2-1.4-.8-5.5-1.7.6 9.2-.6 24.3L99.2 53l16.6-.4 3.7-16.8-8.6-2.2z"/>
    <path d="M75.7 35.3V4.7l20.1-.4v47l-20.1 2.5zM62.1 18.8l-28 2.2-.3-1.5h-1.2l-.5 1.5h-2.5v-2.7L26.2 20v9.7h-2v7l-.5 1.9h1.9v1.5h-1.9l.2 6.2-1.5.9v1.3h-4.6v-11l-2.4-1.6v15h15.9l1.3-16.3 3.1 11 13.6 2L57 41z"/>
    <path d="M61.5 9h14.2v44.3l-17.4.5-3.6-1.4V36.8l6.4-17v-7.5s-1.4-1.3-1.6-2.4c-.3-1 2-1 2-1zm65.7 9.8l-11.7-5.1v27.4l7.3-3.2-.6-8.7h5z"/>
  </g>
  <path opacity=".7" d="M26.4 258.3h-2l-9 6.8v1.3h.4zm3.4 0h-2.1L17 266.4h2.6z" fill="#FFF"/>
  <path fill="#899CA4" d="M158.4 43H121l-.2-4.9h37.5zm-52-22.7V40l7.3 2.7 1.8-1.5V13.7z"/>
  <path fill="#78888E" d="M127.2 18.8l-11.7-5.1v27.4l7.3-3.2-.6-8.7h5z"/>
  <path opacity=".3" fill="#899CA4" d="M122 31.6l-6.5-2.5v1.1l6 1.4z"/>
  <path opacity=".3" fill="#78888E" d="M106.4 23.5l9.4-4.7-.3 1.2-9.1 4.6zm3.2 8.3l6.2-3.7-.3 1.2-6.5 3.2z"/>
  <path opacity=".3" fill="#899CA4" d="M126.3 23.6L115.5 20v1l10.3 2.6z"/>
</svg>
