<svg xmlns="http://www.w3.org/2000/svg" width="1920" height="133" viewBox="911.5 -0.03 1920 133">
  <ellipse fill="#4A8215" cx="1605.8" cy="17.87" rx="10.6" ry="9"/>
  <ellipse fill="#4A8215" cx="1610.4" cy="25.87" rx="10.6" ry="9"/>
  <ellipse fill="#4A8215" cx="1470.8" cy="24.67" rx="7.5" ry="6.3"/>
  <ellipse fill="#4A8215" cx="1667" cy="28.17" rx="10.6" ry="9"/>
  <ellipse fill="#4A8215" cx="1693.6" cy="28.17" rx="10.6" ry="9"/>
  <ellipse fill="#4A8215" cx="1701" cy="19.07" rx="10.6" ry="9"/>
  <ellipse fill="#4A8215" cx="1707" cy="31.17" rx="10.6" ry="9"/>
  <ellipse fill="#4A8215" cx="2119.7" cy="30.57" rx="22.2" ry="18.9"/>
  <ellipse fill="#4A8215" cx="2306.4" cy="30.57" rx="22.2" ry="18.9"/>
  <ellipse fill="#4A8215" cx="2527.4" cy="30.57" rx="22.2" ry="18.9"/>
  <ellipse fill="#39630D" cx="1931.9" cy="35.77" rx="22.2" ry="18.9"/>
  <ellipse fill="#4A8215" cx="1905.2" cy="29.57" rx="29.5" ry="25"/>
  <ellipse fill="#39630D" cx="2038.5" cy="28.17" rx="10.6" ry="9"/>
  <ellipse fill="#4A8215" cx="1409.8" cy="28.17" rx="8" ry="6.8"/>
  <path fill="#4A8215" d="M1423.5 21.27c0 3.7-3.6 6.8-8 6.8-4.5 0-8-3-8-6.8s3.5-6.8 8-6.8c4.4 0 8 3 8 6.8z"/>
  <ellipse fill="#4A8215" cx="1420" cy="30.47" rx="8" ry="6.8"/>
  <path fill="#58A514" d="M0 28.37h3743v21.1H0v-21.1z"/>
  <path fill="#C1AA95" d="M0 49.47h3743v40.7H0v-40.7z"/>
  <path opacity=".7" fill="#58595B" d="M3743 56.17H0v28h3743"/>
  <path fill="#A7A9AC" d="M2019.5 68.67h6.2v2.6h-6.2v-2.6zm-20.3 0h10.2v2.6h-10.2v-2.6zm-20.3 0h10.2v2.6h-10.2v-2.6zm-20.4 0h10.2v2.6h-10.2v-2.6zm-20.3 0h10.2v2.6h-10.2v-2.6zm-20.3 0h10.2v2.6h-10.2v-2.6zm-20.3 0h10.2v2.6h-10.2v-2.6zm-20.3 0h10.2v2.6h-10.2v-2.6zm-20.3 0h10.2v2.6H1857v-2.6zm-20.3 0h10.2v2.6h-10.2v-2.6zm-20.3 0h10.2v2.6h-10.2v-2.6zm-20.3 0h10.2v2.6h-10.2v-2.6zm-20.4 0h10.2v2.6h-10.2v-2.6zm-20.2 0h10.1v2.6h-10.1v-2.6zm507.8 0h10.2v2.6h-10.2v-2.6zm-20.3 0h10.2v2.6H2243v-2.6zm39 0h10.2v2.6H2282v-2.6zm-59.3 0h10.2v2.6h-10.2v-2.6zm-20.3 0h10.2v2.6h-10.2v-2.6zm-20.4 0h10.2v2.6H2182v-2.6zm201.6 0h10.2v2.6h-10.2v-2.6zm-20.3 0h10.2v2.6h-10.2v-2.6zm39.1 0h10.2v2.6h-10.2v-2.6zm-59.4 0h10.2v2.6H2343v-2.6zm-20.3 0h10.2v2.6h-10.2v-2.6zm-20.3 0h10.2v2.6h-10.2v-2.6zm140.6 0h10.2v2.6H2443v-2.6zm-20.3 0h10.2v2.6h-10.2v-2.6zm81.7 0h10.2v2.6h-10.2v-2.6zm-20.3 0h10.2v2.6h-10.2v-2.6zm39 0h10.2v2.6h-10.2v-2.6zm-59.3 0h10.2v2.6h-10.2v-2.6zm100 0h10.2v2.6h-10.2v-2.6zm-20.4 0h10.2v2.6h-10.2v-2.6zm81.9 0h10.2v2.6h-10.2v-2.6zm-20.3 0h10.2v2.6H2605v-2.6zm39.1 0h10.2v2.6h-10.2v-2.6zm-59.4 0h10.2v2.6h-10.2v-2.6zm79.7 0h10.2v2.6h-10.2v-2.6zm61 0h10.2v2.6h-10.2v-2.6zm-20.3 0h10.2v2.6h-10.2v-2.6zm39 0h10.2v2.6h-10.2v-2.6zm-59.3 0h10.2v2.6h-10.2v-2.6zm120.2 0h10.2v2.6H2805v-2.6zm-20.3 0h10.2v2.6h-10.2v-2.6zm-20.3 0h10.2v2.6h-10.2v-2.6zm-602.7 0h10.2v2.6h-10.2v-2.6zm-20.3 0h10.2v2.6h-10.2v-2.6zm-20.3 0h10.2v2.6h-10.2v-2.6zm-20.3 0h10.2v2.6h-10.2v-2.6zm-20.3 0h10.2v2.6h-10.2v-2.6zm-20.3 0h10.2v2.6h-10.2v-2.6zm-20.3 0h10.2v2.6h-10.2v-2.6z"/>
  <path fill="#A7A9AC" d="M2019.6 68.67h10.1v2.6h-10.1v-2.6zm968.2 0h6.2v2.6h-6.2v-2.6zm-20.3 0h10.2v2.6h-10.2v-2.6zm-20.3 0h10.2v2.6h-10.2v-2.6zm-20.3 0h10.2v2.6h-10.2v-2.6zm-20.4 0h10.2v2.6h-10.2v-2.6zm-20.3 0h10.2v2.6h-10.2v-2.6zm-20.3 0h10.2v2.6h-10.2v-2.6zm-20.3 0h10.2v2.6h-10.2v-2.6zm-20.3 0h10.2v2.6h-10.2v-2.6zm406.3 0h10.2v2.6h-10.2v-2.6zm-20.3 0h10.2v2.6h-10.2v-2.6zm39 0h10.2v2.6h-10.2v-2.6zm-59.3 0h10.2v2.6H3191v-2.6zm-20.3 0h10.2v2.6h-10.2v-2.6zm-20.3 0h10.2v2.6h-10.2v-2.6zm201.6 0h10.2v2.6H3352v-2.6zm-20.4 0h10.2v2.6h-10.2v-2.6zm39.1 0h10.2v2.6h-10.2v-2.6zm-59.4 0h10.2v2.6h-10.2v-2.6zm-20.3 0h10.2v2.6H3291v-2.6zm-20.3 0h10.2v2.6h-10.2v-2.6zm140.6 0h10.2v2.6h-10.2v-2.6zm-20.3 0h10.2v2.6H3391v-2.6zm81.7 0h10.2v2.6h-10.2v-2.6zm-20.3 0h10.2v2.6h-10.2v-2.6zm39 0h10.2v2.6h-10.2v-2.6zm-59.3 0h10.2v2.6h-10.2v-2.6zm100 0h10.2v2.6h-10.2v-2.6zm-20.3 0h10.2v2.6h-10.2v-2.6zm81.8 0h10.2v2.6h-10.2v-2.6zm-20.3 0h10.2v2.6h-10.2v-2.6zm39.1 0h10.2v2.6h-10.2v-2.6zm-59.4 0h10.2v2.6H3553v-2.6zm79.7 0h10.2v2.6h-10.2v-2.6zm61 0h10.2v2.6h-10.2v-2.6zm-20.3 0h10.2v2.6h-10.2v-2.6zm39 0h10.2v2.6h-10.2v-2.6zm-59.3 0h10.2v2.6h-10.2v-2.6zm79.6 0h10.2v2.6h-10.2v-2.6zm-602.6 0h10.2v2.6h-10.2v-2.6zm-20.4 0h10.2v2.6h-10.2v-2.6zm-20.3 0h10.2v2.6h-10.2v-2.6zm-20.3 0h10.2v2.6h-10.2v-2.6zm-20.3 0h10.2v2.6h-10.2v-2.6zm-20.3 0h10.2v2.6h-10.2v-2.6zm-20.3 0h10.2v2.6h-10.2v-2.6z"/>
  <path fill="#A7A9AC" d="M2987.9 68.67h10.1v2.6h-10.1v-2.6zm-1252.7 0h10.2v2.6h-10.2v-2.6zm-20.3 0h10.2v2.6h-10.2v-2.6zm-20.3 0h10.2v2.6h-10.2v-2.6zm-20.3 0h10.2v2.6h-10.2v-2.6zm-20.3 0h10.2v2.6H1654v-2.6zm-20.4 0h10.2v2.6h-10.2v-2.6zm-20.3 0h10.2v2.6h-10.2v-2.6zm-20.3 0h10.2v2.6H1593v-2.6zm-20.3 0h10.2v2.6h-10.2v-2.6zm-20.3 0h10.2v2.6h-10.2v-2.6zm-20.3 0h10.2v2.6h-10.2v-2.6zm-20.4 0h10.2v2.6h-10.2v-2.6zm-20.2 0h10.2v2.6h-10.2v-2.6zm-20.3 0h10.2v2.6h-10.2v-2.6zm-20.3 0h10.2v2.6h-10.2v-2.6zm-20.3 0h10.2v2.6h-10.2v-2.6zm-20.3 0h10.2v2.6h-10.2v-2.6zm-20.3 0h10.2v2.6H1390v-2.6zm-20.3 0h10.2v2.6h-10.2v-2.6zm-20.4 0h10.2v2.6h-10.2v-2.6zm-20.3 0h10.2v2.6H1329v-2.6zm-20.3 0h10.2v2.6h-10.2v-2.6zm-20.3 0h10.2v2.6h-10.2v-2.6zm-21.9 0h10.2v2.6h-10.2v-2.6zm-20.4 0h10.2v2.6h-10.2v-2.6zm-20.3 0h10.2v2.6h-10.2v-2.6zm-20.3 0h10.2v2.6h-10.2v-2.6zm-20.3 0h10.2v2.6h-10.2v-2.6zm-20.3 0h10.2v2.6h-10.2v-2.6zm-20.3 0h10.2v2.6h-10.2v-2.6zm-20.4 0h10.2v2.6h-10.2v-2.6zm-19.8 0h10.2v2.6h-10.2v-2.6zm-20.3 0h10.2v2.6h-10.2v-2.6zm-18.7 0h8.5v2.6h-8.5v-2.6zm-19 0h10.2v2.6h-10.2v-2.6zm-19.9 0h10.2v2.6h-10.2v-2.6zm-20.3 0h10.2v2.6h-10.2v-2.6zm-18.7 0h8.5v2.6h-8.5v-2.6zm-19.7 0h8.5v2.6h-8.5v-2.6zm-19 0H959v2.6h-10.2v-2.6zm-19.8 0h10.2v2.6H929v-2.6zm-282.9 0h6.2v2.6h-6.2v-2.6zm-20.4 0h10.2v2.6h-10.2v-2.6zm-20.3 0h10.2v2.6h-10.2v-2.6zm-20.3 0h10.2v2.6h-10.2v-2.6zm-20.3 0H575v2.6h-10.2v-2.6zm-20.3 0h10.2v2.6h-10.2v-2.6zm-20.3 0h10.2v2.6h-10.2v-2.6zm-20.3 0h10.2v2.6h-10.2v-2.6zm-20.3 0h10.2v2.6h-10.2v-2.6zm-20.3 0h10.2v2.6h-10.2v-2.6zm-20.3 0h10.2v2.6H443v-2.6zm-20.3 0h10.2v2.6h-10.2v-2.6zm-20.4 0h10.2v2.6h-10.2v-2.6zm-20.3 0h10.1v2.6H382v-2.6zm507.9 0h10.2v2.6h-10.2v-2.6zm-20.3 0h10.2v2.6h-10.2v-2.6zm39 0h10.2v2.6h-10.2v-2.6zm-59.4 0h10.2v2.6h-10.2v-2.6zm-20.3 0h10.2v2.6h-10.2v-2.6zm-20.3 0h10.2v2.6h-10.2v-2.6zm-20.3 0h10.2v2.6h-10.2v-2.6zm-20.3 0h10.2v2.6H768v-2.6zm-20.3 0h10.2v2.6h-10.2v-2.6zm-20.3 0h10.2v2.6h-10.2v-2.6zm-20.3 0h10.2v2.6h-10.2v-2.6zm-20.3 0H697v2.6h-10.2v-2.6zm-20.4 0h10.2v2.6h-10.2v-2.6z"/>
  <path fill="#A7A9AC" d="M646.2 68.67h10.1v2.6h-10.1v-2.6zm-284.4 0H372v2.6h-10.2v-2.6zm-20.4 0h10.2v2.6h-10.2v-2.6zm-20.3 0h10.2v2.6h-10.2v-2.6zm-20.3 0H311v2.6h-10.2v-2.6zm-20.3 0h10.2v2.6h-10.2v-2.6zm-20.3 0h10.2v2.6h-10.2v-2.6zm-20.3 0h10.2v2.6h-10.2v-2.6zm-20.3 0h10.2v2.6h-10.2v-2.6zm-20.3 0h10.2v2.6h-10.2v-2.6zm-20.3 0h10.2v2.6H179v-2.6zm-20.4 0h10.2v2.6h-10.2v-2.6zm-20.3 0h10.2v2.6h-10.2v-2.6zm-20.2 0h10.2v2.6h-10.2v-2.6zm-20.3 0H108v2.6H97.8v-2.6zm-20.3 0h10.2v2.6H77.5v-2.6zm-20.3 0h10.2v2.6H57.2v-2.6zm-20.3 0h10.2v2.6H36.9v-2.6zm-20.4 0h10.2v2.6H16.5v-2.6zm-16.5 0h6.4v2.6H0v-2.6z"/>
  <path fill="#FFF" d="M0 90.17h3742.9v44.27H0z"/>
</svg>
