<svg xmlns="http://www.w3.org/2000/svg" width="163" height="65" viewBox="0.2 -0.1 163 65">
  <ellipse opacity=".4" fill="#414042" cx="81.7" cy="59.3" rx="81.5" ry="5.4"/>
  <path fill="#998014" d="M13.8 31.8h136.3v15.5H13.8V31.8z"/>
  <path fill="#FFDE1A" d="M81.2 52.3h-30s-1.2 0-1.5-1.6c-.3-1.5-1.7-17.3-15-17.3-13.5 0-16.4 16.5-22.8 16.5H7.7s-1.1-.3-1.6-1.3 2.7-7 3.4-9.8c.6-2.8 3.7-11 10.9-17.6 7.1-6.5 18.5-16.4 30.5-19.5C62.9-1.4 90.2.3 92.2 1c2 .6 7.7 2.7 13 9.2 5.3 6.4 5.1 6.6 14.3 7.7 9 1 21.1 4.6 26.6 9.8 5.4 5.3 9.3 20.8 6.7 20.8h-2.4s-1.2-1.3-3-5.3c-1.7-4-3.7-10.9-12.5-10.9s-14 8-14.6 11.7c-.6 3.6-1.8 8.3-4.1 8.3h-35z"/>
  <path fill="#AA921B" d="M97.7 6.5c-4-2.5-12.6-3-27-3-15.1 0-21.8 2.4-32 8.2A71.01 71.01 0 0 0 19 32.9l-2 13.8.5-.8 2-12.8a70 70 0 0 1 19.4-20.9 53.9 53.9 0 0 1 31.8-8.1c14 0 22.8.5 26.8 3a42.01 42.01 0 0 1 10.1 13c1 2.4 1 6.6 1 6.6v25.7h.4V26.6c0-.1.1-4.3-1-6.8-1-2.4-6.4-10.8-10.3-13.3z"/>
  <path fill="#444" d="M65.7 20.7H43s-3.8-.2-3.8-2.6c0-5 5.6-7.9 9.6-9.3 4.3-1.6 9.5-3.2 14.2-3.2 1.8 0 4.8-.2 4.8 1.4v11.4s0 2.3-2 2.3h-.1z"/>
  <path fill="#3F4042" d="M64.7 19.9H44.2s-3.4-.2-3.4-2.3c0-4.4 5-7 8.6-8.3 4-1.5 8.6-2.9 12.8-2.9 1.7 0 4.4-.2 4.4 1.3v10.2s0 2-1.9 2z"/>
  <path fill="#444" d="M81.1 20.7h-7.3s-2.3-.2-2.3-1.9V7.9s-.2-2.2 2-2.2 12.6.2 16.4.7c3.8.6 8 1.7 10.5 5.8 2.4 4 5.1 8.6 1 8.6H81l.1-.1z"/>
  <path fill="#3D4140" d="M81.6 19.8h-6.8s-2.1-.2-2.1-1.7V8.5s-.2-2 1.8-2 11.7.2 15.2.7 7.5 1.4 9.7 5c2.2 3.6 4.7 7.6.9 7.6H81.6zM41 5.6a92.38 92.38 0 0 0-16.3 11.7l.8.8s.8.7 2.7-.9c1.5-1.3 9.6-8 12.8-11.6z"/>
  <path fill="#D1B115" d="M12.2 49.9c6.3 0 9.2-16.5 22.6-16.5 13.4 0 14.7 15.8 15 17.3.4 1.6 1.7 1.6 1.7 1.6h64.7c2.4 0 3.6-4.7 4.2-8.3.6-3.7 5.8-11.7 14.6-11.7s10.7 6.9 12.5 10.9c1.7 4 3 5.3 3 5.3h2.4c1.8 0 .4-7.6-2.4-14-5.2-3-13.4-7.6-17.8-9.3-7-2.6-23.8-2.4-23.8-2.4H48.2a37.7 37.7 0 0 0-24.6 8c-2.5 2.2-10 14-13 19.1H12.2z"/>
  <path fill="#809E98" d="M69.7 4h.3v45.9h-.3V4z"/>
  <path fill="#A58913" d="M81.3 52.3h30.3v-.2l-1.2-3c-.1-.1-.3-.3-.5-.3H54.3l-.4.3-1.2 3v.2h28.6z"/>
  <path fill="#CCCECF" d="M151.5 37.1c.5 0 1-1.6 1-3.5 0-2-.5-3.6-1-3.6l-5.7-.4v8l5.7-.5z"/>
  <path fill="#C1A311" d="M134.9 32.3c8.8 0 10.8 6.9 12.5 10.9 1.8 4 3 5.3 3 5.3h2.4c2.3 0-.5-12.3-5-18.7-7.6-3.9-14.9-3.1-14.9-3.1-11.8 0-17.3 8.2-19.8 12.7a45.98 45.98 0 0 0-3.5 12.9h6.6c2.3 0 3.5-4.7 4.1-8.3.7-3.7 5.8-11.7 14.6-11.7z"/>
  <circle fill="#444" cx="134.4" cy="48.6" r="13.6"/>
  <path fill="#E8E2DD" d="M145.2 48.6a10.75 10.75 0 0 1-21.5 0 10.7 10.7 0 0 1 21.4 0h.1z"/>
  <path fill="#C1A311" d="M143 48.6a8.6 8.6 0 1 1-17.2.01v-.01a8.6 8.6 0 0 1 17.2 0z"/>
  <path fill="#E8E2DD" d="M140.9 48.6a6.5 6.5 0 1 1-13 0 6.5 6.5 0 0 1 13 0z"/>
  <circle fill="#F2F2F2" cx="134.4" cy="48.6" r="4.6"/>
  <path fill="#E8E2DD" d="M136.3 48.6a1.9 1.9 0 1 1-3.8 0 1.9 1.9 0 0 1 3.8 0z"/>
  <circle fill="#919191" cx="134.4" cy="48.6" r="1.1"/>
  <g fill="#919191">
    <circle cx="134.4" cy="43" r=".6"/>
    <path d="M138.7 45.1c-.2.2-.5.2-.8 0a.6.6 0 0 1 0-.9c.3-.2.6-.2.8 0 .3.3.3.6 0 .9zm1.3 4a.6.6 0 1 1-.48-1.1.6.6 0 0 1 .48 1.1z"/>
    <circle cx="138.3" cy="52.5" r=".6"/>
    <circle cx="134.4" cy="54.1" r=".6"/>
    <circle cx="130.5" cy="52.5" r=".6"/>
    <path d="M128.9 47.9a.6.6 0 0 1 0 1.2.6.6 0 0 1 0-1.1v-.1zm2-3.7c.2.3.2.6 0 .9a.6.6 0 1 1 0-.9z"/>
  </g>
  <circle fill="#444" cx="34.5" cy="48.6" r="13.6"/>
  <path fill="#E8E2DD" d="M45.2 48.6a10.75 10.75 0 1 1-21.5 0 10.75 10.75 0 0 1 21.5 0z"/>
  <path fill="#C1A311" d="M43.1 48.6a8.65 8.65 0 0 1-17.3 0 8.65 8.65 0 1 1 17.3 0z"/>
  <path fill="#E8E2DD" d="M40.9 48.6a6.5 6.5 0 1 1-13 0 6.5 6.5 0 0 1 13 0z"/>
  <circle fill="#F2F2F2" cx="34.5" cy="48.6" r="4.6"/>
  <path fill="#E8E2DD" d="M36.3 48.6a1.9 1.9 0 1 1-3.7.87 1.9 1.9 0 0 1 3.7-.87z"/>
  <circle fill="#919191" cx="34.5" cy="48.6" r="1.1"/>
  <g fill="#919191">
    <circle cx="34.5" cy="43" r=".6"/>
    <path d="M38.8 45.1a.6.6 0 1 1 0-.9c.2.3.2.6 0 .9zm1.2 4a.6.6 0 0 1-.6-.5.6.6 0 1 1 1.2 0c0 .3-.3.5-.6.5zm-2 3.8a.6.6 0 1 1 .52-1.08.6.6 0 0 1 .28.28c.2.2.2.6 0 .8-.2.2-.6.2-.8 0z"/>
    <circle cx="34.5" cy="54.1" r=".6"/>
    <circle cx="30.5" cy="52.5" r=".6"/>
    <path d="M28.9 47.9a.6.6 0 0 1 0 1.2.6.6 0 0 1 0-1.1v-.1zm2-3.7c.3.3.3.6 0 .9a.6.6 0 1 1 0-.9z"/>
  </g>
  <path fill="#E61B21" d="M12.9 30.5c-.6 0-1 1.6-1 3.5 0 2 .4 3.6 1 3.6l6.9.5v-8l-6.9.4z"/>
  <path fill="#C1A311" d="M51 36.2c-3.4-4.4-8.4-10.1-18.4-10.1S19 29 16.3 32.5c-2.6 3.4-4.3 8.2-6.3 9.2-.4.2-1 .5-1.8.7-1 2.7-2.4 5.6-2 6.2.4 1 1.5 1.3 1.5 1.3H12c6.4 0 9.3-16.5 22.7-16.5 13.4 0 14.7 15.8 15 17.3.3 1.6 1.6 1.6 1.6 1.6h3.2c-.1-3-.8-12.5-3.5-16.1z"/>
  <path fill="#CCCECF" d="M156 42h-6.6a3.5 3.5 0 0 1 0 4.6h6.6c.9 0 1.6-.7 1.6-1.6v-1.3c0-1-.7-1.7-1.6-1.7zM11.2 46.6H3.8c-.7 0-1.3-.6-1.3-1.3v-2.4c0-.7.6-1.3 1.3-1.3h7.6c.7 0 1.3.6 1.3 1.3v2.5c0 .7-.6 1.3-1.3 1.3l-.2-.1z"/>
  <ellipse fill="#AD8E10" cx="81.7" cy="30.1" rx="3.9" ry="2.7"/>
  <path fill="#444" d="M82.8 30.9H76a.6.6 0 0 1-.6-.5v-.6c0-.3.3-.6.6-.6h6.8c.3 0 .6.3.6.6v.6c0 .3-.3.5-.6.5z"/>
  <path opacity=".2" fill="#F4F4F4" d="M42.7 19.3L66.2 7.9c-.4-1-2.6-.7-4-.7a38.03 38.03 0 0 0-12.3 2.6c-3.3 1.3-8.2 3.8-8.2 8 0 .8.5 1.3 1.1 1.6l-.1-.1zm30.7-1.6c0 .7.6 1.1 1.1 1.3l20-9.9C93 8.3 91 7.9 89.2 7.6 86 7.2 77.1 7 75.2 7c-1.8 0-1.7 1.8-1.7 1.8v8.9h-.1z"/>
</svg>
