<svg xmlns="http://www.w3.org/2000/svg" width="217.2" height="75.6">
  <ellipse opacity=".2" cx="105.5" cy="70.3" rx="96" ry="5.3"/>
  <path fill="#C13631" d="M42.1 20s-29.3 1.6-35.4 5.7c0 0-1.8.5-1.7 2.3 0 0 .1 2.1-.4 2.6S2.3 32 3.8 32l.2 1.2s-.3 0-.3.6l.3 6.4s0 .6.4.7L.5 42.7s-.6.2-.5 1c0 .8-.2 3.7 1 4.7s3.6.9 3.6.9l5.2.1s7.4 7.9 17.6 5.7l-1.7 6.2s1.1.6 4.2-1l1.7-7s3.2 1.7 5 1c0 0 1.5.4 2.4.2 0 0 1.6 13.5 15 13.6 13.3 0 15.5-11.3 15.5-11.3l1.1 1 81.8-.1-1.3 3 2.1 2.6 4.4-6.2h3.9s3.5 11.7 15.7 11.2c16.8-.8 14.3-17 14.3-17l1.3-1.2 1.4.6s.3 2.1.2 2.9L200 52l12.8-4.2-6.5-.1-3 .3s8.4-2.1 10-2.2c1.5 0-.5-2.1-.5-2.1L209.6 31s-.2-1.5-1.1-2l-1.3-.8s.5-1.6-1.7-2c-22.7-3.6-53.4-6-53.4-6s-2.3-3.3-3.9-3.4h-1.9S134.4 6.5 129.9 3.4c0 0-.3-1.1-1.3-.7 0 0-2.7-2.3-39.2-1.8L63.3 2.4s-2.4 0-3.3.8L44.6 18s-1.5.6-2.5 2z"/>
  <path fill="#CD474E" d="M146.5 16.8s3-1 6 3.6c0 0 1.4 0 2.7.5 1.2.6 2 1 0 2.1-2 1.2-3.6 2.2-5.3 2-1.7 0-5 0-5.7-1L128.7 7.6s-2.3-2.3-6.5-2.5l-19.7-.4s-17-1-36 1.6c0 0-2.5.2-5 2.8-2.5 2.7-12 14.3-12 14.3s-6.7 0-7.2-.6l16.6-18s1.2-2.3 2.3-2.3c0 0 28-3.2 64.1-.4 0 0 2.4 0 3.6.8 0 0 .5-.4.9 0 .4.5.3.8.3.8s13.5 10.5 16.4 13.2z"/>
  <path fill="#263631" d="M130 3.5s12.3 9.4 16.7 13.4l2 2.2s.7.5 0 1.2-3.6 1.6-5.2 0A2024 2024 0 0 1 129 5.2l1-1.6z"/>
  <path fill="#82888A" d="M128.8 2.8l-1 1s-.5.6 0 1.2l15.6 16.2s1.5 1.9 4.9.9c0 0 1.8-.4 2.2-2 .4-1.5-2.3-3.5-3.8-3.2l2.1 2.3s.6.6-.3 1.3c-1 .7-3.5 1-4.5.3S129 5 129 5l1-1.3c.2-.2.3-.6-.2-1-.5-.3-.8-.3-1 0z"/>
  <path fill="#263631" d="M100.9 6.4v15.8c0 .1-.2.3-.4.3l-30.7-.3L74.5 7a327.5 327.5 0 0 1 26.4-.6z"/>
  <path opacity=".6" fill="#EAEAEA" d="M217 48s-.2.3-.7.4l-16 .9v.4l16.2-1s.4 0 .7-.4l-.2-.3z"/>
  <path fill="#606560" d="M101 .8l18.4.6c.9.2 1.3.5.7.7-.7.3-19.5-.5-19.5-.5s-.3 0-.1-.5c.2-.4.5-.3.5-.3z"/>
  <path fill="#B22D2D" d="M6.6 26l1.4-.7c10.7-4.3 34.4-5.5 34.4-5.5-.6 1.2.1 2.7.1 2.7l-2.4 1.8s-31.2 1.5-33 2c0 0-1.7 0-1.8 1.2 0 0 0-1 1.3-1.6z"/>
  <path fill="#CD474E" d="M188.8 43s2 1.4 4.7 4.2c0 0-3.4-10.1-15.4-9.2-10.4.7-14.9 6.9-15.7 10.8 5.2-6.8 16.1-12.3 26.4-5.7zM67.9 47.1s-5.7-7-15-6c-9.4.8-12.6 6.6-12.6 6.6s3.4-8 13.3-8.6c9.9-.6 13.9 6.5 14.3 8z"/>
  <path fill="#263631" d="M71.2 7.1L66.5 22c0 .1-.1.2-.3.2H54.1a1 1 0 0 1-.8-1.7L62 10.2a8 8 0 0 1 5-2.8L71 7c.1 0 .2 0 .2.2zM105.7 6.2l17.3.5a7 7 0 0 1 5 2.3l12.6 13.6-34-.1a.4.4 0 0 1-.4-.3l-1-15.6c0-.2.2-.4.5-.4z"/>
  <path fill="none" stroke="#444546" stroke-width=".1" stroke-miterlimit="10" d="M73.1 5.5l-5.5 17.9-18.1-.1L61 9.3c1.6-1.8 3.9-3 6.4-3.2l5.6-.6zM102.3 23.6l-34.7-.2 5.5-17.9s14.8-1.7 29.4-1l-.2 19zM103.8 4.6l18.5.4a10 10 0 0 1 7.1 3.2l14 15.2-39.2.3-.4-19.1z"/>
  <path fill="#BC6B00" d="M4.9 33.1s2.7-.4 2.8 1.5l.2 2-4 .2-.1-2.7s-.1-.9 1-1z"/>
  <path fill="#CB0204" d="M8 37.4l-4 .2.1 2.5s0 .7 1 .7l2.5-.2s.4 0 .4-.6v-2.6z"/>
  <path opacity=".6" fill="#565653" d="M7.9 36.5v.9l-3.9.2v-.8z"/>
  <path fill="#3E3F3C" d="M159.2 53l.5.4-6 9.7s-.3.3-.8 0-1.8-2.5-1.8-2.5l2-3.5h2l2.2-2.4s.8-.5.7-.9l1.2-.8z"/>
  <path fill="#E17E80" d="M148 33l24.9.1c5.8 0 12.2.3 12.4-.3.8-2.4-37.3-3-37.3-3a5 5 0 0 0-.1-1.2 572 572 0 0 1 58.7 3.1c-34.7-4-59-4-59-4l-.1-.6a446.8 446.8 0 0 1 61.7 4.7c.4.1 0 .5 0 .5.6.7-.9 1.1-.9 1.1-.4-.5-1.7-.9-1.7-.9.7.6.3.8.3.8-.2.3-.9.3-1.5.5-.7.4-1.2 1-1.2 1 .9.2 2 2 2 2-3.3-1.4-58.2-2-58.2-2V33z"/>
  <path fill="#1C1B1A" d="M197.6 45s.4.8 2.5.9l16-.6s.5 0 .7-.3c0 0 .4.7.3 1 0 0 .4.7-.1 1l-.2 2c0 .1-.6 1.1-1.4 1.1l-4.2.2-10.2.5s-1.5.2-1.8-1c0 0-.1-.4-.6-.6-.5-.2-1-.8-1-2.2v-2z"/>
  <path fill="#261E22" d="M212.7 41.4l3.9 2.4s.6.5.6 1.2-.2 1-.6 1l-16.9 1s-2.3-.4-2.3-1.7c0 0-.2-.6 2.3-.6s14.6-.8 14.6-.8l-1.6-2.5z"/>
  <path fill="#384051" d="M198.6 43l14.3-.6s.5 0 .8.4c.3.3 1.1 1.2.3 1.2l-15.5.8s-1.4.2-1-.9c0-.2 1-.8 1-1z"/>
  <path fill="#4A4B4C" d="M217 46s0 .3-.3.3a32561.9 32561.9 0 0 0-16.4 1.2l.2.1 16.2-1s.3 0 .3-.5z"/>
  <path fill="#252522" d="M211.1 50.3l-1.7 2.6 1.3 1.2c.2.3 0 .8-.4.7l-9.6-2.7c-.7-.2-.6-1.2.1-1.3l10.3-.5z"/>
  <path fill="#C9C9C9" d="M213.1 42.4c.3 0 .3.3 0 .3l-14.2.6-1 .8s-.2.2-.3 0c-.2-.1 0-.3 0-.3l1-.9 14.5-.5z"/>
  <path opacity=".3" fill="#797F82" d="M214 43.9s3 .3 2.8.7c-.2.4-17.1 1.2-18.3 1-1.2-.2-1.5-.7-.6-.7s13.8-1 16.2-1z"/>
  <path opacity=".3" fill="#FFF" d="M213 44.1h1.4c0 .2-.6.4-8.8.4l7.4-.4z"/>
  <path fill="#CF762A" d="M211.3 36l-3.6.3 1 4.6s0 1 1.1 1l3-.2-1.5-5.6z"/>
  <path fill="#D1BD69" d="M209.7 31l1.6 5-3.6.3-.5-3s-.3-.8.5-1.2l2-1z"/>
  <path opacity=".6" fill="#3F3F42" d="M148 34.4s52.2 1 57.5 2.2c0 0 2.2.4-.8.2-5.3-.5-21.8-1-56.7-1.9v-.5z"/>
  <path fill="none" stroke="#636363" stroke-width=".1" stroke-miterlimit="10" d="M103.4 23.7s.5 1 .7 2l.2 4.7s.6 1 0 2L104 53l-31.6.1s-1-9.3-5-11.8c0 0-2.4-1.5-2.6-4.9-.2-3.3 0-9.8 0-9.8s0-1.2 1.6-2.3c.7-.4 1.1-.7 1.3-1.2l35.7.5z"/>
  <path fill="none" stroke="#636363" stroke-width=".1" stroke-miterlimit="10" d="M145 24.8s2.4-.1 2.9 4.1a215 215 0 0 1-.9 24.3l-43-.2.4-20.6s.4-1 0-1.8l-.3-5-.7-2 39.7-.2 1.8 1.4z"/>
  <path fill="#444242" stroke="#383838" stroke-width=".1" stroke-miterlimit="10" d="M31.8 52.2s-3-.5-3.8-.5c0 0-2.2 7.7-2.2 9.6 0 0 2.8.3 4.4-1.2l1.6-7.9z"/>
  <path opacity=".3" fill="#444242" stroke="#383838" stroke-width=".1" stroke-miterlimit="10" d="M27.8 52.1s-10-3.2-17.5-2.3c0 0 6.4 7 16.9 5.3l.6-3z"/>
  <path fill="#3D3D39" d="M4 49.3l15.3 1.3s.7.1 1-.4c.4-.6.4-1.2.2-1.5 0 0 .8-.2.7-1.2-.1-1-1-4.1-1.4-4.3 0 0 .3-.5-.4-1-.7-.6-1-.6-2.2-.6l-12.4-.3s-.7 0-.7-.6L.4 42.9s-.4.1-.3.7v1.9S-.7 49 4 49.3z"/>
  <path fill="#6D6C72" d="M15 41.6h2.5c1 0 1.5.1 2 .8.2.2-2 .2-2.7.2L5 42.3s-1.4.3-1.4-.6c0-.9.5-1 .5-1s-.1.6.6.6c1.7 0 3.3.2 10.3.3z"/>
  <path opacity=".6" fill="#898B96" d="M1.2 43l4.5.2 12.2.5s1.2 0 1.5-.3c0 0 1.6 1.4-5.8 1C8.1 44 .2 43.6.2 43.6s-.4-.8 1-.8z"/>
  <path opacity=".6" fill="#CDCCD1" d="M.6 43.5c.9-.5 4.2-.3 4.2-.3S1.3 42.7.5 43c-.6.3-.3.7 0 .5z"/>
  <path opacity=".5" fill="#BFC1D6" d="M16.2 45.7h.7c.2.1.2.3 0 .3h-.5L.6 45.4s-.6 0-.5-.3l16.1.6z"/>
  <path fill="#E17E80" d="M147.8 28.7l.1 1-43.6-.3v-.9z"/>
  <path fill="#444242" stroke="#383838" stroke-width=".1" stroke-miterlimit="10" d="M161.7 57.2a15 15 0 1 0 30-1.6 15 15 0 0 0-30 1.6z"/>
  <circle fill="#9FA8AF" stroke="#383838" stroke-width=".1" stroke-miterlimit="10" cx="176.6" cy="56.2" r="10.1"/>
  <circle fill="#9FA8AF" stroke="#383838" stroke-width=".1" stroke-miterlimit="10" cx="176.6" cy="56.2" r="9.3"/>
  <circle fill="#1F1C17" stroke="#383838" stroke-width=".1" stroke-miterlimit="10" cx="176.6" cy="56.2" r="8.5"/>
  <path fill="#979EA6" stroke="#383838" stroke-width=".1" stroke-miterlimit="10" d="M172.4 61.2l.8.6-.7 1 .8.7 2.2-3.2h2.5l2.4 3.3.8-.6-.5-.7 1-.7.5.6.7-.6-2.3-3 .5-2 3.7-1.5-.4-1-.8.2-.4-1 .7-.3-.5-1-3 1-2.2-1.6V48h-1.3v.5h-.8v-.5h-1.2l.2 3.4-1.9 1.6-3.4-1.3-.5 1.2.8.4-.3.8-.9-.4-.4 1 3.7 1.6.8 2-2.4 2.8 1.1.9z"/>
  <circle fill="#7B8489" stroke="#383838" stroke-width=".1" stroke-miterlimit="10" cx="178.3" cy="54.1" r=".7"/>
  <path fill="#7B8489" stroke="#383838" stroke-width=".1" stroke-miterlimit="10" d="M174.5 54.1a.7.7 0 1 0 1.4 0 .7.7 0 0 0-1.4 0z"/>
  <circle fill="#7B8489" stroke="#383838" stroke-width=".1" stroke-miterlimit="10" cx="174.2" cy="57" r=".7"/>
  <circle fill="#7B8489" stroke="#383838" stroke-width=".1" stroke-miterlimit="10" cx="176.7" cy="58.9" r=".7"/>
  <circle fill="#7B8489" stroke="#383838" stroke-width=".1" stroke-miterlimit="10" cx="179.3" cy="57.1" r=".7"/>
  <path fill="#7B8489" stroke="#383838" stroke-width=".1" stroke-miterlimit="10" d="M175.6 56.3a1 1 0 1 0 2.1-.1 1 1 0 0 0-2.1.1z"/>
  <circle fill="#BEC6CE" cx="178.3" cy="54.1" r=".4"/>
  <circle fill="#BEC6CE" cx="175.2" cy="54.1" r=".4"/>
  <circle fill="#BEC6CE" cx="174.2" cy="57" r=".4"/>
  <circle fill="#BEC6CE" cx="176.7" cy="58.9" r=".4"/>
  <circle fill="#BEC6CE" cx="179.3" cy="57.1" r=".4"/>
  <path fill="none" stroke="#383838" stroke-width=".1" stroke-miterlimit="10" d="M175.2 56.4a1.5 1.5 0 1 0 3-.2 1.5 1.5 0 0 0-3 .2z"/>
  <g opacity=".3" fill="none" stroke="#383838" stroke-width=".1" stroke-miterlimit="10">
    <path d="M177.9 55.4l5.3-2.1M176.3 54.8l-.2-6.1M177.1 54.8l-.2-6.2M178.2 56.2l5.4-1.9M172.4 61.2l3.1-3.9M176 57.7l-2.9 4.1M177.4 57.7l3.3 4.6M175.4 55.5l-5.2-2.1M175.2 56.1l-5.4-2M178 57.1l3.6 4.5"/>
  </g>
  <path fill="#5E5B5B" d="M190 56.1a13.7 13.7 0 0 0-27.4 1.2v-.2a14.2 14.2 0 1 1 14.9 13.4h-.3c7.5-.5 13.2-6.9 12.8-14.4z"/>
  <g>
    <circle fill="#444242" stroke="#383838" stroke-width=".1" stroke-miterlimit="10" cx="54.6" cy="56.1" r="15"/>
    <circle fill="#9FA8AF" stroke="#383838" stroke-width=".1" stroke-miterlimit="10" cx="54.6" cy="55.8" r="10.1"/>
    <circle fill="#9FA8AF" stroke="#383838" stroke-width=".1" stroke-miterlimit="10" cx="54.6" cy="55.8" r="9.3"/>
    <circle fill="#1F1C17" stroke="#383838" stroke-width=".1" stroke-miterlimit="10" cx="54.6" cy="55.8" r="8.5"/>
    <path fill="#979EA6" stroke="#383838" stroke-width=".1" stroke-miterlimit="10" d="M50.4 60.9l.7.6-.7 1 .8.6 2.2-3.1H56l2.4 3.2.8-.6-.5-.6.9-.8.5.7.8-.7-2.4-3 .5-2 3.8-1.4-.5-1.1-.7.3-.5-1.1.7-.3-.5-1-2.9 1.1-2.3-1.6v-3.3h-1.2v.5H54v-.5H53l.1 3.4-1.8 1.5-3.5-1.2-.5 1.2.9.3-.4.8-.8-.3-.5 1 3.8 1.6.8 2-2.4 2.7 1 1z"/>
    <circle fill="#7B8489" stroke="#383838" stroke-width=".1" stroke-miterlimit="10" cx="56.2" cy="53.8" r=".7"/>
    <path fill="#7B8489" stroke="#383838" stroke-width=".1" stroke-miterlimit="10" d="M52.5 53.8a.7.7 0 1 0 1.4 0 .7.7 0 1 0-1.4 0zM51.4 56.7a.7.7 0 1 0 1.4 0 .7.7 0 0 0-1.4 0z"/>
    <circle fill="#7B8489" stroke="#383838" stroke-width=".1" stroke-miterlimit="10" cx="54.7" cy="58.5" r=".7"/>
    <path fill="#7B8489" stroke="#383838" stroke-width=".1" stroke-miterlimit="10" d="M56.5 56.8a.7.7 0 1 0 1.4 0 .7.7 0 0 0-1.4 0z"/>
    <circle fill="#7B8489" stroke="#383838" stroke-width=".1" stroke-miterlimit="10" cx="54.6" cy="55.9" r="1.1"/>
    <circle fill="#BEC6CE" cx="56.2" cy="53.8" r=".4"/>
    <circle fill="#BEC6CE" cx="53.2" cy="53.8" r=".4"/>
    <circle fill="#BEC6CE" cx="52.1" cy="56.7" r=".4"/>
    <circle fill="#BEC6CE" cx="54.7" cy="58.5" r=".4"/>
    <circle fill="#BEC6CE" cx="57.2" cy="56.8" r=".4"/>
    <circle fill="none" stroke="#383838" stroke-width=".1" stroke-miterlimit="10" cx="54.6" cy="55.9" r="1.5"/>
    <g opacity=".3" fill="none" stroke="#383838" stroke-width=".1" stroke-miterlimit="10">
      <path d="M55.9 55.1l5.2-2.2M54.3 54.5l-.3-6.2M55.1 54.5l-.2-6.2M56.2 55.9l5.4-2M50.4 60.9l3.1-3.9M54 57.3l-2.9 4.2M55.4 57.3l3.3 4.7M53.4 55.1l-5.3-2M53.1 55.7l-5.3-1.9M55.9 56.8l3.7 4.4"/>
    </g>
    <path fill="#5E5B5B" d="M68 55.8A13.7 13.7 0 0 0 40.6 57v-.3a14.2 14.2 0 1 1 14.8 13.5h-.2c7.4-.5 13.2-6.9 12.8-14.4z"/>
  </g>
  <path fill="#E17E80" d="M147.5 27.7h-43.3v-.9l43.3.3zM104 27.6H65v-1l38.9.2zM104 29.4H65v-1l39 .2zM64.5 29.3l-58-.8.1-.5 57.9.5zM64.5 27.7l-57.8-.5V27l57.9-.3z"/>
  <g>
    <path fill="#303030" d="M112.9 29.4s.2 0 .3.3v1.1s0 .3-.3.3l-5.6.2s-.3 0-.3-.3v-1.2s0-.3.5-.3h5.4z"/>
    <path fill="#99A3AA" d="M112.7 29.6s.3 0 .3.3v.5s0 .3-.3.3l-5.3.2s-.3 0-.2-.3V30s0-.3.4-.3l5.1-.1z"/>
  </g>
  <g>
    <path fill="#303030" d="M73.6 29.2s.3 0 .3.2v1.2s0 .3-.3.3l-5.5.2s-.4 0-.3-.3v-1.2s0-.3.4-.3l5.4-.1z"/>
    <path fill="#99A3AA" d="M73.4 29.3s.3 0 .3.3l.1.5s0 .3-.3.3l-5.3.2s-.3 0-.3-.3v-.6s0-.3.5-.3h5z"/>
  </g>
  <path fill="#E17E80" d="M104.4 34.7l43.5-.3V33h-43.5zM64.9 34.1l38.9.5v-1.5l-39-.5zM4 32L64.2 34v-1.5L4.9 30.5S2 31.9 3.9 32z"/>
  <path fill="#C13631" d="M60.7 4S107-.6 128 3.5l.9-.8S125.3-1 90.9.3c-23.2.9-28.7 2-28.7 2L60.7 4z"/>
  <path fill="#292934" d="M141.3 19s2.5 3.5 4.9 3.3c0 0 2 0 3.3-.8 0 0-1.3 2.5-4 1.8-2.3-.5-4.2-4.3-4.2-4.3z"/>
  <path fill="#A5A7A6" d="M44.8 18s-.3-.7-1.3.1c-1 .8-2.6 4-1.6 4.7 0 0 .2.2 1-.4L57.3 7.6l4.9-5.3s-1.3-.3-2 .6C59.5 3.8 44.8 18 44.8 18z"/>
  <path fill="#33443F" d="M60 3.3L42.7 21.5s0-1.8 1.4-3L60 3.2z"/>
  <path opacity=".6" fill="#EFEFEF" d="M60.8 4.2c-1.2 1-17.5 18-17.5 18l-.3.1L60.7 4s36-4.6 64.7-.9l2.2.4s-21.3-4-66.8.7z"/>
  <path opacity=".8" fill="#FDFFFF" d="M42.7 23s-.5 2.2-3.6 2.1L9.4 26.3c-1.5 0-2.9.1-3.5.7 0 0-.3 1-.5 1-.1 0-.3-1.4 1.2-1.8 1.9-.5 32.9-1.7 33.5-1.9.7-.2 2-1.5 2-1.5l.6.1z"/>
  <path opacity=".2" fill="#F4F4F4" d="M73.1 16l25.3-8.6c-1-.5-23.1.3-23.1.3l-2.2 8.2zM58 16.6l12.3-8.5c-.4-.2-1.7 0-3 .3a9 9 0 0 0-4.7 2.9L58 16.6zM106.9 14.9l17.6-6.8c-1.1-.6-18-.6-18-.6l.4 7.4z"/>
</svg>
