<svg xmlns="http://www.w3.org/2000/svg" width="84.7" height="115.3">
  <ellipse transform="rotate(1.7 27 110)" opacity=".2" cx="27" cy="109.9" rx="16.2" ry="5.5"/>
  <ellipse transform="rotate(2.3 63.7 107.3)" opacity=".2" cx="63.7" cy="107.3" rx="20.5" ry="5.5"/>
  <path fill="#4F2F25" d="M68.7 13V9.4L66.2 8H66a4.4 4.4 0 0 0-3.6-2c-1.1 0-2.2 0-3.3.5h-1.5v.1c-.3.2-3.4 2.5-4.2 7.7l-.2 2.4c0 1.4-2.1 16.2-2.1 16.2s3.2-1.2 4.6-1a56 56 0 0 0 14.3.2c.5-.1-1.4-6.7-.8-6.9L68.7 13z"/>
  <path fill="#A36B45" d="M70.8 64.9c.2.5 1.2.8 1.2.8l1.3-2.7.3-.5c.3-.5.4-3.5.4-3.5l-2.7.2c-.3.6.2 2.3.2 2.3l-.2 1.4v.2c-.1-.3-.4-.2-.4-.2l-.1 2z"/>
  <path fill="#DF9F6C" d="M74 59v-.6l-.8-10.8c0-1-1-3.8-1-3.8L72 43l-.1-2.6-4-.3c.5 2.4.9 5 .8 5.5l1 4.7 1.9 8.3-.3.6c-.3.6.2 2.3.2 2.3l-.1 1V63.1c-.2-.3-.5-.2-.5-.2l-.1 2c.2.5 1 .7 1.2.8s0-.2.2-.4l.3-.6.8-1.7.3-.5.1-.3c.2-1 .3-3.2.3-3.2zm-1.4 3.8a4 4 0 0 0-.8 1.4l-.1.4-.3-.1v-.9h.4a.6.6 0 0 0 .2-.2c.2-.2.2-.5.3-.8 0-.2-.1-.6 0-.8l.6-.8a10 10 0 0 0-.3 1.8z"/>
  <path fill="#DF9F6C" d="M74 59v-.6l-.8-10.8c0-1-1-3.8-1-3.8L72 43l-.1-2.6h-.5c.1 1.7.2 3.9.7 5.1l.6 1.6.2 1.7.5 7c0 2-.1 4.4.3 6.4.2-1 .3-3.2.3-3.2z"/>
  <path fill="#BC3C46" d="M72.8 40l-3.2.5-2.5.4L65.8 25c.1 0 4.6 1.9 5.2 4.7L72.8 40z"/>
  <path fill="#E8666C" d="M67.8 40.4l5.4-1.3.3 2-6.7.8z"/>
  <path fill="#247F9B" d="M61.6 45.3l-4.1 9.3-1.3 2.7s-6.4-.4-9-4.3c-2.5-3.8 3-15.6 3-15.6h.3l8.5-2.8 2.6 10.7z"/>
  <path fill="#3FA1D1" d="M57.5 54.6l-1.3 2.7s-6.4-.4-9-4.3c-2.5-3.8 3-15.6 3-15.6h.3c-.9 3.5-3.2 15 5.7 16.8l1.3.4z"/>
  <path fill="#184689" d="M69 77.5c.4-1 1.2-12.7 1.7-21.3 0-3.6-2.2-9.7-2.2-9.7l-8.8 1.8 3.6 25.9s-3.2 2.6-5 4.8a396.5 396.5 0 0 0-11 21.8l-.3.3c-.4.3-1 .7-1.1 1.5h-.2l-.4.7v.2l6 4s1.6 1 2.5.9l.4-.6v-.2H54c0-.3 0-1-1.1-2.7l-1.6-2.5s17.3-23.9 17.7-25z"/>
  <path fill="#194CA5" d="M83.4 105l-.2-.1c-.2-.2-.9-.6-3.1-1l-3.2-.5h.2l-7.8-30-5.2-25.9-7-.4-.7-.3S53.7 58 55 60.2c1.4 2.3 7.7 15.9 7.7 15.9s.4 6.7.8 7.5c.3.4 2.8 6.3 5 11.7l4.2 10.3v.5c-.1.5-.2 1.3.3 2v.2l8-1s2.1-.7 2.6-1.5v-.1l-.2-.7z"/>
  <path fill="#D94C52" d="M68.5 46.6c-4.6 4-12.1.6-12.1.6 0-1.1-1.2-6.3-2.2-11a182 182 0 0 1-.7-3.6 13 13 0 0 1 .3-6l1-.8a6.7 6.7 0 0 1 .2-.1c.9-.6 1.9-1.2 2.4-1.3l.5-.2 1.1-.3h4.6l.5.2 1.7 1c.4.2.9.5 1.4 1 2.3 1.7 1.7 8.2 1 10.2-.5 1 .3 10.4.3 10.4z"/>
  <path fill="#AD3A42" d="M67.5 35.8H66c-1 0-2.1-.2-3.4.2l-.9.2a8 8 0 0 1-2.5.3l-.7-.1-.4-.2a11.1 11.1 0 0 0-.2-.2h.3c.2.1.5.2 1 .1a12 12 0 0 0 2.3-.6l1-.3c.6-.2 1.3-.2 2-.1a8.7 8.7 0 0 1 2.5.6l.4.1z"/>
  <path fill="#940B20" d="M45 52.5v.6l-.6.6-.3 9.8h2.1l12.1-.4.8-1.1-.3-9.8z"/>
  <path fill="#FFF0E7" d="M45 53.1l-.4.4-.7.7.2 8.8h2l11.9-.4.7-1-.2-8.9z"/>
  <path fill="#AC1426" d="M43.9 53.7l14.2-.4.2 9.8-14.2.4z"/>
  <path fill="#FFF0E7" d="M54.2 55.1h1.6l.2 6.5h-1.6z"/>
  <path fill="#CF691F" d="M44.9 52.8l-.1.6-.8.4-2.1 9.6 2 .4 12 2 1-1 1.6-9.7z"/>
  <path fill="#FFF0E7" d="M44.8 53.4l-.5.2-.8.6-1.5 8.7 2 .3 11.6 2 1-.9 1.4-8.7z"/>
  <path fill="#FF9300" d="M43.5 53.8l14 2.4-1.6 9.6-14-2.4z"/>
  <path fill="#FFF0E7" d="M53.3 57.1l1.6.3-1 6.4-1.6-.3z"/>
  <path fill="#DF9F6C" d="M53 43.8a464.2 464.2 0 0 1-2.5 14.6v3s1.4.5 1.3.7c0 .3.9 2.1 1 2.3.3.2-.4.8-.4.8s-.8-.3-1.1-.2c-.2 0-.5 1-.9 1.4l-.3.2c-.4 0-1 .1-1.2-.1-.1-.3-.3-.9-.6-1s-1.3-.6-1.3-1l.2-2V61l.2-2 .3-12.5c0-1.2 1-4.6 1-4.6l.1-1v-3.5c.1-1.5.5-3 1.2-4.3.5-1.2 1.7-1.7 3-2a13.6 13.6 0 0 1 1.5-.1S52.9 42.6 53 43.8z"/>
  <path fill="#F37C71" d="M49.6 42.5v.1l.1.1.1.2.2.2.2.2.6.2H51.9l.2-.2.2-.1h-.1-.2-.2-.2-.2a3.3 3.3 0 0 1-1-.2l-.3-.1-.1-.1-.2-.1-.1-.1v-.1z"/>
  <path fill="#D94C52" d="M58.2 30.2l-4 11.5-.8 2.5-.1 1-4.2-1-1.2-.2.2-1v-.2s.2-3.6 1-7.4c.7-3.3 1.9-6.7 4-8l.6-.4.6.4 3.9 2.8z"/>
  <path fill="#F58192" d="M47.6 42l-.2 2.7 6 .9.5-1.6z"/>
  <path fill="#3FA1D1" d="M53.5 26.7s1.2-1.6 2.7-1.8c0 0 2.4 17.4-2 19.8 0 0 2.7-9.5-.7-18zM66.5 25.4s1.3 0 2.2 1c0 0 1 11.7-.7 13 0 0 .5-7.8-1.5-14z"/>
  <g>
    <path fill="#DF9F6C" d="M65.8 25c-.3 1-1.1 2.5-3.2 3.2-2.8 1-4.6-2.5-5.2-3.8l1.6-.5h4.6l.5.2 1.7.9z"/>
    <path fill="#DF9F6C" d="M62.4 27.7L59 23.9l.1-2.2.1-3 4.4 1.7c-.5 1.1-.7 2.4-.7 3.6-.2 2.5-.5 3.7-.5 3.7z"/>
    <g>
      <path fill="#DF9F6C" d="M68.3 15.2l-.4 1.3s.2 2.2 0 2.7c-.3.5-1.7 3.5-3.3 3.4-1.3-.2-4.5-2.1-5.6-3.2l-.4-.6-.7-5c-.1-1-.5-7.5 7.5-5.7 1.5.3 2.6 1.5 3 2.9.2 1 .2 2.4-.1 4.2z"/>
      <path fill="#DF9F6C" d="M59 18.7a3 3 0 0 1-2.3-1.5c-.3-.5-.4-2.3.3-2.7.6-.3 1 0 1.1.4l.1.2.8 3.6z"/>
    </g>
    <path fill="#724939" d="M68.9 10.9v-.4-.1-.3l-.1-.2v-.3-.2l-.1-.3V9l-.2-.3v-.2l-.1-.2V8l-.2-.3v-.1l-.2-.3-.1-.1-.2-.3-.1-.1-.3-.2-.1-.1-.3-.2-.1-.1a3.6 3.6 0 0 0-1-.4l-.2.1h-1.1s-4.4-1.3-6.9.9a11 11 0 0 0-3.5 5 14 14 0 0 0-.6 2.6c-.2 4.4-.4 8.2.6 8 0 0-.3 3-.1 3.2.2.2.9-2.5 1-2.6.2-.3.2-2.6.3-3 .2-.4-.1-1.4 0-1.8l.1-1.2a7.9 7.9 0 0 1 1.3-2.2l1-.4v.3c.3.3.6.8.8 1.4l.2 1.5v.5l.1.2v-.2l.2-.5V17v-1a3 3 0 0 0-.5-.8 4 4 0 0 0-.5-.6l.7.5.8.9.3.2v.1a5 5 0 0 0-.4-1l-.4-.5a2.1 2.1 0 0 0-1-.4c1.4-.5 7.6-2.5 8.2-5.7 0 .7 0 2.7 2.5 4.5V13a14 14 0 0 0 .2-2v-.1z"/>
  </g>
  <path opacity=".6" fill="#BB377D" d="M56.4 46.9s-.2-1.5-.6-2.8c-.2-.8-.4-.3-.7 0-.4.4-.8 2.2-.9 2.7-.5 3.4 1.3 5.5 1.2 5-.1-.3 1-4.9 1-4.9z"/>
  <g>
    <path fill="#926550" d="M62.2 14.3l.2-.2c.3 0 .5-.1.8 0 .2 0 .8 0 1 .3a1.8 1.8 0 0 1 0 .2v.2H64c-.4-.2-.8-.5-1.3-.4-.3 0-.7 0-.9.3 0-.2.2-.3.3-.4zM66.4 14.8v-.2c.2-.3.7-.5.9-.5h.6l.3.2.2.5c-.2-.3-.5-.4-.8-.4-.4 0-.7.2-1 .4h-.2z"/>
  </g>
  <g>
    <path fill="#AF744B" d="M62.2 15.5l.7-.3 1 .3v-.1l.1.4v.1l-.2-.2-.6-.2h-1z"/>
    <path fill="#AF744B" d="M62.2 15.5c.5-.2 1.2-.2 1.6.2l.2.1h.2l-.2.1c-.5-.5-1.2-.5-1.8-.4z"/>
    <g>
      <path fill="#AF744B" d="M68.5 15.5l-.8-.3c-.2-.1-.9.3-.9.3v-.2l-.2.5h.1v.2c0-.1 0-.2.2-.3l.6-.3c.4 0 .7 0 1 .2v-.1z"/>
      <path fill="#AF744B" d="M68.5 15.5c-.5-.3-1.2-.2-1.7.2l-.1.1s-.2.1-.2 0c0 .1.1.2.2.1.5-.6 1.2-.5 1.8-.4z"/>
    </g>
  </g>
  <g>
    <path opacity=".4" fill="#8E4413" d="M65.8 17.6h.1l-.5.6c-.5.2-.7-.3-.8-.6h1.2z"/>
    <path fill="#926550" d="M65 17.8l-.4-.2h1.3c-.3.2-.6.3-1 .2z"/>
  </g>
  <g>
    <path opacity=".4" fill="#472107" d="M66.3 19.3l-.3.6c-.2.3-.5.6-1.2.6-.9 0-1-.7-1.3-1.2l.2-.1h1.5l1 .1z"/>
    <path fill="#8C0C00" d="M64 20c.4.2.8.2 1.3.2l.3-.2.3-.3.2-.2a10 10 0 0 1-2.5-.2c.1.2.2.4.5.6z"/>
    <path fill="#FFF" d="M63.7 19.4v-.1l2.3.2-.3.1H65c-.4 0-.8 0-1.1-.2z"/>
    <path opacity=".4" fill="#5B2A09" d="M65.3 20.6c-.1.1-.5.2-.8 0h.8z"/>
  </g>
  <g>
    <path fill="none" d="M21 104c.6.5 1.4 1.2 2.1 1.6 1 .6 3.3.7 4.4 1V81.4l-.3-.7L27 82c-1.4 6.4-4.8 14.4-6 22z"/>
    <path fill="#FFC0AD" d="M31.3 60.3l1 6c1.2 0 1.3-3.9.6-7.8l-2 .4.4 1.4z"/>
    <path fill="#895630" d="M25 19.2c0-1 .1-1.7.6-1.6 2.9.6 4.3-.2 4.3-.8l-.1-1.1c.5-.5-.1-.9-.1-.9l.1-.2.3-.5V14c-.3-.4-.3-1-.3-1s1-.3 1.2-1c.3-.9-.6-.7-1.2-2.7-.3-1.4 1-3.5-.6-5.4-.5.3-1 .5-1.6.5-1.8 0-4 .7-4 2.3-.3 2.9-1.8 3.3-2.5 3.9 0 0-.8-1.2-1.8-.7s.4 3.6.4 3.6l-.7 2.4c.3 1 .4 2.4.2 3.7l6 1.8-.2-2.2z"/>
    <path fill="#050201" d="M19.3 9.9c1-.5 1.8.7 1.8.7.7-.6 2.2-1 2.5-3.9 0-1.6 2.2-2.3 4-2.3.5 0 1.1-.2 1.6-.5 1.8-1 2-3-.9-2.7-4.6.5-8.2-1.6-11.2 1.6-2 2.3-2.1 6.4-1.5 8.7.7 2.3 3.3 4.5 3.3 4.5v-.1l.8-2.4s-1.5-3-.4-3.6z"/>
    <circle fill="#050201" cx="27" cy="4.2" r="1.2"/>
    <circle fill="#050201" cx="25.2" cy="5.4" r="1.2"/>
    <circle fill="#050201" cx="23.4" cy="6.6" r="1.2"/>
    <path fill="#050201" d="M24 7.8a1.2 1.2 0 1 1-2.4 0 1.2 1.2 0 0 1 2.4 0z"/>
    <circle fill="#050201" cx="21.6" cy="9" r="1.2"/>
    <circle fill="#050201" cx="21.6" cy="9.6" r="1.2"/>
    <circle fill="#050201" cx="19.2" cy="14.4" r="1.2"/>
    <circle fill="#050201" cx="18.6" cy="15.6" r="1.2"/>
    <circle fill="#050201" cx="16.8" cy="13.8" r="1.2"/>
    <circle fill="#050201" cx="16.2" cy="12" r="1.2"/>
    <circle fill="#050201" cx="16.2" cy="10.2" r="1.2"/>
    <circle fill="#050201" cx="15.6" cy="8.4" r="1.2"/>
    <circle fill="#050201" cx="15.6" cy="6.6" r="1.2"/>
    <circle fill="#050201" cx="16.8" cy="4.8" r="1.2"/>
    <path fill="#050201" d="M18.7 3a1.2 1.2 0 1 1-2.5 0 1.2 1.2 0 0 1 2.5 0z"/>
    <circle fill="#050201" cx="18.6" cy="1.8" r="1.2"/>
    <circle fill="#050201" cx="20.4" cy="1.2" r="1.2"/>
    <circle fill="#050201" cx="22.2" cy="1.2" r="1.2"/>
    <circle fill="#050201" cx="23.4" cy="1.2" r="1.2"/>
    <circle fill="#050201" cx="29.4" cy="3.6" r="1.2"/>
    <circle fill="#050201" cx="30" cy="1.8" r="1.2"/>
    <circle fill="#050201" cx="27.6" cy="1.2" r="1.2"/>
    <circle fill="#050201" cx="25.2" cy="1.2" r="1.2"/>
    <path fill="#B9BDC6" d="M14.4 105.6s-.1-.7-.2-.3c-.2.7-1.1 2.5-.7 3 .4.5 9.9 3.1 14 1.7 4.2-1.5.3-1.7.3-1.7l-4.3-.7-9-2z"/>
    <path opacity=".4" fill="#FFF" d="M14.9 105.5s-.2-.7-.3-.3c-.1.7-1 2.3-.6 2.7.4.5 9 2.9 12.7 1.6s.3-1.6.3-1.6l-4-.6-8.1-1.8z"/>
    <path fill="#B9BDC6" d="M27.3 109.6s-.3-.7-.3-.3c-.1.8-.6 2.7 0 3.2.4.4 10 1.7 14.1-.5.6-.3.2-1.7.2-1.7h-4.8l-9.2-.7z"/>
    <path opacity=".4" fill="#FFF" d="M27.7 109.5s-.3-.7-.3-.3c0 .7-.7 2.4-.2 2.8.4.4 9.1 1.2 12.8-.3 3-1.3 0-1.6 0-1.6h-4l-8.3-.6z"/>
    <path fill="#3A3D4A" d="M27.6 106.8v-.1c-1.2-.4-3.5-.5-4.4-1-.7-.5-1.6-1.2-2.1-1.8v.2l-5.8-1.4v-.2c-.3.3-.7 1-1 2.1-.5 2.3-.7 2.3.4 2.8a20 20 0 0 0 6 1.4c2.2.3 4.8.6 6.4.2l.1-.6a9 9 0 0 1 .4-1.6z"/>
    <path fill="#55596A" d="M27.6 106.8a9 9 0 0 0-.4 1.6v.6c-.3 1.7-.4 1.8.6 2.1 1.1.4 3.2.8 6.1.8 2.7 0 5.7 0 7.1-.9.5-.2.5-.9.2-1.7-.3-.8-3.8-.2-5.1-.8-.8-.4-2-1.4-2.7-2l-5.8.3z"/>
    <path fill="#73A0C9" d="M21 104.1v-.2c1.2-7.6 4.6-15.6 6-22l.2-1.3c-.6-2.1-2.8-9.2-5-12.8v-.2l-2-2.4c.5 3.3.8 13.4.8 13.4l-5.6 23.9v.2L21 104z"/>
    <path fill="#8AB2DE" d="M31 59c-5.5.9-11.8.3-14.4 0 .2 1.6 1.3 3.4 3.6 6.2l2 2.4v.2a64.7 64.7 0 0 1 5 12.8l.2.7.1 25.4h.1l5.8-.3s2.1-20.9 1-25.8l-2.2-14.4A95.5 95.5 0 0 0 31 59z"/>
    <path fill="#0058B3" d="M24 51.2a94 94 0 0 1-3.7-14.4l-1 .2c-1.3-6-2-13.4.5-14.5 7.1-3.2 8.1 13 8.1 13l-1.6.3L28 46.7c.1 0 .2 6.4.4 6.4.7 0 3.8-1.3 5.1-1.3L31.8 40c-.5-5-3.2-12.8-5.4-17.6l-1-.4c-1.5-.6-6-1.7-6.5-1.8-1.6 1.2-3.4 4-3.6 10.9-.2 6.3.2 22.7 0 27.7l1.3.2a51.4 51.4 0 0 0 16.3-.5l1.3-.4-.8-5.9c-4.6.4-8.7.3-9.4-1z"/>
    <path fill="#616F84" d="M25.4 22l1 .5h.3l-.6-1.4-3.6-.5c-1.7-.4-3.5-1.3-3.5-1.3l-.1.9c.5.1 5 1.2 6.5 1.8z"/>
    <g fill="#464346">
      <path d="M15.7 44c0 6.1-2.5 11-6.5 11S0 47.8 0 41.7C0 35.5 5.1 29 9.2 29c4 0 6.5-6.3 6.5 15z"/>
      <path d="M17.4 36.2c0 10.1-2.9 18.4-6.5 18.4s-7.6-8.3-7.6-18.4c0-10.2 4-15.4 7.6-15.4 3.6 0 6.5 5.2 6.5 15.4z"/>
    </g>
    <path fill="none" stroke="#464346" stroke-width="1.5" stroke-miterlimit="10" d="M15 24.9s7.3-6.5 10.7-.4c0 0 4.4 9.2 1.7 12.6 0 0-4.4 4.4-6.9 5.3 0 0-2.9 1-4.2 1"/>
    <g>
      <path fill="#057F11" d="M22 54.5l.2.7-.5 1 3.5 11.7 2.4-.8L42 62l.5-1.7-4.1-11.6z"/>
      <path fill="#FFF0E7" d="M22.2 55.2l-.3.6-.6 1L25 67.4l2.3-.8 14-5 .5-1.5L38 49.6z"/>
      <path fill="#08A51E" d="M21 56.4l16.8-5.9 4 11.6-16.6 6z"/>
      <path fill="#0D679E" d="M22 54.9v.7l-.7.8 1.1 12.3 2.6-.4 15-2.2.8-1.5L39 52.4z"/>
      <path fill="#FFF0E7" d="M22 55.6l-.4.5-.8 1L22.3 68l2.5-.4 14.7-2 .8-1.5-1.6-10.9z"/>
      <path fill="#0D7CCE" d="M20.7 56.5L38.2 54 40 66.2l-17.5 2.5z"/>
      <path fill="#FFF0E7" d="M33.7 56.8l2-.3 1.2 8-2 .3z"/>
      <path fill="#895630" d="M27.4 41.1c.3.5 1 3.8 1.5 7.4.3 2 1 3.7 1.3 5.7l.7 5.2 1 3.6s1.9 0 2 .4c0 .2 1.7 2 2 2.2.4.2-.2 1.2-.2 1.2s-1.2 0-1.4.1c-.3.1-.3 1.3-.5 2 0 .2-.2.3-.3.4-.6.3-1.2.6-1.5.3-.3-.3-.7-.8-1.1-.8-.4 0-1.8-.4-2-.9l-.5-2.4-.6-1.7-.5-2.5-4.4-15c-.4-1.4-.5-5.9-.5-5.9l-.3-1.2-1.3-4.2c-.5-1.8-.6-3.8-.3-5.6.2-1.6 1.4-2.6 2.8-3.4l1.1-.6.6-.2s1.7 14.5 2.4 15.9z"/>
      <path fill="#9B8A8A" d="M19.8 22.5c-2.4 1.1-1.8 8.6-.4 14.5l2 10.3 6 17.3 2.7-1.4 3.6-1.3L29 44.3c-.5-1.8-.6-4.9-.7-5.3-.4-4.3-2.3-19.2-8.4-16.5z"/>
      <path fill="#706666" d="M26.7 62.7l.8 2.3 6.5-2.5-.5-1.8z"/>
      <path fill="#F2F8EF" d="M19.8 22.5c-2.4 1.1-2 8.6-.7 14.5l1.2-.2 7.7-2.2s-1-15.3-8.2-12z"/>
    </g>
    <path fill="#9B1C1C" d="M18.8 35.9l1.6-.2 7.5-2.3.1 1.2-7.7 2.2-1.2.2z"/>
    <path fill="none" stroke="#2C2E35" stroke-width=".5" stroke-miterlimit="10" d="M33.6 108.4s-1.4 1.6-2.3 1.3 1.3-1.6 2.3-1.8"/>
    <path fill="none" stroke="#55596A" stroke-width=".5" stroke-miterlimit="10" d="M34.4 107.2s2-1.5 2.6-.7c.7.7-1.8 1.5-2.7 1.3"/>
    <path fill="none" stroke="#3A3D4A" stroke-width=".5" stroke-miterlimit="10" d="M21.2 104.3s1.5-1.8 2.4-1.4c.9.4-1.3 1.7-2.3 1.9"/>
    <path fill="none" stroke="#2C2E35" stroke-width=".5" stroke-miterlimit="10" d="M33.7 108s-.3 2.1.4 3.2"/>
    <path fill="none" stroke="#55596A" stroke-width=".5" stroke-miterlimit="10" d="M20.8 105.3s-1.4 1.7-2.3 1.3c-.9-.3 1.3-1.6 2.2-1.7M20.8 105s-.2 2 .5 3.2M37.7 107.8s-2 .9-3.3-.3"/>
    <path fill="none" stroke="#3A3D4A" stroke-width=".5" stroke-miterlimit="10" d="M24.8 105s-2 .9-3.3-.3"/>
    <path fill="#3F0300" d="M28.8 15c-.6 0-1.3-.7-1-.6 1.2 0 2.2-.3 2.3-.3l-.4.7-.9.2z"/>
    <path opacity=".5" fill="#472107" d="M29.8 13v.3c-.1 0-1.7-.3-2-.5a13.9 13.9 0 0 0 2 .1z"/>
    <ellipse fill="#110B0A" cx="26.9" cy="9.3" rx=".4" ry=".6"/>
    <g>
      <path fill="#050201" d="M26.1 8.5c.2-.4 1-.6 1.4-.3v.1c-.3.1-.5 0-.8 0l-.6.2z"/>
    </g>
    <path opacity=".5" fill="#472107" d="M29.8 15.7s-.9.3-1.4 0c0 0 .7.5 1.4.2v-.2z"/>
  </g>
  <g>
    <path fill="#C24971" d="M46.2 101.3s-.4.1-.7.5c-.3.3-.7 1.1-.2 1.8.6.6 1.2.8 1.8 1.1s1.2.7 1.6 1.2l.2.5c.2.4.4.7.6.7h.1v.2l.4.3h.2l.1.2.6.3h.2l.3.2.5.1h.2l.2.2h1.1l.2.1 1.5-.1c.3-.1 1.2-.1 1.3-.6l-.1-.6v-.1l-.1-.4-.3-.2c-.2 0-.8-.6-1.2-1l-.4-.4s0-.2-.3-.5v-.2c-.1-.1-.1-.2-.2-.1l-.4-.4s0-.3-.5-.4c0 0 0-.3-.3-.4l-.3-.4-.1-.4c-.2-.2-.1-.3-.2-.5l-.3-.7s0-.3-.3-.4h-.2s-.2-.6-.7-.6c-.5 0-1 .4-1 .4s-.3-.2-.5-.7c-.2-.4 0-.8-.6-1h-.6s-.5 0-.8.6l-.3.5-.5 1.2z"/>
    <path d="M47.9 99.3s0 .7-.3 1.2c-.3.4.4.4.4.4h1.4l.1-.2-.5-.7c-.1-.4-.2-1-.6-1H48c-.2 0-.1.2-.1.3z"/>
    <path fill="#FB8897" d="M48.8 101.2s.3.7.8.7c0 0 .5 0 .7.4.2.3 1 1.7 1.6 2.3.5.6.3.7 1.2.8 1 0 1.2 0 1.2-.2 0 0-.6-.8-1.5-1.6l-.3-.3-.8-2s0 1 .4 1.5l.4.7s1.2 1 1.5 1.5h-1.1c-.3-.3-.4-.9-.8-1.3-.3-.3-.6-.6-.7-.9l-.8-1.3c0-.2-.4-.6-1.8-.3z"/>
    <path fill="#E1536B" d="M52.5 104.6l.8-.2.6.1V104.6c-.2-.1-1.1.2-1.1.2s-.4 0-.4 0v-.2z"/>
    <path fill="#E1536B" d="M52.4 104.7l.1-.3c.1 0 .5-.5.8-.4v.1l-.6.5h-.3z"/>
    <path fill="#E1536B" d="M52.3 104.4s0-.2.2-.1l.7.1h.5l-.4-.2-1-.1c-.2 0-.1.2 0 .3zM52.3 103.8s-.3.5-.4.4c-.2-.1 0-.3.1-.4.1 0 .5-.7.7-.4l.1.2-.5.2z"/>
    <path fill="#E1536B" d="M51.5 103.6l1.4.2.3.2s.2.1.2 0-.3-.3-.7-.4l-1.2-.2c-.2 0-.2.1 0 .2z"/>
    <path fill="#E8728E" d="M49.4 100.8s1.3-1 1.7-.1l.3.8v.5l.2.2-.5-.1-.1-.3c-.2-.4-.4-.9-1-1h-.6z"/>
    <path fill="#E1536B" d="M56.3 107.4s0-.5-.3-.6c0 0-1.4.2-2.3-.1-1-.3-.9.5-.9.5s0 .7.2.7l2 .4s.3 0 .4-.4c.2-.2.1-.4.4-.4h.5z"/>
    <path fill="#F46887" d="M53.4 108.6s1.2 0 1.9-.5l.2-.4c0-.2.4-.2.4-.2s.4-.2.5 0c0 .2.2.9-.8 1-1 .2-2 .2-2.1.2-.1 0 0 0 0 0zM47 99.5s-.5 1-.2 2.3l.7 1.5s-1.5-.8-1.6-1.4l.2-.5.7-1.4.2-.5zM52 108.4l1.3.2s-.5.2-1.2 0v-.2zM52 108.4h-.3l-.4-.2.7.2zM51 108h-.2l-.5-.3v.1l.6.3h.2zM50.2 107.6s0 .1-.2 0l-.3-.2s-.1 0 0-.2l.5.4zM49.6 107.1h-.3l-.3-.5v-.2s.3.6.6.7zM47.8 105l.5.5-.5-.4zM47.2 104.8s-1.6-.8-1.9-1.3c0 0 .6.9 2 1.3z"/>
    <path fill="#EFEFEF" d="M46.1 101.2l-.6.6c-.1.2-.5.6-.4 1 0 .4 0 .3.3.9.5.5 1.5.9 2.1 1.3.6.3.6.3 1.1.9.5.6.6 1.4 2.8 2.3 0 0 1.7 1 3.6 0 0 0-2.2.1-4.3-1.4 0 0-.9-.8-1.4-1.6a5.1 5.1 0 0 0-2.1-2s-1.2-.7-1.3-1.3l.2-.5v-.2z"/>
    <path fill="#EFDFD7" d="M54.4 105.4h-1c-.8 0-.2.4 0 .5 0 .1 1.3.9 2.1.8 0 0 .5 0 .1-.2a7.7 7.7 0 0 1-1.2-1.1zM54.1 106.7s-1-.5-1.6-1c0 0-.3-.4-.5-.4h-1v1.1l1.3.4h.3s0-.4.7-.3l.8.2zM50.7 104.8h.6c.3 0 .3 0 .2-.3l-.4-.6s0-.2-.4-.2H50l.8 1.1zM48.9 103.8h-.3s-.2 0 0 .2c.1.2 0 .3.3.3l.3-.2-.3-.3zM49.8 103.2h.5c.2 0 .4 0 .2-.2l-.4-.7-.4-.1H48l1 1h.8zM48.4 103.3H48s-.2 0-.3-.2l-.6-.8.1-.1.5.1.7 1z"/>
    <path fill="#CACFCF" d="M47 101s.9 1.1 2.6 2.4c1.5 1 1.6 2.4 1.5 3.2v.5s-.4-.1-1.2-1l-1.2-1.6s.3-.3-.1-.9l-1.6-1.9s-.1-.3 0-.8z"/>
    <path fill="#E1536B" d="M52.4 103.4s-.7-.4-1-.4c-.2 0 0 .2 0 .2l.9.3z"/>
    <path fill="#E1536B" d="M52 102.8l-.4.4.2.2.4-.4v-.2H52zM51.3 102.7s.3-.4.7-.5v-.1c0-.1-.1-.1-.2 0-.1 0-.6.2-.7.5s0 .3 0 .3l.3-.1-.1-.1z"/>
    <path fill="#E1536B" d="M52 102.5c.2 0 .4.4.2.4 0 0-.3-.3-1-.6 0 0-.7-.1-.6-.2.3-.2 1.4.3 1.5.4z"/>
  </g>
  <g>
    <path fill="#C24971" d="M72.6 107v.7c0 .5.2 1.4 1 1.5.9 0 1.4-.2 2.1-.4.7-.2 1.4-.4 2-.2l.5.1c.4.1.7.3 1 .2v-.1h1l.6-.3.1-.1h.4l.5-.3.3-.1.6-.5.3-.3h.1l1-1.2c.3-.2.9-.9.5-1.3-.3-.4-.4-.3-.4-.3v-.1l-.4-.2h-.4c-.2 0-1 .1-1.6 0h-.5-.6l-.1-.2h-.2-.6s-.1-.2-.6 0l-.1.1s-.2-.1-.4 0l-.5-.2-.4-.1c-.2 0-.2-.2-.5-.3l-.6-.3s-.2-.2-.5 0l-.2.1s-.5-.3-.9 0c-.3.4-.4 1-.4 1l-.9-.1c-.4-.2-.6-.6-1.1-.3-.3.1-.5.4-.5.4s-.3.3-.1 1v.5l.5 1.2z"/>
    <path d="M72.5 104.4s.5.4.6 1c.2.5.6 0 .6 0l.5-.5.4-.5v-.2l-.8-.2c-.4-.2-.7-.5-1.1-.2l-.3.3.1.3z"/>
    <path fill="#FB8897" d="M74.4 105s.8.4 1.2 0c0 0 .3-.4.7-.2l2.8.6c.8 0 .7.2 1.4-.3.7-.6.8-.9.8-1h-2.6l-2-1s.7.8 1.3.8l.8.2 2 .1s-.4.7-.8.7c-.3 0-.8-.3-1.3-.3s-.9 0-1.3-.2a56 56 0 0 0-1.4-.4c-.2 0-.7-.1-1.6 1z"/>
    <path fill="#E1536B" d="M79.5 105l.5-.7s.4-.5.5-.4c.2 0 .2 0 .2.2h-.2c-.2 0-.6.8-.6.8s-.3.3-.4.2v-.1z"/>
    <path fill="#E1536B" d="M79.5 105l-.1-.2c0-.1 0-.7.3-.8v.9c0 .1-.1.2-.2.1z"/>
    <path fill="#E1536B" d="M79.2 105s-.1-.2.1-.3l.6-.4.4-.3-.5.1-.7.6c-.2.2 0 .2.1.2zM78.8 104.5s.2.5 0 .6c-.2 0-.2-.3-.2-.4 0-.1-.1-.8.2-.8h.2s-.2.2-.2.6z"/>
    <path fill="#E1536B" d="M78.1 104.9l1.2-.8.3-.1s.2 0 .1-.1c0 0-.4 0-.7.2l-1 .6c-.2.2 0 .3.1.2z"/>
    <path fill="#E8728E" d="M74.6 104.4s.3-1.7 1.2-1.3c0 0 .3 0 .8.3l.4.4h.3l-.5.3-.4-.1c-.3-.2-.8-.4-1.2 0l-.6.4z"/>
    <path fill="#E1536B" d="M84.2 104.3s-.4-.3-.6-.2c0 0-1 1.1-1.8 1.5-1 .6-.3 1-.3 1s.5.5.7.4c.2 0 1.7-1.1 1.7-1.1s.1-.3 0-.6c0-.2-.2-.3 0-.6l.3-.4z"/>
    <path fill="#F46887" d="M83 107.2s.8-.9 1-1.6l-.2-.5.1-.4s.2-.4.4-.3c.2 0 .8.5.2 1.2a9 9 0 0 1-1.4 1.6H83zM72 105s.3 1.1 1.5 1.9l1.5.6s-1.7.5-2.1 0c0 0-.2 0-.2-.4l-.5-1.5s-.2-.4-.1-.5zM81.9 108l1-.7s-.3.5-1 .7zM81.8 108s0 .2-.2.2l-.5.2s.6-.2.7-.4zM80.9 108.4l-.3.2-.6.1s.1.1.2 0l.5-.1.2-.2zM80 108.7l-.2.1-.4.1h-.1l.7-.2zM79.1 108.8l-.1.1-.6-.1-.3-.1s.8.2 1 .1zM76.4 108.6l.8-.1h-.8zM75.9 108.7s-1.7.6-2.3.4c0 0 1 .2 2.3-.4z"/>
    <path fill="#EFEFEF" d="M72.6 107s-.2.6-.1.8c0 .2 0 .7.4 1 .3.2.2.3.9.4.6 0 1.7-.4 2.4-.5.7-.2.6-.2 1.4-.1.8 0 1.5.6 3.6-.3 0 0 1.8-.5 2.7-2.5 0 0-1.6 1.6-4.2 2 0 0-1.1 0-2.1-.2s-2-.3-3 0c0 0-1.3.3-1.7 0 0 0-.2-.2-.2-.5v-.2z"/>
    <path fill="#EFDFD7" d="M81.5 104.2s-.1.3-.7.7c-.7.5 0 .4.2.4s1.6-.3 2.2-1c0 0 .4-.2-.1-.1h-1.6zM82.1 105.3s-1 .4-1.8.4l-.7.1-.7.7.8.8 1.2-.6c.2-.1.3 0 .2-.3 0 0-.2-.3.3-.6l.7-.5zM78.4 106.3l.4-.4c.2-.1.2-.2 0-.3l-.8-.2-.4.2-.6.5s1 0 1.4.2zM76.4 106.9l-.2.2s-.2.2 0 .2h.5c.1-.2 0-.4 0-.4h-.3zM76.6 105.8l.4-.3c.1-.2.3-.2 0-.3l-.8-.2s-.1-.1-.3.1l-1.4 1.2H76l.6-.5zM75.7 106.8l-.3.3H74s-.2-.1 0-.3l.4-.1 1.2.1z"/>
    <path fill="#CACFCF" d="M73 106.2s1.5.2 3.6-.1c1.8-.2 2.8.6 3.3 1.3l.3.3s-.4.2-1.6 0l-1.9-.2s0-.5-.7-.5l-2.4-.3-.7-.5z"/>
    <path fill="#E1536B" d="M78.6 104.2l-1 .3c-.1.1 0 .2.2.1l.8-.3v-.1z"/>
    <path fill="#E1536B" d="M78 104v.6h.2v-.6c0-.1-.2 0-.2 0zM77.3 104.4s0-.6.2-.8v-.2c-.1 0-.2 0-.3.2 0 .1-.2.6 0 .9 0 .3.1.2.1.2l.1-.3z"/>
    <path fill="#F17588" d="M77.7 103.7c.2 0 .5 0 .4.2 0 0-.4 0-1 .3 0 0-.7.4-.7.2.1-.3 1.2-.7 1.3-.7z"/>
  </g>
  <path fill="#184689" d="M50.6 94s-3.5 5-3.9 5.3c-.4.3-.6 1.4.8 2 1.5.5 3.7 1 4.9 1.2 0 0 .4-.7.6-1.9.2-1.2 2.2-3.4 2.2-3.4L50.6 94z"/>
  <path fill="#194CA5" d="M70 99s2 6.3 2 6.8.8 1.3 2.1.4 3.3-2.4 4.5-2.3l-1.6-2.5c-.7-1-1.5-4.1-1.5-4.1L70.1 99z"/>
  <path fill="#D94C52" d="M10.5 46l2.2-2.1 2 2-2 2.2z"/>
  <path fill="#3FA1D1" d="M9.8 24.2l3.1 2.2-.4.6-3-2.2z"/>
  <circle fill="#FF9300" cx="3.3" cy="42.1" r="1"/>
  <circle fill="#77301D" cx="72" cy="58.3" r=".2"/>
  <circle fill="#77301D" cx="71.6" cy="58.3" r=".2"/>
  <circle fill="#77301D" cx="72.5" cy="58.3" r=".2"/>
  <circle fill="#77301D" cx="73" cy="58.3" r=".2"/>
  <path fill="#77301D" d="M73.7 58.3s-.1.2-.3.2a.2.2 0 1 1 0-.5c.2 0 .3.1.3.3z"/>
  <circle fill="#77301D" cx="73.9" cy="58.3" r=".2"/>
  <circle fill="#4A721F" cx="72.1" cy="57.8" r=".2"/>
  <circle fill="#4A721F" cx="71.6" cy="57.9" r=".2"/>
  <path fill="#4A721F" d="M72.7 57.7l-.1.2-.3-.1.1-.3c.2 0 .3 0 .3.2z"/>
  <circle fill="#4A721F" cx="73" cy="57.6" r=".2"/>
  <path fill="#4A721F" d="M73.6 57.4l-.1.3-.3-.1c0-.2 0-.3.2-.3l.2.1z"/>
  <circle fill="#4A721F" cx="73.9" cy="57.4" r=".2"/>
  <g fill="#146393">
    <path d="M72 57s-.1.2-.3.1a.3.3 0 0 1-.2-.3l.3-.2c.2 0 .3.2.2.3z"/>
    <circle cx="71.2" cy="56.8" r=".3"/>
    <circle cx="72.3" cy="57" r=".3"/>
    <circle cx="72.8" cy="57.1" r=".3"/>
    <circle cx="73.3" cy="57.2" r=".3"/>
    <circle cx="73.8" cy="57.3" r=".3"/>
  </g>
  <path fill="#0B3647" d="M56.3 46.1s.2 1 0 1.6c0 0 3.8 2 8.4 1.6 4.6-.6 4.1-2 4.1-2l-.3-.8s-2.7 3.3-12.2-.4z"/>
  <path fill="#858D99" d="M64.6 49c0 .4-.4.8-.9.8h-1.3a.8.8 0 0 1-.8-.8v-.4c0-.4.3-.8.8-.8h1.3c.5 0 .9.4.9.8v.4z"/>
</svg>
