<svg xmlns="http://www.w3.org/2000/svg" width="263.2" height="48.6">
  <path fill="#FFF" d="M178.3 19l-7.2.3 1.7 2.5 5.8 3.6 5.7-6zM225.8 16L200.7 0l-7.6.7 13.4 17z"/>
  <path fill="#8DA5C7" d="M250 17.4l-.3-3.5 3.5-.3c2.6.6 5 1.8 7 2.9l-10.2.9z"/>
  <path fill="#FFF" d="M178.4 19.3l69.1-6.2c2-.2 3.8 0 5.7.5l-3.5.3.3 3.5 10.1-.9c1.9 1.1 3 2.2 3.1 2.7l-.1.7-81 7.2c-5.1-2-7.4-4.9-7.5-5.6-.1-1.4 3.8-2.2 3.8-2.2zM183.3 18.8l-8.3-12 2.4-.2 15 11.4z"/>
  <path fill="#DBDBDB" d="M263 19.9c-.6 1.7-4 3.5-7.8 3.8L197.3 29c-6.6.6-11.7-.4-15.3-1.8l81-7.2z"/>
  <path fill="#FFF" d="M181.9 19l-3.5.3L172 7l1.8-.1z"/>
  <path fill="#FFF" d="M175 6.8l8.3 12-1.4.1-8.1-12z"/>
  <circle fill="#8DA5C7" cx="241.4" cy="16.6" r="1"/>
  <circle fill="#8DA5C7" cx="237.6" cy="17" r="1"/>
  <circle fill="#8DA5C7" cx="233.8" cy="17.3" r="1"/>
  <circle fill="#8DA5C7" cx="230.1" cy="17.6" r="1"/>
  <circle fill="#8DA5C7" cx="226.3" cy="18" r="1"/>
  <circle fill="#8DA5C7" cx="222.5" cy="18.3" r="1"/>
  <circle fill="#8DA5C7" cx="218.7" cy="18.7" r="1"/>
  <circle fill="#8DA5C7" cx="215" cy="19" r="1"/>
  <circle fill="#8DA5C7" cx="211.2" cy="19.3" r="1"/>
  <circle fill="#8DA5C7" cx="207.4" cy="19.7" r="1"/>
  <circle fill="#8DA5C7" cx="203.6" cy="20" r="1"/>
  <circle fill="#8DA5C7" cx="199.8" cy="20.3" r="1"/>
  <path fill="#8DA5C7" d="M245.9 17.8l2.8-.3-.3-3.5-1.8.2z"/>
  <path fill="#FFF" d="M229.5 22.5l-27.8 25.2-10.1.9 15.9-24.1z"/>
  <path fill="#FFF" d="M228.5 30.4l-7.2.7-.7-7.7 7.2-.6z"/>
  <path fill="#00558A" d="M228.6 22.7c1-.1 2 .6 2 1.7l.4 3.9c.1 1-.7 2-1.7 2l-.9.1-.6-7.7h.8z"/>
  <path fill="#FFF" d="M213 24l7.6-.6.7 7.7-7.7.6c-2.5.3-5.8-2.2-5.8-3.3-.1-1 2.6-4.1 5.1-4.3zM192 18.2l-16.8-16-5.8.6 7.3 16-6.5.5 1.7 3.6 6.7 2.1-5.6 5.9 6.1-.6 11-7.6z"/>
  <path fill="#DBDBDB" d="M187.7 28l2.4-5.5-6.6 4.7z"/>
  <path fill="#E6E6E6" d="M227.4 23l-3.9 7.9-3.5.2z"/>
  <path fill="#E6E6E6" d="M201.7 47.7L227 22.8h.6L220 31l-17.6 16.5z"/>
  <g fill="#EEF5FF">
    <path d="M170.7 23l-6.6.6-.1-1.2 6.5-.6zM162.4 23.6l-6.5.6-.1-1.2 6.5-.6zM154.3 24.4l-6.6.6-.1-1.2 6.5-.6zM146 25.2l-6.5.6-.1-1.2 6.6-.6zM137.9 25.8l-6.6.6-.1-1.2 6.5-.6zM129.7 26.6l-6.6.6-.1-1.2 6.6-.6zM121.5 27.4l-6.6.5-.1-1.1 6.5-.6zM113.3 28l-6.6.6-.1-1.2 6.6-.6zM105 28.8l-6.5.6-.1-1.2 6.6-.6zM96.9 29.6l-6.6.5-.1-1.2 6.6-.5zM88.7 30.2l-6.6.6-.1-1.2 6.6-.6zM80.5 31l-6.6.6-.1-1.2 6.6-.6zM72.3 31.8l-6.6.5-.1-1.2 6.6-.5zM64 32.4l-6.5.6-.1-1.2 6.6-.6zM55.9 33.2l-6.6.6-.1-1.2 6.6-.6zM47.7 34l-6.6.5-.1-1.2 6.6-.5zM39.5 34.7l-6.6.6-.1-1.2 6.6-.6zM31.3 35.4l-6.6.6v-1.2l6.5-.6zM23 36.1l-6.5.6v-1.2L23 35zM14.9 37l-6.6.5v-1.2l6.5-.6zM6.7 37.6l-6.6.6V37l6.5-.6z"/>
  </g>
</svg>
