<svg xmlns="http://www.w3.org/2000/svg" width="40.9" height="59.5">
  <ellipse transform="rotate(1.1 23.6 57.4)" opacity=".2" cx="23.6" cy="57.6" rx="17.2" ry="1.9"/>
  <path fill="#00838F" d="M34.6 54.7l.7-1.7h-2.5l.7 1.7zM12.1 54.9l.7-1.8h-2.4L11 55z"/>
  <circle fill="#455A64" cx="11.6" cy="56" r="1.7"/>
  <circle fill="#78909C" cx="11.6" cy="56" r=".8"/>
  <path fill="#455A64" d="M35.7 55.9a1.7 1.7 0 1 1-3.3 0 1.7 1.7 0 0 1 3.3 0z"/>
  <circle fill="#78909C" cx="34" cy="55.9" r=".8"/>
  <path fill="#00ACC1" d="M6.5 50.5l.2.2.3.3.9.5a8 8 0 0 0 2 .5 16.8 16.8 0 0 0 3 .2H14a356.9 356.9 0 0 1 17.6 0h1a19.8 19.8 0 0 0 3.2-.3 8 8 0 0 0 2-.6c.3 0 .5-.3.8-.5l.3-.3.1-.1v-.1h.1a.5.5 0 1 1 1 .2v.1H40l-.1.3-.2.2-.4.5-1 .8c-.7.4-1.4.6-2.2.8a15.4 15.4 0 0 1-3.4.4h-1l-4.5.2a338.6 338.6 0 0 1-13.2 0h-1a20.6 20.6 0 0 1-3.5-.4c-.7-.1-1.5-.4-2.2-.8a5 5 0 0 1-1-.7 3.3 3.3 0 0 1-.7-1v-.2a.5.5 0 1 1 1-.2z"/>
  <path fill="#2C5163" d="M19.3 50.5l.1-.3-.4-.2c-.8-.3-1.7-.5-2.6-.5-.2 0-.5 0-.6.2l-.2.2-1 2.1c0 .3-.2.5 0 .7l.7.2 2.2.1c.4 0 .8 0 1-.2.6-.2.3-.6.4-1 0-.4.2-.8.4-1.3z"/>
  <path fill="#C1C1C1" d="M14.9 52.4h-.3v.4l.6.2h3.4c.3 0 .4-.4.2-.5-.2-.2-.8 0-1 0l-3-.1z"/>
  <path fill="#62747A" d="M23.7 37.2c.1-.4-1-1.3-1.1-1.7 0-.3-.3-.6-.5-.8a45.7 45.7 0 0 0-6.6-7c-1.1-.5-2.5-.2-3.3.8-.8 1-1 2.5-.5 3.7a6.2 6.2 0 0 0 2.5 2.5c.9.5 2.2 1.6 3.1 2.2.3.2.8.4 1 .7.2.4.5.4.5.8 0 2.1-4 9.4-4.3 11.5-.1 1 1.2.2 2 1 .6.7 3.8.8 4.1.1 1-1.8 1.4-6.2 2-8.1.5-2 .7-3.7 1.1-5.7z"/>
  <path fill="#FFC0AD" d="M23.5 8.4c0 .5-.2 1-.4 1.4-.5.9-1.3 1.3-2.1 1.6-.6.2-1.3.4-1.8 0-.4-.4-.6-1.1-.9-1.7l-.7-1.2c-.5-1-.4-2.3-.2-3.5.2-1.4.7-3 1.7-3.8a3 3 0 0 1 1.7-.6c.6 0 1.2 0 1.7.3.6.4 1 1.1 1.3 2 .7 2 .1 3.5-.3 5.5z"/>
  <path fill="#FFC0AD" d="M20.4 12c0-.5.2-.9.4-.8 1.5.6 2.3.3 2.4 0v-.6c.3-.2 0-.5 0-.5s.4-.2.3-.4v-.6s.7 0 .9-.3c0-.1-.4-.5-.5-1.6 0-.8.6-2 0-3a2 2 0 0 1-.8.2c-1-.1-2.1 0-2.4.9-.3 1.5-1.2 1.5-1.6 1.8 0 0-.3-.7-.9-.6-.6.2-.1 2-.1 2l-.6 1.2-.3 2 3 1.5.2-1.2z"/>
  <path fill="#9B7E07" d="M24.3 4.2c0 .7.2 1.5.7 2a2 2 0 0 1-.9-.6l-.2-.1c-.1 0-.2 0-.3.2l-.3.3a612.7 612.7 0 0 0-.7-1h-.2l-1.3 1v-.8a255.6 255.6 0 0 0-1.5 1.3l-.3-1A5 5 0 0 0 17.8 8l-.4-.7c.2.9.4 2.2.8 3-1.4-.6-1.6-3-1.7-3.3l.1 1c-.3-.3-.5-1-.4-1.4l.3-.7.9-1.3.8-.8c.4-.5.6-1.2 1-1.6l1-.7 1.3-.5c.4 0 .9.1 1.3.3.3.1.8.3 1 .6l.2.8.3 1.4z"/>
  <path fill="#9B7E07" d="M23.2 4.1c0 .7.2 1.5.7 2a2 2 0 0 1-.9-.6l-.2-.1c-.1 0-.2 0-.3.2l-.3.3-.5-.8-.2-.2-.2.1c-.4.3-.9.5-1.3.9V5c-.3 0-.4.2-.6.4l-1 1c0-.4 0-.8-.2-1-.7.6-.6 1.4-.8 2.5-.2-.2-.6-.4-.7-.7.2.9.2 2.3.6 3.1-1.4-.6-1.4-2.8-1.5-3.1 0 .3-.2 1.4 0 1.7-1-1-.3-3.4 1-4.4.3-.2 0-.5.3-.8.4-.5.6-1.2 1-1.6l1-.7 1.3-.5c.4 0 .9.1 1.3.3.3.1.8.3 1 .6l.2.8.3 1.4z"/>
  <path fill="#9B7E07" d="M24 4.2c.1.6.3 1.3.7 1.7l-.7-.5-.2-.1c-.1 0-.3 0-.3.2l-.2.3-.5-.7-.2-.2h-.1l-1.2.8v-.6c-.2 0-.3.1-.5.3l-.8.8-.2-.9c-.6.6-1 1.4-1.3 2.3-.1-.2-.3-.4-.3-.7.1.8.4 1.6.7 2.3-1.2-.5-1.4-2.2-1.5-2.5v.9c-.2-.3-.4-.8-.2-1.3l.2-.5.8-1.1.6-.8c.4-.4.5-1 .9-1.3.2-.3.5-.5.9-.6.3-.2.7-.4 1-.4.5 0 .8 0 1.2.2.3.1.7.2.8.5.2.2.2.5.2.7l.3 1.2z"/>
  <path fill="#0C62A8" d="M13.6 5.8c.4.3.8.2 1.2 0 .8-.2 4.6-1.5 9.2-1.2.2 0 .5.3.5 0 .1-.2 0-.6 0-.8-.2-.4-.8-2.5-1.2-3l-.8-.4c-1.4-.6-3-.4-4.4.1l-.8.5c-.8.8-.3 2.5-.3 3A7 7 0 0 0 13.7 5l-.2.3.1.4zm8.2-2.5c0-.2.2-.3.3-.3l.4-.1 1.3.1h.1v.1c.1.2.3.6.2.8 0 .2-.3 0-.5 0H22v-.2-.4z"/>
  <path fill="#12DB6D" d="M13.6 5.8c.4.3.8.2 1.2 0l2.4-.6A3 3 0 0 1 17 4 7 7 0 0 0 13.7 5l-.2.3.1.4z"/>
  <path fill="#2C5163" d="M25 51c-.6-.2-1.4-.6-2.1-.4h-.2v.3l-.2 1v.3l.3.3c.5.3 1.1.4 1.7.4l4.4.2 1-.1c1.6-.8-.5-1.7-1.2-1.9-1.2-.1-2.4.1-3.6-.2z"/>
  <path fill="#62747A" d="M27.3 33.6c.8 1 1.6 2.2 1.7 3.6l-.2 1.6c-.7 3.9.8 6.2.1 10.1-.2 1 1.7 2.1.8 2.4-.4.2-4.9.5-5.3.4-.5 0-2.9-.2-3-.7l.5-1.4c.4-4.1 1.8-6.2 2.1-10.3 0-.4-.3-1-.4-1.4-.2-.5-.9-1-1.1-1.3-1.2-1.4-2-2.6-3.5-3.7l-2-1.6c-.7-.7-.8-1.4-.8-2.4 0-1.2.7-2.4 1.7-2.9 2.2-1 1.3-.1 2.7 1.4 1.7 1.7 5.2 4.2 6.7 6.2z"/>
  <path fill="#C1C1C1" d="M22.8 52.5h-.4l.1.5.5.1h6.9c.2 0 .3-.2.3-.4h-2.8l-3-.2h-1.6z"/>
  <path fill="#FFC0AD" d="M36.1 18.4l.3-.2h.8c.3-.2.6 0 .7.3l-.1.8c0 .2-.2.4-.3.5l-.5.2-1.5.3a1 1 0 0 1-.4 0c-.2 0-.3-.1-.4-.3-.2-.4 0-.5.2-.8l1.2-.8z"/>
  <path fill="#3F5D89" d="M21.8 21.8c.3.3 1 .5 1.4.7.7.4 2 .8 2.6.7 2.8-.3 5.8-.2 8.6-.6.4 0 .6-.3.9-.5.3-.2-.1-1.9-.3-2.3-.2-.5-.7-.7-1.2-.7l-5 .2c-1.5 0-3 0-4.2-.8-1.5-1-1.5-3.1-3-4-1.8-1.3-3-.7-1.9 1.1 1 1.5 1 5 2.1 6.2z"/>
  <path fill="#273F5B" d="M21.3 27.7c.7-1.2-.1-1-.4-1.2.4-.8.2-1.8 0-2.6-.4-2.6-.4-5.2.2-7.7.3-1.4.6-1.7-.4-2.8-.8-.9-1.7-1.7-2.7-2.4-.5-.4-1.1-.8-1.8-.8-1 0-1.8 1.3-2.3 2.3a31.7 31.7 0 0 0-2.8 7.4l-.3 3.3-.3 1.2c-.3 2.4.2 3.5 0 6 0 .4-1 2.1-.7 2.5.2.2 1.6-.2 1.8-.2 4.5-1 5.8-3 6.6-3.4 1.2-.7 5.5 1.3 5.6.5 0-.8-2.5-2-2.5-2z"/>
  <path fill="#12DB6D" d="M10.6 29.3c2 0 3.7-1.3 5.3-2.1 1.5-.8 3.3-1 5-.9.2 0 .2.3 0 .3l-3 .3a9 9 0 0 0-2.7 1.1c-1.3.8-3 1.7-4.6 1.7-.3 0-.3-.4 0-.4z"/>
  <path fill="#FFC0AD" d="M2.2 22.3v.3l-.4.2c0 .1 0 .3-.2.5-.1.2-.5.3-.7.2-.3-.1-.5-.4-.6-.7a1 1 0 0 1 0-.5l.1-.5.8-1.3c0-.1 0-.2.2-.3H2c.4 0 .4.3.4.7l-.2 1.4z"/>
  <g>
    <path fill="#3F5D89" d="M9.7 10.5c-.4 0-.8 0-1.2.2a6 6 0 0 0-2.3 1.5c-1.7 2.3-4.5 4.7-6.2 7-.2.2 1 .8 1 1.2-.1.4.4.2.8.4.5.2 2.3 1.8 2.7 1.4 1-1.2.6-2 1.7-3.3 1-1 2-2.3 3.4-2.4 2 0 3-1.9 4.7-2.3 2-.4 4.4-3.5 2.4-4-1.7-.3-5.3.3-7 .3z"/>
  </g>
  <ellipse transform="rotate(9.8 23 7)" fill="#302927" cx="23" cy="7" rx=".2" ry=".4"/>
  <g>
    <path fill="#9B7E07" d="M22.7 6c.2-.1.8 0 1 .2v.1l-.6-.1h-.4V6z"/>
  </g>
  <path fill="#211312" d="M22.7 10.2c-.4 0-.7-.4-.6-.4a4 4 0 0 0 1.4.2l-.3.2h-.5z"/>
  <path opacity=".5" fill="#472107" d="M23.5 9.2l-.6-.1a4.7 4.7 0 0 0 .6 0zM23.2 10.6s-.5.1-.8 0c0 0 .4.3.8.1v-.1z"/>
  <path fill="#12DB6D" d="M21.5 27.6a6 6 0 0 0-5 .6c-1 .5-1.7 1.3-2.6 1.7-1 .6-2.3.8-3.5.7-.2 0-.2.4 0 .4 2 0 3.6-.5 5-1.7.9-.7 1.7-1.2 2.8-1.5 1-.3 2.1-.2 3.2 0 .1 0 .2-.2 0-.2z"/>
  <path opacity=".7" fill="#626E72" d="M23.6 37.9s-3-3.6-4.6-4.4c0 0 4.2 4.8 4.3 5.7l.3-1.3z"/>
</svg>
