<svg xmlns="http://www.w3.org/2000/svg" xmlns:xlink="http://www.w3.org/1999/xlink" width="346" height="137" viewBox="0.45 0.8 346 137">
  <path fill="#FFF" d="M187.35 79.7h53.8v2.5h-53.8v-2.5z"/>
  <path fill="#FFF" d="M238.65 79.7h2.5V105h-2.5V79.7z"/>
  <path fill="#FFF" d="M187.35 102.6h53.8v2.5h-53.8v-2.5z"/>
  <path fill="#AF7F5F" d="M.55 69.9h22.8v29.3H.55V69.9zm0-64.8h22.8v28.1H.55V5.1z"/>
  <path fill="#2B526E" d="M7.15 36.9h304.9v29.5H7.15V36.9z"/>
  <path fill="#506470" d="M146.75 36.9h12.1v29.5h-12.1V36.9z"/>
  <path fill="#62B3CC" d="M160.55 36.9h12.1v29.5h-12.1V36.9z"/>
  <path fill="#224556" d="M174.35 36.9h12.1v29.5h-12.1V36.9z"/>
  <path fill="#62B3CC" d="M188.15 36.9h12.1v29.5h-12.1V36.9zm13.8 0h12.1v29.5h-12.1V36.9zm13.7 0h12.1v29.5h-12.1V36.9z"/>
  <path fill="#224556" d="M229.45 36.9h12.1v29.5h-12.1V36.9zm13.8 0h12.1v29.5h-12.1V36.9z"/>
  <path fill="#62B3CC" d="M257.05 36.9h12.1v29.5h-12.1V36.9zm13.8 0h12.1v29.5h-12.1V36.9zm13.8 0h12.1v29.5h-12.1V36.9z"/>
  <path fill="#506470" d="M298.45 36.9h12.1v29.5h-12.1V36.9z"/>
  <path opacity=".4" fill="#FFF" d="M160.55 43.6v3.1l9.9-9.8h-3.2l-6.7 6.7zm0 5.3l12.1-12h-1.1l-11 10.9v1.1zm0 6.7v.5l12.1-12v-1.8l-12 12-.1 1.3zM188.15 43.6v3.1l9.8-9.8h-3.2l-6.6 6.7zm0 5.3l12-12h-1l-11 10.9v1.1zm0 6.7v.5l12-12v-1.8l-12 12v1.3zM215.65 43.6v3.1l9.9-9.8h-3.2l-6.7 6.7zm0 5.3l12.2-12h-1.2l-11 10.9v1.1zm0 6.7v.5l12.1-12v-1.8l-12 12-.1 1.3z"/>
  <path fill="#224556" d="M64.45 36.9h12.1v29.5h-12.1V36.9z"/>
  <path fill="#62B3CC" d="M78.25 36.9h12.1v29.5h-12.1V36.9z"/>
  <path fill="#224556" d="M92.05 36.9h12.1v29.5h-12.1V36.9z"/>
  <path fill="#62B3CC" d="M105.85 36.9h12.1v29.5h-12.1V36.9zm13.7 0h12.1v29.5h-12.1V36.9z"/>
  <path fill="#224556" d="M133.35 36.9h12.1v29.5h-12.1V36.9z"/>
  <path opacity=".4" fill="#FFF" d="M78.25 43.6v3.1l9.9-9.8h-3.2l-6.7 6.7zm0 5.3l12.1-12h-1.1l-11 10.9v1.1zm0 6.7v.5l12.1-12v-1.8l-12.1 12v1.3zM105.85 43.6v3.1l9.8-9.8h-3.2l-6.6 6.7zm0 5.3l12-12h-1l-11 10.9v1.1zm0 6.7v.5l12-12v-1.8l-12 12v1.3zM133.45 43.6v3.1l9.8-9.8h-3.2l-6.6 6.7zm0 5.3l12-12h-1l-11 10.9v1.1zm0 6.7v.5l12-12v-1.8l-12 12v1.3z"/>
  <path fill="#224556" d="M9.35 36.9h12.1v29.5H9.35V36.9z"/>
  <path fill="#62B3CC" d="M23.15 36.9h12.1v29.5h-12.1V36.9zm13.8 0h12.1v29.5h-12.1V36.9z"/>
  <path fill="#506470" d="M50.65 36.9h12.1v29.5h-12.1V36.9z"/>
  <path opacity=".4" fill="#FFF" d="M23.15 43.6v3.1l9.8-9.8h-3.2l-6.6 6.7zm0 5.3l12-12h-1l-11 10.9v1.1zm0 6.7v.5l12-12v-1.8l-12 12v1.3zM50.65 43.6v3.1l9.9-9.8h-3.2l-6.7 6.7zm0 5.3l12.2-12h-1.2l-11 10.9v1.1zm0 6.7v.5l12.1-12v-1.8l-12 12-.1 1.3zM243.25 43.5v3.2l9.9-9.8h-3.2l-6.7 6.6zm0 5.4l12.2-12h-1.1l-11 10.8-.1 1.2zm0 6.7v.5l12.1-12v-1.8l-12 12-.1 1.3zM270.85 43.6v3.1l9.9-9.8h-3.3l-6.6 6.7zm0 5.3l12.1-12h-1.1l-11 10.9v1.1zm0 6.7v.5l12.1-12v-1.8l-12.1 12v1.3zM298.45 43.6v3.1l9.8-9.8h-3.2l-6.6 6.7zm0 5.3l12-12h-1l-11 10.9v1.1zm0 6.7v.5l12-12v-1.8l-12 12v1.3z"/>
  <path fill="#224556" d="M312.05 36.9h5.1v29.5h-5.1V36.9z"/>
  <path fill="#2B526E" d="M7.15 4h153.6v29.5H7.15V4zm178.7 0h139.4v29.5h-139.4V4z"/>
  <path fill="#224556" d="M146.75 4h12.1v29.5h-12.1V4z"/>
  <path fill="#62B3CC" d="M188.15 4h12.1v29.5h-12.1V4z"/>
  <path fill="#224556" d="M201.95 4h12.1v29.5h-12.1V4z"/>
  <path fill="#62B3CC" d="M215.65 4h12.1v29.5h-12.1V4zm13.8 0h12.1v29.5h-12.1V4zm13.8 0h12.1v29.5h-12.1V4z"/>
  <path fill="#506470" d="M257.05 4h12.1v29.5h-12.1V4z"/>
  <path fill="#62B3CC" d="M270.85 4h12.1v29.5h-12.1V4z"/>
  <path fill="#224556" d="M284.65 4h12.1v29.5h-12.1V4zm13.8 0h12.1v29.5h-12.1V4z"/>
  <path opacity=".4" fill="#FFF" d="M188.15 10.7v3.2l9.8-9.8h-3.2l-6.6 6.6zm0 5.4l12-12h-1l-11 10.8v1.2zm0 6.7v.5l12-12V9.5l-12 12v1.3zM215.65 10.7v3.2l9.9-9.8h-3.2l-6.7 6.6zm0 5.4l12.2-12h-1.2l-11 10.8v1.2zm0 6.7v.5l12.1-12V9.5l-12 12-.1 1.3z"/>
  <path fill="#62B3CC" d="M64.45 4h12.1v29.5h-12.1V4zm13.8 0h12.1v29.5h-12.1V4zm13.8 0h12.1v29.5h-12.1V4z"/>
  <path fill="#224556" d="M105.85 4h12.1v29.5h-12.1V4z"/>
  <path fill="#62B3CC" d="M119.55 4h12.1v29.5h-12.1V4zm13.8 0h12.1v29.5h-12.1V4z"/>
  <path opacity=".4" fill="#FFF" d="M78.25 10.7v3.2l9.9-9.8h-3.2l-6.7 6.6zm0 5.4l12.1-12h-1.1l-11 10.8v1.2zm0 6.7v.5l12.1-12V9.5l-12.1 12v1.3zM105.85 10.7v3.2l9.8-9.8h-3.2l-6.6 6.6zm0 5.4l12-12h-1l-11 10.8v1.2zm0 6.7v.5l12-12V9.5l-12 12v1.3zM133.45 10.7v3.2l9.8-9.8h-3.2l-6.6 6.6zm0 5.4l12-12h-1l-11 10.8v1.2zm0 6.7v.5l12-12V9.5l-12 12v1.3z"/>
  <path fill="#506470" d="M9.35 4h12.1v29.5H9.35V4z"/>
  <path fill="#62B3CC" d="M23.15 4h12.1v29.5h-12.1V4z"/>
  <path fill="#224556" d="M36.95 4h12.1v29.5h-12.1V4z"/>
  <path fill="#506470" d="M50.65 4h12.1v29.5h-12.1V4z"/>
  <path opacity=".4" fill="#FFF" d="M23.15 10.7v3.2l9.8-9.8h-3.2l-6.6 6.6zm0 5.4l12-12h-1l-11.1 10.8.1 1.2zm0 6.7v.5l12-12V9.5l-12 12v1.3zM50.65 10.7v3.2l9.9-9.8h-3.2l-6.7 6.6zm0 5.4l12.2-12h-1.2l-11 10.8v1.2zm0 6.7v.5l12.1-12V9.5l-12 12-.1 1.3zM243.25 10.7v3.2l9.9-9.9h-3.2l-6.7 6.7zm0 5.4l12.1-12h-1.1l-11 10.8v1.2zm0 6.7v.5l12.1-12V9.4l-12 12-.1 1.4zM270.85 10.7v3.2l9.9-9.8h-3.3l-6.6 6.6zm0 5.4l12.1-12h-1.1l-11 10.8v1.2zm0 6.7v.5l12.1-12V9.5l-12.1 12v1.3zM298.45 10.7v3.2l9.8-9.8h-3.2l-6.6 6.6zm0 5.4l12-12h-1l-11 10.8v1.2zm0 6.7v.5l12-12V9.5l-12 12v1.3z"/>
  <path fill="#62B3CC" d="M312.05 4h12.1v29.5h-12.1V4z"/>
  <g>
    <path fill="#2B526E" d="M7.15 102.8h311.3v29.5H7.15v-29.5z"/>
    <path fill="#62B3CC" d="M146.75 102.8h12.1v29.5h-12.1v-29.5zm13.8 0h12.1v29.5h-12.1v-29.5z"/>
    <path fill="#506470" d="M174.35 102.8h12.1v29.5h-12.1v-29.5zm13.8 0h12.1v29.5h-12.1v-29.5z"/>
    <path fill="#62B3CC" d="M201.95 102.8h12.1v29.5h-12.1v-29.5zm13.7 0h12.1v29.5h-12.1v-29.5zm13.8 0h12.1v29.5h-12.1v-29.5z"/>
    <path fill="#224556" d="M243.25 102.8h12.1v29.5h-12.1v-29.5zm13.8 0h12.1v29.5h-12.1v-29.5z"/>
    <path fill="#62B3CC" d="M270.85 102.8h12.1v29.5h-12.1v-29.5zm13.8 0h12.1v29.5h-12.1v-29.5zm13.8 0h12.1v29.5h-12.1v-29.5z"/>
    <path opacity=".4" fill="#FFF" d="M160.55 109.4v3.2l9.9-9.8h-3.2l-6.7 6.6zm0 5.5l12.1-12v-.1h-1.1l-11 10.8v1.3zm0 6.6v.5l12.1-12v-1.8l-12 12-.1 1.3zM188.15 109.4v3.2l9.8-9.8h-3.2l-6.6 6.6zm0 5.5l12-12v-.1h-1l-11 10.8v1.3zm0 6.6v.5l12-12v-1.8l-12 12v1.3zM215.65 109.4v3.2l9.9-9.8h-3.2l-6.7 6.6zm0 5.5l12.2-12v-.1h-1.2l-11 10.8v1.3zm0 6.6v.5l12.1-12v-1.8l-12 12-.1 1.3z"/>
    <path fill="#62B3CC" d="M64.45 102.8h12.1v29.5h-12.1v-29.5zm13.8 0h12.1v29.5h-12.1v-29.5z"/>
    <path fill="#303030" d="M90.35 102.8h1.7v29.5h-1.7v-29.5z"/>
    <path fill="#3D3D3D" d="M92.05 102.8h39.7v29.5h-39.7v-29.5z"/>
    <path fill="#303030" d="M104.15 102.8h1.7v29.5h-1.7v-29.5zm13.8 0h1.7v29.5h-1.7v-29.5zm13.8 0h1.6v29.5h-1.6v-29.5z"/>
    <path fill="#62B3CC" d="M133.35 102.8h12.1v29.5h-12.1v-29.5z"/>
    <path opacity=".4" fill="#FFF" d="M78.25 109.4v3.2l9.9-9.8h-3.2l-6.7 6.6zm0 5.5l12.1-12v-.1h-1.1l-11 10.8v1.3zm0 6.6v.5l12.1-12v-1.8l-12.1 12v1.3zM133.45 109.4v3.2l9.8-9.8h-3.2l-6.6 6.6zm0 5.5l12-12v-.1h-1l-11 10.8v1.3zm0 6.6v.5l12-12v-1.8l-12 12v1.3z"/>
    <path fill="#62B3CC" d="M9.35 102.8h12.1v29.5H9.35v-29.5z"/>
    <path fill="#224556" d="M23.15 102.8h12.1v29.5h-12.1v-29.5z"/>
    <path fill="#62B3CC" d="M36.95 102.8h12.1v29.5h-12.1v-29.5zm13.7 0h12.1v29.5h-12.1v-29.5z"/>
    <path opacity=".4" fill="#FFF" d="M23.15 109.4v3.2l9.8-9.8h-3.2l-6.6 6.6zm0 5.5l12-12v-.1h-1l-11 10.8v1.3zm0 6.6v.5l12-12v-1.8l-12 12v1.3zM50.65 109.4v3.2l9.9-9.8h-3.2l-6.7 6.6zm0 5.5l12.2-12v-.1h-1.2l-11 10.8v1.3zm0 6.6v.5l12.1-12v-1.8l-12 12-.1 1.3zM243.25 109.4v3.2l9.9-9.8h-3.2l-6.7 6.6zm0 5.5l12.1-12v-.1h-1.1l-11 10.8v1.3zm0 6.6v.5l12.1-12v-1.8l-12 12-.1 1.3zM270.85 109.4v3.2l9.9-9.8h-3.3l-6.6 6.6zm0 5.5l12.1-12v-.1h-1.1l-11 10.8v1.3zm0 6.6v.5l12.1-12v-1.8l-12.1 12v1.3zM298.45 109.4v3.2l9.8-9.8h-3.2l-6.6 6.6zm0 5.5l12-12v-.1h-1l-11 10.8v1.3zm0 6.6v.5l12-12v-1.8l-12 12v1.3z"/>
    <path fill="#62B3CC" d="M312.05 102.8h5.1v29.5h-5.1v-29.5z"/>
    <defs>
      <path id="a" d="M312.05 132.3h5v-29.5h-5"/>
    </defs>
    <clipPath id="b">
      <use xlink:href="#a" overflow="visible"/>
    </clipPath>
    <g clip-path="url(#b)">
      <path opacity=".4" fill="#FFF" d="M312.05 109.4v3.2l9.8-9.8h-3.2l-6.6 6.6zm0 5.5l12-12v-.1h-1l-11 10.8v1.3zm0 6.6v.5l12-12v-1.8l-12 12v1.3z"/>
    </g>
  </g>
  <g>
    <path fill="#2B526E" d="M23.05 69.9h309v29.5h-309V69.9z"/>
    <path fill="#62B3CC" d="M146.75 69.9h12.1v29.5h-12.1V69.9zm13.8 0h12.1v29.5h-12.1V69.9zm13.8 0h12.1v29.5h-12.1V69.9z"/>
    <path fill="#506470" d="M188.15 69.9h12.1v29.5h-12.1V69.9z"/>
    <path fill="#224556" d="M201.95 69.9h12.1v29.5h-12.1V69.9zm13.7 0h12.1v29.5h-12.1V69.9z"/>
    <path fill="#62B3CC" d="M229.45 69.9h12.1v29.5h-12.1V69.9zm13.8 0h12.1v29.5h-12.1V69.9zm13.8 0h12.1v29.5h-12.1V69.9z"/>
    <path fill="#506470" d="M270.85 69.9h12.1v29.5h-12.1V69.9z"/>
    <path fill="#224556" d="M284.65 69.9h12.1v29.5h-12.1V69.9z"/>
    <path fill="#62B3CC" d="M298.45 69.9h12.1v29.5h-12.1V69.9z"/>
    <path opacity=".4" fill="#FFF" d="M160.55 76.6v3.2l9.9-9.9h-3.2l-6.7 6.7zm0 5.4l12.1-12h-1.1l-11 10.8V82zm0 6.7v.5l12.1-12v-1.8l-12 12-.1 1.3zM188.15 76.6v3.2l9.8-9.9h-3.2l-6.6 6.7zm0 5.4l12-12h-1l-11 10.8V82zm0 6.7v.5l12-12v-1.8l-12 12v1.3zM215.65 76.6v3.2l9.9-9.9h-3.2l-6.7 6.7zm0 5.4l12.2-12h-1.2l-11 10.8V82zm0 6.7v.5l12.1-12v-1.8l-12 12-.1 1.3z"/>
    <path fill="#62B3CC" d="M64.45 69.9h12.1v29.5h-12.1V69.9zm13.8 0h12.1v29.5h-12.1V69.9z"/>
    <path fill="#506470" d="M92.05 69.9h12.1v29.5h-12.1V69.9z"/>
    <path fill="#224556" d="M105.85 69.9h12.1v29.5h-12.1V69.9z"/>
    <path fill="#62B3CC" d="M119.55 69.9h12.1v29.5h-12.1V69.9zm13.8 0h12.1v29.5h-12.1V69.9z"/>
    <path opacity=".4" fill="#FFF" d="M78.25 76.6v3.2l9.9-9.9h-3.2l-6.7 6.7zm0 5.4l12.1-12h-1.1l-11 10.8V82zm0 6.7v.5l12.1-12v-1.8l-12.1 12v1.3zM105.85 76.6v3.2l9.8-9.9h-3.2l-6.6 6.7zm0 5.4l12-12h-1l-11 10.8V82zm0 6.7v.5l12-12v-1.8l-12 12v1.3zM133.45 76.6v3.2l9.8-9.9h-3.2l-6.6 6.7zm0 5.4l12-12h-1l-11 10.8V82zm0 6.7v.5l12-12v-1.8l-12 12v1.3z"/>
    <path fill="#224556" d="M23.15 69.9h12.1v29.5h-12.1V69.9z"/>
    <path fill="#62B3CC" d="M36.95 69.9h12.1v29.5h-12.1V69.9zm13.7 0h12.1v29.5h-12.1V69.9z"/>
    <path opacity=".4" fill="#FFF" d="M23.15 76.6v3.2l9.8-9.9h-3.2l-6.6 6.7zm0 5.4l12-12h-1l-11 10.8V82zm0 6.7v.5l12-12v-1.8l-12 12v1.3zM50.65 76.6v3.2l9.9-9.9h-3.2l-6.7 6.7zm0 5.4l12.2-12h-1.2l-11 10.8V82zm0 6.7v.5l12.1-12v-1.8l-12 12-.1 1.3zM243.25 76.6v3.1l9.9-9.8h-3.2l-6.7 6.7zm0 5.4l12.1-12h-1.1l-11 10.8V82zm0 6.7v.5l12.1-12v-1.9l-12 12-.1 1.4zM270.85 76.6v3.2l9.9-9.9h-3.3l-6.6 6.7zm0 5.4l12.1-12h-1.1l-11 10.8V82zm0 6.7v.5l12.1-12v-1.8l-12.1 12v1.3zM298.45 76.6v3.2l9.8-9.9h-3.2l-6.6 6.7zm0 5.4l12-12h-1l-11 10.8V82zm0 6.7v.5l12-12v-1.8l-12 12v1.3z"/>
    <path fill="#62B3CC" d="M312.05 69.9h12.2v29.5h-12.2V69.9zm13.8 0h6.2v29.5h-6.2V69.9z"/>
  </g>
  <path fill="none" stroke="#303030" stroke-width="3.8" stroke-miterlimit="10" d="M332.15 35.1H4.55"/>
  <path fill="#E8A370" d="M.45.85h160.3v4.3H.45zM185.75.8h145.7v4.05h-145.7z"/>
  <path fill="#303030" d="M4.65 132.1h341.8v5.7H4.65v-5.7z"/>
  <g fill="#E8A370">
    <path d="M170.55 36.9h61.5v2.8h-61.5v-2.8z"/>
    <path d="M229.25 36.9h2.8v29.3h-2.8V36.9zm-59 0h2.8v29.3h-2.8V36.9z"/>
    <path d="M170.55 63.4h61.5v2.8h-61.5v-2.8z"/>
  </g>
  <g>
    <path fill="#AF7F5F" d="M.65 36.9h6.6v29.3H.65V36.9z"/>
    <path fill="#E8A370" d="M.65 36.9h34.6v2.8H.65v-2.8z"/>
    <path fill="#E8A370" d="M32.45 36.9h2.8v29.3h-2.8V36.9z"/>
    <path fill="#E8A370" d="M.65 63.4h34.6v2.8H.65v-2.8z"/>
  </g>
  <g fill="#E8A370">
    <path d="M257.25 36.9h61.5v2.8h-61.5v-2.8z"/>
    <path d="M315.95 36.9h2.8v29.3h-2.8V36.9zm-59 0h2.8v29.3h-2.8V36.9z"/>
    <path d="M257.25 63.4h61.5v2.8h-61.5v-2.8z"/>
  </g>
  <g>
    <path fill="#AF7F5F" d="M332.05 70h12.1v29.3h-12.1V70z"/>
    <path fill="#E8A370" d="M284.85 70h61.5v2.8h-61.5V70z"/>
    <path fill="#E8A370" d="M343.67 70h2.8v29.3h-2.8V70zm-59.22 0h2.8v29.3h-2.8V70z"/>
    <path fill="#E8A370" d="M284.85 96.5h61.5v2.8h-61.5v-2.8z"/>
  </g>
  <g fill="#E8A370">
    <path d="M129.15 70h61.5v2.8h-61.5V70z"/>
    <path d="M187.85 70h2.8v29.3h-2.8V70zm-59 0h2.8v29.3h-2.8V70z"/>
    <path d="M129.15 96.5h61.5v2.8h-61.5v-2.8z"/>
  </g>
  <g fill="#E8A370">
    <path d="M142.95 102.8h61.5v2.8h-61.5v-2.8z"/>
    <path d="M201.65 102.8h2.8v29.3h-2.8v-29.3zm-59 0h2.8v29.3h-2.8v-29.3z"/>
    <path d="M142.95 129.3h61.5v2.8h-61.5v-2.8z"/>
  </g>
  <g fill="#E8A370">
    <path d="M225.45 102.8h61.5v2.8h-61.5v-2.8z"/>
    <path d="M284.15 102.8h2.8v29.3h-2.8v-29.3zm-59 0h2.8v29.3h-2.8v-29.3z"/>
    <path d="M225.45 129.3h61.5v2.8h-61.5v-2.8z"/>
  </g>
  <path fill="none" stroke="#303030" stroke-width="3.8" stroke-miterlimit="10" d="M332.15 68.1H3.55"/>
  <path opacity=".3" fill="#C6C6C6" d="M.65 52.7h31.6v10.8H.65V52.7zm-.1-30.2h331.5v10.8H.55V22.5zm.1 65.9h128.1v10.8H.65V88.4zm34.7-32.9h135v10.8h-135V55.5zm155.3 32.9h93.8v10.8h-93.8V88.4zm-137.1 33h89.1v10.8h-89.1v-10.8zm178.6-66h24.8v10.8h-24.8V55.4zm86.7 0h13.3v10.8h-13.3V55.4zm-31.9 66h44.4v10.8h-44.4v-10.8z"/>
  <g>
    <path fill="#AF7F5F" d="M.65 102.8h6.6v29.3H.65v-29.3z"/>
    <path fill="#E8A370" d="M.65 102.8h50.1v2.8H.65v-2.8z"/>
    <path fill="#E8A370" d="M50.65 102.8h2.8v29.3h-2.8v-29.3z"/>
    <path fill="#E8A370" d="M.65 129.3h50.1v2.8H.65v-2.8z"/>
  </g>
  <path opacity=".3" fill="#C6C6C6" d="M.65 118.6h50v10.8h-50v-10.8zm172.5-65.9h56.1v10.8h-56.1V52.7zm-41.4 32.9h56.1v10.8h-56.1V85.6zm13.7 33h56.1v10.8h-56.1v-10.8zm82.5 0h56.1v10.8h-56.1v-10.8zm59.4-32.9h56.1v10.8h-56.1V85.7zm-27.6-33h56.1v10.8h-56.1V52.7z"/>
  <path fill="none" stroke="#303030" stroke-width="3.8" stroke-miterlimit="10" d="M332.15 101.1H3.75"/>
</svg>
