<svg xmlns="http://www.w3.org/2000/svg" width="1920" height="349">
  <g fill="#B9D9E8">
    <path d="M763 349V155h-49V32h-34v123h-16v130h-15V154h-57V97l-99-26.6V118h-82v111h-28.8v-74H333V32h-32v123h-16v130h-17V154h-56V97l-58-15.6V118h-39v105h-14V51H71v47H8v125H0v126h382.4zM1920 75.5l-19-5V118h-81v.4h-10V223h-14V98h-70v125h-14V51h-86v120h-26v52h-1v64h-43V160h-8v-4.2h-27V285h-15V154h-57V97l-98-26.6V118h-83v111h-39V33h-16V0h-70.7l.7.5V33h-20v254h-27V118h-97v105h-15V51h-86v120h-25v52h-2v64h-44V160h-64v189h1157z"/>
  </g>
</svg>
