<svg xmlns="http://www.w3.org/2000/svg" xmlns:xlink="http://www.w3.org/1999/xlink" width="183.3" height="72.9">
  <ellipse opacity=".3" fill="#404041" cx="90.8" cy="68.4" rx="87.3" ry="4.6"/>
  <path fill="#1E1D22" d="M52.3 61.1l-28.6-4.6-2.5.1-.1-10.2 8.2-7.1 12-2.3 8 2.8 4.4 7.3.8 8.4-2.2 5.6M166.5 61.3l-1-1.6-1.5.9-31 .5.4-10.1 2.4-6.5s3.5-4.7 4.2-4.7l11.4-1.2 7.4 1.8 5.4 2.8 2.8 5.5.6 6.5-1 6"/>
  <path fill="#14100F" d="M136.5 56.9a13.4 13.4 0 1 0 26.8 0 13.4 13.4 0 0 0-26.8 0"/>
  <path fill="#91A9BC" d="M166.5 61.3l15.1-2.3s1.1-1.1.5-3l.8-5.4.4-.7s.4-5-1.1-7.5c0 0-2.5-4.8-4-6.4-1.4-1.7-2.8-3.4-11-6.1s-17.6-3.5-17.6-3.5-6.3 0-7.6-.2c-1.2-.3-23.4-14.8-31-18.5.7-.4 1.7-.6 1.7-.6s-14-4.6-66.8-4.6c-16 .2-24-.3-27.5 2L16.6 7s-7 6.7-11.9 18c0 0-2.9 5.6-1.5 16.8 0 0 .2 2.7-.7 4-1 1.5-2.4 2.5-2.5 3.6 0 1.1.6 2.4.4 4.2 0 1.8-.4 3 1.4 3.4 1.9.4 20 2.7 20 2.7s-.3-5.9 1.6-10.5a14 14 0 0 1 13.4-8.6c7.2 0 11.4 4.1 13.5 9.1a22 22 0 0 1 1.2 11.8l82 .5s-.6-9.2 3.6-15.3c3.7-5.2 11.6-9 21.6-4 9 4.6 7.8 18.7 7.8 18.7"/>
  <path fill="#14100F" d="M23.5 56.9a13.4 13.4 0 1 0 26.8 0 13.4 13.4 0 0 0-26.8 0"/>
  <path fill="#EEEDF3" d="M27 56.9a9.8 9.8 0 1 0 19.7 0 9.8 9.8 0 0 0-19.6 0"/>
  <path fill="#1E1D22" d="M28 56.9a8.9 8.9 0 1 0 17.8 0 8.9 8.9 0 0 0-17.8 0"/>
  <path fill="#EEEDF3" d="M140.1 56.9a9.8 9.8 0 1 0 19.6 0 9.8 9.8 0 0 0-19.6 0"/>
  <path fill="#1E1D22" d="M141 56.9a8.9 8.9 0 1 0 17.8 0 8.9 8.9 0 0 0-17.8 0"/>
  <path fill="#A9A290" d="M31 56.9a6 6 0 1 0 11.8 0 6 6 0 0 0-11.9 0M143.8 56.9a6 6 0 1 0 12 0 6 6 0 0 0-12 0"/>
  <path fill="#2D4866" d="M147 26.4s-19.9-12-34.3-19.3c0 0-1.2.3-1.6.6L142 27.1l5-.7z"/>
  <path fill="#173649" stroke="#000" stroke-width=".8" d="M146.3 26.5s-19.4-11.6-33.8-19c0 0-.8 0-1.2.3L142 27.1l4.3-.6z"/>
  <path fill="#1F2C44" d="M133.6 28.2s2.3-.2 2.5-1.2c.3-.9-1.6-2.1-3.9-3.8a123 123 0 0 0-22-13.5c-6.8-2.4-19-3.5-23.9-3.6-4.9 0-38-1-47.3-.9-9.2 0-13.3.9-14.5 1.6-1.2.8-7.3 6.7-9.9 11.3-2.5 4.6-2.3 4.5-2.2 5.3.2.9 2 2 2.4 2L127 29c1.2 0 6.6-.8 6.6-.8"/>
  <path fill="#173649" stroke="#000" stroke-width=".8" d="M124.6 19.4s-5.8-3.6-12.8-7.5c-7-3.9-22.3-4.5-22.3-4.5l1.4 19.4 34.4 1.2-.7-8.6zM83 6.7l.2 19.7-34.4-.7s-.2-5.8.3-11c.5-5.4 1.4-8.8 1.4-8.8l32.5.8zM40 21.8s-19.7-.2-20.2-.4c-.5-.3-1.4-1.4-.9-3 .5-1.5 5-9.3 10.6-11C38.3 7 41.2 7 41.7 7c.5.1 1.5.5 1.3 2.3-.3 1.9-1.7 10.7-1.9 11.2-.2.6-.5 1.2-1.1 1.2"/>
  <path fill="#1E1D22" d="M170.6 51.9s2 4.6 5 4.9c2.9.2 4.1.2 4.3-.3v-2.8c0-.7-.2-1.1-1-1.3-.9-.2-8.3-.5-8.3-.5"/>
  <path fill="#EEEDF3" d="M27.9 56l.2-1.7 4.5 1.3v-.3l-4.2-1.8.6-1.4 5.1 2.5c.4-.5 1-.9 1.6-1l-.8-5.5 1.6-.3.2 4.6h.4l.3-4.6c.5 0 1 0 1.6.2l-.8 5.6c.6.2 1.1.6 1.5 1l5-2.3.7 1.5-4.4 1.6.1.4 4.5-1.2.2 1.6-5.4 1c0 .6-.2 1.2-.6 1.7l3.7 4.2-1.2 1-2.9-3.7-.3.2 2.4 4c-.9.5-1.5.6-1.5.6l-2.3-4.8h-1.8l-2.4 4.8-1.5-.7 2.4-4-.3-.2-2.8 3.8a9 9 0 0 1-1.2-1l3.7-4.3c-.3-.5-.5-1.1-.5-1.8l-5.4-1z"/>
  <path fill="#6F7F8F" d="M35.8 56.7a1 1 0 1 0 2 0 1 1 0 0 0-2 0"/>
  <path fill="#EEEDF3" d="M141 56s-.1-.7.2-1.7l4.4 1.3.1-.3-4.3-1.8.7-1.4 5 2.5c.5-.5 1-.9 1.6-1L148 48l1.6-.3.2 4.6h.4l.2-4.6c.5 0 1 0 1.6.2l-.7 5.6c.6.2 1 .6 1.4 1l5-2.3c.3.5.6 1 .7 1.5l-4.4 1.6.2.4 4.4-1.2c.3 1 .2 1.6.2 1.6l-5.3 1c0 .6-.3 1.2-.6 1.7l3.6 4.2-1.2 1-2.8-3.7-.3.2 2.4 4c-.9.5-1.5.6-1.5.6l-2.4-4.8H149l-2.3 4.8-1.5-.7 2.4-4-.3-.2-2.9 3.8-1.2-1 3.8-4.3c-.3-.5-.5-1.1-.6-1.8l-5.4-1z"/>
  <path fill="#6F7F8F" d="M148.8 56.7a1 1 0 1 0 2.1 0 1 1 0 0 0-2 0"/>
  <path fill="#0E1828" d="M127.8 27s.6 0 .7-.2c0-.3 0-1.8-.2-2-.1-.1-.5-.3-.5-.5-.1-.3-.6-1.9-1.5-2.1-.8-.3-2.6-.3-3-.1-.2.2-.2 4.3.3 4.8s4.2.1 4.2.1"/>
  <defs>
    <path id="a" d="M43.6 2.3h88v55.5h-88z"/>
  </defs>
  <clipPath id="b">
    <use xlink:href="#a" overflow="visible"/>
  </clipPath>
  <path clip-path="url(#b)" fill="#6F7F8F" d="M130 57.8v-.1c2.2-9 1.5-22.8 1.5-23l-1.1-6.1-2.1-8.4c0-.1-.1-.2-.2-.1-.1 0-.2 0-.1.2l2 8.3 1.1 6.2c0 .1.7 13.6-1.4 22.7l-76-1a20 20 0 0 0-9-15.7c-1.1-9.2-1-9.6.1-14.3v-.2l3.5-21s0-1.6 1.8-2.6l.1-.3H50c-2.1 1.1-2 2.8-2 2.9l-3.5 21v.1c-1.1 4.7-1.3 5.1 0 14.5v.1c9.1 6.2 8.9 15.5 8.9 15.6v.2h.2l76.2 1h.1z"/>
  <defs>
    <path id="c" d="M86.2 3.5h3.1V57h-3.1z"/>
  </defs>
  <clipPath id="d">
    <use xlink:href="#c" overflow="visible"/>
  </clipPath>
  <path clip-path="url(#d)" fill="#6F7F8F" d="M89.2 57l.1-.2-1.8-29.3-.8-21.4-.1-2.4-.2-.2-.2.2s.2 1.1.2 2.4l.8 21.4a26523.1 26523.1 0 0 1 2 29.5"/>
  <defs>
    <path id="e" d="M3.7 41.9h25V43h-25z"/>
  </defs>
  <clipPath id="f">
    <use xlink:href="#e" overflow="visible"/>
  </clipPath>
  <path clip-path="url(#f)" fill="#6F7F8F" d="M28.5 43l.2-.1-.2-.2L4 41.9c-.1 0-.2 0-.2.2l.1.1 24.7.8z"/>
  <defs>
    <path id="g" d="M155.3 37.9h11.6v3.5h-11.6z"/>
  </defs>
  <clipPath id="h">
    <use xlink:href="#g" overflow="visible"/>
  </clipPath>
  <path clip-path="url(#h)" fill="#6F7F8F" d="M155.5 41.4c.3 0 7.8-.8 8.8-1.1 1-.4 2.5-2 2.6-2.1v-.3h-.3s-1.4 1.7-2.4 2a106.8 106.8 0 0 1-8.9 1.3l.2.2"/>
  <defs>
    <path id="i" d="M33.4 27.8h8.4v6.1h-8.4z"/>
  </defs>
  <clipPath id="j">
    <use xlink:href="#i" overflow="visible"/>
  </clipPath>
  <path clip-path="url(#j)" fill="#6F7F8F" d="M34.5 33.9a1 1 0 0 1-1-1v-4c0-.6.4-1.1 1-1.1h6.2c.6 0 1.1.5 1.1 1v4c0 .6-.5 1.1-1 1.1h-6.3m0-5.8c-.4 0-.7.4-.7.8v4c0 .3.3.7.7.7h6.2c.4 0 .8-.4.8-.8v-4c0-.3-.4-.7-.8-.7h-6.2z"/>
  <path fill="#2D4866" d="M7.1 20a88.2 88.2 0 0 1 9.5-13.1l2.6.4s-7.6 5.5-13 17.4l-1.5.1L7 19.9"/>
  <path fill="#EEEDF3" d="M179.2 40.7S177 37 175 35.5c-2-1.5-12-1.1-12.4-1.1s-1.2.4-.6 1 5.9 3.5 9.2 4.3c3.4.9 8 1.4 8 1"/>
  <g opacity=".2">
    <defs>
      <path id="k" d="M6.1 30.1h145.7v8.8H6.1z"/>
    </defs>
    <clipPath id="l">
      <use xlink:href="#k" overflow="visible"/>
    </clipPath>
    <path clip-path="url(#l)" fill="#EEF7F6" d="M136.3 39s-3.4-1.7-8.7-2a2121 2121 0 0 0-78-2.4c-2.7.6-5.3.3-7.5.2-2.2-.1-25.6-2.9-29-2.9-3.2 0-6 1.2-6.7.7-.7-.4-.5-2.3 2.7-2.5 3.2-.2 142.7 5.3 142.7 5.8 0 .6-6.6-1.6-15.5 3"/>
  </g>
  <path fill="#E7646C" d="M3 33.7l.5-5c.2-.4.7-1 1.6-1 1.2.2 3.5 1.5 3.8 2.8.4 1.2-1 7.7-1.1 11.7-1.8 0-4 0-4.5-.4-.2-.8-.8-3.9-.4-8"/>
  <defs>
    <path id="m" d="M161.4 44.9h21.9v.7h-21.9z"/>
  </defs>
  <clipPath id="n">
    <use xlink:href="#m" overflow="visible"/>
  </clipPath>
  <path clip-path="url(#n)" fill="#6F7F8F" d="M183.1 45.6l.2-.1c0-.1 0-.2-.2-.2l-21.5-.4-.2.1c0 .1 0 .2.2.2l21.5.4z"/>
  <path fill="#1E1D22" d="M149.2 54.6a.6.6 0 1 0 1.2 0 .6.6 0 0 0-1.2 0M151.6 56.3c0 .3.3.5.6.5a.6.6 0 1 0 0-1c-.3 0-.6.2-.6.5M150.6 59c0 .2.2.5.6.5s.5-.3.5-.6a.6.6 0 1 0-1.1 0M147.8 59c0 .2.3.5.6.5s.5-.3.5-.6a.6.6 0 0 0-1 0M147 56.2a.6.6 0 1 0 1.2 0 .6.6 0 0 0-1.2 0M36.2 54.6c0 .3.2.5.5.5a.6.6 0 1 0-.5-.5M38.6 56.3c0 .3.2.5.5.5a.6.6 0 1 0-.5-.5M37.5 59a.6.6 0 0 0 1.2 0 .6.6 0 1 0-1.2 0M34.8 59c0 .2.2.5.5.5s.6-.3.6-.6-.3-.5-.6-.5-.5.2-.5.5M34 56.2a.6.6 0 1 0 1.1 0c0-.3-.2-.5-.6-.5-.3 0-.5.2-.5.5"/>
  <path fill="#1F2C44" d="M95.5 4.5s-.8-2.5-3.4-2.8c0 0-.2-.7-1-.8H89s-.2-.1-.2.7c0 0-17.8-1-30.1-1C46.3.2 35 .5 35 .5s-.5-.7-2.6-.6h-2.6s-.6 0-.6.7c0 0-1.5 0-2 .3-.6.2-2 1.5-2.1 2l9.6-.3h2V1.4S71.7.7 86 2.4c0 0 1.5.3 1.4 1.3l8.2.8z"/>
  <g opacity=".2">
    <defs>
      <path id="o" d="M53.8 49.4h77v3.9h-77z"/>
    </defs>
    <clipPath id="p">
      <use xlink:href="#o" overflow="visible"/>
    </clipPath>
    <path clip-path="url(#p)" fill="#EEF7F6" d="M130.8 53.3s-60-1-77-2c12.3-2.9 63.2-2.7 77 2"/>
  </g>
  <path opacity=".2" fill="#F4F4F4" d="M39.4 19.8l1.7-9.5c.2-1.2-.1-1.5-1.7-1.5l-9.6.1c-2.6 1.5-4.2 3-5.5 5l15 5.9zM80.8 8.6V24s-12.4-4.3-29.1-10.6c.1-3 .8-5.7.8-5.7l28.3.8zM91.9 9.7l10.3 1.1c3.4.7 4.8 1 7.6 2.7l12 6.6.7 5.7-30-9.1-.6-7z"/>
</svg>
