<svg xmlns="http://www.w3.org/2000/svg" width="242.5" height="100.2">
  <path fill="none" stroke="#3BDEEA" stroke-width="1.1" stroke-linecap="round" stroke-linejoin="round" stroke-miterlimit="10" d="M170 60.4c2.5-8 19.7-12.7 30.6-10.3 8.5 1.8 7.6 2.7 7.6 2.7"/>
  <path fill="none" stroke="#0A0A0A" stroke-width="2.3" stroke-linecap="round" stroke-linejoin="round" stroke-miterlimit="10" d="M170 60.4c.2-1.4 1.3-2.9 3.1-4.4"/>
  <ellipse opacity=".2" cx="217.8" cy="97.5" rx="24.7" ry="2.7"/>
  <path fill="#88B3C8" d="M233.6 89.9H202V3.3c0-1.8 1.5-3.3 3.4-3.3h24.9c1.8 0 3.3 1.5 3.3 3.3V90z"/>
  <path fill="#3C6375" d="M227 3.7h-18.4c-2.1 0-3.8 2-3.8 4.1v36.3c0 3.2 2.5 5.5 5.7 5.5h14.7c3.1 0 5.6-2.3 5.6-5.5V7.8c0-2-1.6-4-3.7-4z"/>
  <g fill="#FED45C">
    <path d="M216.5 66.8h1.2a.4.4 0 0 1-.4-.6l3.6-9.2c.2-.5-.5-.8-.8-.5l-.6.9-3.4 8.8c-.1.3 0 .6.4.6zM225.6 66.8h-1.3c.4 0 .6.4.4.7L216 79.2l-.2.5c-.1.4.5.7.8.3l9.3-12.5c.2-.3 0-.7-.3-.7z"/>
    <path d="M224.3 66.8h-7.8a.4.4 0 0 1-.4-.6l3.4-8.8-9.7 12.7c-.2.2 0 .6.3.6h8c.3 0 .5.3.4.6l-2.5 8 8.7-11.8c.2-.3 0-.7-.4-.7z"/>
  </g>
  <path fill="#E4F4F4" d="M225.8 7.3h-16c-.7 0-1.3.6-1.3 1.4v8h18.7v-8c0-.8-.6-1.4-1.4-1.4z"/>
  <path fill="#304147" d="M208.5 16.8v3.6c0 .9.6 1.5 1.5 1.5h15.7c.8 0 1.5-.6 1.5-1.5v-3.6h-18.7z"/>
  <path fill="#61C98B" d="M212.7 10.4v3.8c0 .2.2.4.4.4h2.6V10H213c-.2 0-.4.2-.4.4z"/>
  <path fill="#B3CECC" d="M221.3 10.9v-.3c0-.3-.3-.6-.7-.6h-5v4.6h5c.4 0 .7-.2.7-.6v-.3c0-.3.2-.6.6-.6h.5c.3 0 .6-.2.6-.6v-.4c0-.3-.3-.6-.6-.6h-.5a.6.6 0 0 1-.6-.6z"/>
  <path fill="#61C98B" d="M218.9 19.4a1 1 0 1 1-2 0 1 1 0 0 1 2 0z"/>
  <path fill="#304147" d="M220 42.5h-3a3 3 0 0 1-2.9-3v-6.1a3 3 0 0 1 3-3h2.9a3 3 0 0 1 2.9 3v6.2a3 3 0 0 1-3 2.9z"/>
  <path fill="#DD5858" d="M220.7 34.6a2.2 2.2 0 1 1-4.4 0 2.2 2.2 0 0 1 4.4 0z"/>
  <circle fill="#61C98B" cx="218.5" cy="39.3" r="1.1"/>
  <path fill="#223135" d="M235.7 97.5h-41.2V92c0-1.1.9-2 2-2h37.3c1 0 2 .9 2 2v5.6z"/>
  <path fill="#304147" d="M241 97.5h-41.2V92c0-1.1.9-2 2-2H239c1 0 2 .9 2 2v5.6z"/>
  <g>
    <ellipse opacity=".3" cx="86.4" cy="93.1" rx="86.4" ry="5.3"/>
    <g clip-rule="evenodd">
      <path fill-rule="evenodd" fill="#FFF" d="M175.1 69.6h.3V67h.5a30.3 30.3 0 0 0-3.8-6l-2.1-2.2c-1.1-1-1.8-1.3-3-2-2.4-1.3-3.8-1.8-6.3-2.7-3.1-1-5-1.4-8.2-2.2-5-1.2-7.8-1.7-13-2.5a28 28 0 0 1-12-1.2c-3.1-1-4.9-1.7-7.8-3.3l-7.1-4.1c-5.8-3.3-11.8-6.4-15.2-7.5l1.4-1.3c.2-.2.1-.5-.2-.5-20.9-5-44.9-3.8-67.7.5h-5l-.6 1.3v2.8a10.6 10.6 0 0 1-.6 2.4s-2 5.9-3.8 9.3c-4.2.1-7.6 1-9.9 2.2-1.3.7-4.4 3.7-5 4.5-1.3 3.6-1 9.2-1 9.2 0 1.6-.7 1.5-.7 2.5-2 1.3-1.6 1.2-1.7 2.9 0 .5.8-.1.8.7-.3 4 .6 5.4.5 8.7-.7.6-.7.8 0 1.7h7.4c1.6 0 2.1-.2 2.3-1.7.6-7.4 7.2-14.1 15.4-14.2 8.3 0 15 8.5 15 16v3.2h81.2v-1.9c0-9.5 6.5-18.8 15.6-18.8 9.2 0 15.8 8.2 15.8 15.7v2.2h19c.3 0 .4-.7.3-1l-.4-.1c0-.7-.1-.6-.8-1l-4-2a313.4 313.4 0 0 0 .5-5.2L166 71c-.3 0-.5-.3-.5-.5l-.2-1c-.1-.5.2-.7.7-.7l8.9.7.2.1z"/>
      <path fill="none" stroke="#231F20" stroke-width=".1" stroke-miterlimit="3.9" d="M175.1 69.6h.3V67h.5a30.3 30.3 0 0 0-3.8-6l-2.1-2.2c-1.1-1-1.8-1.3-3-2-2.4-1.3-3.8-1.8-6.3-2.7-3.1-1-5-1.4-8.2-2.2-5-1.2-7.8-1.7-13-2.5a28 28 0 0 1-12-1.2c-3.1-1-4.9-1.7-7.8-3.3l-7.1-4.1c-5.8-3.3-11.8-6.4-15.2-7.5l1.4-1.3c.2-.2.1-.5-.2-.5-20.9-5-44.9-3.8-67.7.5h-5l-.6 1.3v2.8a10.6 10.6 0 0 1-.6 2.4s-2 5.9-3.8 9.3c-4.2.1-7.6 1-9.9 2.2-1.3.7-4.4 3.7-5 4.5-1.3 3.6-1 9.2-1 9.2 0 1.6-.7 1.5-.7 2.5-2 1.3-1.6 1.2-1.7 2.9 0 .5.8-.1.8.7-.3 4 .6 5.4.5 8.7-.7.6-.7.8 0 1.7h7.4c1.6 0 2.1-.2 2.3-1.7.6-7.4 7.2-14.1 15.4-14.2 8.3 0 15 8.5 15 16v3.2h81.2v-1.9c0-9.5 6.5-18.8 15.6-18.8 9.2 0 15.8 8.2 15.8 15.7v2.2h19c.3 0 .4-.7.3-1l-.4-.1c0-.7-.1-.6-.8-1l-4-2a313.4 313.4 0 0 0 .5-5.2L166 71c-.3 0-.5-.3-.5-.5l-.2-1c-.1-.5.2-.7.7-.7l8.9.7.2.1z"/>
    </g>
    <path clip-rule="evenodd" fill="none" stroke="#231F20" stroke-width=".1" stroke-miterlimit="3.9" d="M97.4 33.3c-19.8-5.5-43-3.8-71.2 1.3 0 1.2-.6 2.1-1.3 3.1M86.8 58c0-1-1.2-2-2.7-2-1.4 0-2.6 1-2.6 2s1.2 2 2.6 2c1.5 0 2.7-1 2.7-2z"/>
    <ellipse clip-rule="evenodd" fill="none" stroke="#231F20" stroke-width=".1" stroke-miterlimit="3.9" cx="44.2" cy="55.7" rx="2.7" ry="1.9"/>
    <g clip-rule="evenodd">
      <path fill-rule="evenodd" fill="#E6E7E8" d="M171.1 64.6c-3.3-5.7-9.4-8.6-15-10.4-2.2-.7-3.9-.8-4.8-.2-1.3 1-.7 1.4.7 3a21 21 0 0 0 9 6c1.5.5 2.9.6 4.3.9l5.8.7z"/>
      <path fill="none" stroke="#231F20" stroke-width=".1" stroke-miterlimit="3.9" d="M171.1 64.6c-3.3-5.7-9.4-8.6-15-10.4-2.2-.7-3.9-.8-4.8-.2-1.3 1-.7 1.4.7 3a21 21 0 0 0 9 6c1.5.5 2.9.6 4.3.9l5.8.7z"/>
    </g>
    <path fill="#6D6E70" d="M112.8 44A112 112 0 0 0 98.2 36a64.5 64.5 0 0 0-24-4h-5.4a148.6 148.6 0 0 0-19.7 1.1A138 138 0 0 0 38 35c-2 .5-3 1.4-2.6 3.2l.6 2.4c.6 2.4 1.3 5 1.8 6.2.4 1 1.1 2.7 3.6 2.9l3.4.1c7.7.3 12 .7 19.7 1.1l4.9.3 5.3.4 38 1.9h.5v-9.2l-.5-.3z"/>
    <path fill="none" stroke="#231F20" stroke-width=".1" stroke-miterlimit="3.9" d="M112.8 44A112 112 0 0 0 98.2 36a64.5 64.5 0 0 0-24-4h-5.4a148.6 148.6 0 0 0-19.7 1.1A138 138 0 0 0 38 35c-2 .5-3 1.4-2.6 3.2l.6 2.4c.6 2.4 1.3 5 1.8 6.2.4 1 1.1 2.7 3.6 2.9l3.4.1c7.7.3 12 .7 19.7 1.1l4.9.3 5.3.4 38 1.9h.5v-9.2l-.5-.3z"/>
    <path clip-rule="evenodd" fill="none" stroke="#231F20" stroke-width=".1" stroke-miterlimit="3.9" d="M150.6 55.2l-6.6-1.7c-7.6-1.7-15.6-2.6-22.8-5.8-3.3-1.5-3.8-2.4-9.6-5.6-4-2.3-9.3-5.2-13.5-6.9-12.6-4.9-31-4.4-45.2-3-7 .6-15.4 1.6-24.6 3.6a5 5 0 0 0-3.5 2.2"/>
    <path clip-rule="evenodd" fill="none" stroke="#231F20" stroke-width=".1" stroke-miterlimit="3.9" d="M77.9 80.5V71c-.2-5.6-.6-8.4-1.6-13.6-.5-2.6-1.5-5-1.5-6.5L71 31.3c-.1-.7 0-1.2.4-1.4"/>
    <g clip-rule="evenodd">
      <path fill-rule="evenodd" fill="#6D6E70" d="M156.6 80.7s-.2 1.9 2.1 1.9H175c.2 0 .3 0 .4-.2l.1-.3v-.6-.3h.2l.1-.2v-.3h-19.2z"/>
      <path fill="none" stroke="#231F20" stroke-width=".1" stroke-miterlimit="3.9" d="M156.6 80.7s-.2 1.9 2.1 1.9H175c.2 0 .3 0 .4-.2l.1-.3v-.6-.3h.2l.1-.2v-.3h-19.2z"/>
    </g>
    <g clip-rule="evenodd">
      <path fill-rule="evenodd" fill="#6D6E70" d="M156.6 80.7v-2.2c0-7.5-6.6-15.7-15.8-15.7-9.1 0-15.6 9.3-15.6 18.8v3.2c1-.4 2.1-1 3.2-1.8a13.3 13.3 0 1 1 25.7.4l4-.9c-1.6-.2-1.5-1.8-1.5-1.8z"/>
      <path fill="none" stroke="#231F20" stroke-width=".1" stroke-miterlimit="3.9" d="M156.6 80.7v-2.2c0-7.5-6.6-15.7-15.8-15.7-9.1 0-15.6 9.3-15.6 18.8v3.2c1-.4 2.1-1 3.2-1.8a13.3 13.3 0 1 1 25.7.4l4-.9c-1.6-.2-1.5-1.8-1.5-1.8z"/>
    </g>
    <path clip-rule="evenodd" fill="none" stroke="#231F20" stroke-width=".1" stroke-miterlimit="3.9" d="M175.5 79.6l-6.8-.2-6.7-.2c-2.3 0-3-1-3.4-2.8-.7-3-2.2-6.6-4.8-9.7-2.6-3.2-7-6-13-6-7.8 0-16.1 6.4-17.4 16 0 .7-.1 1.6-.5 2.4-.4.7-1 1.3-2.4 1.3h-29l-29 .1a18.2 18.2 0 0 1-10.2-3.2 49 49 0 0 1-10.5-10.6 56.1 56.1 0 0 1-7.7-13c-1-2.5-1.2-5.5-1.3-8.5v-8.4a17.2 17.2 0 0 1 .5-3.4"/>
    <g clip-rule="evenodd">
      <path fill-rule="evenodd" fill="#6D6E70" d="M11.6 80.2a3 3 0 0 0 2.1.7 3 3 0 0 0 1.8-.6v-.6a13.3 13.3 0 1 1 26 4.1l2.5.9v-4.4c0-7.5-6.7-16-15-16-8.2 0-14.8 6.8-15.4 14.2-.1 1.4-.6 1.7-2 1.7z"/>
      <path fill="none" stroke="#231F20" stroke-width=".1" stroke-miterlimit="3.9" d="M11.6 80.2a3 3 0 0 0 2.1.7 3 3 0 0 0 1.8-.6v-.6a13.3 13.3 0 1 1 26 4.1l2.5.9v-4.4c0-7.5-6.7-16-15-16-8.2 0-14.8 6.8-15.4 14.2-.1 1.4-.6 1.7-2 1.7z"/>
    </g>
    <g clip-rule="evenodd">
      <path fill-rule="evenodd" fill="#6D6E70" d="M134.3 49.5l-.7-1c-.3-.3-.4-.4-.9-.4h-5.6l.5.1c2.5.8 4.6 1.2 6.7 1.3z"/>
      <path fill="none" stroke="#231F20" stroke-width=".1" stroke-miterlimit="3.9" d="M134.3 49.5l-.7-1c-.3-.3-.4-.4-.9-.4h-5.6l.5.1c2.5.8 4.6 1.2 6.7 1.3z"/>
    </g>
    <g fill-rule="evenodd" clip-rule="evenodd">
      <path fill="#BBBDBF" d="M132.1 48.1A140 140 0 0 0 98.8 32l-1.4 1.3c3.4 1.1 9.4 4.2 15.2 7.5l7 4.1c2.9 1.5 4.6 2.3 7.5 3.2h5z"/>
      <path fill="#173649" d="M132.1 48.1A140 140 0 0 0 98.8 32l-1.4 1.3c3.4 1.1 9.4 4.2 15.2 7.5l7 4.1c2.9 1.5 4.6 2.3 7.5 3.2h5z"/>
    </g>
    <g clip-rule="evenodd">
      <path fill-rule="evenodd" fill="#6D6E70" d="M98.9 33.9l1.7-1.6a35.1 35.1 0 0 0-1.8-.3l-1.4 1.3 1.5.6z"/>
      <path fill="none" stroke="#231F20" stroke-width=".1" stroke-miterlimit="3.9" d="M98.9 33.9l1.7-1.6a35.1 35.1 0 0 0-1.8-.3l-1.4 1.3 1.5.6z"/>
    </g>
    <path clip-rule="evenodd" fill="none" stroke="#BBBDBF" stroke-width=".1" stroke-miterlimit="3.9" d="M158.8 71c-3.5-15.7-22.5-17.2-29.5-9"/>
    <path clip-rule="evenodd" fill="none" stroke="#231F20" stroke-width=".1" stroke-miterlimit="3.9" d="M157.5 61.5l-6.8 5"/>
    <g clip-rule="evenodd">
      <path fill-rule="evenodd" fill="#6D6E70" d="M170.1 77.6c.3-.1 1.1-.5 1.2-.8l-.6-.3a313.4 313.4 0 0 0 .5-5L166 71h-.3c.4 2.1 2 7.2 4.4 6.6z"/>
      <path fill="none" stroke="#231F20" stroke-width=".1" stroke-miterlimit="3.9" d="M170.1 77.6c.3-.1 1.1-.5 1.2-.8l-.6-.3a313.4 313.4 0 0 0 .5-5L166 71h-.3c.4 2.1 2 7.2 4.4 6.6z"/>
    </g>
    <g clip-rule="evenodd">
      <path fill-rule="evenodd" fill="#6D6E70" d="M175.4 70c0-.2-.2-.4-.5-.5l-8.9-.7c-.5 0-.8.2-.7.6 0 0 0 .6.2 1 0 .3.2.6.5.6l8.8.7c.2 0 .5-.2.5-.4V70z"/>
      <path fill="none" stroke="#231F20" stroke-width=".1" stroke-miterlimit="3.9" d="M175.4 70c0-.2-.2-.4-.5-.5l-8.9-.7c-.5 0-.8.2-.7.6 0 0 0 .6.2 1 0 .3.2.6.5.6l8.8.7c.2 0 .5-.2.5-.4V70z"/>
    </g>
    <path fill="#231F20" d="M169.8 75c.4-1.2.3-2.3-.3-2.5-.5-.2-1.3.6-1.6 1.8-.3.8-.3 1.5-.2 2l.4.4c.6.2 1.3-.6 1.7-1.8z"/>
    <path fill="none" stroke="#231F20" stroke-width=".1" stroke-miterlimit="3.9" d="M169.8 75c.4-1.2.3-2.3-.3-2.5-.5-.2-1.3.6-1.6 1.8-.3.8-.3 1.5-.2 2l.4.4c.6.2 1.3-.6 1.7-1.8z"/>
    <g clip-rule="evenodd">
      <path fill-rule="evenodd" fill="#6D6E70" d="M171.2 71.4a189 189 0 0 1-.5 5.1l.6.3 1.9 1a26.9 26.9 0 0 0 .4-6.2l-2.4-.2z"/>
      <path fill="none" stroke="#231F20" stroke-width=".1" stroke-miterlimit="3.9" d="M171.2 71.4a189 189 0 0 1-.5 5.1l.6.3 1.9 1a26.9 26.9 0 0 0 .4-6.2l-2.4-.2z"/>
    </g>
    <path fill="#6D6E70" d="M175 73.5l-.3-.2-3.6-.3v.5l3.5.3c.2 0 .3-.1.3-.3z"/>
    <path fill="none" stroke="#231F20" stroke-width=".1" stroke-miterlimit="3.9" d="M175 73.5l-.3-.2-3.6-.3v.5l3.5.3c.2 0 .3-.1.3-.3z"/>
    <path fill="#6D6E70" d="M174.8 75.2l-.3-.3-3.6-.3v.5l3.5.3c.2 0 .4 0 .4-.2z"/>
    <path fill="none" stroke="#231F20" stroke-width=".1" stroke-miterlimit="3.9" d="M174.8 75.2l-.3-.3-3.6-.3v.5l3.5.3c.2 0 .4 0 .4-.2z"/>
    <path fill="#6D6E70" d="M174.5 77c0-.2-.1-.3-.3-.3l-3.4-.6v.4l.1.1 3.3.6c.1 0 .3-.1.3-.3z"/>
    <path fill="none" stroke="#231F20" stroke-width=".1" stroke-miterlimit="3.9" d="M174.5 77c0-.2-.1-.3-.3-.3l-3.4-.6v.4l.1.1 3.3.6c.1 0 .3-.1.3-.3z"/>
    <g clip-rule="evenodd">
      <path fill-rule="evenodd" fill="#6D6E70" d="M171.1 64.6s1.4.4 3 .6c-1.1-2.3-3-3.6-5.6-4 1 1 1.9 2.2 2.6 3.4z"/>
      <path fill="none" stroke="#231F20" stroke-width=".1" stroke-miterlimit="3.9" d="M171.1 64.6s1.4.4 3 .6c-1.1-2.3-3-3.6-5.6-4 1 1 1.9 2.2 2.6 3.4z"/>
    </g>
    <path clip-rule="evenodd" fill="none" stroke="#231F20" stroke-width=".1" stroke-miterlimit="3.9" d="M172 62.6l-2.4-.2M172.8 63.2l-2.7-.2M173.3 63.8l-2.9-.2M173.7 64.5l-2.8-.2"/>
    <g clip-rule="evenodd">
      <path fill-rule="evenodd" fill="#A6A8AB" d="M166.5 63.6c-.6-1.4-2.6-4-4.8-4.5-1-.3-1.8-.4-2.8.1l-1 .8c-.2.3.2.4.3.6l.7.9c.6.5 1.1.6 2 .9 1.4.4 3.4.9 5.6 1.2z"/>
      <path fill="none" stroke="#231F20" stroke-width=".1" stroke-miterlimit="3.9" d="M166.5 63.6c-.6-1.4-2.6-4-4.8-4.5-1-.3-1.8-.4-2.8.1l-1 .8c-.2.3.2.4.3.6l.7.9c.6.5 1.1.6 2 .9 1.4.4 3.4.9 5.6 1.2z"/>
    </g>
    <g clip-rule="evenodd">
      <path fill-rule="evenodd" fill="#D0D2D3" d="M162.7 62.9v-3.5l-1-.3c-1-.3-1.8-.4-2.8.1l-1 .8c-.2.3.2.4.3.6l.7.9c.6.5 1.1.6 2 .9l1.8.5z"/>
      <path fill="none" stroke="#231F20" stroke-width=".1" stroke-miterlimit="3.9" d="M162.7 62.9v-3.5l-1-.3c-1-.3-1.8-.4-2.8.1l-1 .8c-.2.3.2.4.3.6l.7.9c.6.5 1.1.6 2 .9l1.8.5z"/>
    </g>
    <path clip-rule="evenodd" fill="none" stroke="#231F20" stroke-width=".1" stroke-miterlimit="3.9" d="M175.4 67l-13.6-1.4s-2.2-.1-3.1-1.7M157.9 54.8c-.2.4 0 .8.3 1.1.8 1 4 1.7 5.3 2.2l3.3 1.5a30 30 0 0 0-9-4.8z"/>
    <g clip-rule="evenodd">
      <path fill-rule="evenodd" fill="#BBBDBF" d="M166.5 63.6l3.9.5a20.6 20.6 0 0 0-2.7-3l-.7-.7a8.5 8.5 0 0 0-2.7-1.4c-.5-.3-.8-.4-1.3-.5h-1.6l-1.4-.4c-1-.1-1.8.2-2.6 1L156 58v-.6a21 21 0 0 0-4.6-2.1l1.6 1.9a13.8 13.8 0 0 0 3.5 2.7l1.3.2 1-.9c1-.5 1.8-.4 3-.1 2 .5 4.1 3.1 4.7 4.5z"/>
      <path fill="none" stroke="#231F20" stroke-width=".1" stroke-miterlimit="3.9" d="M166.5 63.6l3.9.5a20.6 20.6 0 0 0-2.7-3l-.7-.7a8.5 8.5 0 0 0-2.7-1.4c-.5-.3-.8-.4-1.3-.5h-1.6l-1.4-.4c-1-.1-1.8.2-2.6 1L156 58v-.6a21 21 0 0 0-4.6-2.1l1.6 1.9a13.8 13.8 0 0 0 3.5 2.7l1.3.2 1-.9c1-.5 1.8-.4 3-.1 2 .5 4.1 3.1 4.7 4.5z"/>
    </g>
    <path clip-rule="evenodd" fill="none" stroke="#231F20" stroke-width=".1" stroke-miterlimit="3.9" d="M166.5 63.6c-1.4-3.5-3-5-4.8-4.5M154.5 56.6l-1.2.9"/>
    <g clip-rule="evenodd">
      <path fill-rule="evenodd" fill="#6D6E70" d="M77 66.6l-26-.5s-.7.4 0 .8 1.5.6 2.2.7c8.9.8 14.7.8 23.9 1.2.4 0 .2-2.2 0-2.2z"/>
      <path fill="none" stroke="#231F20" stroke-width=".1" stroke-miterlimit="3.9" d="M77 66.6l-26-.5s-.7.4 0 .8 1.5.6 2.2.7c8.9.8 14.7.8 23.9 1.2.4 0 .2-2.2 0-2.2z"/>
    </g>
    <g clip-rule="evenodd">
      <path fill-rule="evenodd" fill="#6D6E70" d="M78.4 68.9c15.6.6 24.7.8 40.5.9.6 0 .7-1.6 0-1.6-8.4-.3-13-.6-21.6-.8-7.5-.3-11.8-.6-19-.8-.5 0-.2 2.3.1 2.3z"/>
      <path fill="none" stroke="#231F20" stroke-width=".1" stroke-miterlimit="3.9" d="M78.4 68.9c15.6.6 24.7.8 40.5.9.6 0 .7-1.6 0-1.6-8.4-.3-13-.6-21.6-.8-7.5-.3-11.8-.6-19-.8-.5 0-.2 2.3.1 2.3z"/>
    </g>
    <path fill="#BBBDBF" d="M110.8 67.9v1.8h2.7V68z"/>
    <path fill="none" stroke="#231F20" stroke-width=".1" stroke-miterlimit="3.9" d="M110.8 67.9v1.8h2.7V68z"/>
    <g clip-rule="evenodd">
      <path fill-rule="evenodd" fill="#6D6E70" d="M25.3 33.6l-1.5 1v1.8a96.4 96.4 0 0 0-3 4.3L19 43.6l-1.3 2-.8 1c-.4.4-.7.5-1.2.7l-1 .4-2.8 1L11 50c2.3-1.2 5.7-2 10-2.2 1.6-3.4 3.7-9.3 3.7-9.3a11.2 11.2 0 0 0 .6-2.4v-2.5z"/>
      <path fill="none" stroke="#231F20" stroke-width=".1" stroke-miterlimit="3.9" d="M25.3 33.6l-1.5 1v1.8a96.4 96.4 0 0 0-3 4.3L19 43.6l-1.3 2-.8 1c-.4.4-.7.5-1.2.7l-1 .4-2.8 1L11 50c2.3-1.2 5.7-2 10-2.2 1.6-3.4 3.7-9.3 3.7-9.3a11.2 11.2 0 0 0 .6-2.4v-2.5z"/>
    </g>
    <g fill-rule="evenodd" clip-rule="evenodd">
      <path fill="#BBBDBF" d="M11.9 48.7l2.8-1c.4 0 .7-.2 1-.4l1.2-.6.8-1 1.3-2.1 1.8-2.9 3-4.3v-1.8a52.6 52.6 0 0 0-12 14z"/>
      <path fill="#173649" d="M11.9 48.7l2.8-1c.4 0 .7-.2 1-.4l1.2-.6.8-1 1.3-2.1 1.8-2.9 3-4.3v-1.8a52.6 52.6 0 0 0-12 14z"/>
    </g>
    <path clip-rule="evenodd" fill="none" stroke="#BBBDBF" stroke-width=".1" stroke-miterlimit="3.9" d="M121 76.8s.4 2.4-2.8 2.4H62.9c-8.4 0-13.8-5.6-13.8-5.6"/>
    <g clip-rule="evenodd">
      <path fill-rule="evenodd" fill="#6D6E70" d="M112.8 53.4l13.3.5c.9-.8-1.4-2.3-3-3.3l-10.3-6.7v9.5z"/>
      <path fill="none" stroke="#231F20" stroke-width=".1" stroke-miterlimit="3.9" d="M112.8 53.4l13.3.5c.9-.8-1.4-2.3-3-3.3l-10.3-6.7v9.5z"/>
    </g>
    <path clip-rule="evenodd" fill="none" stroke="#231F20" stroke-width=".1" stroke-miterlimit="3.9" d="M73.5 32L78 50.8h.8l-4.3-18.1-.2-.7zM112.8 52.7v.7l-38-2v-.7l4 .2z"/>
    <path clip-rule="evenodd" fill="none" stroke="#231F20" stroke-width=".1" stroke-miterlimit="3.9" d="M112.8 44.6v-.7a112 112 0 0 0-14.6-7.8 64.5 64.5 0 0 0-24-4l.2.6c15 .3 21.7 3.2 23.7 4 5.8 2.5 8.2 4.1 14.7 7.9z"/>
    <path fill="none" stroke="#231F20" stroke-width=".1" stroke-miterlimit="3.9" d="M113.3 53.4v-9.2l-.5-.3v9.5z"/>
    <path clip-rule="evenodd" fill="none" stroke="#231F20" stroke-width=".1" stroke-miterlimit="3.9" d="M113.3 44.9l10.6 6.9c1.2.9 2.1 1.6 1.6 2.1h.6c.9-.8-1.4-2.3-3-3.3l-9.8-6.4v.7z"/>
    <g clip-rule="evenodd">
      <path fill-rule="evenodd" fill="#6D6E70" d="M43.8 34.7L46 49.2h1l-2.3-14.7z"/>
      <path fill="none" stroke="#231F20" stroke-width=".1" stroke-miterlimit="3.9" d="M43.8 34.7L46 49.2h1l-2.3-14.7z"/>
    </g>
    <path clip-rule="evenodd" fill="none" stroke="#231F20" stroke-width=".1" stroke-miterlimit="3.9" d="M68.2 32.7l2.9 17.8h.7l-2.9-17.9z"/>
    <path clip-rule="evenodd" fill="none" stroke="#231F20" stroke-width=".1" stroke-miterlimit="3.9" d="M74.8 50.7l-6.2-.3-7.4-.4-6.6-.4-12.8-.6c-1.1 0-2.7-.4-3.4-2.8l-.8-2.7-1.5-5.4c0-.5-.1-2 1.9-2.5A143.8 143.8 0 0 1 58.8 33l10.1-.4V32A148.6 148.6 0 0 0 49 33.2 138 138 0 0 0 38 35c-2 .5-3 1.4-2.6 3.2l.6 2.4c.6 2.5 1.3 5 1.8 6.2.4 1 1.1 2.7 3.6 2.9l3.4.1c7.7.3 12 .7 19.7 1.1l10.2.7v-.8zM115.3 51.9l1.3 1.3h1.2l.9-.1.6-.3c.4-.3.6-.6.8-1 .3-.5.5-.9.5-1.4v-.8l-1.6-1h-1.1c.5 1.2.2 3.3-1 3.3h-1.6z"/>
    <path clip-rule="evenodd" fill="none" stroke="#231F20" stroke-width=".1" stroke-miterlimit="3.9" d="M119.8 50.3c0-.7-.7-1.3-1.7-1.1.2.9 0 2-.5 2.4h.5c1 0 1.7-.5 1.7-1.3z"/>
    <g clip-rule="evenodd">
      <path fill-rule="evenodd" fill="#B01117" d="M7 61.4c0-2.2 1.6-6.6 2.4-7.5.2-.2 1.8-2.4 2.1-2.6 1.4-1.2 5.4-1.8 7.2-1.8.3 0 1.2 0 1.4.2.2.2 0 .8 0 1-.5 1.5-1 2.2-1.7 3.5-.5.9-.8 1.8-1.7 2.4-.3.2-1 .3-1.3.6a6 6 0 0 1-2.5 1.3 27 27 0 0 0-5.8 2.9z"/>
      <path fill="none" stroke="#231F20" stroke-width=".1" stroke-miterlimit="3.9" d="M7 61.4c0-2.2 1.6-6.6 2.4-7.5.2-.2 1.8-2.4 2.1-2.6 1.4-1.2 5.4-1.8 7.2-1.8.3 0 1.2 0 1.4.2.2.2 0 .8 0 1-.5 1.5-1 2.2-1.7 3.5-.5.9-.8 1.8-1.7 2.4-.3.2-1 .3-1.3.6a6 6 0 0 1-2.5 1.3 27 27 0 0 0-5.8 2.9z"/>
    </g>
    <path fill="#CD474E" d="M12.3 54.7c.5-1.6.2-3.2-.7-3.5h-.1L9.4 54a6 6 0 0 0-.8 1.5c0 .9.4 1.6 1 1.8 1 .3 2.1-.8 2.7-2.5z"/>
    <path fill="none" stroke="#231F20" stroke-width=".1" stroke-miterlimit="3.9" d="M12.3 54.7c.5-1.6.2-3.2-.7-3.5h-.1L9.4 54a6 6 0 0 0-.8 1.5c0 .9.4 1.6 1 1.8 1 .3 2.1-.8 2.7-2.5z"/>
    <path fill="#BBBDBF" d="M12.4 54.4l-3.2-.2a9 9 0 0 0-.6 1.2c0 .9.4 1.6 1 1.8 1 .3 2.1-.8 2.7-2.5v-.3z"/>
    <path fill="none" stroke="#231F20" stroke-width=".1" stroke-miterlimit="3.9" d="M12.4 54.4l-3.2-.2a9 9 0 0 0-.6 1.2c0 .9.4 1.6 1 1.8 1 .3 2.1-.8 2.7-2.5v-.3z"/>
    <path clip-rule="evenodd" fill="none" stroke="#231F20" stroke-width=".1" stroke-miterlimit="3.9" d="M16.2 56.8l5.5 9.5M7 61.4l-2 2.3M25.9 32.1l.3 2.5"/>
    <path clip-rule="evenodd" fill="none" stroke="#BBBDBF" stroke-width=".1" stroke-miterlimit="3.9" d="M43.5 71.5c-2.8-5.5-8-9.7-14.2-9.7-6.8 0-13.5 3-16.9 13-.9 2.7-.4 4-2.5 4H5.2M10.2 60.6c-.8 1.5-1.7 3.6-5.5 4.5"/>
    <g clip-rule="evenodd">
      <path fill-rule="evenodd" fill="#6D6E70" d="M4.6 65.3h3c.1 0 .4.3.4.7v.5c0 .4-.2 1-.8 1H4.8c-.5 0-.6-.6-.6-1.1 0-.5.1-1 .4-1z"/>
      <path fill="none" stroke="#231F20" stroke-width=".1" stroke-miterlimit="3.9" d="M4.6 65.3h3c.1 0 .4.3.4.7v.5c0 .4-.2 1-.8 1H4.8c-.5 0-.6-.6-.6-1.1 0-.5.1-1 .4-1z"/>
    </g>
    <path clip-rule="evenodd" fill="none" stroke="#231F20" stroke-width=".1" stroke-miterlimit="3.9" d="M9.2 54.2H6.7"/>
    <g clip-rule="evenodd">
      <path fill-rule="evenodd" fill="#173649" d="M112.8 44.6c-6.5-3.8-9-5.4-14.7-7.9-2-.8-8.6-3.7-23.7-4l4.3 18.2 34.1 1.8v-8.1z"/>
      <path fill="none" stroke="#231F20" stroke-width=".1" stroke-miterlimit="3.9" d="M112.8 44.6c-6.5-3.8-9-5.4-14.7-7.9-2-.8-8.6-3.7-23.7-4l4.3 18.2 34.1 1.8v-8.1z"/>
    </g>
    <g clip-rule="evenodd">
      <path fill-rule="evenodd" fill="#6D6E70" d="M125.2 83.5H44v2.6l11-.7h68.5l.2.2 1.5.3z"/>
      <path fill="none" stroke="#231F20" stroke-width=".1" stroke-miterlimit="3.9" d="M125.2 83.5H44v2.6l11-.7h68.5l.2.2 1.5.3z"/>
    </g>
    <path clip-rule="evenodd" fill="none" stroke="#231F20" stroke-width=".1" stroke-miterlimit="3.9" d="M4.2 66.7c.1.2.2.3.4.3h2.2c.5 0 .7-.5.7-1v-.5-.2H4.6c-.3 0-.4.6-.4 1.1v.3z"/>
    <path clip-rule="evenodd" fill="none" stroke="#BBBDBF" stroke-width=".1" stroke-miterlimit="3.9" d="M11.3 59.6C7.3 66.3 8 71 13.2 71"/>
    <path fill-rule="evenodd" clip-rule="evenodd" fill="#231F20" d="M136.4 49.6v-.2l.1-.2h.4l.1.4h.9l-.7-1h-.9l-.3.4-.7-.1v-.5l-.8-.7-.5.8.3 1h2.1zM12.6 47.5h-2.2l-.6.5-.2.5v.5l.2.4h.5v-.6l.4-.5v1h.8l.4-.6.7-1.2z"/>
    <path fill="#173649" d="M68.2 32.7l2.9 17.8-2.5-.1-7.4-.4-6.6-.4-7.6-.4-2.3-14.7c.7 0 1.4-.2 2-.3a151.6 151.6 0 0 1 21.5-1.5z"/>
    <path fill="none" stroke="#231F20" stroke-width=".1" stroke-miterlimit="3.9" d="M68.2 32.7l2.9 17.8-2.5-.1-7.4-.4-6.6-.4-7.6-.4-2.3-14.7c.7 0 1.4-.2 2-.3a151.6 151.6 0 0 1 21.5-1.5z"/>
    <path fill="#173649" d="M43.8 34.7L46 49.2l-4.2-.2c-1.1 0-2.7-.4-3.4-2.8l-.8-2.7-1.5-5.4c0-.5-.1-2 1.9-2.5l5.8-1z"/>
    <path fill="none" stroke="#231F20" stroke-width=".1" stroke-miterlimit="3.9" d="M43.8 34.7L46 49.2l-4.2-.2c-1.1 0-2.7-.4-3.4-2.8l-.8-2.7-1.5-5.4c0-.5-.1-2 1.9-2.5l5.8-1z"/>
    <g clip-rule="evenodd">
      <path fill-rule="evenodd" fill="#6D6E70" d="M117 51.9h-4c-1.9 0-1.4-5.2.6-5l3.3.7c1.7.4 1.7 4.3 0 4.3z"/>
      <path fill="none" stroke="#231F20" stroke-width=".1" stroke-miterlimit="3.9" d="M117 51.9h-4c-1.9 0-1.4-5.2.6-5l3.3.7c1.7.4 1.7 4.3 0 4.3z"/>
    </g>
    <g clip-rule="evenodd">
      <path fill-rule="evenodd" fill="#FFF" d="M113.8 47c-1.6.5-1.8 4.9-.1 4.9h3.3c1.6 0 1.6-4 0-4.3l-3.2-.6z"/>
      <path fill="none" stroke="#231F20" stroke-width=".1" stroke-miterlimit="3.9" d="M113.8 47c-1.6.5-1.8 4.9-.1 4.9h3.3c1.6 0 1.6-4 0-4.3l-3.2-.6z"/>
    </g>
    <path clip-rule="evenodd" fill="none" stroke="#231F20" stroke-width=".1" stroke-miterlimit="3.9" d="M121 45.6l.7 2.3c2 9.5 2 27.5.4 31.1-.6 1.2-2.1 1.2-3.3 1.4"/>
    <g>
      <path fill="#BBBDBF" d="M169.4 74.7c.3-1 .3-1.8 0-2.2-.5 0-1.2.7-1.5 1.8-.3.8-.3 1.5-.2 2l.2.2c.5 0 1.1-.8 1.5-1.8z"/>
      <path fill="none" stroke="#231F20" stroke-width=".1" stroke-miterlimit="3.9" d="M169.4 74.7c.3-1 .3-1.8 0-2.2-.5 0-1.2.7-1.5 1.8-.3.8-.3 1.5-.2 2l.2.2c.5 0 1.1-.8 1.5-1.8z"/>
    </g>
    <path clip-rule="evenodd" fill="none" stroke="#D71921" stroke-width=".1" stroke-miterlimit="3.9" d="M12.4 54.4l5.9.2"/>
    <g clip-rule="evenodd">
      <path fill-rule="evenodd" fill="#D0D2D3" d="M46.2 56.5v.1h.9c2 0 1.6-1.3 0-1.4l-1.3-.1h-.3L42 55l-.1-.1-2.4-.1c-1 0-1 1.3 0 1.4l2.4.1.3-.2 3.5.2h.2l.3.2z"/>
      <path fill="none" stroke="#231F20" stroke-width=".1" stroke-miterlimit="3.9" d="M46.2 56.5v.1h.9c2 0 1.6-1.3 0-1.4l-1.3-.1h-.3L42 55l-.1-.1-2.4-.1c-1 0-1 1.3 0 1.4l2.4.1.3-.2 3.5.2h.2l.3.2z"/>
    </g>
    <g clip-rule="evenodd">
      <path fill-rule="evenodd" fill="#D0D2D3" d="M86.1 58.8l1 .1c2 0 1.6-1.3 0-1.4l-1.4-.1a1 1 0 0 1-.3 0l-3.4-.1-.2-.1-2.3-.2c-1 0-1 1.4 0 1.5l2.3.1.4-.2 3.4.2h.3s.2 0 .2.2z"/>
      <path fill="none" stroke="#231F20" stroke-width=".1" stroke-miterlimit="3.9" d="M86.1 58.8l1 .1c2 0 1.6-1.3 0-1.4l-1.4-.1a1 1 0 0 1-.3 0l-3.4-.1-.2-.1-2.3-.2c-1 0-1 1.4 0 1.5l2.3.1.4-.2 3.4.2h.3s.2 0 .2.2z"/>
    </g>
    <path clip-rule="evenodd" fill="none" stroke="#231F20" stroke-width=".1" stroke-miterlimit="3.9" d="M20.9 47.8l-.8 2.9"/>
    <path fill-rule="evenodd" clip-rule="evenodd" fill="#231F20" d="M37.5 30.9c-.5-.5-1.4 0-1.7-.3a3 3 0 0 1-.7-.7 4 4 0 0 1-.3-.5l-2-3.4-.4.2 2.1 3.8.2.7c0 .3-1.2.5-.8.8l3.6-.6z"/>
    <path clip-rule="evenodd" fill="none" stroke="#231F20" stroke-width=".2" stroke-miterlimit="3.9" d="M32.5 26.1l-5.6-9.9"/>
    <g>
      <g fill-rule="evenodd" clip-rule="evenodd" fill="#231F20">
        <path d="M132.4 78.8c0-.8.2-1.6.5-2.3l-.8-.4.5-1 .8.4a9 9 0 0 1 2.1-2.7l-.6-.6.9-.7.6.6 2-1v-.9l1-.2.2.8a9.1 9.1 0 0 1 3.4 0l.1-.8 1.1.2v1a9 9 0 0 1 2 1l.6-.7.9.7-.6.6a9 9 0 0 1 2.1 2.7l.8-.5.5 1-.8.5.5 2.3h.9V80l-.9-.1a9 9 0 0 1-.7 3.4l.8.3a9 9 0 0 1-.5 1l-.9-.4a9 9 0 0 1-1.4 1.8l.5.8-.8.7-.5-.7a9 9 0 0 1-3.2 1.5l.3.8-1 .2-.4-.8a9.2 9.2 0 0 1-2.2 0l-.3.8c-.4 0-.8 0-1.1-.2l.3-.8a9 9 0 0 1-3.2-1.5l-.5.7-.8-.7.5-.8a9 9 0 0 1-1.4-1.7l-.9.3a9 9 0 0 1-.5-1l.8-.3c-.4-1-.7-2.2-.7-3.4h-1v-.3l.1-.8h.9z"/>
        <circle cx="141.3" cy="79.6" r="13.3"/>
        <path d="M133.5 76.9c-.3.5-.4 1.2-.5 1.8l3-.3-2.5-1.5zM136 73.2c-.9.8-1.6 1.6-2.1 2.6l4.4 2.7c.3-.6.7-1.2 1.3-1.5l-3.6-3.8zM138.6 71.8l-1.7.8 2 2.1-.3-3zM143 71.5a8.4 8.4 0 0 0-3.4 0l.7 5.1a3.1 3.1 0 0 1 2 0l.6-5.1zM145.7 72.6c-.5-.4-1-.6-1.7-.8l-.3 3 2-2.2zM148.7 75.8c-.5-1-1.2-1.8-2-2.6L143 77c.6.3 1 .9 1.3 1.5l4.4-2.7zM149.6 78.7a8 8 0 0 0-.5-1.8l-2.5 1.5 3 .3zM148.9 83c.4-1 .7-2 .7-3.2l-5.1-.5v.3c0 .6-.2 1.2-.5 1.7L149 83zM147.2 85.5l1.1-1.5-2.8-1 1.7 2.5zM143.3 87.7c1.1-.3 2.1-.8 3-1.5l-2.8-4.3c-.5.5-1.1.8-1.8.9l1.6 4.9zM140.4 87.9h1.9l-1-2.9-1 2.9zM136.3 86.2c.8.7 1.9 1.2 3 1.5l1.6-5c-.7 0-1.3-.3-1.8-.8l-2.8 4.3zM134.3 84c.3.6.7 1 1.1 1.5l1.7-2.5-2.8 1zM133 79.8c0 1.2.3 2.3.7 3.2l4.9-1.7a3.2 3.2 0 0 1-.5-2l-5.1.5z"/>
      </g>
      <g clip-rule="evenodd">
        <g fill-rule="evenodd" fill="#D0D2D3">
          <path d="M137.7 79.6l.1-.8a3.6 3.6 0 1 1 0 .8z"/>
          <circle cx="141.3" cy="79.6" r="4.1"/>
          <path d="M138.4 79.6c0 .7.2 1.3.6 1.8a3 3 0 1 0-.6-1.8z"/>
          <path d="M139.4 79.6v-.4a2 2 0 1 1 0 .4z"/>
        </g>
        <g fill="none" stroke="#231F20" stroke-width=".1" stroke-miterlimit="3.9">
          <path d="M137.7 79.6l.1-.8a3.6 3.6 0 1 1 0 .8z"/>
          <circle cx="141.3" cy="79.6" r="4.1"/>
          <path d="M138.4 79.6c0 .7.2 1.3.6 1.8a3 3 0 1 0-.6-1.8z"/>
          <path d="M139.4 79.6v-.4a2 2 0 1 1 0 .4z"/>
        </g>
      </g>
      <g clip-rule="evenodd">
        <g fill-rule="evenodd" fill="#A6A8AB">
          <path d="M139.3 76.7c-.6.4-1 1-1.3 1.6l.3.2c.3-.6.7-1.2 1.3-1.5l-.3-.3zM142.3 76.2a3.6 3.6 0 0 0-2 0v.4a3.1 3.1 0 0 1 2 0v-.4zM144.6 78.3c-.2-.7-.7-1.2-1.3-1.6l-.3.3c.6.3 1 .9 1.3 1.5l.3-.2zM144.4 81.4a3.6 3.6 0 0 0 .5-2h-.4v.2c0 .6-.2 1.2-.5 1.7l.4.1zM141.8 83.2c.8-.2 1.4-.5 2-1l-.3-.3c-.5.5-1.1.8-1.8.9l.1.4zM138.9 82.2c.5.5 1.1.8 1.9 1v-.4c-.6-.1-1.2-.4-1.7-1l-.2.4zM137.7 79.6c0 .7.2 1.3.5 1.8l.4-.1a3.2 3.2 0 0 1-.5-2h-.4v.3z"/>
        </g>
        <g fill="none" stroke="#231F20" stroke-width=".1" stroke-miterlimit="3.9">
          <path d="M139.3 76.7c-.6.4-1 1-1.3 1.6l.3.2c.3-.6.7-1.2 1.3-1.5l-.3-.3zM142.3 76.2a3.6 3.6 0 0 0-2 0v.4a3.1 3.1 0 0 1 2 0v-.4zM144.6 78.3c-.2-.7-.7-1.2-1.3-1.6l-.3.3c.6.3 1 .9 1.3 1.5l.3-.2zM144.4 81.4a3.6 3.6 0 0 0 .5-2h-.4v.2c0 .6-.2 1.2-.5 1.7l.4.1zM141.8 83.2c.8-.2 1.4-.5 2-1l-.3-.3c-.5.5-1.1.8-1.8.9l.1.4zM138.9 82.2c.5.5 1.1.8 1.9 1v-.4c-.6-.1-1.2-.4-1.7-1l-.2.4zM137.7 79.6c0 .7.2 1.3.5 1.8l.4-.1a3.2 3.2 0 0 1-.5-2h-.4v.3z"/>
        </g>
      </g>
      <g clip-rule="evenodd">
        <g fill-rule="evenodd" fill="#A6A8AB">
          <path d="M133.7 83c-.4-1-.7-2-.7-3.2h-.6c0 1.3.3 2.4.7 3.5l.6-.3zM135.4 85.5l-1.1-1.5-.6.2A9 9 0 0 0 135 86l.3-.5zM139.3 87.7a8.3 8.3 0 0 1-3-1.5l-.4.6a9 9 0 0 0 3.2 1.5l.2-.6zM142.2 87.9h-1.9l-.1.6a9 9 0 0 0 2.2 0l-.2-.6zM146.3 86.2c-.9.7-1.9 1.2-3 1.5l.2.6a9 9 0 0 0 3.2-1.5l-.4-.6zM148.3 84c-.3.6-.7 1-1.1 1.5l.3.5a9 9 0 0 0 1.4-1.8l-.6-.2zM149.6 79.8c0 1.2-.3 2.2-.7 3.2l.6.3a9 9 0 0 0 .7-3.4h-.6zM149.1 76.9l.5 1.8h.6a9 9 0 0 0-.5-2.2l-.6.4zM146.6 73.2c.9.8 1.6 1.6 2.1 2.6l.5-.3a9 9 0 0 0-2.1-2.7l-.5.4zM144 71.8a8 8 0 0 1 1.7.8l.5-.5a9 9 0 0 0-2-1l-.2.7zM139.6 71.5a8.6 8.6 0 0 1 3.3 0l.1-.7a8.9 8.9 0 0 0-3.4 0v.7zM136.9 72.6c.5-.3 1-.6 1.7-.8l-.1-.7-2 1 .4.5zM133.9 75.8c.5-1 1.2-1.8 2-2.6l-.4-.4a9 9 0 0 0-2.1 2.7l.5.3zM133 78.7c.1-.6.2-1.3.5-1.8l-.6-.4a9 9 0 0 0-.5 2.3l.6-.1z"/>
        </g>
        <g fill="none" stroke="#231F20" stroke-width=".1" stroke-miterlimit="3.9">
          <path d="M133.7 83c-.4-1-.7-2-.7-3.2h-.6c0 1.3.3 2.4.7 3.5l.6-.3zM135.4 85.5l-1.1-1.5-.6.2A9 9 0 0 0 135 86l.3-.5zM139.3 87.7a8.3 8.3 0 0 1-3-1.5l-.4.6a9 9 0 0 0 3.2 1.5l.2-.6zM142.2 87.9h-1.9l-.1.6a9 9 0 0 0 2.2 0l-.2-.6zM146.3 86.2c-.9.7-1.9 1.2-3 1.5l.2.6a9 9 0 0 0 3.2-1.5l-.4-.6zM148.3 84c-.3.6-.7 1-1.1 1.5l.3.5a9 9 0 0 0 1.4-1.8l-.6-.2zM149.6 79.8c0 1.2-.3 2.2-.7 3.2l.6.3a9 9 0 0 0 .7-3.4h-.6zM149.1 76.9l.5 1.8h.6a9 9 0 0 0-.5-2.2l-.6.4zM146.6 73.2c.9.8 1.6 1.6 2.1 2.6l.5-.3a9 9 0 0 0-2.1-2.7l-.5.4zM144 71.8a8 8 0 0 1 1.7.8l.5-.5a9 9 0 0 0-2-1l-.2.7zM139.6 71.5a8.6 8.6 0 0 1 3.3 0l.1-.7a8.9 8.9 0 0 0-3.4 0v.7zM136.9 72.6c.5-.3 1-.6 1.7-.8l-.1-.7-2 1 .4.5zM133.9 75.8c.5-1 1.2-1.8 2-2.6l-.4-.4a9 9 0 0 0-2.1 2.7l.5.3zM133 78.7c.1-.6.2-1.3.5-1.8l-.6-.4a9 9 0 0 0-.5 2.3l.6-.1z"/>
        </g>
      </g>
      <g clip-rule="evenodd">
        <g fill-rule="evenodd" fill="#D0D2D3">
          <path d="M132.1 76l-.6 2.8h.9c0-.8.2-1.6.5-2.3l-.8-.4zM134.9 72.2c-1 .8-1.7 1.7-2.3 2.8l.8.5a9 9 0 0 1 2.1-2.7l-.6-.6zM138.4 70.2c-1 .3-1.8.7-2.6 1.3l.6.6 2-1v-.9zM143.1 70a10 10 0 0 0-3.7 0l.2.8a9.1 9.1 0 0 1 3.4 0l.1-.8zM146.8 71.5c-.8-.6-1.6-1-2.6-1.3v1a9 9 0 0 1 2 1l.6-.7zM150 75a10 10 0 0 0-2.3-2.8l-.6.6a9 9 0 0 1 2.1 2.7l.8-.5zM151 78.8c0-1-.2-1.9-.5-2.7l-.8.4.5 2.3h.9zM150.3 83.6c.5-1.1.8-2.4.8-3.6l-.9-.1a9 9 0 0 1-.7 3.4l.8.3zM148 86.8c.7-.7 1.3-1.4 1.8-2.2l-.9-.4a9 9 0 0 1-1.4 1.8l.5.8zM143.8 89.1c1.2-.3 2.4-.9 3.4-1.6l-.5-.7a9 9 0 0 1-3.2 1.5l.3.8zM139.9 89.3a10.2 10.2 0 0 0 2.8 0l-.3-.8a9.2 9.2 0 0 1-2.2 0l-.3.8zM135.4 87.5c1 .7 2.2 1.3 3.4 1.6l.3-.8a9 9 0 0 1-3.2-1.5l-.5.7zM132.8 84.6c.5.8 1 1.5 1.8 2.2l.5-.8a9 9 0 0 1-1.4-1.7l-.9.3zM131.5 80c0 1.2.3 2.5.8 3.6l.8-.3c-.4-1-.7-2.2-.7-3.4h-1z"/>
        </g>
        <g fill="none" stroke="#231F20" stroke-width=".1" stroke-miterlimit="3.9">
          <path d="M132.1 76l-.6 2.8h.9c0-.8.2-1.6.5-2.3l-.8-.4zM134.9 72.2c-1 .8-1.7 1.7-2.3 2.8l.8.5a9 9 0 0 1 2.1-2.7l-.6-.6zM138.4 70.2c-1 .3-1.8.7-2.6 1.3l.6.6 2-1v-.9zM143.1 70a10 10 0 0 0-3.7 0l.2.8a9.1 9.1 0 0 1 3.4 0l.1-.8zM146.8 71.5c-.8-.6-1.6-1-2.6-1.3v1a9 9 0 0 1 2 1l.6-.7zM150 75a10 10 0 0 0-2.3-2.8l-.6.6a9 9 0 0 1 2.1 2.7l.8-.5zM151 78.8c0-1-.2-1.9-.5-2.7l-.8.4.5 2.3h.9zM150.3 83.6c.5-1.1.8-2.4.8-3.6l-.9-.1a9 9 0 0 1-.7 3.4l.8.3zM148 86.8c.7-.7 1.3-1.4 1.8-2.2l-.9-.4a9 9 0 0 1-1.4 1.8l.5.8zM143.8 89.1c1.2-.3 2.4-.9 3.4-1.6l-.5-.7a9 9 0 0 1-3.2 1.5l.3.8zM139.9 89.3a10.2 10.2 0 0 0 2.8 0l-.3-.8a9.2 9.2 0 0 1-2.2 0l-.3.8zM135.4 87.5c1 .7 2.2 1.3 3.4 1.6l.3-.8a9 9 0 0 1-3.2-1.5l-.5.7zM132.8 84.6c.5.8 1 1.5 1.8 2.2l.5-.8a9 9 0 0 1-1.4-1.7l-.9.3zM131.5 80c0 1.2.3 2.5.8 3.6l.8-.3c-.4-1-.7-2.2-.7-3.4h-1z"/>
        </g>
      </g>
      <g fill="#D0D2D3">
        <path d="M139.4 79.6v-.4a2 2 0 1 1 0 .4z"/>
        <path d="M138.1 79.6c0 .6.2 1.2.5 1.7l-6.3 2.3.5 1 4.3-1.6-2.5 3.8.8.7 3.7-5.6c.5.5 1.1.8 1.8.9l-2.1 6.3 1 .2 1.5-4.3 1.4 4.3 1.1-.2-2-6.3c.6-.1 1.2-.4 1.7-1l3.7 5.7.8-.7-2.5-3.8 4.3 1.6.5-1-6.3-2.3a3.2 3.2 0 0 0 .4-2l6.7.7v-.4-.8l-4.5-.4 3.9-2.3-.5-1-5.7 3.4c-.3-.6-.7-1.2-1.3-1.5l4.7-4.9a10 10 0 0 0-.9-.6l-3.1 3.2.5-4.5-1-.2-1 6.6a3.2 3.2 0 0 0-1.9 0l-.9-6.6-1 .2.5 4.5-3.1-3.2-.9.7 4.7 4.8c-.6.3-1 .9-1.3 1.5l-5.7-3.5-.5 1 3.9 2.4-4.5.4V80l6.6-.7v.3z"/>
      </g>
      <g fill="none" stroke="#231F20" stroke-width=".1" stroke-miterlimit="3.9">
        <path d="M139.4 79.6v-.4a2 2 0 1 1 0 .4z"/>
        <path d="M138.1 79.6c0 .6.2 1.2.5 1.7l-6.3 2.3.5 1 4.3-1.6-2.5 3.8.8.7 3.7-5.6c.5.5 1.1.8 1.8.9l-2.1 6.3 1 .2 1.5-4.3 1.4 4.3 1.1-.2-2-6.3c.6-.1 1.2-.4 1.7-1l3.7 5.7.8-.7-2.5-3.8 4.3 1.6.5-1-6.3-2.3a3.2 3.2 0 0 0 .4-2l6.7.7v-.4-.8l-4.5-.4 3.9-2.3-.5-1-5.7 3.4c-.3-.6-.7-1.2-1.3-1.5l4.7-4.9a10 10 0 0 0-.9-.6l-3.1 3.2.5-4.5-1-.2-1 6.6a3.2 3.2 0 0 0-1.9 0l-.9-6.6-1 .2.5 4.5-3.1-3.2-.9.7 4.7 4.8c-.6.3-1 .9-1.3 1.5l-5.7-3.5-.5 1 3.9 2.4-4.5.4V80l6.6-.7v.3z"/>
      </g>
      <g>
        <path fill="#A6A8AB" d="M139.4 79.6c0 .5.1 1 .4 1.2a2 2 0 0 0 3 0 2 2 0 0 0-.7-2.9 2 2 0 0 0-2.7 1.7z"/>
        <path fill="none" stroke="#231F20" stroke-width=".1" stroke-miterlimit="3.9" d="M139.4 79.6c0 .5.1 1 .4 1.2a2 2 0 0 0 3 0 2 2 0 0 0-.7-2.9 2 2 0 0 0-2.7 1.7z"/>
      </g>
    </g>
    <g>
      <g fill-rule="evenodd" clip-rule="evenodd" fill="#231F20">
        <path d="M19.9 78.8c0-.8.2-1.5.5-2.2l-.8-.5.5-1 .8.4a9 9 0 0 1 2.1-2.7l-.6-.6.9-.7.6.7c.7-.5 1.3-.8 2-1v-1l1-.2.2.9a9.1 9.1 0 0 1 3.4 0l.1-.9c.4 0 .8.2 1.1.3v.9a9 9 0 0 1 2 1l.6-.7.9.7-.6.6a9 9 0 0 1 2.1 2.7l.8-.4.5 1-.8.5.5 2.2h.9V80h-.9c0 1.1-.3 2.3-.7 3.3l.8.3-.5 1-.9-.3c-.4.6-.8 1.2-1.4 1.8l.5.7-.9.7-.4-.7c-1 .7-2 1.2-3.2 1.5l.3.8-1 .3-.4-.9a9 9 0 0 1-2.2 0l-.3.9c-.4 0-.8-.2-1.1-.3l.3-.8a8.9 8.9 0 0 1-3.2-1.5l-.5.7-.8-.7.5-.7c-.6-.6-1-1.2-1.4-1.8l-.9.3-.5-1 .8-.3a9 9 0 0 1-.7-3.4l-1 .1a10 10 0 0 1 .1-1.1l.9-.1z"/>
        <circle cx="28.8" cy="79.7" r="13.3"/>
        <path d="M21 76.9c-.3.6-.4 1.2-.5 1.8l3-.3-2.6-1.5zM23.5 73.3c-.9.7-1.6 1.6-2.1 2.6l4.4 2.7c.3-.7.7-1.2 1.3-1.6l-3.6-3.7zM26 71.8l-1.6.8 2 2.2-.3-3zM30.4 71.5a8.3 8.3 0 0 0-3.3 0l.7 5.1a3.2 3.2 0 0 1 2 0l.6-5zM33.2 72.6c-.5-.3-1-.6-1.7-.8l-.3 3 2-2.2zM36.2 75.9c-.5-1-1.2-2-2-2.6L30.4 77c.6.4 1 1 1.3 1.6l4.4-2.7zM37 78.7c0-.6-.2-1.2-.4-1.8l-2.5 1.5 3 .3zM36.4 83c.4-1 .7-2 .7-3.2l-5.2-.5v.3c0 .7-.1 1.2-.4 1.7l4.9 1.8zM34.7 85.5l1.1-1.4-2.8-1 1.7 2.4zM30.8 87.7c1.1-.3 2.1-.8 3-1.4L31 81.9c-.5.5-1.1.8-1.8.9l1.6 5zM27.9 88a8.9 8.9 0 0 0 1.8 0l-.9-3-1 3zM23.8 86.3c.8.6 1.9 1.1 3 1.4l1.6-5c-.7 0-1.3-.3-1.8-.8l-2.8 4.4zM21.8 84c.3.6.7 1 1.1 1.5l1.7-2.5-2.8 1zM20.5 79.9c0 1.1.3 2.2.7 3.2l4.9-1.8a3.2 3.2 0 0 1-.5-2l-5.1.6z"/>
      </g>
      <g clip-rule="evenodd">
        <g fill-rule="evenodd" fill="#D0D2D3">
          <path d="M25.2 79.7l.1-.8a3.6 3.6 0 1 1 0 .8z"/>
          <circle cx="28.8" cy="79.7" r="4.1"/>
          <path d="M25.9 79.7c0 .6.2 1.3.6 1.8a3 3 0 0 0 5.2-1.8V79a3 3 0 0 0-5.8.7z"/>
          <path d="M26.9 79.7v-.4a2 2 0 0 1 2.7-1.3 2 2 0 1 1-2.7 1.7z"/>
        </g>
        <g fill="none" stroke="#231F20" stroke-width=".1" stroke-miterlimit="3.9">
          <path d="M25.2 79.7l.1-.8a3.6 3.6 0 1 1 0 .8z"/>
          <circle cx="28.8" cy="79.7" r="4.1"/>
          <path d="M25.9 79.7c0 .6.2 1.3.6 1.8a3 3 0 0 0 5.2-1.8V79a3 3 0 0 0-5.8.7z"/>
          <path d="M26.9 79.7v-.4a2 2 0 0 1 2.7-1.3 2 2 0 1 1-2.7 1.7z"/>
        </g>
      </g>
      <g clip-rule="evenodd">
        <g fill-rule="evenodd" fill="#A6A8AB">
          <path d="M26.8 76.7c-.6.4-1 1-1.3 1.6l.3.3c.3-.7.7-1.2 1.3-1.6l-.3-.3zM29.8 76.2a3.5 3.5 0 0 0-2 0v.4a3.2 3.2 0 0 1 2 0v-.4zM32.1 78.3c-.2-.6-.7-1.2-1.3-1.6l-.3.3c.6.4 1 1 1.3 1.6l.3-.3zM31.9 81.4a3.6 3.6 0 0 0 .5-2h-.5v.2c0 .7-.1 1.2-.4 1.7l.4.1zM29.3 83.2c.8-.1 1.4-.4 2-1L31 82c-.5.5-1.1.8-1.8.9l.1.4zM26.4 82.3c.5.5 1.1.8 1.9.9v-.4c-.6 0-1.2-.4-1.7-.9l-.2.4zM25.2 79.7c0 .6.2 1.2.5 1.7l.4-.1a3.2 3.2 0 0 1-.5-2h-.4v.4z"/>
        </g>
        <g fill="none" stroke="#231F20" stroke-width=".1" stroke-miterlimit="3.9">
          <path d="M26.8 76.7c-.6.4-1 1-1.3 1.6l.3.3c.3-.7.7-1.2 1.3-1.6l-.3-.3zM29.8 76.2a3.5 3.5 0 0 0-2 0v.4a3.2 3.2 0 0 1 2 0v-.4zM32.1 78.3c-.2-.6-.7-1.2-1.3-1.6l-.3.3c.6.4 1 1 1.3 1.6l.3-.3zM31.9 81.4a3.6 3.6 0 0 0 .5-2h-.5v.2c0 .7-.1 1.2-.4 1.7l.4.1zM29.3 83.2c.8-.1 1.4-.4 2-1L31 82c-.5.5-1.1.8-1.8.9l.1.4zM26.4 82.3c.5.5 1.1.8 1.9.9v-.4c-.6 0-1.2-.4-1.7-.9l-.2.4zM25.2 79.7c0 .6.2 1.2.5 1.7l.4-.1a3.2 3.2 0 0 1-.5-2h-.4v.4z"/>
        </g>
      </g>
      <g clip-rule="evenodd">
        <g fill-rule="evenodd" fill="#A6A8AB">
          <path d="M21.2 83c-.4-1-.7-2-.7-3.1h-.6c0 1.2.3 2.4.7 3.4l.6-.2zM23 85.5c-.5-.4-1-.9-1.2-1.4l-.6.2a9 9 0 0 0 1.4 1.8l.3-.6zM26.8 87.7a8.3 8.3 0 0 1-3-1.4l-.4.5c1 .7 2 1.2 3.2 1.5l.2-.6zM29.7 88a8.3 8.3 0 0 1-1.8 0l-.2.5a8.4 8.4 0 0 0 2.2 0l-.2-.6zM33.8 86.3c-.9.6-1.9 1.1-3 1.4l.2.6c1.2-.3 2.2-.8 3.2-1.5l-.4-.5zM35.8 84c-.3.6-.7 1-1.1 1.5l.3.6c.6-.6 1-1.2 1.4-1.8l-.6-.2zM37.1 79.8c0 1.2-.3 2.3-.7 3.3l.6.2c.4-1 .7-2.2.7-3.4h-.6zM36.6 76.9l.5 1.8h.6c0-.7-.3-1.4-.5-2.1l-.6.3zM34.1 73.3c.9.7 1.6 1.6 2 2.6l.6-.4a9 9 0 0 0-2.1-2.7l-.5.5zM31.5 71.8l1.7.8.5-.4a9 9 0 0 0-2.1-1v.6zM27.1 71.5a8.3 8.3 0 0 1 3.3 0l.1-.6a9 9 0 0 0-3.4 0v.6zM24.4 72.6c.5-.3 1-.6 1.7-.8l-.1-.6a9 9 0 0 0-2 1l.4.4zM21.4 75.9c.5-1 1.2-2 2-2.6l-.4-.5a9 9 0 0 0-2.1 2.7l.5.4zM20.5 78.7L21 77l-.5-.3c-.3.7-.4 1.4-.5 2.2h.6z"/>
        </g>
        <g fill="none" stroke="#231F20" stroke-width=".1" stroke-miterlimit="3.9">
          <path d="M21.2 83c-.4-1-.7-2-.7-3.1h-.6c0 1.2.3 2.4.7 3.4l.6-.2zM23 85.5c-.5-.4-1-.9-1.2-1.4l-.6.2a9 9 0 0 0 1.4 1.8l.3-.6zM26.8 87.7a8.3 8.3 0 0 1-3-1.4l-.4.5c1 .7 2 1.2 3.2 1.5l.2-.6zM29.7 88a8.3 8.3 0 0 1-1.8 0l-.2.5a8.4 8.4 0 0 0 2.2 0l-.2-.6zM33.8 86.3c-.9.6-1.9 1.1-3 1.4l.2.6c1.2-.3 2.2-.8 3.2-1.5l-.4-.5zM35.8 84c-.3.6-.7 1-1.1 1.5l.3.6c.6-.6 1-1.2 1.4-1.8l-.6-.2zM37.1 79.8c0 1.2-.3 2.3-.7 3.3l.6.2c.4-1 .7-2.2.7-3.4h-.6zM36.6 76.9l.5 1.8h.6c0-.7-.3-1.4-.5-2.1l-.6.3zM34.1 73.3c.9.7 1.6 1.6 2 2.6l.6-.4a9 9 0 0 0-2.1-2.7l-.5.5zM31.5 71.8l1.7.8.5-.4a9 9 0 0 0-2.1-1v.6zM27.1 71.5a8.3 8.3 0 0 1 3.3 0l.1-.6a9 9 0 0 0-3.4 0v.6zM24.4 72.6c.5-.3 1-.6 1.7-.8l-.1-.6a9 9 0 0 0-2 1l.4.4zM21.4 75.9c.5-1 1.2-2 2-2.6l-.4-.5a9 9 0 0 0-2.1 2.7l.5.4zM20.5 78.7L21 77l-.5-.3c-.3.7-.4 1.4-.5 2.2h.6z"/>
        </g>
      </g>
      <g clip-rule="evenodd">
        <g fill-rule="evenodd" fill="#D0D2D3">
          <path d="M19.6 76.1c-.3.9-.5 1.8-.6 2.8l.9-.1c0-.8.2-1.5.5-2.2l-.8-.5zM22.4 72.2c-1 .8-1.7 1.8-2.3 2.9l.8.4a9 9 0 0 1 2.1-2.7l-.6-.6zM25.9 70.3c-1 .3-1.8.7-2.6 1.2l.6.7c.7-.5 1.3-.8 2-1v-1zM30.6 70a10 10 0 0 0-3.7 0l.2.9a9.1 9.1 0 0 1 3.4 0l.1-.9zM34.3 71.5c-.8-.5-1.7-1-2.6-1.2v.9a9 9 0 0 1 2 1l.6-.7zM37.5 75c-.6-1-1.4-2-2.3-2.8l-.6.6a9 9 0 0 1 2.1 2.7l.8-.4zM38.6 78.9c0-1-.3-2-.6-2.8l-.8.5.5 2.2h.9zM37.8 83.6c.5-1.1.8-2.3.8-3.6h-.9c0 1.1-.3 2.3-.7 3.3l.8.3zM35.5 86.8c.7-.6 1.3-1.4 1.8-2.2l-.9-.3c-.4.6-.8 1.2-1.4 1.8l.5.7zM31.3 89.1c1.2-.3 2.4-.8 3.3-1.6l-.4-.7c-1 .7-2 1.2-3.2 1.5l.3.8zM27.4 89.4a10 10 0 0 0 2.8 0l-.3-.9a9 9 0 0 1-2.2 0l-.3.9zM23 87.5c1 .8 2 1.3 3.3 1.6l.3-.8a8.9 8.9 0 0 1-3.2-1.5l-.5.7zM20.3 84.6c.5.8 1 1.6 1.8 2.2l.5-.7c-.6-.6-1-1.2-1.4-1.8l-.9.3zM19 80c0 1.3.3 2.5.8 3.6l.8-.3a9 9 0 0 1-.7-3.4l-1 .1z"/>
        </g>
        <g fill="none" stroke="#231F20" stroke-width=".1" stroke-miterlimit="3.9">
          <path d="M19.6 76.1c-.3.9-.5 1.8-.6 2.8l.9-.1c0-.8.2-1.5.5-2.2l-.8-.5zM22.4 72.2c-1 .8-1.7 1.8-2.3 2.9l.8.4a9 9 0 0 1 2.1-2.7l-.6-.6zM25.9 70.3c-1 .3-1.8.7-2.6 1.2l.6.7c.7-.5 1.3-.8 2-1v-1zM30.6 70a10 10 0 0 0-3.7 0l.2.9a9.1 9.1 0 0 1 3.4 0l.1-.9zM34.3 71.5c-.8-.5-1.7-1-2.6-1.2v.9a9 9 0 0 1 2 1l.6-.7zM37.5 75c-.6-1-1.4-2-2.3-2.8l-.6.6a9 9 0 0 1 2.1 2.7l.8-.4zM38.6 78.9c0-1-.3-2-.6-2.8l-.8.5.5 2.2h.9zM37.8 83.6c.5-1.1.8-2.3.8-3.6h-.9c0 1.1-.3 2.3-.7 3.3l.8.3zM35.5 86.8c.7-.6 1.3-1.4 1.8-2.2l-.9-.3c-.4.6-.8 1.2-1.4 1.8l.5.7zM31.3 89.1c1.2-.3 2.4-.8 3.3-1.6l-.4-.7c-1 .7-2 1.2-3.2 1.5l.3.8zM27.4 89.4a10 10 0 0 0 2.8 0l-.3-.9a9 9 0 0 1-2.2 0l-.3.9zM23 87.5c1 .8 2 1.3 3.3 1.6l.3-.8a8.9 8.9 0 0 1-3.2-1.5l-.5.7zM20.3 84.6c.5.8 1 1.6 1.8 2.2l.5-.7c-.6-.6-1-1.2-1.4-1.8l-.9.3zM19 80c0 1.3.3 2.5.8 3.6l.8-.3a9 9 0 0 1-.7-3.4l-1 .1z"/>
        </g>
      </g>
      <g fill="#D0D2D3">
        <path d="M26.9 79.7v-.4a2 2 0 0 1 2.7-1.3 2 2 0 1 1-2.7 1.7z"/>
        <path d="M25.6 79.7c0 .6.2 1.1.5 1.6l-6.3 2.3.5 1 4.3-1.6-2.5 3.8.8.7 3.7-5.6c.5.5 1.1.8 1.8.9L26.3 89l1 .3 1.5-4.3 1.4 4.3c.4 0 .8-.2 1.1-.3l-2.1-6.3c.7-.1 1.3-.4 1.8-.9l3.7 5.6.8-.7L33 83l4.3 1.6.5-1-6.3-2.3a3.2 3.2 0 0 0 .4-2l6.7.7v-.4-.7l-4.5-.5 3.9-2.3-.5-1-5.7 3.5c-.3-.7-.7-1.2-1.3-1.6l4.7-4.8-.9-.7-3.2 3.3.6-4.5-1-.3-1 6.6a3.1 3.1 0 0 0-2 0L27 70l-1 .3.5 4.5-3.1-3.3-.9.7 4.7 4.8c-.6.4-1 1-1.3 1.6L20.1 75l-.5 1 3.9 2.3-4.5.5a9.9 9.9 0 0 0 0 1.1l6.6-.6v.3z"/>
      </g>
      <g fill="none" stroke="#231F20" stroke-width=".1" stroke-miterlimit="3.9">
        <path d="M26.9 79.7v-.4a2 2 0 0 1 2.7-1.3 2 2 0 1 1-2.7 1.7z"/>
        <path d="M25.6 79.7c0 .6.2 1.1.5 1.6l-6.3 2.3.5 1 4.3-1.6-2.5 3.8.8.7 3.7-5.6c.5.5 1.1.8 1.8.9L26.3 89l1 .3 1.5-4.3 1.4 4.3c.4 0 .8-.2 1.1-.3l-2.1-6.3c.7-.1 1.3-.4 1.8-.9l3.7 5.6.8-.7L33 83l4.3 1.6.5-1-6.3-2.3a3.2 3.2 0 0 0 .4-2l6.7.7v-.4-.7l-4.5-.5 3.9-2.3-.5-1-5.7 3.5c-.3-.7-.7-1.2-1.3-1.6l4.7-4.8-.9-.7-3.2 3.3.6-4.5-1-.3-1 6.6a3.1 3.1 0 0 0-2 0L27 70l-1 .3.5 4.5-3.1-3.3-.9.7 4.7 4.8c-.6.4-1 1-1.3 1.6L20.1 75l-.5 1 3.9 2.3-4.5.5a9.9 9.9 0 0 0 0 1.1l6.6-.6v.3z"/>
      </g>
      <g>
        <path fill="#A6A8AB" d="M26.9 79.7c0 .4.1.9.4 1.2a2 2 0 1 0-.4-1.2z"/>
        <path fill="none" stroke="#231F20" stroke-width=".1" stroke-miterlimit="3.9" d="M26.9 79.7c0 .4.1.9.4 1.2a2 2 0 1 0-.4-1.2z"/>
      </g>
    </g>
    <path clip-rule="evenodd" fill="none" stroke="#BBBDBF" stroke-width=".1" stroke-miterlimit="3.9" d="M18.3 54.6c11.3-.2 60.8 2.9 110.5 6.1 0-1.5-3.8-1.7-8.4-2.3-16.6-2-39.5-4.6-71.7-7.1-13.3-1-23.9-2.1-28.2-2.1"/>
    <path opacity=".2" fill="#F4F4F4" d="M66.4 35l1.5 12-20.2-6s-.4-2-.6-4.5c10.3-1.3 19.3-1.4 19.3-1.4zM42.3 36.7l1 5.7-4.8-1.9-.5-2c-.1-.7.3-1.3 1-1.5l3.3-.3zM111 45.2l-.2 5.8-32.2-10.6s-.6-2.8-1.4-5.5c5.4-.3 11.9.4 17.5 2.3 9 3.1 16.3 8 16.3 8z"/>
    <g>
      <path fill="#A0A0A0" d="M30.7 52.5s-.4-1.2-1.7-1.2h-3.8c-.7 0-2.3 1-2.3 3.1v1.8s.2 1.7 2.3 1.7h4s1.5 0 1.5-1.5v-3.9z"/>
      <path fill="#FFF" d="M30.2 52.8s-.3-1-1.5-1h-3.3c-.7 0-2 .8-2 2.7V56s.1 1.5 2 1.5h3.5s1.3 0 1.3-1.3v-3.4z"/>
    </g>
  </g>
</svg>
