<?xml version="1.0" encoding="utf-8"?>
<!-- Generator: Adobe Illustrator 16.0.0, SVG Export Plug-In . SVG Version: 6.00 Build 0)  -->
<!DOCTYPE svg PUBLIC "-//W3C//DTD SVG 1.1//EN" "http://www.w3.org/Graphics/SVG/1.1/DTD/svg11.dtd">
<svg version="1.1" id="Layer_1" xmlns="http://www.w3.org/2000/svg" xmlns:xlink="http://www.w3.org/1999/xlink" x="0px" y="0px"
	 width="1920px" height="203px" viewBox="911.5 0.2 1920 203" enable-background="new 911.5 0.2 1920 203" xml:space="preserve">
<ellipse fill="#ABCF25" cx="2366.2" cy="30.6" rx="22.4" ry="30.4"/>
<path fill="#BDD951" d="M2366.2,0.2V61c12.2,0,22.5-13.6,22.5-30.399S2378.4,0.2,2366.2,0.2z"/>
<path fill="#8E6639" d="M2366.4,99.6c-0.5,0-1-0.5-1-1v-85.8c0-0.601,0.5-1,1-1s1.1,0.399,1.1,1v85.6c0,0.6-0.5,1-1,1L2366.4,99.6z"
	/>
<path opacity="0.6" fill="#A0BC48" enable-background="new    " d="M2348.7,26.2c0.3-5.7,3-10.7,6.3-15.2c0.801-1-1-2.1-1.8-1
	c-3.739,4.637-6.034,10.271-6.6,16.2C2346.6,27.5,2348.6,27.5,2348.7,26.2z M2357.6,8.4c0.8-0.8,1.601-1.5,2.601-2.1
	c1.1-0.801,0-2.601-1-1.801c-1.111,0.733-2.148,1.571-3.101,2.5C2355.1,8,2356.6,9.4,2357.6,8.4z"/>
<ellipse fill="#ABCF25" cx="2366.2" cy="30.6" rx="22.4" ry="30.4"/>
<path fill="#BDD951" d="M2366.2,0.2V61c12.2,0,22.5-13.6,22.5-30.399S2378.4,0.2,2366.2,0.2z"/>
<path fill="#744E3B" d="M2366.4,99.6c-0.5,0-1-0.5-1-1V11.7h2.1v86.7c0,0.6-0.5,1-1,1L2366.4,99.6z"/>
<path fill="#BDD951" d="M2348.7,26.2c0.3-5.7,3-10.7,6.3-15.2c0.801-1-1-2.1-1.8-1c-3.739,4.637-6.034,10.271-6.6,16.2
	C2346.6,27.5,2348.6,27.5,2348.7,26.2z M2357.6,8.4c0.8-0.8,1.601-1.5,2.601-2.1c1.1-0.801,0-2.601-1-1.801
	c-1.111,0.733-2.148,1.571-3.101,2.5C2355.1,8,2356.6,9.4,2357.6,8.4z"/>
<path fill="#67993A" d="M2362.5,87.4c-0.899,0-1.699,0.2-2.5,0.5c-4.093-6.232-12.463-7.966-18.694-3.873
	c-1.267,0.832-2.384,1.87-3.306,3.073c-1.531-4.379-6.323-6.687-10.702-5.155c-0.988,0.346-1.903,0.873-2.697,1.555
	c-6.216-7.184-17.077-7.968-24.261-1.753c-0.659,0.57-1.274,1.19-1.84,1.854c-3.431-2.32-8.094-1.419-10.414,2.013
	c-0.816,1.208-1.264,2.629-1.285,4.087c0,4.2,3.3,7.4,7.399,7.4l73.7-1.601c1.271-3-0.133-6.463-3.133-7.732
	c-0.718-0.304-1.488-0.463-2.268-0.467V87.4z"/>
<path opacity="0.1" fill="#67993A" enable-background="new    " d="M2362.5,87.4c-0.899,0-1.699,0.2-2.5,0.5l-1-1.4
	c-6.3,1.7-12.6,2.9-19,3.601c-10.914,1.31-21.918,1.711-32.899,1.2c-6.2-0.4-13.8-0.301-20.3-2.2v0.7c0,4,3.3,7.3,7.399,7.3
	l73.7-1.601c1.271-3-0.133-6.463-3.133-7.732c-0.718-0.304-1.488-0.463-2.268-0.467V87.4z"/>
<path opacity="0.6" fill="#7BAD47" enable-background="new    " d="M2301.801,84.801c2-2,4.399-3,6.899-3.801
	c0.8-0.199,0.5-1.5-0.399-1.3c-2.7,0.9-5.4,2-7.4,4.101c-0.699,0.6,0.301,1.6,1,1H2301.801z M2312,80.7c0.601,0,1.301,0.2,2,0.5
	c0.7,0.3,1.4-0.8,0.601-1.2c-0.7-0.3-1.5-0.5-2.3-0.6c-0.4,0-0.7,0-0.801,0.5c-0.1,0.3,0,0.7,0.4,0.8H2312z M2328.7,84.6
	c0.601-0.2,1.3-0.2,2,0c0.3,0,0.601-0.4,0.601-0.8c0-0.4-0.301-0.601-0.7-0.601c-0.7-0.1-1.5-0.1-2.3,0.101
	C2327.5,83.6,2327.9,84.9,2328.7,84.6z M2333.2,85.7c0.7,0.5,1.4,1,2,1.7c0.101,0.3,0.5,0.5,0.8,0.3c0.301-0.2,0.5-0.6,0.301-1
	c-0.7-0.8-1.5-1.5-2.4-2.2c-0.3-0.199-0.8,0-1,0.2C2332.801,85.1,2332.9,85.5,2333.2,85.7L2333.2,85.7z M2341.9,87.4
	c1-1,2.3-1.6,3.6-2.2c0.801-0.3,0-1.5-0.699-1.1c-1.416,0.55-2.733,1.327-3.9,2.3C2340.301,87,2341.201,87.9,2341.9,87.4
	L2341.9,87.4z M2347.5,84.7l2.4-0.3c0.4,0,0.6-0.5,0.5-0.8c-0.1-0.4-0.5-0.601-0.9-0.5l-2.3,0.3c-0.399,0-0.6,0.5-0.5,0.9
	C2346.801,84.6,2347.2,84.801,2347.5,84.7z M2290,87.2c0.601-1,1.601-1.3,2.601-1.8c0.8-0.3,0-1.5-0.7-1.1c-1,0.5-2.199,1-3,1.899
	c-0.5,0.7,0.5,1.601,1,1H2290z"/>
<path fill="none" stroke="#744E3B" stroke-width="1.7" stroke-miterlimit="10" d="M2352.6,33.2L2367,46.1 M2353.9,20.801L2367,32.5
	 M2378.801,19.5L2366.4,32 M2378.801,32.6l-12.4,12.5"/>
<path fill="#C1AA95" d="M0,99.6h3743v56.7H0V99.6z"/>
<path opacity="0.7" fill="#58595B" enable-background="new    " d="M0,122.4h3743v27.8H0V122.4z"/>
<ellipse fill="#4A8215" cx="1482.4" cy="91.3" rx="7.4" ry="6.3"/>
<ellipse fill="#4A8215" cx="1709.9" cy="94.8" rx="10.5" ry="8.9"/>
<ellipse fill="#4A8215" cx="1743.9" cy="94.8" rx="10.5" ry="8.9"/>
<ellipse fill="#4A8215" cx="1751.301" cy="85.7" rx="10.5" ry="8.9"/>
<ellipse fill="#4A8215" cx="2054.6" cy="85.8" rx="22" ry="18.7"/>
<ellipse fill="#4A8215" cx="2141.301" cy="85.8" rx="22" ry="18.7"/>
<ellipse fill="#52910F" cx="1950.301" cy="94.3" rx="22" ry="18.7"/>
<ellipse fill="#52910F" cx="1921.801" cy="84.8" rx="29.3" ry="24.9"/>
<ellipse fill="#4A8215" cx="2013.6" cy="94.8" rx="10.5" ry="8.9"/>
<path fill="#58A514" d="M0,95h3743v21H0V95z"/>
<g>
	<path fill="#A7A9AC" d="M1980,135.1h6.2v2.5h-6.2V135.1z M1959.9,135.1h10.1v2.5h-10.1V135.1z M1939.7,135.1h10.101v2.5H1939.7
		V135.1z M1919.6,135.1h10.1v2.5h-10.1V135.1z M1899.5,135.1h10.101v2.5H1899.5V135.1z M1879.4,135.1h10.1v2.5h-10.1V135.1z
		 M1859.301,135.1h10.1v2.5h-10.1V135.1z M1839.1,135.1h10.1v2.5h-10.1V135.1z M1819,135.1h10.101v2.5H1819V135.1z M1798.9,135.1
		h10.1v2.5h-10.1V135.1z M1778.801,135.1h10.1v2.5h-10.1V135.1z M1758.7,135.1h10.101v2.5H1758.7V135.1z M1738.5,135.1h10.101v2.5
		H1738.5V135.1z M1718.4,135.1h10v2.5h-10V135.1z M2221.6,135.1h10.101v2.5H2221.6V135.1z M2201.4,135.1h10.1v2.5h-10.1V135.1z
		 M2240.1,135.1h10.101v2.5H2240.1V135.1z M2181.301,135.1h10.1v2.5h-10.1V135.1z M2161.2,135.1h10.101v2.5H2161.2V135.1z
		 M2141.1,135.1h10.101v2.5H2141.1V135.1z M2120.9,135.1h10.1v2.5h-10.1V135.1z M2100.801,135.1h10.1v2.5h-10.1V135.1z
		 M2080.7,135.1h10.101v2.5H2080.7V135.1z M2060.6,135.1h10.101v2.5H2060.6V135.1z M2040.5,135.1h10.101v2.5H2040.5V135.1z
		 M2020.301,135.1h10.1v2.5h-10.1V135.1z M2441.301,135.1h10.1v2.5h-10.1V135.1z M2421.2,135.1h10.101v2.5H2421.2V135.1z
		 M2401.1,135.1h10.101v2.5H2401.1V135.1z M2381,135.1h10.101v2.5H2381V135.1z M2360.801,135.1h10.1v2.5h-10.1V135.1z M2340.7,135.1
		h10.101v2.5H2340.7V135.1z M2320.6,135.1h10.101v2.5H2320.6V135.1z M2300.5,135.1h10.101v2.5H2300.5V135.1z M2280.4,135.1h10.1v2.5
		h-10.1V135.1z M2260.2,135.1h10.101v2.5H2260.2V135.1z M2462.2,135.1h10.101v2.5H2462.2V135.1z M2480.7,135.1h10.101v2.5H2480.7
		V135.1z M2661.801,135.1h10.1v2.5h-10.1V135.1z M2641.7,135.1h10.101v2.5H2641.7V135.1z M2621.6,135.1h10.101v2.5H2621.6V135.1z
		 M2601.4,135.1h10.1v2.5h-10.1V135.1z M2581.301,135.1h10.1v2.5h-10.1V135.1z M2742.2,135.1h10.101v2.5H2742.2V135.1z
		 M2722.1,135.1h10.101v2.5H2722.1V135.1z M2702,135.1h10.101v2.5H2702V135.1z M2681.9,135.1h10.1v2.5h-10.1V135.1z M2561.2,135.1
		h10.101v2.5H2561.2V135.1z M2541.1,135.1h10.101v2.5H2541.1V135.1z M2521,135.1h10.101v2.5H2521V135.1z M2500.801,135.1h10.1v2.5
		h-10.1V135.1z M2000.2,135.1h10.101v2.5H2000.2V135.1z"/>
	<path fill="#A7A9AC" d="M1980.1,135.1h10v2.5h-10V135.1z M1698.301,135.1h10.1v2.5h-10.1V135.1z M1678.2,135.1h10.101v2.5H1678.2
		V135.1z M1658.1,135.1h10.1v2.5h-10.1V135.1z M1638,135.1h10.101v2.5H1638V135.1z M1617.801,135.1h10.1v2.5h-10.1V135.1z
		 M1597.7,135.1h10.101v2.5H1597.7V135.1z M1577.6,135.1h10.1v2.5h-10.1V135.1z M1557.5,135.1h10.101v2.5H1557.5V135.1z
		 M1537.301,135.1h10.1v2.5h-10.1V135.1z M1517.2,135.1h10.101v2.5H1517.2V135.1z M1497.1,135.1h10.1v2.5h-10.1V135.1z
		 M1476.9,135.1h10.1v2.5h-10.1V135.1z M1456.801,135.1h10.1v2.5h-10.1V135.1z M1436.7,135.1h10.101v2.5H1436.7V135.1z
		 M1416.6,135.1h10.1v2.5h-10.1V135.1z M1396.5,135.1h10.101v2.5H1396.5V135.1z M1376.4,135.1h10.1v2.5h-10.1V135.1z M1356.2,135.1
		h10.101v2.5H1356.2V135.1z M1336.1,135.1h10.1v2.5h-10.1V135.1z M1316,135.1h10.101v2.5H1316V135.1z M1295.801,135.1h10.1v2.5
		h-10.1V135.1z M1275.7,135.1h10.101v2.5H1275.7V135.1z M1255.6,135.1h10.1v2.5h-10.1V135.1z M1235.5,135.1h10.101v2.5H1235.5V135.1
		z M1215.4,135.1h10.1v2.5h-10.1V135.1z M1195.301,135.1h10.1v2.5h-10.1V135.1z M1175.1,135.1h10.1v2.5h-10.1V135.1z M1155,135.1
		h10.101v2.5H1155V135.1z M1134.9,135.1h10.1v2.5h-10.1V135.1z M1114.7,135.1h10.101v2.5H1114.7V135.1z M1094.1,135.1h10.1v2.5
		h-10.1V135.1z M1074,135.1h10.101v2.5H1074V135.1z M1054,135.1h10.101v2.5H1054V135.1z M1033.801,135.1h10.1v2.5h-10.1V135.1z
		 M1013.7,135.1h10.101v2.5H1013.7V135.1z M993.6,135.1h10.1v2.5h-10.1V135.1z"/>
</g>
<g>
	<path fill="#A7A9AC" d="M3728.7,135.1h6.2v2.5h-6.2V135.1z M3708.6,135.1h10.101v2.5H3708.6V135.1z M3688.4,135.1h10.1v2.5h-10.1
		V135.1z M3668.301,135.1h10.1v2.5h-10.1V135.1z M3648.2,135.1h10.101v2.5H3648.2V135.1z M3628.1,135.1h10.101v2.5H3628.1V135.1z
		 M3607.9,135.1h10.1v2.5h-10.1V135.1z M3587.801,135.1h10.1v2.5h-10.1V135.1z M3567.7,135.1h10.101v2.5H3567.7V135.1z
		 M3547.6,135.1h10.101v2.5H3547.6V135.1z M3527.5,135.1h10.101v2.5H3527.5V135.1z M3507.301,135.1h10.1v2.5h-10.1V135.1z
		 M3487.2,135.1h10.101v2.5H3487.2V135.1z M3467.1,135.1h10v2.5h-10V135.1z"/>
	<path fill="#A7A9AC" d="M3728.801,135.1h10v2.5h-10V135.1z M3447,135.1h10.101v2.5H3447V135.1z M3426.9,135.1h10.1v2.5h-10.1V135.1
		z M3406.801,135.1h10.1v2.5h-10.1V135.1z M3386.6,135.1h10.101v2.5H3386.6V135.1z M3366.5,135.1h10.101v2.5H3366.5V135.1z
		 M3346.4,135.1h10.1v2.5h-10.1V135.1z M3326.301,135.1h10.1v2.5h-10.1V135.1z M3306.2,135.1h10.101v2.5H3306.2V135.1z M3286,135.1
		h10.101v2.5H3286V135.1z M3265.9,135.1h10.1v2.5h-10.1V135.1z M3245.7,135.1h10.101v2.5H3245.7V135.1z M3225.6,135.1h10.101v2.5
		H3225.6V135.1z M3205.5,135.1h10.101v2.5H3205.5V135.1z M3185.4,135.1h10.1v2.5h-10.1V135.1z M3165.301,135.1h10.1v2.5h-10.1V135.1
		z M3145.2,135.1h10.101v2.5H3145.2V135.1z M3125,135.1h10.101v2.5H3125V135.1z M3104.9,135.1h10.1v2.5h-10.1V135.1z
		 M3084.801,135.1h10.1v2.5h-10.1V135.1z M3064.7,135.1h10.101v2.5H3064.7V135.1z M3044.5,135.1h10.101v2.5H3044.5V135.1z
		 M3024.4,135.1h10.1v2.5h-10.1V135.1z M3004.301,135.1h10.1v2.5h-10.1V135.1z M2984.2,135.1h10.101v2.5H2984.2V135.1z
		 M2964.1,135.1h10.101v2.5H2964.1V135.1z M2943.9,135.1h10.1v2.5h-10.1V135.1z M2923.801,135.1h10.1v2.5h-10.1V135.1z
		 M2903.7,135.1h10.101v2.5H2903.7V135.1z M2883.6,135.1h10.101v2.5H2883.6V135.1z M2863.4,135.1h10.1v2.5h-10.1V135.1z
		 M2842.801,135.1h10.1v2.5h-10.1V135.1z M2822.7,135.1h10.101v2.5H2822.7V135.1z M2802.6,135.1h10.101v2.5H2802.6V135.1z
		 M2782.5,135.1h10.101v2.5H2782.5V135.1z M2762.4,135.1h10.1v2.5h-10.1V135.1z"/>
</g>
<g>
	<path fill="#A7A9AC" d="M974.6,135.1h6.2v2.5h-6.2V135.1z M954.5,135.1H964.6v2.5H954.5V135.1z M934.4,135.1h10.1v2.5h-10.1V135.1z
		 M914.2,135.1h10.101v2.5H914.2V135.1z M894.1,135.1h10.1v2.5h-10.1V135.1z M874,135.1H884.1v2.5H874V135.1z M853.9,135.1H864v2.5
		h-10.1V135.1z M833.7,135.1h10.101v2.5H833.7V135.1z M813.6,135.1h10.1v2.5h-10.1V135.1z M793.5,135.1H803.6v2.5H793.5V135.1z
		 M773.4,135.1h10.1v2.5h-10.1V135.1z M753.301,135.1h10.1v2.5h-10.1V135.1z M733.1,135.1h10.1v2.5h-10.1V135.1z M713,135.1h10v2.5
		h-10V135.1z"/>
	<path fill="#A7A9AC" d="M974.7,135.1h10v2.5h-10V135.1z M692.9,135.1H703v2.5h-10.1V135.1z M672.801,135.1h10.1v2.5h-10.1V135.1z
		 M652.7,135.1h10.101v2.5H652.7V135.1z M632.6,135.1h10.1v2.5h-10.1V135.1z M612.5,135.1H622.6v2.5H612.5V135.1z M592.301,135.1
		h10.1v2.5h-10.1V135.1z M572.2,135.1h10.101v2.5H572.2V135.1z M552.1,135.1h10.1v2.5h-10.1V135.1z M531.9,135.1H542v2.5h-10.1
		V135.1z M511.801,135.1h10.1v2.5h-10.1V135.1z M491.7,135.1h10.101v2.5H491.7V135.1z M471.5,135.1H481.6v2.5H471.5V135.1z
		 M451.5,135.1H461.6v2.5H451.5V135.1z M431.301,135.1h10.1v2.5h-10.1V135.1z M411.2,135.1h10.101v2.5H411.2V135.1z M391.1,135.1
		h10.1v2.5h-10.1V135.1z M371,135.1H381.1v2.5H371V135.1z M350.8,135.1H360.9v2.5H350.8V135.1z M330.7,135.1h10.1v2.5h-10.1V135.1z
		 M310.6,135.1h10.1v2.5h-10.1V135.1z M290.5,135.1H300.6v2.5H290.5V135.1z M270.4,135.1h10.1v2.5h-10.1V135.1z M250.2,135.1h10.1
		v2.5h-10.1V135.1z M230.1,135.1h10.1v2.5h-10.1V135.1z M210,135.1H220.1v2.5H210V135.1z M189.9,135.1H200v2.5h-10.1V135.1z
		 M169.7,135.1h10.1v2.5h-10.1V135.1z M149.6,135.1h10.1v2.5h-10.1V135.1z M129.5,135.1H139.6v2.5H129.5V135.1z M109.4,135.1h10.1
		v2.5h-10.1V135.1z M88.7,135.1h10.1v2.5H88.7V135.1z M68.6,135.1h10.1v2.5H68.6V135.1z M48.6,135.1h10.1v2.5H48.6V135.1z
		 M28.4,135.1h10.1v2.5H28.4V135.1z M8.3,135.1H18.4v2.5H8.3V135.1z"/>
</g>
<path fill="#FFFFFF" d="M0,156.301h3743V203.7H0V156.301z"/>
</svg>
