<svg xmlns="http://www.w3.org/2000/svg" xmlns:xlink="http://www.w3.org/1999/xlink" width="135" height="141" viewBox="0.7 0.6 135 141">
  <path opacity=".2" d="M115.5 131.57c8.51 0 15.3 1.81 15.3 4.02 0 2.2-6.79 4.01-15.2 4.01-8.52 0-15.3-1.8-15.3-4.01s6.78-4.02 15.2-4.02z"/>
  <path fill="#FFADAD" d="M114.28 72.98s5.07 28 5.98 35.72c1.01 7.63 1.42 19.36 1.52 21.37.1 2.1-3.24 5.52-3.24 5.52s5.77.8 7.4-1.6c0 0-.81-2.82-.71-5.53 0-2.7 1.01-12.74-1.62-18.15l2.02-22.07c.4-3.82.5-12.85-1.01-15.25h-10.34z"/>
  <path fill="#FFADAD" d="M107.9 72.98s2.33 28 3.34 35.72c.91 7.63.81 18.76 1.01 20.87 0 2-3.54 5.42-3.54 5.42s5.37.5 6.99-2.01c0 0-.2-2.31-.1-5.02 0-2.7 1.52-12.24-1.02-17.65l2.03-22.07c.4-3.82.5-12.85-1.01-15.25H107.9z"/>
  <path fill="#3A5B8E" d="M118.13 58.34c5.07.5 8.62 1.4 9.33 4.71 0 0 1.42 4.22.7 8.03-.7 3.71-1.72 6.02-1.62 7.42 0 1.4-.7 16.05-1.11 17.66-.5 1.6 1.01 7.02.71 11.14l-.5 17.05s-3.55 1.2-4.47.2c0 0-2.43-24.38-2.43-26.89 0-2.4-1.93-9.83-1.93-9.83l-.3 9.23s2.43 9.53 1.62 15.85c-.81 6.22-1.92 11.04-1.92 11.04s-.61.4-1.42.6c-1.02.3-3.04.2-3.04 0-.2-9.03-1.32-23.07-2.13-26.78-.82-3.52-1.83-18.46-2.74-26.29-1.01-7.83.2-11.14.2-11.14s4.77-2.3 10.95-2h.1z"/>
  <path fill="#072A43" d="M122.49 125.05c-.7 0-1.22 0-1.52-.4v-.1c0-.2-2.33-24.48-2.43-26.89 0-1.8-1.02-6.52-1.63-8.62l-.2 8.02a52.61 52.61 0 0 1 1.62 15.85 153.27 153.27 0 0 1-2.02 11.04v.1s-1.02.8-2.03.8c-.5 0-2.43.2-2.73-.3-.41-.8.2-7.42-.61-14.04-.61-5.42-1.12-11.04-1.52-12.65-.51-2.4-.92-9.63-1.63-16.55l-1.01-9.73c-1.01-7.83 0-11.14.1-11.34h.1c3.52-1.5 7.33-2.19 11.15-2 4.56.4 8.62 1.1 9.43 4.81a18.57 18.57 0 0 1-.5 12.64c-.33.9-.47 1.86-.41 2.81 0 1.2-.61 16.05-1.02 17.76-.3.7 0 2.4.2 4.31.31 2.11.61 4.62.51 6.73l-.6 17.05c-.1.1-2.03.7-3.25.7zm-1.22-.6c.3.2.71.3 1.22.3 1.01 0 2.64-.5 3.04-.6l.5-16.85c0-2.11-.2-4.52-.5-6.73-.3-2-.5-3.6-.3-4.41.4-1.5 1.21-16.05 1.11-17.66 0-.7 0-1.7.4-2.9.41-1.21 1.02-2.82 1.22-4.62.71-3.61-.7-7.83-.7-7.83-.61-3.2-3.86-4-9.13-4.61-3.76-.21-7.51.48-10.94 2-.1.5-1.02 3.92-.1 11.04l1 9.73c.72 6.82 1.02 14.05 1.63 16.45.4 1.71.91 7.03 1.52 12.65.81 6.01.3 13.24.6 14.04.21.3 2.03.1 2.44 0a4.09 4.09 0 0 0 1.82-.7c0-.6 1.02-5.12 1.83-10.94.91-6.12-1.52-15.55-1.52-15.65l.3-9.33h.3c0 .2 1.83 7.43 1.83 9.83 0 2.41 2.43 25.39 2.43 26.8z"/>
  <path fill="#072A43" d="M117.42 90.34h-.1a128.17 128.17 0 0 1-3.04-15.75 6.75 6.75 0 0 1-1.62-1.6c0-.1 0-.1.1 0 0 0 .3.5 1.62 1.5.74 5.33 1.75 10.62 3.04 15.85z"/>
  <path fill="#072A43" d="M115.8 122.95h-.1l.1-.2v.2zm0-.7v-.4l.1-.1.1.1v.3l-.1.1h-.1zm.2-.7h-.1v-.4h.2v.4h-.1zm.1-1.01v-.5h.1v.4l-.1.1zm.1-.7v-.5h.1v.4h-.1v.1zm.1-1v-.5h.1v.4l-.1.1zm.1-.8v-.41h.11v.4h-.1zm.11-1.01v-.5h.1v.5h-.1zm0-.7v-.4l.1-.1v.5h-.1zm.2-1l-.1-.11v-.4h.1v.5zm0-.71v-.5h.1v.4l-.1.1zm.1-1v-.6h.1v.5l-.1.1zm0-.8v-.4l.1-.1v.5h-.1zm.1-1v-.51h.1v.4l-.1.1zm0-.71v-.1c.04-.17.08-.34.1-.5v.5l-.1.1zm.1-1.1v-.5h.1v.5h-.1zm0-.7v-.5h.1v.5h-.1zm0-1.01v-.5h.1v.4l-.1.1zm0-.8v-.4h.1v.4h-.1zm0-1v-.5.5zm0-.7h-.1v-.5h.1v.5zm-.1-1.01l-.1-.1.1-.4v.5zm0-.7l-.2-.1v-.4h.1v.4l.1.1zm-.2-1l-.1-.2v-.4h.1v.6zm-.1-.8h-.1v-.51h.1v.5zm-.2-1.01l-.1-.4v-.1h.1v.5zm-.1-.7l-.2-.4.1-.1.2.4h-.1v.1zm-.2-1l-.1-.1v-.51.1l.2.4h-.1v.1zm-.2-.71l-.11-.4v-.1h.1l.1.4-.1.1zm-.21-1v-.1.1zm-.2-.7l-.1-.4v-.1h.1l.1.4-.1.1zm0-1.01l-.2-.1v-.4h.2v.5zm0-.8h-.2v-.5h.2v.5zm0-1h-.2v-.5l.1-.1v.5l.1.1zm-.1-.7l-.1-.4v-.11h.2v.4h-.1v.1zm0-1.01l-.1-.1v-.4h.1v.5zm0-.8h-.2v-.4h.1l.1.4zm-.1-1h-.1v-.5h.1v.5zm0-.71h-.1v-.5h.1v.5zm-.1-1v-.1l-.1-.4h.2v.3l-.1.1v.1zm0-.8h-.1v-.5h.1v.5zm0-1l-.2-.1V86.82h.2v.5zm-.1-.71l-.1-.1v-.4h.1v.5zm0-1l-.21-.2v-.3c.1-.1.2 0 .2 0v.5zm-.1-.8h-.11v-.4c0-.1.1 0 .1 0v.4zm0-1l-.21-.1v-.41h.2v.5zm-.11-.71l-.1-.1v-.4h.1v.5zm0-1l-.2-.2v-.3h.2v.5zm-.1-.8h-.1v-.5h.1v.5zm0-1.01l-.2-.1v-.4h.2v.5zm-.1-.7l-.1-.1v-.4h.1v.5zm-.1-1v-.2l-.1-.3V78h.1v.6zm0-.8h-.1v-.51h.1v.5zm-.1-1.01l-.1-.1v-.4h.1v.5zm0-.7l-.1-.1v-.4l.1.4v.1zm-.1-1l-.11-.2V74.48h.1v.6z"/>
  <path fill="#072A43" d="M114.58 123.45l-3.04.3v-.1s3.75 0 4.87-1c0-.1.1-.1.1 0-.55.5-1.27.79-2.03.8h.1zm7.8.1l-1.1-.1v-.1s1.41.4 4.35-.6h.1v.2c-1.31.4-2.84.6-3.34.6z"/>
  <path fill="#265170" d="M118.13 58.34a25.7 25.7 0 0 0-11.15 2v.5c.61.5 2.13 1.11 6.09 1.61 5.97.8 10.84 0 13.27-1.5-1.52-1.6-4.46-2.21-8.3-2.61h.1z"/>
  <path fill="#072A43" d="M119.45 62.95c-2.03.1-4.16 0-6.39-.3-3.34-.4-5.37-1-6.18-1.7h-.1v-.2l.1-.5h.1c3.52-1.51 7.33-2.2 11.15-2.01 4.06.3 6.8 1 8.31 2.6l.2.2h-.2a15.33 15.33 0 0 1-7 1.91zm-12.37-2.2a32.44 32.44 0 0 0 12.37 1.8c2.84-.1 5.07-.7 6.59-1.6-1.42-1.5-4.26-2-8-2.41-3.73-.2-7.45.5-10.86 2v.2h-.1z"/>
  <path fill="#072A43" d="M118.13 65.06c-1.45.12-2.9.12-4.36 0-6.58-.8-7.2-2-7.2-2.1v-.2h.11s.71 1.3 7.1 2c4.62.47 9.3-.22 13.58-2-.2.4-4.36 2-9.33 2.2l.1.1z"/>
  <path fill="#072A43" d="M108 64.06l-.61-.4c-.2-.2.1-1.7.3-2.51v-.1c0-.1 0 0 0 0l.71.2v.1l-.3 2.6v.1h-.1zm-.2-2.81c-.2 1-.41 2.2-.31 2.3l.5.3.31-2.4-.5-.2zm3.24 3.4h-.6c0-.1-.32-.2-.11-2.6v-.1h.5l.2 2.6v.1zm-.61-.3l.4.1-.1-2.3h-.2c-.1 1-.2 2 0 2.2h-.1zm5.98 1.01c-.2 0-.4 0-.5-.2-.31-.1-.21-1.7-.21-2.3l.4-.2h.1v.1l.41 2.4v.1h-.2v.1zm-.6-2.4c0 1 0 2 .2 2.1h.4l-.3-2.2h-.31v.1zm4.65 2.1h-.2c-.4 0-.5-1.6-.6-2.3l.7-.3h.1l.4 2.1c0 .3-.2.4-.4.5zm-.6-2.2c0 1 .3 2 .4 2 .3 0 .4 0 .4-.3l-.3-2-.5.3zm5.06 1.3h-.3c-.3 0-.4-1.2-.5-2.31l.6-.3.2 2.5v.1zm-.6-2.21c0 .9.2 2 .3 2h.2l-.2-2.2-.3.2zm-11.86 10.23h-.1l-.3-3.5c-.03-1.85-.1-3.69-.21-5.53 0 0 .2.4.3 1.3v4.22l.3 3.11.2-1.3v-4.92h.11v5.02c0 .8-.2 1.5-.3 1.6z"/>
  <path fill="#072A43" d="M111.34 69.78v-.1c1.01 0 2.94-.4 3.14-.6h-.1c-1.21-.3-3.34-1.91-3.34-2.01v-.1s2.13 1.7 3.34 1.9c.2 0 .3 0 .3.2 0 .4-2.83.7-3.34.8v-.1zm12.37 0c-4.36-.3-6.8-4.72-6.9-4.72v-.1h.2s2.44 4.31 6.7 4.72v.2-.1zm-.2 53.37h-.1v-.4h.2v.3h-.1v.1zm.2-1v-.1.1zm0-.3v-.4h.2v.4h-.2zm.2-.91v-.1h.1v.1h-.1zm0-.4v-.5h.1v.5h-.1zm0-.8v-.2h.1v.2h-.1zm0-.5v-.4l.2-.1v.4l-.1.1h-.1zm.2-1.01v-.2h.1v.2h-.1zm0-.4v-.4l.1-.1h.1v.4l-.1.1h-.1zm0-1.7v-.1h.1v.1h-.1zm0-.3v-.4l.1-.1v.5h-.1zm.2-1l-.1-.11v-.1h.2l-.1.2zm0-.41v-.5h.1v.5h-.1zm.1-1v-.2.2zm0-.4v-.5h.1v.5h-.1zm0-1V111.8h.2l-.1.2h-.1zm.1-.41v-.5h.1v.5h-.1zm0-1v-.2h.1v.2h-.1zm0-.4v-.5h.1v.5h-.1zm0-1v-.2h.1v.2h-.1zm0-.4v-.51h.1v.5h-.1zm0-1.01v-.2h.1v.1l-.1.1zm0-.4v-.5.5zm0-1l-.1-.1v-.1h.1v.2zm0-.4h-.1v-.51h.1v.5zm-.1-1.01v-.2.2zm0-.4h-.1v-.5h.1v.5zm0-1l-.2-.1v-.1h.2v.2zm-.1-.4h-.1v-.51h.1v.5zm-.1-1.01v-.2.2zm0-.4h-.1v-.5h.1v.5zm-.1-1l-.1-.1v-.1h.1v.2zm0-.4h-.2v-.5h.2v.5zm-.2-1V99.16v.2zm0-.41h-.1v-.5h.1v.5zm-.2-1v-.2h.1v.2h-.1zm0-.4v-.4s0-.1 0 0h.2l-.1.4h-.1zm.2-1l-.1-.1h.1v.1zm0-.41v-.4h.1v.4h-.1zm.1-1v-.3l.1.1v.1l-.1.1zm0-.3v-.5h.2v.4h-.1l-.1.1zm.1-1v-.2h.1v.1l-.1.1zm0-.4v-.51h.2v.3l-.1.2h-.1zm.1-1.01V92.15 92.45zm0-.4v-.7l.1.1v.4l-.1.2zm0-1v-.2h.2l-.1.1-.1.1zm0-.4v-.51h.1v.5h-.1zm.1-1.01v-.2h.1v.1l-.1.1zm0-.4V88.64l.1.1v.4l-.1.1zm0-1.1v-.3l.1.1v.1l-.1.1zm0-.3V87.23l.1.1v.4l-.1.1zm0-1.1v-.21l.1.1v.1h-.1zm0-.41v-.5h.1v.4l-.1.1zm0-1v-.2l.1.1-.1.1zm0-.4v-.4h.1v.4h-.1zm0-1.01v-.2h.1v.1l-.1.1zm0-.4v-.4h.1v.4h-.1zm0-1v-.1.1zm0-.4v-.4.4zm0-1l-.1-.1h.1v.1zm0-.4h-.1V80.3s0-.1.1 0v.4zm0-1.01l-.2-.1s.1-.1.2 0v.1zm0-.4h-.2v-.4s.1-.1.1 0v.4h.1zm-.1-1l-.1-.1v-.11h.1v.2zm0-.4h-.1c-.1 0 0 0 0 0v-.51h.1v.5zm0-1.01h-.1v-.2.2h.1zm-.1-.4l-.1-.4V76h.2v.4l-.1.1zm0-1h-.1v-.2h.1v.2zm0-.4h-.1v-.51h.1v.5zm-.1-1.01v-.2.2zm0-.4h-.1v-.5h.1v.5zm0-1h-.1v-.2h.1v.2zm0-.4h-.2v-.5h.2v.5zm-.1-1l-.1-.11v-.1h.1v.2zm0-.41h-.1v-.5l.1.2v.3zm-.1-1l-.1-.1v-.1h.2l-.1.2zm0-.4h-.1v-.5h.1v.5zm0-1h-.1v-.2.2h.1zm-.1-.41h-.1v-.4c0-.1.1-.1.1 0v.4zm0-1l-.2-.1c.1-.1.2-.1.2 0v.1zm-.1-.4l-.1-.4c0-.1.1-.1.2 0v.3l-.1.1zm0-1l-.1-.1c0-.11.1-.11.1 0v.1zm0-.4h-.2V64.85c0-.1.2-.1.2 0v.4zm-.1-1.01l-.1-.1v-.1h.1v.2z"/>
  <path fill="#072A43" d="M123.8 69.17c-3.54-.1-6.07-4.01-6.07-4.01v-.2h.1c0 .1 2.53 4.01 6.08 4.01v.2h-.1zm4.37 3.81c-.4-.3-2.03-1.5-2.03-2v-.2c-.3-3.41-.3-5.02 0-5.32a9.19 9.19 0 0 0 1.52-1.3h.1v.2s-.91 1-1.52 1.3c-.2.1-.3 1 0 5.02v.5c0 .2 1.12 1.2 2.03 1.7v.1h-.1z"/>
  <path fill="#072A43" d="M127.76 72.08h-.1v-.1h.1v.1zm-.3-.2c-.11-.13-.21-.26-.3-.4h.2l.2.2v.1l-.1.1zm-.61-.8v-.3c.1 0 .1.1 0 .1v.2zm0-.4h-.2v-.4h.1v.4h.1zm-.2-1v-.2.2zm0-.4h-.1v-.5h.1v.5zm0-1l-.2-.11c0-.1.2 0 .2 0v.1zm-.1-.41h-.1.1zm0-1l-.2-.1h.1c0-.1.1 0 .1 0v.1zm0-.4h-.1v-.4.4h.1zm-.1-1l-.1-.1s0-.11.1 0v.1z"/>
  <path fill="#BA5AAA" d="M110.73 3.86c5.38-1.3 8.72 2.41 10.64 7.33 1.93 5.01 1.63 6.42 4.06 8.42 2.33 2.01.81 4.42 3.04 6.42 2.33 2.01 10.44 9.33 3.45 14.15-6.9 4.92-12.17 3.01-15.4-1-3.25-4.02-4.77-6.62-7.91-8.13-3.25-1.6-4.16-5.82-3.05-9.23 1.02-3.3.41-4.01-.9-7.32a8 8 0 0 1 6.07-10.64z"/>
  <path opacity=".2" d="M119.65 29.14c-.91-5.01-3.04-5.91-5.67-9.63-2.64-3.7-7.6-5.41-7.6-5.41-.41.2-.82.6-1.12 1 .81 2.3 1.11 4.21.3 6.72-1.11 3.41-.2 7.63 3.05 9.23 1.92.9 3.24 2.2 4.66 4.01 4.05-.5 7.1-2.1 6.38-6.02v.1z"/>
  <path fill="#D99393" d="M112.05 25.23s-2.02.8-3.24 4.92c-1.02 4.11-1.02 15.45-1.02 15.45l-8.5-5.32s-6.4-3.61-6.4-3.31v1.7c0 .5.2 1 .61 1.41a188.09 188.09 0 0 0 16.52 9.83c4.97 1 2.03-12.74 3.04-15.65 1.02-2.8-1-9.03-1-9.03z"/>
  <path fill="#664C2D" d="M101.92 45.9l.5-4.62 8.72 5.52-1.62 3.21-7.6-4.11z"/>
  <path fill="#232323" d="M101.92 45.9l.5-4.62 8.72 5.52-1.62 3.21-7.6-4.11z"/>
  <path fill="#FFADAD" d="M106.38 14.1s2.73-1.5 4.15-3.11c0 0-.5 1.5 0 1.4.5 0 2.74-3.81 2.74-3.81s1.01 6.22 4.56 8.33l2.23 10.03-5.68 1s0-1.5-.3-2.6l-.71-3.12s-.81.5-1.52.4a7.2 7.2 0 0 1-3.45-4.61c-.3-1.8-1.42-3.81-2.02-3.91z"/>
  <path opacity=".2" d="M113.37 22.22l.7 2.81c3.66-1.7 2.84-7.22 2.84-7.22-1 3.3-3.54 4.41-3.54 4.41z"/>
  <path fill="#232323" d="M113.67 23.73s.61 2 2.44 2c1.92 0 2.83-2 3.04-2.8 2.53 1.7 5.47 2.6 6.28 4.2 1.01 1.61.91 9.14.91 15.46s0 7.72.3 10.03c.31 2.6 3.35 17.86 3.56 19.96 0 0-2.74-5.81-6.6-7.72-5.26-2.6-12.66-1.7-17.22-3.81 0 0 2.13-10.34 2.02-15.05 0-4.52-2.02-5.32-2.43-8.03-.5-2.6 1.72-6.42 1.72-6.42s.1-4.91 1.02-5.82c.8-.7 5.06-2 5.06-2h-.1z"/>
  <path fill="#D99393" d="M99.18 40.98s-1.32-3-3.85-4.01c-.3-.1-.82-.7-1.62-.4-1.02.6-1.83-.3-3.25 0-.3 0-.3.5 0 .6l2.03 1.6s2.03 1.4.7 3.01c-.8 1 .21 1.81 1.53 1.6l1.52-.3 2.84.2v-2.3h.1z"/>
  <path fill="#3B3B3B" d="M92.19 44c.3.4 1.01.4 1.41 0l3.04-3.02c.41-.3.41-1 0-1.4l-7.1-7.63a1.02 1.02 0 0 0-1.51 0l-3.04 3.01a1 1 0 0 0 0 1.4l7.1 7.63h.1z"/>
  <path fill="#CEDDDC" d="M91.17 42.19c.4.4 1.02.4 1.42 0l2.23-2.21c.5-.4.5-1 .1-1.4l-4.76-5.12a1.02 1.02 0 0 0-1.42 0l-2.23 2.2a1 1 0 0 0-.1 1.41l4.76 5.02v.1z"/>
  <path fill="#E9EEEA" d="M94.01 42.09c.2.2.5.2.71 0 .2-.2.2-.5 0-.7a.51.51 0 0 0-.6 0c-.21.2-.31.5 0 .7H94z"/>
  <path fill="#848985" d="M86 35.06h.3l1.53-1.4c0-.1.1-.3 0-.4h-.3L86 34.76v.3zm2.23-2.1h.3c.11-.1.11-.3 0-.4h-.3c-.1 0-.1.3 0 .4z"/>
  <path fill="#606572" d="M91.07 40.68l2.33-2.3-.2-.1-2.33 2.2.2.2zm.4.4l2.34-2.2v-.2l-2.44 2.3.1.1zm.51.4l2.33-2.2-.1-.1-2.33 2.2.1.1z"/>
  <path fill="#4D70FF" d="M88.74 38.67c.81.8 2.03.8 2.84 0 .8-.6.9-1.8.2-2.5-.77-.7-1.96-.7-2.74 0-.8.6-1.01 1.8-.2 2.5h-.1z"/>
  <path fill="#3D3B9B" d="M90.67 37.67c.4-.4 1.01-.5 1.62-.2 0-.5-.2-1-.5-1.3-.78-.7-1.97-.7-2.75 0-.8.6-1.01 1.8-.2 2.5.4.4.91.6 1.42.6-.3-.5-.1-1.2.4-1.6zm-1.02 0c-.2-.3-.1-.6.1-.9.3-.2.61-.2.81 0 .2.2.2.6 0 .8-.3.2-.7.2-.9 0v.1z"/>
  <path fill="#D99393" d="M90.16 42.69c.2.3.6.3.81.1l.5-.5c.21-.2.21-.5 0-.7a.51.51 0 0 0-.8 0l-.51.4c-.2.2-.2.5 0 .7zM89.75 41.78c.1.2.41.2.61 0l.5-.4c.21-.2.31-.6 0-.8-.2-.3-.5-.3-.7 0l-.5.4c-.21.2-.21.5 0 .7v.1h.1zm-1.11-.7c.2.2.5.2.7 0l.51-.4c.2-.2.2-.6 0-.8a.5.5 0 0 0-.7 0l-.51.4c-.2.2-.3.5 0 .8zm7.1-2.9s-.41 0-1.12-.5c-.91-.2-1.62-.1-1.73-.81 0-.8 1.42-.4 1.42-.4l1.42 1.7z"/>
  <path fill="#F88" d="M87.02 36.37l-.3.2a.2.2 0 0 1-.24-.17c0-.05 0-.1.03-.13l.3-.2s.2.1.2.3zm.6-.6c0 .1-.1.2-.3.2a.2.2 0 0 1-.1-.2c0-.1 0-.2.2-.2l.2.2zm.61-.5l-.2.2-.2-.2.2-.2c.1 0 .2 0 .2.2z"/>
  <path fill="#FFF" d="M90.56 36.77c-.2-.2-.5-.2-.8 0-.21.3-.31.6 0 .8.1.2.5.2.8 0 .2-.2.2-.6 0-.8zm1.73.7c-.5-.3-1.22-.2-1.62.2-.51.4-.71 1.1-.4 1.6.5 0 1-.2 1.3-.5.41-.4.62-.9.72-1.3z"/>
  <path fill="#FFADAD" d="M103.94 45.3s17.64 5.81 18.96 5.11c1.72-.7 3.34-13.04 3.44-15.04 0-1.91.6-6.73-1.32-8.53 0 0-2.43 1.6-3.04 6.02l-1.62 13.64-15-3.51-1.42 2.3z"/>
  <path fill="#494949" d="M107.7 47.7s13.88 4.02 15.2 3.41c1.82-.8 3.34-13.74 3.44-15.64 0-2.01.6-6.83-1.32-8.63 0 0-2.43 1.6-3.04 6.02l-1.62 13.64-9.63-2.6-3.04 3.8z"/>
  <path fill="#353535" d="M107.7 47.7s13.88 4.02 15.2 3.41c1.82-.8 3.34-13.74 3.44-15.64 0-2.01.6-6.83-1.32-8.63 0 0 1.02 4.01.3 8.43-.6 4.3-1.61 14.34-3.34 14.04-11.55-2.3-12.87-3.31-12.87-3.31l-1.42 1.7z"/>
  <path fill="#FFADAD" d="M103.94 45.3s-3.54-.3-5.06-1c-.82-.5-1.02-1.31-1.93-2.21-.6-.7-3.24-1.7-3.04-2.01.5-.7 4.36 1 4.36 1l2.53-.3s-2.84 0-2.64-.5c.2-.4 4.46-1.2 7.2 2.7l-1.42 2.32z"/>
  <g>
    <path fill="#E5E5E4" d="M103.13 135.09l7.4-1 6.8-.91.1.8-14.2 2-.1-.9z"/>
    <path fill="#262626" d="M112.25 129.97l-.7-.8h-.2l-1.22.8c.2-.7.8-1.2 1.52-1.5l.3.1c.3.4.4.9.3 1.4z"/>
    <path fill="#F2F2F2" d="M112.05 129.77v-.2.2zm0-.2v-.1.1zm0-.2v-.1.1zm0-.2h-.1.1zm-.1-.1v-.1.1zm-.1-.2v-.1.1zm0-.2h-.1.1zm-.2-.1v-.1.1z"/>
    <path fill="#151415" d="M117.12 133.18l-2.54.3a5.43 5.43 0 0 1 2.33-3.21c.2.9.31 2 .31 2.9h-.1z"/>
    <path fill="#151415" d="M102.72 133.58v-.1h.1c1.02-.6 2.24-1.2 3.35-1.4l.2-.1h.1c1.77-.81 3.46-1.75 5.07-2.81l.61.7h-.5l-.1.1c-.21.2 0 .5.3.7 1.57.9 3.56.66 4.86-.6.1 0 .2 0 .2.2-1.15.7-2 1.81-2.33 3.1l-6.48.91h-.2l-1.12-.1.2.4-3.85.5c-.6-.3-.8-1.2-.4-1.5z"/>
    <path fill="#262626" d="M106.78 134.08l-.4-1.2a40.81 40.81 0 0 0 5.06-2.91c0 .2 0 .5.4.7 1.58.9 3.57.66 4.87-.6.1 0 .2 0 .2.2a5.11 5.11 0 0 0-2.33 3.21l-7.6 1-.2-.3v-.1z"/>
    <path fill="#F2F2F2" d="M114.89 133.38v-.1.1zm0-.1v-.1.1zm0-.2v-.1h.1l-.1.1zm.1-.3l.1-.1-.1.1zm.2-.3v-.1.1zm.1-.3l.1-.1-.1.1zm.2-.3l.1-.1-.1.1zm.21-.3h.1v-.1s0 .1 0 0c0 .1 0 0 0 0l-.1.1zm.2-.1v-.1.1zm0-.2h.1-.1zm.2 0v-.1.1zm.1-.2c.1-.1.1-.1.1 0h-.1zm.2-.1v-.1.1zm0-.1l.11-.1-.1.1zm.21-.1v-.11h.1l-.1.1zm.1-.2h.1-.1z"/>
    <path fill="#151415" d="M112.25 129.97c1.22.6 2.74.4 3.75-.6.2-.2.51-.2.71-.1.2.1.2.5 0 .8a4.09 4.09 0 0 1-4.86.6c-.4-.2-.5-.5-.3-.7.1-.2.4-.2.7 0z"/>
    <path fill="#F2F2F2" d="M106.58 134.38v-.1.1zm-.1-.2v-.1.1zm-.1-.3v-.1.1zm-.1-.5v-.1.1zm-.1-.2v-.1.1zm0-.3v-.1.1zm0-.2v-.1.1zm0-.2s0-.1 0 0zm0-.5v.1-.1z"/>
    <path fill="none" d="M114.58 133.38l-6.48.9h-.2l-5.07-.4h-.2c0-.2 0-.3.2-.4 1.01-.6 2.23-1.2 3.34-1.4l.3-.2a37.61 37.61 0 0 0 5.08-2.71l.6.7h-.5l-.1.1c-.21.2 0 .5.3.7 1.57.9 3.56.66 4.86-.6.1 0 .2 0 .2.2-1.15.7-1.99 1.81-2.33 3.11z"/>
    <path fill="#F2F2F2" d="M106.48 133.28v-.1.1zm4.66.4v-.1.1zm-.3-.2v-.1.1zm-.1-.1h-.1.1zm-2.84.3zm2.63-.3v-.1.1zm-2.43.3v-.1.1zm-.4-.1h-.1.1zm.7 0v-.1.1zm1.83-.3h-.1.1zm-1.73.2h.1-.1zm.2-.1h.1-.1zm-1.21.2s-.1 0 0 0zm1.32-.3h.1-.1zm.9 0h-.1.1zm-.7 0h.1-.1zm.5 0h-.1.1zm-.3 0h.1-.1zm-2.02.2h-.1s.1 0 0 0h.1zm-.2 0v-.1.1zm-.21-.1v-.1.1zm-.1-.1h-.1.1zm4.86.4v-.1.1zm-.1-.1v-.1.1zm-.2-.1v-.1.1zm-.1-.1v-.1.1zm-.1-.1h-.1.1zm-.2 0v-.1h-.1.1v.1zm-3.05.2h-.1.1zm.2 0h.1-.1zm2.54-.4h-.1.1zm-.2 0h-.1.1zm-2.74.4v-.1.1zm.71-.2h.1-.1zm.2 0h.1-.1zm.2 0v-.1.1zm1.32-.2h-.1.1zm-2.53.3h-.1.1zm1.32-.2h.1-.1zm1.01-.1h-.1.1zm-.81 0zm-1.62.2h-.2.2zm-.4 0l-.1-.1h.1v.1zm-.31-.1l-.1-.1.1.1zm.2-.6l.71-.3.2.1h.51c1-.27 1.95-.68 2.84-1.2.2 0 .5-.1.81 0 1.42.5 2.64.6 3.55.3l-.4.7h-.1c-1.02.1-2.04 0-3.25-.5h-.3a8.72 8.72 0 0 1-3.05 1.3h-.8l-.72-.4zm5.17-1.4h-.2.2zm-.3 0s0-.1 0 0zm-.3-.3h-.21.2zm-.21-.1v-.11.1zm-.1-.3l-.1-.11.1.1z"/>
    <path fill="#E5E5E4" d="M106.88 132.38v-.3l-.1-.3h-.3l-.1.2.2.3c0 .1.2.2.3.1zm.61-.3v-.3l-.1-.3h-.3s-.1.1 0 .2l.1.3c0 .1.2.2.3.1zm.6-.3c.1 0 .2-.2.1-.3l-.2-.3s0-.1-.1 0h-.2v.2l.1.3h.3v.1zm.62-.3c.1 0 .2-.2.1-.3l-.1-.3-.2-.11h-.21v.2l.2.4s.1.1.2 0v.1zm.6-.4c.1 0 .2-.2.1-.3l-.1-.3h-.4v.19l.2.3c0 .1.1.2.2.1zm.71-.3v-.3l-.1-.31s-.1-.1-.2 0h-.1c-.1 0-.1.1 0 .2v.3c.1 0 .3.1.4 0v.1zm.61-.4v-.31l-.1-.3h-.3c-.1 0-.1.1 0 .2v.3c.1.1.3.2.4.1z"/>
    <path fill="#F2F2F2" d="M106.58 131.77h.2l.1.3v.2l-.3-.1-.2-.3.2-.1zm.6-.4h.2l.21.4-.1.2-.3-.1-.2-.3.2-.2zm.61.1l-.1-.3h.2c0-.1.1 0 .1 0l.2.3v.1h-.4v-.1zm.71-.7h.2l.1.4v.1h-.3l-.2-.4.2-.1zm.61-.3h.2l.1.3v.2l-.3-.1-.2-.3.2-.1zm.6 0l-.2-.3h.2c0-.1.21 0 .21 0l.2.3-.1.1h-.3v-.1zm.62-.3l-.2-.3.2-.1h.2l.1.3v.2l-.3-.1zm-7.1 4.82l7.4-.8 6.39-1.01c.3 0 .4.1.4.4s0 .5-.3.6l-6.49 1c-1.01 0-7.3.8-7.3.8-.3 0-.3-.1-.3-.4 0-.3-.1-.5.2-.5v-.1z"/>
    <path fill="#E5E5E4" d="M102.93 135.59c0-.3 0-.5.3-.5l4.56-.7c.71 0 1.42.1 1.93.4l.3.4-6.58.8c-.4 0-.4-.1-.4-.4h-.11z"/>
    <path fill="#F2F2F2" d="M117.22 132.98l-14.19 2h-.1l14.29-2z"/>
  </g>
  <g>
    <path fill="#E5E5E4" d="M111.95 136.59l8.1-.7 7.2-.7.1.8-15.3 1.5-.1-.9z"/>
    <path fill="#262626" d="M121.98 131.47l-.7-.8s-.2-.1-.2 0l-1.43.7c.3-.7 1.02-1.2 1.83-1.5l.3.1c.3.5.4 1 .3 1.5h-.1z"/>
    <path fill="#F2F2F2" d="M121.88 131.27v-.2.2zm-.1-.4v-.1.1zm0-.2v-.1c0 .1 0 0 0 0v.1zm-.1-.2v-.1.1zm0-.2h-.1.1zm-.1-.1v-.1.1zm-.1-.2v-.1.1z"/>
    <path fill="#151415" d="M127.25 135.19l-2.93.2a5.83 5.83 0 0 1 2.63-3.41c.21 1.05.28 2.13.2 3.2h.1z"/>
    <path fill="#151415" d="M111.55 134.99v-.1h.1c1.11-.7 2.53-1.21 3.74-1.4l.2-.11h.11a41.44 41.44 0 0 0 5.57-2.71l.71.7H121.28v.1c-.2.2-.1.6.2.8h.1c1.72 1 3.75.8 5.17-.5.2 0 .3.1.2.2a5.53 5.53 0 0 0-2.53 3.32l-7.1.6h-.2l-1.22-.1.2.4-4.05.4c-.7-.3-.91-1.3-.5-1.7v.1z"/>
    <path fill="#262626" d="M115.9 135.69c-.2-.4-.3-1-.3-1.4 1.96-.8 3.85-1.75 5.67-2.82-.2.2-.1.6.2.8h.1c1.63 1 3.76.8 5.18-.5.2 0 .3.1.2.2a5.83 5.83 0 0 0-2.64 3.42l-8.2.8-.2-.4v-.1z"/>
    <path fill="#F2F2F2" d="M124.62 135.29c0-.1 0 0 0 0zm.1-.1v-.2.2zm0-.2v-.1h.1l-.1.1zm.1-.2v-.1.1zm0-.2h.1-.1zm.2-.1v-.1.1zm0-.2c.1-.1.1-.1.1 0h-.1zm.1-.1v-.1h.1l-.1.1zm.1-.2v-.1h.1v.1h-.1zm.1-.2h.11-.1zm.21-.11v-.1.1zm0-.1l.1-.1-.1.1zm.3-.3v-.1.1zm.1-.2h.1-.1zm.2 0v-.1.1zm0-.2h.11v-.1l-.1.1zm.21-.1l.1-.1-.1.1zm.2-.1v-.1.1zm.1-.2h.1-.1zm.2 0v-.1.1z"/>
    <path fill="#151415" d="M121.98 131.47c1.32.7 3.04.6 4.06-.4.3-.2.6-.3.8-.1.21.1.21.5 0 .8a4.5 4.5 0 0 1-5.36.5c-.3-.2-.4-.6-.2-.8.1-.2.5-.2.7 0z"/>
    <path fill="#F2F2F2" d="M115.7 135.99v-.1.1zm-.1-.2v-.1.1zm0-.2v-.1.1zm-.1-.3v-.2.2zm-.1-.4v-.1.1zm0-.2v-.1.1zm0-.2v-.1.1zm-.1-.2s0-.1 0 0zm0-.3v-.2.2zm.1-.2v-.11.1z"/>
    <path fill="none" d="M124.42 135.29l-7.1.6h-.2l-5.37-.6h-.2c-.1-.3 0-.4.2-.5 1-.6 2.43-1.11 3.64-1.3l.3-.21c1.93-.73 3.8-1.6 5.58-2.6l.71.7H121.28v.1c-.21.2-.11.6.2.8h.1c1.72 1 3.75.8 5.17-.5.2 0 .3.1.2.2a5.53 5.53 0 0 0-2.53 3.3z"/>
    <path fill="#F2F2F2" d="M115.7 134.78c0-.1 0 0 0 0zm5.17.7h-.1v-.1c.1 0 .1 0 0 0l.1.1zm-.2-.1v-.1.1zm-.1-.1h-.1v-.1l.1.1zm-.41-.1v-.1.1zm-3.04.1h.1-.1zm2.94-.2h-.1v-.1l.1.1zm-2.74.2l.1-.1-.1.1zm2.53-.3h-.1.1zm-2.32.2zm-.61 0h-.1.1zm.8 0v-.1.1zm1.93-.2h-.1.1zm-1.82 0h.1v.1l-.1-.1zm1.62 0v-.1.1zm-1.42 0h.1-.1zm-1.32.2v-.1.1zm1.52-.2zm.81 0v-.1.1zm-.6 0zm.5 0h-.1v-.1l.1.1zm-2.33.1h-.2.2zm-.2 0l-.1-.1.1.1zm-.2-.1h-.1v-.1h.1v.1zm-.4-.1v-.1.1zm-.11-.3h-.1.1zm5.47.8h-.2.2zm-.2 0v-.1s-.1 0 0 0v.1zm-.3-.3h-.1.1zm-.2 0v-.1.1zm-.1-.2h-.11.1zm-.21 0h-.1s0-.1 0 0h.1zm-3.04.2zm0 0h-.2.2zm.3-.1h.1-.1zm-.5 0h-.1.1zm.7 0l.1-.1-.1.1zm2.03-.3h-.1.1zm-1.82.2zm.2 0zm1.42-.2h-.1.1zm-2.74.3h-.1v-.1h.1v.1zm2.54-.2h-.1v-.1h.1v.1zm-.92 0h.1-.1zm.72 0h-.1v-.1h.1v.1zm-.51 0h.1-.1zm.3 0v-.1.1zm-2.53.1v-.1.1zm-.1-.1h-.1v-.1l.1.1zm-.2-.1h-.1.1zm-.2 0v-.1.1zm5.36.9v-.1.1zm-5.06-1.5l.7-.3.3.1.52.1c.9-.2 1.92-.6 3.04-1.2h.9c1.53.6 2.85.8 3.86.5l-.5.7h-.1c-1.02.1-2.14 0-3.45-.6h-.41c-1.22.6-2.23 1-3.24 1.2l-.91-.1-.71-.4z"/>
    <path fill="#F2F2F2" d="M121.68 132.88h-.1v-.1l.1.1zm-.2-.1h-.1v-.1h.1v.1zm-.2-.1v-.1.1zm-.1-.1h-.1v-.1l.1.1zm-.21-.1v-.1.1zm-.2-.3v-.1.1zm0-.2v-.1.1z"/>
    <path fill="#E5E5E4" d="M116.1 133.88v-.7h-.4l-.1.2.2.4h.3v.1zm.71-.3v-.3l-.1-.4h-.3l-.1.2.2.4h.3v.1zm.61-.3c.2-.1.2-.2.2-.3l-.2-.4s-.1-.1-.2 0h-.2v.2l.1.3c.1.2.2.2.3.2zm.71-.3c.1-.1.2-.2.1-.4l-.1-.3s-.1-.1-.2 0h-.2v.2l.1.3c0 .1.2.2.3.1v.1zm.71-.4c.1 0 .2-.2.1-.3l-.2-.4h-.3v.2l.1.4c0 .1.2.2.3.1zm.71-.3v-.7h-.4s-.1.1 0 .2v.4c.1 0 .3.1.4 0v.1zm.61-.3c.2-.1.2-.3.1-.4l-.1-.3-.2-.1h-.2v.2l.1.4c0 .1.2.2.3.1v.1z"/>
    <path fill="#F2F2F2" d="M115.8 133.18h.2l.2.4-.1.1h-.3l-.2-.4.2-.1zm.71-.4l.2.1.2.4-.1.1-.3-.1-.2-.3.2-.2zm.6.2l-.1-.4h.41l.2.4-.1.1-.3-.1h-.1zm.82-.8h.2l.1.4v.2l-.4-.1-.1-.4h.2v-.1zm.7-.3h.11l.2.4v.1c-.2.1-.3 0-.4 0l-.1-.4.2-.1zm.62.1l-.2-.3.3-.2.1.1.2.4-.1.1-.3-.1zm.7-.4l-.2-.3.2-.1h.21l.1.4v.2c-.2 0-.3 0-.3-.2zm-7.9 5.01l8-.7 6.9-.7c.4 0 .4.2.5.4v.1c0 .3 0 .5-.4.5l-7.1.8-7.8.6c-.3 0-.3-.2-.4-.4v-.1c0-.3 0-.5.3-.5z"/>
    <path fill="#E5E5E4" d="M111.75 137.1c0-.31 0-.51.4-.51l4.87-.5c.7 0 1.52.1 2.02.5l.3.4-7.09.6c-.4 0-.4-.2-.5-.5z"/>
    <path fill="#F2F2F2" d="M127.25 134.99l-15.4 1.5h-.1l15.5-1.5z"/>
  </g>
  <g>
    <path fill="#DD9090" d="M111.3 18h-.1c.2.2.3.4.6.5.4.2.5-.3.7-.6-.23.05-.46.09-.7.1h-.5z"/>
    <path fill="#B26666" d="M112.1 18.1l.4-.2c-.23.05-.47.09-.7.1h-.6c.3.2.7.3 1 .1h-.1z"/>
  </g>
  <g>
    <path fill="#A81833" d="M111 19.6l.3.5c.2.3.6.7 1.2.6.8-.1 1-.8 1.1-1.3.1-.1 0-.1-.1-.1h-.9l-.3.2h-.3l-1 .2v-.1z"/>
    <path fill="#8C0C00" d="M113.2 20c-.3.3-.7.4-1.2.4-.1-.02-.2-.05-.3-.1l-.3-.3-.2-.2c1.1 0 2.3-.4 2.4-.4l-.4.6z"/>
    <path fill="#FFF" d="M113.4 19.5l-2.1.3.3.1c.62 0 1.24-.13 1.8-.4z"/>
    <path opacity=".4" fill="#5B2A09" d="M112 20.8c.2.1.5.1.8 0h-.8z"/>
  </g>
  <g>
    <path opacity=".2" d="M22.55 130.74c12.09 0 21.86 2.41 21.86 5.43s-9.77 5.43-21.86 5.43C10.47 141.6.7 139.2.7 136.17s9.77-5.43 21.86-5.43z"/>
    <path fill="#3D3B9B" d="M28.5 59.34l1 71-5.43 1.6s-7.36-29.35-4.03-37.5l-5.94-35.1h14.4z"/>
    <path opacity=".2" d="M28.5 59.34H14.1l5.84 35.1a33.12 33.12 0 0 0-.5 13.57l9.96 12.07-1-60.74h.1z"/>
    <path fill="#3D3B9B" d="M28.9 58.54l-6.04 35.5-10.48 37.9-6.44-.5s.8-1.8 1-3.01c.4-7.54 2.62-33.39 8.06-36.5L9.97 58.53H28.9z"/>
    <path opacity=".2" d="M28.5 60.95l.4-2.41H9.97l.5 2.92 18.13 2.3-.1-2.8z"/>
    <path fill="#FFADAD" d="M38.67 34s.4-2.51 2.01-4.72c.3-.4.5-1.21 1.31-1.21 1.21 0 1.51-1.3 2.92-1.81.3 0 .5.3.3.5l-1 2.52s-1.1 2.41.7 3.11c1.31.5.71 1.71-.5 2.22l-1.51.6-2.42 1.7-1.81-3v.1z"/>
    <path fill="#FFF" d="M23.86 28.98l5.04 10.45 10.07-6.63 2.52 3.82S32.93 53 28.9 51.9c-3.83-1.3-7.05-10.05-7.05-10.05l2.01-12.98v.1z"/>
    <path opacity=".2" d="M28.9 39.43l-5.04-10.45-2.11 12.97s3.32 8.64 7.15 9.85h.3l4.64-15.69-4.94 3.32z"/>
    <path fill="#EF8F8F" d="M30.1 8.96S29.6 13 29.7 15c0 .3-.3.6-.7.5l-.9-.2-.3 1.2.1.3-.1.51h-.21c0 .3 0 .4-.2.7.2.1.1.7-.2.81-.4 1-.81 1.81-1.21 2.01-.9.2-2.92-.7-3.53-.3-.6.5-2.31 4.52-2.31 4.52l-6.35-2 2.02-5.74s-2.62-5.23-.3-10.36c2.31-5.13 14.8-3.32 14.6 2.01z"/>
    <path opacity=".2" d="M19.84 15.7l-5.04-1.4c.4 1.8 1 3.01 1 3.01l-2 5.63 6.34 2.01s1.7-3.92 2.31-4.42h1.21c-2.31-1.3-4.03-4.73-3.72-4.83h-.1z"/>
    <path fill="#212226" d="M29.9 10.67s-1.5.5-3.92-2c0 0-2.62 3.01-4.03 2.2 0 0-.7 2.32-1 2.42-.5.1-.61-2.31-1.32-2.62-.7-.3-1.5.3-1.3 2.52s1.6 2.51 1.6 2.51l-4.12 1.61s-2.62-1.6-2.62-4.02c0 0-2.82-4.42 0-6.34 0 0-2.02-2.61 4.13-3.72 0 0 2.52-4.52 4.53-1.7 0 0 5.64-2.42 6.04 1 0 0 6.35 1 6.05 4.42-.5 3.42-2.12 3.83-2.12 3.83s-.3 2.81-2.01 2.61l.1-2.61v-.1z"/>
    <path fill="#3D3B9B" d="M10.27 28.57s-3.32-.8-2.72-4.42c.6-3.52 5.24-5.13 14.9-2.92 1.01.3 2.02 2.12 1.21 3.72 0 0 3.02 7.65 4.03 13.78 1 6.13 1.51 12.77 2.52 15.79 1 3.01.2 6.33-2.72 6.33H9.97c-3.43 0-3.93-4.82-2.52-9.85a96.35 96.35 0 0 0 2.82-22.43z"/>
    <path fill="#FFF" d="M18.12 26.56c5.44 1.2 1.62 12.07.6 15.09s-2.3 5.93-.6 8.34a35.14 35.14 0 0 0 4.74 5.03l-2.02 4.32s-11.38-1.4-14.1-4.82c-2.72-3.32-1.2-10.86 1.21-16.1C10.27 33.4 14 25.77 18.02 26.57h.1z"/>
    <path fill="#A67070" d="M20.54 60.15a.3.3 0 0 1-.1-.4l2.72-6.04s.2-.1.4 0c.1 0 .2.1.1.3l-2.82 5.94h-.3v.2z"/>
    <path fill="#3B3B3B" d="M47.03 33.8a1 1 0 0 1-1.31.8l-4.03-1a1 1 0 0 1-.8-1.3l2.72-10.57a1 1 0 0 1 1.2-.7l4.03 1c.6.1 1.01.71.81 1.31L46.93 33.8h.1z"/>
    <path fill="#CEDDDC" d="M47.03 31.69a1 1 0 0 1-1.31.8l-3.02-.8a1 1 0 0 1-.8-1.3l1.8-7.05a1 1 0 0 1 1.18-.8h.04l3.02.8c.6.1 1 .7.8 1.31l-1.81 7.04h.1z"/>
    <path fill="#E9EEEA" d="M44.41 33.2a.52.52 0 1 1-1-.3c.1-.3.4-.4.6-.3.3 0 .5.3.4.6z"/>
    <path fill="#848985" d="M48.14 22.54c0 .2-.1.3-.3.2l-2.02-.5a.3.3 0 0 1-.2-.3l.3-.2 2.02.5c.2 0 .3.2.2.3zm-3.02-.8c0 .2-.1.3-.3.3a.3.3 0 0 1-.22-.37l.01-.04s.2-.2.3-.1c.2 0 .3.1.2.3v-.1z"/>
    <path fill="#606572" d="M46.32 30.18l-3.02-.7v-.2l3.02.8v.1zm-.2.6l-3.12-.7v-.1l3.22.7-.1.1zm-.2.7l-3.12-.7v-.2l3.12.8v.1z"/>
    <path fill="#F88" d="M44.81 23.14l-.2.1c-.1 0-.2-.1-.1-.2 0-.1.1-.2.2-.1.1 0 .2 0 .1.2zm.9.2l-.3.1a.2.2 0 0 1-.1-.2c0-.1.1-.2.3-.1 0 0 .1 0 0 .2h.1zm.81.2l-.3.1s-.1-.1 0-.2c0-.1 0-.2.2-.1 0 0 .1 0 0 .2h.1z"/>
    <g opacity=".8">
      <path fill="#BA5AAA" d="M47.33 27.37c-.2 1-1.3 1.7-2.42 1.5-1-.2-1.6-1.2-1.4-2.3.3-1.01 1.4-1.72 2.41-1.52 1.1.2 1.71 1.21 1.41 2.32z"/>
      <defs>
        <path id="a" d="M47.53 27.27c-.4 1.2-1.6 1.9-2.72 1.6-1.1-.3-1.7-1.4-1.3-2.61.4-1 1.7-1.81 2.81-1.5 1.01.3 1.62 1.4 1.21 2.5z"/>
      </defs>
      <clipPath id="b">
        <use xlink:href="#a" overflow="visible"/>
      </clipPath>
      <g clip-path="url(#b)">
        <path fill="#FFF" d="M46.02 26.76c0 .3-.4.5-.7.5-.3-.1-.5-.4-.4-.7 0-.3.4-.5.7-.4.3 0 .5.3.4.6zm.3 2.11c-.2.7-1 1.21-1.7 1.01-.81-.1-1.22-.8-1.01-1.5.2-.71 1-1.11 1.7-1.01.71.1 1.21.8 1.01 1.5z"/>
      </g>
    </g>
    <path fill="#080649" d="M5.84 130.14c-.4.4-.81 1.2-1.11 2.51-.7 2.62-.9 2.62.3 3.22 1.31.7 3.73 1.4 7.05 1.8 3.22.31 6.75.71 8.56-.1.6-.3.6-1 .3-2-.2-1-4.33-.8-5.84-1.71a15.16 15.16 0 0 1-2.41-2.01l-.1.2-6.75-2.02v.1zm33.74 3.92c-.3-.9-4.44-.2-6.05-1-1-.51-2.62-1.92-3.52-2.72l-6.35.4-.6 2.31c-.3 2.72-.5 2.72.8 3.12 1.31.5 3.73 1 7.16 1 3.22 0 6.74 0 8.45-1 .6-.4.5-1.2.1-2.01v-.1z"/>
    <path fill="#FFADAD" d="M48.04 31.8c0 .2-.3.4-.6.3l-.61-.1a.61.61 0 0 1-.5-.71.61.61 0 0 1 .7-.5l.6.1c.3 0 .5.4.4.7v.2z"/>
    <path fill="#FFADAD" d="M48.04 30.58c0 .3-.3.4-.6.4l-.61-.2a.5.5 0 0 1-.4-.58V30.08c0-.3.4-.5.7-.4l.6.1c.3.1.5.4.4.7l-.1.1zm.7-1.2c-.1.3-.4.5-.7.4l-.6-.1a.57.57 0 1 1 .3-1.1h.6c.3.1.5.4.4.7v.1zM41 30.48s.4-.1.8-1c.6-.7 1.31-1 1-1.61-.2-.8-1.3.4-1.3.4l-.5 2.21z"/>
    <path fill="none" d="M33.84 132.75v-.1l1.6.3v.2l-1.6-.4zm-1.72-.5l.2-.1 1.01.3v.2l-1.2-.4zm-2.72-2.11h.2c.28.23.55.46.81.7l-.1.1a9 9 0 0 1-.9-.8zm1.21 1.2h.1c.32.24.66.44 1.01.6-.4 0-.8-.3-1.1-.5v-.1zm8.36 2.42v-.1.1zm0-.5v-.2.2zm-5.03-.61v-.2l1.5.4v.1l-1.5-.3zm5.03 1.2z"/>
    <path fill="none" d="M32.33 132.15l.1-.1c.4 0 .7.2 1 .3v.1c-.4 0-.8-.2-1.1-.3zm3.82 1h-.2v-.2l.6.2c1.01.3 1.82 1 2.22 1.51h-.1c-.6-.8-1.61-1.2-2.52-1.5zm2.82 1.21v-.1.1zm0 0v.2-.2zm-9.36-3.72c0-.2-.2-.3-.3-.5h.1l.9.8-.2.1-.5-.4zm1.7 1l-.6-.3h.2l1.01.4-.2.2-.4-.3zm7.76 1.21z"/>
    <path fill="none" d="M36.45 133.35l-.6-.1v-.1h.3c1 .3 1.92.7 2.52 1.51h-.1c-.5-.5-1.1-1-2.12-1.3z"/>
    <path fill="#C5CFD8" d="M38.97 134.96v-.1.1zm.1.9c0-.3-.2-.5-.3-.8l-.2-.4.2.3.2.5.1.4z"/>
    <path fill="#C5CFD8" d="M38.67 134.66l.3.4v.4a3.37 3.37 0 0 0-.3-.8zm.3 0v.1-.1z"/>
    <path fill="#EFF5F9" d="M26.08 137.28h10.68c.1 0 .2 0 .2-.2l-.2-.1H26.07l-2.01-.1c-.5 0-1.11-.2-1.52-.6v-.51c.2.2.3.3.5.3.21.2.51.3.81.3h12.6c.93-.02 1.87-.02 2.81 0 .92-.05 1.83-.19 2.72-.4v.5c0 .2 0 1.41-.5 1.41H24.27c-.3 0-.6 0-.9-.2-.21 0-.81-.2-.92-1 .5.4 1.01.5 1.52.6h2.11z"/>
    <path fill="#C5CFD8" d="M41.7 135.37v-.7l.2.8c-.3.13-.6.23-.91.3l.7-.4z"/>
    <path fill="#EFF5F9" d="M38.97 134.36v-1.3h.1v-.2l.6.1c1.21.2 2.02.8 2.02 1.7h-2.72V134.36z"/>
    <path fill="#C5CFD8" d="M39.07 135.87v-.4.4z"/>
    <path fill="#EFF5F9" d="M41.8 135.37h-.1l-.71.4c-.6.08-1.21.11-1.82.1 0-.1 0-.3-.2-.4v-.8h2.82v.7z"/>
    <path fill="#032641" d="M38.97 133.05v1.1a6 6 0 0 0 0 .51h-.2a3.83 3.83 0 0 0-2.21-1.5c-.2 0-.4 0-.61-.2.1-.23.24-.43.4-.61l2.72.5v.2h-.1zm-9.77-3.42c-.3-.3-.6-.6-1-.7l-.81-.2c.3-.3.5-.8.9-.8 0 0 .3-.7 2.32 1.1l-.7.2-.7.4zm1.21 1.21c-.3-.24-.57-.5-.8-.8l1.1-.4h.4l.6.6c-.46.12-.9.33-1.3.6zm1.51.9l-1-.5.7-.3.8-.2.3.3-.3.2-.6.5h.1zm2.02.71l.2-.1.5-.4 1.21.3-.4.6-1.41-.4h-.1zm-.2-.4l-.2.3-1.01-.3.7-.7h.1l.7.3-.3.4zm5.23 3.01l-.2-.4h.2v.4zm-8.46-3.11l-.2-.1v-.2l.2-.2 1.1.6v.2l-.4.1h-.1l-.1-.1-.2-.1H30.51v-.2z"/>
    <path fill="#032641" d="M35.95 133.66l-.1-.1.1-.3.6.1c1.01.3 1.62.8 2.02 1.3h-.9l-.2-.2h-.1l-.11-.1v-.1l-.2-.1h-.2l-.1-.1v-.1l-.3-.1h-.2l-.11-.2h-.2zm-3.93-1.01l-.1-.2.1-.1.1-.1 1.21.4-.1.2h-.3l-.2.1h-.1l-.1-.1h-.5v-.2zm1.71.4V132.75l1.72.4-.1.2-.2.1h-.2v-.1h-.21c0-.1-.1 0-.2 0h-.1l-.1-.2h-.5l-.1-.1zM29 130.34l.3-.2.3.5.5.4-.2.3c-.1 0-.2 0-.3.2v-.2l-.2-.2h-.2l-.1-.2-.1-.2h-.2l.2-.4z"/>
    <path fill="#032641" d="M23.46 128.53l.1.1v.2l.2.1h.3v.2h.71v.1h.5l.1.1h.6l.21.1h.1v-.1h.2v.1h.6v.1h.51v.2l.2.1h.2v.2l.2.21h.1v.1c0 .2.2.4.4.4h.11v.2l.1.1h.2l.1.1v.2l.2.1h.2v.31a.4.4 0 0 0 .61.3h.2c0 .1 0 .1.1 0l.2.1v.2h.2c0 .1.1 0 .1 0h.21v.4c0 .2.1.4.3.4.2 0 .3-.1.3-.2h.5v.1h.21c.1.1.2 0 .2 0h.1l.1.2c0 .3.2.4.4.4s.4-.1.4-.3h.31v.1h.5l.1.1h.5v.31c0 .2 0 .4.31.4.2 0 .3-.2.3-.3h.5v.2h.5v.2l.21.1h.2l.1.1v.2h.1l-14.6.4v.2c0-1.9.4-5.32.7-6.73v-.1z"/>
    <path fill="#032641" d="M28.8 130.04h-.1c-.2 0-.3 0-.4.2v-.2l-.1-.1h-.3l-.1-.1v-.2h-.2c0-.1-.1 0-.21 0l-.1-.1v-.1h-.3c0-.1-.1 0-.1 0h-.2v-.1h-.61v-.1h-1.1l-.1-.11h-.51v-.2h-.5v-.2h-.2c0-.1-.1-.1-.2 0V128.43l.1-.5c.5.3.8.7 3.21.9h.1l1.21.3.81.7-.2.2h.1zm8.76 4.72h.1v.2l.2.2h.1l.1.1v.4h.2V135.37h-.3V135.06l-.2-.2h-.2v-.1h.9l.21.3c.12.26.22.53.3.8-.23.02-.47.02-.7 0h-14.4c-.1 0-.4 0-.6-.2-.21 0-.41-.2-.61-.4v-.2l14.7-.3h.2z"/>
    <path fill="#0C0C0C" d="M39.27 136.37v-.3l1.01-.1.7-.2c.41 0 .71-.2.91-.3v.5c-.3.2-.7.2-1.2.3l-1.42.1zm-15.4-.3h15.3v.3a18 18 0 0 1-.8 0h-14.5a2.02 2.02 0 0 1-.81-.3 3.03 3.03 0 0 1-.4-.3v-.3c.3.3.7.5 1.2.6z"/>
    <path fill="#0C0C0C" d="M40.68 135.77h.3l-.8.2.4-.2h.1zm-1.6.1l.1.2v-.2h-.1zm-16.42-.5v-.2.3-.1zm.6.3l.6.3h12.6c.87-.02 1.74-.02 2.61 0h-15.2c-.5 0-.91-.2-1.21-.5v-.2l.6.4zm15.81.2z"/>
    <path fill="#C5CFD8" d="M28.4 130.34v.1l.2.2h.1v.1a.4.4 0 0 1-.4-.4v-.1h.1v.1z"/>
    <path fill="#C5CFD8" d="M28.5 130.34l-.2-.1.4-.2v.2h-.2v.1zm.2.2l.1-.1.2-.1c0 .2 0 .3-.2.4v-.2h-.1z"/>
    <path fill="#0C0C0C" d="M28.6 130.34h-.1l.2-.1-.1.1zm.1.1h.1v.1h-.1v-.1z"/>
    <path fill="#C5CFD8" d="M29.9 131.34v.2h-.2c0-.1 0-.2.2-.2zm-.2.2v.2l.2.2.21-.1v.2h-.2a.4.4 0 0 1-.31-.47v-.03h.1zm.5.1v.2h-.1l.1-.2z"/>
    <path fill="#0C0C0C" d="M30 131.85l-.1.1c-.1 0-.2 0-.2-.2h.2c0 .1 0 .1.1 0v.1z"/>
    <path fill="#C5CFD8" d="M31.52 132.45h-.2l.2-.2v.2zm-.3.1l.2.1.1.2.2-.1h.1c0 .2-.1.3-.3.3a.4.4 0 0 1-.3-.4v-.1zm.5.1l.2-.2v.2h-.2z"/>
    <path fill="#0C0C0C" d="M31.42 132.65c0 .1.1.2.2 0h.1c0 .1 0 .2-.2.2l-.2-.2h.1z"/>
    <path fill="#C5CFD8" d="M33.63 132.95v.1-.1zm-.4.2l.1.2.2-.1h.2c0 .2-.2.3-.4.3a.4.4 0 0 1-.3-.4h.2zm0-.2h-.1.1z"/>
    <path fill="#0C0C0C" d="M33.23 133.15v.1h.3l-.2.1-.2-.1.1-.1z"/>
    <path fill="#C5CFD8" d="M35.24 133.66v.1c0 .1 0 .2.2.2l.2-.2v-.1l.11.1c0 .2-.1.4-.3.4a.4.4 0 0 1-.3-.6l.1.1zm.5-.1zm-.5-.2h.1-.1z"/>
    <path fill="#0C0C0C" d="M35.35 133.76c0 .1.1.1.2 0a.2.2 0 0 1-.29.02l-.02-.02v-.1l.1.1z"/>
    <path fill="#E85725" d="M29.4 130.04zm-.1.1h.1-.1zm1.01-.4l.4-.1-1.1.4c.2-.2.4-.3.7-.3zm-1.2.3l-.1-.2v-.1l.3.2h-.2v.1zm.2-.1l-.2-.2v-.1c.2 0 .2.1.3.2h-.1v.1zm1.7-.4h.1l-.4.1.3-.1z"/>
    <path fill="#E85725" d="M29.4 129.84l-.2-.2.7-.4.71-.21.2.3c-.5 0-1 .2-1.4.5zm-.4.5l.3-.2-.3.2zm-.1-.2l-.1-.1.2-.2.1.2-.1.1h-.1zm0 .2h-.1.1z"/>
    <path fill="#E85725" d="M28.7 130.14v-.1l.3.1-.2.1h-.1v-.1zm.2.2l-.2.1h-.1v-.2h.2l-.1.2.1-.1h.1zm.5-.3l-.1.1-.2-.1.2-.1.1.1z"/>
    <path fill="#E85725" d="M29.4 130.04l-.1-.1v-.1l.2.2h-.1zm.1 0l-.1-.2c.4-.3.91-.5 1.41-.5h.1l.1.2-.3.1h-.4c-.28.1-.55.23-.8.4zm-.2.1l-.3.1v-.1l.1-.1.2.1zM28.9 130.34v-.2l.1.1h-.1v.1zm0 0h-.2.2zm1.71 1h.1-.1zm.1 0l.1-.1h-.1v.1zm.3-.2l.61-.2-.7.3.1-.1zm-.4.2l-.1.1.1-.1zm-.5-.3h.4l-.2.2-.2-.2zm.2-.1l.3.1h-.3v-.1zm1.91-.3h.2l-.8.3.6-.3zm-1.6.4l-.2-.2.5-.3.8-.3.3.2c-.5.1-1 .3-1.4.6zm-.1.4l-.21.2.2-.2zM30.1 131.44h-.2l.2-.4.21.2-.2.2zm0 .3l.1-.2v.1l-.1.1z"/>
    <path fill="#E85725" d="M30.1 131.44v.2a.2.2 0 0 0-.2 0v-.3l.2.1zm-.2.2h.1-.1zm.1 0v.1-.1zm.71-.3l-.2-.2h.3l-.1.2zm-.4-.1l.2-.1.2.2h-.1l-.3-.1z"/>
    <path fill="#E85725" d="M30.91 131.24c-.2 0-.2-.1-.3-.2.4-.3 1-.5 1.41-.6l.2.2-.6.3c-.28.07-.55.17-.8.3h.1zm-.8.2l.2-.2.3.2h-.1l-.3.1-.1-.1zM30.2 131.54l-.1.1v-.2l.1.1zm-.1.1h-.2.2zm2.12.5l.2-.1h-.1l-.1.1zm-.1.11l.1-.1h-.1v.1zm.7-.6l.41-.3-.8.7.4-.4zm-.9.5h-.2v-.2h.3l-.1.2z"/>
    <path fill="#E85725" d="M31.72 131.95l.1-.2h.2v.4l-.3-.1v-.1z"/>
    <path fill="#E85725" d="M32.12 131.85h-.3l.6-.6.3-.2.31.1-1 .7h.1zm-.1.5l-.1.1.1-.1zm-.3-.3h.1v.3l-.3-.1.1-.2h.1zm0 .5l.2-.1-.2.2v-.1z"/>
    <path fill="#E85725" d="M31.62 132.45h-.1v-.2h.2v.2h-.1zm0 .2c0 .2-.1.1-.2 0h.2zm.1-.1v.1h-.1l.1-.1zm-.1.1l-.1-.2h.1v.2zm.6-.5l-.2-.1v-.2l.4.2h-.2v.1z"/>
    <path fill="#E85725" d="M31.92 132.15v-.1h.3l-.1.2h-.2v-.1zm.5-.1l-.3-.2 1.01-.7.2.2a4 4 0 0 0-1 .7h.1z"/>
    <path fill="#E85725" d="M31.72 132.35l.2-.2h.2v.2h-.4zm.2 0l-.2.2v-.2h.2zm-.2.2h-.1.1zm2.01.2l.1-.1-.1.1zm-.4-.1v-.2l.3.1v.1h-.3zm.6 0v-.2.2z"/>
    <path fill="#E85725" d="M33.43 132.45v-.1h.3v.2h-.3v-.1z"/>
    <path fill="#E85725" d="M33.73 132.35h-.2c.15-.25.32-.49.5-.7l.3.2-.6.6v-.1zm.4 0l-.1.1.51-.6c0 .2-.2.3-.4.5zm-.6.5H33.23l.1-.2h.3l-.1.2zm.1.1l.1-.2v.2h-.1zm-.1.1v-.1h.1v.1h-.1zm0-.2l-.1.2h-.2v-.2h.3zm-.3.2h.1-.1zm.1.2v-.1h.1l-.1.1h-.1v-.2h.1v.2zm.3-.7l.1-.1h.3l-.2.2h-.2v-.1zm0 .1h.2-.2z"/>
    <path fill="#E85725" d="M34.34 131.85h.2l-.5.6h-.3l.6-.6zm-.8 1v-.2h.2l-.1.3h-.1v-.1z"/>
    <path fill="#E85725" d="M33.43 133.05v-.2h.2l-.2.2zm-.1 0zm.1.1v-.1.1zm2.42-.1zm-.1.2v-.2h.2v.2h-.2zm-.3-.3h.3v.1h-.3v-.1z"/>
    <path fill="#E85725" d="M35.45 133.15v-.2l.2.1v.1h-.2zm.5-.2l.3-.6h.1l-.4.6zm-.2 0h-.3l.4-.7h.3l-.4.7zm-.2.4a.38.38 0 0 0-.2 0v-.2h.3v.2h-.1zm.1 0l.1-.1h.1l-.1.3-.1-.1v-.1zm-.1 0v.1h-.2.2v-.1zm0 .3h.1-.1z"/>
    <path fill="#E85725" d="M35.55 133.56v-.1h.2v.2h-.2v-.1zm-.2.2v-.1h.1v.1l.1-.1v.2h-.2v-.1zm.3-.7l.1-.1h.2l-.1.1h-.2zm0 .1h.2-.2zm.5-.81h.1l-.3.6h-.2l.4-.6zM35.55 133.35v-.2h.2l-.1.3-.1-.1zm0 .2v-.2.2z"/>
    <path fill="#18488D" d="M38.17 135.37l.1.2v.1a1.97 1.97 0 0 0-.2-.4h.1v.1zm.1.3h-.3v-.4l.2.4h.1zm-.4-.8l.1.2v.1l-.3-.3h.2z"/>
    <path fill="#18488D" d="M37.97 135.16l-.2-.2v-.1l.3.3h-.1zm-.6-.8l.2.2v.2l-.31-.3h.1v-.1zm0 .4v-.1l-.11-.2.3.3h-.2z"/>
    <path d="M37.56 134.76h-.1.1z"/>
    <path fill="#18488D" d="M36.96 134.16h.1c0 .1.1.2 0 .2l-.3-.2h.2z"/>
    <path fill="#18488D" d="M37.16 134.36h-.4v-.2l.4.2zm-.5-.3h-.4v-.2l.4.2z"/>
    <path fill="#18488D" d="M36.35 133.86h.2s.1.2 0 .2l-.3-.2h.1zm-.6-.3l.3.1v.1h-.1v-.2h-.2z"/>
    <path fill="#18488D" d="M35.85 133.66l.3.1-.2.1v-.1l-.1-.1z"/>
    <path fill="#C5CFD8" d="M35.75 133.56v.1-.1zm0 .1z"/>
    <path d="M35.24 133.35v.1-.1z"/>
    <path fill="#C5CFD8" d="M35.35 133.35v.2h-.2l.1-.1.1-.1z"/>
    <path fill="#C5CFD8" d="M35.15 133.46h.2v.1h-.2v-.1z"/>
    <path fill="#E85725" d="M35.45 133.46v.1h-.1v-.1h.1zm0 .1h-.1.1zm0 0v.1h-.1.1v-.1zm.1 0v.1-.1z"/>
    <path fill="#18488D" d="M34.94 133.35v.2h-.3v-.2h.3zm-.2 0h.2-.2zm-.3 0h-.5v-.1h.4l.1.1zm-.3-.2h.2v.1h-.3v-.1h.1zm-.4-.1l.1.1h-.1v-.1zm0 .1h.1l-.1.1v-.1z"/>
    <path fill="#C5CFD8" d="M33.73 133.05v.1h-.2v-.1h.2zm-.2.2v-.1h.2v.1h-.2z"/>
    <path d="M33.43 133.25l.1-.1v.1h-.1z"/>
    <path fill="#E85725" d="M33.43 133.05h.1-.1zm0 0zm0 .2v-.1h.1l-.1.1z"/>
    <path fill="#18488D" d="M32.93 133.15v-.2h.1v.2h-.1zm0-.2h.2-.3.2-.1z"/>
    <path fill="#C5CFD8" d="M33.23 133.05v.1h-.3v-.1H33.23zm0-.1v.1h-.3v-.1H33.23z"/>
    <path fill="#E85725" d="M33.23 132.95v.1-.1zm0 .1v.1-.1z"/>
    <path fill="#18488D" d="M32.73 132.95s-.1.1-.2 0h-.2v-.1l.4.1z"/>
    <path fill="#18488D" d="M32.42 132.75h.2v.2l-.3-.1.1-.1zm-.5-.1h.1l.1.2-.2-.1v-.1z"/>
    <path fill="#18488D" d="M32.12 132.85h-.2v-.1h.3l-.1.1z"/>
    <path fill="#C5CFD8" d="M31.72 132.75h.2-.2zm.2-.1h-.2.2z"/>
    <path d="M31.22 132.35v.1-.1zm0 .2v-.1.1z"/>
    <path fill="#C5CFD8" d="M31.32 132.35l.2.1H31.22h.1v-.1zm.1.2v.1h-.2v-.1h.2z"/>
    <path d="M31.52 132.45v.1h-.1l.1-.1zm-.1.2v-.1.1z"/>
    <path fill="#E85725" d="M31.62 132.65h-.1v-.2.2h.1zm0 0h-.2.2z"/>
    <path fill="#18488D" d="M30.81 132.15h.2v.2l-.3-.2h.1z"/>
    <path fill="#18488D" d="M31.02 132.35s0 .1-.1 0h-.2v-.2l.3.2zm-.5-.3c0 .1 0 .1-.1 0h-.21v-.1l.3.1z"/>
    <path fill="#18488D" d="M30.31 131.85l.2.1v.1l-.3-.1v-.1h.1z"/>
    <path fill="#C5CFD8" d="M30.2 131.85zm.11 0h-.1.1zm-.4-.3h-.2.2zm-.2.2v-.2.2z"/>
    <path d="M29.8 131.64l.1.1h.1c0 .1 0 .1-.1 0h-.2v-.1h.1z"/>
    <path fill="#E85725" d="M30 131.64v.1h-.1v-.2.1h.1z"/>
    <path fill="#18488D" d="M29.5 131.44h-.1l-.2-.1v-.2l.3.3zm-.1-.3l.1.2v.1l-.3-.3h.2zm-.3-.1H29l-.2-.1v-.2l.2.2.1.1z"/>
    <path fill="#18488D" d="M28.9 130.74l.2.2v.1H29c0-.2-.1-.2-.2-.3h.2-.1z"/>
    <path fill="#C5CFD8" d="M28.6 130.54l.1.1h-.1l-.2-.2v-.1l.2.2zm.1 0v.1-.1z"/>
    <path d="M28.5 130.34l.1.2-.1-.1v-.1z"/>
    <path d="M28.6 130.34v.1h.1v.1l-.2-.1v-.1h.1z"/>
    <path fill="#E85725" d="M28.6 130.34v.1-.1z"/>
    <path fill="#18488D" d="M28 129.94h.2l.1.1v.2l-.3-.3zm.2.3l-.2-.2v-.1l.3.3h-.1zm-.5-.4h-.1c0-.1-.11-.2 0-.2l.3.2h-.2z"/>
    <path fill="#18488D" d="M27.7 129.53l.2.1v.2l-.4-.2s.1-.1.2 0v-.1zm-.81-.2h.4s.1.1 0 .2l-.3-.1-.1-.1z"/>
    <path fill="#18488D" d="M27.19 129.63h-.1l-.1-.2.4.1h-.2v.1zm-.5-.1h-.2l-.1-.2h.4l-.1.2zM26.48 129.33h.4-.4.1-.1zm-.4.1h-.2v-.1h.3v.1h-.1zm-.2-.2h.2l.1.1h-.3l.1-.1h-.1zm-.5-.1h.2v.2l-.4-.1h.2v-.1zm.1.2h-.2.2zm-.6 0h-.21v-.2h.4l-.1.2h-.1z"/>
    <path fill="#18488D" d="M24.77 129.03h.2v.2h-.3v-.2h.1zm-.5-.1h.1l.1.2a3.08 3.08 0 0 1-.4-.2h.2z"/>
    <path fill="#18488D" d="M24.37 129.13h-.2s-.1-.1 0-.2l.3.2h-.1zm-.5-.2l-.3-.1v-.2l.4.3h-.2.1z"/>
    <path fill="#18488D" d="M23.76 128.63l.1.1v.2l-.3-.3h.2z"/>
    <path d="M23.46 128.53v-.1.1zm-.9 7.84c.4.3 1 .5 1.5.5h12.7l.2.2c0 .1 0 .2-.2.2h-12.7c-.6 0-1.1-.2-1.6-.5v-.5l.1.1z"/>
    <path fill="#1A3A68" d="M25.88 130.94v.3l-.3-.3v.4l-.3-.2v.4l-.3-.2.1.4-.3-.1.2.3h-.41l.2.3h-.3l.3.3-.3.11.3.1-.3.3h.4l-.2.3h.3l-.1.3h.3v.3l.3-.2v.41l.2-.3v.4l.31-.3.1.3.2-.3.2.3v-.4l.3.3v-.4l.4.2-.1-.4.31.1-.1-.3h.3l-.2-.3h.4l-.3-.3h.3l-.3-.2.3-.2-.4-.1.3-.31h-.4l.2-.3h-.3v-.3l-.2.2v-.4l-.3.2v-.4l-.3.3v-.3l-.3.3-.21-.3z"/>
    <circle fill="#18488D" cx="26.08" cy="132.55" r="1.11"/>
    <g>
      <path fill="none" d="M15.9 133.35h.1l1.42.6v.1l-1.61-.7h.1zm-1.5-.8h.1l1 .5v.1l-1.1-.6zm-2.22-2.61h.1l.2.3.4.6c-.3-.2-.5-.6-.7-1v.1zm.8 1.4h.21c.27.31.57.58.9.8l-.1.11-1-.8v-.1zm3.03 2.01l.1-.2 1.41.7v.1l-1.51-.7v.1zm-1.51-.9h.2l1 .5-.2.1-1-.6zm3.52 1.91l-.1-.2.6.2c1.01.5 1.52 1.3 1.82 2.01h-.1c-.4-1-1.31-1.6-2.22-2zm2.52 1.7v-.1.1zm0 0z"/>
      <path fill="none" d="M12.28 130.34l-.3-.4h.2l.6 1-.4-.5-.1-.1zm1.41 1.5l-.5-.5h.2l.8.7h-.1a6.87 6.87 0 0 1-.4-.2zm7.36 2.72zm-2.73 0c-.2 0-.3-.2-.5-.3h.2c1.01.5 1.82 1 2.22 2.01h-.1c-.3-.6-.9-1.2-1.82-1.7z"/>
      <path fill="#C5CFD8" d="M20.44 137.48l-.2-.7-.1-.5c.13.24.24.52.3.8v.4z"/>
      <path fill="#C5CFD8" d="M20.24 136.37l.2.4v-.1.4c-.03-.27-.1-.54-.2-.8v.1zm.3 0z"/>
      <path fill="#EFF5F9" d="M7.45 136.27l3.93.8 6.44 1.41c.1 0 .2 0 .3-.2 0 0 0-.2-.2-.2-4.16-.89-8.33-1.8-12.49-2.71-.5-.1-1-.4-1.3-.8l.2-.51.3.4.7.4.6.2 11.9 2.32c.9.18 1.8.38 2.71.6.9.15 1.8.22 2.72.2v.4c0 .3-.4 1.41-.8 1.31l-16.93-3.52-.8-.4c-.1-.1-.7-.4-.6-1.1.3.4.8.6 1.3.8l2.02.5v.1z"/>
      <path fill="#C5CFD8" d="M23.06 137.58h.1l.1-.7v.9c-.33.04-.67.04-1 0 .3 0 .6 0 .8-.2z"/>
      <path fill="#EFF5F9" d="M20.54 136.07v-.1l.2-.4v-.2c.05-.21.12-.41.2-.6l.1-.2.61.3c1 .4 1.61 1.2 1.61 2l-2.72-.5v-.3z"/>
      <path fill="#C5CFD8" d="M20.44 137.48v-.4.5-.1z"/>
      <path fill="#EFF5F9" d="M23.16 137.58h-.1c-.2.2-.5.2-.7.2-.65-.02-1.29-.09-1.92-.2v-.9V136.37l2.82.5-.1.7z"/>
      <path fill="#032641" d="M20.94 134.76v.2l-.2.3v.2l-.1.4v.2l-.1.31h-.2c-.3-.7-.9-1.5-1.82-2.01l-.6-.3.3-.3.2-.2 2.62 1v.2h-.1zm-8.86-5.43l-.8-.8-.81-.4c.3-.2.6-.6 1-.6 0 0 .5-.61 2.02 1.6h-.7l-.81.3.1-.1zm.8 1.51l-.4-.6-.2-.4 1.21-.1h.4l.5.7c-.52.04-1.03.18-1.5.4zm1.32 1.2l-.81-.7.7-.2h.81l.3.3-.4.2c-.2 0-.4.2-.6.4zm1.9 1.11l.21-.1.5-.3 1.11.6-.4.5-1.41-.7zm-.1-.5l-.3.3-1-.6 1-.4.61.5-.3.2z"/>
      <path fill="#032641" d="M20.44 136.77l-.1-.5h.2v.7l-.1-.1v-.1zm-7.65-4.82l-.1-.2v-.2h.2l.1-.1 1 .8-.2.2h-.3v.1h-.2v-.2l-.2-.2H12.79v-.2zm5.03 2.81l-.1-.1-.1-.1.2-.3.5.3c.91.5 1.52 1 1.82 1.71l-1-.2s.1 0 0-.1v-.2h-.31l-.1-.1v-.1l-.2-.2h-.1l-.1-.1v-.1l-.2-.2h-.31v-.2zm-3.62-1.8h-.1v-.2l.2-.21 1.2.6-.2.2h-.5v-.1l-.3-.1H14.2v-.2zm1.6.7h-.1c0-.2.1-.2.2-.3l1.52.7-.2.3H16.92v-.2h-.3c0-.1 0 0 0 0l-.2-.1v-.1l-.31-.1H15.8v-.2zm-4.02-3.62l.2-.1.3.5.4.6c-.1.05-.2.12-.3.2h-.3v-.1l-.2-.2h-.1l-.1-.2v-.1l-.1-.2h-.2c.2 0 .3-.2.3-.4h.1z"/>
      <path fill="#032641" d="M6.74 127.12v.3l.1.2h.3v.2l.2.1h.41v.2h.6v.2h.4v.2h.71v.1l.2.11h.2v.1l.3.1H10.38v.2l.2.2h.2v.2l.1.2h.2v.2c0 .2.12.36.3.4v.2l.1.21h.21v.3l.2.2h.1v.3a.4.4 0 0 0 .5.4l.2.1h.11l.2.1v.21l.1.1h.2l.1.1v.1a.4.4 0 1 0 .6.4v.1h.41v.2h.2c0 .1.1 0 .2 0h.1v.2h.1a.4.4 0 0 0 .3.61c.21 0 .31 0 .41-.3h.3v.2h.5v.2l.2.1h.31l-.1.3a.4.4 0 0 0 .7.2h.1c0 .1.2.1.2 0l.1.1v.2l.21.1h.1l.2.1v.21l.1.1h.2v.3l.2.1-14.5-2.71v.2l2.02-6.44h.2z"/>
      <path fill="#032641" d="M11.58 129.63h-.1l-.4.1v-.1l-.1-.2h-.2V129.13l-.21-.1h-.2l-.1-.1v-.2h-.5v-.2h-.61v-.2h-.4l-.1-.1-.2-.1H8.15v-.1l-.2-.1h-.31v-.2h-.2c0-.11-.1 0-.2 0l-.1-.21-.2-.2h-.2V127.02c0-.3.2-.5.2-.4.4.4.7.8 3.02 1.5l1.2.6.6.81-.2.1zm7.55 6.54h.1v.4h.2v.5l.2.1V136.87l-.1-.1V136.47l-.1-.2h-.2v-.2l.9.2.1.5.21.7v.1a9.88 9.88 0 0 1-.7-.1l-1.92-.5-11.78-2.41-.5-.1c-.2 0-.4-.2-.61-.4l-.4-.5v-.2l14.5 2.7h.1v.1zm1.31 1.3v.1-.1z"/>
      <path fill="#0C0C0C" d="M20.44 138.08v-.3h2.82v.5h-1.41l-1.4-.2zm-14.9-3.52l1.8.4 3.73.8 4.44 1.01c1 .1 3.42.7 4.93 1.01v.3c-.27-.06-.54-.12-.8-.2l-1.92-.4-11.78-2.41-.6-.2c-.27-.09-.5-.23-.71-.4l-.3-.41.1-.3c.2.3.6.6 1 .8h.1z"/>
      <path fill="#0C0C0C" d="M21.85 137.78h.5-.9c-.34.03-.67.03-1 0v-.2l1.5.2h-.1zm-1.4-.2zm-16.02-3.82v-.3.3zm.5.3c.2.2.4.4.6.4l.5.1 11.8 2.41 2.61.6v.1c-1.51-.2-4.03-.8-4.93-1l-4.44-1-3.72-.7-1.82-.4c-.5-.2-.9-.51-1.1-.81v-.2l.5.5zm15.51 3.52v.1-.1z"/>
      <path fill="#C5CFD8" d="M11.07 129.94v.1l.1.2h.2v.1a.4.4 0 0 1-.3-.6v.2z"/>
      <path fill="#C5CFD8" d="M11.18 129.94l-.1-.2a.4.4 0 0 1 .5 0h-.2l-.2.2zm.2.2h.1l.3-.1c0 .2-.2.3-.4.3v-.2z"/>
      <path fill="#0C0C0C" d="M11.28 129.94l.1-.1v.1h-.1zm.1.2z"/>
      <path fill="#C5CFD8" d="M12.38 131.34H12.08h.3zm-.3 0v.2c0 .1 0 .2.2.3l.2-.1v.2a.4.4 0 0 1-.4-.6zm.6.2v.2h-.2l.2-.2z"/>
      <path fill="#0C0C0C" d="M12.38 131.64l-.1.2a.2.2 0 0 1-.22-.16c-.01-.05 0-.1.02-.14l.2.1h.1z"/>
      <path fill="#C5CFD8" d="M13.7 132.65l-.1-.1h-.1l.3-.1v.2h-.1zm-.31.1h.1c0 .1 0 .2.2.2h.2v.1l-.3.1a.4.4 0 0 1-.2-.5v.1zm.5.1l.2-.1v.1h-.3.1z"/>
      <path fill="#0C0C0C" d="M13.6 132.85s0 .1.2 0c0 .1 0 .2-.1.1-.1 0-.2 0-.2-.2h.1v.1z"/>
      <path fill="#C5CFD8" d="M15.7 133.56v.1-.1zm-.5.1l.1.3.2-.1h.2c0 .2-.2.3-.4.3a.4.4 0 0 1-.3-.48v-.02h.2z"/>
      <path fill="#0C0C0C" d="M15.2 133.66v.1h.3c0 .2 0 .2-.2.2a.2.2 0 0 1-.1-.2v-.1z"/>
      <path fill="#C5CFD8" d="M17.12 134.56v.1l.1.2.2-.1.1-.1v.2h.1c0 .2-.2.3-.4.2a.4.4 0 0 1-.3-.4l.1-.2.1.1z"/>
      <path fill="#C5CFD8" d="M17.62 134.66h-.1v-.1h.1v.1z"/>
      <path fill="#0C0C0C" d="M17.22 134.76h.2s0 .2-.2.1a.2.2 0 0 1-.1-.2l.1.1z"/>
      <path fill="#E85725" d="M12.18 129.84h.1-.1zm-.2.1h.2-.2zm1.1-.2h.41l-1.2.2v-.1l.8-.1zm-1.2 0v-.2l.2.1h-.3l.1.1zm.2-.1l-.2-.2h.1l.2.2h-.1zm1.71 0l.1.1h-.4.4l-.1-.1z"/>
      <path fill="#E85725" d="M12.18 129.63l-.2-.2c.47-.22.99-.32 1.51-.3l.2.3c-.5 0-1 0-1.5.2zm-.4.3h.2l-.2.1v-.1zm0-.1l-.2-.2.2-.1.1.2-.2.1h.1zm-.3.3v-.1h.3-.3v.1zm-.1-.3l.2-.2.1.2H11.38z"/>
      <path fill="#E85725" d="M11.48 130.14h-.1V129.84h.2l-.2.2h.2l-.1.1zm.7-.3h-.2v-.2l.2.2zm0 0l-.1-.2.2.2h-.1zm.1 0l-.1-.2c.5-.2 1-.3 1.51-.2h.1v.2h-.7l-.8.2zm-.3.1h-.2v-.1l.1-.1.1.2zm-.4.1v-.1l.1-.1v.1h-.1v.1zm0-.1h-.2.2zm1.4 1.4h.21-.2zm.2 0h.1-.1zm.41-.1h.5-.7.2zm-.6.1v.1-.1zm-.3-.3l.1-.1.2.2h-.2l-.1-.1zm.1-.1h.1l.2.1h-.1l-.2-.1zm2.01 0l.1.2h-.8l.7-.2zm-1.71.1l-.2-.2c.47-.23.98-.36 1.5-.4l.2.4c-.5 0-1 0-1.5.2zm-.2.4l-.2.1h.2v-.1zM12.58 131.34h-.2c0-.2.2-.3.3-.3l.1.2-.2.1zm-.1.3l.2-.1-.2.1z"/>
      <path fill="#E85725" d="M12.58 131.34l-.1.2-.2-.1v-.2l.3.1zm-.2.2v-.1.1zm0 0s.1 0 0 .1v-.1zm.8-.2l-.2-.2h.1l.2.1h-.1v.1zm-.4-.1l.2-.1.21.2h-.2l-.2-.1z"/>
      <path fill="#E85725" d="M13.29 131.34l-.2-.3c.5-.2 1-.2 1.5-.2l.21.1-.7.2c-.28 0-.55.04-.81.1v.1zm-.7 0l.2-.1c.1 0 .2 0 .2.2h-.4v-.1z"/>
      <path fill="#E85725" d="M12.69 131.54h-.2v-.2l.2.2zm1.8.91h.21-.2zm-.1.1h.1-.1zm.81-.4l.5-.2-1 .4.5-.2zm-.8.4h-.1.1zm-.3-.2H14v-.2l.3.1-.2.1z"/>
      <path fill="#E85725" d="M14.1 132.15v-.1h.1l.2.1-.1.1-.2-.1z"/>
      <path fill="#E85725" d="M14.4 132.25l-.1-.1h-.1v-.1l.6-.4.4-.2.3.3c-.4 0-.8.2-1.1.5zm1.4-.3h-.1.1zm-1.5.6l-.2.2.2-.2zm-.3-.2h.1l-.1.2-.2-.1.2-.2v.1zm-.1.4z"/>
      <path fill="#E85725" d="M13.8 132.65v-.2h.2l-.1.2h-.1zm0 .2c-.1.1-.2 0-.2 0h.2zm.1-.1v.1h-.1.1v-.1z"/>
      <path fill="#E85725" d="M13.8 132.85v-.2h-.1.2l-.1.2zm.7-.4l-.2-.2h.1l.3.1-.2.1zm-.3-.1v-.1l.3.2H14.2v-.1z"/>
      <path fill="#E85725" d="M14.7 132.35l-.3-.1c.3-.3.7-.4 1-.5l.3.2-.5.2-.5.2zm-.7.2l.1-.2.1.1h.2l-.1.1-.2.1-.1-.1zm.1.1l-.2.1v-.2l.2.1zm-.2.1h-.1.1zm1.9.6h.1-.1zm-.3-.2h.3l-.1.1h-.2v-.1zm.5.2l.1-.2-.1.1v.1zm-.5-.3l.2-.1.2.1-.1.1h-.3v-.1zm.4 0l-.2-.1c.2-.18.4-.35.61-.5l.3.1-.7.5zm.41 0l-.2.1.7-.4-.5.3z"/>
      <path fill="#E85725" d="M15.5 133.35h-.2l.2-.2.2.1-.2.2v-.1zm.1.2l.3-.2-.2.2h-.1zm0 .1h-.1l.1-.1v.1z"/>
      <path fill="#E85725" d="M15.5 133.35v.2h-.2v-.2h.2zm-.2.3zm0 .1l.1-.1v.1h-.2v-.1h.2l-.1.1zm.5-.6h.3l-.1.1h-.2v-.1z"/>
      <path fill="#E85725" d="M15.7 133.35v-.2l.3.1-.1.1h-.2zm.91-.8l.2.2-.7.4h-.2l.7-.6zm-1.1.8h.4l-.3.2v-.1l-.1-.1z"/>
      <path fill="#E85725" d="M15.5 133.66v-.2h.1l-.1.2zm2.32.5v-.1h.1v.1h-.1zm-.1.1v-.1h.2l-.1.1h-.1zm-.3-.3v-.1l.3.1v.1h-.3v-.1zm0 .1h.2v.1h-.2v-.1zm.5 0l.5-.5-.2.2-.3.3z"/>
      <path fill="#E85725" d="M17.82 133.96l-.3-.1.4-.5.3.1c-.18.15-.35.32-.5.5h.1zm-.4.4h-.2l.2-.3.2.1-.2.2zm.1 0l.2-.1-.1.3v-.1l-.1-.1zm-.1 0v.1h-.2v-.1h.2zm0 .2h.1v.1h-.1v-.1z"/>
      <path fill="#E85725" d="M17.42 134.56l.1-.1v.1h-.1zm-.2.2v-.2h.1v.2-.1h.1v.1h-.2zm.4-.7h.3l-.1.1h-.2v-.1zm0 .1h.2l-.1.1h-.1v-.1zm.6-.7h.2l-.5.6h-.2l.5-.6z"/>
      <path fill="#E85725" d="M17.42 134.36l.2-.2v.3h-.2v-.1z"/>
      <path fill="#E85725" d="M17.42 134.56v-.2h.1v.2h-.1zm-.1.2v-.1.1z"/>
      <path fill="#18488D" d="M19.63 136.88v.3l-.1-.4h.1v.1z"/>
      <path fill="#18488D" d="M19.63 137.18h-.1v-.3c-.1 0 0 0 0-.1v.4h.1zm-.2-.8v.1c.1 0 0 .1 0 .1s0-.2-.2-.3h.2v.1zm0 .3l-.1-.1-.1-.2v-.1l.2.3v.1zm-.4-.91l.2.2v.1l-.3-.3h.1zm0 .3l-.1-.1v-.2l.2.3h-.1z"/>
      <path d="M19.13 136.07h-.1.1z"/>
      <path fill="#18488D" d="M18.63 135.37l.2.2v.1l-.3-.3h.1zm.2.3h-.2l-.1-.1v-.2l.3.3zm-.4-.3h-.2l-.2-.2v-.2l.4.3v.1z"/>
      <path fill="#18488D" d="M18.23 134.96l.1.2v.1l-.3-.3h.2zm-.61-.3l.3.1v.1l-.3-.1v-.1z"/>
      <path fill="#18488D" d="M17.62 134.76l.3.1c0 .1-.1.1-.2 0v-.1h-.1z"/>
      <path fill="#C5CFD8" d="M17.52 134.66h.1v.1l-.1-.1z"/>
      <path d="M17.22 134.36h-.1.1z"/>
      <path fill="#C5CFD8" d="M17.22 134.36v.1h-.1v-.1h.1z"/>
      <path fill="#C5CFD8" d="M17.12 134.36l.1.1v.1h-.1v-.2z"/>
      <path fill="#E85725" d="M17.42 134.36v.1h-.2.2v-.1zm-.1.2h-.1.1zm0 0h-.1.1z"/>
      <path fill="#18488D" d="M16.81 134.36h-.2c0-.1-.1-.2 0-.2 0 0 .2 0 .3.2h-.1z"/>
      <path fill="#18488D" d="M16.61 134.06l.2.1.1.2-.4-.2h.1v-.1zm-.2 0h-.4v-.2l.4.2z"/>
      <path fill="#18488D" d="M16.1 133.86h.21v.2l-.3-.2h.1zm-.3-.2zm0 .1v.1-.1z"/>
      <path fill="#C5CFD8" d="M15.8 133.66v.1h-.2v-.1h.2zm-.3.2v-.1h.2v.1h-.2z"/>
      <path fill="#E85725" d="M15.5 133.66z"/>
      <path fill="#18488D" d="M15 133.66c0-.1-.1-.2 0-.2v.2z"/>
      <path fill="#18488D" d="M15 133.35h.2l-.1.2-.2-.1h.1v-.1z"/>
      <path fill="#C5CFD8" d="M15.2 133.56v.1H15v-.1h.2zm.1-.1v.1h-.2v-.1h.2z"/>
      <path fill="#E85725" d="M15.3 133.46v.1-.1zm0 .1v.1-.1z"/>
      <path fill="#18488D" d="M14.8 133.35s-.1.1-.2 0h-.2v-.2l.4.2z"/>
      <path fill="#18488D" d="M14.5 133.15h.2v.2l-.2-.2zm-.4-.3l.1.1v.2l-.2-.2.1-.1zm.1.3H14v-.2l.2.2z"/>
      <path fill="#C5CFD8" d="M13.8 132.95h.2v.1l-.1-.1h-.1zm.2-.1v.1h-.1c0-.1 0-.1.1 0v-.1z"/>
      <path d="M13.39 132.65v-.1.1z"/>
      <path fill="#C5CFD8" d="M13.6 132.55v.1h-.21v-.1h.2zm0 .1v.1h-.21v-.1h.2z"/>
      <path d="M13.7 132.65h-.1.1zm-.1.2v-.2.2z"/>
      <path fill="#E85725" d="M13.8 132.85l-.1-.1v-.1.2h.1z"/>
      <path fill="#E85725" d="M13.8 132.85h-.2v-.1h.1l.1.1z"/>
      <path fill="#18488D" d="M13.09 132.15l.2.2v.1l-.3-.3h.1zm.2.3h-.2l-.1-.1v-.2l.3.3zm-.5-.4l-.2-.1.1-.1.2.2h-.1z"/>
      <path fill="#18488D" d="M12.58 131.75l.2.2v.1l-.2-.2v-.1z"/>
      <path fill="#C5CFD8" d="M12.48 131.75l.1.1c-.1 0-.1 0 0 0l-.1-.1zm.1 0v.1-.1zm-.3-.4v.1h-.2c0-.1.1-.1.2 0v-.1z"/>
      <path fill="#C5CFD8" d="M12.08 131.54v-.2l.1.1v.1h-.1z"/>
      <path d="M12.18 131.44h.1v.1l-.1-.1z"/>
      <path d="M12.18 131.44l.1.1.1.1h-.1l-.2-.1h.1v-.1z"/>
      <path fill="#E85725" d="M12.38 131.54v.1l-.1-.2h.1v.1zm-.1.1h.1-.1z"/>
      <path fill="#18488D" d="M11.98 131.34l-.1-.1-.2-.2v-.1l.3.3v.1zm-.1-.4l.1.2v.1l-.2-.3h.1zm-.2-.2h-.2l-.1-.2v-.1l.2.2v.1h.1z"/>
      <path fill="#18488D" d="M11.58 130.44v.2c.1 0 .1.1 0 .1v-.1l-.2-.2h.2z"/>
      <path fill="#C5CFD8" d="M11.28 130.14v.1l-.2-.2v-.1h.1l.1.2zm0 0h.1v.1l-.1-.1z"/>
      <path d="M11.28 129.94v.2h.1c-.1 0-.2 0-.2-.2h.1z"/>
      <path fill="#E85725" d="M11.28 129.94z"/>
      <path fill="#18488D" d="M10.77 129.33l.2.1.1.2v.1l-.3-.3v-.1z"/>
      <path fill="#18488D" d="M10.87 129.74v-.2c-.1 0-.1 0 0-.1l.2.3h-.3.1zm-.3-.4l-.2-.2v-.11l.3.3h-.1zM10.57 129.03l.1.1v.2l-.3-.3h.2zm-.7-.3h.4v.2l-.4-.2z"/>
      <path fill="#18488D" d="M10.17 128.93h-.2s-.1-.2 0-.2l.3.2h-.1zm-.6-.2h-.2v-.2l.4.1-.2.1z"/>
      <path fill="#18488D" d="M9.46 128.43l.2.1v.1l-.3-.1h.1v-.1zm-.4.1h-.3s-.1-.1 0-.2l.3.1-.1.1h.1z"/>
      <path fill="#18488D" d="M8.96 128.33h.2v.1h-.4l.2-.1zm-.6-.2h.2v.2l-.3-.1.1-.1z"/>
      <path fill="#18488D" d="M8.46 128.33h-.2v-.1h.4l-.2.2v-.1zm-.5-.1l-.21-.1s-.1-.1 0-.2l.3.2h-.1v.1z"/>
      <path fill="#18488D" d="M7.75 127.92h.3v.2l-.4-.2h.2-.1zm-.4-.3l.1.1s.1.1 0 .2c-.1-.09-.21-.19-.3-.3h.2z"/>
      <path fill="#18488D" d="M7.35 127.92l-.1-.1c-.1 0-.1-.1 0-.1l.3.2h-.2zm-.5-.3l-.1-.3v-.2c0 .2.2.3.3.3 0 .1-.1.1-.2 0v.2z"/>
      <path fill="#18488D" d="M6.84 127.32l.2.1v.1a2 2 0 0 1-.3-.3h.1v.1z"/>
      <path d="M6.74 127.12h-.1v-.1.1h.1zm0 0h-.1.1zm-2.62 7.44c.3.4.81.7 1.31.8l2.02.5c3.56.82 7.11 1.63 10.67 2.42l-.3.2-6.44-1.4-6.05-1.31c-.5-.2-1-.4-1.3-.8l.1-.4z"/>
      <path fill="#1A3A68" d="M8.55 129.94l-.2.3-.1-.3-.1.4-.3-.3v.4l-.3-.2v.3l-.3-.1.1.3h-.3l.2.3h-.5l.3.2-.4.1.3.2-.3.2.3.1-.3.3h.4l-.2.31h.4l-.2.3.3-.1v.3l.3-.2v.4l.2-.2.1.3.2-.3.2.4.1-.4.2.3.1-.3.31.2v-.4l.3.2-.1-.3h.3l-.1-.3h.3l-.2-.2h.4l-.3-.3.3-.1-.3-.2.3-.2h-.2l.3-.3h-.4l.2-.41-.3.1.1-.3-.3.1v-.4l-.3.3v-.4l-.3.3-.2-.4z"/>
      <path fill="#18488D" d="M9.46 131.85a1.08 1.08 0 1 0-2.11-.4 1.08 1.08 0 0 0 2.11.4z"/>
    </g>
    <path fill="#3F0300" d="M26.58 17.91c-.6-.1-1-1-.8-.9 1.1.5 1.71.3 1.81.3 0 .3 0 .5-.2.7h-.8v-.1z"/>
    <ellipse transform="rotate(-71.06 26.68 11.98)" fill="#110B0A" cx="26.68" cy="11.98" rx=".81" ry=".4"/>
    <g>
      <path fill="#050201" d="M26.38 10.67c.3-.2 1-.2 1.31.2l-.1.1-.6-.2h-.6v-.1z"/>
    </g>
    <path opacity=".5" fill="#472107" d="M27.19 18.72s-.8.1-1.21-.3c0 0 .3.7 1 .6l.2-.2v-.1zm1-3.42l-.1.3c-.1 0-1-.6-1-.8l.6.3.5.2z"/>
  </g>
  <g>
    <path fill="#660968" d="M117.2 10s-2.1-6.4-6-6c0 0 .6-.5 2.3-.3 0 0 3 1 4.7 6.2 1 2.9-1 .1-1 .1z"/>
    <path fill="#660968" d="M120.2 11.6c.7 1.3.3 2.8-.7 3.3s-2.5-.2-3-1.6c-.7-1.3-.4-2.8.7-3.3 1-.5 2.4.2 3 1.5v.1z"/>
    <ellipse transform="rotate(-115 118.9 12.1)" fill="#91A9BC" cx="118.9" cy="12.1" rx="2.6" ry="2"/>
    <path fill="#660968" d="M121 11.1c.5 1.1.2 2.4-.7 2.8-.9.4-2-.2-2.6-1.3-.5-1.1-.2-2.4.7-2.8.9-.5 2 .1 2.6 1.3z"/>
  </g>
  <path fill="#281C15" d="M110.7 16.1c0 .4 0 .8-.3.8s-.5-.3-.6-.7c0-.4 0-.8.3-.8s.5.2.6.7z"/>
  <ellipse transform="rotate(-98.81 113.21 15.68)" fill="#281C15" cx="113.21" cy="15.68" rx=".8" ry=".5"/>
  <g>
    <path fill="#281C15" d="M114.2 14.2c-.3-.4-1.2-.5-1.6 0l.1.1h1.5v-.1zm-5.2.8c.2-.4 1-.8 1.5-.5.1 0 0 .1 0 .2l-.8.1-.6.3-.1-.1z"/>
  </g>
  <path fill="#EAEAEA" d="M124.2 85.9s-2.5-1.5-4.8-1.2l-2-.2v.7-.3.3l.2.2.7.5h-.2l.4.4-.4.3 1.6-.3.4.7.4-.5.3.5.7-.3.5.5.8-.4 1.3.2.1.1.6-.6h-.5v-.6h-.1z"/>
  <path fill="#FFADAD" d="M123.7 85.7s-2.3-1.2-4.3-1h-2v.4-.1.1l.5.2.7.4v.1l.2.3-.3.3 1.5-.3.2.6.4-.4.3.4.5-.2.5.4.7-.3h1.1v.2l.6-.5h-.5v-.7l-.1.1zm-10.4.6s-1.9-.8-3.2-.6l-1.6-.1v.3l.6.1.6.3.3.2-.2.3 1-.3.2.5.2-.3.2.3.4-.2.3.3.5-.2h.7v.1l.4-.3h-.3v-.4h-.1z"/>
  <path fill="#EAEAEA" d="M122.5 89.2s-1.5-.9-2.9-.7h-1.1v.3-.1.2l.4.3.1.3-.2.2 1-.2.2.4.3-.3.2.3.3-.2.4.3.5-.2h.8v.2l.4-.4h-.3v-.4h-.1z"/>
  <path fill="#FFADAD" d="M122.4 89.1s-1.5-.8-2.8-.6h-1.1v.3-.2.2h.1l.4.3.1.3-.2.2 1-.2.2.4.2-.3.2.3.3-.2.4.3.4-.2h.7l.1.2.3-.4h-.3v-.4z"/>
</svg>
