<svg xmlns="http://www.w3.org/2000/svg" width="288.2" height="54.9">
  <path fill="#FFF" d="M176.7 19.5l-7 .3 1.7 2.5 5.8 3.5 5.5-6z"/>
  <path fill="#C4C4C4" d="M219.6 17.1l-8 .8-1-8.6 8.1-.8z"/>
  <path fill="#00558A" d="M219.7 8.3c1.2 0 2.2.8 2.4 2l.4 4.4c.1 1.1-.8 2.2-2 2.3l-.9.1-.9-8.7h1z"/>
  <path fill="#E2E2E2" d="M226.4 19.3l-8 .8-1-8.7 8.1-.7z"/>
  <path fill="#00558A" d="M226.6 10.6c1.1-.1 2.2.7 2.3 2l.4 4.3c.2 1.2-.7 2.2-1.9 2.3l-1 .1-.8-8.6 1-.1z"/>
  <path fill="#FFF" d="M231.7 17.8L203 0l-8.5.8L209.9 20z"/>
  <path fill="#FFF" d="M287.1 17.6a9 9 0 0 0-2.6-1.6c-2.7-4.5-9.6-7.2-19.9-6.2l-86.2 8.9s-4.4 1-4.3 2.6c0 .8 2.6 7.3 8.3 9.5L267 22l.6 3.5c19.4-1 19.8-4.2 19.8-4.2.4-.5.6-1 .7-1.5.1-1-.3-1.6-1-2.3z"/>
  <path fill="#8DA5C7" d="M282.8 16.4l-.1-2h.4c.8.5 1 .9 1.7 1.8l-2 .2zM281 16.6l1.1-.1v-2.2l-1 .1zM279 16.8l1.3-.2.3-2.1h-1.2z"/>
  <path fill="#FFF" d="M183.7 21.4L174.2 8l2.8-.3 17 12.7z"/>
  <path fill="#DBDBDB" d="M288.2 20c-.2 1.9-1 3.4-9 4.4-4.7.6-69.2 7.2-79.5 8.3-7.5.7-13.2-.3-17.3-2L288.2 20z"/>
  <path fill="#FFF" d="M182.1 21.6l-3.8.4-7.4-13.7 2-.2zM174.2 8l9.5 13.4-1.6.2L173 8z"/>
  <g fill="#8DA5C7">
    <circle cx="242.7" cy="20.8" r="1"/>
    <path d="M245.3 20.5a1 1 0 1 0 2-.2 1 1 0 0 0-2 .2zM249.2 20.1a1 1 0 1 0 2-.2 1 1 0 1 0-2 .2z"/>
    <circle cx="253.9" cy="19.8" r="1"/>
    <circle cx="257.5" cy="19.4" r="1"/>
    <path d="M260.2 19.2a1 1 0 1 0 2-.2 1 1 0 0 0-2 .2zM263.8 18.8a1 1 0 1 0 2-.2 1 1 0 0 0-2 .2z"/>
    <circle cx="239" cy="21.2" r="1"/>
    <circle cx="235.2" cy="21.5" r="1"/>
    <circle cx="231.5" cy="21.9" r="1"/>
    <circle cx="227.8" cy="22.3" r="1"/>
    <path d="M223 22.7a1 1 0 1 0 2-.2 1 1 0 0 0-2 .2zM219.3 23c0 .6.6 1 1.1 1a1 1 0 1 0-.2-2 1 1 0 0 0-.9 1zM215.6 23.5c0 .5.6 1 1.1.9a1 1 0 1 0-1-1z"/>
    <circle cx="212.9" cy="23.7" r="1"/>
    <path d="M208.2 24.2a1 1 0 1 0 2-.2 1 1 0 0 0-2 .2zM204.4 24.6c.1.5.6 1 1.2.9.5-.1 1-.6.9-1.1-.1-.6-.6-1-1.1-1a1 1 0 0 0-1 1.2z"/>
    <circle cx="201.7" cy="24.8" r="1"/>
    <circle cx="198" cy="25" r="1"/>
  </g>
  <g fill="#8DA5C7">
    <path d="M241.4 16.4c0 .6.6 1 1.1 1 .6-.1 1-.6 1-1.2a1 1 0 1 0-2 .2z"/>
    <circle cx="246.1" cy="15.9" r="1"/>
    <circle cx="250" cy="15.6" r="1"/>
    <circle cx="253.7" cy="15.3" r="1"/>
    <path d="M256.3 15a1 1 0 1 0 2-.1 1 1 0 0 0-2 .2z"/>
    <circle cx="260.9" cy="14.6" r="1"/>
    <path d="M263.5 14.3a1 1 0 0 0 2-.1c0-.6-.5-1-1-1a1 1 0 0 0-1 1.2zM267.3 18.5a1 1 0 1 0 2-.2 1 1 0 0 0-2 .2zM267 14c.1.6.6 1 1.2 1a1 1 0 1 0-1.1-1z"/>
    <circle cx="271.9" cy="18.1" r="1"/>
    <circle cx="271.7" cy="13.6" r="1"/>
    <circle cx="238.7" cy="16.7" r="1"/>
    <circle cx="235" cy="17" r="1"/>
    <circle cx="231.3" cy="17.4" r="1"/>
    <path d="M226.5 17.9a1 1 0 1 0 2-.2 1 1 0 0 0-2 .2zM222.8 18.2a1 1 0 1 0 2-.2 1 1 0 0 0-2 .2z"/>
    <circle cx="220.1" cy="18.5" r="1"/>
    <path d="M215.4 19a1 1 0 0 0 2-.2 1 1 0 0 0-2 .2zM211.6 19.3c.1.6.6 1 1.1 1a1 1 0 1 0-.2-2 1 1 0 0 0-.9 1zM208 19.7a1 1 0 1 0 2-.2 1 1 0 0 0-2 .2z"/>
    <circle cx="205.2" cy="20" r="1"/>
    <circle cx="201.5" cy="20.3" r="1"/>
    <circle cx="197.8" cy="20.5" r="1"/>
  </g>
  <path fill="#FFF" d="M236 25l-31.2 28.8-11.4 1.1 17.7-27.3z"/>
  <path fill="#FFF" d="M234.8 34l-8 .9-1-8.7 8.1-.8z"/>
  <path fill="#00558A" d="M234.9 25.3c1.2-.1 2.2.7 2.3 1.9l.5 4.4c.1 1.2-.8 2.2-2 2.3l-1 .1-.8-8.6 1-.1z"/>
  <path fill="#FFF" d="M217.2 27l8.7-.8.8 8.6-8.6.9c-2.9.3-6.6-2.5-6.7-3.7 0-1.3 3-4.7 5.8-5zM193.6 20.6L174.4 2.7l-6.5.8 8.4 17.9-7.3.6 2 4.1 7.5 2.3-6.2 6.7 6.8-.7 12.3-8.7z"/>
  <path fill="#8DA5C7" d="M193 21a1 1 0 1 0 2-.3 1 1 0 0 0-2 .2z"/>
  <path fill="#DBDBDB" d="M188.8 31.8l2.7-6.3-7.4 5.4z"/>
  <path fill="#E6E6E6" d="M233.5 25.7l-4.2 8.9-4 .3z"/>
  <path fill="#FFF" d="M227 41.4l-8 .8-.9-8.6 8-.8z"/>
  <path fill="#00558A" d="M227.2 32.6c1.2 0 2.2.8 2.3 2l.5 4.4c0 1.1-.8 2.2-2 2.3l-1 .1-.8-8.7h1z"/>
  <path fill="#E6E6E6" d="M225.8 33l-4.3 9-3.9.3z"/>
  <path fill="#E6E6E6" d="M204.8 53.8l28.4-28.3.7-.1-8.6 9.5-19.7 18.8z"/>
  <g fill="#EEF5FF">
    <path d="M169.2 23.4l-6.4.7-.1-1.2 6.4-.7zM161 24.2l-6.4.7-.1-1.2 6.5-.7zM153 25l-6.5.7-.2-1.2 6.5-.6zM144.8 25.9l-6.5.6-.1-1.2 6.4-.6zM136.7 26.6l-6.5.7V26l6.4-.7zM128.5 27.4l-6.4.7-.1-1.2 6.4-.6zM120.4 28.3l-6.5.6-.1-1.2 6.5-.6zM112.3 29l-6.4.7-.2-1.2 6.5-.6zM104.2 29.9l-6.5.6-.1-1.2 6.5-.6zM96 30.7l-6.5.6v-1.2l6.4-.6zM88 31.4l-6.5.7-.1-1.2 6.4-.6zM79.8 32.3l-6.5.6-.1-1.2 6.5-.6zM71.6 33l-6.4.7-.2-1.2 6.5-.6zM63.5 33.9l-6.5.6-.1-1.2 6.4-.6zM55.4 34.7l-6.5.6v-1.2l6.4-.6zM47.2 35.5l-6.4.6-.1-1.2 6.4-.6zM39 36.3l-6.4.6-.1-1.2 6.5-.6zM31 37l-6.4.7-.2-1.2L31 36zM22.9 37.9l-6.5.6-.1-1.2 6.4-.6zM14.7 38.7l-6.5.6v-1.2l6.4-.6zM6.6 39.5L.2 40 0 39l6.4-.6z"/>
  </g>
</svg>
