<svg xmlns="http://www.w3.org/2000/svg" width="1333.2" height="127.7">
  <path fill="#ABCF25" d="M839.6 0a19.2 19.2 0 0 0-17.1 27.7 23.6 23.6 0 0 0 17.1 40h.1V0h-.1z"/>
  <path fill="#BDD951" d="M863.3 44c0-6.3-2.5-12-6.6-16.3a19.2 19.2 0 0 0-17-27.7v67.8c13-.1 23.6-10.7 23.6-23.7z"/>
  <path fill="#744E3B" d="M838.4 43.5h2.3v53.9h-2.3z"/>
  <path fill="#744E3B" d="M845 47.5L839.7 60v6l7.4-17.7zM838.4 56.7l-4-9.7-2.2 1 6.2 14.7z"/>
  <path fill="#BDD951" d="M824.9 18.3c.2-3.6 1.8-6.8 4-9.6.5-.7-.7-1.4-1.2-.7-2.2 3-3.9 6.5-4.1 10.3 0 .8 1.3.8 1.3 0zM830.5 7c.5-.5 1-1 1.7-1.3.7-.5 0-1.6-.7-1.2l-2 1.6c-.5.6.4 1.5 1 1zM821 44.4c-.7-3.6 0-7 1.4-10.3.3-.8-1-1.2-1.3-.4a19.2 19.2 0 0 0-1.4 11c.2.8 1.5.5 1.3-.3zM823.6 32l1.3-1.7c.5-.6-.4-1.5-1-1l-1.4 2.1c-.5.7.7 1.4 1 .7z"/>
  <path fill="#4A8215" d="M1036.5 104.3c-2.3 0-4.5.4-6.6 1-4-9.7-14.9-16.6-27.6-16.6-16.1 0-29.2 11-29.2 24.8 0 1.4.1 2.8.4 4h84c-2.7-7.4-11.1-13.2-21-13.2zM628.5 104.3c-2.3 0-4.5.4-6.6 1-4-9.7-14.9-16.6-27.6-16.6-16.1 0-29.2 11-29.2 24.8 0 1.4.1 2.8.3 4h84.1c-2.7-7.4-11.1-13.2-21-13.2zM49.5 107.2a20 20 0 0 0-5 .7C41.2 100.4 32.7 95 22.8 95 10.2 95 0 103.6 0 114.4c0 1 .1 2.2.3 3H66c-2.2-5.7-8.7-10.2-16.5-10.2zM1316.8 107.2c-1.8 0-3.5.3-5.2.7-3.1-7.5-11.6-12.9-21.5-12.9-12.6 0-22.9 8.6-22.9 19.4 0 1 .1 2.2.3 3H1333.2c-2.1-5.7-8.7-10.2-16.4-10.2z"/>
  <g>
    <circle fill="#BDD951" cx="662.7" cy="70.1" r="16.4"/>
    <path fill="#ABCF25" d="M662.9 53.7h-.2a16.4 16.4 0 1 0 .2 32.8V53.7z"/>
    <path fill="none" stroke="#744E3B" stroke-width="2.3" stroke-miterlimit="10" d="M662.9 63.1V105"/>
    <path fill="none" stroke="#744E3B" stroke-width="1.7" stroke-miterlimit="10" d="M656.3 64.8l6.6 6.2M669.4 64.8l-6.5 6.2M656.3 73.8l6.6 6.3M669.4 73.8l-6.5 6.3"/>
    <path fill="#BDD951" d="M650.2 65.3c.5-2.2 1.8-4 3.4-5.5.3-.4-.3-.9-.7-.5-1.7 1.6-3 3.5-3.5 5.8-.1.5.7.7.8.2zM654.7 59l1.2-.7c.5-.2.2-1-.3-.8l-1.4.8c-.4.3 0 1 .5.7z"/>
  </g>
  <g>
    <circle fill="#BDD951" cx="199.3" cy="65" r="18.8"/>
    <path fill="#ABCF25" d="M199.4 46.2h-.1a18.8 18.8 0 0 0 0 37.6h.1V46.2z"/>
    <path fill="none" stroke="#744E3B" stroke-width="2.6" stroke-miterlimit="10" d="M199.4 57v48"/>
    <path fill="none" stroke="#744E3B" stroke-width="1.9" stroke-miterlimit="10" d="M192 58.9l7.4 7.2M206.9 58.9l-7.5 7.2M192 69.3l7.4 7.1M206.9 69.3l-7.5 7.1"/>
    <path fill="#BDD951" d="M184.9 59.5c.5-2.5 2-4.6 3.9-6.3.4-.4-.3-1-.8-.6-1.9 1.9-3.4 4-4 6.7-.2.6.7.8.9.2zM190 52.3l1.4-.8c.6-.3.2-1.1-.3-.9l-1.5 1c-.5.3 0 1 .5.7z"/>
  </g>
  <g>
    <path fill="none" stroke="#744E3B" stroke-width="2.3" stroke-miterlimit="10" d="M560.3 78.2v42.5"/>
    <path fill="#BDD951" d="M572.4 83.8c0 14.5-8.5 19.4-12 19.4s-11.6-4.9-11.6-19.4c0-14.4 11.6-33 11.6-33s12 18.6 12 33z"/>
    <path fill="#ABCF25" d="M560.3 51c-1 1.7-11.5 19.1-11.5 32.8 0 14.4 8.1 19.4 11.5 19.4V51z"/>
  </g>
</svg>
