<svg xmlns="http://www.w3.org/2000/svg" width="173.9" height="150.6">
  <ellipse opacity=".2" cx="111" cy="137.8" rx="22.2" ry="5.9"/>
  <ellipse opacity=".2" cx="41.7" cy="137.8" rx="22.2" ry="5.9"/>
  <path fill="#110A01" d="M60.8 28c0-4.6-4.9-7.3-15-11-10.1 3.7-15 6.4-15 11-.1 4.5 1.1 7.2 6.3 8.7 5.2 1.5 8.7 1 8.7 1s3.5.5 8.7-1c5.2-1.5 6.4-4.2 6.3-8.8z"/>
  <path fill="#312A6C" d="M55.1 55s5 6.3 4 16.9c-1 10.6-.5 23.7-.5 28.5 0 4.9 1.2 37.4 1.2 37.4s-7.5-1-14.3.2c0 0 4-27.5 4-37.6 0-6.8-2.4-24-3.6-24-.7 0-3.8 15.1-5.5 24.5-1.7 9.5-3 35.8-3 35.8s-5.5.4-14.4-2c0 0 7-25.9 8.4-33.9 1.3-8 .3-32.8 5.7-45.7h18z"/>
  <path fill="#9FD651" d="M59.7 40.6c-1.8-4.9-3.2-6.3-7.6-7.3l-6.3.3-6.3-.2c-4.4 1.1-8.1 3.5-10 8.4 0 0 6.9.3 2.3 28.4-.6 3.2-1.6 5.6 0 7 3.5 3.4 12 3.3 12 3.3s11.6-.2 16.3-3.7c2.6-2 .9-5.6-.5-9-4.4-11 .1-27.2.1-27.2z"/>
  <path fill="#739936" d="M68.4 51.2s2.5 2.4.7 7.5c0 0-2 5.5-5.4 2.5-3.4-3 4.7-10 4.7-10z"/>
  <path fill="#EAAD42" d="M64.8 55.9s1.1 4.4 9.2 2c0 0 4.5-1.5 9-5 0 0 5-4.5 6.2-6.2 1.3-1.7 1-3.2-.6-4.1-1.6-.9-2.7-1.2-3-.7-.4.5.5.7 1.5 1.5s.5 2-1.4 2.7c-1.9.8-1.8-.3-1.4-1.1.5-.8 1.2-1.8.4-2.2-.8-.3-1.4 1-1.4 1s-1.5 1.9-1 3c.6 1.1.8 1.5.1 2-.6.4-7.5 7-12.8 5 0 0-1.8-1-2.6-2.1-.9-1.2-2.2 4.2-2.2 4.2z"/>
  <path fill="#9FD651" d="M56.8 35.5s4.2 3.1 7.8 9.4l3.6 6.3s-4.8 5.3-3.7 10.7c0 0-3.5-1.6-6-6.7l-3.3-7.7 1.6-12z"/>
  <path fill="#739936" d="M21.8 52s-2.5 2.3-.7 7.5c0 0 2 5.5 5.4 2.4 3.4-3-4.7-10-4.7-10z"/>
  <path fill="#EAAD42" d="M25.2 56.6s-1.1 4.5-9.2 2c0 0-4.5-1.4-9-5 0 0-5-4.5-6.2-6.2-1.3-1.7-1-3.2.6-4 1.6-1 2.7-1.2 3-.7.4.5-.5.6-1.5 1.5-1 .8-.5 1.9 1.4 2.7 1.9.8 1.8-.4 1.4-1.2-.5-.7-1.2-1.8-.4-2.1.8-.3 1.4 1 1.4 1s1.5 1.8 1 3c-.6 1-.8 1.4-.1 1.9.6.5 7.6 6.9 12.8 5 0 0 1.4-.7 2.2-1.8.9-1.1 2.6 4 2.6 4z"/>
  <path fill="#9FD651" d="M33.2 36.3s-4.2 3-7.8 9.3L21.8 52s4.8 5.4 3.7 10.8c0 0 3.5-1.7 6-6.8 1.1-2.3 3.3-7.7 3.3-7.7l-1.6-12z"/>
  <path fill="#BA5AAA" d="M41.9 32.3s-1 34.9-.4 38.1c.7 3.2 0 5 0 5l-10-3.2s2-9.4 1.9-17.6c-.2-8.8-.2-15.5-.2-18.3a38 38 0 0 1 8.7-4z"/>
  <path opacity=".3" d="M33.2 49.9c.3 5.9.6 3.9-.2 11-.3 3-.7 7.3-1.2 9.8-.8 4-1.5 6 .6 7.1 4.3 2.5 7.9 2.5 7.9 2.5s-4.5-7.7-4.9-12.7c-.4-6-2.1-12.7-2.2-17.7z"/>
  <path fill="#AF811B" d="M42.1 33c.2-1.2.1-3-.7-5.2-2-5.6 11.2-5.7 8.5.2-1.1 2.5-.6 4.4-.3 5.7.5 1.8-7.7 1.4-7.5-.6z"/>
  <path fill="#DDAF3C" d="M42 33.3c.2-1.2.1-1.7.1-2.7 2 1.8 6.2 1 7 3 .5 1.5-7.9 2.1-7.2-.3zM45.8 31c1.3 0 2.5-.8 3.5-1.8 3.4-3.6 3.3-9.2 3-14.2 0-.5-.1-1-.4-1.5-.5-.6-1.4-.8-2.2-1a209.6 209.6 0 0 0-11.1.6c-.3.2-.4.5-.4.9-.3 1.4.2 2.9.2 4.3 0 1.5 0 3 .3 4.5.5 2.9 1.8 5.6 4.3 7.2a5 5 0 0 0 2.8 1z"/>
  <g fill="#DF9B7E">
    <path d="M52.2 19.9l-.4 4.7c1.5-.7 1.7-3.2 1.8-4.6 0-1.2-1-.5-1.4-.1zM38.6 19.9l.4 4.7c-1.5-.7-1.7-3.2-1.8-4.6 0-1.2 1-.5 1.4-.1z"/>
  </g>
  <path opacity=".4" fill="#472107" d="M48 26.5s-.1 2.9-2.4 3c-1.6 0-2.2-1.5-2.6-2.6-.2-.2 0-.3.2-.3l1.7-.1.6.1.6-.1h2z"/>
  <path fill="#8C0C00" d="M44 28.3c.7.5 1.5.7 2.4.4l.6-.4a4.3 4.3 0 0 0 .5-.9c0-.2.1-.4.3-.5a14 14 0 0 1-4.7 0c.3.5.5 1 1 1.4z"/>
  <path fill="#FFF" d="M43.4 27l-.1-.1s2.3.3 4.3 0l-.5.4-1.5.3c-.8 0-1.5-.2-2.1-.4l-.1-.2z"/>
  <path opacity=".4" fill="#5B2A09" d="M46.6 29.6c-.3.4-.9.5-1.5.2.5 0 1 0 1.5-.2z"/>
  <path fill="#BA5AAA" d="M49.4 32s1 35.2.3 38.4c-.6 3.2 0 5 0 5l10-3.2s-2-9.4-1.8-17.6c.2-8.8-.7-16.1-.7-19-3-2-7.8-3.6-7.8-3.6z"/>
  <path fill="#2D1A01" d="M58.6 22.6c-.9-.9-2-1.5-2.8-2.3-.9-.8-1.7-2-1.5-3.2.3-1.7 1-3.6.4-5.2a5.4 5.4 0 0 0-3.8-3.2c-1.7-.4-3.6.1-5 1.2a6.7 6.7 0 0 0-5.2-1.2 5.4 5.4 0 0 0-3.8 3.2c-.6 1.6.1 3.5.4 5.2.2 1.2-.6 2.4-1.5 3.2-.9.8-2 1.4-2.8 2.3a7.7 7.7 0 0 0-1.8 8.2c1.1 2.7 4 4.7 7 4.7-1.4-1-2.4-1.9-3.2-3.3-.9-1.3-1.3-3-1-4.5.4-2 1.7-3.6 3.2-4.8l5-3.7c2-1.5 3.3-3.3 3.6-5.2.3 2 1.6 3.7 3.5 5.2l5 3.7a8.4 8.4 0 0 1 3.3 4.8c.3 1.5-.1 3.2-1 4.5-.8 1.4-1.8 2.4-3.1 3.3 3 0 5.8-2 6.9-4.7 1.1-2.8.4-6.2-1.8-8.2z"/>
  <path fill="#FA4469" d="M54.4 17.6H37.3a.5.5 0 1 1 0-1h17c.3 0 .6.2.6.5s-.3.5-.5.5zM37.8 22.4c-.2 0-.4.2-.4.4v2.1c0 .2.2.3.4.3.1 0 .3-.1.3-.3v-2.1c0-.2-.2-.4-.3-.4zM53.3 21.8l.3.3v2.2a.3.3 0 1 1-.7 0V22c0-.1.2-.3.4-.3z"/>
  <g>
    <path fill="#257B82" d="M43.7 20.8a2.7 2.7 0 1 0-5.3 0 2.7 2.7 0 0 0 5.3 0zM52.6 20.8a2.7 2.7 0 1 0-5.3 0 2.7 2.7 0 0 0 5.3 0z"/>
    <path fill="#54E8EF" d="M50 17.2a3.6 3.6 0 0 0-3.6 3c-.6-.2-1.3-.2-1.8 0a3.6 3.6 0 1 0 0 1c.5-.3 1.3-.3 1.8 0a3.6 3.6 0 1 0 3.5-4zm-11.6 3.6a2.7 2.7 0 1 1 5.3 0 2.7 2.7 0 0 1-5.3 0zm8.9 0a2.7 2.7 0 1 1 5.3 0 2.7 2.7 0 0 1-5.3 0z"/>
  </g>
  <path opacity=".2" d="M56.5 60.8c0 4 1.9 10.8.8 13.6-2 5.8-7.9 5.7-7.9 5.7s7.2-.7 10.7-3.3c3.1-2.2-.3-8.6-.8-10.1s-1-3-1.2-4.8c-.6-4.6-.3-8.5-.3-8.5l-1.3 7.4z"/>
  <path fill="#BA5AAA" d="M48.3 135.8s-2.6 1.8-.2 3.5c.4.3 2.7.4 5.3.8 3.6.5 5.8 2.7 9.3-.7 0 0 .3-1.5-2-1.8-2.5-.2-4.6-1.8-4.8-2.8-.3-1-6.5-.4-7.6 1zM35.8 135s2.5 1.9 0 3.5c-.3.3-2.6.3-5.2.6-3.6.4-6 2.5-9.3-1 0 0-.3-1.5 2-1.7 2.5-.1 4.7-1.6 5-2.6.2-1 6.4-.3 7.5 1.1z"/>
  <path fill="#312A6C" d="M63.1 136.7c-2-6-4.3-23.5-4.3-23.5.5-2.4-.3-6.5-3.6-6.7-1.9 0-3.8 2.1-4.8 6 0 0-.7 2.3-3.3 14.4-.6 2.8-3 9.7-1.6 11 1.4 1.6 18.3.8 17.6-1.2zM20.4 135.7a247 247 0 0 0 8.7-24.7c1.4-3.9.8-6 4-5.7 2 .2 3.6 2.6 4 6.6 0 0 0 2 1 14.5.2 2.8 3 10.2 1.5 11.4-1.6 1.3-20.1-.3-19.2-2.1z"/>
  <g>
    <path fill="#105C70" d="M123.7 55s5 6.3 4 16.9c-1 10.6-.6 23.7-.6 28.5 0 4.9 1.2 37.4 1.2 37.4s-7.4-1-14.3.2c0 0 4-27.5 4-37.6 0-6.8-2.4-24-3.6-24-.7 0-3.8 15.1-5.5 24.5-1.7 9.5-3 35.8-3 35.8s-5.5.4-14.4-2c0 0 7-25.9 8.4-33.9 1.3-8 .3-32.8 5.7-45.7h18z"/>
  </g>
  <path fill="#5E3C29" d="M116.8 135.8s-2.6 1.8-.2 3.5c.4.3 2.7.4 5.3.8 3.6.5 5.8 2.7 9.3-.7 0 0 .4-1.5-2-1.8-2.5-.2-4.6-1.8-4.8-2.8-.3-1-6.5-.4-7.6 1zM104.3 135s2.5 1.9.1 3.5c-.4.3-2.7.3-5.3.6-3.6.4-6 2.5-9.3-1 0 0-.3-1.5 2-1.7 2.5-.1 4.7-1.6 5-2.6.2-1 6.4-.3 7.5 1.1z"/>
  <path fill="#105C70" d="M131.7 136.7c-2.2-6-4.4-23.5-4.4-23.5.5-2.4-.3-6.5-3.5-6.7-2 0-3.9 2.1-4.9 6 0 0-.7 2.3-3.3 14.4-.6 2.8-3 9.7-1.6 11 1.4 1.6 18.4.8 17.7-1.2zM89 135.7c3-5.8 8.6-24.7 8.6-24.7 1.4-3.9.8-6 4-5.7 2 .2 3.6 2.6 4 6.6 0 0 0 2 1 14.5.2 2.8 3 10.2 1.6 11.4-1.7 1.3-20.2-.3-19.2-2.1z"/>
  <g>
    <path opacity=".4" fill="#753D17" d="M44.8 24.4h-.2c.3.2.4.6.7.7.6.3.8-.4 1-.8a5 5 0 0 1-1 .2h-.5z"/>
    <path fill="#EDB89A" d="M45.8 24.6c.2 0 .4-.2.5-.3a5 5 0 0 1-1 .2h-.5l-.2-.1h.1c.4.3.8.4 1.1.2z"/>
  </g>
  <ellipse opacity=".9" fill="#281C15" cx="41.5" cy="20.6" rx=".8" ry="1.2"/>
  <path opacity=".4" fill="#54E8EF" d="M38.4 22.4l4.2-4.2h-.4L38.4 22zM38 22l4.3-4.3h-.4L38 21.4zM39.6 24v.2l4.2-4.3v-.6l-4.2 4.2z"/>
  <ellipse opacity=".9" fill="#281C15" cx="49.1" cy="20.6" rx=".8" ry="1.2"/>
  <path opacity=".4" fill="#54E8EF" d="M47.6 22.4l4.3-4.2h-.4L47.6 22zM47.3 22l4.2-4.3h-.4l-3.8 3.8zM48.9 24v.1L53 20v-.6l-4.2 4.2z"/>
  <path fill="none" stroke="#000" stroke-width=".7" stroke-linecap="round" stroke-linejoin="round" stroke-miterlimit="10" d="M44.6 42.3s-4.4-3-3.2-10M46.7 42.3s4.4-3 3.2-10"/>
  <path fill="#BA5AAA" d="M42.6 45.2a3.2 3.2 0 0 0 1.9 3 3.2 3.2 0 0 0 3.5-.7 3.2 3.2 0 0 0 .7-3.5 3.2 3.2 0 0 0-2.9-2 3.2 3.2 0 0 0-3 2l-.2 1.2zm5.6 1.1c0 .2-.2.3-.3.5L46 45v-2.5c.3 0 .6 0 .8.2a2.6 2.6 0 0 1 1.4 1.4 2.7 2.7 0 0 1 0 2.1zm-1.4 1.4l-.8.2v-2.1l1.6 1.4-.8.5zm-3-.6l1.7-1.3v2a2.7 2.7 0 0 1-1.7-.7zm-.7-2a2.7 2.7 0 0 1 2.4-2.5V45l-2 1.6a2.7 2.7 0 0 1-.4-1.5z"/>
  <g>
    <path fill="#9FD651" d="M37.5 43.3s.2-1.7.8-1.6c.7.1.4 1.2.2 1.7s1.4-1.5 1.8 0c.2.8-1.1 1-1.6 1 0 0 2.3.9 1 2-1.4 1.1-1.8-1-1.8-1s-.7 1.7-1.6 1.2c-.9-.6.6-1.5.6-1.5s-1.8.4-2.1-.5c-.3-.9 1.5-.8 1.5-.8s-1.3-.6-.6-1.3c.7-.7 1.5.2 1.8.8z"/>
    <path fill="#BA5AAA" d="M38 44.2s-.5-.4-.8 0c-.3.4 0 .7.5.7.4 0 .5-.4.2-.7z"/>
  </g>
  <g>
    <path fill="#9FD651" d="M54 57.4s0-1.7.7-1.6c.7.2.4 1.2.2 1.7-.2.6 1.4-1.5 1.7 0 .3.9-1 1-1.6 1 0 0 2.4 1 1 2-1.3 1.2-1.7-.9-1.7-.9s-.8 1.7-1.6 1.1c-.9-.5.5-1.5.5-1.5s-1.7.4-2-.4c-.3-1 1.5-.9 1.5-.9s-1.3-.6-.6-1.3c.7-.7 1.5.3 1.8.8z"/>
    <path fill="#BA5AAA" d="M54.3 58.4s-.4-.4-.7 0c-.3.3 0 .6.5.6.4 0 .5-.3.2-.6z"/>
  </g>
  <g>
    <path fill="#9FD651" d="M53 49s-1.5-.7-1.1-1.3c.3-.6 1.2 0 1.6.5.4.4-.9-1.9.6-1.7.9.2.5 1.4.4 2 0 0 1.7-2 2.2-.2.6 1.6-1.5 1.2-1.5 1.2s1.3 1.3.5 2c-.9.5-1.2-1.1-1.2-1.1s-.3 1.7-1.2 1.7c-1 0-.2-1.7-.2-1.7s-1 1-1.5 0 .8-1.2 1.4-1.3z"/>
    <path fill="#BA5AAA" d="M54 49s-.4.3-.2.7c.2.5.6.2.8-.2.1-.3-.1-.6-.5-.5z"/>
  </g>
  <g>
    <path fill="#9FD651" d="M51.6 15.5s-1.4-.7-1.1-1.3 1.2.1 1.5.5c.4.3-.8-1.8.5-1.6.9.2.6 1.3.4 1.8 0 0 1.6-1.7 2-.2.6 1.6-1.3 1.2-1.3 1.2s1.2 1.2.4 1.8c-.8.5-1-1-1-1s-.3 1.6-1.2 1.6c-.9 0-.2-1.6-.2-1.6s-1 1-1.3.1c-.4-.8.7-1.2 1.3-1.3z"/>
    <path fill="#BA5AAA" d="M52.5 15.5s-.4.2-.2.6c.2.4.6.2.7-.2.1-.3-.1-.6-.5-.4z"/>
  </g>
  <g>
    <path fill="#9FD651" d="M36.6 58s-1.5-.8-1.1-1.3c.3-.6 1.2 0 1.6.4.4.4-.9-1.8.6-1.6 1 .1.5 1.4.4 1.9 0 0 1.7-1.9 2.2-.2.6 1.7-1.5 1.2-1.5 1.2s1.3 1.4.5 2c-.9.6-1.2-1.1-1.2-1.1s-.3 1.8-1.2 1.7c-1 0-.2-1.7-.2-1.7s-1 1-1.4.1c-.4-.9.7-1.3 1.3-1.4z"/>
    <path fill="#BA5AAA" d="M37.7 58s-.5.2-.3.6c.2.5.6.2.8-.1.1-.4-.1-.7-.5-.5z"/>
  </g>
  <g>
    <path fill="#1E080C" d="M126.7 20.3c0-4.6-1-8.2-11.2-12-10.1 3.8-11.6 7.2-11.7 11.8-.1 4.5-2.2 6.5 3 8s8.7 1 8.7 1 3.5.5 8.7-1c5.2-1.5 2.6-3.3 2.5-7.8z"/>
    <path fill="#FED45C" d="M129.4 32c-1.8-4.9-3.2-6.2-7.6-7.3l-6.3.3-6.3-.1c-4.4 1-8.1 3.5-10 8.4 0 0 6.9.2 2.3 28.3-1 5-.6 5.2.8 6.2 2.5 1.6 12.7-.3 12.7-.3s8.8 1 13.5-.2c1.3-.4 1.4-4.9.2-7.9-4.4-11 .7-27.4.7-27.4z"/>
    <path fill="none" stroke="#000" stroke-width=".7" stroke-linecap="round" stroke-linejoin="round" stroke-miterlimit="10" d="M111 23.8c-.8 4.9 1.1 7.7 2.3 9M119.6 23.8c.8 4.7-1 7.6-2.2 9"/>
    <path fill="#2CAA3A" d="M112.3 35a3.1 3.1 0 0 0 .9 2.3 3.2 3.2 0 0 0 2.2 1 3.2 3.2 0 0 0 3.2-3.2 3.2 3.2 0 0 0-5.4-2.4 3.2 3.2 0 0 0-1 2.3zm5.6 1.1c0 .2-.2.3-.3.5l-1.9-1.7v-2.5c.3 0 .6 0 .8.2A2.6 2.6 0 0 1 118 34a2.7 2.7 0 0 1 0 2.1zm-1.4 1.4l-.8.2v-2.1l1.6 1.4-.8.5zm-3-.6l1.7-1.3v2a2.7 2.7 0 0 1-1.7-.7zm-.7-2a2.7 2.7 0 0 1 2.4-2.5v2.5l-2 1.6-.2-.5c-.2-.3-.2-.7-.2-1z"/>
    <path fill="#9B782C" d="M149.5 37.4s3.4.1 5.5 5.2c0 0 2.2 5.4-2.3 5.4-4.6 0-3.2-10.6-3.2-10.6z"/>
    <path fill="#DF9B7E" d="M134.5 47.3s1.1 4.5 9.2 2c0 0 4.5-1.4 9-5 0 0 5-4.5 6.2-6.2 1.3-1.7 1-3.2-.6-4-1.6-1-2.7-1.3-3-.7-.4.5.5.6 1.5 1.4 1 .9.5 2-1.4 2.8-1.9.8-1.8-.4-1.4-1.2.5-.7 1.2-1.8.4-2.1-.8-.3-1.4 1-1.4 1s-1.5 1.8-1 3c.6 1 .8 1.4.1 1.9-.6.4-7.5 5.8-12.7 4 0 0-1.4-.7-2.3-1.8-.9-1.1-2.6 5-2.6 5z"/>
    <path fill="#FED45C" d="M126.5 27s4.2 3 7.8 9.3l3.6 6.3s8-5.6 11.6-5.2c-.2 5.2 3.7 7.6 4.3 10.5 0 0-11.6 5.3-19.2 4.4-2.7-.3-5.7-4.4-6.4-5.7a175 175 0 0 1-3.3-7.7l1.6-12z"/>
    <path opacity=".3" d="M103.2 30.2a150 150 0 0 1-1.7 32l5 1.7 4.6 1s-5.6-.9-6-5.9c-.4-5.9-1.8-23.8-1.9-28.8z"/>
    <path fill="#292F52" d="M141.6 42.5l-.2-.5v.1h.1c-2-5.4-7.3-9-11.8-7.5-3.7 1.4-4.1 2.9-7 3.9-2.8 1-9.6-2.5-15-.6-2.3.8-11.2 5.7-6.6 18.6 4.5 12.8 14.5 11 16.7 10.2 5.5-2 8.5-8.9 11.4-9.9 2.9-1 4 0 7.9-1.4 4.4-1.6 6.3-7.8 4.4-13.3v.2l-.1-.5.2.7z"/>
    <path fill="#737373" d="M168 28.4l-.5-1.5c0-.1 0-.3.2-.4.1 0 .3 0 .3.2l.6 1.5c0 .1 0 .3-.2.4-.2 0-.3 0-.4-.2zM165.3 29.3l-.5-1.4c0-.2 0-.4.2-.4s.3 0 .4.2l.5 1.4c0 .2 0 .3-.2.4-.1 0-.3 0-.4-.2zM168.2 37.5l-.5-1.5c0-.1 0-.3.2-.3l.4.1.5 1.5c0 .2 0 .3-.2.4-.1 0-.3 0-.4-.2zM171 36.5l-.5-1.4c0-.2 0-.4.2-.4.1 0 .3 0 .4.2l.5 1.4c0 .2 0 .3-.2.4-.2 0-.3 0-.4-.2z"/>
    <path fill="#4D5999" d="M141.7 41.9l-.2-.5v.1c-1.9-5.5-7.2-9-11.7-7.5-3.8 1.3-4.1 2.8-7 3.8-2.9 1-9.6-2.4-15-.5-2.3.8-11.2 5.7-6.7 18.5 4.6 12.8 14.5 11 16.8 10.3 5.5-2 8.5-8.9 11.4-10 2.8-1 4 0 7.8-1.3 4.5-1.6 6.4-7.8 4.5-13.3v.1l-.2-.4.3.7z"/>
    <path fill="#FFF" d="M103.4 55.2c-1.6-4.6-1-9.3 1.1-12.7a9.8 9.8 0 0 1 5-3.9c4.9-1.7 10.6 1 13.6.8a8 8 0 0 0 4.5-2.3c.5-.5 1.2-.9 1.9-1.1 4-1.4 8.7 1.4 10.4 6.3v-.1c1.7 4.8-.2 10-4.2 11.4a6.5 6.5 0 0 1-2.8.3h-.5a8 8 0 0 0-3.8 1c-2.5 1.7-5.2 7.5-10.2 9.2-2 .7-4.2.7-6.2 0a14.4 14.4 0 0 1-8.9-9" opacity=".1"/>
    <path fill="#633C33" d="M108.6 57.6l-3-8.4c-.1-.6.2-1.2.7-1.4l.8-.3c.6-.2 1.2.1 1.4.7l3 8.4c.2.6 0 1.2-.7 1.4l-.7.3c-.6.2-1.3-.1-1.5-.7z"/>
    <path fill="#292F52" d="M108.6 57.6l-3-8.6c-.2-.6 0-1.3.7-1.5l1.2-.4c.6-.2 1.3 0 1.5.7l3 8.6c.2.6 0 1.2-.7 1.4l-1.2.5c-.6.2-1.3-.1-1.5-.7z"/>
    <g opacity=".6">
      <ellipse transform="rotate(70.5 126.9 46.7)" fill="#FFF" cx="126.8" cy="46.7" rx="1.6" ry="6.8"/>
      <ellipse transform="rotate(55.5 126.8 46.7)" fill="#FFF" cx="126.8" cy="46.7" rx="1.6" ry="6.8"/>
      <path fill="#FFF" d="M128 47.7c-2.4 2.9-4.9 4.7-5.5 4.1-.7-.5.7-3.3 3.2-6.1 2.4-2.9 4.9-4.7 5.5-4.1.7.5-.7 3.3-3.2 6.1z"/>
      <ellipse transform="rotate(25.5 126.8 46.7)" fill="#FFF" cx="126.8" cy="46.7" rx="1.6" ry="6.8"/>
      <ellipse transform="rotate(10.5 126.9 46.7)" fill="#FFF" cx="126.9" cy="46.7" rx="1.6" ry="6.8"/>
      <path fill="#FFF" d="M128.4 46.6c.3 3.7-.2 6.8-1 6.8-.9.1-1.8-2.8-2.1-6.6-.3-3.7.2-6.8 1-6.8.9-.1 1.8 2.9 2.1 6.6z"/>
      <path fill="#FFF" d="M128.3 46.2c1.3 3.5 1.6 6.6.8 6.9-.8.3-2.5-2.3-3.7-5.9-1.3-3.5-1.6-6.6-.8-6.9.8-.3 2.5 2.4 3.7 5.9z"/>
      <ellipse transform="rotate(-34.5 126.8 46.7)" fill="#FFF" cx="126.9" cy="46.7" rx="1.6" ry="6.8"/>
      <ellipse transform="rotate(-49.5 126.8 46.7)" fill="#FFF" cx="126.9" cy="46.7" rx="1.6" ry="6.8"/>
      <ellipse transform="rotate(-64.5 126.8 46.7)" fill="#FFF" cx="126.9" cy="46.7" rx="1.6" ry="6.8"/>
      <ellipse transform="rotate(-79.5 126.9 46.7)" fill="#FFF" cx="126.8" cy="46.7" rx="1.6" ry="6.8"/>
      <ellipse transform="scale(-1) rotate(85.5 50.5 -137.2)" fill="#FFF" cx="126.9" cy="46.7" rx="1.6" ry="6.8"/>
    </g>
    <path fill="#1E1E24" d="M137.6 43c.2.4 1.2.7 1.4 1.4.2.6.2 1.1 0 1.5l-.1.2h.4l23.4-9.2c.3 0 .8-.4.7-.7l-1.3-3.7a.6.6 0 0 0-.7-.3L137 39.8v.2c.3.2.7.6.9 1.1.2.8-.5 1.4-.3 1.9z"/>
    <path fill="#34343D" d="M137.6 42.6c.2.5 1.2.8 1.5 1.5.2.6.1 1.2-.2 1.7h.4l23.8-9.2c.3-.1.4-.5.3-.8l-1.3-3.6a.6.6 0 0 0-.7-.3l-24.3 7.7-.1.1c.4.2.7.6.9 1.1.2.7-.4 1.4-.3 1.8z"/>
    <g opacity=".7">
      <path fill="#B7B0AC" d="M140.9 45.2l-2.2-6h-.2l2.2 6zM142.3 44.6l-2.1-6-.2.1 2.1 6zM143.7 44l-2.1-5.8h-.2l2 6zM145.4 43.4l-2-5.8h-.2l2 5.9zM147 42.8l-2-5.7h-.1l2 5.7zM148.9 42l-2-5.5h-.2l2 5.6zM150.6 41.4l-2-5.5-.1.1 1.9 5.5zM152.4 40.7l-1.9-5.4h-.1l1.8 5.5zM154.6 39.9l-1.9-5.3-.2.1 1.9 5.2zM156.4 39.1l-1.8-5h-.2l1.9 5.1zM158.8 38.2l-1.8-5-.2.1 1.8 5zM160.8 37.4l-1.7-4.8h-.2l1.8 5z"/>
    </g>
    <path fill="#8E8E8E" d="M163.1 36.6c.3-.1.5-.5.3-.7l-1.2-3.7a.6.6 0 0 0-.8-.3l-.6.2 1.7 4.7.6-.2z"/>
    <path fill="#E5E5E5" d="M162 32l1.5 4-.6.3-1.5-4.1z"/>
    <path fill="#732F38" d="M128.4 51c-2.5.8-5.1-.4-6-2.7-.8-2.4.5-5 3-5.9 2.4-.8 5 .4 5.8 2.8.9 2.3-.4 5-2.8 5.8z"/>
    <path fill="#AF3F4D" d="M122 48.4a5 5 0 0 1 3.2-6.4 5 5 0 0 1 6.4 3 5 5 0 0 1-3.1 6.4 5 5 0 0 1-6.4-3zm8.8-3.1a4.2 4.2 0 0 0-5.3-2.5 4.2 4.2 0 0 0-2.6 5.3 4.2 4.2 0 0 0 5.3 2.5 4.2 4.2 0 0 0 2.6-5.3z"/>
    <ellipse transform="rotate(70.5 126.9 46.7)" fill="#FFF" cx="126.9" cy="46.7" rx="5.7" ry="5.8" opacity=".8"/>
    <ellipse transform="rotate(70.5 126.9 46.7)" fill="#4D5999" cx="126.9" cy="46.7" rx="5.7" ry="5.8"/>
    <path fill="#3F497D" d="M128.4 51c-2.5.8-5.1-.4-6-2.7-.8-2.4.5-5 3-5.9 2.4-.8 5 .4 5.8 2.8.9 2.3-.4 5-2.8 5.8z"/>
    <path fill="#2E365C" d="M130.3 46.2c.5 1.3.3 2.7-.4 3.9 1.4-1.2 2-3.2 1.3-5a4.6 4.6 0 0 0-5.9-2.7c-1 .4-1.9 1.1-2.4 2 .4-.4 1-.7 1.5-1 2.5-.8 5.1.5 6 2.8z"/>
    <path fill="#32334F" d="M122 48.4a5 5 0 0 1 3.2-6.4 5 5 0 0 1 6.4 3 5 5 0 0 1-3.1 6.4 5 5 0 0 1-6.4-3zm8.8-3.1a4.2 4.2 0 0 0-5.3-2.5 4.2 4.2 0 0 0-2.6 5.3 4.2 4.2 0 0 0 5.3 2.5 4.2 4.2 0 0 0 2.6-5.3z"/>
    <path fill="#4D5999" d="M161.6 31.8c.6-.2 1.3-.3 1.6-1.1.2-.8 1-1.1 3.4-2.2 2.5-1.1 4-1.8 4.7-1.4.6.3 1.6 1.5 2.2 3.2v-.2c.6 1.8.5 3.3.3 4-.3.6-2 1.1-4.5 1.8-2.6.7-3.5 1-4.1.4-.7-.4-1.3 0-2 .2l-1.6-4.7z"/>
    <path fill="#FFF" d="M161.7 32.2c.5-.2 2.1-.6 2.3-1.3.2-.6.8-.9 2.9-1.8 2-.9 3.3-1.4 3.8-1.1.5.2 1.3 1.2 1.8 2.6v-.1c.5 1.4.5 2.7.2 3.2-.2.6-1.5 1-3.7 1.6-2.1.5-2.8.7-3.3.3-.6-.4-2 .3-2.6.5l-1.4-3.9z" opacity=".1"/>
    <circle fill="#C3C3C3" cx="165.6" cy="30.5" r=".8"/>
    <circle fill="#C3C3C3" cx="167" cy="34.6" r=".8"/>
    <circle fill="#C3C3C3" cx="169.2" cy="30" r=".8"/>
    <circle fill="#C3C3C3" cx="170.4" cy="33.4" r=".8"/>
    <path fill="#999" d="M171 36.3l.5-.2c.3-.2.7 0 .8.4.2.3 0 .7-.4.8l-.5.2c-.4.1-.8 0-.9-.4-.1-.3 0-.7.4-.8zM168.1 37.3l.6-.3c.3 0 .7.1.8.5.2.3 0 .7-.4.8l-.5.2c-.4.1-.7 0-.9-.4 0-.3.1-.7.4-.9zM167.3 26.1l.6-.2c.3-.1.7 0 .8.4.2.4 0 .7-.4.9l-.5.2c-.4 0-.7 0-.9-.4 0-.4 0-.8.4-.9zM164.6 27.1l.5-.2c.4-.1.7 0 .9.4 0 .4-.1.7-.4.9l-.6.2c-.3 0-.7-.1-.8-.4-.2-.4 0-.8.4-.9z"/>
    <path fill="#FFF" d="M110.2 56.1l-2.4-7c-.1-.1 0-.3.1-.4.2 0 .4 0 .4.2l2.5 7c0 .2 0 .3-.2.4-.1 0-.3 0-.4-.2z"/>
    <path fill="#4D5999" d="M109.2 56.5l-2.5-7c0-.2 0-.3.2-.4.1 0 .3 0 .4.2l2.4 7-.1.4c-.2 0-.4 0-.4-.2z"/>
    <path fill="#D1B1B4" d="M107 55.1V55l1.7-.6.8-1L164 34.2l6.5-.8h.2l-.1.2-6.5.9-54.3 19.2-.8.9-1.7.6h-.2z" opacity=".7"/>
    <path fill="#D1B1B4" d="M107.4 56.3v-.1l1.7-.6.9-1 54.3-19.2 3.2-.6.1.1-.1.2-3.1.5L110 54.8l-.8 1-1.7.6h-.2zM105.8 52.5v-.2l1.8-.6 1.4.5 54.3-19 5.9-4a.1.1 0 1 1 .1.3l-6 4-54.3 19-1.4-.5-1.6.6-.2-.1z" opacity=".7"/>
    <path fill="#D1B1B4" d="M105.3 51V51l1.8-.6 1.6.4L163.2 32l2.3-2.2h.2v.2l-2.4 2.2L108.8 51l-1.7-.4-1.7.6h-.1z" opacity=".7"/>
    <path fill="#FFF" d="M169.4 37.5l.1.3v.3h-.2l-.2.1-.5.2h-.2l.2-.1.5-.2h.1l.1-.2v-.1-.2h.1zM172.2 36.5V36.8a.4.4 0 0 1-.2.4h-.1a10 10 0 0 1-.8.3v-.1l.2-.1a14.6 14.6 0 0 1 .8-.3v-.2-.2zM165.8 27.4l.1.2a.4.4 0 0 1-.2.4h-.2a8.8 8.8 0 0 1-.7.3l.2-.2.5-.2h.1l.1-.1v-.2-.2h.1zM168.6 26.4v.5l-.2.1h-.1a10.7 10.7 0 0 1-.8.3l.2-.2.5-.2h.2l.1-.3a.9.9 0 0 0 0-.2z"/>
    <circle fill="#B7B0AC" cx="143.4" cy="40.9" r=".3"/>
    <circle fill="#B7B0AC" cx="148.6" cy="39.1" r=".3"/>
    <circle fill="#B7B0AC" cx="152.4" cy="37.8" r=".3"/>
    <circle fill="#19212E" cx="169.7" cy="29.8" r=".7"/>
    <circle fill="#B99D8C" cx="170" cy="29.9" r=".3"/>
    <circle fill="#19212E" cx="166" cy="30.4" r=".7"/>
    <circle fill="#B99D8C" cx="166.2" cy="30.3" r=".3"/>
    <circle fill="#19212E" cx="167.5" cy="34.5" r=".7"/>
    <circle fill="#B99D8C" cx="167.7" cy="34.5" r=".3"/>
    <circle fill="#19212E" cx="170.9" cy="33.3" r=".7"/>
    <g>
      <circle fill="#B99D8C" cx="171.1" cy="33.3" r=".3"/>
    </g>
    <path fill="#DF9B7E" d="M154 38.2s.2-1.3 0-2.2c-.4-.8-1.5-2.8.1-3.7 1.6-1 2.8 0 3.4 1 .6 1 .6-.5.9.7.3 1.1.7 3.5 0 4.8-.7 1.3-5.8 5.5-5.8 5.5s-.5-1 0-3.4c0 0 .6-1.4 1.4-2.7z"/>
    <g>
      <path fill="#BF7E67" d="M111.8 24.5c.2-1.3.1-3-.7-5.2-2-5.6 11.2-5.8 8.5.1-1.1 2.6-.6 4.5-.3 5.8.5 1.7-7.7 1.3-7.5-.7z"/>
      <path fill="#DF9B7E" d="M111.6 24.7c.3-1.2.2-1.6.2-2.7 2 1.9 6.2 1.1 7 3.1.5 1.5-7.9 2-7.2-.4z"/>
      <g fill="#D4905B">
        <path d="M108.3 11.5c0 1.6.2 3.3.4 4.7-1.6-.7-1.8-3.2-1.8-4.6 0-1.1 1-.5 1.4-.1zM122.2 11.5c0 1.6-.2 3.3-.4 4.7 1.6-.7 1.7-3.2 1.8-4.6 0-1.1-1-.5-1.4-.1z"/>
      </g>
      <path fill="#DF9F6C" d="M112.1 6c2 1 3.1 1 3.1 1s1.2 0 3.2-1c3.6-1.6 3.9 1.4 3.8 5-.1 3.1-.4 6.5-.9 7.4-.8 1.8-3 4.8-6 4.8s-5.3-3-6.1-4.8c-.5-.9-.8-4.3-1-7.3 0-6 3.3-5.3 3.9-5z"/>
      <path opacity=".4" fill="#9E4C0B" d="M111.8 17.7l.2.2.2.4.2.5.2.3.2.3.2.5.6.5c.5.3 1 .4 1.5.5 2.2 0 2.9-1.9 3.4-3.2.3-.2 0-.1-.3 0-2.5.3-5.8.1-6.4 0z"/>
      <path fill="#8C0C00" d="M117.2 20c-.7.7-1.9 1-3 .6a2 2 0 0 1-.8-.6 6.5 6.5 0 0 1-.7-1.2l-.4-.8c2.8.5 5.9-.2 6-.3-.3.8-.5 1.6-1.1 2.2z"/>
      <path fill="#FFF" d="M118 18l.2-.2c-.2 0-3 .5-5.7.2.2.3.4.5.7.6.7.3 1.6.3 2 .3 1 0 1.9-.3 2.7-.7l.1-.2z"/>
      <path fill="#9E4C0B" d="M114 21.1c.5.6 1.2.6 2 .3-.7.2-1.5 0-2-.3z"/>
      <path fill="#753D17" d="M114.5 16h-.1c.2.4.4.9.7 1 .7.4 1-.5 1.2-1l-1.1.2-.7-.1z"/>
      <path fill="#EDB89A" d="M115.7 16.4l.6-.5-1.1.3-.7-.1h-.1v.1c.4.2.9.4 1.3.2z"/>
      <path opacity=".4" fill="#472107" d="M115.1 16.3c.4 0 .7-.1 1-.3l-.9.2-.8-.1.3-3.4-.2 1-.3 2.3.2.2c.4.3.5.4.8.4.3 0 .5 0 .8-.4-.2.2-.3.3-.9.2l-.4-.1h.4z"/>
      <ellipse fill="#302927" cx="112.5" cy="11.9" rx=".6" ry="1"/>
      <ellipse fill="#302927" cx="117.7" cy="11.9" rx=".7" ry="1"/>
      <g>
        <path fill="#3A141B" d="M119 9.7c-.3-.6-1.6-1-2.1-.4v.3h1.2l1 .2zM111.4 9.7c.3-.6 1.6-1 2.2-.4l-.1.3h-1.1l-1 .2z"/>
      </g>
      <path fill="#5E3B28" d="M125.5 11.7c-.9-.8-1.7-2-1.5-3.2.3-1.7 1-3.6.4-5.2a5.4 5.4 0 0 0-3.8-3.2c-1.7-.3-3.6.2-5 1.2a6.7 6.7 0 0 0-5.2-1.2 5.4 5.4 0 0 0-3.8 3.2c-.6 1.6 1.3 3.8.4 5.2a36.3 36.3 0 0 0-2.9 25.2c.9 3 2.6 5.3 2.8 2.6.6-7.8 4-24.8 5-25.7 2-1.5 3.3-3.3 3.6-5.2.3 2 1.6 3.7 3.5 5.2C122 13 123 28 122.8 35c0 2.2 2.3 4.3 3.2 2 1.4-3.3 1.8-10 2.5-11.5 1-2.8-2.1-13-3-13.8z"/>
    </g>
    <path opacity=".1" d="M126.2 52.3c.3 2.6.9 7.6-1 9.1l-6.1 4.5s13.1-.5 10.7-3.4c.3-1.8-.3-2.9-.8-4.4-.5-1.5-1-3-1.2-4.7-.6-4.7-.9-21.7-.9-21.7l-.7 20.6z"/>
    <path fill="#9B782C" d="M108 49.8s1.3 1 1.2 4.6c0 0-1.4 3.6-3.9 2.2-2.4-1.3 2.8-6.8 2.8-6.8z"/>
    <path fill="#DF9B7E" d="M92.4 41.8s-4.4 3.5 2 8.9c0 0 3.5 3 9.4 4.5 0 0 7.2 1.7 9.6 1.7 2.4 0 4-1.1 4.2-3 .2-1.8.1-2.9-.6-2.9-.8 0-.5.9-1 2.2-.4 1.3-1.8 1.5-3.6.4-1.7-1.1-.4-1.7.6-1.8 1.1 0 2.6-.1 2.6-1 0-.8-1.8-.5-1.8-.5s-2.6-.3-3.6.9c-1 1.1-1.3 1.5-2 1.2-1-.3-9.9-2.9-10.1-8.4 0 0 0-1.5.8-3 .9-1.3-6.5.8-6.5.8z"/>
    <path fill="#FED45C" d="M102.9 27.7L95 37.1c-8 9.5-2.8 12.3-2.8 12.3s3.4 3.7 7.5 6c3.5 1.8 5.5 2 6.8 1.5 0 0-.8-2 1.6-7 .6-1.2-5-.7-6.3-3.3-1.3-2.7 2.6-7.3 2.6-7.3L103 27.7z"/>
    <g>
      <path fill="#9FD651" d="M109.7 43.3s-1.5-.7-1.1-1.3c.3-.6 1.2 0 1.6.5.4.3-.9-1.9.6-1.7.9.1.5 1.4.4 2 0 0 1.7-2 2.2-.3.5 1.7-1.5 1.3-1.5 1.3s1.3 1.3.4 2c-.8.5-1.1-1.2-1.1-1.2s-.3 1.8-1.2 1.8c-1 0-.2-1.8-.2-1.8s-1 1-1.5.1c-.4-.8.8-1.2 1.4-1.4z"/>
      <path fill="#BA5AAA" d="M110.7 43.3s-.5.2-.2.7c.2.4.6.2.8-.2.1-.4-.1-.6-.6-.5z"/>
    </g>
    <g>
      <path fill="#FED45C" d="M98.7 122s-2.6-1.2-2-2.2c.7-1 2.2 0 2.9.8.7.6-1.6-3.2 1-2.9 1.5.3.9 2.4.7 3.3 0 0 2.8-3.2 3.8-.3.9 2.9-2.6 2.1-2.6 2.1s2.2 2.3.7 3.4c-1.4 1-2-1.9-2-1.9s-.4 3-2 3c-1.7 0-.4-3-.4-3s-1.8 1.7-2.5.2 1.3-2.2 2.4-2.4z"/>
      <path fill="#DD620E" d="M100.5 122s-.9.4-.5 1.2c.4.8 1.1.3 1.4-.3.2-.7-.2-1.1-1-.9z"/>
    </g>
    <g>
      <path fill="#DD620E" d="M121.7 106.7s-2-1-1.5-1.9c.5-.7 1.7.1 2.2.7.6.5-1.2-2.5.8-2.2 1.2.1.7 1.8.5 2.5 0 0 2.3-2.5 3-.2.7 2.2-2 1.6-2 1.6s1.7 1.8.6 2.6c-1.2.8-1.6-1.4-1.6-1.4s-.3 2.4-1.6 2.3c-1.3 0-.3-2.3-.3-2.3s-1.4 1.3-2 .1c-.5-1.1 1-1.7 2-1.8z"/>
      <path fill="#FED45C" d="M123.1 106.6s-.7.3-.3 1c.3.5.8.2 1-.3.2-.5-.1-.9-.7-.7z"/>
    </g>
    <path fill="#1787AA" d="M123.3 6.3s1.3-.3 2.2 1.2 1.3 2.7 2.8 2.7c1.5 0-.1 1.1-1.3 1.2-1.3.1-1.3-.1-1.4.4 0 .4-.5.9-1 1-.4.2 1.5 1.3 0 2.1l-.6.6s0-6.1-.7-9.2z"/>
    <path fill="#2896B9" d="M124 9h-17c-.3 0-.5-.6-.5-1.3 0-.8.2-1.4.4-1.4h17.2c.2 0 .4.6.4 1.4 0 .7-.2 1.3-.4 1.3z"/>
    <path fill="#5E3B28" d="M118.8 18.6c-.3-1.8-1-2-3.7-1.7-2.4-.2-3.2.1-3.4.8-.6 2 .3 3.5.4 2.8.2-2.8 3-2.5 3-2.5s2.4-.3 2.8 1.5c.2.8-.4 1.3-.2 1.3.3 0 1.2-1.1 1-2.2z"/>
  </g>
  <g>
    <path fill="#2896B9" d="M31.9 148.1s.1-1.1.8-1c.7 0 .4.8.2 1.1-.2.4 1.4-1 1.7 0 .2.6-1 .7-1.6.7 0 0 2.3.6 1 1.3-1.4.8-1.7-.6-1.7-.6s-.8 1.1-1.7.8c-.8-.4.6-1 .6-1s-1.7.2-2-.4c-.4-.6 1.5-.5 1.5-.5s-1.3-.4-.6-.9c.6-.5 1.4.2 1.8.5z"/>
    <path fill="#FED45C" d="M32.3 148.8s-.4-.3-.8 0c-.3.2.1.4.5.4s.6-.2.3-.4z"/>
    <path fill="#2896B9" d="M85.7 145s.1-1 .8-1c.7.1.4.8.2 1.2-.2.3 1.4-1 1.7 0 .2.5-1 .6-1.6.6 0 0 2.3.6 1 1.4-1.4.7-1.7-.6-1.7-.6s-.8 1-1.7.7c-.8-.4.6-1 .6-1s-1.7.3-2-.3c-.4-.6 1.5-.6 1.5-.6s-1.3-.4-.6-.8c.6-.5 1.4.1 1.8.5z"/>
    <path fill="#FED45C" d="M86 145.7s-.3-.2-.7 0 .1.5.5.5.6-.3.3-.5z"/>
    <path fill="#BA5AAA" d="M138.2 137.4s.1-1.1.8-1c.7 0 .4.8.2 1.1-.2.4 1.4-1 1.7 0 .2.6-1 .7-1.6.7 0 0 2.3.6 1 1.3-1.4.8-1.7-.6-1.7-.6s-.8 1.1-1.7.8c-.8-.4.6-1 .6-1s-1.7.2-2-.4c-.4-.6 1.5-.5 1.5-.5s-1.3-.4-.6-.9c.6-.5 1.4.2 1.8.5z"/>
    <path fill="#9FD651" d="M138.6 138s-.4-.2-.7 0c-.4.3 0 .5.4.5s.6-.2.3-.4z"/>
    <path fill="#2896B9" d="M72.7 134.9s.2-1.2.8-1c.7 0 .4.7.2 1-.2.4 1.4-1 1.7 0 .3.6-1 .7-1.6.8 0 0 2.4.5 1 1.3-1.3.7-1.7-.6-1.7-.6s-.8 1.1-1.6.7c-.9-.4.5-1 .5-1s-1.7.3-2-.3c-.3-.6 1.5-.6 1.5-.6s-1.3-.4-.6-.8c.7-.5 1.5.1 1.8.5z"/>
    <path fill="#FED45C" d="M73.1 135.5s-.4-.2-.7 0c-.3.3 0 .5.5.5.3 0 .5-.3.2-.5z"/>
    <path fill="#BA5AAA" d="M111 145.7s.1-1.1.8-1c.6 0 .4.8.2 1.1-.3.4 1.3-1 1.7 0 .2.6-1.1.7-1.6.7 0 0 2.3.6 1 1.3-1.4.8-1.7-.6-1.7-.6s-.8 1.1-1.7.8c-.8-.4.6-1 .6-1s-1.7.2-2-.4c-.4-.6 1.5-.5 1.5-.5s-1.3-.4-.7-.9c.7-.5 1.5.2 1.9.5z"/>
    <path fill="#9FD651" d="M111.4 146.4s-.4-.3-.8 0c-.3.2.1.4.5.4s.6-.2.3-.4z"/>
    <path fill="#BA5AAA" d="M137 117.3s.1-.8.6-.7c.5 0 .3.5.1.8-.1.2 1-.8 1.2 0 .1.3-.7.4-1 .4 0 0 1.5.4.6 1-1 .4-1.2-.5-1.2-.5s-.5.8-1 .5c-.7-.3.3-.7.3-.7s-1.2.2-1.4-.2c-.2-.4 1-.4 1-.4s-.8-.2-.4-.6c.5-.3 1 .1 1.2.4z"/>
    <path fill="#9FD651" d="M137.3 117.7s-.3-.2-.5 0 0 .3.3.3.4-.1.2-.3z"/>
    <g>
      <path fill="#2896B9" d="M5.3 123.1s.1-1.1.8-1c.7 0 .4.8.2 1.1-.2.4 1.4-1 1.7 0 .2.6-1 .6-1.6.7 0 0 2.4.6 1 1.3-1.4.8-1.7-.6-1.7-.6s-.8 1.1-1.6.7c-.9-.3.5-1 .5-1s-1.7.3-2-.3c-.4-.6 1.5-.5 1.5-.5s-1.3-.4-.6-1c.7-.4 1.4.3 1.8.6z"/>
      <path fill="#FED45C" d="M5.7 123.8s-.4-.3-.7 0c-.4.2 0 .4.4.4s.6-.2.3-.4z"/>
    </g>
    <path fill="#2CAA3A" d="M10.8 138.5c0 .3.1.6.3.8.1.3.4.5.6.7l1 .5a4.6 4.6 0 0 0 3.6-.4l.7-.7a1.5 1.5 0 0 0 0-1.7l-.7-.7-1-.5a4.5 4.5 0 0 0-3.5.5l-.7.6-.3.9zm5.7.7c0 .2-.2.3-.3.4l-1.9-1.2v-1.7a3.6 3.6 0 0 1 1.7.6l.5.5c.2.3.2.5.2.7 0 .3 0 .5-.2.7zm-1.5 1l-.7.1V139l1.6 1a3 3 0 0 1-.9.3zm-2.9-.4l1.7-1v1.5a3.6 3.6 0 0 1-1.7-.5zm-.7-1.3c0-.3 0-.5.2-.7l.6-.6.8-.4h.8v1.6l-2 1.1-.2-.3c-.2-.2-.2-.5-.2-.7zM53.7 147.7c-.2.3-.2.5-.2.8 0 .3 0 .6.2.8l.7.7 1 .5a4.6 4.6 0 0 0 2.5 0l1-.5c.3-.2.6-.4.7-.7l.3-.9-.3-.8c-.2-.2-.4-.5-.7-.6-.3-.3-.6-.4-1-.5a4.5 4.5 0 0 0-3.5.5l-.7.7zm4.9 2a3 3 0 0 1-.4.3l-1.2-1.5.9-1.6.6.3.6.6c.2.2.2.4.2.7l-.1.7a2 2 0 0 1-.6.6zm-1.9.6H56l.8-1.4 1 1.2-1 .2zm-2.5-1l2-.5-.8 1.3a3 3 0 0 1-.6-.3 2 2 0 0 1-.6-.6zm0-1.5l.6-.6.8-.4a3.8 3.8 0 0 1 1.8 0l-1 1.5-2.3.6-.1-.4c0-.2 0-.5.2-.7z"/>
    <path fill="#9FD651" d="M126.2 145.4c-.2.2-.3.5-.2.8 0 .3 0 .6.2.8l.7.7 1 .5a4.7 4.7 0 0 0 2.5 0l1-.5.7-.7c.2-.3.3-.6.2-.9 0-.3 0-.5-.2-.8l-.7-.7-1-.4a4.6 4.6 0 0 0-2.5 0c-.4 0-.7.3-1 .4-.3.3-.6.5-.7.8zm4.9 2a3 3 0 0 1-.5.3l-1.2-1.5 1-1.6.6.3c.3.1.5.3.6.6l.2.6c0 .3 0 .5-.2.7a2 2 0 0 1-.5.6zm-1.9.6l-.8-.1.8-1.3 1 1.2-1 .2zm-2.5-1.1l2-.4-.8 1.3-.6-.4a2 2 0 0 1-.6-.5zm0-1.4l.5-.6.9-.4a3.7 3.7 0 0 1 1.8 0l-1 1.5-2.4.6v-.4c0-.2 0-.5.2-.7zM148.5 125.8c-.2.3-.2.6-.2.9 0 .2 0 .5.2.8.2.2.4.5.7.6l1 .5a4.6 4.6 0 0 0 2.5 0l1-.5c.4-.2.6-.4.7-.7.2-.3.3-.5.3-.8 0-.3-.1-.6-.3-.8l-.7-.7-1-.5a4.6 4.6 0 0 0-2.5 0l-1 .5-.7.7zm4.9 2c-.1.2-.3.2-.4.3l-1.2-1.5 1-1.6.6.3.5.6c.2.2.2.4.3.7l-.2.7a2 2 0 0 1-.6.6zm-1.9.6a4 4 0 0 1-.8 0l.8-1.4 1 1.3a4 4 0 0 1-1 .1zm-2.5-1l2-.5-.8 1.3a3 3 0 0 1-.6-.3 2 2 0 0 1-.6-.6zm0-1.5l.6-.6c.2-.1.5-.3.8-.3a3.8 3.8 0 0 1 1.8-.1l-1 1.6-2.3.5-.1-.4c0-.2 0-.4.2-.7zM83 128.4l-.3.9c0 .3 0 .5.3.8l.6.7 1.1.4a4.5 4.5 0 0 0 3.5-.4l.7-.8.2-.8c0-.3-.1-.6-.3-.8-.1-.3-.4-.5-.7-.7l-1-.5a4.6 4.6 0 0 0-2.5 0l-1 .5-.7.7zm4.8 2.1l-.4.2-1.2-1.5 1-1.6.6.4.5.5c.2.2.3.5.3.7 0 .2 0 .5-.2.7a2 2 0 0 1-.6.6zm-1.9.5a4 4 0 0 1-.8 0l.8-1.3 1 1.2-1 .1zm-2.5-1l2-.5-.7 1.3c-.3 0-.5-.1-.7-.3a2 2 0 0 1-.6-.5zm0-1.4c.1-.3.3-.5.6-.6l.8-.4a3.8 3.8 0 0 1 1.8 0l-1 1.5-2.3.5a1.3 1.3 0 0 1 .1-1z"/>
  </g>
</svg>
