<svg xmlns="http://www.w3.org/2000/svg" width="125.35" height="128.6">
  <path opacity=".2" d="M124.45 125.82c0 1.53-27.86 2.78-62.22 2.78-34.37 0-62.23-1.25-62.23-2.78 0-1.54 27.86-2.79 62.23-2.79 34.36 0 62.23 1.25 62.23 2.79z"/>
  <path fill="#D59078" d="M67.93 34.6l2.61 4.15s14 10 16.78 11.24c0 0 4-1.08 5.07.61 1.01 1.59 0 5.46-2.41 5.57a.48.48 0 0 1-.5-.44c-.05-.53-.35-1.31-1.86-.67 0 0-.77 1.08-2.3-2 0 0-10.93-4.77-16-8.15-5.08-3.39-7.4-9.39-7.4-9.39l6.01-.92z"/>
  <path fill="#EAA48A" d="M52.03 19.32s2.05-3.98 2.2-4.48c.14-.5-2.42-5.54-.93-7.7 1.5-2.16 4-4.35 7.33-4.19 3.33.17 6.3 1.82 7 3.43.69 1.6-.52 5.68-.4 6.36.13.69 1.14 2.17 1.51 2.89.37.72-2.1 1.15-2.1 1.15s-.22.9-.01 1.18c.2.28-.8.58-.8.58s.93.85-.1 1.26c-.76.48-.56.76-1.13 1.68-.7 1.18-4.47-2.08-5.17-2.03-.7.05-1.83 4.39-1.83 4.39l-5.57-4.52z"/>
  <path fill="#3B2314" d="M63.05 1.41c-2.64-.2-5.29-.65-7.74.37-.95.4-1.78 1.2-1.9 2.22-.04.3-.02.61-.15.88-.07.12-.16.23-.24.35-.28.43-.32.96-.35 1.47-.1 1.83-.19 3.7.2 5.5.11.54 1.05 2.34.53 2.8.84.26 2.06.33 2.78-.26a3.73 3.73 0 0 0 1.24-1.7c.12-.4 0-.69.03-1.06.03-.73.29-1.62 1.1-1.64 2.93-.09 1.85 5.3 1.26 6.8-.2.52-1 2.45-1.02 3.01-.03 1.17 1 2.08 2.04 2.63 1 .53.02 3.66 1.15 3.82.14.02 2.17.98 2.3.92.1-.04.93-5.26 1-5.34.52-.61.88-1.54.5-2.3-.03-.03-.05-.07-.1-.09-.04-.02-.1 0-.15.02-.33.14-.64.35-1 .38-.09 0-.18 0-.27-.04-.35-.18-.05-1.09.1-1.35.19-.4.58-.76 1.03-.84.14-.03.3 0 .45-.01.14-.01.27-.04.4-.06.23-.05.4-.17.41-.41a.9.9 0 0 0-.04-.24c-.92.02-1.82 0-2.73.22-.44.1-.92.27-1.3-.34a1.71 1.71 0 0 1-.23-.58l-.51-2.49c-.21-1.02-.4-2.31.48-3.06.81-.7 1.96-.86 2.45-1.94.22-.48.23-1.02.26-1.55a.76.76 0 0 1 .1-.37c.1-.16.31-.22.5-.27.61-.12 1.25-.19 1.82-.43a3.98 3.98 0 0 0 2.17-2.8A7.93 7.93 0 0 0 69.47 0c-.5.82-1.49 1.17-2.43 1.34-1.3.23-2.65.18-4 .07z"/>
  <path fill="#D38575" d="M46.48 61.4s8.09 11.97 13.96 20.18c0 0 .76 1.96-.28 3.53-1.04 1.56-3.25 3.16-3.77 9.16s-3.52 13.69-3.52 13.69l3.13 1.56s6.52-18.25 8.73-22.17c2.22-3.9 3.27-5.34 2.35-7.82-.91-2.48-9.78-19.43-9.78-19.43l-10.82 1.3z"/>
  <path fill="#4D2B05" d="M52.12 107.14l4.26 1.76 2.3 3.47 3.66 1.95 1.58.67v1.27l-1.04 1.1-13.38-3.71-.24-1.1 2.19-4.13z"/>
  <path fill="#2A2F6F" d="M42.9 58.54l15.86 23.01-6.25 23.9 4.91 1.9S68.6 81.1 68.7 80.77c.11-.34-12.06-24.24-12.06-24.24L42.9 58.54z"/>
  <path fill="#252960" d="M46.84 64.04c.27.47 2.86 4.2 5.74 8.41 1.8-1.69 5.01-4.02 10.48-3.26-1.43-3.25-.07-.78-1.15-2.4l-1.26-.34-13.81-2.4z"/>
  <path fill="#1D1D1D" d="M59.57 106.86l-3.43 9.4 1.47.53 3.62-9.93z"/>
  <path fill="#1D1D1D" d="M59.02 116.41l-3.72-1.35a.94.94 0 0 0-1.2.56l-.22.59a.94.94 0 0 0 .56 1.2l3.73 1.36a.94.94 0 0 0 1.2-.56l.22-.6a.94.94 0 0 0-.57-1.2zM48.32 68.07l-2.34.75-3.37-9.23 2.34-.74z"/>
  <path fill="#1D1D1D" d="M35.21 56.78c.2-.42.7-.62 1.16-.46.81.27 2.48.73 4.95.93 3.65.31 10.6-.57 12.76 1.38 2.16 1.95.86 2.85-.24 2.42-1.1-.43-3.77-1.75-6.13-1.27-2.35.47-5.98 2.55-8.36 2.03-2.09-.46-4.95-3.23-4.14-5.03zM24.15 82.76l3.5 18.78-.2.03-3.5-18.78z"/>
  <path fill="#1D1D1D" d="M28.77 82.75l.2.03-3.39 18.8-.2-.04zM39.4 87.14l-10.8 15.74-.16-.12 10.8-15.74z"/>
  <path fill="#1D1D1D" d="M42.73 90.48l.11.17-15.8 10.72-.11-.16zM47.08 101.02l-18.77 3.49-.03-.2 18.76-3.49z"/>
  <path fill="#1D1D1D" d="M47.09 105.63l-.04.2-18.79-3.39.04-.2zM42.71 116.27l-15.73-10.8.11-.17 15.74 10.8z"/>
  <path fill="#1D1D1D" d="M39.42 119.55l-.16.11-10.85-15.7.16-.12zM28.82 123.95l-3.5-18.76.2-.04 3.5 18.77z"/>
  <path fill="#1D1D1D" d="M24.1 123.93l-.19-.04 3.58-18.75.2.04zM13.58 119.58l10.8-15.74.17.11-10.8 15.74z"/>
  <path fill="#1D1D1D" d="M10.25 116.22l-.12-.17 15.8-10.71.11.16zM5.9 105.7l18.76-3.5.04.2-18.77 3.49z"/>
  <path fill="#1D1D1D" d="M5.88 101.07l.04-.2 18.8 3.39-.04.2zM10.27 90.45l15.75 10.8-.11.17-15.75-10.8z"/>
  <path fill="#1D1D1D" d="M13.59 87.13l.16-.11 10.79 15.75-.17.11zM32.29 83.46l-4.03 18.66-.2-.05 4.03-18.66z"/>
  <path fill="#1D1D1D" d="M36.55 85.23l.17.11-10.38 16.04-.17-.11zM44.66 93.38l-16.05 10.35-.11-.17 16.05-10.35z"/>
  <path fill="#1D1D1D" d="M46.44 97.68l.04.2-18.68 3.94-.04-.2z"/>
  <g>
    <path fill="#1D1D1D" d="M46.38 109.16l-18.66-4.04.04-.2 18.67 4.04z"/>
    <path fill="#1D1D1D" d="M44.63 113.38l-.1.17-16.09-10.31.11-.17z"/>
  </g>
  <g>
    <path fill="#1D1D1D" d="M36.46 121.53l-10.34-16.05.17-.11 10.34 16.05z"/>
    <path fill="#1D1D1D" d="M32.13 123.3l-.2.05-3.87-18.7.2-.05z"/>
  </g>
  <g>
    <path fill="#1D1D1D" d="M20.69 123.25l4.03-18.66.2.04-4.04 18.67z"/>
    <path fill="#1D1D1D" d="M16.28 121.38l-.17-.11 10.66-15.84.16.11z"/>
  </g>
  <g>
    <path fill="#1D1D1D" d="M8.31 113.31l16.06-10.35.1.17-16.05 10.35z"/>
    <path fill="#1D1D1D" d="M6.54 109l-.04-.2 18.7-3.9.04.2z"/>
  </g>
  <g>
    <path fill="#1D1D1D" d="M6.59 97.54l18.66 4.04-.04.2-18.67-4.04z"/>
    <path fill="#1D1D1D" d="M8.34 93.3l.11-.16 16.06 10.33-.1.17z"/>
  </g>
  <g>
    <path fill="#1D1D1D" d="M16.52 85.18l10.34 16.05-.16.1L16.35 85.3z"/>
    <path fill="#1D1D1D" d="M20.9 83.4l.2-.04 3.78 18.71-.2.04z"/>
  </g>
  <path fill="#1D1D1D" d="M26.49 80.71a22.64 22.64 0 1 0 0 45.28 22.64 22.64 0 0 0 0-45.28zm0 43.33a20.69 20.69 0 1 1 0-41.38 20.69 20.69 0 0 1 0 41.38z"/>
  <path fill="#191919" d="M26.49 83.27a20.08 20.08 0 1 0 0 40.17 20.08 20.08 0 0 0 0-40.17zm0 38.44a18.35 18.35 0 1 1 0-36.7 18.35 18.35 0 0 1 0 36.7z"/>
  <path fill="#FFF79E" d="M26.49 124.14c-11.46 0-20.79-9.33-20.79-20.79s9.33-20.78 20.79-20.78c11.46 0 20.79 9.32 20.79 20.78s-9.33 20.79-20.8 20.79zm0-40.73c-11 0-19.95 8.94-19.95 19.94S15.5 123.3 26.5 123.3s19.95-8.95 19.95-19.95-8.95-19.94-19.95-19.94z"/>
  <circle fill="#101212" cx="26.49" cy="103.35" r="2.84"/>
  <g>
    <path fill="#1D1D1D" d="M100.37 81.84l3.48 18.77-.2.04-3.48-18.77z"/>
    <path fill="#1D1D1D" d="M105.05 81.84l.2.04-3.48 18.77-.2-.04zM115.63 86.22l-10.81 15.75-.16-.11 10.8-15.75z"/>
    <path fill="#1D1D1D" d="M118.92 89.5l.12.17-15.72 10.85-.11-.16zM123.32 100.1l-18.77 3.48-.04-.2 18.77-3.48z"/>
    <path fill="#1D1D1D" d="M123.32 104.71l-.03.2-18.8-3.37.04-.2zM118.94 115.35l-15.74-10.8.11-.17 15.74 10.8z"/>
    <path fill="#1D1D1D" d="M115.7 118.6l-.17.12-10.94-15.66.16-.11zM105.06 123.02l-3.5-18.77.2-.03 3.5 18.77z"/>
    <path fill="#1D1D1D" d="M100.4 123.04l-.2-.04 3.45-18.78.2.03zM89.8 118.66l10.81-15.74.17.1-10.8 15.75z"/>
    <path fill="#1D1D1D" d="M86.51 115.37l-.11-.16 15.72-10.86.11.17zM82.12 104.77l18.78-3.49.03.2-18.78 3.49z"/>
    <path fill="#1D1D1D" d="M82.13 100.08l.04-.2 18.75 3.55-.03.2zM86.5 89.53l15.74 10.8-.11.17-15.74-10.8z"/>
    <path fill="#1D1D1D" d="M89.82 86.21l.17-.11 10.78 15.75-.17.11zM108.52 82.54l-4.03 18.66-.2-.05 4.03-18.65z"/>
    <path fill="#1D1D1D" d="M112.78 84.32l.17.1-10.37 16.03-.17-.1zM120.9 92.46l-16.06 10.35-.1-.17 16.05-10.34z"/>
    <path fill="#1D1D1D" d="M104 100.87l-.04-.2 18.7-3.88.04.2z"/>
    <g>
      <path fill="#1D1D1D" d="M122.62 108.24l-18.66-4.03.04-.2 18.66 4.04z"/>
      <path fill="#1D1D1D" d="M120.85 112.5l-.1.16-16.05-10.35.11-.17z"/>
    </g>
    <g>
      <path fill="#1D1D1D" d="M112.68 120.6l-10.34-16.04.17-.11 10.34 16.05z"/>
      <path fill="#1D1D1D" d="M108.4 122.37l-.2.05-3.96-18.69.2-.04z"/>
    </g>
    <g>
      <path fill="#1D1D1D" d="M101.14 103.71l-4.03 18.67-.2-.05 4.04-18.66z"/>
      <path fill="#1D1D1D" d="M92.47 120.45l-.17-.11 10.72-15.8.17.11z"/>
    </g>
    <g>
      <path fill="#1D1D1D" d="M84.54 112.41l16.04-10.34.11.17-16.04 10.34z"/>
      <path fill="#1D1D1D" d="M82.78 108.19l-.04-.2 18.65-4.1.05.2z"/>
    </g>
    <g>
      <path fill="#1D1D1D" d="M82.81 96.63l18.66 4.03-.04.2-18.66-4.03z"/>
      <path fill="#1D1D1D" d="M84.65 92.28l.1-.17 15.92 10.55-.1.17z"/>
    </g>
    <g>
      <path fill="#1D1D1D" d="M92.75 84.27l10.35 16.05-.17.11-10.35-16.05z"/>
      <path fill="#1D1D1D" d="M96.98 82.51l.2-.04 4.05 18.66-.2.04z"/>
    </g>
    <path fill="#1D1D1D" d="M102.72 79.8a22.64 22.64 0 1 0 0 45.28 22.64 22.64 0 0 0 0-45.29zm0 43.33a20.7 20.7 0 1 1 0-41.39 20.7 20.7 0 0 1 0 41.39z"/>
    <path fill="#191919" d="M102.72 82.41a20.02 20.02 0 1 0 0 40.05 20.02 20.02 0 0 0 0-40.05zm0 38.32a18.3 18.3 0 1 1 0-36.6 18.3 18.3 0 0 1 0 36.6z"/>
    <path fill="#FFF79E" d="M102.72 123.22a20.8 20.8 0 0 1-20.79-20.79 20.8 20.8 0 0 1 20.79-20.78 20.8 20.8 0 0 1 20.78 20.78 20.8 20.8 0 0 1-20.78 20.8zm0-40.73c-11 0-19.95 8.95-19.95 19.95s8.95 19.94 19.95 19.94 19.94-8.95 19.94-19.94c0-11-8.95-19.95-19.94-19.95z"/>
    <circle fill="#101212" cx="102.72" cy="102.44" r="2.84"/>
  </g>
  <path fill="#1D1D1D" d="M31.36 103.64l.01-.19a.29.29 0 1 1-.02-.57l-.02-.18h-.06a.29.29 0 0 1-.27-.23.29.29 0 0 1 .2-.34l-.05-.17a.29.29 0 0 1-.21-.53l-.08-.17a.29.29 0 0 1-.4-.1.3.3 0 0 1 .1-.39 2.4 2.4 0 0 0-.11-.14.3.3 0 0 1-.18.06.28.28 0 0 1-.22-.1c-.1-.11-.1-.29.02-.4l-.13-.12a.29.29 0 0 1-.22.1.29.29 0 0 1-.23-.46l-.15-.1a.29.29 0 0 1-.39.1.29.29 0 0 1-.11-.39 4.22 4.22 0 0 0-.17-.07.28.28 0 0 1-.36.16.29.29 0 0 1-.18-.35 7.44 7.44 0 0 0-.17-.05.28.28 0 0 1-.29.23h-.04a.28.28 0 0 1-.24-.33l-.18-.01c0 .15-.14.27-.29.27h-.01a.29.29 0 0 1-.29-.28l-.18.02a.29.29 0 0 1-.28.33.29.29 0 0 1-.28-.23l-.18.04a.29.29 0 0 1-.28.38.3.3 0 0 1-.26-.19l-.17.08a.29.29 0 0 1-.5.28l-.15.1a.29.29 0 0 1-.23.46.28.28 0 0 1-.22-.1l-.13.13a.29.29 0 0 1-.2.5.29.29 0 0 1-.18-.07l-.1.15c.12.08.16.25.08.39a.28.28 0 0 1-.38.1l-.1.16c.15.06.22.22.16.37a.29.29 0 0 1-.27.18c-.03 0-.07 0-.1-.02l-.05.17c.15.04.24.2.21.34a.3.3 0 0 1-.33.23l-.03.18a.29.29 0 0 1-.02.57v.19a.29.29 0 0 1 .08.56l.04.18a.3.3 0 0 1 .35.2c.05.14-.04.3-.18.35l.06.17a.29.29 0 0 1 .26.51l.1.16c.13-.09.3-.06.4.06.09.13.06.3-.06.4l.12.14c.1-.11.29-.11.4 0 .11.1.12.28.02.4l.14.1c.09-.12.26-.15.39-.06s.16.26.08.4l.16.08c.07-.14.24-.2.38-.13.14.06.2.23.14.37l.18.06c.04-.15.2-.24.34-.2.16.04.24.2.21.35l.18.03a.29.29 0 0 1 .31-.26.3.3 0 0 1 .27.3H27a.29.29 0 0 1 .57-.04l.18-.03a.29.29 0 0 1 .21-.34.3.3 0 0 1 .35.2l.17-.07c-.06-.14 0-.3.15-.37.14-.06.3 0 .37.14l.16-.1a.3.3 0 0 1 .09-.38c.12-.1.3-.06.39.06l.14-.1c-.1-.12-.1-.3.02-.4a.3.3 0 0 1 .4 0l.11-.14a.29.29 0 1 1 .35-.46l.1-.16a.28.28 0 0 1-.12-.38c.07-.14.24-.2.38-.13l.06-.17a.28.28 0 0 1-.17-.36c.04-.15.2-.23.34-.19l.04-.18a.29.29 0 0 1-.24-.32.28.28 0 0 1 .31-.24zm-.96-.63l-2.2-.2 1.41-1.69c.44.52.72 1.17.79 1.89zm-1.26-2.37l-1.7 1.41-.19-2.19c.71.07 1.36.35 1.89.78zm-2.57-.78l-.2 2.2-1.68-1.42a3.48 3.48 0 0 1 1.88-.78zm-2.37 1.26l1.42 1.69-2.2.2c.07-.72.35-1.37.78-1.89zm-.78 2.57l2.2.2-1.42 1.68a3.48 3.48 0 0 1-.78-1.88zm1.27 2.36l1.68-1.4.2 2.18a3.48 3.48 0 0 1-1.88-.78zm2.56.78l.2-2.19 1.69 1.41c-.53.43-1.18.72-1.89.78zm2.36-1.26l-1.4-1.69 2.19-.2a3.48 3.48 0 0 1-.79 1.9z"/>
  <g>
    <path fill="#00ADEE" d="M103.38 104.03a1.2 1.2 0 0 1-1.53-.54l-11.74-23.9 2.91-1.2 10.96 24.23c.25.54-.02 1.17-.6 1.41z"/>
    <path fill="#1D1D1D" d="M85.45 70.2l-3.97-9.25a.54.54 0 0 1 .3-.72l2.3-1.06a5.1 5.1 0 0 1 1.5-.43l3.23-.4c.44-.05.85.24.91.66l.36 2.52c.06.4-.24.79-.67.85l-2.47.37-.69-.35-.33.15 2.81 6.47-3.28 1.2zM71.15 94.1c-.01-.03-.76-3.43-1.28-5.21-.33-1.13-.52-2.3.28-3.15.35-.37 8.85-8.55 10.04-9.56a2.9 2.9 0 0 1 1.88-.8c.6 0 1.23.24 1.93.74 1.79 1.26 2.97 1.87 2.98 1.87l.33.17-16.06 16.43-.1-.49z"/>
    <path fill="#00ADEE" d="M82.07 75.65c.56 0 1.13.23 1.78.69 1.82 1.29 3.01 1.9 3.01 1.9l-15.45 15.8s-.75-3.42-1.28-5.23c-.39-1.32-.42-2.22.22-2.89.38-.4 8.87-8.56 10.02-9.53.58-.5 1.13-.74 1.7-.74m0-.53c-.7 0-1.36.28-2.05.86-1.2 1-9.7 9.2-10.06 9.57-.9.96-.7 2.2-.35 3.41.52 1.78 1.27 5.17 1.27 5.2l.22.97.69-.71L87.24 78.6l.51-.52-.65-.33s-1.18-.6-2.94-1.85a3.66 3.66 0 0 0-2.1-.78z"/>
    <path fill="#FFF23E" d="M81.9 78.71l-2.84 5.93-1.64-1.84-3.06 4.38L77.17 81l1.66 1.87z"/>
    <path fill="#00ADEE" d="M88.15 76.71l-27.18 28.14-9.83-30.97 35.68-.58-1.14-2.8-35.35.77-1.81-4.97-3.94.88 2.1 6.2-22.01 30.22c-.6.81-.05 1.93 1 2.03l32.59 2.7a1.85 1.85 0 0 0 1.82 1.14l.93-.04a1.9 1.9 0 0 0 1.36-.64l27.23-28.5-1.45-3.58zm-59.24 27.48c-.97-.04-1.5-1.06-.94-1.8l19.72-26.43 9.35 29.24-28.13-1z"/>
    <path fill="#00ADEE" d="M94.36 81.24l-3.28 1.27a.74.74 0 0 1-.95-.37l-5.2-11.72c-.11-.28.03-.58.32-.7l3.56-1.37c.29-.12.63.01.75.29l5.2 11.72c.15.34-.03.73-.4.88z"/>
  </g>
  <path fill="#1D1D1D" d="M67.4 106.69l.02-.28a.44.44 0 0 1-.04-.88c0-.1-.01-.2-.03-.28h-.08a.44.44 0 0 1-.1-.87l-.09-.26a.44.44 0 0 1-.33-.82 5.29 5.29 0 0 0-.12-.25.44.44 0 0 1-.46-.75l-.17-.23a.43.43 0 0 1-.6-.05.44.44 0 0 1 .02-.61 5.2 5.2 0 0 0-.2-.2.44.44 0 0 1-.69-.55 6.6 6.6 0 0 0-.23-.16.45.45 0 0 1-.6.16.45.45 0 0 1-.17-.6 4.17 4.17 0 0 0-.25-.1.44.44 0 0 1-.56.25.44.44 0 0 1-.27-.55l-.27-.07a.45.45 0 0 1-.5.34.44.44 0 0 1-.37-.5l-.28-.02c0 .24-.2.43-.44.43h-.02a.44.44 0 0 1-.44-.43l-.28.02a.44.44 0 0 1-.87.15l-.27.07a.44.44 0 0 1-.42.58.44.44 0 0 1-.4-.28c-.1.03-.18.07-.26.11a.44.44 0 0 1-.77.43l-.24.16c.15.19.12.46-.07.6a.44.44 0 0 1-.61-.05l-.2.2a.44.44 0 0 1-.59.66l-.16.22a.44.44 0 0 1-.25.81.43.43 0 0 1-.21-.06 4.5 4.5 0 0 0-.13.25c.22.1.32.35.23.57a.45.45 0 0 1-.56.25l-.08.27a.44.44 0 0 1-.19.86l-.03.28c.23.02.42.22.4.46a.44.44 0 0 1-.44.42l.01.28c.23-.02.45.15.48.38a.44.44 0 0 1-.37.5l.06.27c.23-.06.47.07.54.3s-.06.46-.28.54l.1.26a.44.44 0 0 1 .4.79l.15.24c.2-.14.46-.1.6.1.14.2.1.46-.08.6l.18.22a.44.44 0 0 1 .62 0c.17.16.18.43.02.6l.22.19c.14-.2.4-.24.6-.11.2.14.25.4.13.6l.24.14c.1-.21.36-.3.58-.2.22.1.31.34.23.56l.26.1a.44.44 0 0 1 .85.22l.28.05a.44.44 0 0 1 .88.07h.28c-.01-.24.16-.44.4-.46.24-.02.45.15.48.39l.27-.05a.44.44 0 0 1 .85-.22l.27-.1a.44.44 0 1 1 .8-.36l.25-.13a.44.44 0 0 1 .73-.5l.22-.17a.44.44 0 0 1 .02-.61.44.44 0 0 1 .61 0l.19-.21a.44.44 0 0 1-.08-.6c.14-.2.4-.24.6-.11l.15-.24a.44.44 0 0 1 .4-.78l.1-.26a.44.44 0 0 1-.27-.55c.07-.23.3-.36.53-.3l.06-.27a.44.44 0 0 1-.36-.49c.03-.24.24-.4.47-.38zm-1.48-.97l-3.36-.3 2.17-2.6c.66.81 1.09 1.8 1.2 2.9zM64 102.1l-2.6 2.17-.3-3.37c1.1.1 2.1.54 2.9 1.2zm-3.94-1.2l-.3 3.37-2.6-2.17c.8-.66 1.8-1.1 2.9-1.2zm-3.63 1.94l2.16 2.6-3.36.3c.1-1.1.54-2.1 1.2-2.9zm-1.2 3.93l3.36.3-2.16 2.6c-.66-.8-1.1-1.8-1.2-2.9zm1.93 3.64l2.6-2.17.3 3.37c-1.1-.1-2.1-.54-2.9-1.2zm3.95 1.2l.3-3.37 2.6 2.17c-.81.66-1.81 1.1-2.9 1.2zm3.63-1.94l-2.17-2.6 3.37-.3c-.11 1.1-.54 2.1-1.2 2.9z"/>
  <g fill="#1D1D1D">
    <path d="M61.73 105.5l3.24-8.9-1.47-.54-3.44 9.44z"/>
    <path d="M66.81 95.05L63.1 93.7a.94.94 0 0 0-1.2.57l-.22.58a.94.94 0 0 0 .56 1.2l3.73 1.36a.94.94 0 0 0 1.2-.56l.21-.58a.94.94 0 0 0-.56-1.2z"/>
  </g>
  <path fill="#EBA385" d="M68.92 36.04l2.62 4.15s14 10 16.77 11.23c0 0 4-1.08 5.08.62 1 1.58-.01 5.46-2.42 5.57a.48.48 0 0 1-.5-.44c-.04-.53-.35-1.32-1.85-.67 0 0-.77 1.07-2.31-2 0 0-10.92-4.77-16-8.16-5.08-3.38-7.39-9.38-7.39-9.38l6-.92z"/>
  <g>
    <path fill="#EBA385" d="M41.15 53.23s-4.78 6.67 1.46 9.9C48.85 66.36 67.79 67 67.79 67s-2 2.75-3.39 9.5c-1.08 5.28-3.14 12.12-3.14 12.12l3.55 1.82s2.48-8.17 4.52-11.4c2.04-3.23 7.2-13.34 7.1-15.81-.1-2.47-24.53-8.17-24.53-8.17s-7.1 0-10.75-1.83z"/>
    <path fill="#E0967C" d="M70.5 67.64c.51-.66 1.05-1.45.84-2.25-.14-.59-.66-1.02-1.24-1.23-.57-.2-1.18-.2-1.79-.22l-3.83-.05c-.57 0-1.14-.01-1.7.07-1.15.19-2.19.75-3.2 1.3-.54.3-1.1.62-1.51 1.07 5.28.52 9.72.67 9.72.67s-2 2.75-3.39 9.5c-1.08 5.28-3.14 12.12-3.14 12.12l.94.48c.32-.08.62-.22.87-.44.4-.34.64-.81.86-1.28.88-1.82 1.7-3.73 1.79-5.75.06-1.26-.17-2.52-.13-3.78.12-3.84 2.58-7.16 4.92-10.21z"/>
    <path fill="#2A368E" d="M52.88 54.2l21.6 6.76a3.95 3.95 0 0 1 2.58 2.57c.32.97.23 2.03-.22 2.94L66.53 87.25l-5.17-2.04 4.58-16.35s-20.89-2.51-23.9-4.58c-1.78-1.22-3.67-2.4-4.15-4.91-.49-2.51 2.45-7.29 2.45-7.29l12.54 2.12z"/>
  </g>
  <path fill="#1D1D1D" d="M89.95 55.11a1.4 1.4 0 0 0-1.8.82l-1.26 3.32a1.4 1.4 0 0 0 2.62.99l1.26-3.32a1.4 1.4 0 0 0-.81-1.8z"/>
  <circle fill="#1D1D1D" cx="89.7" cy="55.33" r="1.78"/>
  <path fill="#C49A3D" d="M86.36 48.45l-1.88 2.32-18.66-10.7-7.94-17.45 2.26.76 11.65 15.61c.12.19.26.34.44.47l14.13 8.99z"/>
  <path fill="#FED45C" d="M71.78 41.08a4.98 4.98 0 0 1-1.32-1.46s-7.64-13.74-8.4-15.2c-.78-1.47-2.66-4.09-4.55-4.82l-4.75-2.64-2.6 2.59a18.8 18.8 0 0 0-4.91 8.55c-2.22 8.45-6.5 24.8-6.5 25.04 0 .32-.18 2.27 2.7 3.68 2.9 1.4 2.6 1.19 8-.01 5.33-1.19 7.18.74 7.37-1.4s2.32-12.3 3.6-19.25l2.25 3.77 1.89 3.6c.25.48.64.87 1.12 1.12l18.2 9.57 3.15-4.45-15.25-8.69z"/>
  <path fill="#1D1D1D" d="M67.85 11.98a.7.7 0 0 0-.64-.68c-.63-.05-2.09-.2-2.46-.02-.57.3-1.04 1.9-.22 2.99.83 1.08 2.18.36 2.72-.1.39-.35.61-1.51.6-2.2z"/>
  <path fill="#0A064C" d="M65.9 14.42c-.45.08-.8-.04-1.05-.4a2.03 2.03 0 0 1-.31-1.66c.1-.44.29-.68.39-.73l.07-.02c.41-.08 1.4.01 1.93.06l.25.02c.15.02.27.14.28.3.02.68-.23 1.66-.47 1.88-.23.2-.66.47-1.1.55z"/>
  <path fill="#1D1D1D" d="M64.75 11.28l-4.43.47.14.7 3.79.18z"/>
  <path fill="#4D2B05" d="M61.36 86.9l4.25 1.77 2.32 3.46 3.65 1.95 1.58.67v1.28l-1.04 1.09-13.38-3.71-.24-1.1 2.19-4.13z"/>
  <path fill="#B8826F" d="M58.19 11.12s.94-.49 1.23.16c.3.65-.55.78-.16 1.17.39.4.81.56.46.88-.36.33-.2-.52-.6-.62-.38-.1-1.06-.45-.48-.8.59-.37.3-.99-.45-.8zM57.45 12.21s-.01.9.64 1.41c.65.53.45 1.47 1.04 1.5.58.04.94-.39.94-.39s-.78.65-1.04 0a3.66 3.66 0 0 0-.88-1.5c-.39-.32-.53-.4-.7-1.02z"/>
  <path fill="#1D1D1D" d="M66 101.5a7.26 7.26 0 0 0-5.31-2.45l-29.86-.48-.58.77 30.42.49a6.47 6.47 0 0 1 6.33 7.22 6.47 6.47 0 0 1-7.42 5.7l-33.36-5.22a4.16 4.16 0 0 1 .64-8.25h.06l.88.02.56-.77-1.42-.03h-.08a4.94 4.94 0 0 0-.76 9.8l33.35 5.22a7.25 7.25 0 0 0 8.32-6.38 7.32 7.32 0 0 0-1.76-5.63z"/>
  <path fill="#00ADEE" d="M61.63.85L60.46.67a.26.26 0 0 0-.3.21l-1.56 9.73c-.02.14.07.28.22.3l1.16.19c.14.02.28-.08.3-.22l1.56-9.73a.26.26 0 0 0-.21-.3z"/>
  <circle fill="#25A9E0" cx="59.23" cy="11.96" r="2.55"/>
  <circle fill="#097EA8" cx="59.23" cy="11.96" r="1.85"/>
  <path fill="#191E44" d="M61.58 83.3l5.95 2.3-.79 2.05-5.8-2.27z"/>
  <path fill="#3F0300" d="M65.46 18.48c-.34-.17-.53-.33-.38-.27.82.32 1.07.19 1.14.18l-.34.17c-.13.04-.21.03-.42-.08z"/>
  <path opacity=".5" fill="#472107" d="M66.65 16.78l-.06.3c-.12.05-.92-.38-.67-.36.23.01.6.09.73.06zM65.71 19.8s-.8-.3-1.05-.79c0 0 .08.77 1 .95 0 0 .05-.1.05-.15z"/>
</svg>
