<svg xmlns="http://www.w3.org/2000/svg" width="96.6" height="44.7"><path fill-rule="evenodd" clip-rule="evenodd" fill="#894512" d="M26.2 27.7c-2.6 1-5.4.3-9.6-3.5-4.2-3.7-9.1-6.5-11.3-4.3-2.1 2.3-.7 9.3 1 11.9 1.6 2.5 6.4 3.4 17.7 3.4 11.3 0 13.6-7.7 2.2-7.5z"/><path fill-rule="evenodd" clip-rule="evenodd" fill="#424242" d="M77 41.8a3.4 3.4 0 1 0 0-6.8 3.4 3.4 0 0 0 0 6.8z"/><path fill-rule="evenodd" clip-rule="evenodd" fill="#FFF" d="M77 40.3a1.8 1.8 0 0 0 0-3.7c-1 0-1.9.8-1.9 1.8s.9 1.9 1.9 1.9z"/><path fill-rule="evenodd" clip-rule="evenodd" fill="#EF6C00" d="M70.7 29.4l1.6-1 4.3 7.4-1.6 1z"/><path fill-rule="evenodd" clip-rule="evenodd" fill="#EF6C00" d="M85 27.1l-1-.8L73 38l.8.9z"/><path fill-rule="evenodd" clip-rule="evenodd" fill="#894512" d="M65.1 19.5c-.2 0-.5.3-.5.5-.2.5-.8 1.6-2 1.6-1.4 0-1-1.1-1.3-1.6a1.8 1.8 0 0 0-1.3-3 1.8 1.8 0 0 0-1 3.3c-1 1-1.6 3.1-1.5 6 .2 3.5 9.6.2 9.6.2s-2.5-2.3-2.1-4c.3-1.6.6-2.3.6-2.3V20c0-.2-.2-.5-.5-.5z"/><path fill-rule="evenodd" clip-rule="evenodd" fill="#FFAB40" d="M93.6 20.4c.4 3.2-4.7 9-26.6 11.7-22 2.7-52.6 4.2-53.9 2.2-1.1-1.7 22-10.7 38.5-14.4.2 2 .7 3.5 2.1 3.2 2.3-.6 10.4-2 13.8-2.6 2.9-.6 3-1.7 3-3.1 12.3-.9 22.8-.2 23.1 3z"/><path fill-rule="evenodd" clip-rule="evenodd" fill="#F57F17" d="M82 29a90.4 90.4 0 0 1-19.4 3.6l-1.5-11 6.4-1.1c2.9-.6 3-1.7 3-3.1l5.6-.3L82 29z"/><ellipse transform="scale(-1) rotate(79.9 25 -108.2)" fill-rule="evenodd" clip-rule="evenodd" fill="#FFAB40" cx="90.6" cy="21" rx="1.9" ry="6"/><path fill-rule="evenodd" clip-rule="evenodd" fill="#FFAB40" d="M94 18.9l-3 .1.3 1.4H94v-1.5z"/><path fill-rule="evenodd" clip-rule="evenodd" fill="#F57F17" d="M93.6 20.8H93v.1h-.2v.1h-.1v.1h-.1v.1h-.1v.1h-.1v.1h-.1v.1h-.1l-.1.1H92v.2h-.2l-.1.1-.1.1-.1.1h-.1l-.1.1-.1.1h-.1l-.1.1-.1.1-.2.1-.2.1C87.2 25 80.4 28.2 68 29.5c-19 2-43.6 4.3-51.7 3l-.6-.2c-1.8 1-2.8 1.7-2.6 2.1 1.3 2 32 .5 53.9-2.2 18.1-2.3 24.7-6.7 26.3-9.9 1.8-.5 3-1.3 3.2-2l-2.9.6z"/><path fill-rule="evenodd" clip-rule="evenodd" fill="#FFAB40" d="M93.6 20.8H93v.1h-.2v.1h-.1v.1h-.1v.1h-.1v.1h-.1v.1h-.1v.1h-.1l-.1.1H92v.2h-.2l-.1.1-.1.1-.1.1h-.1l-.1.1-.1.1h-.1l-.1.1-.1.1-.2.1-.2.1-.2.2a16.8 16.8 0 0 0 2.9-.7H93.7V22H94l1-.5h.2v-.1h.1l.1-.1h.1v-.1h.1l.1-.1h.1l.2-.2.1-.1h.1l.1-.2v-.1h.2V20.2h.1v-.1l-2.9.6z"/>
<path fill-rule="evenodd" clip-rule="evenodd" fill="#424242" d="M92.1 7.8a101.8 101.8 0 0 0 4.5 25 100.7 100.7 0 0 0-4.5-25z" class="helix"/>
<path fill-rule="evenodd" clip-rule="evenodd" fill="#FFAB40" d="M95.4 21.3c.8-.5 1.2-1 1.1-1.4 0-.4-.6-.7-1.5-.9a3.9 3.9 0 0 0 .4 2.3z"/><path fill-rule="evenodd" clip-rule="evenodd" fill="#424242" d="M74 44.7a3.8 3.8 0 0 0 0-7.6 3.8 3.8 0 0 0 0 7.6z"/><path fill-rule="evenodd" clip-rule="evenodd" fill="#FFF" d="M74 43a2 2 0 1 0 0-4.2 2 2 0 0 0 0 4.1z"/><path fill-rule="evenodd" clip-rule="evenodd" fill="#894512" d="M77.9 10.2c.8 0 .8.4-.6.7-1.3.2-14.1 3.1-15.8 3.3-1.6.1-6.5.4-9.7-.5s-18.8-6-20-6.4c-1.3-.5-2.2-.7-.8-1.3C32.3 5.4 49.6.8 52.3.4c2.6-.4 4.9-.8 6.4.6C60.3 2.4 71 8.8 72 9.6c.8.8 4.3.7 6 .6z"/><path fill-rule="evenodd" clip-rule="evenodd" fill="#EF6C00" d="M70.2 31.6L72 31l3 9.6-2 .5z"/><path fill-rule="evenodd" clip-rule="evenodd" fill="#602E0D" d="M48.7 9l-1.5.1 2 24.2 1.6-.2zM59.4 6L61 6l2.8 26-1.6.1z"/><path fill="#602E0D" d="M59.4 6l-9 27 .4.1L60 6.2z"/><path fill="#602E0D" d="M48.3 9.3l14 22.7.4-.3L48.7 9z"/><g fill="#602E0D"><path fill-rule="evenodd" clip-rule="evenodd" d="M68.2 12.4H67l.9 8L69 20l-.9-7.6zM75.7 11h-1.2l.6 6.1h1.3l-.7-6.2z"/><path d="M74.5 11l-1.7 6.2h.3l1.7-6zM68 12.6l2.7 4.8h.3l-2.7-5z"/></g><path fill-rule="evenodd" clip-rule="evenodd" fill="#894512" d="M74 31c-3.1-.2-12-.1-16 .1s-9.4 1.7-13.9 3c-4.4 1.4-9.1 3.1-9.3 3.7-.3.5 2.2.3 5.3 0 3.1-.2 15.4-2.4 17.7-2.6 2.3-.3 17.6-4 16.3-4.2z"/><path fill-rule="evenodd" clip-rule="evenodd" fill="#F57F17" d="M4.2 24.3c.1 2.8 1 6 2 7.5 1.7 2.5 6.5 3.4 17.8 3.4 4.5 0 7.6-1.2 9-2.7-7.3.4-13.4.4-16.7-.2-8-1.4-9.7-2.2-12-7.8v-.2z"/><ellipse transform="scale(-1) rotate(81.9 36.5 -14.8)" fill-rule="evenodd" clip-rule="evenodd" fill="#F57F17" cx="12.9" cy="31.6" rx="1.3" ry="13"/><path fill-rule="evenodd" clip-rule="evenodd" fill="#FFAB40" d="M12.7 30.4c-7.1 1-12.8 2.4-12.7 3l25.7-3.6c0-.7-6-.4-13 .6z"/>
<style>
	.helix {
		transform-origin: 50% 45.6%;
		animation: rotateme 0.1s linear infinite;
	}
	@keyframes rotateme {
		0% {
			transform: rotateX(0deg);
		}
		100% {
			transform: rotateX(360deg);
		}
	}
</style>
</svg>