<?xml version="1.0" encoding="utf-8"?>
<!-- Generator: Adobe Illustrator 16.0.0, SVG Export Plug-In . SVG Version: 6.00 Build 0)  -->
<!DOCTYPE svg PUBLIC "-//W3C//DTD SVG 1.1//EN" "http://www.w3.org/Graphics/SVG/1.1/DTD/svg11.dtd">
<svg version="1.1" id="Layer_1" xmlns="http://www.w3.org/2000/svg" xmlns:xlink="http://www.w3.org/1999/xlink" x="0px" y="0px"
	 width="32px" height="32px" viewBox="0 0 32 32" enable-background="new 0 0 32 32" xml:space="preserve">
<path fill="#004494" d="M16,1C8.268,1,2,7.492,2,15.5C2,23.508,8.268,30,16,30c7.732,0,14-6.492,14-14.5C30,7.492,23.732,1,16,1z
	 M16,28.771c-7.052,0-12.797-5.926-12.797-13.271S8.948,2.229,16,2.229c7.053,0,12.797,5.926,12.797,13.271S23.053,28.771,16,28.771
	z"/>
<path fill="#004494" d="M21.021,19.211l-3.689-3.769l3.689-3.769l-1.526-1.56l-3.689,3.769l-3.689-3.769l-1.527,1.56l3.689,3.769
	l-3.689,3.769l1.527,1.56l3.689-3.769l3.689,3.769L21.021,19.211z"/>
</svg>
