<?xml version="1.0" encoding="utf-8"?>
<!-- Generator: Adobe Illustrator 16.0.0, SVG Export Plug-In . SVG Version: 6.00 Build 0)  -->
<!DOCTYPE svg PUBLIC "-//W3C//DTD SVG 1.1//EN" "http://www.w3.org/Graphics/SVG/1.1/DTD/svg11.dtd">
<svg version="1.1" id="Layer_1" xmlns="http://www.w3.org/2000/svg" xmlns:xlink="http://www.w3.org/1999/xlink" x="0px" y="0px"
	 width="87px" height="36px" viewBox="0 0 87 36" enable-background="new 0 0 87 36" xml:space="preserve">
<g>
	<path fill="#FFFFFF" enable-background="new    " d="M21.748,32.285c0,1.313,0.25,2.564,0.7,3.715H86.3
		c0.453-1.15,0.7-2.402,0.7-3.715c0-4.779-3.292-8.774-7.688-9.765c0.118-0.631,0.182-1.282,0.182-1.951
		c0-5.679-4.524-10.285-10.104-10.285c-0.7,0-1.385,0.073-2.043,0.211C66.953,4.644,61.297,0,54.374,0
		C47.493,0,41.86,4.588,41.412,10.393c-0.482-0.071-0.972-0.108-1.475-0.108c-5.578,0-10.104,4.605-10.104,10.285
		c0,0.63,0.055,1.244,0.163,1.843C25.319,23.178,21.748,27.306,21.748,32.285z"/>
	<path fill="#FFFFFF" d="M19.832,36H0.412C0.142,35.183,0,34.318,0,33.428c0-5.207,4.902-9.43,10.951-9.43
		c0.4,0,0.797,0.02,1.186,0.056c-0.058-0.392-0.091-0.791-0.091-1.197c0-5.049,4.902-9.143,10.95-9.143
		c1.821,0,3.54,0.371,5.051,1.028c-1.076,1.658-1.703,3.665-1.703,5.828c0,0.669,0.062,1.32,0.176,1.951
		c-4.208,0.99-7.356,4.985-7.356,9.765C19.164,33.598,19.399,34.85,19.832,36z"/>
</g>
</svg>
